G04 #@! TF.GenerationSoftware,KiCad,Pcbnew,(5.1.8-0-10_14)*
G04 #@! TF.CreationDate,2020-12-31T12:29:52-08:00*
G04 #@! TF.ProjectId,esp32_sync,65737033-325f-4737-996e-632e6b696361,rev?*
G04 #@! TF.SameCoordinates,Original*
G04 #@! TF.FileFunction,Legend,Top*
G04 #@! TF.FilePolarity,Positive*
%FSLAX46Y46*%
G04 Gerber Fmt 4.6, Leading zero omitted, Abs format (unit mm)*
G04 Created by KiCad (PCBNEW (5.1.8-0-10_14)) date 2020-12-31 12:29:52*
%MOMM*%
%LPD*%
G01*
G04 APERTURE LIST*
%ADD10C,0.150000*%
%ADD11C,0.125000*%
%ADD12C,0.300000*%
%ADD13C,0.100000*%
%ADD14C,0.120000*%
G04 APERTURE END LIST*
D10*
X129254761Y-141184761D02*
X129397619Y-141232380D01*
X129635714Y-141232380D01*
X129730952Y-141184761D01*
X129778571Y-141137142D01*
X129826190Y-141041904D01*
X129826190Y-140946666D01*
X129778571Y-140851428D01*
X129730952Y-140803809D01*
X129635714Y-140756190D01*
X129445238Y-140708571D01*
X129350000Y-140660952D01*
X129302380Y-140613333D01*
X129254761Y-140518095D01*
X129254761Y-140422857D01*
X129302380Y-140327619D01*
X129350000Y-140280000D01*
X129445238Y-140232380D01*
X129683333Y-140232380D01*
X129826190Y-140280000D01*
X130159523Y-140565714D02*
X130397619Y-141232380D01*
X130635714Y-140565714D02*
X130397619Y-141232380D01*
X130302380Y-141470476D01*
X130254761Y-141518095D01*
X130159523Y-141565714D01*
X131016666Y-140565714D02*
X131016666Y-141232380D01*
X131016666Y-140660952D02*
X131064285Y-140613333D01*
X131159523Y-140565714D01*
X131302380Y-140565714D01*
X131397619Y-140613333D01*
X131445238Y-140708571D01*
X131445238Y-141232380D01*
X132350000Y-141184761D02*
X132254761Y-141232380D01*
X132064285Y-141232380D01*
X131969047Y-141184761D01*
X131921428Y-141137142D01*
X131873809Y-141041904D01*
X131873809Y-140756190D01*
X131921428Y-140660952D01*
X131969047Y-140613333D01*
X132064285Y-140565714D01*
X132254761Y-140565714D01*
X132350000Y-140613333D01*
X133873809Y-140708571D02*
X134016666Y-140756190D01*
X134064285Y-140803809D01*
X134111904Y-140899047D01*
X134111904Y-141041904D01*
X134064285Y-141137142D01*
X134016666Y-141184761D01*
X133921428Y-141232380D01*
X133540476Y-141232380D01*
X133540476Y-140232380D01*
X133873809Y-140232380D01*
X133969047Y-140280000D01*
X134016666Y-140327619D01*
X134064285Y-140422857D01*
X134064285Y-140518095D01*
X134016666Y-140613333D01*
X133969047Y-140660952D01*
X133873809Y-140708571D01*
X133540476Y-140708571D01*
X134683333Y-141232380D02*
X134588095Y-141184761D01*
X134540476Y-141137142D01*
X134492857Y-141041904D01*
X134492857Y-140756190D01*
X134540476Y-140660952D01*
X134588095Y-140613333D01*
X134683333Y-140565714D01*
X134826190Y-140565714D01*
X134921428Y-140613333D01*
X134969047Y-140660952D01*
X135016666Y-140756190D01*
X135016666Y-141041904D01*
X134969047Y-141137142D01*
X134921428Y-141184761D01*
X134826190Y-141232380D01*
X134683333Y-141232380D01*
X135873809Y-141232380D02*
X135873809Y-140708571D01*
X135826190Y-140613333D01*
X135730952Y-140565714D01*
X135540476Y-140565714D01*
X135445238Y-140613333D01*
X135873809Y-141184761D02*
X135778571Y-141232380D01*
X135540476Y-141232380D01*
X135445238Y-141184761D01*
X135397619Y-141089523D01*
X135397619Y-140994285D01*
X135445238Y-140899047D01*
X135540476Y-140851428D01*
X135778571Y-140851428D01*
X135873809Y-140803809D01*
X136350000Y-141232380D02*
X136350000Y-140565714D01*
X136350000Y-140756190D02*
X136397619Y-140660952D01*
X136445238Y-140613333D01*
X136540476Y-140565714D01*
X136635714Y-140565714D01*
X137397619Y-141232380D02*
X137397619Y-140232380D01*
X137397619Y-141184761D02*
X137302380Y-141232380D01*
X137111904Y-141232380D01*
X137016666Y-141184761D01*
X136969047Y-141137142D01*
X136921428Y-141041904D01*
X136921428Y-140756190D01*
X136969047Y-140660952D01*
X137016666Y-140613333D01*
X137111904Y-140565714D01*
X137302380Y-140565714D01*
X137397619Y-140613333D01*
X131826190Y-141882380D02*
X132159523Y-142882380D01*
X132492857Y-141882380D01*
X133350000Y-142882380D02*
X132778571Y-142882380D01*
X133064285Y-142882380D02*
X133064285Y-141882380D01*
X132969047Y-142025238D01*
X132873809Y-142120476D01*
X132778571Y-142168095D01*
X133778571Y-142787142D02*
X133826190Y-142834761D01*
X133778571Y-142882380D01*
X133730952Y-142834761D01*
X133778571Y-142787142D01*
X133778571Y-142882380D01*
X134445238Y-141882380D02*
X134540476Y-141882380D01*
X134635714Y-141930000D01*
X134683333Y-141977619D01*
X134730952Y-142072857D01*
X134778571Y-142263333D01*
X134778571Y-142501428D01*
X134730952Y-142691904D01*
X134683333Y-142787142D01*
X134635714Y-142834761D01*
X134540476Y-142882380D01*
X134445238Y-142882380D01*
X134350000Y-142834761D01*
X134302380Y-142787142D01*
X134254761Y-142691904D01*
X134207142Y-142501428D01*
X134207142Y-142263333D01*
X134254761Y-142072857D01*
X134302380Y-141977619D01*
X134350000Y-141930000D01*
X134445238Y-141882380D01*
D11*
X128171428Y-139404285D02*
X128171428Y-138904285D01*
X128171428Y-138975714D02*
X128207142Y-138940000D01*
X128278571Y-138904285D01*
X128385714Y-138904285D01*
X128457142Y-138940000D01*
X128492857Y-139011428D01*
X128492857Y-139404285D01*
X128492857Y-139011428D02*
X128528571Y-138940000D01*
X128599999Y-138904285D01*
X128707142Y-138904285D01*
X128778571Y-138940000D01*
X128814285Y-139011428D01*
X128814285Y-139404285D01*
X129492857Y-138904285D02*
X129492857Y-139404285D01*
X129171428Y-138904285D02*
X129171428Y-139297142D01*
X129207142Y-139368571D01*
X129278571Y-139404285D01*
X129385714Y-139404285D01*
X129457142Y-139368571D01*
X129492857Y-139332857D01*
X129778571Y-138904285D02*
X129957142Y-139404285D01*
X130135714Y-138904285D01*
X130421428Y-139404285D02*
X130421428Y-138904285D01*
X130421428Y-138654285D02*
X130385714Y-138690000D01*
X130421428Y-138725714D01*
X130457142Y-138690000D01*
X130421428Y-138654285D01*
X130421428Y-138725714D01*
X130778571Y-139332857D02*
X130814285Y-139368571D01*
X130778571Y-139404285D01*
X130742857Y-139368571D01*
X130778571Y-139332857D01*
X130778571Y-139404285D01*
X131457142Y-138904285D02*
X131457142Y-139404285D01*
X131135714Y-138904285D02*
X131135714Y-139297142D01*
X131171428Y-139368571D01*
X131242857Y-139404285D01*
X131349999Y-139404285D01*
X131421428Y-139368571D01*
X131457142Y-139332857D01*
X132135714Y-139368571D02*
X132064285Y-139404285D01*
X131921428Y-139404285D01*
X131849999Y-139368571D01*
X131814285Y-139332857D01*
X131778571Y-139261428D01*
X131778571Y-139047142D01*
X131814285Y-138975714D01*
X131849999Y-138940000D01*
X131921428Y-138904285D01*
X132064285Y-138904285D01*
X132135714Y-138940000D01*
X132457142Y-139404285D02*
X132457142Y-138904285D01*
X132457142Y-138975714D02*
X132492857Y-138940000D01*
X132564285Y-138904285D01*
X132671428Y-138904285D01*
X132742857Y-138940000D01*
X132778571Y-139011428D01*
X132778571Y-139404285D01*
X132778571Y-139011428D02*
X132814285Y-138940000D01*
X132885714Y-138904285D01*
X132992857Y-138904285D01*
X133064285Y-138940000D01*
X133100000Y-139011428D01*
X133100000Y-139404285D01*
X133742857Y-139368571D02*
X133671428Y-139404285D01*
X133528571Y-139404285D01*
X133457142Y-139368571D01*
X133421428Y-139297142D01*
X133421428Y-139011428D01*
X133457142Y-138940000D01*
X133528571Y-138904285D01*
X133671428Y-138904285D01*
X133742857Y-138940000D01*
X133778571Y-139011428D01*
X133778571Y-139082857D01*
X133421428Y-139154285D01*
X134099999Y-139404285D02*
X134099999Y-138904285D01*
X134099999Y-139047142D02*
X134135714Y-138975714D01*
X134171428Y-138940000D01*
X134242857Y-138904285D01*
X134314285Y-138904285D01*
X134885714Y-139368571D02*
X134814285Y-139404285D01*
X134671428Y-139404285D01*
X134600000Y-139368571D01*
X134564285Y-139332857D01*
X134528571Y-139261428D01*
X134528571Y-139047142D01*
X134564285Y-138975714D01*
X134600000Y-138940000D01*
X134671428Y-138904285D01*
X134814285Y-138904285D01*
X134885714Y-138940000D01*
X135492857Y-139368571D02*
X135421428Y-139404285D01*
X135278571Y-139404285D01*
X135207142Y-139368571D01*
X135171428Y-139297142D01*
X135171428Y-139011428D01*
X135207142Y-138940000D01*
X135278571Y-138904285D01*
X135421428Y-138904285D01*
X135492857Y-138940000D01*
X135528571Y-139011428D01*
X135528571Y-139082857D01*
X135171428Y-139154285D01*
X136171428Y-139404285D02*
X136171428Y-138654285D01*
X136171428Y-139368571D02*
X136100000Y-139404285D01*
X135957142Y-139404285D01*
X135885714Y-139368571D01*
X135850000Y-139332857D01*
X135814285Y-139261428D01*
X135814285Y-139047142D01*
X135850000Y-138975714D01*
X135885714Y-138940000D01*
X135957142Y-138904285D01*
X136100000Y-138904285D01*
X136171428Y-138940000D01*
X136528571Y-139332857D02*
X136564285Y-139368571D01*
X136528571Y-139404285D01*
X136492857Y-139368571D01*
X136528571Y-139332857D01*
X136528571Y-139404285D01*
X137171428Y-139368571D02*
X137100000Y-139404285D01*
X136957142Y-139404285D01*
X136885714Y-139368571D01*
X136850000Y-139297142D01*
X136850000Y-139011428D01*
X136885714Y-138940000D01*
X136957142Y-138904285D01*
X137100000Y-138904285D01*
X137171428Y-138940000D01*
X137207142Y-139011428D01*
X137207142Y-139082857D01*
X136850000Y-139154285D01*
X137850000Y-139404285D02*
X137850000Y-138654285D01*
X137850000Y-139368571D02*
X137778571Y-139404285D01*
X137635714Y-139404285D01*
X137564285Y-139368571D01*
X137528571Y-139332857D01*
X137492857Y-139261428D01*
X137492857Y-139047142D01*
X137528571Y-138975714D01*
X137564285Y-138940000D01*
X137635714Y-138904285D01*
X137778571Y-138904285D01*
X137850000Y-138940000D01*
X138528571Y-138904285D02*
X138528571Y-139404285D01*
X138207142Y-138904285D02*
X138207142Y-139297142D01*
X138242857Y-139368571D01*
X138314285Y-139404285D01*
X138421428Y-139404285D01*
X138492857Y-139368571D01*
X138528571Y-139332857D01*
D12*
X128528571Y-137838571D02*
X128528571Y-136338571D01*
X129028571Y-137410000D01*
X129528571Y-136338571D01*
X129528571Y-137838571D01*
X130242857Y-136338571D02*
X130242857Y-137552857D01*
X130314285Y-137695714D01*
X130385714Y-137767142D01*
X130528571Y-137838571D01*
X130814285Y-137838571D01*
X130957142Y-137767142D01*
X131028571Y-137695714D01*
X131100000Y-137552857D01*
X131100000Y-136338571D01*
X131600000Y-136338571D02*
X132100000Y-137838571D01*
X132600000Y-136338571D01*
X133100000Y-137838571D02*
X133100000Y-136338571D01*
X135671428Y-137838571D02*
X134957142Y-137838571D01*
X134957142Y-136338571D01*
X136814285Y-137838571D02*
X136814285Y-137052857D01*
X136742857Y-136910000D01*
X136600000Y-136838571D01*
X136314285Y-136838571D01*
X136171428Y-136910000D01*
X136814285Y-137767142D02*
X136671428Y-137838571D01*
X136314285Y-137838571D01*
X136171428Y-137767142D01*
X136100000Y-137624285D01*
X136100000Y-137481428D01*
X136171428Y-137338571D01*
X136314285Y-137267142D01*
X136671428Y-137267142D01*
X136814285Y-137195714D01*
X137528571Y-137838571D02*
X137528571Y-136338571D01*
X137528571Y-136910000D02*
X137671428Y-136838571D01*
X137957142Y-136838571D01*
X138100000Y-136910000D01*
X138171428Y-136981428D01*
X138242857Y-137124285D01*
X138242857Y-137552857D01*
X138171428Y-137695714D01*
X138100000Y-137767142D01*
X137957142Y-137838571D01*
X137671428Y-137838571D01*
X137528571Y-137767142D01*
D10*
X96165000Y-117946714D02*
X96165000Y-118817571D01*
X95797619Y-118055571D02*
X94797619Y-118237000D01*
X95511904Y-118382142D01*
X94797619Y-118527285D01*
X95797619Y-118708714D01*
X96165000Y-118817571D02*
X96165000Y-119543285D01*
X94845238Y-118962714D02*
X94797619Y-119071571D01*
X94797619Y-119253000D01*
X94845238Y-119325571D01*
X94892857Y-119361857D01*
X94988095Y-119398142D01*
X95083333Y-119398142D01*
X95178571Y-119361857D01*
X95226190Y-119325571D01*
X95273809Y-119253000D01*
X95321428Y-119107857D01*
X95369047Y-119035285D01*
X95416666Y-118999000D01*
X95511904Y-118962714D01*
X95607142Y-118962714D01*
X95702380Y-118999000D01*
X95750000Y-119035285D01*
X95797619Y-119107857D01*
X95797619Y-119289285D01*
X95750000Y-119398142D01*
X94845238Y-115419285D02*
X94797619Y-115562142D01*
X94797619Y-115800238D01*
X94845238Y-115895476D01*
X94892857Y-115943095D01*
X94988095Y-115990714D01*
X95083333Y-115990714D01*
X95178571Y-115943095D01*
X95226190Y-115895476D01*
X95273809Y-115800238D01*
X95321428Y-115609761D01*
X95369047Y-115514523D01*
X95416666Y-115466904D01*
X95511904Y-115419285D01*
X95607142Y-115419285D01*
X95702380Y-115466904D01*
X95750000Y-115514523D01*
X95797619Y-115609761D01*
X95797619Y-115847857D01*
X95750000Y-115990714D01*
X94797619Y-116419285D02*
X95797619Y-116419285D01*
X95797619Y-116657380D01*
X95750000Y-116800238D01*
X95654761Y-116895476D01*
X95559523Y-116943095D01*
X95369047Y-116990714D01*
X95226190Y-116990714D01*
X95035714Y-116943095D01*
X94940476Y-116895476D01*
X94845238Y-116800238D01*
X94797619Y-116657380D01*
X94797619Y-116419285D01*
X94845238Y-112685285D02*
X94797619Y-112794142D01*
X94797619Y-112975571D01*
X94845238Y-113048142D01*
X94892857Y-113084428D01*
X94988095Y-113120714D01*
X95083333Y-113120714D01*
X95178571Y-113084428D01*
X95226190Y-113048142D01*
X95273809Y-112975571D01*
X95321428Y-112830428D01*
X95369047Y-112757857D01*
X95416666Y-112721571D01*
X95511904Y-112685285D01*
X95607142Y-112685285D01*
X95702380Y-112721571D01*
X95750000Y-112757857D01*
X95797619Y-112830428D01*
X95797619Y-113011857D01*
X95750000Y-113120714D01*
X94892857Y-113882714D02*
X94845238Y-113846428D01*
X94797619Y-113737571D01*
X94797619Y-113665000D01*
X94845238Y-113556142D01*
X94940476Y-113483571D01*
X95035714Y-113447285D01*
X95226190Y-113411000D01*
X95369047Y-113411000D01*
X95559523Y-113447285D01*
X95654761Y-113483571D01*
X95750000Y-113556142D01*
X95797619Y-113665000D01*
X95797619Y-113737571D01*
X95750000Y-113846428D01*
X95702380Y-113882714D01*
X94797619Y-114209285D02*
X95797619Y-114209285D01*
X94797619Y-114644714D02*
X95369047Y-114318142D01*
X95797619Y-114644714D02*
X95226190Y-114209285D01*
X95797619Y-110220238D02*
X94797619Y-110458333D01*
X95511904Y-110648809D01*
X94797619Y-110839285D01*
X95797619Y-111077380D01*
X94845238Y-111410714D02*
X94797619Y-111553571D01*
X94797619Y-111791666D01*
X94845238Y-111886904D01*
X94892857Y-111934523D01*
X94988095Y-111982142D01*
X95083333Y-111982142D01*
X95178571Y-111934523D01*
X95226190Y-111886904D01*
X95273809Y-111791666D01*
X95321428Y-111601190D01*
X95369047Y-111505952D01*
X95416666Y-111458333D01*
X95511904Y-111410714D01*
X95607142Y-111410714D01*
X95702380Y-111458333D01*
X95750000Y-111505952D01*
X95797619Y-111601190D01*
X95797619Y-111839285D01*
X95750000Y-111982142D01*
X124531428Y-103361904D02*
X124531428Y-102600000D01*
X124912380Y-101600000D02*
X124912380Y-102171428D01*
X124912380Y-101885714D02*
X123912380Y-101885714D01*
X124055238Y-101980952D01*
X124150476Y-102076190D01*
X124198095Y-102171428D01*
X124007619Y-101219047D02*
X123960000Y-101171428D01*
X123912380Y-101076190D01*
X123912380Y-100838095D01*
X123960000Y-100742857D01*
X124007619Y-100695238D01*
X124102857Y-100647619D01*
X124198095Y-100647619D01*
X124340952Y-100695238D01*
X124912380Y-101266666D01*
X124912380Y-100647619D01*
X123912380Y-100361904D02*
X124912380Y-100028571D01*
X123912380Y-99695238D01*
X114371428Y-103361904D02*
X114371428Y-102600000D01*
X114752380Y-102980952D02*
X113990476Y-102980952D01*
X114752380Y-101600000D02*
X114752380Y-102171428D01*
X114752380Y-101885714D02*
X113752380Y-101885714D01*
X113895238Y-101980952D01*
X113990476Y-102076190D01*
X114038095Y-102171428D01*
X113847619Y-101219047D02*
X113800000Y-101171428D01*
X113752380Y-101076190D01*
X113752380Y-100838095D01*
X113800000Y-100742857D01*
X113847619Y-100695238D01*
X113942857Y-100647619D01*
X114038095Y-100647619D01*
X114180952Y-100695238D01*
X114752380Y-101266666D01*
X114752380Y-100647619D01*
X113752380Y-100361904D02*
X114752380Y-100028571D01*
X113752380Y-99695238D01*
X90678095Y-139247619D02*
X90725714Y-139200000D01*
X90820952Y-139152380D01*
X91059047Y-139152380D01*
X91154285Y-139200000D01*
X91201904Y-139247619D01*
X91249523Y-139342857D01*
X91249523Y-139438095D01*
X91201904Y-139580952D01*
X90630476Y-140152380D01*
X91249523Y-140152380D01*
X92154285Y-139152380D02*
X91678095Y-139152380D01*
X91630476Y-139628571D01*
X91678095Y-139580952D01*
X91773333Y-139533333D01*
X92011428Y-139533333D01*
X92106666Y-139580952D01*
X92154285Y-139628571D01*
X92201904Y-139723809D01*
X92201904Y-139961904D01*
X92154285Y-140057142D01*
X92106666Y-140104761D01*
X92011428Y-140152380D01*
X91773333Y-140152380D01*
X91678095Y-140104761D01*
X91630476Y-140057142D01*
X85870142Y-140152380D02*
X85616142Y-139676190D01*
X85434714Y-140152380D02*
X85434714Y-139152380D01*
X85725000Y-139152380D01*
X85797571Y-139200000D01*
X85833857Y-139247619D01*
X85870142Y-139342857D01*
X85870142Y-139485714D01*
X85833857Y-139580952D01*
X85797571Y-139628571D01*
X85725000Y-139676190D01*
X85434714Y-139676190D01*
X86124142Y-139152380D02*
X86632142Y-140152380D01*
X86632142Y-139152380D02*
X86124142Y-140152380D01*
X87067571Y-139152380D02*
X87140142Y-139152380D01*
X87212714Y-139200000D01*
X87249000Y-139247619D01*
X87285285Y-139342857D01*
X87321571Y-139533333D01*
X87321571Y-139771428D01*
X87285285Y-139961904D01*
X87249000Y-140057142D01*
X87212714Y-140104761D01*
X87140142Y-140152380D01*
X87067571Y-140152380D01*
X86995000Y-140104761D01*
X86958714Y-140057142D01*
X86922428Y-139961904D01*
X86886142Y-139771428D01*
X86886142Y-139533333D01*
X86922428Y-139342857D01*
X86958714Y-139247619D01*
X86995000Y-139200000D01*
X87067571Y-139152380D01*
X83239428Y-131580000D02*
X83166857Y-131532380D01*
X83058000Y-131532380D01*
X82949142Y-131580000D01*
X82876571Y-131675238D01*
X82840285Y-131770476D01*
X82804000Y-131960952D01*
X82804000Y-132103809D01*
X82840285Y-132294285D01*
X82876571Y-132389523D01*
X82949142Y-132484761D01*
X83058000Y-132532380D01*
X83130571Y-132532380D01*
X83239428Y-132484761D01*
X83275714Y-132437142D01*
X83275714Y-132103809D01*
X83130571Y-132103809D01*
X83602285Y-132532380D02*
X83602285Y-131532380D01*
X84037714Y-132532380D01*
X84037714Y-131532380D01*
X84400571Y-132532380D02*
X84400571Y-131532380D01*
X84582000Y-131532380D01*
X84690857Y-131580000D01*
X84763428Y-131675238D01*
X84799714Y-131770476D01*
X84836000Y-131960952D01*
X84836000Y-132103809D01*
X84799714Y-132294285D01*
X84763428Y-132389523D01*
X84690857Y-132484761D01*
X84582000Y-132532380D01*
X84400571Y-132532380D01*
X88852380Y-131532380D02*
X88947619Y-131532380D01*
X89042857Y-131580000D01*
X89090476Y-131627619D01*
X89138095Y-131722857D01*
X89185714Y-131913333D01*
X89185714Y-132151428D01*
X89138095Y-132341904D01*
X89090476Y-132437142D01*
X89042857Y-132484761D01*
X88947619Y-132532380D01*
X88852380Y-132532380D01*
X88757142Y-132484761D01*
X88709523Y-132437142D01*
X88661904Y-132341904D01*
X88614285Y-132151428D01*
X88614285Y-131913333D01*
X88661904Y-131722857D01*
X88709523Y-131627619D01*
X88757142Y-131580000D01*
X88852380Y-131532380D01*
X93170476Y-131532380D02*
X93789523Y-131532380D01*
X93456190Y-131913333D01*
X93599047Y-131913333D01*
X93694285Y-131960952D01*
X93741904Y-132008571D01*
X93789523Y-132103809D01*
X93789523Y-132341904D01*
X93741904Y-132437142D01*
X93694285Y-132484761D01*
X93599047Y-132532380D01*
X93313333Y-132532380D01*
X93218095Y-132484761D01*
X93170476Y-132437142D01*
X94265714Y-132532380D02*
X94456190Y-132532380D01*
X94551428Y-132484761D01*
X94599047Y-132437142D01*
X94694285Y-132294285D01*
X94741904Y-132103809D01*
X94741904Y-131722857D01*
X94694285Y-131627619D01*
X94646666Y-131580000D01*
X94551428Y-131532380D01*
X94360952Y-131532380D01*
X94265714Y-131580000D01*
X94218095Y-131627619D01*
X94170476Y-131722857D01*
X94170476Y-131960952D01*
X94218095Y-132056190D01*
X94265714Y-132103809D01*
X94360952Y-132151428D01*
X94551428Y-132151428D01*
X94646666Y-132103809D01*
X94694285Y-132056190D01*
X94741904Y-131960952D01*
X93170476Y-139152380D02*
X93789523Y-139152380D01*
X93456190Y-139533333D01*
X93599047Y-139533333D01*
X93694285Y-139580952D01*
X93741904Y-139628571D01*
X93789523Y-139723809D01*
X93789523Y-139961904D01*
X93741904Y-140057142D01*
X93694285Y-140104761D01*
X93599047Y-140152380D01*
X93313333Y-140152380D01*
X93218095Y-140104761D01*
X93170476Y-140057142D01*
X94646666Y-139152380D02*
X94456190Y-139152380D01*
X94360952Y-139200000D01*
X94313333Y-139247619D01*
X94218095Y-139390476D01*
X94170476Y-139580952D01*
X94170476Y-139961904D01*
X94218095Y-140057142D01*
X94265714Y-140104761D01*
X94360952Y-140152380D01*
X94551428Y-140152380D01*
X94646666Y-140104761D01*
X94694285Y-140057142D01*
X94741904Y-139961904D01*
X94741904Y-139723809D01*
X94694285Y-139628571D01*
X94646666Y-139580952D01*
X94551428Y-139533333D01*
X94360952Y-139533333D01*
X94265714Y-139580952D01*
X94218095Y-139628571D01*
X94170476Y-139723809D01*
X82695142Y-139152380D02*
X83166857Y-139152380D01*
X82912857Y-139533333D01*
X83021714Y-139533333D01*
X83094285Y-139580952D01*
X83130571Y-139628571D01*
X83166857Y-139723809D01*
X83166857Y-139961904D01*
X83130571Y-140057142D01*
X83094285Y-140104761D01*
X83021714Y-140152380D01*
X82804000Y-140152380D01*
X82731428Y-140104761D01*
X82695142Y-140057142D01*
X83493428Y-140057142D02*
X83529714Y-140104761D01*
X83493428Y-140152380D01*
X83457142Y-140104761D01*
X83493428Y-140057142D01*
X83493428Y-140152380D01*
X83783714Y-139152380D02*
X84255428Y-139152380D01*
X84001428Y-139533333D01*
X84110285Y-139533333D01*
X84182857Y-139580952D01*
X84219142Y-139628571D01*
X84255428Y-139723809D01*
X84255428Y-139961904D01*
X84219142Y-140057142D01*
X84182857Y-140104761D01*
X84110285Y-140152380D01*
X83892571Y-140152380D01*
X83820000Y-140104761D01*
X83783714Y-140057142D01*
X84473142Y-139152380D02*
X84727142Y-140152380D01*
X84981142Y-139152380D01*
X85416571Y-131532380D02*
X85852000Y-131532380D01*
X85634285Y-132532380D02*
X85634285Y-131532380D01*
X86033428Y-131532380D02*
X86541428Y-132532380D01*
X86541428Y-131532380D02*
X86033428Y-132532380D01*
X86976857Y-131532380D02*
X87049428Y-131532380D01*
X87122000Y-131580000D01*
X87158285Y-131627619D01*
X87194571Y-131722857D01*
X87230857Y-131913333D01*
X87230857Y-132151428D01*
X87194571Y-132341904D01*
X87158285Y-132437142D01*
X87122000Y-132484761D01*
X87049428Y-132532380D01*
X86976857Y-132532380D01*
X86904285Y-132484761D01*
X86868000Y-132437142D01*
X86831714Y-132341904D01*
X86795428Y-132151428D01*
X86795428Y-131913333D01*
X86831714Y-131722857D01*
X86868000Y-131627619D01*
X86904285Y-131580000D01*
X86976857Y-131532380D01*
X90678095Y-131627619D02*
X90725714Y-131580000D01*
X90820952Y-131532380D01*
X91059047Y-131532380D01*
X91154285Y-131580000D01*
X91201904Y-131627619D01*
X91249523Y-131722857D01*
X91249523Y-131818095D01*
X91201904Y-131960952D01*
X90630476Y-132532380D01*
X91249523Y-132532380D01*
X92106666Y-131532380D02*
X91916190Y-131532380D01*
X91820952Y-131580000D01*
X91773333Y-131627619D01*
X91678095Y-131770476D01*
X91630476Y-131960952D01*
X91630476Y-132341904D01*
X91678095Y-132437142D01*
X91725714Y-132484761D01*
X91820952Y-132532380D01*
X92011428Y-132532380D01*
X92106666Y-132484761D01*
X92154285Y-132437142D01*
X92201904Y-132341904D01*
X92201904Y-132103809D01*
X92154285Y-132008571D01*
X92106666Y-131960952D01*
X92011428Y-131913333D01*
X91820952Y-131913333D01*
X91725714Y-131960952D01*
X91678095Y-132008571D01*
X91630476Y-132103809D01*
X88482714Y-140152380D02*
X88228714Y-139676190D01*
X88047285Y-140152380D02*
X88047285Y-139152380D01*
X88337571Y-139152380D01*
X88410142Y-139200000D01*
X88446428Y-139247619D01*
X88482714Y-139342857D01*
X88482714Y-139485714D01*
X88446428Y-139580952D01*
X88410142Y-139628571D01*
X88337571Y-139676190D01*
X88047285Y-139676190D01*
X88773000Y-140104761D02*
X88881857Y-140152380D01*
X89063285Y-140152380D01*
X89135857Y-140104761D01*
X89172142Y-140057142D01*
X89208428Y-139961904D01*
X89208428Y-139866666D01*
X89172142Y-139771428D01*
X89135857Y-139723809D01*
X89063285Y-139676190D01*
X88918142Y-139628571D01*
X88845571Y-139580952D01*
X88809285Y-139533333D01*
X88773000Y-139438095D01*
X88773000Y-139342857D01*
X88809285Y-139247619D01*
X88845571Y-139200000D01*
X88918142Y-139152380D01*
X89099571Y-139152380D01*
X89208428Y-139200000D01*
X89426142Y-139152380D02*
X89861571Y-139152380D01*
X89643857Y-140152380D02*
X89643857Y-139152380D01*
X64865714Y-82780714D02*
X64865714Y-83447380D01*
X64627619Y-82399761D02*
X64389523Y-83114047D01*
X65008571Y-83114047D01*
X65389523Y-83352142D02*
X65437142Y-83399761D01*
X65389523Y-83447380D01*
X65341904Y-83399761D01*
X65389523Y-83352142D01*
X65389523Y-83447380D01*
X65770476Y-82447380D02*
X66437142Y-82447380D01*
X66008571Y-83447380D01*
X67294285Y-82447380D02*
X66818095Y-82447380D01*
X66770476Y-82923571D01*
X66818095Y-82875952D01*
X66913333Y-82828333D01*
X67151428Y-82828333D01*
X67246666Y-82875952D01*
X67294285Y-82923571D01*
X67341904Y-83018809D01*
X67341904Y-83256904D01*
X67294285Y-83352142D01*
X67246666Y-83399761D01*
X67151428Y-83447380D01*
X66913333Y-83447380D01*
X66818095Y-83399761D01*
X66770476Y-83352142D01*
X67770476Y-83066428D02*
X68532380Y-83066428D01*
X69484761Y-82447380D02*
X69008571Y-82447380D01*
X68960952Y-82923571D01*
X69008571Y-82875952D01*
X69103809Y-82828333D01*
X69341904Y-82828333D01*
X69437142Y-82875952D01*
X69484761Y-82923571D01*
X69532380Y-83018809D01*
X69532380Y-83256904D01*
X69484761Y-83352142D01*
X69437142Y-83399761D01*
X69341904Y-83447380D01*
X69103809Y-83447380D01*
X69008571Y-83399761D01*
X68960952Y-83352142D01*
X69960952Y-83352142D02*
X70008571Y-83399761D01*
X69960952Y-83447380D01*
X69913333Y-83399761D01*
X69960952Y-83352142D01*
X69960952Y-83447380D01*
X70389523Y-82542619D02*
X70437142Y-82495000D01*
X70532380Y-82447380D01*
X70770476Y-82447380D01*
X70865714Y-82495000D01*
X70913333Y-82542619D01*
X70960952Y-82637857D01*
X70960952Y-82733095D01*
X70913333Y-82875952D01*
X70341904Y-83447380D01*
X70960952Y-83447380D01*
X71865714Y-82447380D02*
X71389523Y-82447380D01*
X71341904Y-82923571D01*
X71389523Y-82875952D01*
X71484761Y-82828333D01*
X71722857Y-82828333D01*
X71818095Y-82875952D01*
X71865714Y-82923571D01*
X71913333Y-83018809D01*
X71913333Y-83256904D01*
X71865714Y-83352142D01*
X71818095Y-83399761D01*
X71722857Y-83447380D01*
X71484761Y-83447380D01*
X71389523Y-83399761D01*
X71341904Y-83352142D01*
X72199047Y-82447380D02*
X72532380Y-83447380D01*
X72865714Y-82447380D01*
X65389523Y-85097380D02*
X65056190Y-84621190D01*
X64818095Y-85097380D02*
X64818095Y-84097380D01*
X65199047Y-84097380D01*
X65294285Y-84145000D01*
X65341904Y-84192619D01*
X65389523Y-84287857D01*
X65389523Y-84430714D01*
X65341904Y-84525952D01*
X65294285Y-84573571D01*
X65199047Y-84621190D01*
X64818095Y-84621190D01*
X65818095Y-84573571D02*
X66151428Y-84573571D01*
X66294285Y-85097380D02*
X65818095Y-85097380D01*
X65818095Y-84097380D01*
X66294285Y-84097380D01*
X67246666Y-84145000D02*
X67151428Y-84097380D01*
X67008571Y-84097380D01*
X66865714Y-84145000D01*
X66770476Y-84240238D01*
X66722857Y-84335476D01*
X66675238Y-84525952D01*
X66675238Y-84668809D01*
X66722857Y-84859285D01*
X66770476Y-84954523D01*
X66865714Y-85049761D01*
X67008571Y-85097380D01*
X67103809Y-85097380D01*
X67246666Y-85049761D01*
X67294285Y-85002142D01*
X67294285Y-84668809D01*
X67103809Y-84668809D01*
X68484761Y-85097380D02*
X68484761Y-84097380D01*
X68960952Y-85097380D02*
X68960952Y-84097380D01*
X69532380Y-85097380D01*
X69532380Y-84097380D01*
X70008571Y-85097380D02*
X70008571Y-84097380D01*
X70389523Y-84097380D01*
X70484761Y-84145000D01*
X70532380Y-84192619D01*
X70580000Y-84287857D01*
X70580000Y-84430714D01*
X70532380Y-84525952D01*
X70484761Y-84573571D01*
X70389523Y-84621190D01*
X70008571Y-84621190D01*
X71008571Y-84097380D02*
X71008571Y-84906904D01*
X71056190Y-85002142D01*
X71103809Y-85049761D01*
X71199047Y-85097380D01*
X71389523Y-85097380D01*
X71484761Y-85049761D01*
X71532380Y-85002142D01*
X71580000Y-84906904D01*
X71580000Y-84097380D01*
X71913333Y-84097380D02*
X72484761Y-84097380D01*
X72199047Y-85097380D02*
X72199047Y-84097380D01*
X136969523Y-119832380D02*
X136398095Y-119832380D01*
X136683809Y-119832380D02*
X136683809Y-118832380D01*
X136588571Y-118975238D01*
X136493333Y-119070476D01*
X136398095Y-119118095D01*
X137826666Y-119165714D02*
X137826666Y-119832380D01*
X137588571Y-118784761D02*
X137350476Y-119499047D01*
X137969523Y-119499047D01*
X134429523Y-119832380D02*
X133858095Y-119832380D01*
X134143809Y-119832380D02*
X134143809Y-118832380D01*
X134048571Y-118975238D01*
X133953333Y-119070476D01*
X133858095Y-119118095D01*
X135334285Y-118832380D02*
X134858095Y-118832380D01*
X134810476Y-119308571D01*
X134858095Y-119260952D01*
X134953333Y-119213333D01*
X135191428Y-119213333D01*
X135286666Y-119260952D01*
X135334285Y-119308571D01*
X135381904Y-119403809D01*
X135381904Y-119641904D01*
X135334285Y-119737142D01*
X135286666Y-119784761D01*
X135191428Y-119832380D01*
X134953333Y-119832380D01*
X134858095Y-119784761D01*
X134810476Y-119737142D01*
X139509523Y-119832380D02*
X138938095Y-119832380D01*
X139223809Y-119832380D02*
X139223809Y-118832380D01*
X139128571Y-118975238D01*
X139033333Y-119070476D01*
X138938095Y-119118095D01*
X139842857Y-118832380D02*
X140461904Y-118832380D01*
X140128571Y-119213333D01*
X140271428Y-119213333D01*
X140366666Y-119260952D01*
X140414285Y-119308571D01*
X140461904Y-119403809D01*
X140461904Y-119641904D01*
X140414285Y-119737142D01*
X140366666Y-119784761D01*
X140271428Y-119832380D01*
X139985714Y-119832380D01*
X139890476Y-119784761D01*
X139842857Y-119737142D01*
X181936571Y-131532380D02*
X182372000Y-131532380D01*
X182154285Y-132532380D02*
X182154285Y-131532380D01*
X182553428Y-131532380D02*
X183061428Y-132532380D01*
X183061428Y-131532380D02*
X182553428Y-132532380D01*
X183315428Y-131627619D02*
X183351714Y-131580000D01*
X183424285Y-131532380D01*
X183605714Y-131532380D01*
X183678285Y-131580000D01*
X183714571Y-131627619D01*
X183750857Y-131722857D01*
X183750857Y-131818095D01*
X183714571Y-131960952D01*
X183279142Y-132532380D01*
X183750857Y-132532380D01*
X184930142Y-132532380D02*
X184676142Y-132056190D01*
X184494714Y-132532380D02*
X184494714Y-131532380D01*
X184785000Y-131532380D01*
X184857571Y-131580000D01*
X184893857Y-131627619D01*
X184930142Y-131722857D01*
X184930142Y-131865714D01*
X184893857Y-131960952D01*
X184857571Y-132008571D01*
X184785000Y-132056190D01*
X184494714Y-132056190D01*
X185184142Y-131532380D02*
X185692142Y-132532380D01*
X185692142Y-131532380D02*
X185184142Y-132532380D01*
X185946142Y-131627619D02*
X185982428Y-131580000D01*
X186055000Y-131532380D01*
X186236428Y-131532380D01*
X186309000Y-131580000D01*
X186345285Y-131627619D01*
X186381571Y-131722857D01*
X186381571Y-131818095D01*
X186345285Y-131960952D01*
X185909857Y-132532380D01*
X186381571Y-132532380D01*
X187379428Y-131580000D02*
X187306857Y-131532380D01*
X187198000Y-131532380D01*
X187089142Y-131580000D01*
X187016571Y-131675238D01*
X186980285Y-131770476D01*
X186944000Y-131960952D01*
X186944000Y-132103809D01*
X186980285Y-132294285D01*
X187016571Y-132389523D01*
X187089142Y-132484761D01*
X187198000Y-132532380D01*
X187270571Y-132532380D01*
X187379428Y-132484761D01*
X187415714Y-132437142D01*
X187415714Y-132103809D01*
X187270571Y-132103809D01*
X187742285Y-132532380D02*
X187742285Y-131532380D01*
X188177714Y-132532380D01*
X188177714Y-131532380D01*
X188540571Y-132532380D02*
X188540571Y-131532380D01*
X188722000Y-131532380D01*
X188830857Y-131580000D01*
X188903428Y-131675238D01*
X188939714Y-131770476D01*
X188976000Y-131960952D01*
X188976000Y-132103809D01*
X188939714Y-132294285D01*
X188903428Y-132389523D01*
X188830857Y-132484761D01*
X188722000Y-132532380D01*
X188540571Y-132532380D01*
X187379428Y-141740000D02*
X187306857Y-141692380D01*
X187198000Y-141692380D01*
X187089142Y-141740000D01*
X187016571Y-141835238D01*
X186980285Y-141930476D01*
X186944000Y-142120952D01*
X186944000Y-142263809D01*
X186980285Y-142454285D01*
X187016571Y-142549523D01*
X187089142Y-142644761D01*
X187198000Y-142692380D01*
X187270571Y-142692380D01*
X187379428Y-142644761D01*
X187415714Y-142597142D01*
X187415714Y-142263809D01*
X187270571Y-142263809D01*
X187742285Y-142692380D02*
X187742285Y-141692380D01*
X188177714Y-142692380D01*
X188177714Y-141692380D01*
X188540571Y-142692380D02*
X188540571Y-141692380D01*
X188722000Y-141692380D01*
X188830857Y-141740000D01*
X188903428Y-141835238D01*
X188939714Y-141930476D01*
X188976000Y-142120952D01*
X188976000Y-142263809D01*
X188939714Y-142454285D01*
X188903428Y-142549523D01*
X188830857Y-142644761D01*
X188722000Y-142692380D01*
X188540571Y-142692380D01*
X184930142Y-142692380D02*
X184676142Y-142216190D01*
X184494714Y-142692380D02*
X184494714Y-141692380D01*
X184785000Y-141692380D01*
X184857571Y-141740000D01*
X184893857Y-141787619D01*
X184930142Y-141882857D01*
X184930142Y-142025714D01*
X184893857Y-142120952D01*
X184857571Y-142168571D01*
X184785000Y-142216190D01*
X184494714Y-142216190D01*
X185184142Y-141692380D02*
X185692142Y-142692380D01*
X185692142Y-141692380D02*
X185184142Y-142692380D01*
X186381571Y-142692380D02*
X185946142Y-142692380D01*
X186163857Y-142692380D02*
X186163857Y-141692380D01*
X186091285Y-141835238D01*
X186018714Y-141930476D01*
X185946142Y-141978095D01*
X181936571Y-141692380D02*
X182372000Y-141692380D01*
X182154285Y-142692380D02*
X182154285Y-141692380D01*
X182553428Y-141692380D02*
X183061428Y-142692380D01*
X183061428Y-141692380D02*
X182553428Y-142692380D01*
X183750857Y-142692380D02*
X183315428Y-142692380D01*
X183533142Y-142692380D02*
X183533142Y-141692380D01*
X183460571Y-141835238D01*
X183388000Y-141930476D01*
X183315428Y-141978095D01*
X182253333Y-85494761D02*
X182396190Y-85542380D01*
X182634285Y-85542380D01*
X182729523Y-85494761D01*
X182777142Y-85447142D01*
X182824761Y-85351904D01*
X182824761Y-85256666D01*
X182777142Y-85161428D01*
X182729523Y-85113809D01*
X182634285Y-85066190D01*
X182443809Y-85018571D01*
X182348571Y-84970952D01*
X182300952Y-84923333D01*
X182253333Y-84828095D01*
X182253333Y-84732857D01*
X182300952Y-84637619D01*
X182348571Y-84590000D01*
X182443809Y-84542380D01*
X182681904Y-84542380D01*
X182824761Y-84590000D01*
X183253333Y-85018571D02*
X183586666Y-85018571D01*
X183729523Y-85542380D02*
X183253333Y-85542380D01*
X183253333Y-84542380D01*
X183729523Y-84542380D01*
X184729523Y-85542380D02*
X184396190Y-85066190D01*
X184158095Y-85542380D02*
X184158095Y-84542380D01*
X184539047Y-84542380D01*
X184634285Y-84590000D01*
X184681904Y-84637619D01*
X184729523Y-84732857D01*
X184729523Y-84875714D01*
X184681904Y-84970952D01*
X184634285Y-85018571D01*
X184539047Y-85066190D01*
X184158095Y-85066190D01*
X185158095Y-85542380D02*
X185158095Y-84542380D01*
X185586666Y-85256666D02*
X186062857Y-85256666D01*
X185491428Y-85542380D02*
X185824761Y-84542380D01*
X186158095Y-85542380D01*
X186967619Y-85542380D02*
X186491428Y-85542380D01*
X186491428Y-84542380D01*
X188015238Y-84637619D02*
X188062857Y-84590000D01*
X188158095Y-84542380D01*
X188396190Y-84542380D01*
X188491428Y-84590000D01*
X188539047Y-84637619D01*
X188586666Y-84732857D01*
X188586666Y-84828095D01*
X188539047Y-84970952D01*
X187967619Y-85542380D01*
X188586666Y-85542380D01*
X180983333Y-108354761D02*
X181126190Y-108402380D01*
X181364285Y-108402380D01*
X181459523Y-108354761D01*
X181507142Y-108307142D01*
X181554761Y-108211904D01*
X181554761Y-108116666D01*
X181507142Y-108021428D01*
X181459523Y-107973809D01*
X181364285Y-107926190D01*
X181173809Y-107878571D01*
X181078571Y-107830952D01*
X181030952Y-107783333D01*
X180983333Y-107688095D01*
X180983333Y-107592857D01*
X181030952Y-107497619D01*
X181078571Y-107450000D01*
X181173809Y-107402380D01*
X181411904Y-107402380D01*
X181554761Y-107450000D01*
X181983333Y-107878571D02*
X182316666Y-107878571D01*
X182459523Y-108402380D02*
X181983333Y-108402380D01*
X181983333Y-107402380D01*
X182459523Y-107402380D01*
X183459523Y-108402380D02*
X183126190Y-107926190D01*
X182888095Y-108402380D02*
X182888095Y-107402380D01*
X183269047Y-107402380D01*
X183364285Y-107450000D01*
X183411904Y-107497619D01*
X183459523Y-107592857D01*
X183459523Y-107735714D01*
X183411904Y-107830952D01*
X183364285Y-107878571D01*
X183269047Y-107926190D01*
X182888095Y-107926190D01*
X183888095Y-108402380D02*
X183888095Y-107402380D01*
X184316666Y-108116666D02*
X184792857Y-108116666D01*
X184221428Y-108402380D02*
X184554761Y-107402380D01*
X184888095Y-108402380D01*
X185697619Y-108402380D02*
X185221428Y-108402380D01*
X185221428Y-107402380D01*
X187316666Y-108402380D02*
X186745238Y-108402380D01*
X187030952Y-108402380D02*
X187030952Y-107402380D01*
X186935714Y-107545238D01*
X186840476Y-107640476D01*
X186745238Y-107688095D01*
X174712380Y-86566190D02*
X174712380Y-85947142D01*
X175093333Y-86280476D01*
X175093333Y-86137619D01*
X175140952Y-86042380D01*
X175188571Y-85994761D01*
X175283809Y-85947142D01*
X175521904Y-85947142D01*
X175617142Y-85994761D01*
X175664761Y-86042380D01*
X175712380Y-86137619D01*
X175712380Y-86423333D01*
X175664761Y-86518571D01*
X175617142Y-86566190D01*
X175617142Y-85518571D02*
X175664761Y-85470952D01*
X175712380Y-85518571D01*
X175664761Y-85566190D01*
X175617142Y-85518571D01*
X175712380Y-85518571D01*
X174712380Y-85137619D02*
X174712380Y-84518571D01*
X175093333Y-84851904D01*
X175093333Y-84709047D01*
X175140952Y-84613809D01*
X175188571Y-84566190D01*
X175283809Y-84518571D01*
X175521904Y-84518571D01*
X175617142Y-84566190D01*
X175664761Y-84613809D01*
X175712380Y-84709047D01*
X175712380Y-84994761D01*
X175664761Y-85090000D01*
X175617142Y-85137619D01*
X174712380Y-84232857D02*
X175712380Y-83899523D01*
X174712380Y-83566190D01*
X172220000Y-85851904D02*
X172172380Y-85947142D01*
X172172380Y-86090000D01*
X172220000Y-86232857D01*
X172315238Y-86328095D01*
X172410476Y-86375714D01*
X172600952Y-86423333D01*
X172743809Y-86423333D01*
X172934285Y-86375714D01*
X173029523Y-86328095D01*
X173124761Y-86232857D01*
X173172380Y-86090000D01*
X173172380Y-85994761D01*
X173124761Y-85851904D01*
X173077142Y-85804285D01*
X172743809Y-85804285D01*
X172743809Y-85994761D01*
X173172380Y-85375714D02*
X172172380Y-85375714D01*
X173172380Y-84804285D01*
X172172380Y-84804285D01*
X173172380Y-84328095D02*
X172172380Y-84328095D01*
X172172380Y-84090000D01*
X172220000Y-83947142D01*
X172315238Y-83851904D01*
X172410476Y-83804285D01*
X172600952Y-83756666D01*
X172743809Y-83756666D01*
X172934285Y-83804285D01*
X173029523Y-83851904D01*
X173124761Y-83947142D01*
X173172380Y-84090000D01*
X173172380Y-84328095D01*
X134120000Y-85851904D02*
X134072380Y-85947142D01*
X134072380Y-86090000D01*
X134120000Y-86232857D01*
X134215238Y-86328095D01*
X134310476Y-86375714D01*
X134500952Y-86423333D01*
X134643809Y-86423333D01*
X134834285Y-86375714D01*
X134929523Y-86328095D01*
X135024761Y-86232857D01*
X135072380Y-86090000D01*
X135072380Y-85994761D01*
X135024761Y-85851904D01*
X134977142Y-85804285D01*
X134643809Y-85804285D01*
X134643809Y-85994761D01*
X135072380Y-85375714D02*
X134072380Y-85375714D01*
X135072380Y-84804285D01*
X134072380Y-84804285D01*
X135072380Y-84328095D02*
X134072380Y-84328095D01*
X134072380Y-84090000D01*
X134120000Y-83947142D01*
X134215238Y-83851904D01*
X134310476Y-83804285D01*
X134500952Y-83756666D01*
X134643809Y-83756666D01*
X134834285Y-83804285D01*
X134929523Y-83851904D01*
X135024761Y-83947142D01*
X135072380Y-84090000D01*
X135072380Y-84328095D01*
X131532380Y-85915476D02*
X131532380Y-86391666D01*
X132008571Y-86439285D01*
X131960952Y-86391666D01*
X131913333Y-86296428D01*
X131913333Y-86058333D01*
X131960952Y-85963095D01*
X132008571Y-85915476D01*
X132103809Y-85867857D01*
X132341904Y-85867857D01*
X132437142Y-85915476D01*
X132484761Y-85963095D01*
X132532380Y-86058333D01*
X132532380Y-86296428D01*
X132484761Y-86391666D01*
X132437142Y-86439285D01*
X131532380Y-85582142D02*
X132532380Y-85248809D01*
X131532380Y-84915476D01*
X148265238Y-123912380D02*
X148884285Y-123912380D01*
X148550952Y-124293333D01*
X148693809Y-124293333D01*
X148789047Y-124340952D01*
X148836666Y-124388571D01*
X148884285Y-124483809D01*
X148884285Y-124721904D01*
X148836666Y-124817142D01*
X148789047Y-124864761D01*
X148693809Y-124912380D01*
X148408095Y-124912380D01*
X148312857Y-124864761D01*
X148265238Y-124817142D01*
X149312857Y-124817142D02*
X149360476Y-124864761D01*
X149312857Y-124912380D01*
X149265238Y-124864761D01*
X149312857Y-124817142D01*
X149312857Y-124912380D01*
X149693809Y-123912380D02*
X150312857Y-123912380D01*
X149979523Y-124293333D01*
X150122380Y-124293333D01*
X150217619Y-124340952D01*
X150265238Y-124388571D01*
X150312857Y-124483809D01*
X150312857Y-124721904D01*
X150265238Y-124817142D01*
X150217619Y-124864761D01*
X150122380Y-124912380D01*
X149836666Y-124912380D01*
X149741428Y-124864761D01*
X149693809Y-124817142D01*
X150598571Y-123912380D02*
X150931904Y-124912380D01*
X151265238Y-123912380D01*
X152312857Y-124864761D02*
X152455714Y-124912380D01*
X152693809Y-124912380D01*
X152789047Y-124864761D01*
X152836666Y-124817142D01*
X152884285Y-124721904D01*
X152884285Y-124626666D01*
X152836666Y-124531428D01*
X152789047Y-124483809D01*
X152693809Y-124436190D01*
X152503333Y-124388571D01*
X152408095Y-124340952D01*
X152360476Y-124293333D01*
X152312857Y-124198095D01*
X152312857Y-124102857D01*
X152360476Y-124007619D01*
X152408095Y-123960000D01*
X152503333Y-123912380D01*
X152741428Y-123912380D01*
X152884285Y-123960000D01*
X153503333Y-124436190D02*
X153503333Y-124912380D01*
X153170000Y-123912380D02*
X153503333Y-124436190D01*
X153836666Y-123912380D01*
X154170000Y-124912380D02*
X154170000Y-123912380D01*
X154741428Y-124912380D01*
X154741428Y-123912380D01*
X155789047Y-124817142D02*
X155741428Y-124864761D01*
X155598571Y-124912380D01*
X155503333Y-124912380D01*
X155360476Y-124864761D01*
X155265238Y-124769523D01*
X155217619Y-124674285D01*
X155170000Y-124483809D01*
X155170000Y-124340952D01*
X155217619Y-124150476D01*
X155265238Y-124055238D01*
X155360476Y-123960000D01*
X155503333Y-123912380D01*
X155598571Y-123912380D01*
X155741428Y-123960000D01*
X155789047Y-124007619D01*
X156979523Y-124912380D02*
X156979523Y-123912380D01*
X157217619Y-123912380D01*
X157360476Y-123960000D01*
X157455714Y-124055238D01*
X157503333Y-124150476D01*
X157550952Y-124340952D01*
X157550952Y-124483809D01*
X157503333Y-124674285D01*
X157455714Y-124769523D01*
X157360476Y-124864761D01*
X157217619Y-124912380D01*
X156979523Y-124912380D01*
X157979523Y-124912380D02*
X157979523Y-123912380D01*
X158979523Y-123960000D02*
X158884285Y-123912380D01*
X158741428Y-123912380D01*
X158598571Y-123960000D01*
X158503333Y-124055238D01*
X158455714Y-124150476D01*
X158408095Y-124340952D01*
X158408095Y-124483809D01*
X158455714Y-124674285D01*
X158503333Y-124769523D01*
X158598571Y-124864761D01*
X158741428Y-124912380D01*
X158836666Y-124912380D01*
X158979523Y-124864761D01*
X159027142Y-124817142D01*
X159027142Y-124483809D01*
X158836666Y-124483809D01*
X142049523Y-119832380D02*
X141478095Y-119832380D01*
X141763809Y-119832380D02*
X141763809Y-118832380D01*
X141668571Y-118975238D01*
X141573333Y-119070476D01*
X141478095Y-119118095D01*
X142430476Y-118927619D02*
X142478095Y-118880000D01*
X142573333Y-118832380D01*
X142811428Y-118832380D01*
X142906666Y-118880000D01*
X142954285Y-118927619D01*
X143001904Y-119022857D01*
X143001904Y-119118095D01*
X142954285Y-119260952D01*
X142382857Y-119832380D01*
X143001904Y-119832380D01*
X144589523Y-119832380D02*
X144018095Y-119832380D01*
X144303809Y-119832380D02*
X144303809Y-118832380D01*
X144208571Y-118975238D01*
X144113333Y-119070476D01*
X144018095Y-119118095D01*
X145541904Y-119832380D02*
X144970476Y-119832380D01*
X145256190Y-119832380D02*
X145256190Y-118832380D01*
X145160952Y-118975238D01*
X145065714Y-119070476D01*
X144970476Y-119118095D01*
X147129523Y-119832380D02*
X146558095Y-119832380D01*
X146843809Y-119832380D02*
X146843809Y-118832380D01*
X146748571Y-118975238D01*
X146653333Y-119070476D01*
X146558095Y-119118095D01*
X147748571Y-118832380D02*
X147843809Y-118832380D01*
X147939047Y-118880000D01*
X147986666Y-118927619D01*
X148034285Y-119022857D01*
X148081904Y-119213333D01*
X148081904Y-119451428D01*
X148034285Y-119641904D01*
X147986666Y-119737142D01*
X147939047Y-119784761D01*
X147843809Y-119832380D01*
X147748571Y-119832380D01*
X147653333Y-119784761D01*
X147605714Y-119737142D01*
X147558095Y-119641904D01*
X147510476Y-119451428D01*
X147510476Y-119213333D01*
X147558095Y-119022857D01*
X147605714Y-118927619D01*
X147653333Y-118880000D01*
X147748571Y-118832380D01*
X149669523Y-119832380D02*
X149860000Y-119832380D01*
X149955238Y-119784761D01*
X150002857Y-119737142D01*
X150098095Y-119594285D01*
X150145714Y-119403809D01*
X150145714Y-119022857D01*
X150098095Y-118927619D01*
X150050476Y-118880000D01*
X149955238Y-118832380D01*
X149764761Y-118832380D01*
X149669523Y-118880000D01*
X149621904Y-118927619D01*
X149574285Y-119022857D01*
X149574285Y-119260952D01*
X149621904Y-119356190D01*
X149669523Y-119403809D01*
X149764761Y-119451428D01*
X149955238Y-119451428D01*
X150050476Y-119403809D01*
X150098095Y-119356190D01*
X150145714Y-119260952D01*
X152304761Y-119260952D02*
X152209523Y-119213333D01*
X152161904Y-119165714D01*
X152114285Y-119070476D01*
X152114285Y-119022857D01*
X152161904Y-118927619D01*
X152209523Y-118880000D01*
X152304761Y-118832380D01*
X152495238Y-118832380D01*
X152590476Y-118880000D01*
X152638095Y-118927619D01*
X152685714Y-119022857D01*
X152685714Y-119070476D01*
X152638095Y-119165714D01*
X152590476Y-119213333D01*
X152495238Y-119260952D01*
X152304761Y-119260952D01*
X152209523Y-119308571D01*
X152161904Y-119356190D01*
X152114285Y-119451428D01*
X152114285Y-119641904D01*
X152161904Y-119737142D01*
X152209523Y-119784761D01*
X152304761Y-119832380D01*
X152495238Y-119832380D01*
X152590476Y-119784761D01*
X152638095Y-119737142D01*
X152685714Y-119641904D01*
X152685714Y-119451428D01*
X152638095Y-119356190D01*
X152590476Y-119308571D01*
X152495238Y-119260952D01*
X154606666Y-118832380D02*
X155273333Y-118832380D01*
X154844761Y-119832380D01*
X157670476Y-118832380D02*
X157480000Y-118832380D01*
X157384761Y-118880000D01*
X157337142Y-118927619D01*
X157241904Y-119070476D01*
X157194285Y-119260952D01*
X157194285Y-119641904D01*
X157241904Y-119737142D01*
X157289523Y-119784761D01*
X157384761Y-119832380D01*
X157575238Y-119832380D01*
X157670476Y-119784761D01*
X157718095Y-119737142D01*
X157765714Y-119641904D01*
X157765714Y-119403809D01*
X157718095Y-119308571D01*
X157670476Y-119260952D01*
X157575238Y-119213333D01*
X157384761Y-119213333D01*
X157289523Y-119260952D01*
X157241904Y-119308571D01*
X157194285Y-119403809D01*
X160258095Y-118832380D02*
X159781904Y-118832380D01*
X159734285Y-119308571D01*
X159781904Y-119260952D01*
X159877142Y-119213333D01*
X160115238Y-119213333D01*
X160210476Y-119260952D01*
X160258095Y-119308571D01*
X160305714Y-119403809D01*
X160305714Y-119641904D01*
X160258095Y-119737142D01*
X160210476Y-119784761D01*
X160115238Y-119832380D01*
X159877142Y-119832380D01*
X159781904Y-119784761D01*
X159734285Y-119737142D01*
X162750476Y-119165714D02*
X162750476Y-119832380D01*
X162512380Y-118784761D02*
X162274285Y-119499047D01*
X162893333Y-119499047D01*
X164766666Y-118832380D02*
X165385714Y-118832380D01*
X165052380Y-119213333D01*
X165195238Y-119213333D01*
X165290476Y-119260952D01*
X165338095Y-119308571D01*
X165385714Y-119403809D01*
X165385714Y-119641904D01*
X165338095Y-119737142D01*
X165290476Y-119784761D01*
X165195238Y-119832380D01*
X164909523Y-119832380D01*
X164814285Y-119784761D01*
X164766666Y-119737142D01*
X167354285Y-118927619D02*
X167401904Y-118880000D01*
X167497142Y-118832380D01*
X167735238Y-118832380D01*
X167830476Y-118880000D01*
X167878095Y-118927619D01*
X167925714Y-119022857D01*
X167925714Y-119118095D01*
X167878095Y-119260952D01*
X167306666Y-119832380D01*
X167925714Y-119832380D01*
X170465714Y-119832380D02*
X169894285Y-119832380D01*
X170180000Y-119832380D02*
X170180000Y-118832380D01*
X170084761Y-118975238D01*
X169989523Y-119070476D01*
X169894285Y-119118095D01*
X172672380Y-118832380D02*
X172767619Y-118832380D01*
X172862857Y-118880000D01*
X172910476Y-118927619D01*
X172958095Y-119022857D01*
X173005714Y-119213333D01*
X173005714Y-119451428D01*
X172958095Y-119641904D01*
X172910476Y-119737142D01*
X172862857Y-119784761D01*
X172767619Y-119832380D01*
X172672380Y-119832380D01*
X172577142Y-119784761D01*
X172529523Y-119737142D01*
X172481904Y-119641904D01*
X172434285Y-119451428D01*
X172434285Y-119213333D01*
X172481904Y-119022857D01*
X172529523Y-118927619D01*
X172577142Y-118880000D01*
X172672380Y-118832380D01*
X155106666Y-89344285D02*
X155106666Y-88868095D01*
X155392380Y-89439523D02*
X154392380Y-89106190D01*
X155392380Y-88772857D01*
X154392380Y-88439523D02*
X155201904Y-88439523D01*
X155297142Y-88391904D01*
X155344761Y-88344285D01*
X155392380Y-88249047D01*
X155392380Y-88058571D01*
X155344761Y-87963333D01*
X155297142Y-87915714D01*
X155201904Y-87868095D01*
X154392380Y-87868095D01*
X154392380Y-87487142D02*
X155392380Y-86820476D01*
X154392380Y-86820476D02*
X155392380Y-87487142D01*
X155392380Y-85915714D02*
X155392380Y-86487142D01*
X155392380Y-86201428D02*
X154392380Y-86201428D01*
X154535238Y-86296666D01*
X154630476Y-86391904D01*
X154678095Y-86487142D01*
X152566666Y-89344285D02*
X152566666Y-88868095D01*
X152852380Y-89439523D02*
X151852380Y-89106190D01*
X152852380Y-88772857D01*
X151852380Y-88439523D02*
X152661904Y-88439523D01*
X152757142Y-88391904D01*
X152804761Y-88344285D01*
X152852380Y-88249047D01*
X152852380Y-88058571D01*
X152804761Y-87963333D01*
X152757142Y-87915714D01*
X152661904Y-87868095D01*
X151852380Y-87868095D01*
X151852380Y-87487142D02*
X152852380Y-86820476D01*
X151852380Y-86820476D02*
X152852380Y-87487142D01*
X151852380Y-86249047D02*
X151852380Y-86153809D01*
X151900000Y-86058571D01*
X151947619Y-86010952D01*
X152042857Y-85963333D01*
X152233333Y-85915714D01*
X152471428Y-85915714D01*
X152661904Y-85963333D01*
X152757142Y-86010952D01*
X152804761Y-86058571D01*
X152852380Y-86153809D01*
X152852380Y-86249047D01*
X152804761Y-86344285D01*
X152757142Y-86391904D01*
X152661904Y-86439523D01*
X152471428Y-86487142D01*
X152233333Y-86487142D01*
X152042857Y-86439523D01*
X151947619Y-86391904D01*
X151900000Y-86344285D01*
X151852380Y-86249047D01*
D13*
G36*
X123190000Y-135369868D02*
G01*
X123322693Y-135792888D01*
X123455386Y-135869498D01*
X123588078Y-135946108D01*
X123720771Y-136022718D01*
X123853464Y-136099328D01*
X123986156Y-136175938D01*
X124118849Y-136252548D01*
X124251542Y-136329158D01*
X124384234Y-136405769D01*
X124516927Y-136482379D01*
X124649620Y-136558989D01*
X124782313Y-136635599D01*
X124915005Y-136712209D01*
X125047698Y-136788819D01*
X125180391Y-136865429D01*
X125313083Y-136942039D01*
X125445776Y-137018649D01*
X125578469Y-137095259D01*
X125711162Y-137171869D01*
X125843854Y-137248479D01*
X125976547Y-137325089D01*
X126109240Y-137401699D01*
X126241933Y-137478309D01*
X126374625Y-137554919D01*
X126507318Y-137631529D01*
X126640011Y-137708139D01*
X126640011Y-137861359D01*
X126640011Y-138014579D01*
X126640011Y-138167799D01*
X126640011Y-138321019D01*
X126640011Y-138474239D01*
X126640011Y-138627460D01*
X126640011Y-138780680D01*
X126640011Y-138933900D01*
X126640011Y-139087120D01*
X126640011Y-139240340D01*
X126640011Y-139393560D01*
X126640011Y-139546780D01*
X126640011Y-139700000D01*
X126640011Y-139853220D01*
X126640011Y-140006440D01*
X126640011Y-140159660D01*
X126640011Y-140312880D01*
X126640011Y-140466100D01*
X126640011Y-140619320D01*
X126640011Y-140772540D01*
X126640011Y-140925760D01*
X126640011Y-141078981D01*
X126640011Y-141232201D01*
X126640011Y-141385421D01*
X126640011Y-141538641D01*
X126640011Y-141691861D01*
X126507318Y-141768471D01*
X126374625Y-141845081D01*
X126241933Y-141921691D01*
X126109240Y-141998301D01*
X125976547Y-142074911D01*
X125843854Y-142151521D01*
X125711162Y-142228131D01*
X125578469Y-142304741D01*
X125445776Y-142381351D01*
X125313083Y-142457961D01*
X125180391Y-142534571D01*
X125047698Y-142611181D01*
X124915005Y-142687791D01*
X124782313Y-142764401D01*
X124649620Y-142841011D01*
X124516927Y-142917621D01*
X124384234Y-142994231D01*
X124251542Y-143070841D01*
X124118849Y-143147451D01*
X123986156Y-143224061D01*
X123853464Y-143300671D01*
X123720771Y-143377281D01*
X123588078Y-143453891D01*
X123455386Y-143530502D01*
X123322693Y-143607112D01*
X123190000Y-143683722D01*
X123057307Y-143607112D01*
X122924615Y-143530502D01*
X122791922Y-143453891D01*
X122659229Y-143377281D01*
X122526537Y-143300671D01*
X122393844Y-143224061D01*
X122261151Y-143147451D01*
X122128458Y-143070841D01*
X121995766Y-142994231D01*
X121863073Y-142917621D01*
X121730380Y-142841011D01*
X121597688Y-142764401D01*
X121464995Y-142687791D01*
X121332302Y-142611181D01*
X121199609Y-142534571D01*
X121066917Y-142457961D01*
X120934224Y-142381351D01*
X120801531Y-142304741D01*
X120668838Y-142228131D01*
X120536146Y-142151521D01*
X120403453Y-142074911D01*
X120270760Y-141998301D01*
X120138068Y-141921691D01*
X120005375Y-141845081D01*
X119872682Y-141768471D01*
X119739989Y-141691861D01*
X119739989Y-141538641D01*
X119739989Y-141385421D01*
X119739989Y-141232201D01*
X119739989Y-141078981D01*
X119739989Y-140925760D01*
X119739989Y-140772540D01*
X119739989Y-140619320D01*
X119739989Y-140466100D01*
X119739989Y-140312880D01*
X119739989Y-140159660D01*
X119739989Y-140006440D01*
X119739989Y-139853220D01*
X119739989Y-139700000D01*
X119739989Y-139546780D01*
X119739989Y-139393560D01*
X119739989Y-139240340D01*
X119739989Y-139087120D01*
X119739989Y-138933900D01*
X119739989Y-138780680D01*
X119739989Y-138627460D01*
X119739989Y-138474239D01*
X119739989Y-138321019D01*
X119739989Y-138167799D01*
X119739989Y-138014579D01*
X119739989Y-137861359D01*
X119739989Y-137708139D01*
X119872682Y-137631529D01*
X120005375Y-137554919D01*
X120138068Y-137478309D01*
X120270760Y-137401699D01*
X120403453Y-137325089D01*
X120536146Y-137248479D01*
X120668838Y-137171869D01*
X120801531Y-137095259D01*
X120934224Y-137018649D01*
X121066917Y-136942039D01*
X121199609Y-136865429D01*
X121332302Y-136788819D01*
X121464995Y-136712209D01*
X121597688Y-136635599D01*
X121730380Y-136558989D01*
X121863073Y-136482379D01*
X121995766Y-136405769D01*
X122128458Y-136329158D01*
X122261151Y-136252548D01*
X122393844Y-136175938D01*
X122526537Y-136099328D01*
X122659229Y-136022718D01*
X122791922Y-135946108D01*
X122924615Y-135869498D01*
X123057307Y-135792888D01*
X123190000Y-135716278D01*
X123322693Y-135792888D01*
X123190000Y-135369868D01*
X123056072Y-135447191D01*
X122922143Y-135524515D01*
X122788214Y-135601839D01*
X122654286Y-135679163D01*
X122520357Y-135756487D01*
X122386429Y-135833810D01*
X122252500Y-135911134D01*
X122118571Y-135988458D01*
X121984643Y-136065782D01*
X121850714Y-136143106D01*
X121716786Y-136220429D01*
X121582857Y-136297753D01*
X121448929Y-136375077D01*
X121315000Y-136452401D01*
X121181071Y-136529724D01*
X121047143Y-136607048D01*
X120913214Y-136684372D01*
X120779286Y-136761696D01*
X120645357Y-136839020D01*
X120511429Y-136916343D01*
X120377500Y-136993667D01*
X120243571Y-137070991D01*
X120109643Y-137148315D01*
X119975714Y-137225639D01*
X119841786Y-137302962D01*
X119707857Y-137380286D01*
X119573929Y-137457610D01*
X119440000Y-137534934D01*
X119440000Y-137689581D01*
X119440000Y-137844229D01*
X119440000Y-137998877D01*
X119440000Y-138153524D01*
X119440000Y-138308172D01*
X119440000Y-138462819D01*
X119440000Y-138617467D01*
X119440000Y-138772114D01*
X119440000Y-138926762D01*
X119440000Y-139081410D01*
X119440000Y-139236057D01*
X119440000Y-139390705D01*
X119440000Y-139545352D01*
X119440000Y-139700000D01*
X119440000Y-139854648D01*
X119440000Y-140009295D01*
X119440000Y-140163943D01*
X119440000Y-140318590D01*
X119440000Y-140473238D01*
X119440000Y-140627886D01*
X119440000Y-140782533D01*
X119440000Y-140937181D01*
X119440000Y-141091828D01*
X119440000Y-141246476D01*
X119440000Y-141401124D01*
X119440000Y-141555771D01*
X119440000Y-141710419D01*
X119440000Y-141865067D01*
X119573929Y-141942390D01*
X119707857Y-142019714D01*
X119841786Y-142097038D01*
X119975714Y-142174362D01*
X120109643Y-142251685D01*
X120243571Y-142329009D01*
X120377500Y-142406333D01*
X120511429Y-142483657D01*
X120645357Y-142560981D01*
X120779286Y-142638304D01*
X120913214Y-142715628D01*
X121047143Y-142792952D01*
X121181071Y-142870276D01*
X121315000Y-142947599D01*
X121448929Y-143024923D01*
X121582857Y-143102247D01*
X121716786Y-143179571D01*
X121850714Y-143256895D01*
X121984643Y-143334218D01*
X122118571Y-143411542D01*
X122252500Y-143488866D01*
X122386429Y-143566190D01*
X122520357Y-143643513D01*
X122654286Y-143720837D01*
X122788214Y-143798161D01*
X122922143Y-143875485D01*
X123056072Y-143952809D01*
X123190000Y-144030132D01*
X123323929Y-143952809D01*
X123457857Y-143875485D01*
X123591786Y-143798161D01*
X123725714Y-143720837D01*
X123859643Y-143643513D01*
X123993572Y-143566190D01*
X124127500Y-143488866D01*
X124261429Y-143411542D01*
X124395357Y-143334218D01*
X124529286Y-143256895D01*
X124663214Y-143179571D01*
X124797143Y-143102247D01*
X124931072Y-143024923D01*
X125065000Y-142947599D01*
X125198929Y-142870276D01*
X125332857Y-142792952D01*
X125466786Y-142715628D01*
X125600714Y-142638304D01*
X125734643Y-142560981D01*
X125868572Y-142483657D01*
X126002500Y-142406333D01*
X126136429Y-142329009D01*
X126270357Y-142251685D01*
X126404286Y-142174362D01*
X126538214Y-142097038D01*
X126672143Y-142019714D01*
X126806071Y-141942390D01*
X126940000Y-141865067D01*
X126940000Y-141710419D01*
X126940000Y-141555771D01*
X126940000Y-141401124D01*
X126940000Y-141246476D01*
X126940000Y-141091828D01*
X126940000Y-140937181D01*
X126940000Y-140782533D01*
X126940000Y-140627886D01*
X126940000Y-140473238D01*
X126940000Y-140318590D01*
X126940000Y-140163943D01*
X126940000Y-140009295D01*
X126940000Y-139854648D01*
X126940000Y-139700000D01*
X126940000Y-139545352D01*
X126940000Y-139390705D01*
X126940000Y-139236057D01*
X126940000Y-139081410D01*
X126940000Y-138926762D01*
X126940000Y-138772114D01*
X126940000Y-138617467D01*
X126940000Y-138462819D01*
X126940000Y-138308172D01*
X126940000Y-138153524D01*
X126940000Y-137998877D01*
X126940000Y-137844229D01*
X126940000Y-137689581D01*
X126940000Y-137534934D01*
X126806071Y-137457610D01*
X126672143Y-137380286D01*
X126538214Y-137302962D01*
X126404286Y-137225639D01*
X126270357Y-137148315D01*
X126136429Y-137070991D01*
X126002500Y-136993667D01*
X125868572Y-136916343D01*
X125734643Y-136839020D01*
X125600714Y-136761696D01*
X125466786Y-136684372D01*
X125332857Y-136607048D01*
X125198929Y-136529724D01*
X125065000Y-136452401D01*
X124931072Y-136375077D01*
X124797143Y-136297753D01*
X124663214Y-136220429D01*
X124529286Y-136143106D01*
X124395357Y-136065782D01*
X124261429Y-135988458D01*
X124127500Y-135911134D01*
X123993572Y-135833810D01*
X123859643Y-135756487D01*
X123725714Y-135679163D01*
X123591786Y-135601839D01*
X123457857Y-135524515D01*
X123323929Y-135447191D01*
X123190000Y-135369868D01*
G37*
G36*
X120039996Y-141345450D02*
G01*
X120039996Y-141187991D01*
X120039996Y-141030531D01*
X120039996Y-140873072D01*
X120039996Y-140715613D01*
X120039996Y-140558153D01*
X120039996Y-140400694D01*
X120039996Y-140243235D01*
X120039996Y-140085775D01*
X120039996Y-139928316D01*
X120039996Y-139770857D01*
X120039996Y-139613397D01*
X120039996Y-139455938D01*
X120039996Y-139298479D01*
X120039996Y-139141019D01*
X120039996Y-138983560D01*
X120039996Y-138826101D01*
X120039996Y-138668641D01*
X120039996Y-138511182D01*
X120039996Y-138353722D01*
X120039996Y-138196263D01*
X120039996Y-138038804D01*
X120039996Y-137881344D01*
X120159996Y-137812062D01*
X120279996Y-137742780D01*
X120399997Y-137673498D01*
X120519997Y-137604216D01*
X120639997Y-137534934D01*
X120699997Y-137673498D01*
X120759997Y-137812062D01*
X120819997Y-137950627D01*
X120879997Y-138089191D01*
X120939997Y-138227755D01*
X120999997Y-138366319D01*
X121059997Y-138504883D01*
X121119998Y-138643448D01*
X121179998Y-138782012D01*
X121239998Y-138920576D01*
X121299998Y-139059140D01*
X121359998Y-139197705D01*
X121419998Y-139336269D01*
X121479998Y-139474833D01*
X121539998Y-139613397D01*
X121582855Y-139464936D01*
X121625713Y-139316474D01*
X121668570Y-139168012D01*
X121711427Y-139019551D01*
X121754284Y-138871089D01*
X121797141Y-138722627D01*
X121839999Y-138574166D01*
X121882856Y-138425704D01*
X121925713Y-138277242D01*
X121968570Y-138128781D01*
X122011427Y-137980319D01*
X122054284Y-137831857D01*
X122097142Y-137683396D01*
X122139999Y-137534934D01*
X122182856Y-137386472D01*
X122225713Y-137238010D01*
X122268570Y-137089549D01*
X122311428Y-136941087D01*
X122354285Y-136792625D01*
X122397142Y-136644164D01*
X122439999Y-136495702D01*
X122559999Y-136426420D01*
X122680000Y-136357138D01*
X122800000Y-136287856D01*
X122920000Y-136218574D01*
X123040000Y-136149291D01*
X123040000Y-136306751D01*
X123040000Y-136464210D01*
X123040000Y-136621670D01*
X123040000Y-136779129D01*
X123040000Y-136936588D01*
X123040000Y-137094048D01*
X123040000Y-137251507D01*
X123040000Y-137408966D01*
X123040000Y-137566426D01*
X123040000Y-137723885D01*
X123040000Y-137881344D01*
X123040000Y-138038804D01*
X123040000Y-138196263D01*
X123040000Y-138353722D01*
X123040000Y-138511182D01*
X123040000Y-138668641D01*
X123040000Y-138826101D01*
X123040000Y-138983560D01*
X123040000Y-139141019D01*
X123040000Y-139298479D01*
X123040000Y-139455938D01*
X123040000Y-139613397D01*
X122920000Y-139682679D01*
X122800000Y-139751962D01*
X122680000Y-139821244D01*
X122559999Y-139890526D01*
X122439999Y-139959808D01*
X122439999Y-139802349D01*
X122439999Y-139644889D01*
X122439999Y-139487430D01*
X122439999Y-139329971D01*
X122439999Y-139172511D01*
X122439999Y-139015052D01*
X122439999Y-138857592D01*
X122439999Y-138700133D01*
X122439999Y-138542674D01*
X122439999Y-138385214D01*
X122439999Y-138227755D01*
X122397142Y-138376217D01*
X122354285Y-138524678D01*
X122311428Y-138673140D01*
X122268570Y-138821602D01*
X122225713Y-138970063D01*
X122182856Y-139118525D01*
X122139999Y-139266987D01*
X122097142Y-139415448D01*
X122054284Y-139563910D01*
X122011427Y-139712372D01*
X121968570Y-139860834D01*
X121925713Y-140009295D01*
X121882856Y-140157757D01*
X121839998Y-140306219D01*
X121719998Y-140375501D01*
X121599998Y-140444783D01*
X121479998Y-140514065D01*
X121359998Y-140583347D01*
X121239998Y-140652629D01*
X121179998Y-140514065D01*
X121119998Y-140375501D01*
X121059997Y-140236936D01*
X120999997Y-140098372D01*
X120939997Y-139959808D01*
X120879997Y-139821244D01*
X120819997Y-139682679D01*
X120759997Y-139544115D01*
X120699997Y-139405551D01*
X120639997Y-139266987D01*
X120639997Y-139424446D01*
X120639997Y-139581906D01*
X120639997Y-139739365D01*
X120639997Y-139896824D01*
X120639997Y-140054284D01*
X120639997Y-140211743D01*
X120639997Y-140369202D01*
X120639997Y-140526662D01*
X120639997Y-140684121D01*
X120639997Y-140841580D01*
X120639997Y-140999040D01*
X120519997Y-141068322D01*
X120399997Y-141137604D01*
X120279996Y-141206886D01*
X120159996Y-141276168D01*
X120039996Y-141345450D01*
G37*
G36*
X123340000Y-136149291D02*
G01*
X123340412Y-136299220D01*
X123340577Y-136449154D01*
X123340548Y-136599091D01*
X123340379Y-136749031D01*
X123340124Y-136898972D01*
X123339837Y-137048914D01*
X123339572Y-137198855D01*
X123339382Y-137348795D01*
X123339321Y-137498733D01*
X123339444Y-137648667D01*
X123339804Y-137798597D01*
X123340454Y-137948521D01*
X123341449Y-138098440D01*
X123342843Y-138248351D01*
X123344688Y-138398254D01*
X123354920Y-138547311D01*
X123375080Y-138695270D01*
X123404965Y-138841512D01*
X123444374Y-138985413D01*
X123493105Y-139126355D01*
X123550955Y-139263715D01*
X123617724Y-139396873D01*
X123693208Y-139525208D01*
X123777206Y-139648098D01*
X123869516Y-139764923D01*
X123969936Y-139875062D01*
X124078264Y-139977894D01*
X124194299Y-140072797D01*
X124311012Y-140157412D01*
X124430836Y-140237245D01*
X124553095Y-140313333D01*
X124677111Y-140386707D01*
X124802207Y-140458404D01*
X124927707Y-140529458D01*
X125052934Y-140600903D01*
X125177210Y-140673772D01*
X125304113Y-140739152D01*
X125437739Y-140800151D01*
X125576180Y-140849026D01*
X125717530Y-140878030D01*
X125859883Y-140879422D01*
X126001332Y-140845455D01*
X126121755Y-140761111D01*
X126208591Y-140649132D01*
X126267705Y-140517531D01*
X126304962Y-140374324D01*
X126326228Y-140227524D01*
X126337368Y-140085145D01*
X126338486Y-139927744D01*
X126339308Y-139770338D01*
X126339872Y-139612929D01*
X126340217Y-139455517D01*
X126340380Y-139298102D01*
X126340401Y-139140685D01*
X126340316Y-138983267D01*
X126340165Y-138825848D01*
X126339986Y-138668429D01*
X126339816Y-138511010D01*
X126339695Y-138353591D01*
X126339660Y-138196174D01*
X126339750Y-138038758D01*
X126340003Y-137881344D01*
X126220003Y-137812062D01*
X126100003Y-137742780D01*
X125980002Y-137673498D01*
X125860002Y-137604216D01*
X125740002Y-137534934D01*
X125739766Y-137689290D01*
X125739680Y-137843649D01*
X125739711Y-137998010D01*
X125739822Y-138152373D01*
X125739979Y-138306737D01*
X125740146Y-138461100D01*
X125740289Y-138615464D01*
X125740373Y-138769826D01*
X125740362Y-138924186D01*
X125740221Y-139078544D01*
X125739915Y-139232899D01*
X125739410Y-139387251D01*
X125738670Y-139541598D01*
X125737660Y-139695940D01*
X125728714Y-139806470D01*
X125693905Y-139916336D01*
X125632808Y-140008589D01*
X125544995Y-140066280D01*
X125430042Y-140072459D01*
X125288833Y-140030119D01*
X125155382Y-139968685D01*
X125026641Y-139895858D01*
X124899565Y-139819338D01*
X124771108Y-139746827D01*
X124650282Y-139678737D01*
X124530373Y-139606827D01*
X124414531Y-139528928D01*
X124305907Y-139442871D01*
X124207651Y-139346490D01*
X124122913Y-139237615D01*
X124054845Y-139114079D01*
X123997444Y-138968949D01*
X123962437Y-138819554D01*
X123944588Y-138666998D01*
X123938658Y-138512390D01*
X123939409Y-138356836D01*
X123941603Y-138201443D01*
X123940001Y-138047317D01*
X123940001Y-137892156D01*
X123940001Y-137736994D01*
X123940001Y-137581833D01*
X123940001Y-137426671D01*
X123940001Y-137271510D01*
X123940001Y-137116348D01*
X123940001Y-136961187D01*
X123940001Y-136806025D01*
X123940001Y-136650864D01*
X123940001Y-136495702D01*
X123820001Y-136426420D01*
X123700001Y-136357138D01*
X123580001Y-136287856D01*
X123460001Y-136218574D01*
X123340001Y-136149291D01*
X123340000Y-136149291D01*
G37*
G36*
X122589999Y-140219616D02*
G01*
X123190000Y-139873205D01*
X126190004Y-141605259D01*
X125590003Y-141951669D01*
X122589999Y-140219616D01*
G37*
G36*
X120189996Y-141605259D02*
G01*
X120789997Y-141258848D01*
X122289999Y-142124874D01*
X121389998Y-140912437D01*
X121989999Y-140566027D01*
X123790001Y-142990901D01*
X123190000Y-143337312D01*
X120189996Y-141605259D01*
G37*
D14*
X131345000Y-126592064D02*
X131345000Y-126137936D01*
X132815000Y-126592064D02*
X132815000Y-126137936D01*
X127386000Y-132950000D02*
X127386000Y-131690000D01*
X127386000Y-126130000D02*
X127386000Y-127390000D01*
X123626000Y-132950000D02*
X127386000Y-132950000D01*
X121376000Y-126130000D02*
X127386000Y-126130000D01*
X72797936Y-138330000D02*
X73252064Y-138330000D01*
X72797936Y-139800000D02*
X73252064Y-139800000D01*
X113448000Y-122014064D02*
X113448000Y-120809936D01*
X116168000Y-122014064D02*
X116168000Y-120809936D01*
X111025000Y-118117252D02*
X111025000Y-117594748D01*
X112495000Y-118117252D02*
X112495000Y-117594748D01*
X114546748Y-117121000D02*
X115069252Y-117121000D01*
X114546748Y-118591000D02*
X115069252Y-118591000D01*
X91380000Y-120075000D02*
X94040000Y-120075000D01*
X91380000Y-112395000D02*
X91380000Y-120075000D01*
X94040000Y-112395000D02*
X94040000Y-120075000D01*
X91380000Y-112395000D02*
X94040000Y-112395000D01*
X91380000Y-111125000D02*
X91380000Y-109795000D01*
X91380000Y-109795000D02*
X92710000Y-109795000D01*
X123250000Y-102930000D02*
X123250000Y-100270000D01*
X118110000Y-102930000D02*
X123250000Y-102930000D01*
X118110000Y-100270000D02*
X123250000Y-100270000D01*
X118110000Y-102930000D02*
X118110000Y-100270000D01*
X116840000Y-102930000D02*
X115510000Y-102930000D01*
X115510000Y-102930000D02*
X115510000Y-101600000D01*
X123680000Y-122925000D02*
X123680000Y-103905000D01*
X123680000Y-103905000D02*
X117870000Y-103905000D01*
X117870000Y-103905000D02*
X117870000Y-122925000D01*
X117870000Y-122925000D02*
X123680000Y-122925000D01*
X122730000Y-123225000D02*
X123980000Y-123225000D01*
X123980000Y-123225000D02*
X123980000Y-121975000D01*
X113155000Y-93485580D02*
X113155000Y-93204420D01*
X114175000Y-93485580D02*
X114175000Y-93204420D01*
X109580000Y-94056252D02*
X109580000Y-92633748D01*
X111400000Y-94056252D02*
X111400000Y-92633748D01*
X106805000Y-93485580D02*
X106805000Y-93204420D01*
X107825000Y-93485580D02*
X107825000Y-93204420D01*
X116150000Y-83670000D02*
X116150000Y-86510000D01*
X116150000Y-86510000D02*
X120190000Y-86510000D01*
X120190000Y-86510000D02*
X120190000Y-83670000D01*
X120190000Y-83670000D02*
X116150000Y-83670000D01*
X115460000Y-85090000D02*
X116150000Y-85090000D01*
X120880000Y-85090000D02*
X120190000Y-85090000D01*
X116150000Y-79860000D02*
X116150000Y-82700000D01*
X116150000Y-82700000D02*
X120190000Y-82700000D01*
X120190000Y-82700000D02*
X120190000Y-79860000D01*
X120190000Y-79860000D02*
X116150000Y-79860000D01*
X115460000Y-81280000D02*
X116150000Y-81280000D01*
X120880000Y-81280000D02*
X120190000Y-81280000D01*
X89110000Y-129770000D02*
X89890000Y-129770000D01*
X89890000Y-129770000D02*
X89890000Y-128770000D01*
X89110000Y-111530000D02*
X89890000Y-111530000D01*
X89890000Y-111530000D02*
X89890000Y-112530000D01*
X64145000Y-129770000D02*
X64145000Y-111530000D01*
X64145000Y-111530000D02*
X70565000Y-111530000D01*
X64145000Y-129770000D02*
X70565000Y-129770000D01*
X70565000Y-129770000D02*
X70565000Y-130150000D01*
X89210000Y-96395000D02*
X88280000Y-96395000D01*
X86050000Y-96395000D02*
X86980000Y-96395000D01*
X86050000Y-96395000D02*
X86050000Y-98555000D01*
X89210000Y-96395000D02*
X89210000Y-97855000D01*
X98398064Y-136244000D02*
X97943936Y-136244000D01*
X98398064Y-134774000D02*
X97943936Y-134774000D01*
X109373936Y-134139000D02*
X109828064Y-134139000D01*
X109373936Y-135609000D02*
X109828064Y-135609000D01*
X93880000Y-129489564D02*
X93880000Y-129035436D01*
X95350000Y-129489564D02*
X95350000Y-129035436D01*
X109373936Y-131599000D02*
X109828064Y-131599000D01*
X109373936Y-133069000D02*
X109828064Y-133069000D01*
X98398064Y-129894000D02*
X97943936Y-129894000D01*
X98398064Y-128424000D02*
X97943936Y-128424000D01*
X109373936Y-129059000D02*
X109828064Y-129059000D01*
X109373936Y-130529000D02*
X109828064Y-130529000D01*
X102741000Y-136454000D02*
X102741000Y-135524000D01*
X102741000Y-133294000D02*
X102741000Y-134224000D01*
X102741000Y-133294000D02*
X100581000Y-133294000D01*
X102741000Y-136454000D02*
X101281000Y-136454000D01*
X98931000Y-133914000D02*
X98931000Y-132984000D01*
X98931000Y-130754000D02*
X98931000Y-131684000D01*
X98931000Y-130754000D02*
X96771000Y-130754000D01*
X98931000Y-133914000D02*
X97471000Y-133914000D01*
X102741000Y-131374000D02*
X102741000Y-130444000D01*
X102741000Y-128214000D02*
X102741000Y-129144000D01*
X102741000Y-128214000D02*
X100581000Y-128214000D01*
X102741000Y-131374000D02*
X101281000Y-131374000D01*
X106791000Y-133279000D02*
X104106000Y-133279000D01*
X104106000Y-133279000D02*
X104106000Y-135199000D01*
X104106000Y-135199000D02*
X106791000Y-135199000D01*
X106591000Y-131599000D02*
X104306000Y-131599000D01*
X104306000Y-131599000D02*
X104306000Y-133069000D01*
X104306000Y-133069000D02*
X106591000Y-133069000D01*
X106591000Y-129694000D02*
X104306000Y-129694000D01*
X104306000Y-129694000D02*
X104306000Y-131164000D01*
X104306000Y-131164000D02*
X106591000Y-131164000D01*
X72270000Y-95405000D02*
X63770000Y-95405000D01*
X63770000Y-95405000D02*
X63770000Y-86205000D01*
X63770000Y-86205000D02*
X78470000Y-86205000D01*
X78470000Y-93305000D02*
X78470000Y-95405000D01*
X78470000Y-95405000D02*
X76670000Y-95405000D01*
X78770000Y-87605000D02*
X78770000Y-85905000D01*
X78770000Y-85905000D02*
X77170000Y-85905000D01*
X78470000Y-86205000D02*
X78470000Y-88305000D01*
X156560000Y-146065000D02*
X158400000Y-146065000D01*
X158400000Y-146065000D02*
X158400000Y-142225000D01*
X158400000Y-142225000D02*
X156560000Y-142225000D01*
X156560000Y-142225000D02*
X156560000Y-146065000D01*
X157480000Y-147015000D02*
X157480000Y-146065000D01*
X157480000Y-141275000D02*
X157480000Y-142225000D01*
X179590000Y-109090000D02*
X188710000Y-109090000D01*
X188710000Y-109090000D02*
X188710000Y-129670000D01*
X188710000Y-129670000D02*
X179590000Y-129670000D01*
X179590000Y-129670000D02*
X179590000Y-109090000D01*
X179590000Y-117330000D02*
X180900000Y-117330000D01*
X180900000Y-117330000D02*
X180900000Y-110390000D01*
X180900000Y-110390000D02*
X187400000Y-110390000D01*
X187400000Y-110390000D02*
X187400000Y-128370000D01*
X187400000Y-128370000D02*
X180900000Y-128370000D01*
X180900000Y-128370000D02*
X180900000Y-121430000D01*
X180900000Y-121430000D02*
X180900000Y-121430000D01*
X180900000Y-121430000D02*
X179590000Y-121430000D01*
X179200000Y-114300000D02*
X178200000Y-113800000D01*
X178200000Y-113800000D02*
X178200000Y-114800000D01*
X178200000Y-114800000D02*
X179200000Y-114300000D01*
X179590000Y-86230000D02*
X188710000Y-86230000D01*
X188710000Y-86230000D02*
X188710000Y-106810000D01*
X188710000Y-106810000D02*
X179590000Y-106810000D01*
X179590000Y-106810000D02*
X179590000Y-86230000D01*
X179590000Y-94470000D02*
X180900000Y-94470000D01*
X180900000Y-94470000D02*
X180900000Y-87530000D01*
X180900000Y-87530000D02*
X187400000Y-87530000D01*
X187400000Y-87530000D02*
X187400000Y-105510000D01*
X187400000Y-105510000D02*
X180900000Y-105510000D01*
X180900000Y-105510000D02*
X180900000Y-98570000D01*
X180900000Y-98570000D02*
X180900000Y-98570000D01*
X180900000Y-98570000D02*
X179590000Y-98570000D01*
X179200000Y-91440000D02*
X178200000Y-90940000D01*
X178200000Y-90940000D02*
X178200000Y-91940000D01*
X178200000Y-91940000D02*
X179200000Y-91440000D01*
X133370000Y-129540000D02*
X133370000Y-131490000D01*
X133370000Y-129540000D02*
X133370000Y-127590000D01*
X143490000Y-129540000D02*
X143490000Y-131490000D01*
X143490000Y-129540000D02*
X143490000Y-126090000D01*
X150515000Y-129540000D02*
X150515000Y-131490000D01*
X150515000Y-129540000D02*
X150515000Y-127590000D01*
X160635000Y-129540000D02*
X160635000Y-131490000D01*
X160635000Y-129540000D02*
X160635000Y-126090000D01*
X77175000Y-100595000D02*
X77175000Y-98795000D01*
X73955000Y-98795000D02*
X73955000Y-101245000D01*
X87095000Y-100737936D02*
X87095000Y-101192064D01*
X85625000Y-100737936D02*
X85625000Y-101192064D01*
X88165000Y-101192064D02*
X88165000Y-100737936D01*
X89635000Y-101192064D02*
X89635000Y-100737936D01*
X86050000Y-105535000D02*
X86980000Y-105535000D01*
X89210000Y-105535000D02*
X88280000Y-105535000D01*
X89210000Y-105535000D02*
X89210000Y-103375000D01*
X86050000Y-105535000D02*
X86050000Y-104075000D01*
X83530000Y-98790000D02*
X83530000Y-96790000D01*
X83530000Y-96790000D02*
X79630000Y-96790000D01*
X83530000Y-98790000D02*
X79630000Y-98790000D01*
X74805000Y-107174420D02*
X74805000Y-107455580D01*
X73785000Y-107174420D02*
X73785000Y-107455580D01*
X72900000Y-107174420D02*
X72900000Y-107455580D01*
X71880000Y-107174420D02*
X71880000Y-107455580D01*
X105410580Y-102110000D02*
X105129420Y-102110000D01*
X105410580Y-101090000D02*
X105129420Y-101090000D01*
X81485000Y-107680000D02*
X81485000Y-108155000D01*
X81485000Y-108155000D02*
X81010000Y-108155000D01*
X77265000Y-104410000D02*
X77265000Y-103935000D01*
X77265000Y-103935000D02*
X77740000Y-103935000D01*
X77265000Y-107680000D02*
X77265000Y-108155000D01*
X77265000Y-108155000D02*
X77740000Y-108155000D01*
X81485000Y-104410000D02*
X81485000Y-103935000D01*
X101600000Y-118942000D02*
X103800000Y-118942000D01*
X101600000Y-118942000D02*
X99400000Y-118942000D01*
X101600000Y-113722000D02*
X103800000Y-113722000D01*
X101600000Y-113722000D02*
X98000000Y-113722000D01*
X133290000Y-120590000D02*
X133290000Y-123250000D01*
X171450000Y-120590000D02*
X133290000Y-120590000D01*
X171450000Y-123250000D02*
X133290000Y-123250000D01*
X171450000Y-120590000D02*
X171450000Y-123250000D01*
X172720000Y-120590000D02*
X174050000Y-120590000D01*
X174050000Y-120590000D02*
X174050000Y-121920000D01*
X95310000Y-138490000D02*
X95310000Y-133290000D01*
X85090000Y-138490000D02*
X95310000Y-138490000D01*
X82490000Y-133290000D02*
X95310000Y-133290000D01*
X85090000Y-138490000D02*
X85090000Y-135890000D01*
X85090000Y-135890000D02*
X82490000Y-135890000D01*
X82490000Y-135890000D02*
X82490000Y-133290000D01*
X83820000Y-138490000D02*
X82490000Y-138490000D01*
X82490000Y-138490000D02*
X82490000Y-137160000D01*
X156270000Y-85150000D02*
X156270000Y-82490000D01*
X153670000Y-85150000D02*
X156270000Y-85150000D01*
X153670000Y-82490000D02*
X156270000Y-82490000D01*
X153670000Y-85150000D02*
X153670000Y-82490000D01*
X152400000Y-85150000D02*
X151070000Y-85150000D01*
X151070000Y-85150000D02*
X151070000Y-83820000D01*
X104020000Y-165100000D02*
X89020000Y-165100000D01*
X89020000Y-165100000D02*
X89020000Y-150100000D01*
X89020000Y-150100000D02*
X104020000Y-150100000D01*
X104020000Y-150100000D02*
X104020000Y-165100000D01*
X96520000Y-164900000D02*
X97520000Y-163900000D01*
X96520000Y-164900000D02*
X95520000Y-163900000D01*
X99147920Y-119886000D02*
X99429080Y-119886000D01*
X99147920Y-120906000D02*
X99429080Y-120906000D01*
X149980000Y-63500000D02*
X164980000Y-63500000D01*
X164980000Y-63500000D02*
X164980000Y-78500000D01*
X164980000Y-78500000D02*
X149980000Y-78500000D01*
X149980000Y-78500000D02*
X149980000Y-63500000D01*
X157480000Y-63700000D02*
X156480000Y-64700000D01*
X157480000Y-63700000D02*
X158480000Y-64700000D01*
X114915000Y-93345000D02*
X114915000Y-95295000D01*
X114915000Y-93345000D02*
X114915000Y-91395000D01*
X120035000Y-93345000D02*
X120035000Y-95295000D01*
X120035000Y-93345000D02*
X120035000Y-89895000D01*
X123290000Y-88672936D02*
X123290000Y-89127064D01*
X121820000Y-88672936D02*
X121820000Y-89127064D01*
X104830000Y-82700000D02*
X104830000Y-79860000D01*
X104830000Y-79860000D02*
X100790000Y-79860000D01*
X100790000Y-79860000D02*
X100790000Y-82700000D01*
X100790000Y-82700000D02*
X104830000Y-82700000D01*
X105520000Y-81280000D02*
X104830000Y-81280000D01*
X100100000Y-81280000D02*
X100790000Y-81280000D01*
X100790000Y-83670000D02*
X100790000Y-86510000D01*
X100790000Y-86510000D02*
X104830000Y-86510000D01*
X104830000Y-86510000D02*
X104830000Y-83670000D01*
X104830000Y-83670000D02*
X100790000Y-83670000D01*
X100100000Y-85090000D02*
X100790000Y-85090000D01*
X105520000Y-85090000D02*
X104830000Y-85090000D01*
X135240000Y-146400000D02*
X135240000Y-148240000D01*
X135240000Y-148240000D02*
X139080000Y-148240000D01*
X139080000Y-148240000D02*
X139080000Y-146400000D01*
X139080000Y-146400000D02*
X135240000Y-146400000D01*
X134290000Y-147320000D02*
X135240000Y-147320000D01*
X140030000Y-147320000D02*
X139080000Y-147320000D01*
X118760000Y-148240000D02*
X118760000Y-146400000D01*
X118760000Y-146400000D02*
X114920000Y-146400000D01*
X114920000Y-146400000D02*
X114920000Y-148240000D01*
X114920000Y-148240000D02*
X118760000Y-148240000D01*
X119710000Y-147320000D02*
X118760000Y-147320000D01*
X113970000Y-147320000D02*
X114920000Y-147320000D01*
X95600000Y-146065000D02*
X97440000Y-146065000D01*
X97440000Y-146065000D02*
X97440000Y-142225000D01*
X97440000Y-142225000D02*
X95600000Y-142225000D01*
X95600000Y-142225000D02*
X95600000Y-146065000D01*
X96520000Y-147015000D02*
X96520000Y-146065000D01*
X96520000Y-141275000D02*
X96520000Y-142225000D01*
X109340000Y-63500000D02*
X124340000Y-63500000D01*
X124340000Y-63500000D02*
X124340000Y-78500000D01*
X124340000Y-78500000D02*
X109340000Y-78500000D01*
X109340000Y-78500000D02*
X109340000Y-63500000D01*
X116840000Y-63700000D02*
X115840000Y-64700000D01*
X116840000Y-63700000D02*
X117840000Y-64700000D01*
X89020000Y-63500000D02*
X104020000Y-63500000D01*
X104020000Y-63500000D02*
X104020000Y-78500000D01*
X104020000Y-78500000D02*
X89020000Y-78500000D01*
X89020000Y-78500000D02*
X89020000Y-63500000D01*
X96520000Y-63700000D02*
X95520000Y-64700000D01*
X96520000Y-63700000D02*
X97520000Y-64700000D01*
X164980000Y-165100000D02*
X149980000Y-165100000D01*
X149980000Y-165100000D02*
X149980000Y-150100000D01*
X149980000Y-150100000D02*
X164980000Y-150100000D01*
X164980000Y-150100000D02*
X164980000Y-165100000D01*
X157480000Y-164900000D02*
X158480000Y-163900000D01*
X157480000Y-164900000D02*
X156480000Y-163900000D01*
X144660000Y-165100000D02*
X129660000Y-165100000D01*
X129660000Y-165100000D02*
X129660000Y-150100000D01*
X129660000Y-150100000D02*
X144660000Y-150100000D01*
X144660000Y-150100000D02*
X144660000Y-165100000D01*
X137160000Y-164900000D02*
X138160000Y-163900000D01*
X137160000Y-164900000D02*
X136160000Y-163900000D01*
X124340000Y-165100000D02*
X109340000Y-165100000D01*
X109340000Y-165100000D02*
X109340000Y-150100000D01*
X109340000Y-150100000D02*
X124340000Y-150100000D01*
X124340000Y-150100000D02*
X124340000Y-165100000D01*
X116840000Y-164900000D02*
X117840000Y-163900000D01*
X116840000Y-164900000D02*
X115840000Y-163900000D01*
X129660000Y-63500000D02*
X144660000Y-63500000D01*
X144660000Y-63500000D02*
X144660000Y-78500000D01*
X144660000Y-78500000D02*
X129660000Y-78500000D01*
X129660000Y-78500000D02*
X129660000Y-63500000D01*
X137160000Y-63700000D02*
X136160000Y-64700000D01*
X137160000Y-63700000D02*
X138160000Y-64700000D01*
X181550000Y-138370000D02*
X181550000Y-141030000D01*
X186690000Y-138370000D02*
X181550000Y-138370000D01*
X186690000Y-141030000D02*
X181550000Y-141030000D01*
X186690000Y-138370000D02*
X186690000Y-141030000D01*
X187960000Y-138370000D02*
X189290000Y-138370000D01*
X189290000Y-138370000D02*
X189290000Y-139700000D01*
X181550000Y-133290000D02*
X181550000Y-135950000D01*
X186690000Y-133290000D02*
X181550000Y-133290000D01*
X186690000Y-135950000D02*
X181550000Y-135950000D01*
X186690000Y-133290000D02*
X186690000Y-135950000D01*
X187960000Y-133290000D02*
X189290000Y-133290000D01*
X189290000Y-133290000D02*
X189290000Y-134620000D01*
X100945000Y-93345000D02*
X100945000Y-95295000D01*
X100945000Y-93345000D02*
X100945000Y-91395000D01*
X106065000Y-93345000D02*
X106065000Y-95295000D01*
X106065000Y-93345000D02*
X106065000Y-89895000D01*
X99355000Y-106045000D02*
X99355000Y-107545000D01*
X99355000Y-106045000D02*
X99355000Y-104545000D01*
X102575000Y-106045000D02*
X102575000Y-107545000D01*
X102575000Y-106045000D02*
X102575000Y-103120000D01*
X147320000Y-143490000D02*
X145370000Y-143490000D01*
X147320000Y-143490000D02*
X149270000Y-143490000D01*
X147320000Y-148610000D02*
X145370000Y-148610000D01*
X147320000Y-148610000D02*
X150770000Y-148610000D01*
X106680000Y-143490000D02*
X104730000Y-143490000D01*
X106680000Y-143490000D02*
X108630000Y-143490000D01*
X106680000Y-148610000D02*
X104730000Y-148610000D01*
X106680000Y-148610000D02*
X110130000Y-148610000D01*
D10*
X168217000Y-134783000D02*
X168217000Y-139283000D01*
X173767000Y-133658000D02*
X173767000Y-139283000D01*
D14*
X63699000Y-137105000D02*
X63729000Y-137105000D01*
X70159000Y-137105000D02*
X70129000Y-137105000D01*
X70159000Y-143565000D02*
X70129000Y-143565000D01*
X63729000Y-143565000D02*
X63699000Y-143565000D01*
X65629000Y-137105000D02*
X68229000Y-137105000D01*
X63699000Y-143565000D02*
X63699000Y-137105000D01*
X65629000Y-143565000D02*
X68229000Y-143565000D01*
X70159000Y-143565000D02*
X70159000Y-137105000D01*
X123290000Y-93117936D02*
X123290000Y-93572064D01*
X121820000Y-93117936D02*
X121820000Y-93572064D01*
X123290000Y-97562936D02*
X123290000Y-98017064D01*
X121820000Y-97562936D02*
X121820000Y-98017064D01*
X112495000Y-84862936D02*
X112495000Y-85317064D01*
X111025000Y-84862936D02*
X111025000Y-85317064D01*
X105002064Y-89000000D02*
X104547936Y-89000000D01*
X105002064Y-87530000D02*
X104547936Y-87530000D01*
X99795000Y-94387936D02*
X99795000Y-94842064D01*
X98325000Y-94387936D02*
X98325000Y-94842064D01*
X99795000Y-89942936D02*
X99795000Y-90397064D01*
X98325000Y-89942936D02*
X98325000Y-90397064D01*
X97255000Y-84862936D02*
X97255000Y-85317064D01*
X95785000Y-84862936D02*
X95785000Y-85317064D01*
X109447064Y-104240000D02*
X108992936Y-104240000D01*
X109447064Y-102770000D02*
X108992936Y-102770000D01*
X105637064Y-104240000D02*
X105182936Y-104240000D01*
X105637064Y-102770000D02*
X105182936Y-102770000D01*
X154405000Y-147092936D02*
X154405000Y-147547064D01*
X152935000Y-147092936D02*
X152935000Y-147547064D01*
X139927064Y-145515000D02*
X139472936Y-145515000D01*
X139927064Y-144045000D02*
X139472936Y-144045000D01*
X114072936Y-143410000D02*
X114527064Y-143410000D01*
X114072936Y-144880000D02*
X114527064Y-144880000D01*
X101065000Y-147092936D02*
X101065000Y-147547064D01*
X99595000Y-147092936D02*
X99595000Y-147547064D01*
X73633064Y-104875000D02*
X73178936Y-104875000D01*
X73633064Y-103405000D02*
X73178936Y-103405000D01*
X80480000Y-102335000D02*
X82765000Y-102335000D01*
X82765000Y-102335000D02*
X82765000Y-100865000D01*
X82765000Y-100865000D02*
X80480000Y-100865000D01*
X103999420Y-139190000D02*
X104280580Y-139190000D01*
X103999420Y-140210000D02*
X104280580Y-140210000D01*
X103999420Y-141095000D02*
X104280580Y-141095000D01*
X103999420Y-142115000D02*
X104280580Y-142115000D01*
X149719420Y-141730000D02*
X150000580Y-141730000D01*
X149719420Y-142750000D02*
X150000580Y-142750000D01*
X144920580Y-142750000D02*
X144639420Y-142750000D01*
X144920580Y-141730000D02*
X144639420Y-141730000D01*
X105310000Y-108211252D02*
X105310000Y-107688748D01*
X106780000Y-108211252D02*
X106780000Y-107688748D01*
X108710000Y-108090580D02*
X108710000Y-107809420D01*
X109730000Y-108090580D02*
X109730000Y-107809420D01*
X114835000Y-113291252D02*
X114835000Y-112768748D01*
X116305000Y-113291252D02*
X116305000Y-112768748D01*
X114835000Y-108846252D02*
X114835000Y-108323748D01*
X116305000Y-108846252D02*
X116305000Y-108323748D01*
X146560000Y-131304420D02*
X146560000Y-131585580D01*
X145540000Y-131304420D02*
X145540000Y-131585580D01*
X163705000Y-131304420D02*
X163705000Y-131585580D01*
X162685000Y-131304420D02*
X162685000Y-131585580D01*
X169035000Y-131077580D02*
X169035000Y-130796420D01*
X170055000Y-131077580D02*
X170055000Y-130796420D01*
X173849420Y-131443000D02*
X174130580Y-131443000D01*
X173849420Y-132463000D02*
X174130580Y-132463000D01*
X171590580Y-128145000D02*
X171309420Y-128145000D01*
X171590580Y-127125000D02*
X171309420Y-127125000D01*
X173622580Y-130431000D02*
X173341420Y-130431000D01*
X173622580Y-129411000D02*
X173341420Y-129411000D01*
X175512000Y-139205580D02*
X175512000Y-138924420D01*
X176532000Y-139205580D02*
X176532000Y-138924420D01*
X72763748Y-140870000D02*
X73286252Y-140870000D01*
X72763748Y-142340000D02*
X73286252Y-142340000D01*
X73286252Y-135990000D02*
X72763748Y-135990000D01*
X73286252Y-134520000D02*
X72763748Y-134520000D01*
X73165580Y-133860000D02*
X72884420Y-133860000D01*
X73165580Y-132840000D02*
X72884420Y-132840000D01*
X118645000Y-127769252D02*
X118645000Y-127246748D01*
X120115000Y-127769252D02*
X120115000Y-127246748D01*
X118645000Y-131833252D02*
X118645000Y-131310748D01*
X120115000Y-131833252D02*
X120115000Y-131310748D01*
D10*
X130882380Y-127007857D02*
X130406190Y-127341190D01*
X130882380Y-127579285D02*
X129882380Y-127579285D01*
X129882380Y-127198333D01*
X129930000Y-127103095D01*
X129977619Y-127055476D01*
X130072857Y-127007857D01*
X130215714Y-127007857D01*
X130310952Y-127055476D01*
X130358571Y-127103095D01*
X130406190Y-127198333D01*
X130406190Y-127579285D01*
X129977619Y-126626904D02*
X129930000Y-126579285D01*
X129882380Y-126484047D01*
X129882380Y-126245952D01*
X129930000Y-126150714D01*
X129977619Y-126103095D01*
X130072857Y-126055476D01*
X130168095Y-126055476D01*
X130310952Y-126103095D01*
X130882380Y-126674523D01*
X130882380Y-126055476D01*
X129977619Y-125674523D02*
X129930000Y-125626904D01*
X129882380Y-125531666D01*
X129882380Y-125293571D01*
X129930000Y-125198333D01*
X129977619Y-125150714D01*
X130072857Y-125103095D01*
X130168095Y-125103095D01*
X130310952Y-125150714D01*
X130882380Y-125722142D01*
X130882380Y-125103095D01*
X124237904Y-124492380D02*
X124237904Y-125301904D01*
X124285523Y-125397142D01*
X124333142Y-125444761D01*
X124428380Y-125492380D01*
X124618857Y-125492380D01*
X124714095Y-125444761D01*
X124761714Y-125397142D01*
X124809333Y-125301904D01*
X124809333Y-124492380D01*
X125809333Y-125492380D02*
X125237904Y-125492380D01*
X125523619Y-125492380D02*
X125523619Y-124492380D01*
X125428380Y-124635238D01*
X125333142Y-124730476D01*
X125237904Y-124778095D01*
X126142666Y-124492380D02*
X126761714Y-124492380D01*
X126428380Y-124873333D01*
X126571238Y-124873333D01*
X126666476Y-124920952D01*
X126714095Y-124968571D01*
X126761714Y-125063809D01*
X126761714Y-125301904D01*
X126714095Y-125397142D01*
X126666476Y-125444761D01*
X126571238Y-125492380D01*
X126285523Y-125492380D01*
X126190285Y-125444761D01*
X126142666Y-125397142D01*
X76017380Y-139707857D02*
X75541190Y-140041190D01*
X76017380Y-140279285D02*
X75017380Y-140279285D01*
X75017380Y-139898333D01*
X75065000Y-139803095D01*
X75112619Y-139755476D01*
X75207857Y-139707857D01*
X75350714Y-139707857D01*
X75445952Y-139755476D01*
X75493571Y-139803095D01*
X75541190Y-139898333D01*
X75541190Y-140279285D01*
X75112619Y-139326904D02*
X75065000Y-139279285D01*
X75017380Y-139184047D01*
X75017380Y-138945952D01*
X75065000Y-138850714D01*
X75112619Y-138803095D01*
X75207857Y-138755476D01*
X75303095Y-138755476D01*
X75445952Y-138803095D01*
X76017380Y-139374523D01*
X76017380Y-138755476D01*
X76017380Y-137803095D02*
X76017380Y-138374523D01*
X76017380Y-138088809D02*
X75017380Y-138088809D01*
X75160238Y-138184047D01*
X75255476Y-138279285D01*
X75303095Y-138374523D01*
X112980380Y-121578666D02*
X112980380Y-122054857D01*
X111980380Y-122054857D01*
X111980380Y-120769142D02*
X111980380Y-121245333D01*
X112456571Y-121292952D01*
X112408952Y-121245333D01*
X112361333Y-121150095D01*
X112361333Y-120912000D01*
X112408952Y-120816761D01*
X112456571Y-120769142D01*
X112551809Y-120721523D01*
X112789904Y-120721523D01*
X112885142Y-120769142D01*
X112932761Y-120816761D01*
X112980380Y-120912000D01*
X112980380Y-121150095D01*
X112932761Y-121245333D01*
X112885142Y-121292952D01*
X110437142Y-118498857D02*
X110484761Y-118546476D01*
X110532380Y-118689333D01*
X110532380Y-118784571D01*
X110484761Y-118927428D01*
X110389523Y-119022666D01*
X110294285Y-119070285D01*
X110103809Y-119117904D01*
X109960952Y-119117904D01*
X109770476Y-119070285D01*
X109675238Y-119022666D01*
X109580000Y-118927428D01*
X109532380Y-118784571D01*
X109532380Y-118689333D01*
X109580000Y-118546476D01*
X109627619Y-118498857D01*
X109532380Y-117594095D02*
X109532380Y-118070285D01*
X110008571Y-118117904D01*
X109960952Y-118070285D01*
X109913333Y-117975047D01*
X109913333Y-117736952D01*
X109960952Y-117641714D01*
X110008571Y-117594095D01*
X110103809Y-117546476D01*
X110341904Y-117546476D01*
X110437142Y-117594095D01*
X110484761Y-117641714D01*
X110532380Y-117736952D01*
X110532380Y-117975047D01*
X110484761Y-118070285D01*
X110437142Y-118117904D01*
X110532380Y-116594095D02*
X110532380Y-117165523D01*
X110532380Y-116879809D02*
X109532380Y-116879809D01*
X109675238Y-116975047D01*
X109770476Y-117070285D01*
X109818095Y-117165523D01*
X113688952Y-116533142D02*
X113641333Y-116580761D01*
X113498476Y-116628380D01*
X113403238Y-116628380D01*
X113260380Y-116580761D01*
X113165142Y-116485523D01*
X113117523Y-116390285D01*
X113069904Y-116199809D01*
X113069904Y-116056952D01*
X113117523Y-115866476D01*
X113165142Y-115771238D01*
X113260380Y-115676000D01*
X113403238Y-115628380D01*
X113498476Y-115628380D01*
X113641333Y-115676000D01*
X113688952Y-115723619D01*
X114593714Y-115628380D02*
X114117523Y-115628380D01*
X114069904Y-116104571D01*
X114117523Y-116056952D01*
X114212761Y-116009333D01*
X114450857Y-116009333D01*
X114546095Y-116056952D01*
X114593714Y-116104571D01*
X114641333Y-116199809D01*
X114641333Y-116437904D01*
X114593714Y-116533142D01*
X114546095Y-116580761D01*
X114450857Y-116628380D01*
X114212761Y-116628380D01*
X114117523Y-116580761D01*
X114069904Y-116533142D01*
X115593714Y-116628380D02*
X115022285Y-116628380D01*
X115308000Y-116628380D02*
X115308000Y-115628380D01*
X115212761Y-115771238D01*
X115117523Y-115866476D01*
X115022285Y-115914095D01*
X116212761Y-115628380D02*
X116308000Y-115628380D01*
X116403238Y-115676000D01*
X116450857Y-115723619D01*
X116498476Y-115818857D01*
X116546095Y-116009333D01*
X116546095Y-116247428D01*
X116498476Y-116437904D01*
X116450857Y-116533142D01*
X116403238Y-116580761D01*
X116308000Y-116628380D01*
X116212761Y-116628380D01*
X116117523Y-116580761D01*
X116069904Y-116533142D01*
X116022285Y-116437904D01*
X115974666Y-116247428D01*
X115974666Y-116009333D01*
X116022285Y-115818857D01*
X116069904Y-115723619D01*
X116117523Y-115676000D01*
X116212761Y-115628380D01*
X91900476Y-108247380D02*
X91900476Y-108961666D01*
X91852857Y-109104523D01*
X91757619Y-109199761D01*
X91614761Y-109247380D01*
X91519523Y-109247380D01*
X92329047Y-108342619D02*
X92376666Y-108295000D01*
X92471904Y-108247380D01*
X92710000Y-108247380D01*
X92805238Y-108295000D01*
X92852857Y-108342619D01*
X92900476Y-108437857D01*
X92900476Y-108533095D01*
X92852857Y-108675952D01*
X92281428Y-109247380D01*
X92900476Y-109247380D01*
X93281428Y-108342619D02*
X93329047Y-108295000D01*
X93424285Y-108247380D01*
X93662380Y-108247380D01*
X93757619Y-108295000D01*
X93805238Y-108342619D01*
X93852857Y-108437857D01*
X93852857Y-108533095D01*
X93805238Y-108675952D01*
X93233809Y-109247380D01*
X93852857Y-109247380D01*
X118570476Y-99147380D02*
X118570476Y-99861666D01*
X118522857Y-100004523D01*
X118427619Y-100099761D01*
X118284761Y-100147380D01*
X118189523Y-100147380D01*
X119522857Y-99147380D02*
X119046666Y-99147380D01*
X118999047Y-99623571D01*
X119046666Y-99575952D01*
X119141904Y-99528333D01*
X119380000Y-99528333D01*
X119475238Y-99575952D01*
X119522857Y-99623571D01*
X119570476Y-99718809D01*
X119570476Y-99956904D01*
X119522857Y-100052142D01*
X119475238Y-100099761D01*
X119380000Y-100147380D01*
X119141904Y-100147380D01*
X119046666Y-100099761D01*
X118999047Y-100052142D01*
X120522857Y-100147380D02*
X119951428Y-100147380D01*
X120237142Y-100147380D02*
X120237142Y-99147380D01*
X120141904Y-99290238D01*
X120046666Y-99385476D01*
X119951428Y-99433095D01*
X119555714Y-124467380D02*
X119555714Y-123467380D01*
X119936666Y-123467380D01*
X120031904Y-123515000D01*
X120079523Y-123562619D01*
X120127142Y-123657857D01*
X120127142Y-123800714D01*
X120079523Y-123895952D01*
X120031904Y-123943571D01*
X119936666Y-123991190D01*
X119555714Y-123991190D01*
X120508095Y-124419761D02*
X120650952Y-124467380D01*
X120889047Y-124467380D01*
X120984285Y-124419761D01*
X121031904Y-124372142D01*
X121079523Y-124276904D01*
X121079523Y-124181666D01*
X121031904Y-124086428D01*
X120984285Y-124038809D01*
X120889047Y-123991190D01*
X120698571Y-123943571D01*
X120603333Y-123895952D01*
X120555714Y-123848333D01*
X120508095Y-123753095D01*
X120508095Y-123657857D01*
X120555714Y-123562619D01*
X120603333Y-123515000D01*
X120698571Y-123467380D01*
X120936666Y-123467380D01*
X121079523Y-123515000D01*
X121984285Y-123467380D02*
X121508095Y-123467380D01*
X121460476Y-123943571D01*
X121508095Y-123895952D01*
X121603333Y-123848333D01*
X121841428Y-123848333D01*
X121936666Y-123895952D01*
X121984285Y-123943571D01*
X122031904Y-124038809D01*
X122031904Y-124276904D01*
X121984285Y-124372142D01*
X121936666Y-124419761D01*
X121841428Y-124467380D01*
X121603333Y-124467380D01*
X121508095Y-124419761D01*
X121460476Y-124372142D01*
X112387142Y-96242142D02*
X112339523Y-96289761D01*
X112196666Y-96337380D01*
X112101428Y-96337380D01*
X111958571Y-96289761D01*
X111863333Y-96194523D01*
X111815714Y-96099285D01*
X111768095Y-95908809D01*
X111768095Y-95765952D01*
X111815714Y-95575476D01*
X111863333Y-95480238D01*
X111958571Y-95385000D01*
X112101428Y-95337380D01*
X112196666Y-95337380D01*
X112339523Y-95385000D01*
X112387142Y-95432619D01*
X113291904Y-95337380D02*
X112815714Y-95337380D01*
X112768095Y-95813571D01*
X112815714Y-95765952D01*
X112910952Y-95718333D01*
X113149047Y-95718333D01*
X113244285Y-95765952D01*
X113291904Y-95813571D01*
X113339523Y-95908809D01*
X113339523Y-96146904D01*
X113291904Y-96242142D01*
X113244285Y-96289761D01*
X113149047Y-96337380D01*
X112910952Y-96337380D01*
X112815714Y-96289761D01*
X112768095Y-96242142D01*
X113815714Y-96337380D02*
X114006190Y-96337380D01*
X114101428Y-96289761D01*
X114149047Y-96242142D01*
X114244285Y-96099285D01*
X114291904Y-95908809D01*
X114291904Y-95527857D01*
X114244285Y-95432619D01*
X114196666Y-95385000D01*
X114101428Y-95337380D01*
X113910952Y-95337380D01*
X113815714Y-95385000D01*
X113768095Y-95432619D01*
X113720476Y-95527857D01*
X113720476Y-95765952D01*
X113768095Y-95861190D01*
X113815714Y-95908809D01*
X113910952Y-95956428D01*
X114101428Y-95956428D01*
X114196666Y-95908809D01*
X114244285Y-95861190D01*
X114291904Y-95765952D01*
X109847142Y-90527142D02*
X109799523Y-90574761D01*
X109656666Y-90622380D01*
X109561428Y-90622380D01*
X109418571Y-90574761D01*
X109323333Y-90479523D01*
X109275714Y-90384285D01*
X109228095Y-90193809D01*
X109228095Y-90050952D01*
X109275714Y-89860476D01*
X109323333Y-89765238D01*
X109418571Y-89670000D01*
X109561428Y-89622380D01*
X109656666Y-89622380D01*
X109799523Y-89670000D01*
X109847142Y-89717619D01*
X110751904Y-89622380D02*
X110275714Y-89622380D01*
X110228095Y-90098571D01*
X110275714Y-90050952D01*
X110370952Y-90003333D01*
X110609047Y-90003333D01*
X110704285Y-90050952D01*
X110751904Y-90098571D01*
X110799523Y-90193809D01*
X110799523Y-90431904D01*
X110751904Y-90527142D01*
X110704285Y-90574761D01*
X110609047Y-90622380D01*
X110370952Y-90622380D01*
X110275714Y-90574761D01*
X110228095Y-90527142D01*
X111370952Y-90050952D02*
X111275714Y-90003333D01*
X111228095Y-89955714D01*
X111180476Y-89860476D01*
X111180476Y-89812857D01*
X111228095Y-89717619D01*
X111275714Y-89670000D01*
X111370952Y-89622380D01*
X111561428Y-89622380D01*
X111656666Y-89670000D01*
X111704285Y-89717619D01*
X111751904Y-89812857D01*
X111751904Y-89860476D01*
X111704285Y-89955714D01*
X111656666Y-90003333D01*
X111561428Y-90050952D01*
X111370952Y-90050952D01*
X111275714Y-90098571D01*
X111228095Y-90146190D01*
X111180476Y-90241428D01*
X111180476Y-90431904D01*
X111228095Y-90527142D01*
X111275714Y-90574761D01*
X111370952Y-90622380D01*
X111561428Y-90622380D01*
X111656666Y-90574761D01*
X111704285Y-90527142D01*
X111751904Y-90431904D01*
X111751904Y-90241428D01*
X111704285Y-90146190D01*
X111656666Y-90098571D01*
X111561428Y-90050952D01*
X107307142Y-96242142D02*
X107259523Y-96289761D01*
X107116666Y-96337380D01*
X107021428Y-96337380D01*
X106878571Y-96289761D01*
X106783333Y-96194523D01*
X106735714Y-96099285D01*
X106688095Y-95908809D01*
X106688095Y-95765952D01*
X106735714Y-95575476D01*
X106783333Y-95480238D01*
X106878571Y-95385000D01*
X107021428Y-95337380D01*
X107116666Y-95337380D01*
X107259523Y-95385000D01*
X107307142Y-95432619D01*
X108211904Y-95337380D02*
X107735714Y-95337380D01*
X107688095Y-95813571D01*
X107735714Y-95765952D01*
X107830952Y-95718333D01*
X108069047Y-95718333D01*
X108164285Y-95765952D01*
X108211904Y-95813571D01*
X108259523Y-95908809D01*
X108259523Y-96146904D01*
X108211904Y-96242142D01*
X108164285Y-96289761D01*
X108069047Y-96337380D01*
X107830952Y-96337380D01*
X107735714Y-96289761D01*
X107688095Y-96242142D01*
X108592857Y-95337380D02*
X109259523Y-95337380D01*
X108830952Y-96337380D01*
X116598571Y-85447142D02*
X116550952Y-85494761D01*
X116408095Y-85542380D01*
X116312857Y-85542380D01*
X116170000Y-85494761D01*
X116074761Y-85399523D01*
X116027142Y-85304285D01*
X115979523Y-85113809D01*
X115979523Y-84970952D01*
X116027142Y-84780476D01*
X116074761Y-84685238D01*
X116170000Y-84590000D01*
X116312857Y-84542380D01*
X116408095Y-84542380D01*
X116550952Y-84590000D01*
X116598571Y-84637619D01*
X117360476Y-85018571D02*
X117027142Y-85018571D01*
X117027142Y-85542380D02*
X117027142Y-84542380D01*
X117503333Y-84542380D01*
X118408095Y-85542380D02*
X117836666Y-85542380D01*
X118122380Y-85542380D02*
X118122380Y-84542380D01*
X118027142Y-84685238D01*
X117931904Y-84780476D01*
X117836666Y-84828095D01*
X118836666Y-85542380D02*
X118836666Y-84542380D01*
X119217619Y-84542380D01*
X119312857Y-84590000D01*
X119360476Y-84637619D01*
X119408095Y-84732857D01*
X119408095Y-84875714D01*
X119360476Y-84970952D01*
X119312857Y-85018571D01*
X119217619Y-85066190D01*
X118836666Y-85066190D01*
X120360476Y-85542380D02*
X119789047Y-85542380D01*
X120074761Y-85542380D02*
X120074761Y-84542380D01*
X119979523Y-84685238D01*
X119884285Y-84780476D01*
X119789047Y-84828095D01*
X116527142Y-81637142D02*
X116479523Y-81684761D01*
X116336666Y-81732380D01*
X116241428Y-81732380D01*
X116098571Y-81684761D01*
X116003333Y-81589523D01*
X115955714Y-81494285D01*
X115908095Y-81303809D01*
X115908095Y-81160952D01*
X115955714Y-80970476D01*
X116003333Y-80875238D01*
X116098571Y-80780000D01*
X116241428Y-80732380D01*
X116336666Y-80732380D01*
X116479523Y-80780000D01*
X116527142Y-80827619D01*
X117289047Y-81208571D02*
X116955714Y-81208571D01*
X116955714Y-81732380D02*
X116955714Y-80732380D01*
X117431904Y-80732380D01*
X118336666Y-81732380D02*
X117765238Y-81732380D01*
X118050952Y-81732380D02*
X118050952Y-80732380D01*
X117955714Y-80875238D01*
X117860476Y-80970476D01*
X117765238Y-81018095D01*
X118765238Y-81732380D02*
X118765238Y-80732380D01*
X119098571Y-81446666D01*
X119431904Y-80732380D01*
X119431904Y-81732380D01*
X120431904Y-81732380D02*
X119860476Y-81732380D01*
X120146190Y-81732380D02*
X120146190Y-80732380D01*
X120050952Y-80875238D01*
X119955714Y-80970476D01*
X119860476Y-81018095D01*
X77978095Y-125817380D02*
X77978095Y-126626904D01*
X78025714Y-126722142D01*
X78073333Y-126769761D01*
X78168571Y-126817380D01*
X78359047Y-126817380D01*
X78454285Y-126769761D01*
X78501904Y-126722142D01*
X78549523Y-126626904D01*
X78549523Y-125817380D01*
X78978095Y-125912619D02*
X79025714Y-125865000D01*
X79120952Y-125817380D01*
X79359047Y-125817380D01*
X79454285Y-125865000D01*
X79501904Y-125912619D01*
X79549523Y-126007857D01*
X79549523Y-126103095D01*
X79501904Y-126245952D01*
X78930476Y-126817380D01*
X79549523Y-126817380D01*
X85677619Y-97726428D02*
X85630000Y-97821666D01*
X85534761Y-97916904D01*
X85391904Y-98059761D01*
X85344285Y-98155000D01*
X85344285Y-98250238D01*
X85582380Y-98202619D02*
X85534761Y-98297857D01*
X85439523Y-98393095D01*
X85249047Y-98440714D01*
X84915714Y-98440714D01*
X84725238Y-98393095D01*
X84630000Y-98297857D01*
X84582380Y-98202619D01*
X84582380Y-98012142D01*
X84630000Y-97916904D01*
X84725238Y-97821666D01*
X84915714Y-97774047D01*
X85249047Y-97774047D01*
X85439523Y-97821666D01*
X85534761Y-97916904D01*
X85582380Y-98012142D01*
X85582380Y-98202619D01*
X85582380Y-96821666D02*
X85582380Y-97393095D01*
X85582380Y-97107380D02*
X84582380Y-97107380D01*
X84725238Y-97202619D01*
X84820476Y-97297857D01*
X84868095Y-97393095D01*
X84677619Y-96440714D02*
X84630000Y-96393095D01*
X84582380Y-96297857D01*
X84582380Y-96059761D01*
X84630000Y-95964523D01*
X84677619Y-95916904D01*
X84772857Y-95869285D01*
X84868095Y-95869285D01*
X85010952Y-95916904D01*
X85582380Y-96488333D01*
X85582380Y-95869285D01*
X96940952Y-138120380D02*
X96607619Y-137644190D01*
X96369523Y-138120380D02*
X96369523Y-137120380D01*
X96750476Y-137120380D01*
X96845714Y-137168000D01*
X96893333Y-137215619D01*
X96940952Y-137310857D01*
X96940952Y-137453714D01*
X96893333Y-137548952D01*
X96845714Y-137596571D01*
X96750476Y-137644190D01*
X96369523Y-137644190D01*
X97369523Y-138120380D02*
X97369523Y-137120380D01*
X97607619Y-137120380D01*
X97750476Y-137168000D01*
X97845714Y-137263238D01*
X97893333Y-137358476D01*
X97940952Y-137548952D01*
X97940952Y-137691809D01*
X97893333Y-137882285D01*
X97845714Y-137977523D01*
X97750476Y-138072761D01*
X97607619Y-138120380D01*
X97369523Y-138120380D01*
X98798095Y-137453714D02*
X98798095Y-138120380D01*
X98560000Y-137072761D02*
X98321904Y-137787047D01*
X98940952Y-137787047D01*
X99226666Y-137120380D02*
X99845714Y-137120380D01*
X99512380Y-137501333D01*
X99655238Y-137501333D01*
X99750476Y-137548952D01*
X99798095Y-137596571D01*
X99845714Y-137691809D01*
X99845714Y-137929904D01*
X99798095Y-138025142D01*
X99750476Y-138072761D01*
X99655238Y-138120380D01*
X99369523Y-138120380D01*
X99274285Y-138072761D01*
X99226666Y-138025142D01*
X100607619Y-137596571D02*
X100750476Y-137644190D01*
X100798095Y-137691809D01*
X100845714Y-137787047D01*
X100845714Y-137929904D01*
X100798095Y-138025142D01*
X100750476Y-138072761D01*
X100655238Y-138120380D01*
X100274285Y-138120380D01*
X100274285Y-137120380D01*
X100607619Y-137120380D01*
X100702857Y-137168000D01*
X100750476Y-137215619D01*
X100798095Y-137310857D01*
X100798095Y-137406095D01*
X100750476Y-137501333D01*
X100702857Y-137548952D01*
X100607619Y-137596571D01*
X100274285Y-137596571D01*
X101798095Y-138120380D02*
X101226666Y-138120380D01*
X101512380Y-138120380D02*
X101512380Y-137120380D01*
X101417142Y-137263238D01*
X101321904Y-137358476D01*
X101226666Y-137406095D01*
X107680380Y-137104380D02*
X107347047Y-136628190D01*
X107108952Y-137104380D02*
X107108952Y-136104380D01*
X107489904Y-136104380D01*
X107585142Y-136152000D01*
X107632761Y-136199619D01*
X107680380Y-136294857D01*
X107680380Y-136437714D01*
X107632761Y-136532952D01*
X107585142Y-136580571D01*
X107489904Y-136628190D01*
X107108952Y-136628190D01*
X108108952Y-137104380D02*
X108108952Y-136104380D01*
X108347047Y-136104380D01*
X108489904Y-136152000D01*
X108585142Y-136247238D01*
X108632761Y-136342476D01*
X108680380Y-136532952D01*
X108680380Y-136675809D01*
X108632761Y-136866285D01*
X108585142Y-136961523D01*
X108489904Y-137056761D01*
X108347047Y-137104380D01*
X108108952Y-137104380D01*
X109537523Y-136437714D02*
X109537523Y-137104380D01*
X109299428Y-136056761D02*
X109061333Y-136771047D01*
X109680380Y-136771047D01*
X109966095Y-136104380D02*
X110585142Y-136104380D01*
X110251809Y-136485333D01*
X110394666Y-136485333D01*
X110489904Y-136532952D01*
X110537523Y-136580571D01*
X110585142Y-136675809D01*
X110585142Y-136913904D01*
X110537523Y-137009142D01*
X110489904Y-137056761D01*
X110394666Y-137104380D01*
X110108952Y-137104380D01*
X110013714Y-137056761D01*
X109966095Y-137009142D01*
X110966095Y-136818666D02*
X111442285Y-136818666D01*
X110870857Y-137104380D02*
X111204190Y-136104380D01*
X111537523Y-137104380D01*
X112394666Y-137104380D02*
X111823238Y-137104380D01*
X112108952Y-137104380D02*
X112108952Y-136104380D01*
X112013714Y-136247238D01*
X111918476Y-136342476D01*
X111823238Y-136390095D01*
X93417380Y-130389047D02*
X92941190Y-130722380D01*
X93417380Y-130960476D02*
X92417380Y-130960476D01*
X92417380Y-130579523D01*
X92465000Y-130484285D01*
X92512619Y-130436666D01*
X92607857Y-130389047D01*
X92750714Y-130389047D01*
X92845952Y-130436666D01*
X92893571Y-130484285D01*
X92941190Y-130579523D01*
X92941190Y-130960476D01*
X93417380Y-129960476D02*
X92417380Y-129960476D01*
X92417380Y-129722380D01*
X92465000Y-129579523D01*
X92560238Y-129484285D01*
X92655476Y-129436666D01*
X92845952Y-129389047D01*
X92988809Y-129389047D01*
X93179285Y-129436666D01*
X93274523Y-129484285D01*
X93369761Y-129579523D01*
X93417380Y-129722380D01*
X93417380Y-129960476D01*
X92750714Y-128531904D02*
X93417380Y-128531904D01*
X92369761Y-128770000D02*
X93084047Y-129008095D01*
X93084047Y-128389047D01*
X92512619Y-128055714D02*
X92465000Y-128008095D01*
X92417380Y-127912857D01*
X92417380Y-127674761D01*
X92465000Y-127579523D01*
X92512619Y-127531904D01*
X92607857Y-127484285D01*
X92703095Y-127484285D01*
X92845952Y-127531904D01*
X93417380Y-128103333D01*
X93417380Y-127484285D01*
X92893571Y-126722380D02*
X92941190Y-126579523D01*
X92988809Y-126531904D01*
X93084047Y-126484285D01*
X93226904Y-126484285D01*
X93322142Y-126531904D01*
X93369761Y-126579523D01*
X93417380Y-126674761D01*
X93417380Y-127055714D01*
X92417380Y-127055714D01*
X92417380Y-126722380D01*
X92465000Y-126627142D01*
X92512619Y-126579523D01*
X92607857Y-126531904D01*
X92703095Y-126531904D01*
X92798333Y-126579523D01*
X92845952Y-126627142D01*
X92893571Y-126722380D01*
X92893571Y-127055714D01*
X93417380Y-125531904D02*
X93417380Y-126103333D01*
X93417380Y-125817619D02*
X92417380Y-125817619D01*
X92560238Y-125912857D01*
X92655476Y-126008095D01*
X92703095Y-126103333D01*
X112847380Y-134127619D02*
X112371190Y-134460952D01*
X112847380Y-134699047D02*
X111847380Y-134699047D01*
X111847380Y-134318095D01*
X111895000Y-134222857D01*
X111942619Y-134175238D01*
X112037857Y-134127619D01*
X112180714Y-134127619D01*
X112275952Y-134175238D01*
X112323571Y-134222857D01*
X112371190Y-134318095D01*
X112371190Y-134699047D01*
X112847380Y-133699047D02*
X111847380Y-133699047D01*
X111847380Y-133460952D01*
X111895000Y-133318095D01*
X111990238Y-133222857D01*
X112085476Y-133175238D01*
X112275952Y-133127619D01*
X112418809Y-133127619D01*
X112609285Y-133175238D01*
X112704523Y-133222857D01*
X112799761Y-133318095D01*
X112847380Y-133460952D01*
X112847380Y-133699047D01*
X112180714Y-132270476D02*
X112847380Y-132270476D01*
X111799761Y-132508571D02*
X112514047Y-132746666D01*
X112514047Y-132127619D01*
X111942619Y-131794285D02*
X111895000Y-131746666D01*
X111847380Y-131651428D01*
X111847380Y-131413333D01*
X111895000Y-131318095D01*
X111942619Y-131270476D01*
X112037857Y-131222857D01*
X112133095Y-131222857D01*
X112275952Y-131270476D01*
X112847380Y-131841904D01*
X112847380Y-131222857D01*
X112561666Y-130841904D02*
X112561666Y-130365714D01*
X112847380Y-130937142D02*
X111847380Y-130603809D01*
X112847380Y-130270476D01*
X112847380Y-129413333D02*
X112847380Y-129984761D01*
X112847380Y-129699047D02*
X111847380Y-129699047D01*
X111990238Y-129794285D01*
X112085476Y-129889523D01*
X112133095Y-129984761D01*
X95670952Y-127452380D02*
X95337619Y-126976190D01*
X95099523Y-127452380D02*
X95099523Y-126452380D01*
X95480476Y-126452380D01*
X95575714Y-126500000D01*
X95623333Y-126547619D01*
X95670952Y-126642857D01*
X95670952Y-126785714D01*
X95623333Y-126880952D01*
X95575714Y-126928571D01*
X95480476Y-126976190D01*
X95099523Y-126976190D01*
X96099523Y-127452380D02*
X96099523Y-126452380D01*
X96337619Y-126452380D01*
X96480476Y-126500000D01*
X96575714Y-126595238D01*
X96623333Y-126690476D01*
X96670952Y-126880952D01*
X96670952Y-127023809D01*
X96623333Y-127214285D01*
X96575714Y-127309523D01*
X96480476Y-127404761D01*
X96337619Y-127452380D01*
X96099523Y-127452380D01*
X97528095Y-126785714D02*
X97528095Y-127452380D01*
X97290000Y-126404761D02*
X97051904Y-127119047D01*
X97670952Y-127119047D01*
X98575714Y-127452380D02*
X98004285Y-127452380D01*
X98290000Y-127452380D02*
X98290000Y-126452380D01*
X98194761Y-126595238D01*
X98099523Y-126690476D01*
X98004285Y-126738095D01*
X99337619Y-126928571D02*
X99480476Y-126976190D01*
X99528095Y-127023809D01*
X99575714Y-127119047D01*
X99575714Y-127261904D01*
X99528095Y-127357142D01*
X99480476Y-127404761D01*
X99385238Y-127452380D01*
X99004285Y-127452380D01*
X99004285Y-126452380D01*
X99337619Y-126452380D01*
X99432857Y-126500000D01*
X99480476Y-126547619D01*
X99528095Y-126642857D01*
X99528095Y-126738095D01*
X99480476Y-126833333D01*
X99432857Y-126880952D01*
X99337619Y-126928571D01*
X99004285Y-126928571D01*
X100528095Y-127452380D02*
X99956666Y-127452380D01*
X100242380Y-127452380D02*
X100242380Y-126452380D01*
X100147142Y-126595238D01*
X100051904Y-126690476D01*
X99956666Y-126738095D01*
X107553380Y-128596380D02*
X107220047Y-128120190D01*
X106981952Y-128596380D02*
X106981952Y-127596380D01*
X107362904Y-127596380D01*
X107458142Y-127644000D01*
X107505761Y-127691619D01*
X107553380Y-127786857D01*
X107553380Y-127929714D01*
X107505761Y-128024952D01*
X107458142Y-128072571D01*
X107362904Y-128120190D01*
X106981952Y-128120190D01*
X107981952Y-128596380D02*
X107981952Y-127596380D01*
X108220047Y-127596380D01*
X108362904Y-127644000D01*
X108458142Y-127739238D01*
X108505761Y-127834476D01*
X108553380Y-128024952D01*
X108553380Y-128167809D01*
X108505761Y-128358285D01*
X108458142Y-128453523D01*
X108362904Y-128548761D01*
X108220047Y-128596380D01*
X107981952Y-128596380D01*
X109410523Y-127929714D02*
X109410523Y-128596380D01*
X109172428Y-127548761D02*
X108934333Y-128263047D01*
X109553380Y-128263047D01*
X110458142Y-128596380D02*
X109886714Y-128596380D01*
X110172428Y-128596380D02*
X110172428Y-127596380D01*
X110077190Y-127739238D01*
X109981952Y-127834476D01*
X109886714Y-127882095D01*
X110839095Y-128310666D02*
X111315285Y-128310666D01*
X110743857Y-128596380D02*
X111077190Y-127596380D01*
X111410523Y-128596380D01*
X112267666Y-128596380D02*
X111696238Y-128596380D01*
X111981952Y-128596380D02*
X111981952Y-127596380D01*
X111886714Y-127739238D01*
X111791476Y-127834476D01*
X111696238Y-127882095D01*
X101409571Y-132921619D02*
X101314333Y-132874000D01*
X101219095Y-132778761D01*
X101076238Y-132635904D01*
X100981000Y-132588285D01*
X100885761Y-132588285D01*
X100933380Y-132826380D02*
X100838142Y-132778761D01*
X100742904Y-132683523D01*
X100695285Y-132493047D01*
X100695285Y-132159714D01*
X100742904Y-131969238D01*
X100838142Y-131874000D01*
X100933380Y-131826380D01*
X101123857Y-131826380D01*
X101219095Y-131874000D01*
X101314333Y-131969238D01*
X101361952Y-132159714D01*
X101361952Y-132493047D01*
X101314333Y-132683523D01*
X101219095Y-132778761D01*
X101123857Y-132826380D01*
X100933380Y-132826380D01*
X102219095Y-132159714D02*
X102219095Y-132826380D01*
X101981000Y-131778761D02*
X101742904Y-132493047D01*
X102361952Y-132493047D01*
X102647666Y-131826380D02*
X103266714Y-131826380D01*
X102933380Y-132207333D01*
X103076238Y-132207333D01*
X103171476Y-132254952D01*
X103219095Y-132302571D01*
X103266714Y-132397809D01*
X103266714Y-132635904D01*
X103219095Y-132731142D01*
X103171476Y-132778761D01*
X103076238Y-132826380D01*
X102790523Y-132826380D01*
X102695285Y-132778761D01*
X102647666Y-132731142D01*
X96432619Y-132016428D02*
X96385000Y-132111666D01*
X96289761Y-132206904D01*
X96146904Y-132349761D01*
X96099285Y-132445000D01*
X96099285Y-132540238D01*
X96337380Y-132492619D02*
X96289761Y-132587857D01*
X96194523Y-132683095D01*
X96004047Y-132730714D01*
X95670714Y-132730714D01*
X95480238Y-132683095D01*
X95385000Y-132587857D01*
X95337380Y-132492619D01*
X95337380Y-132302142D01*
X95385000Y-132206904D01*
X95480238Y-132111666D01*
X95670714Y-132064047D01*
X96004047Y-132064047D01*
X96194523Y-132111666D01*
X96289761Y-132206904D01*
X96337380Y-132302142D01*
X96337380Y-132492619D01*
X95670714Y-131206904D02*
X96337380Y-131206904D01*
X95289761Y-131445000D02*
X96004047Y-131683095D01*
X96004047Y-131064047D01*
X95432619Y-130730714D02*
X95385000Y-130683095D01*
X95337380Y-130587857D01*
X95337380Y-130349761D01*
X95385000Y-130254523D01*
X95432619Y-130206904D01*
X95527857Y-130159285D01*
X95623095Y-130159285D01*
X95765952Y-130206904D01*
X96337380Y-130778333D01*
X96337380Y-130159285D01*
X101409571Y-127841619D02*
X101314333Y-127794000D01*
X101219095Y-127698761D01*
X101076238Y-127555904D01*
X100981000Y-127508285D01*
X100885761Y-127508285D01*
X100933380Y-127746380D02*
X100838142Y-127698761D01*
X100742904Y-127603523D01*
X100695285Y-127413047D01*
X100695285Y-127079714D01*
X100742904Y-126889238D01*
X100838142Y-126794000D01*
X100933380Y-126746380D01*
X101123857Y-126746380D01*
X101219095Y-126794000D01*
X101314333Y-126889238D01*
X101361952Y-127079714D01*
X101361952Y-127413047D01*
X101314333Y-127603523D01*
X101219095Y-127698761D01*
X101123857Y-127746380D01*
X100933380Y-127746380D01*
X102219095Y-127079714D02*
X102219095Y-127746380D01*
X101981000Y-126698761D02*
X101742904Y-127413047D01*
X102361952Y-127413047D01*
X103266714Y-127746380D02*
X102695285Y-127746380D01*
X102981000Y-127746380D02*
X102981000Y-126746380D01*
X102885761Y-126889238D01*
X102790523Y-126984476D01*
X102695285Y-127032095D01*
X104195714Y-136342380D02*
X104195714Y-135342380D01*
X104433809Y-135342380D01*
X104576666Y-135390000D01*
X104671904Y-135485238D01*
X104719523Y-135580476D01*
X104767142Y-135770952D01*
X104767142Y-135913809D01*
X104719523Y-136104285D01*
X104671904Y-136199523D01*
X104576666Y-136294761D01*
X104433809Y-136342380D01*
X104195714Y-136342380D01*
X105624285Y-135675714D02*
X105624285Y-136342380D01*
X105386190Y-135294761D02*
X105148095Y-136009047D01*
X105767142Y-136009047D01*
X106052857Y-135342380D02*
X106671904Y-135342380D01*
X106338571Y-135723333D01*
X106481428Y-135723333D01*
X106576666Y-135770952D01*
X106624285Y-135818571D01*
X106671904Y-135913809D01*
X106671904Y-136151904D01*
X106624285Y-136247142D01*
X106576666Y-136294761D01*
X106481428Y-136342380D01*
X106195714Y-136342380D01*
X106100476Y-136294761D01*
X106052857Y-136247142D01*
X108402380Y-133294285D02*
X107402380Y-133294285D01*
X107402380Y-133056190D01*
X107450000Y-132913333D01*
X107545238Y-132818095D01*
X107640476Y-132770476D01*
X107830952Y-132722857D01*
X107973809Y-132722857D01*
X108164285Y-132770476D01*
X108259523Y-132818095D01*
X108354761Y-132913333D01*
X108402380Y-133056190D01*
X108402380Y-133294285D01*
X107735714Y-131865714D02*
X108402380Y-131865714D01*
X107354761Y-132103809D02*
X108069047Y-132341904D01*
X108069047Y-131722857D01*
X107497619Y-131389523D02*
X107450000Y-131341904D01*
X107402380Y-131246666D01*
X107402380Y-131008571D01*
X107450000Y-130913333D01*
X107497619Y-130865714D01*
X107592857Y-130818095D01*
X107688095Y-130818095D01*
X107830952Y-130865714D01*
X108402380Y-131437142D01*
X108402380Y-130818095D01*
X104576714Y-129451380D02*
X104576714Y-128451380D01*
X104814809Y-128451380D01*
X104957666Y-128499000D01*
X105052904Y-128594238D01*
X105100523Y-128689476D01*
X105148142Y-128879952D01*
X105148142Y-129022809D01*
X105100523Y-129213285D01*
X105052904Y-129308523D01*
X104957666Y-129403761D01*
X104814809Y-129451380D01*
X104576714Y-129451380D01*
X106005285Y-128784714D02*
X106005285Y-129451380D01*
X105767190Y-128403761D02*
X105529095Y-129118047D01*
X106148142Y-129118047D01*
X107052904Y-129451380D02*
X106481476Y-129451380D01*
X106767190Y-129451380D02*
X106767190Y-128451380D01*
X106671952Y-128594238D01*
X106576714Y-128689476D01*
X106481476Y-128737095D01*
X79422380Y-91614523D02*
X80136666Y-91614523D01*
X80279523Y-91662142D01*
X80374761Y-91757380D01*
X80422380Y-91900238D01*
X80422380Y-91995476D01*
X80422380Y-90614523D02*
X80422380Y-91185952D01*
X80422380Y-90900238D02*
X79422380Y-90900238D01*
X79565238Y-90995476D01*
X79660476Y-91090714D01*
X79708095Y-91185952D01*
X79517619Y-90233571D02*
X79470000Y-90185952D01*
X79422380Y-90090714D01*
X79422380Y-89852619D01*
X79470000Y-89757380D01*
X79517619Y-89709761D01*
X79612857Y-89662142D01*
X79708095Y-89662142D01*
X79850952Y-89709761D01*
X80422380Y-90281190D01*
X80422380Y-89662142D01*
X156012380Y-144573333D02*
X155536190Y-144906666D01*
X156012380Y-145144761D02*
X155012380Y-145144761D01*
X155012380Y-144763809D01*
X155060000Y-144668571D01*
X155107619Y-144620952D01*
X155202857Y-144573333D01*
X155345714Y-144573333D01*
X155440952Y-144620952D01*
X155488571Y-144668571D01*
X155536190Y-144763809D01*
X155536190Y-145144761D01*
X155012380Y-144240000D02*
X155012380Y-143620952D01*
X155393333Y-143954285D01*
X155393333Y-143811428D01*
X155440952Y-143716190D01*
X155488571Y-143668571D01*
X155583809Y-143620952D01*
X155821904Y-143620952D01*
X155917142Y-143668571D01*
X155964761Y-143716190D01*
X156012380Y-143811428D01*
X156012380Y-144097142D01*
X155964761Y-144192380D01*
X155917142Y-144240000D01*
X156107619Y-143430476D02*
X156107619Y-142668571D01*
X155488571Y-142430476D02*
X155488571Y-142097142D01*
X156012380Y-141954285D02*
X156012380Y-142430476D01*
X155012380Y-142430476D01*
X155012380Y-141954285D01*
X155012380Y-141620952D02*
X156012380Y-140954285D01*
X155012380Y-140954285D02*
X156012380Y-141620952D01*
X155012380Y-140716190D02*
X155012380Y-140144761D01*
X156012380Y-140430476D02*
X155012380Y-140430476D01*
X156012380Y-139287619D02*
X156012380Y-139859047D01*
X156012380Y-139573333D02*
X155012380Y-139573333D01*
X155155238Y-139668571D01*
X155250476Y-139763809D01*
X155298095Y-139859047D01*
X183340476Y-111212380D02*
X183340476Y-111926666D01*
X183292857Y-112069523D01*
X183197619Y-112164761D01*
X183054761Y-112212380D01*
X182959523Y-112212380D01*
X183721428Y-111212380D02*
X184340476Y-111212380D01*
X184007142Y-111593333D01*
X184150000Y-111593333D01*
X184245238Y-111640952D01*
X184292857Y-111688571D01*
X184340476Y-111783809D01*
X184340476Y-112021904D01*
X184292857Y-112117142D01*
X184245238Y-112164761D01*
X184150000Y-112212380D01*
X183864285Y-112212380D01*
X183769047Y-112164761D01*
X183721428Y-112117142D01*
X185292857Y-112212380D02*
X184721428Y-112212380D01*
X185007142Y-112212380D02*
X185007142Y-111212380D01*
X184911904Y-111355238D01*
X184816666Y-111450476D01*
X184721428Y-111498095D01*
X183340476Y-88352380D02*
X183340476Y-89066666D01*
X183292857Y-89209523D01*
X183197619Y-89304761D01*
X183054761Y-89352380D01*
X182959523Y-89352380D01*
X183721428Y-88352380D02*
X184340476Y-88352380D01*
X184007142Y-88733333D01*
X184150000Y-88733333D01*
X184245238Y-88780952D01*
X184292857Y-88828571D01*
X184340476Y-88923809D01*
X184340476Y-89161904D01*
X184292857Y-89257142D01*
X184245238Y-89304761D01*
X184150000Y-89352380D01*
X183864285Y-89352380D01*
X183769047Y-89304761D01*
X183721428Y-89257142D01*
X184673809Y-88352380D02*
X185292857Y-88352380D01*
X184959523Y-88733333D01*
X185102380Y-88733333D01*
X185197619Y-88780952D01*
X185245238Y-88828571D01*
X185292857Y-88923809D01*
X185292857Y-89161904D01*
X185245238Y-89257142D01*
X185197619Y-89304761D01*
X185102380Y-89352380D01*
X184816666Y-89352380D01*
X184721428Y-89304761D01*
X184673809Y-89257142D01*
X143782380Y-130778095D02*
X144591904Y-130778095D01*
X144687142Y-130730476D01*
X144734761Y-130682857D01*
X144782380Y-130587619D01*
X144782380Y-130397142D01*
X144734761Y-130301904D01*
X144687142Y-130254285D01*
X144591904Y-130206666D01*
X143782380Y-130206666D01*
X144115714Y-129301904D02*
X144782380Y-129301904D01*
X143734761Y-129540000D02*
X144449047Y-129778095D01*
X144449047Y-129159047D01*
X143782380Y-128873333D02*
X143782380Y-128254285D01*
X144163333Y-128587619D01*
X144163333Y-128444761D01*
X144210952Y-128349523D01*
X144258571Y-128301904D01*
X144353809Y-128254285D01*
X144591904Y-128254285D01*
X144687142Y-128301904D01*
X144734761Y-128349523D01*
X144782380Y-128444761D01*
X144782380Y-128730476D01*
X144734761Y-128825714D01*
X144687142Y-128873333D01*
X160927380Y-130778095D02*
X161736904Y-130778095D01*
X161832142Y-130730476D01*
X161879761Y-130682857D01*
X161927380Y-130587619D01*
X161927380Y-130397142D01*
X161879761Y-130301904D01*
X161832142Y-130254285D01*
X161736904Y-130206666D01*
X160927380Y-130206666D01*
X161260714Y-129301904D02*
X161927380Y-129301904D01*
X160879761Y-129540000D02*
X161594047Y-129778095D01*
X161594047Y-129159047D01*
X161022619Y-128825714D02*
X160975000Y-128778095D01*
X160927380Y-128682857D01*
X160927380Y-128444761D01*
X160975000Y-128349523D01*
X161022619Y-128301904D01*
X161117857Y-128254285D01*
X161213095Y-128254285D01*
X161355952Y-128301904D01*
X161927380Y-128873333D01*
X161927380Y-128254285D01*
X72117380Y-100933095D02*
X72926904Y-100933095D01*
X73022142Y-100885476D01*
X73069761Y-100837857D01*
X73117380Y-100742619D01*
X73117380Y-100552142D01*
X73069761Y-100456904D01*
X73022142Y-100409285D01*
X72926904Y-100361666D01*
X72117380Y-100361666D01*
X73117380Y-99361666D02*
X73117380Y-99933095D01*
X73117380Y-99647380D02*
X72117380Y-99647380D01*
X72260238Y-99742619D01*
X72355476Y-99837857D01*
X72403095Y-99933095D01*
X73117380Y-98409285D02*
X73117380Y-98980714D01*
X73117380Y-98695000D02*
X72117380Y-98695000D01*
X72260238Y-98790238D01*
X72355476Y-98885476D01*
X72403095Y-98980714D01*
X85161380Y-101353857D02*
X84685190Y-101687190D01*
X85161380Y-101925285D02*
X84161380Y-101925285D01*
X84161380Y-101544333D01*
X84209000Y-101449095D01*
X84256619Y-101401476D01*
X84351857Y-101353857D01*
X84494714Y-101353857D01*
X84589952Y-101401476D01*
X84637571Y-101449095D01*
X84685190Y-101544333D01*
X84685190Y-101925285D01*
X85161380Y-100401476D02*
X85161380Y-100972904D01*
X85161380Y-100687190D02*
X84161380Y-100687190D01*
X84304238Y-100782428D01*
X84399476Y-100877666D01*
X84447095Y-100972904D01*
X84256619Y-100020523D02*
X84209000Y-99972904D01*
X84161380Y-99877666D01*
X84161380Y-99639571D01*
X84209000Y-99544333D01*
X84256619Y-99496714D01*
X84351857Y-99449095D01*
X84447095Y-99449095D01*
X84589952Y-99496714D01*
X85161380Y-100068142D01*
X85161380Y-99449095D01*
X91384380Y-101480857D02*
X90908190Y-101814190D01*
X91384380Y-102052285D02*
X90384380Y-102052285D01*
X90384380Y-101671333D01*
X90432000Y-101576095D01*
X90479619Y-101528476D01*
X90574857Y-101480857D01*
X90717714Y-101480857D01*
X90812952Y-101528476D01*
X90860571Y-101576095D01*
X90908190Y-101671333D01*
X90908190Y-102052285D01*
X91384380Y-100528476D02*
X91384380Y-101099904D01*
X91384380Y-100814190D02*
X90384380Y-100814190D01*
X90527238Y-100909428D01*
X90622476Y-101004666D01*
X90670095Y-101099904D01*
X91384380Y-99576095D02*
X91384380Y-100147523D01*
X91384380Y-99861809D02*
X90384380Y-99861809D01*
X90527238Y-99957047D01*
X90622476Y-100052285D01*
X90670095Y-100147523D01*
X90677619Y-105346428D02*
X90630000Y-105441666D01*
X90534761Y-105536904D01*
X90391904Y-105679761D01*
X90344285Y-105775000D01*
X90344285Y-105870238D01*
X90582380Y-105822619D02*
X90534761Y-105917857D01*
X90439523Y-106013095D01*
X90249047Y-106060714D01*
X89915714Y-106060714D01*
X89725238Y-106013095D01*
X89630000Y-105917857D01*
X89582380Y-105822619D01*
X89582380Y-105632142D01*
X89630000Y-105536904D01*
X89725238Y-105441666D01*
X89915714Y-105394047D01*
X90249047Y-105394047D01*
X90439523Y-105441666D01*
X90534761Y-105536904D01*
X90582380Y-105632142D01*
X90582380Y-105822619D01*
X90582380Y-104441666D02*
X90582380Y-105013095D01*
X90582380Y-104727380D02*
X89582380Y-104727380D01*
X89725238Y-104822619D01*
X89820476Y-104917857D01*
X89868095Y-105013095D01*
X90582380Y-103489285D02*
X90582380Y-104060714D01*
X90582380Y-103775000D02*
X89582380Y-103775000D01*
X89725238Y-103870238D01*
X89820476Y-103965476D01*
X89868095Y-104060714D01*
X80541904Y-100242380D02*
X80541904Y-99242380D01*
X80780000Y-99242380D01*
X80922857Y-99290000D01*
X81018095Y-99385238D01*
X81065714Y-99480476D01*
X81113333Y-99670952D01*
X81113333Y-99813809D01*
X81065714Y-100004285D01*
X81018095Y-100099523D01*
X80922857Y-100194761D01*
X80780000Y-100242380D01*
X80541904Y-100242380D01*
X82065714Y-100242380D02*
X81494285Y-100242380D01*
X81780000Y-100242380D02*
X81780000Y-99242380D01*
X81684761Y-99385238D01*
X81589523Y-99480476D01*
X81494285Y-99528095D01*
X76082142Y-107957857D02*
X76129761Y-108005476D01*
X76177380Y-108148333D01*
X76177380Y-108243571D01*
X76129761Y-108386428D01*
X76034523Y-108481666D01*
X75939285Y-108529285D01*
X75748809Y-108576904D01*
X75605952Y-108576904D01*
X75415476Y-108529285D01*
X75320238Y-108481666D01*
X75225000Y-108386428D01*
X75177380Y-108243571D01*
X75177380Y-108148333D01*
X75225000Y-108005476D01*
X75272619Y-107957857D01*
X76177380Y-107005476D02*
X76177380Y-107576904D01*
X76177380Y-107291190D02*
X75177380Y-107291190D01*
X75320238Y-107386428D01*
X75415476Y-107481666D01*
X75463095Y-107576904D01*
X75272619Y-106624523D02*
X75225000Y-106576904D01*
X75177380Y-106481666D01*
X75177380Y-106243571D01*
X75225000Y-106148333D01*
X75272619Y-106100714D01*
X75367857Y-106053095D01*
X75463095Y-106053095D01*
X75605952Y-106100714D01*
X76177380Y-106672142D01*
X76177380Y-106053095D01*
X74177142Y-107957857D02*
X74224761Y-108005476D01*
X74272380Y-108148333D01*
X74272380Y-108243571D01*
X74224761Y-108386428D01*
X74129523Y-108481666D01*
X74034285Y-108529285D01*
X73843809Y-108576904D01*
X73700952Y-108576904D01*
X73510476Y-108529285D01*
X73415238Y-108481666D01*
X73320000Y-108386428D01*
X73272380Y-108243571D01*
X73272380Y-108148333D01*
X73320000Y-108005476D01*
X73367619Y-107957857D01*
X74272380Y-107005476D02*
X74272380Y-107576904D01*
X74272380Y-107291190D02*
X73272380Y-107291190D01*
X73415238Y-107386428D01*
X73510476Y-107481666D01*
X73558095Y-107576904D01*
X74272380Y-106053095D02*
X74272380Y-106624523D01*
X74272380Y-106338809D02*
X73272380Y-106338809D01*
X73415238Y-106434047D01*
X73510476Y-106529285D01*
X73558095Y-106624523D01*
X104627142Y-100687142D02*
X104579523Y-100734761D01*
X104436666Y-100782380D01*
X104341428Y-100782380D01*
X104198571Y-100734761D01*
X104103333Y-100639523D01*
X104055714Y-100544285D01*
X104008095Y-100353809D01*
X104008095Y-100210952D01*
X104055714Y-100020476D01*
X104103333Y-99925238D01*
X104198571Y-99830000D01*
X104341428Y-99782380D01*
X104436666Y-99782380D01*
X104579523Y-99830000D01*
X104627142Y-99877619D01*
X105531904Y-99782380D02*
X105055714Y-99782380D01*
X105008095Y-100258571D01*
X105055714Y-100210952D01*
X105150952Y-100163333D01*
X105389047Y-100163333D01*
X105484285Y-100210952D01*
X105531904Y-100258571D01*
X105579523Y-100353809D01*
X105579523Y-100591904D01*
X105531904Y-100687142D01*
X105484285Y-100734761D01*
X105389047Y-100782380D01*
X105150952Y-100782380D01*
X105055714Y-100734761D01*
X105008095Y-100687142D01*
X106436666Y-99782380D02*
X106246190Y-99782380D01*
X106150952Y-99830000D01*
X106103333Y-99877619D01*
X106008095Y-100020476D01*
X105960476Y-100210952D01*
X105960476Y-100591904D01*
X106008095Y-100687142D01*
X106055714Y-100734761D01*
X106150952Y-100782380D01*
X106341428Y-100782380D01*
X106436666Y-100734761D01*
X106484285Y-100687142D01*
X106531904Y-100591904D01*
X106531904Y-100353809D01*
X106484285Y-100258571D01*
X106436666Y-100210952D01*
X106341428Y-100163333D01*
X106150952Y-100163333D01*
X106055714Y-100210952D01*
X106008095Y-100258571D01*
X105960476Y-100353809D01*
X82127380Y-106806904D02*
X82936904Y-106806904D01*
X83032142Y-106759285D01*
X83079761Y-106711666D01*
X83127380Y-106616428D01*
X83127380Y-106425952D01*
X83079761Y-106330714D01*
X83032142Y-106283095D01*
X82936904Y-106235476D01*
X82127380Y-106235476D01*
X83127380Y-105235476D02*
X83127380Y-105806904D01*
X83127380Y-105521190D02*
X82127380Y-105521190D01*
X82270238Y-105616428D01*
X82365476Y-105711666D01*
X82413095Y-105806904D01*
X100361904Y-112334380D02*
X100361904Y-113143904D01*
X100409523Y-113239142D01*
X100457142Y-113286761D01*
X100552380Y-113334380D01*
X100742857Y-113334380D01*
X100838095Y-113286761D01*
X100885714Y-113239142D01*
X100933333Y-113143904D01*
X100933333Y-112334380D01*
X101838095Y-112667714D02*
X101838095Y-113334380D01*
X101600000Y-112286761D02*
X101361904Y-113001047D01*
X101980952Y-113001047D01*
X102885714Y-113334380D02*
X102314285Y-113334380D01*
X102600000Y-113334380D02*
X102600000Y-112334380D01*
X102504761Y-112477238D01*
X102409523Y-112572476D01*
X102314285Y-112620095D01*
X174502380Y-122729523D02*
X175216666Y-122729523D01*
X175359523Y-122777142D01*
X175454761Y-122872380D01*
X175502380Y-123015238D01*
X175502380Y-123110476D01*
X174835714Y-121824761D02*
X175502380Y-121824761D01*
X174454761Y-122062857D02*
X175169047Y-122300952D01*
X175169047Y-121681904D01*
X174597619Y-121348571D02*
X174550000Y-121300952D01*
X174502380Y-121205714D01*
X174502380Y-120967619D01*
X174550000Y-120872380D01*
X174597619Y-120824761D01*
X174692857Y-120777142D01*
X174788095Y-120777142D01*
X174930952Y-120824761D01*
X175502380Y-121396190D01*
X175502380Y-120777142D01*
X80942380Y-136699523D02*
X81656666Y-136699523D01*
X81799523Y-136747142D01*
X81894761Y-136842380D01*
X81942380Y-136985238D01*
X81942380Y-137080476D01*
X81037619Y-136270952D02*
X80990000Y-136223333D01*
X80942380Y-136128095D01*
X80942380Y-135890000D01*
X80990000Y-135794761D01*
X81037619Y-135747142D01*
X81132857Y-135699523D01*
X81228095Y-135699523D01*
X81370952Y-135747142D01*
X81942380Y-136318571D01*
X81942380Y-135699523D01*
X81942380Y-134747142D02*
X81942380Y-135318571D01*
X81942380Y-135032857D02*
X80942380Y-135032857D01*
X81085238Y-135128095D01*
X81180476Y-135223333D01*
X81228095Y-135318571D01*
X88138095Y-141740000D02*
X88042857Y-141692380D01*
X87900000Y-141692380D01*
X87757142Y-141740000D01*
X87661904Y-141835238D01*
X87614285Y-141930476D01*
X87566666Y-142120952D01*
X87566666Y-142263809D01*
X87614285Y-142454285D01*
X87661904Y-142549523D01*
X87757142Y-142644761D01*
X87900000Y-142692380D01*
X87995238Y-142692380D01*
X88138095Y-142644761D01*
X88185714Y-142597142D01*
X88185714Y-142263809D01*
X87995238Y-142263809D01*
X88614285Y-142692380D02*
X88614285Y-141692380D01*
X89185714Y-142692380D01*
X89185714Y-141692380D01*
X89661904Y-142692380D02*
X89661904Y-141692380D01*
X89900000Y-141692380D01*
X90042857Y-141740000D01*
X90138095Y-141835238D01*
X90185714Y-141930476D01*
X90233333Y-142120952D01*
X90233333Y-142263809D01*
X90185714Y-142454285D01*
X90138095Y-142549523D01*
X90042857Y-142644761D01*
X89900000Y-142692380D01*
X89661904Y-142692380D01*
X149522380Y-84153333D02*
X150236666Y-84153333D01*
X150379523Y-84200952D01*
X150474761Y-84296190D01*
X150522380Y-84439047D01*
X150522380Y-84534285D01*
X149617619Y-83724761D02*
X149570000Y-83677142D01*
X149522380Y-83581904D01*
X149522380Y-83343809D01*
X149570000Y-83248571D01*
X149617619Y-83200952D01*
X149712857Y-83153333D01*
X149808095Y-83153333D01*
X149950952Y-83200952D01*
X150522380Y-83772380D01*
X150522380Y-83153333D01*
X93170476Y-148042380D02*
X93170476Y-148756666D01*
X93122857Y-148899523D01*
X93027619Y-148994761D01*
X92884761Y-149042380D01*
X92789523Y-149042380D01*
X94075238Y-148375714D02*
X94075238Y-149042380D01*
X93837142Y-147994761D02*
X93599047Y-148709047D01*
X94218095Y-148709047D01*
X94503809Y-148042380D02*
X95122857Y-148042380D01*
X94789523Y-148423333D01*
X94932380Y-148423333D01*
X95027619Y-148470952D01*
X95075238Y-148518571D01*
X95122857Y-148613809D01*
X95122857Y-148851904D01*
X95075238Y-148947142D01*
X95027619Y-148994761D01*
X94932380Y-149042380D01*
X94646666Y-149042380D01*
X94551428Y-148994761D01*
X94503809Y-148947142D01*
X98925142Y-122277142D02*
X98877523Y-122324761D01*
X98734666Y-122372380D01*
X98639428Y-122372380D01*
X98496571Y-122324761D01*
X98401333Y-122229523D01*
X98353714Y-122134285D01*
X98306095Y-121943809D01*
X98306095Y-121800952D01*
X98353714Y-121610476D01*
X98401333Y-121515238D01*
X98496571Y-121420000D01*
X98639428Y-121372380D01*
X98734666Y-121372380D01*
X98877523Y-121420000D01*
X98925142Y-121467619D01*
X99782285Y-121705714D02*
X99782285Y-122372380D01*
X99544190Y-121324761D02*
X99306095Y-122039047D01*
X99925142Y-122039047D01*
X100829904Y-122372380D02*
X100258476Y-122372380D01*
X100544190Y-122372380D02*
X100544190Y-121372380D01*
X100448952Y-121515238D01*
X100353714Y-121610476D01*
X100258476Y-121658095D01*
X156670476Y-79652380D02*
X156670476Y-80366666D01*
X156622857Y-80509523D01*
X156527619Y-80604761D01*
X156384761Y-80652380D01*
X156289523Y-80652380D01*
X157099047Y-79747619D02*
X157146666Y-79700000D01*
X157241904Y-79652380D01*
X157480000Y-79652380D01*
X157575238Y-79700000D01*
X157622857Y-79747619D01*
X157670476Y-79842857D01*
X157670476Y-79938095D01*
X157622857Y-80080952D01*
X157051428Y-80652380D01*
X157670476Y-80652380D01*
X158575238Y-79652380D02*
X158099047Y-79652380D01*
X158051428Y-80128571D01*
X158099047Y-80080952D01*
X158194285Y-80033333D01*
X158432380Y-80033333D01*
X158527619Y-80080952D01*
X158575238Y-80128571D01*
X158622857Y-80223809D01*
X158622857Y-80461904D01*
X158575238Y-80557142D01*
X158527619Y-80604761D01*
X158432380Y-80652380D01*
X158194285Y-80652380D01*
X158099047Y-80604761D01*
X158051428Y-80557142D01*
X120327380Y-94583095D02*
X121136904Y-94583095D01*
X121232142Y-94535476D01*
X121279761Y-94487857D01*
X121327380Y-94392619D01*
X121327380Y-94202142D01*
X121279761Y-94106904D01*
X121232142Y-94059285D01*
X121136904Y-94011666D01*
X120327380Y-94011666D01*
X120327380Y-93059285D02*
X120327380Y-93535476D01*
X120803571Y-93583095D01*
X120755952Y-93535476D01*
X120708333Y-93440238D01*
X120708333Y-93202142D01*
X120755952Y-93106904D01*
X120803571Y-93059285D01*
X120898809Y-93011666D01*
X121136904Y-93011666D01*
X121232142Y-93059285D01*
X121279761Y-93106904D01*
X121327380Y-93202142D01*
X121327380Y-93440238D01*
X121279761Y-93535476D01*
X121232142Y-93583095D01*
X120327380Y-92678333D02*
X120327380Y-92059285D01*
X120708333Y-92392619D01*
X120708333Y-92249761D01*
X120755952Y-92154523D01*
X120803571Y-92106904D01*
X120898809Y-92059285D01*
X121136904Y-92059285D01*
X121232142Y-92106904D01*
X121279761Y-92154523D01*
X121327380Y-92249761D01*
X121327380Y-92535476D01*
X121279761Y-92630714D01*
X121232142Y-92678333D01*
X124912380Y-90019047D02*
X124436190Y-90352380D01*
X124912380Y-90590476D02*
X123912380Y-90590476D01*
X123912380Y-90209523D01*
X123960000Y-90114285D01*
X124007619Y-90066666D01*
X124102857Y-90019047D01*
X124245714Y-90019047D01*
X124340952Y-90066666D01*
X124388571Y-90114285D01*
X124436190Y-90209523D01*
X124436190Y-90590476D01*
X123912380Y-89114285D02*
X123912380Y-89590476D01*
X124388571Y-89638095D01*
X124340952Y-89590476D01*
X124293333Y-89495238D01*
X124293333Y-89257142D01*
X124340952Y-89161904D01*
X124388571Y-89114285D01*
X124483809Y-89066666D01*
X124721904Y-89066666D01*
X124817142Y-89114285D01*
X124864761Y-89161904D01*
X124912380Y-89257142D01*
X124912380Y-89495238D01*
X124864761Y-89590476D01*
X124817142Y-89638095D01*
X124912380Y-88114285D02*
X124912380Y-88685714D01*
X124912380Y-88400000D02*
X123912380Y-88400000D01*
X124055238Y-88495238D01*
X124150476Y-88590476D01*
X124198095Y-88685714D01*
X123912380Y-87495238D02*
X123912380Y-87400000D01*
X123960000Y-87304761D01*
X124007619Y-87257142D01*
X124102857Y-87209523D01*
X124293333Y-87161904D01*
X124531428Y-87161904D01*
X124721904Y-87209523D01*
X124817142Y-87257142D01*
X124864761Y-87304761D01*
X124912380Y-87400000D01*
X124912380Y-87495238D01*
X124864761Y-87590476D01*
X124817142Y-87638095D01*
X124721904Y-87685714D01*
X124531428Y-87733333D01*
X124293333Y-87733333D01*
X124102857Y-87685714D01*
X124007619Y-87638095D01*
X123960000Y-87590476D01*
X123912380Y-87495238D01*
X101107142Y-81637142D02*
X101059523Y-81684761D01*
X100916666Y-81732380D01*
X100821428Y-81732380D01*
X100678571Y-81684761D01*
X100583333Y-81589523D01*
X100535714Y-81494285D01*
X100488095Y-81303809D01*
X100488095Y-81160952D01*
X100535714Y-80970476D01*
X100583333Y-80875238D01*
X100678571Y-80780000D01*
X100821428Y-80732380D01*
X100916666Y-80732380D01*
X101059523Y-80780000D01*
X101107142Y-80827619D01*
X101869047Y-81208571D02*
X101535714Y-81208571D01*
X101535714Y-81732380D02*
X101535714Y-80732380D01*
X102011904Y-80732380D01*
X102583333Y-80732380D02*
X102678571Y-80732380D01*
X102773809Y-80780000D01*
X102821428Y-80827619D01*
X102869047Y-80922857D01*
X102916666Y-81113333D01*
X102916666Y-81351428D01*
X102869047Y-81541904D01*
X102821428Y-81637142D01*
X102773809Y-81684761D01*
X102678571Y-81732380D01*
X102583333Y-81732380D01*
X102488095Y-81684761D01*
X102440476Y-81637142D01*
X102392857Y-81541904D01*
X102345238Y-81351428D01*
X102345238Y-81113333D01*
X102392857Y-80922857D01*
X102440476Y-80827619D01*
X102488095Y-80780000D01*
X102583333Y-80732380D01*
X103345238Y-81732380D02*
X103345238Y-80732380D01*
X103678571Y-81446666D01*
X104011904Y-80732380D01*
X104011904Y-81732380D01*
X105011904Y-81732380D02*
X104440476Y-81732380D01*
X104726190Y-81732380D02*
X104726190Y-80732380D01*
X104630952Y-80875238D01*
X104535714Y-80970476D01*
X104440476Y-81018095D01*
X101238571Y-85447142D02*
X101190952Y-85494761D01*
X101048095Y-85542380D01*
X100952857Y-85542380D01*
X100810000Y-85494761D01*
X100714761Y-85399523D01*
X100667142Y-85304285D01*
X100619523Y-85113809D01*
X100619523Y-84970952D01*
X100667142Y-84780476D01*
X100714761Y-84685238D01*
X100810000Y-84590000D01*
X100952857Y-84542380D01*
X101048095Y-84542380D01*
X101190952Y-84590000D01*
X101238571Y-84637619D01*
X102000476Y-85018571D02*
X101667142Y-85018571D01*
X101667142Y-85542380D02*
X101667142Y-84542380D01*
X102143333Y-84542380D01*
X102714761Y-84542380D02*
X102810000Y-84542380D01*
X102905238Y-84590000D01*
X102952857Y-84637619D01*
X103000476Y-84732857D01*
X103048095Y-84923333D01*
X103048095Y-85161428D01*
X103000476Y-85351904D01*
X102952857Y-85447142D01*
X102905238Y-85494761D01*
X102810000Y-85542380D01*
X102714761Y-85542380D01*
X102619523Y-85494761D01*
X102571904Y-85447142D01*
X102524285Y-85351904D01*
X102476666Y-85161428D01*
X102476666Y-84923333D01*
X102524285Y-84732857D01*
X102571904Y-84637619D01*
X102619523Y-84590000D01*
X102714761Y-84542380D01*
X103476666Y-85542380D02*
X103476666Y-84542380D01*
X103857619Y-84542380D01*
X103952857Y-84590000D01*
X104000476Y-84637619D01*
X104048095Y-84732857D01*
X104048095Y-84875714D01*
X104000476Y-84970952D01*
X103952857Y-85018571D01*
X103857619Y-85066190D01*
X103476666Y-85066190D01*
X105000476Y-85542380D02*
X104429047Y-85542380D01*
X104714761Y-85542380D02*
X104714761Y-84542380D01*
X104619523Y-84685238D01*
X104524285Y-84780476D01*
X104429047Y-84828095D01*
X132286666Y-145852380D02*
X131953333Y-145376190D01*
X131715238Y-145852380D02*
X131715238Y-144852380D01*
X132096190Y-144852380D01*
X132191428Y-144900000D01*
X132239047Y-144947619D01*
X132286666Y-145042857D01*
X132286666Y-145185714D01*
X132239047Y-145280952D01*
X132191428Y-145328571D01*
X132096190Y-145376190D01*
X131715238Y-145376190D01*
X132667619Y-144947619D02*
X132715238Y-144900000D01*
X132810476Y-144852380D01*
X133048571Y-144852380D01*
X133143809Y-144900000D01*
X133191428Y-144947619D01*
X133239047Y-145042857D01*
X133239047Y-145138095D01*
X133191428Y-145280952D01*
X132620000Y-145852380D01*
X133239047Y-145852380D01*
X133429523Y-145947619D02*
X134191428Y-145947619D01*
X134429523Y-145328571D02*
X134762857Y-145328571D01*
X134905714Y-145852380D02*
X134429523Y-145852380D01*
X134429523Y-144852380D01*
X134905714Y-144852380D01*
X135239047Y-144852380D02*
X135905714Y-145852380D01*
X135905714Y-144852380D02*
X135239047Y-145852380D01*
X136143809Y-144852380D02*
X136715238Y-144852380D01*
X136429523Y-145852380D02*
X136429523Y-144852380D01*
X137572380Y-145852380D02*
X137000952Y-145852380D01*
X137286666Y-145852380D02*
X137286666Y-144852380D01*
X137191428Y-144995238D01*
X137096190Y-145090476D01*
X137000952Y-145138095D01*
X117046666Y-145867380D02*
X116713333Y-145391190D01*
X116475238Y-145867380D02*
X116475238Y-144867380D01*
X116856190Y-144867380D01*
X116951428Y-144915000D01*
X116999047Y-144962619D01*
X117046666Y-145057857D01*
X117046666Y-145200714D01*
X116999047Y-145295952D01*
X116951428Y-145343571D01*
X116856190Y-145391190D01*
X116475238Y-145391190D01*
X117999047Y-145867380D02*
X117427619Y-145867380D01*
X117713333Y-145867380D02*
X117713333Y-144867380D01*
X117618095Y-145010238D01*
X117522857Y-145105476D01*
X117427619Y-145153095D01*
X118189523Y-145962619D02*
X118951428Y-145962619D01*
X119189523Y-145343571D02*
X119522857Y-145343571D01*
X119665714Y-145867380D02*
X119189523Y-145867380D01*
X119189523Y-144867380D01*
X119665714Y-144867380D01*
X119999047Y-144867380D02*
X120665714Y-145867380D01*
X120665714Y-144867380D02*
X119999047Y-145867380D01*
X120903809Y-144867380D02*
X121475238Y-144867380D01*
X121189523Y-145867380D02*
X121189523Y-144867380D01*
X122332380Y-145867380D02*
X121760952Y-145867380D01*
X122046666Y-145867380D02*
X122046666Y-144867380D01*
X121951428Y-145010238D01*
X121856190Y-145105476D01*
X121760952Y-145153095D01*
X95052380Y-146478333D02*
X94576190Y-146811666D01*
X95052380Y-147049761D02*
X94052380Y-147049761D01*
X94052380Y-146668809D01*
X94100000Y-146573571D01*
X94147619Y-146525952D01*
X94242857Y-146478333D01*
X94385714Y-146478333D01*
X94480952Y-146525952D01*
X94528571Y-146573571D01*
X94576190Y-146668809D01*
X94576190Y-147049761D01*
X94052380Y-145859285D02*
X94052380Y-145764047D01*
X94100000Y-145668809D01*
X94147619Y-145621190D01*
X94242857Y-145573571D01*
X94433333Y-145525952D01*
X94671428Y-145525952D01*
X94861904Y-145573571D01*
X94957142Y-145621190D01*
X95004761Y-145668809D01*
X95052380Y-145764047D01*
X95052380Y-145859285D01*
X95004761Y-145954523D01*
X94957142Y-146002142D01*
X94861904Y-146049761D01*
X94671428Y-146097380D01*
X94433333Y-146097380D01*
X94242857Y-146049761D01*
X94147619Y-146002142D01*
X94100000Y-145954523D01*
X94052380Y-145859285D01*
X95147619Y-145335476D02*
X95147619Y-144573571D01*
X94528571Y-144335476D02*
X94528571Y-144002142D01*
X95052380Y-143859285D02*
X95052380Y-144335476D01*
X94052380Y-144335476D01*
X94052380Y-143859285D01*
X94052380Y-143525952D02*
X95052380Y-142859285D01*
X94052380Y-142859285D02*
X95052380Y-143525952D01*
X94052380Y-142621190D02*
X94052380Y-142049761D01*
X95052380Y-142335476D02*
X94052380Y-142335476D01*
X95052380Y-141192619D02*
X95052380Y-141764047D01*
X95052380Y-141478333D02*
X94052380Y-141478333D01*
X94195238Y-141573571D01*
X94290476Y-141668809D01*
X94338095Y-141764047D01*
X108410476Y-79462380D02*
X108410476Y-80176666D01*
X108362857Y-80319523D01*
X108267619Y-80414761D01*
X108124761Y-80462380D01*
X108029523Y-80462380D01*
X109362857Y-79462380D02*
X108886666Y-79462380D01*
X108839047Y-79938571D01*
X108886666Y-79890952D01*
X108981904Y-79843333D01*
X109220000Y-79843333D01*
X109315238Y-79890952D01*
X109362857Y-79938571D01*
X109410476Y-80033809D01*
X109410476Y-80271904D01*
X109362857Y-80367142D01*
X109315238Y-80414761D01*
X109220000Y-80462380D01*
X108981904Y-80462380D01*
X108886666Y-80414761D01*
X108839047Y-80367142D01*
X109743809Y-79462380D02*
X110362857Y-79462380D01*
X110029523Y-79843333D01*
X110172380Y-79843333D01*
X110267619Y-79890952D01*
X110315238Y-79938571D01*
X110362857Y-80033809D01*
X110362857Y-80271904D01*
X110315238Y-80367142D01*
X110267619Y-80414761D01*
X110172380Y-80462380D01*
X109886666Y-80462380D01*
X109791428Y-80414761D01*
X109743809Y-80367142D01*
X93170476Y-79462380D02*
X93170476Y-80176666D01*
X93122857Y-80319523D01*
X93027619Y-80414761D01*
X92884761Y-80462380D01*
X92789523Y-80462380D01*
X94122857Y-79462380D02*
X93646666Y-79462380D01*
X93599047Y-79938571D01*
X93646666Y-79890952D01*
X93741904Y-79843333D01*
X93980000Y-79843333D01*
X94075238Y-79890952D01*
X94122857Y-79938571D01*
X94170476Y-80033809D01*
X94170476Y-80271904D01*
X94122857Y-80367142D01*
X94075238Y-80414761D01*
X93980000Y-80462380D01*
X93741904Y-80462380D01*
X93646666Y-80414761D01*
X93599047Y-80367142D01*
X94551428Y-79557619D02*
X94599047Y-79510000D01*
X94694285Y-79462380D01*
X94932380Y-79462380D01*
X95027619Y-79510000D01*
X95075238Y-79557619D01*
X95122857Y-79652857D01*
X95122857Y-79748095D01*
X95075238Y-79890952D01*
X94503809Y-80462380D01*
X95122857Y-80462380D01*
X159845476Y-147852380D02*
X159845476Y-148566666D01*
X159797857Y-148709523D01*
X159702619Y-148804761D01*
X159559761Y-148852380D01*
X159464523Y-148852380D01*
X160750238Y-148185714D02*
X160750238Y-148852380D01*
X160512142Y-147804761D02*
X160274047Y-148519047D01*
X160893095Y-148519047D01*
X161702619Y-147852380D02*
X161512142Y-147852380D01*
X161416904Y-147900000D01*
X161369285Y-147947619D01*
X161274047Y-148090476D01*
X161226428Y-148280952D01*
X161226428Y-148661904D01*
X161274047Y-148757142D01*
X161321666Y-148804761D01*
X161416904Y-148852380D01*
X161607380Y-148852380D01*
X161702619Y-148804761D01*
X161750238Y-148757142D01*
X161797857Y-148661904D01*
X161797857Y-148423809D01*
X161750238Y-148328571D01*
X161702619Y-148280952D01*
X161607380Y-148233333D01*
X161416904Y-148233333D01*
X161321666Y-148280952D01*
X161274047Y-148328571D01*
X161226428Y-148423809D01*
X129365476Y-148042380D02*
X129365476Y-148756666D01*
X129317857Y-148899523D01*
X129222619Y-148994761D01*
X129079761Y-149042380D01*
X128984523Y-149042380D01*
X130270238Y-148375714D02*
X130270238Y-149042380D01*
X130032142Y-147994761D02*
X129794047Y-148709047D01*
X130413095Y-148709047D01*
X131270238Y-148042380D02*
X130794047Y-148042380D01*
X130746428Y-148518571D01*
X130794047Y-148470952D01*
X130889285Y-148423333D01*
X131127380Y-148423333D01*
X131222619Y-148470952D01*
X131270238Y-148518571D01*
X131317857Y-148613809D01*
X131317857Y-148851904D01*
X131270238Y-148947142D01*
X131222619Y-148994761D01*
X131127380Y-149042380D01*
X130889285Y-149042380D01*
X130794047Y-148994761D01*
X130746428Y-148947142D01*
X122380476Y-148042380D02*
X122380476Y-148756666D01*
X122332857Y-148899523D01*
X122237619Y-148994761D01*
X122094761Y-149042380D01*
X121999523Y-149042380D01*
X123285238Y-148375714D02*
X123285238Y-149042380D01*
X123047142Y-147994761D02*
X122809047Y-148709047D01*
X123428095Y-148709047D01*
X124237619Y-148375714D02*
X124237619Y-149042380D01*
X123999523Y-147994761D02*
X123761428Y-148709047D01*
X124380476Y-148709047D01*
X136350476Y-79652380D02*
X136350476Y-80366666D01*
X136302857Y-80509523D01*
X136207619Y-80604761D01*
X136064761Y-80652380D01*
X135969523Y-80652380D01*
X136779047Y-79747619D02*
X136826666Y-79700000D01*
X136921904Y-79652380D01*
X137160000Y-79652380D01*
X137255238Y-79700000D01*
X137302857Y-79747619D01*
X137350476Y-79842857D01*
X137350476Y-79938095D01*
X137302857Y-80080952D01*
X136731428Y-80652380D01*
X137350476Y-80652380D01*
X138207619Y-79985714D02*
X138207619Y-80652380D01*
X137969523Y-79604761D02*
X137731428Y-80319047D01*
X138350476Y-80319047D01*
X179792380Y-140509523D02*
X180506666Y-140509523D01*
X180649523Y-140557142D01*
X180744761Y-140652380D01*
X180792380Y-140795238D01*
X180792380Y-140890476D01*
X179792380Y-140128571D02*
X179792380Y-139509523D01*
X180173333Y-139842857D01*
X180173333Y-139700000D01*
X180220952Y-139604761D01*
X180268571Y-139557142D01*
X180363809Y-139509523D01*
X180601904Y-139509523D01*
X180697142Y-139557142D01*
X180744761Y-139604761D01*
X180792380Y-139700000D01*
X180792380Y-139985714D01*
X180744761Y-140080952D01*
X180697142Y-140128571D01*
X179887619Y-139128571D02*
X179840000Y-139080952D01*
X179792380Y-138985714D01*
X179792380Y-138747619D01*
X179840000Y-138652380D01*
X179887619Y-138604761D01*
X179982857Y-138557142D01*
X180078095Y-138557142D01*
X180220952Y-138604761D01*
X180792380Y-139176190D01*
X180792380Y-138557142D01*
X179792380Y-135429523D02*
X180506666Y-135429523D01*
X180649523Y-135477142D01*
X180744761Y-135572380D01*
X180792380Y-135715238D01*
X180792380Y-135810476D01*
X179792380Y-135048571D02*
X179792380Y-134429523D01*
X180173333Y-134762857D01*
X180173333Y-134620000D01*
X180220952Y-134524761D01*
X180268571Y-134477142D01*
X180363809Y-134429523D01*
X180601904Y-134429523D01*
X180697142Y-134477142D01*
X180744761Y-134524761D01*
X180792380Y-134620000D01*
X180792380Y-134905714D01*
X180744761Y-135000952D01*
X180697142Y-135048571D01*
X180125714Y-133572380D02*
X180792380Y-133572380D01*
X179744761Y-133810476D02*
X180459047Y-134048571D01*
X180459047Y-133429523D01*
X100361904Y-88352380D02*
X100361904Y-89161904D01*
X100409523Y-89257142D01*
X100457142Y-89304761D01*
X100552380Y-89352380D01*
X100742857Y-89352380D01*
X100838095Y-89304761D01*
X100885714Y-89257142D01*
X100933333Y-89161904D01*
X100933333Y-88352380D01*
X101885714Y-88352380D02*
X101409523Y-88352380D01*
X101361904Y-88828571D01*
X101409523Y-88780952D01*
X101504761Y-88733333D01*
X101742857Y-88733333D01*
X101838095Y-88780952D01*
X101885714Y-88828571D01*
X101933333Y-88923809D01*
X101933333Y-89161904D01*
X101885714Y-89257142D01*
X101838095Y-89304761D01*
X101742857Y-89352380D01*
X101504761Y-89352380D01*
X101409523Y-89304761D01*
X101361904Y-89257142D01*
X102314285Y-88447619D02*
X102361904Y-88400000D01*
X102457142Y-88352380D01*
X102695238Y-88352380D01*
X102790476Y-88400000D01*
X102838095Y-88447619D01*
X102885714Y-88542857D01*
X102885714Y-88638095D01*
X102838095Y-88780952D01*
X102266666Y-89352380D01*
X102885714Y-89352380D01*
X97877380Y-107283095D02*
X98686904Y-107283095D01*
X98782142Y-107235476D01*
X98829761Y-107187857D01*
X98877380Y-107092619D01*
X98877380Y-106902142D01*
X98829761Y-106806904D01*
X98782142Y-106759285D01*
X98686904Y-106711666D01*
X97877380Y-106711666D01*
X97877380Y-105759285D02*
X97877380Y-106235476D01*
X98353571Y-106283095D01*
X98305952Y-106235476D01*
X98258333Y-106140238D01*
X98258333Y-105902142D01*
X98305952Y-105806904D01*
X98353571Y-105759285D01*
X98448809Y-105711666D01*
X98686904Y-105711666D01*
X98782142Y-105759285D01*
X98829761Y-105806904D01*
X98877380Y-105902142D01*
X98877380Y-106140238D01*
X98829761Y-106235476D01*
X98782142Y-106283095D01*
X98877380Y-104759285D02*
X98877380Y-105330714D01*
X98877380Y-105045000D02*
X97877380Y-105045000D01*
X98020238Y-105140238D01*
X98115476Y-105235476D01*
X98163095Y-105330714D01*
X146081904Y-148902380D02*
X146081904Y-149711904D01*
X146129523Y-149807142D01*
X146177142Y-149854761D01*
X146272380Y-149902380D01*
X146462857Y-149902380D01*
X146558095Y-149854761D01*
X146605714Y-149807142D01*
X146653333Y-149711904D01*
X146653333Y-148902380D01*
X147558095Y-149235714D02*
X147558095Y-149902380D01*
X147320000Y-148854761D02*
X147081904Y-149569047D01*
X147700952Y-149569047D01*
X148510476Y-148902380D02*
X148320000Y-148902380D01*
X148224761Y-148950000D01*
X148177142Y-148997619D01*
X148081904Y-149140476D01*
X148034285Y-149330952D01*
X148034285Y-149711904D01*
X148081904Y-149807142D01*
X148129523Y-149854761D01*
X148224761Y-149902380D01*
X148415238Y-149902380D01*
X148510476Y-149854761D01*
X148558095Y-149807142D01*
X148605714Y-149711904D01*
X148605714Y-149473809D01*
X148558095Y-149378571D01*
X148510476Y-149330952D01*
X148415238Y-149283333D01*
X148224761Y-149283333D01*
X148129523Y-149330952D01*
X148081904Y-149378571D01*
X148034285Y-149473809D01*
X105441904Y-148902380D02*
X105441904Y-149711904D01*
X105489523Y-149807142D01*
X105537142Y-149854761D01*
X105632380Y-149902380D01*
X105822857Y-149902380D01*
X105918095Y-149854761D01*
X105965714Y-149807142D01*
X106013333Y-149711904D01*
X106013333Y-148902380D01*
X106918095Y-149235714D02*
X106918095Y-149902380D01*
X106680000Y-148854761D02*
X106441904Y-149569047D01*
X107060952Y-149569047D01*
X107918095Y-148902380D02*
X107441904Y-148902380D01*
X107394285Y-149378571D01*
X107441904Y-149330952D01*
X107537142Y-149283333D01*
X107775238Y-149283333D01*
X107870476Y-149330952D01*
X107918095Y-149378571D01*
X107965714Y-149473809D01*
X107965714Y-149711904D01*
X107918095Y-149807142D01*
X107870476Y-149854761D01*
X107775238Y-149902380D01*
X107537142Y-149902380D01*
X107441904Y-149854761D01*
X107394285Y-149807142D01*
X173944380Y-137794904D02*
X174753904Y-137794904D01*
X174849142Y-137747285D01*
X174896761Y-137699666D01*
X174944380Y-137604428D01*
X174944380Y-137413952D01*
X174896761Y-137318714D01*
X174849142Y-137271095D01*
X174753904Y-137223476D01*
X173944380Y-137223476D01*
X173944380Y-136842523D02*
X173944380Y-136223476D01*
X174325333Y-136556809D01*
X174325333Y-136413952D01*
X174372952Y-136318714D01*
X174420571Y-136271095D01*
X174515809Y-136223476D01*
X174753904Y-136223476D01*
X174849142Y-136271095D01*
X174896761Y-136318714D01*
X174944380Y-136413952D01*
X174944380Y-136699666D01*
X174896761Y-136794904D01*
X174849142Y-136842523D01*
X65722666Y-146708761D02*
X65865523Y-146756380D01*
X66103619Y-146756380D01*
X66198857Y-146708761D01*
X66246476Y-146661142D01*
X66294095Y-146565904D01*
X66294095Y-146470666D01*
X66246476Y-146375428D01*
X66198857Y-146327809D01*
X66103619Y-146280190D01*
X65913142Y-146232571D01*
X65817904Y-146184952D01*
X65770285Y-146137333D01*
X65722666Y-146042095D01*
X65722666Y-145946857D01*
X65770285Y-145851619D01*
X65817904Y-145804000D01*
X65913142Y-145756380D01*
X66151238Y-145756380D01*
X66294095Y-145804000D01*
X66627428Y-145756380D02*
X66865523Y-146756380D01*
X67056000Y-146042095D01*
X67246476Y-146756380D01*
X67484571Y-145756380D01*
X67817904Y-145851619D02*
X67865523Y-145804000D01*
X67960761Y-145756380D01*
X68198857Y-145756380D01*
X68294095Y-145804000D01*
X68341714Y-145851619D01*
X68389333Y-145946857D01*
X68389333Y-146042095D01*
X68341714Y-146184952D01*
X67770285Y-146756380D01*
X68389333Y-146756380D01*
X124912380Y-93987857D02*
X124436190Y-94321190D01*
X124912380Y-94559285D02*
X123912380Y-94559285D01*
X123912380Y-94178333D01*
X123960000Y-94083095D01*
X124007619Y-94035476D01*
X124102857Y-93987857D01*
X124245714Y-93987857D01*
X124340952Y-94035476D01*
X124388571Y-94083095D01*
X124436190Y-94178333D01*
X124436190Y-94559285D01*
X123912380Y-93083095D02*
X123912380Y-93559285D01*
X124388571Y-93606904D01*
X124340952Y-93559285D01*
X124293333Y-93464047D01*
X124293333Y-93225952D01*
X124340952Y-93130714D01*
X124388571Y-93083095D01*
X124483809Y-93035476D01*
X124721904Y-93035476D01*
X124817142Y-93083095D01*
X124864761Y-93130714D01*
X124912380Y-93225952D01*
X124912380Y-93464047D01*
X124864761Y-93559285D01*
X124817142Y-93606904D01*
X124912380Y-92559285D02*
X124912380Y-92368809D01*
X124864761Y-92273571D01*
X124817142Y-92225952D01*
X124674285Y-92130714D01*
X124483809Y-92083095D01*
X124102857Y-92083095D01*
X124007619Y-92130714D01*
X123960000Y-92178333D01*
X123912380Y-92273571D01*
X123912380Y-92464047D01*
X123960000Y-92559285D01*
X124007619Y-92606904D01*
X124102857Y-92654523D01*
X124340952Y-92654523D01*
X124436190Y-92606904D01*
X124483809Y-92559285D01*
X124531428Y-92464047D01*
X124531428Y-92273571D01*
X124483809Y-92178333D01*
X124436190Y-92130714D01*
X124340952Y-92083095D01*
X124912380Y-98432857D02*
X124436190Y-98766190D01*
X124912380Y-99004285D02*
X123912380Y-99004285D01*
X123912380Y-98623333D01*
X123960000Y-98528095D01*
X124007619Y-98480476D01*
X124102857Y-98432857D01*
X124245714Y-98432857D01*
X124340952Y-98480476D01*
X124388571Y-98528095D01*
X124436190Y-98623333D01*
X124436190Y-99004285D01*
X123912380Y-97528095D02*
X123912380Y-98004285D01*
X124388571Y-98051904D01*
X124340952Y-98004285D01*
X124293333Y-97909047D01*
X124293333Y-97670952D01*
X124340952Y-97575714D01*
X124388571Y-97528095D01*
X124483809Y-97480476D01*
X124721904Y-97480476D01*
X124817142Y-97528095D01*
X124864761Y-97575714D01*
X124912380Y-97670952D01*
X124912380Y-97909047D01*
X124864761Y-98004285D01*
X124817142Y-98051904D01*
X124340952Y-96909047D02*
X124293333Y-97004285D01*
X124245714Y-97051904D01*
X124150476Y-97099523D01*
X124102857Y-97099523D01*
X124007619Y-97051904D01*
X123960000Y-97004285D01*
X123912380Y-96909047D01*
X123912380Y-96718571D01*
X123960000Y-96623333D01*
X124007619Y-96575714D01*
X124102857Y-96528095D01*
X124150476Y-96528095D01*
X124245714Y-96575714D01*
X124293333Y-96623333D01*
X124340952Y-96718571D01*
X124340952Y-96909047D01*
X124388571Y-97004285D01*
X124436190Y-97051904D01*
X124531428Y-97099523D01*
X124721904Y-97099523D01*
X124817142Y-97051904D01*
X124864761Y-97004285D01*
X124912380Y-96909047D01*
X124912380Y-96718571D01*
X124864761Y-96623333D01*
X124817142Y-96575714D01*
X124721904Y-96528095D01*
X124531428Y-96528095D01*
X124436190Y-96575714D01*
X124388571Y-96623333D01*
X124340952Y-96718571D01*
X111117142Y-83002380D02*
X110783809Y-82526190D01*
X110545714Y-83002380D02*
X110545714Y-82002380D01*
X110926666Y-82002380D01*
X111021904Y-82050000D01*
X111069523Y-82097619D01*
X111117142Y-82192857D01*
X111117142Y-82335714D01*
X111069523Y-82430952D01*
X111021904Y-82478571D01*
X110926666Y-82526190D01*
X110545714Y-82526190D01*
X112021904Y-82002380D02*
X111545714Y-82002380D01*
X111498095Y-82478571D01*
X111545714Y-82430952D01*
X111640952Y-82383333D01*
X111879047Y-82383333D01*
X111974285Y-82430952D01*
X112021904Y-82478571D01*
X112069523Y-82573809D01*
X112069523Y-82811904D01*
X112021904Y-82907142D01*
X111974285Y-82954761D01*
X111879047Y-83002380D01*
X111640952Y-83002380D01*
X111545714Y-82954761D01*
X111498095Y-82907142D01*
X112402857Y-82002380D02*
X113069523Y-82002380D01*
X112640952Y-83002380D01*
X107767380Y-88907857D02*
X107291190Y-89241190D01*
X107767380Y-89479285D02*
X106767380Y-89479285D01*
X106767380Y-89098333D01*
X106815000Y-89003095D01*
X106862619Y-88955476D01*
X106957857Y-88907857D01*
X107100714Y-88907857D01*
X107195952Y-88955476D01*
X107243571Y-89003095D01*
X107291190Y-89098333D01*
X107291190Y-89479285D01*
X106767380Y-88003095D02*
X106767380Y-88479285D01*
X107243571Y-88526904D01*
X107195952Y-88479285D01*
X107148333Y-88384047D01*
X107148333Y-88145952D01*
X107195952Y-88050714D01*
X107243571Y-88003095D01*
X107338809Y-87955476D01*
X107576904Y-87955476D01*
X107672142Y-88003095D01*
X107719761Y-88050714D01*
X107767380Y-88145952D01*
X107767380Y-88384047D01*
X107719761Y-88479285D01*
X107672142Y-88526904D01*
X106767380Y-87098333D02*
X106767380Y-87288809D01*
X106815000Y-87384047D01*
X106862619Y-87431666D01*
X107005476Y-87526904D01*
X107195952Y-87574523D01*
X107576904Y-87574523D01*
X107672142Y-87526904D01*
X107719761Y-87479285D01*
X107767380Y-87384047D01*
X107767380Y-87193571D01*
X107719761Y-87098333D01*
X107672142Y-87050714D01*
X107576904Y-87003095D01*
X107338809Y-87003095D01*
X107243571Y-87050714D01*
X107195952Y-87098333D01*
X107148333Y-87193571D01*
X107148333Y-87384047D01*
X107195952Y-87479285D01*
X107243571Y-87526904D01*
X107338809Y-87574523D01*
X97607380Y-95257857D02*
X97131190Y-95591190D01*
X97607380Y-95829285D02*
X96607380Y-95829285D01*
X96607380Y-95448333D01*
X96655000Y-95353095D01*
X96702619Y-95305476D01*
X96797857Y-95257857D01*
X96940714Y-95257857D01*
X97035952Y-95305476D01*
X97083571Y-95353095D01*
X97131190Y-95448333D01*
X97131190Y-95829285D01*
X96607380Y-94353095D02*
X96607380Y-94829285D01*
X97083571Y-94876904D01*
X97035952Y-94829285D01*
X96988333Y-94734047D01*
X96988333Y-94495952D01*
X97035952Y-94400714D01*
X97083571Y-94353095D01*
X97178809Y-94305476D01*
X97416904Y-94305476D01*
X97512142Y-94353095D01*
X97559761Y-94400714D01*
X97607380Y-94495952D01*
X97607380Y-94734047D01*
X97559761Y-94829285D01*
X97512142Y-94876904D01*
X96607380Y-93400714D02*
X96607380Y-93876904D01*
X97083571Y-93924523D01*
X97035952Y-93876904D01*
X96988333Y-93781666D01*
X96988333Y-93543571D01*
X97035952Y-93448333D01*
X97083571Y-93400714D01*
X97178809Y-93353095D01*
X97416904Y-93353095D01*
X97512142Y-93400714D01*
X97559761Y-93448333D01*
X97607380Y-93543571D01*
X97607380Y-93781666D01*
X97559761Y-93876904D01*
X97512142Y-93924523D01*
X97607380Y-90812857D02*
X97131190Y-91146190D01*
X97607380Y-91384285D02*
X96607380Y-91384285D01*
X96607380Y-91003333D01*
X96655000Y-90908095D01*
X96702619Y-90860476D01*
X96797857Y-90812857D01*
X96940714Y-90812857D01*
X97035952Y-90860476D01*
X97083571Y-90908095D01*
X97131190Y-91003333D01*
X97131190Y-91384285D01*
X96607380Y-89908095D02*
X96607380Y-90384285D01*
X97083571Y-90431904D01*
X97035952Y-90384285D01*
X96988333Y-90289047D01*
X96988333Y-90050952D01*
X97035952Y-89955714D01*
X97083571Y-89908095D01*
X97178809Y-89860476D01*
X97416904Y-89860476D01*
X97512142Y-89908095D01*
X97559761Y-89955714D01*
X97607380Y-90050952D01*
X97607380Y-90289047D01*
X97559761Y-90384285D01*
X97512142Y-90431904D01*
X96940714Y-89003333D02*
X97607380Y-89003333D01*
X96559761Y-89241428D02*
X97274047Y-89479523D01*
X97274047Y-88860476D01*
X95067380Y-85732857D02*
X94591190Y-86066190D01*
X95067380Y-86304285D02*
X94067380Y-86304285D01*
X94067380Y-85923333D01*
X94115000Y-85828095D01*
X94162619Y-85780476D01*
X94257857Y-85732857D01*
X94400714Y-85732857D01*
X94495952Y-85780476D01*
X94543571Y-85828095D01*
X94591190Y-85923333D01*
X94591190Y-86304285D01*
X94067380Y-84828095D02*
X94067380Y-85304285D01*
X94543571Y-85351904D01*
X94495952Y-85304285D01*
X94448333Y-85209047D01*
X94448333Y-84970952D01*
X94495952Y-84875714D01*
X94543571Y-84828095D01*
X94638809Y-84780476D01*
X94876904Y-84780476D01*
X94972142Y-84828095D01*
X95019761Y-84875714D01*
X95067380Y-84970952D01*
X95067380Y-85209047D01*
X95019761Y-85304285D01*
X94972142Y-85351904D01*
X94067380Y-84447142D02*
X94067380Y-83828095D01*
X94448333Y-84161428D01*
X94448333Y-84018571D01*
X94495952Y-83923333D01*
X94543571Y-83875714D01*
X94638809Y-83828095D01*
X94876904Y-83828095D01*
X94972142Y-83875714D01*
X95019761Y-83923333D01*
X95067380Y-84018571D01*
X95067380Y-84304285D01*
X95019761Y-84399523D01*
X94972142Y-84447142D01*
X108577142Y-105607380D02*
X108243809Y-105131190D01*
X108005714Y-105607380D02*
X108005714Y-104607380D01*
X108386666Y-104607380D01*
X108481904Y-104655000D01*
X108529523Y-104702619D01*
X108577142Y-104797857D01*
X108577142Y-104940714D01*
X108529523Y-105035952D01*
X108481904Y-105083571D01*
X108386666Y-105131190D01*
X108005714Y-105131190D01*
X109481904Y-104607380D02*
X109005714Y-104607380D01*
X108958095Y-105083571D01*
X109005714Y-105035952D01*
X109100952Y-104988333D01*
X109339047Y-104988333D01*
X109434285Y-105035952D01*
X109481904Y-105083571D01*
X109529523Y-105178809D01*
X109529523Y-105416904D01*
X109481904Y-105512142D01*
X109434285Y-105559761D01*
X109339047Y-105607380D01*
X109100952Y-105607380D01*
X109005714Y-105559761D01*
X108958095Y-105512142D01*
X109910476Y-104702619D02*
X109958095Y-104655000D01*
X110053333Y-104607380D01*
X110291428Y-104607380D01*
X110386666Y-104655000D01*
X110434285Y-104702619D01*
X110481904Y-104797857D01*
X110481904Y-104893095D01*
X110434285Y-105035952D01*
X109862857Y-105607380D01*
X110481904Y-105607380D01*
X104767142Y-105607380D02*
X104433809Y-105131190D01*
X104195714Y-105607380D02*
X104195714Y-104607380D01*
X104576666Y-104607380D01*
X104671904Y-104655000D01*
X104719523Y-104702619D01*
X104767142Y-104797857D01*
X104767142Y-104940714D01*
X104719523Y-105035952D01*
X104671904Y-105083571D01*
X104576666Y-105131190D01*
X104195714Y-105131190D01*
X105671904Y-104607380D02*
X105195714Y-104607380D01*
X105148095Y-105083571D01*
X105195714Y-105035952D01*
X105290952Y-104988333D01*
X105529047Y-104988333D01*
X105624285Y-105035952D01*
X105671904Y-105083571D01*
X105719523Y-105178809D01*
X105719523Y-105416904D01*
X105671904Y-105512142D01*
X105624285Y-105559761D01*
X105529047Y-105607380D01*
X105290952Y-105607380D01*
X105195714Y-105559761D01*
X105148095Y-105512142D01*
X106671904Y-105607380D02*
X106100476Y-105607380D01*
X106386190Y-105607380D02*
X106386190Y-104607380D01*
X106290952Y-104750238D01*
X106195714Y-104845476D01*
X106100476Y-104893095D01*
X152217380Y-147962857D02*
X151741190Y-148296190D01*
X152217380Y-148534285D02*
X151217380Y-148534285D01*
X151217380Y-148153333D01*
X151265000Y-148058095D01*
X151312619Y-148010476D01*
X151407857Y-147962857D01*
X151550714Y-147962857D01*
X151645952Y-148010476D01*
X151693571Y-148058095D01*
X151741190Y-148153333D01*
X151741190Y-148534285D01*
X151550714Y-147105714D02*
X152217380Y-147105714D01*
X151169761Y-147343809D02*
X151884047Y-147581904D01*
X151884047Y-146962857D01*
X151217380Y-146153333D02*
X151217380Y-146343809D01*
X151265000Y-146439047D01*
X151312619Y-146486666D01*
X151455476Y-146581904D01*
X151645952Y-146629523D01*
X152026904Y-146629523D01*
X152122142Y-146581904D01*
X152169761Y-146534285D01*
X152217380Y-146439047D01*
X152217380Y-146248571D01*
X152169761Y-146153333D01*
X152122142Y-146105714D01*
X152026904Y-146058095D01*
X151788809Y-146058095D01*
X151693571Y-146105714D01*
X151645952Y-146153333D01*
X151598333Y-146248571D01*
X151598333Y-146439047D01*
X151645952Y-146534285D01*
X151693571Y-146581904D01*
X151788809Y-146629523D01*
X139057142Y-143327380D02*
X138723809Y-142851190D01*
X138485714Y-143327380D02*
X138485714Y-142327380D01*
X138866666Y-142327380D01*
X138961904Y-142375000D01*
X139009523Y-142422619D01*
X139057142Y-142517857D01*
X139057142Y-142660714D01*
X139009523Y-142755952D01*
X138961904Y-142803571D01*
X138866666Y-142851190D01*
X138485714Y-142851190D01*
X139914285Y-142660714D02*
X139914285Y-143327380D01*
X139676190Y-142279761D02*
X139438095Y-142994047D01*
X140057142Y-142994047D01*
X140914285Y-142327380D02*
X140438095Y-142327380D01*
X140390476Y-142803571D01*
X140438095Y-142755952D01*
X140533333Y-142708333D01*
X140771428Y-142708333D01*
X140866666Y-142755952D01*
X140914285Y-142803571D01*
X140961904Y-142898809D01*
X140961904Y-143136904D01*
X140914285Y-143232142D01*
X140866666Y-143279761D01*
X140771428Y-143327380D01*
X140533333Y-143327380D01*
X140438095Y-143279761D01*
X140390476Y-143232142D01*
X113657142Y-142947380D02*
X113323809Y-142471190D01*
X113085714Y-142947380D02*
X113085714Y-141947380D01*
X113466666Y-141947380D01*
X113561904Y-141995000D01*
X113609523Y-142042619D01*
X113657142Y-142137857D01*
X113657142Y-142280714D01*
X113609523Y-142375952D01*
X113561904Y-142423571D01*
X113466666Y-142471190D01*
X113085714Y-142471190D01*
X114514285Y-142280714D02*
X114514285Y-142947380D01*
X114276190Y-141899761D02*
X114038095Y-142614047D01*
X114657142Y-142614047D01*
X115466666Y-142280714D02*
X115466666Y-142947380D01*
X115228571Y-141899761D02*
X114990476Y-142614047D01*
X115609523Y-142614047D01*
X102432380Y-147962857D02*
X101956190Y-148296190D01*
X102432380Y-148534285D02*
X101432380Y-148534285D01*
X101432380Y-148153333D01*
X101480000Y-148058095D01*
X101527619Y-148010476D01*
X101622857Y-147962857D01*
X101765714Y-147962857D01*
X101860952Y-148010476D01*
X101908571Y-148058095D01*
X101956190Y-148153333D01*
X101956190Y-148534285D01*
X101765714Y-147105714D02*
X102432380Y-147105714D01*
X101384761Y-147343809D02*
X102099047Y-147581904D01*
X102099047Y-146962857D01*
X101432380Y-146677142D02*
X101432380Y-146058095D01*
X101813333Y-146391428D01*
X101813333Y-146248571D01*
X101860952Y-146153333D01*
X101908571Y-146105714D01*
X102003809Y-146058095D01*
X102241904Y-146058095D01*
X102337142Y-146105714D01*
X102384761Y-146153333D01*
X102432380Y-146248571D01*
X102432380Y-146534285D01*
X102384761Y-146629523D01*
X102337142Y-146677142D01*
X71318380Y-105417857D02*
X70842190Y-105751190D01*
X71318380Y-105989285D02*
X70318380Y-105989285D01*
X70318380Y-105608333D01*
X70366000Y-105513095D01*
X70413619Y-105465476D01*
X70508857Y-105417857D01*
X70651714Y-105417857D01*
X70746952Y-105465476D01*
X70794571Y-105513095D01*
X70842190Y-105608333D01*
X70842190Y-105989285D01*
X71318380Y-104465476D02*
X71318380Y-105036904D01*
X71318380Y-104751190D02*
X70318380Y-104751190D01*
X70461238Y-104846428D01*
X70556476Y-104941666D01*
X70604095Y-105036904D01*
X70318380Y-104132142D02*
X70318380Y-103465476D01*
X71318380Y-103894047D01*
X79192380Y-102179285D02*
X78192380Y-102179285D01*
X78192380Y-101941190D01*
X78240000Y-101798333D01*
X78335238Y-101703095D01*
X78430476Y-101655476D01*
X78620952Y-101607857D01*
X78763809Y-101607857D01*
X78954285Y-101655476D01*
X79049523Y-101703095D01*
X79144761Y-101798333D01*
X79192380Y-101941190D01*
X79192380Y-102179285D01*
X79192380Y-100655476D02*
X79192380Y-101226904D01*
X79192380Y-100941190D02*
X78192380Y-100941190D01*
X78335238Y-101036428D01*
X78430476Y-101131666D01*
X78478095Y-101226904D01*
X79192380Y-99703095D02*
X79192380Y-100274523D01*
X79192380Y-99988809D02*
X78192380Y-99988809D01*
X78335238Y-100084047D01*
X78430476Y-100179285D01*
X78478095Y-100274523D01*
X102520952Y-138627142D02*
X102473333Y-138674761D01*
X102330476Y-138722380D01*
X102235238Y-138722380D01*
X102092380Y-138674761D01*
X101997142Y-138579523D01*
X101949523Y-138484285D01*
X101901904Y-138293809D01*
X101901904Y-138150952D01*
X101949523Y-137960476D01*
X101997142Y-137865238D01*
X102092380Y-137770000D01*
X102235238Y-137722380D01*
X102330476Y-137722380D01*
X102473333Y-137770000D01*
X102520952Y-137817619D01*
X103378095Y-138055714D02*
X103378095Y-138722380D01*
X103140000Y-137674761D02*
X102901904Y-138389047D01*
X103520952Y-138389047D01*
X104330476Y-137722380D02*
X104140000Y-137722380D01*
X104044761Y-137770000D01*
X103997142Y-137817619D01*
X103901904Y-137960476D01*
X103854285Y-138150952D01*
X103854285Y-138531904D01*
X103901904Y-138627142D01*
X103949523Y-138674761D01*
X104044761Y-138722380D01*
X104235238Y-138722380D01*
X104330476Y-138674761D01*
X104378095Y-138627142D01*
X104425714Y-138531904D01*
X104425714Y-138293809D01*
X104378095Y-138198571D01*
X104330476Y-138150952D01*
X104235238Y-138103333D01*
X104044761Y-138103333D01*
X103949523Y-138150952D01*
X103901904Y-138198571D01*
X103854285Y-138293809D01*
X105187619Y-138198571D02*
X105330476Y-138246190D01*
X105378095Y-138293809D01*
X105425714Y-138389047D01*
X105425714Y-138531904D01*
X105378095Y-138627142D01*
X105330476Y-138674761D01*
X105235238Y-138722380D01*
X104854285Y-138722380D01*
X104854285Y-137722380D01*
X105187619Y-137722380D01*
X105282857Y-137770000D01*
X105330476Y-137817619D01*
X105378095Y-137912857D01*
X105378095Y-138008095D01*
X105330476Y-138103333D01*
X105282857Y-138150952D01*
X105187619Y-138198571D01*
X104854285Y-138198571D01*
X106378095Y-138722380D02*
X105806666Y-138722380D01*
X106092380Y-138722380D02*
X106092380Y-137722380D01*
X105997142Y-137865238D01*
X105901904Y-137960476D01*
X105806666Y-138008095D01*
X102592380Y-143486142D02*
X102544761Y-143533761D01*
X102401904Y-143581380D01*
X102306666Y-143581380D01*
X102163809Y-143533761D01*
X102068571Y-143438523D01*
X102020952Y-143343285D01*
X101973333Y-143152809D01*
X101973333Y-143009952D01*
X102020952Y-142819476D01*
X102068571Y-142724238D01*
X102163809Y-142629000D01*
X102306666Y-142581380D01*
X102401904Y-142581380D01*
X102544761Y-142629000D01*
X102592380Y-142676619D01*
X103449523Y-142914714D02*
X103449523Y-143581380D01*
X103211428Y-142533761D02*
X102973333Y-143248047D01*
X103592380Y-143248047D01*
X104401904Y-142581380D02*
X104211428Y-142581380D01*
X104116190Y-142629000D01*
X104068571Y-142676619D01*
X103973333Y-142819476D01*
X103925714Y-143009952D01*
X103925714Y-143390904D01*
X103973333Y-143486142D01*
X104020952Y-143533761D01*
X104116190Y-143581380D01*
X104306666Y-143581380D01*
X104401904Y-143533761D01*
X104449523Y-143486142D01*
X104497142Y-143390904D01*
X104497142Y-143152809D01*
X104449523Y-143057571D01*
X104401904Y-143009952D01*
X104306666Y-142962333D01*
X104116190Y-142962333D01*
X104020952Y-143009952D01*
X103973333Y-143057571D01*
X103925714Y-143152809D01*
X104878095Y-143295666D02*
X105354285Y-143295666D01*
X104782857Y-143581380D02*
X105116190Y-142581380D01*
X105449523Y-143581380D01*
X106306666Y-143581380D02*
X105735238Y-143581380D01*
X106020952Y-143581380D02*
X106020952Y-142581380D01*
X105925714Y-142724238D01*
X105830476Y-142819476D01*
X105735238Y-142867095D01*
X148240952Y-141167142D02*
X148193333Y-141214761D01*
X148050476Y-141262380D01*
X147955238Y-141262380D01*
X147812380Y-141214761D01*
X147717142Y-141119523D01*
X147669523Y-141024285D01*
X147621904Y-140833809D01*
X147621904Y-140690952D01*
X147669523Y-140500476D01*
X147717142Y-140405238D01*
X147812380Y-140310000D01*
X147955238Y-140262380D01*
X148050476Y-140262380D01*
X148193333Y-140310000D01*
X148240952Y-140357619D01*
X149098095Y-140595714D02*
X149098095Y-141262380D01*
X148860000Y-140214761D02*
X148621904Y-140929047D01*
X149240952Y-140929047D01*
X150098095Y-140262380D02*
X149621904Y-140262380D01*
X149574285Y-140738571D01*
X149621904Y-140690952D01*
X149717142Y-140643333D01*
X149955238Y-140643333D01*
X150050476Y-140690952D01*
X150098095Y-140738571D01*
X150145714Y-140833809D01*
X150145714Y-141071904D01*
X150098095Y-141167142D01*
X150050476Y-141214761D01*
X149955238Y-141262380D01*
X149717142Y-141262380D01*
X149621904Y-141214761D01*
X149574285Y-141167142D01*
X150907619Y-140738571D02*
X151050476Y-140786190D01*
X151098095Y-140833809D01*
X151145714Y-140929047D01*
X151145714Y-141071904D01*
X151098095Y-141167142D01*
X151050476Y-141214761D01*
X150955238Y-141262380D01*
X150574285Y-141262380D01*
X150574285Y-140262380D01*
X150907619Y-140262380D01*
X151002857Y-140310000D01*
X151050476Y-140357619D01*
X151098095Y-140452857D01*
X151098095Y-140548095D01*
X151050476Y-140643333D01*
X151002857Y-140690952D01*
X150907619Y-140738571D01*
X150574285Y-140738571D01*
X152098095Y-141262380D02*
X151526666Y-141262380D01*
X151812380Y-141262380D02*
X151812380Y-140262380D01*
X151717142Y-140405238D01*
X151621904Y-140500476D01*
X151526666Y-140548095D01*
X143232380Y-141327142D02*
X143184761Y-141374761D01*
X143041904Y-141422380D01*
X142946666Y-141422380D01*
X142803809Y-141374761D01*
X142708571Y-141279523D01*
X142660952Y-141184285D01*
X142613333Y-140993809D01*
X142613333Y-140850952D01*
X142660952Y-140660476D01*
X142708571Y-140565238D01*
X142803809Y-140470000D01*
X142946666Y-140422380D01*
X143041904Y-140422380D01*
X143184761Y-140470000D01*
X143232380Y-140517619D01*
X144089523Y-140755714D02*
X144089523Y-141422380D01*
X143851428Y-140374761D02*
X143613333Y-141089047D01*
X144232380Y-141089047D01*
X145089523Y-140422380D02*
X144613333Y-140422380D01*
X144565714Y-140898571D01*
X144613333Y-140850952D01*
X144708571Y-140803333D01*
X144946666Y-140803333D01*
X145041904Y-140850952D01*
X145089523Y-140898571D01*
X145137142Y-140993809D01*
X145137142Y-141231904D01*
X145089523Y-141327142D01*
X145041904Y-141374761D01*
X144946666Y-141422380D01*
X144708571Y-141422380D01*
X144613333Y-141374761D01*
X144565714Y-141327142D01*
X145518095Y-141136666D02*
X145994285Y-141136666D01*
X145422857Y-141422380D02*
X145756190Y-140422380D01*
X146089523Y-141422380D01*
X146946666Y-141422380D02*
X146375238Y-141422380D01*
X146660952Y-141422380D02*
X146660952Y-140422380D01*
X146565714Y-140565238D01*
X146470476Y-140660476D01*
X146375238Y-140708095D01*
X104752142Y-108592857D02*
X104799761Y-108640476D01*
X104847380Y-108783333D01*
X104847380Y-108878571D01*
X104799761Y-109021428D01*
X104704523Y-109116666D01*
X104609285Y-109164285D01*
X104418809Y-109211904D01*
X104275952Y-109211904D01*
X104085476Y-109164285D01*
X103990238Y-109116666D01*
X103895000Y-109021428D01*
X103847380Y-108878571D01*
X103847380Y-108783333D01*
X103895000Y-108640476D01*
X103942619Y-108592857D01*
X103847380Y-107688095D02*
X103847380Y-108164285D01*
X104323571Y-108211904D01*
X104275952Y-108164285D01*
X104228333Y-108069047D01*
X104228333Y-107830952D01*
X104275952Y-107735714D01*
X104323571Y-107688095D01*
X104418809Y-107640476D01*
X104656904Y-107640476D01*
X104752142Y-107688095D01*
X104799761Y-107735714D01*
X104847380Y-107830952D01*
X104847380Y-108069047D01*
X104799761Y-108164285D01*
X104752142Y-108211904D01*
X103847380Y-106735714D02*
X103847380Y-107211904D01*
X104323571Y-107259523D01*
X104275952Y-107211904D01*
X104228333Y-107116666D01*
X104228333Y-106878571D01*
X104275952Y-106783333D01*
X104323571Y-106735714D01*
X104418809Y-106688095D01*
X104656904Y-106688095D01*
X104752142Y-106735714D01*
X104799761Y-106783333D01*
X104847380Y-106878571D01*
X104847380Y-107116666D01*
X104799761Y-107211904D01*
X104752142Y-107259523D01*
X108147142Y-108592857D02*
X108194761Y-108640476D01*
X108242380Y-108783333D01*
X108242380Y-108878571D01*
X108194761Y-109021428D01*
X108099523Y-109116666D01*
X108004285Y-109164285D01*
X107813809Y-109211904D01*
X107670952Y-109211904D01*
X107480476Y-109164285D01*
X107385238Y-109116666D01*
X107290000Y-109021428D01*
X107242380Y-108878571D01*
X107242380Y-108783333D01*
X107290000Y-108640476D01*
X107337619Y-108592857D01*
X107242380Y-107688095D02*
X107242380Y-108164285D01*
X107718571Y-108211904D01*
X107670952Y-108164285D01*
X107623333Y-108069047D01*
X107623333Y-107830952D01*
X107670952Y-107735714D01*
X107718571Y-107688095D01*
X107813809Y-107640476D01*
X108051904Y-107640476D01*
X108147142Y-107688095D01*
X108194761Y-107735714D01*
X108242380Y-107830952D01*
X108242380Y-108069047D01*
X108194761Y-108164285D01*
X108147142Y-108211904D01*
X107575714Y-106783333D02*
X108242380Y-106783333D01*
X107194761Y-107021428D02*
X107909047Y-107259523D01*
X107909047Y-106640476D01*
X114277142Y-113672857D02*
X114324761Y-113720476D01*
X114372380Y-113863333D01*
X114372380Y-113958571D01*
X114324761Y-114101428D01*
X114229523Y-114196666D01*
X114134285Y-114244285D01*
X113943809Y-114291904D01*
X113800952Y-114291904D01*
X113610476Y-114244285D01*
X113515238Y-114196666D01*
X113420000Y-114101428D01*
X113372380Y-113958571D01*
X113372380Y-113863333D01*
X113420000Y-113720476D01*
X113467619Y-113672857D01*
X113372380Y-112768095D02*
X113372380Y-113244285D01*
X113848571Y-113291904D01*
X113800952Y-113244285D01*
X113753333Y-113149047D01*
X113753333Y-112910952D01*
X113800952Y-112815714D01*
X113848571Y-112768095D01*
X113943809Y-112720476D01*
X114181904Y-112720476D01*
X114277142Y-112768095D01*
X114324761Y-112815714D01*
X114372380Y-112910952D01*
X114372380Y-113149047D01*
X114324761Y-113244285D01*
X114277142Y-113291904D01*
X113372380Y-112387142D02*
X113372380Y-111768095D01*
X113753333Y-112101428D01*
X113753333Y-111958571D01*
X113800952Y-111863333D01*
X113848571Y-111815714D01*
X113943809Y-111768095D01*
X114181904Y-111768095D01*
X114277142Y-111815714D01*
X114324761Y-111863333D01*
X114372380Y-111958571D01*
X114372380Y-112244285D01*
X114324761Y-112339523D01*
X114277142Y-112387142D01*
X114277142Y-109227857D02*
X114324761Y-109275476D01*
X114372380Y-109418333D01*
X114372380Y-109513571D01*
X114324761Y-109656428D01*
X114229523Y-109751666D01*
X114134285Y-109799285D01*
X113943809Y-109846904D01*
X113800952Y-109846904D01*
X113610476Y-109799285D01*
X113515238Y-109751666D01*
X113420000Y-109656428D01*
X113372380Y-109513571D01*
X113372380Y-109418333D01*
X113420000Y-109275476D01*
X113467619Y-109227857D01*
X113372380Y-108323095D02*
X113372380Y-108799285D01*
X113848571Y-108846904D01*
X113800952Y-108799285D01*
X113753333Y-108704047D01*
X113753333Y-108465952D01*
X113800952Y-108370714D01*
X113848571Y-108323095D01*
X113943809Y-108275476D01*
X114181904Y-108275476D01*
X114277142Y-108323095D01*
X114324761Y-108370714D01*
X114372380Y-108465952D01*
X114372380Y-108704047D01*
X114324761Y-108799285D01*
X114277142Y-108846904D01*
X113467619Y-107894523D02*
X113420000Y-107846904D01*
X113372380Y-107751666D01*
X113372380Y-107513571D01*
X113420000Y-107418333D01*
X113467619Y-107370714D01*
X113562857Y-107323095D01*
X113658095Y-107323095D01*
X113800952Y-107370714D01*
X114372380Y-107942142D01*
X114372380Y-107323095D01*
X147837142Y-132087857D02*
X147884761Y-132135476D01*
X147932380Y-132278333D01*
X147932380Y-132373571D01*
X147884761Y-132516428D01*
X147789523Y-132611666D01*
X147694285Y-132659285D01*
X147503809Y-132706904D01*
X147360952Y-132706904D01*
X147170476Y-132659285D01*
X147075238Y-132611666D01*
X146980000Y-132516428D01*
X146932380Y-132373571D01*
X146932380Y-132278333D01*
X146980000Y-132135476D01*
X147027619Y-132087857D01*
X147265714Y-131230714D02*
X147932380Y-131230714D01*
X146884761Y-131468809D02*
X147599047Y-131706904D01*
X147599047Y-131087857D01*
X146932380Y-130802142D02*
X146932380Y-130183095D01*
X147313333Y-130516428D01*
X147313333Y-130373571D01*
X147360952Y-130278333D01*
X147408571Y-130230714D01*
X147503809Y-130183095D01*
X147741904Y-130183095D01*
X147837142Y-130230714D01*
X147884761Y-130278333D01*
X147932380Y-130373571D01*
X147932380Y-130659285D01*
X147884761Y-130754523D01*
X147837142Y-130802142D01*
X164982142Y-132087857D02*
X165029761Y-132135476D01*
X165077380Y-132278333D01*
X165077380Y-132373571D01*
X165029761Y-132516428D01*
X164934523Y-132611666D01*
X164839285Y-132659285D01*
X164648809Y-132706904D01*
X164505952Y-132706904D01*
X164315476Y-132659285D01*
X164220238Y-132611666D01*
X164125000Y-132516428D01*
X164077380Y-132373571D01*
X164077380Y-132278333D01*
X164125000Y-132135476D01*
X164172619Y-132087857D01*
X164410714Y-131230714D02*
X165077380Y-131230714D01*
X164029761Y-131468809D02*
X164744047Y-131706904D01*
X164744047Y-131087857D01*
X164172619Y-130754523D02*
X164125000Y-130706904D01*
X164077380Y-130611666D01*
X164077380Y-130373571D01*
X164125000Y-130278333D01*
X164172619Y-130230714D01*
X164267857Y-130183095D01*
X164363095Y-130183095D01*
X164505952Y-130230714D01*
X165077380Y-130802142D01*
X165077380Y-130183095D01*
X168472142Y-131579857D02*
X168519761Y-131627476D01*
X168567380Y-131770333D01*
X168567380Y-131865571D01*
X168519761Y-132008428D01*
X168424523Y-132103666D01*
X168329285Y-132151285D01*
X168138809Y-132198904D01*
X167995952Y-132198904D01*
X167805476Y-132151285D01*
X167710238Y-132103666D01*
X167615000Y-132008428D01*
X167567380Y-131865571D01*
X167567380Y-131770333D01*
X167615000Y-131627476D01*
X167662619Y-131579857D01*
X167567380Y-131246523D02*
X167567380Y-130627476D01*
X167948333Y-130960809D01*
X167948333Y-130817952D01*
X167995952Y-130722714D01*
X168043571Y-130675095D01*
X168138809Y-130627476D01*
X168376904Y-130627476D01*
X168472142Y-130675095D01*
X168519761Y-130722714D01*
X168567380Y-130817952D01*
X168567380Y-131103666D01*
X168519761Y-131198904D01*
X168472142Y-131246523D01*
X167567380Y-129722714D02*
X167567380Y-130198904D01*
X168043571Y-130246523D01*
X167995952Y-130198904D01*
X167948333Y-130103666D01*
X167948333Y-129865571D01*
X167995952Y-129770333D01*
X168043571Y-129722714D01*
X168138809Y-129675095D01*
X168376904Y-129675095D01*
X168472142Y-129722714D01*
X168519761Y-129770333D01*
X168567380Y-129865571D01*
X168567380Y-130103666D01*
X168519761Y-130198904D01*
X168472142Y-130246523D01*
X176522142Y-132310142D02*
X176474523Y-132357761D01*
X176331666Y-132405380D01*
X176236428Y-132405380D01*
X176093571Y-132357761D01*
X175998333Y-132262523D01*
X175950714Y-132167285D01*
X175903095Y-131976809D01*
X175903095Y-131833952D01*
X175950714Y-131643476D01*
X175998333Y-131548238D01*
X176093571Y-131453000D01*
X176236428Y-131405380D01*
X176331666Y-131405380D01*
X176474523Y-131453000D01*
X176522142Y-131500619D01*
X176855476Y-131405380D02*
X177474523Y-131405380D01*
X177141190Y-131786333D01*
X177284047Y-131786333D01*
X177379285Y-131833952D01*
X177426904Y-131881571D01*
X177474523Y-131976809D01*
X177474523Y-132214904D01*
X177426904Y-132310142D01*
X177379285Y-132357761D01*
X177284047Y-132405380D01*
X176998333Y-132405380D01*
X176903095Y-132357761D01*
X176855476Y-132310142D01*
X178331666Y-131738714D02*
X178331666Y-132405380D01*
X178093571Y-131357761D02*
X177855476Y-132072047D01*
X178474523Y-132072047D01*
X173855142Y-127992142D02*
X173807523Y-128039761D01*
X173664666Y-128087380D01*
X173569428Y-128087380D01*
X173426571Y-128039761D01*
X173331333Y-127944523D01*
X173283714Y-127849285D01*
X173236095Y-127658809D01*
X173236095Y-127515952D01*
X173283714Y-127325476D01*
X173331333Y-127230238D01*
X173426571Y-127135000D01*
X173569428Y-127087380D01*
X173664666Y-127087380D01*
X173807523Y-127135000D01*
X173855142Y-127182619D01*
X174188476Y-127087380D02*
X174807523Y-127087380D01*
X174474190Y-127468333D01*
X174617047Y-127468333D01*
X174712285Y-127515952D01*
X174759904Y-127563571D01*
X174807523Y-127658809D01*
X174807523Y-127896904D01*
X174759904Y-127992142D01*
X174712285Y-128039761D01*
X174617047Y-128087380D01*
X174331333Y-128087380D01*
X174236095Y-128039761D01*
X174188476Y-127992142D01*
X175140857Y-127087380D02*
X175759904Y-127087380D01*
X175426571Y-127468333D01*
X175569428Y-127468333D01*
X175664666Y-127515952D01*
X175712285Y-127563571D01*
X175759904Y-127658809D01*
X175759904Y-127896904D01*
X175712285Y-127992142D01*
X175664666Y-128039761D01*
X175569428Y-128087380D01*
X175283714Y-128087380D01*
X175188476Y-128039761D01*
X175140857Y-127992142D01*
X176014142Y-130278142D02*
X175966523Y-130325761D01*
X175823666Y-130373380D01*
X175728428Y-130373380D01*
X175585571Y-130325761D01*
X175490333Y-130230523D01*
X175442714Y-130135285D01*
X175395095Y-129944809D01*
X175395095Y-129801952D01*
X175442714Y-129611476D01*
X175490333Y-129516238D01*
X175585571Y-129421000D01*
X175728428Y-129373380D01*
X175823666Y-129373380D01*
X175966523Y-129421000D01*
X176014142Y-129468619D01*
X176347476Y-129373380D02*
X176966523Y-129373380D01*
X176633190Y-129754333D01*
X176776047Y-129754333D01*
X176871285Y-129801952D01*
X176918904Y-129849571D01*
X176966523Y-129944809D01*
X176966523Y-130182904D01*
X176918904Y-130278142D01*
X176871285Y-130325761D01*
X176776047Y-130373380D01*
X176490333Y-130373380D01*
X176395095Y-130325761D01*
X176347476Y-130278142D01*
X177347476Y-129468619D02*
X177395095Y-129421000D01*
X177490333Y-129373380D01*
X177728428Y-129373380D01*
X177823666Y-129421000D01*
X177871285Y-129468619D01*
X177918904Y-129563857D01*
X177918904Y-129659095D01*
X177871285Y-129801952D01*
X177299857Y-130373380D01*
X177918904Y-130373380D01*
X178411142Y-139707857D02*
X178458761Y-139755476D01*
X178506380Y-139898333D01*
X178506380Y-139993571D01*
X178458761Y-140136428D01*
X178363523Y-140231666D01*
X178268285Y-140279285D01*
X178077809Y-140326904D01*
X177934952Y-140326904D01*
X177744476Y-140279285D01*
X177649238Y-140231666D01*
X177554000Y-140136428D01*
X177506380Y-139993571D01*
X177506380Y-139898333D01*
X177554000Y-139755476D01*
X177601619Y-139707857D01*
X177506380Y-139374523D02*
X177506380Y-138755476D01*
X177887333Y-139088809D01*
X177887333Y-138945952D01*
X177934952Y-138850714D01*
X177982571Y-138803095D01*
X178077809Y-138755476D01*
X178315904Y-138755476D01*
X178411142Y-138803095D01*
X178458761Y-138850714D01*
X178506380Y-138945952D01*
X178506380Y-139231666D01*
X178458761Y-139326904D01*
X178411142Y-139374523D01*
X178506380Y-137803095D02*
X178506380Y-138374523D01*
X178506380Y-138088809D02*
X177506380Y-138088809D01*
X177649238Y-138184047D01*
X177744476Y-138279285D01*
X177792095Y-138374523D01*
X72382142Y-143867142D02*
X72334523Y-143914761D01*
X72191666Y-143962380D01*
X72096428Y-143962380D01*
X71953571Y-143914761D01*
X71858333Y-143819523D01*
X71810714Y-143724285D01*
X71763095Y-143533809D01*
X71763095Y-143390952D01*
X71810714Y-143200476D01*
X71858333Y-143105238D01*
X71953571Y-143010000D01*
X72096428Y-142962380D01*
X72191666Y-142962380D01*
X72334523Y-143010000D01*
X72382142Y-143057619D01*
X72763095Y-143057619D02*
X72810714Y-143010000D01*
X72905952Y-142962380D01*
X73144047Y-142962380D01*
X73239285Y-143010000D01*
X73286904Y-143057619D01*
X73334523Y-143152857D01*
X73334523Y-143248095D01*
X73286904Y-143390952D01*
X72715476Y-143962380D01*
X73334523Y-143962380D01*
X73667857Y-142962380D02*
X74286904Y-142962380D01*
X73953571Y-143343333D01*
X74096428Y-143343333D01*
X74191666Y-143390952D01*
X74239285Y-143438571D01*
X74286904Y-143533809D01*
X74286904Y-143771904D01*
X74239285Y-143867142D01*
X74191666Y-143914761D01*
X74096428Y-143962380D01*
X73810714Y-143962380D01*
X73715476Y-143914761D01*
X73667857Y-143867142D01*
X72382142Y-137262142D02*
X72334523Y-137309761D01*
X72191666Y-137357380D01*
X72096428Y-137357380D01*
X71953571Y-137309761D01*
X71858333Y-137214523D01*
X71810714Y-137119285D01*
X71763095Y-136928809D01*
X71763095Y-136785952D01*
X71810714Y-136595476D01*
X71858333Y-136500238D01*
X71953571Y-136405000D01*
X72096428Y-136357380D01*
X72191666Y-136357380D01*
X72334523Y-136405000D01*
X72382142Y-136452619D01*
X72763095Y-136452619D02*
X72810714Y-136405000D01*
X72905952Y-136357380D01*
X73144047Y-136357380D01*
X73239285Y-136405000D01*
X73286904Y-136452619D01*
X73334523Y-136547857D01*
X73334523Y-136643095D01*
X73286904Y-136785952D01*
X72715476Y-137357380D01*
X73334523Y-137357380D01*
X73715476Y-136452619D02*
X73763095Y-136405000D01*
X73858333Y-136357380D01*
X74096428Y-136357380D01*
X74191666Y-136405000D01*
X74239285Y-136452619D01*
X74286904Y-136547857D01*
X74286904Y-136643095D01*
X74239285Y-136785952D01*
X73667857Y-137357380D01*
X74286904Y-137357380D01*
X72382142Y-132437142D02*
X72334523Y-132484761D01*
X72191666Y-132532380D01*
X72096428Y-132532380D01*
X71953571Y-132484761D01*
X71858333Y-132389523D01*
X71810714Y-132294285D01*
X71763095Y-132103809D01*
X71763095Y-131960952D01*
X71810714Y-131770476D01*
X71858333Y-131675238D01*
X71953571Y-131580000D01*
X72096428Y-131532380D01*
X72191666Y-131532380D01*
X72334523Y-131580000D01*
X72382142Y-131627619D01*
X72763095Y-131627619D02*
X72810714Y-131580000D01*
X72905952Y-131532380D01*
X73144047Y-131532380D01*
X73239285Y-131580000D01*
X73286904Y-131627619D01*
X73334523Y-131722857D01*
X73334523Y-131818095D01*
X73286904Y-131960952D01*
X72715476Y-132532380D01*
X73334523Y-132532380D01*
X74286904Y-132532380D02*
X73715476Y-132532380D01*
X74001190Y-132532380D02*
X74001190Y-131532380D01*
X73905952Y-131675238D01*
X73810714Y-131770476D01*
X73715476Y-131818095D01*
X118087142Y-128150857D02*
X118134761Y-128198476D01*
X118182380Y-128341333D01*
X118182380Y-128436571D01*
X118134761Y-128579428D01*
X118039523Y-128674666D01*
X117944285Y-128722285D01*
X117753809Y-128769904D01*
X117610952Y-128769904D01*
X117420476Y-128722285D01*
X117325238Y-128674666D01*
X117230000Y-128579428D01*
X117182380Y-128436571D01*
X117182380Y-128341333D01*
X117230000Y-128198476D01*
X117277619Y-128150857D01*
X118182380Y-127198476D02*
X118182380Y-127769904D01*
X118182380Y-127484190D02*
X117182380Y-127484190D01*
X117325238Y-127579428D01*
X117420476Y-127674666D01*
X117468095Y-127769904D01*
X117515714Y-126341333D02*
X118182380Y-126341333D01*
X117134761Y-126579428D02*
X117849047Y-126817523D01*
X117849047Y-126198476D01*
X118087142Y-132214857D02*
X118134761Y-132262476D01*
X118182380Y-132405333D01*
X118182380Y-132500571D01*
X118134761Y-132643428D01*
X118039523Y-132738666D01*
X117944285Y-132786285D01*
X117753809Y-132833904D01*
X117610952Y-132833904D01*
X117420476Y-132786285D01*
X117325238Y-132738666D01*
X117230000Y-132643428D01*
X117182380Y-132500571D01*
X117182380Y-132405333D01*
X117230000Y-132262476D01*
X117277619Y-132214857D01*
X118182380Y-131262476D02*
X118182380Y-131833904D01*
X118182380Y-131548190D02*
X117182380Y-131548190D01*
X117325238Y-131643428D01*
X117420476Y-131738666D01*
X117468095Y-131833904D01*
X117182380Y-130929142D02*
X117182380Y-130310095D01*
X117563333Y-130643428D01*
X117563333Y-130500571D01*
X117610952Y-130405333D01*
X117658571Y-130357714D01*
X117753809Y-130310095D01*
X117991904Y-130310095D01*
X118087142Y-130357714D01*
X118134761Y-130405333D01*
X118182380Y-130500571D01*
X118182380Y-130786285D01*
X118134761Y-130881523D01*
X118087142Y-130929142D01*
M02*
