G04 #@! TF.GenerationSoftware,KiCad,Pcbnew,(5.1.8-0-10_14)*
G04 #@! TF.CreationDate,2020-12-31T12:29:52-08:00*
G04 #@! TF.ProjectId,esp32_sync,65737033-325f-4737-996e-632e6b696361,rev?*
G04 #@! TF.SameCoordinates,Original*
G04 #@! TF.FileFunction,Legend,Bot*
G04 #@! TF.FilePolarity,Positive*
%FSLAX46Y46*%
G04 Gerber Fmt 4.6, Leading zero omitted, Abs format (unit mm)*
G04 Created by KiCad (PCBNEW (5.1.8-0-10_14)) date 2020-12-31 12:29:52*
%MOMM*%
%LPD*%
G01*
G04 APERTURE LIST*
%ADD10C,0.250000*%
%ADD11C,0.150000*%
%ADD12C,0.100000*%
%ADD13C,0.120000*%
G04 APERTURE END LIST*
D10*
X139522857Y-128620000D02*
X138808571Y-128620000D01*
X139665714Y-129048571D02*
X139165714Y-127548571D01*
X138665714Y-129048571D01*
X138165714Y-128048571D02*
X138165714Y-129048571D01*
X138165714Y-128191428D02*
X138094285Y-128120000D01*
X137951428Y-128048571D01*
X137737142Y-128048571D01*
X137594285Y-128120000D01*
X137522857Y-128262857D01*
X137522857Y-129048571D01*
X136165714Y-129048571D02*
X136165714Y-128262857D01*
X136237142Y-128120000D01*
X136380000Y-128048571D01*
X136665714Y-128048571D01*
X136808571Y-128120000D01*
X136165714Y-128977142D02*
X136308571Y-129048571D01*
X136665714Y-129048571D01*
X136808571Y-128977142D01*
X136880000Y-128834285D01*
X136880000Y-128691428D01*
X136808571Y-128548571D01*
X136665714Y-128477142D01*
X136308571Y-128477142D01*
X136165714Y-128405714D01*
X134808571Y-128048571D02*
X134808571Y-129262857D01*
X134880000Y-129405714D01*
X134951428Y-129477142D01*
X135094285Y-129548571D01*
X135308571Y-129548571D01*
X135451428Y-129477142D01*
X134808571Y-128977142D02*
X134951428Y-129048571D01*
X135237142Y-129048571D01*
X135380000Y-128977142D01*
X135451428Y-128905714D01*
X135522857Y-128762857D01*
X135522857Y-128334285D01*
X135451428Y-128191428D01*
X135380000Y-128120000D01*
X135237142Y-128048571D01*
X134951428Y-128048571D01*
X134808571Y-128120000D01*
X133880000Y-129048571D02*
X134022857Y-128977142D01*
X134094285Y-128834285D01*
X134094285Y-127548571D01*
X133094285Y-129048571D02*
X133237142Y-128977142D01*
X133308571Y-128905714D01*
X133380000Y-128762857D01*
X133380000Y-128334285D01*
X133308571Y-128191428D01*
X133237142Y-128120000D01*
X133094285Y-128048571D01*
X132880000Y-128048571D01*
X132737142Y-128120000D01*
X132665714Y-128191428D01*
X132594285Y-128334285D01*
X132594285Y-128762857D01*
X132665714Y-128905714D01*
X132737142Y-128977142D01*
X132880000Y-129048571D01*
X133094285Y-129048571D01*
X131308571Y-128048571D02*
X131308571Y-129262857D01*
X131380000Y-129405714D01*
X131451428Y-129477142D01*
X131594285Y-129548571D01*
X131808571Y-129548571D01*
X131951428Y-129477142D01*
X131308571Y-128977142D02*
X131451428Y-129048571D01*
X131737142Y-129048571D01*
X131880000Y-128977142D01*
X131951428Y-128905714D01*
X132022857Y-128762857D01*
X132022857Y-128334285D01*
X131951428Y-128191428D01*
X131880000Y-128120000D01*
X131737142Y-128048571D01*
X131451428Y-128048571D01*
X131308571Y-128120000D01*
X129522857Y-127477142D02*
X130808571Y-129405714D01*
X129022857Y-129048571D02*
X129022857Y-127548571D01*
X128665714Y-127548571D01*
X128451428Y-127620000D01*
X128308571Y-127762857D01*
X128237142Y-127905714D01*
X128165714Y-128191428D01*
X128165714Y-128405714D01*
X128237142Y-128691428D01*
X128308571Y-128834285D01*
X128451428Y-128977142D01*
X128665714Y-129048571D01*
X129022857Y-129048571D01*
X127522857Y-129048571D02*
X127522857Y-128048571D01*
X127522857Y-127548571D02*
X127594285Y-127620000D01*
X127522857Y-127691428D01*
X127451428Y-127620000D01*
X127522857Y-127548571D01*
X127522857Y-127691428D01*
X126165714Y-128048571D02*
X126165714Y-129262857D01*
X126237142Y-129405714D01*
X126308571Y-129477142D01*
X126451428Y-129548571D01*
X126665714Y-129548571D01*
X126808571Y-129477142D01*
X126165714Y-128977142D02*
X126308571Y-129048571D01*
X126594285Y-129048571D01*
X126737142Y-128977142D01*
X126808571Y-128905714D01*
X126880000Y-128762857D01*
X126880000Y-128334285D01*
X126808571Y-128191428D01*
X126737142Y-128120000D01*
X126594285Y-128048571D01*
X126308571Y-128048571D01*
X126165714Y-128120000D01*
X125451428Y-129048571D02*
X125451428Y-128048571D01*
X125451428Y-127548571D02*
X125522857Y-127620000D01*
X125451428Y-127691428D01*
X125380000Y-127620000D01*
X125451428Y-127548571D01*
X125451428Y-127691428D01*
X124951428Y-128048571D02*
X124380000Y-128048571D01*
X124737142Y-127548571D02*
X124737142Y-128834285D01*
X124665714Y-128977142D01*
X124522857Y-129048571D01*
X124380000Y-129048571D01*
X123237142Y-129048571D02*
X123237142Y-128262857D01*
X123308571Y-128120000D01*
X123451428Y-128048571D01*
X123737142Y-128048571D01*
X123880000Y-128120000D01*
X123237142Y-128977142D02*
X123380000Y-129048571D01*
X123737142Y-129048571D01*
X123880000Y-128977142D01*
X123951428Y-128834285D01*
X123951428Y-128691428D01*
X123880000Y-128548571D01*
X123737142Y-128477142D01*
X123380000Y-128477142D01*
X123237142Y-128405714D01*
X122308571Y-129048571D02*
X122451428Y-128977142D01*
X122522857Y-128834285D01*
X122522857Y-127548571D01*
X120665714Y-128977142D02*
X120451428Y-129048571D01*
X120094285Y-129048571D01*
X119951428Y-128977142D01*
X119880000Y-128905714D01*
X119808571Y-128762857D01*
X119808571Y-128620000D01*
X119880000Y-128477142D01*
X119951428Y-128405714D01*
X120094285Y-128334285D01*
X120380000Y-128262857D01*
X120522857Y-128191428D01*
X120594285Y-128120000D01*
X120665714Y-127977142D01*
X120665714Y-127834285D01*
X120594285Y-127691428D01*
X120522857Y-127620000D01*
X120380000Y-127548571D01*
X120022857Y-127548571D01*
X119808571Y-127620000D01*
X119308571Y-128048571D02*
X118951428Y-129048571D01*
X118594285Y-128048571D02*
X118951428Y-129048571D01*
X119094285Y-129405714D01*
X119165714Y-129477142D01*
X119308571Y-129548571D01*
X118022857Y-128048571D02*
X118022857Y-129048571D01*
X118022857Y-128191428D02*
X117951428Y-128120000D01*
X117808571Y-128048571D01*
X117594285Y-128048571D01*
X117451428Y-128120000D01*
X117380000Y-128262857D01*
X117380000Y-129048571D01*
X116022857Y-128977142D02*
X116165714Y-129048571D01*
X116451428Y-129048571D01*
X116594285Y-128977142D01*
X116665714Y-128905714D01*
X116737142Y-128762857D01*
X116737142Y-128334285D01*
X116665714Y-128191428D01*
X116594285Y-128120000D01*
X116451428Y-128048571D01*
X116165714Y-128048571D01*
X116022857Y-128120000D01*
X115380000Y-129048571D02*
X115380000Y-127548571D01*
X114737142Y-129048571D02*
X114737142Y-128262857D01*
X114808571Y-128120000D01*
X114951428Y-128048571D01*
X115165714Y-128048571D01*
X115308571Y-128120000D01*
X115380000Y-128191428D01*
X114022857Y-129048571D02*
X114022857Y-128048571D01*
X114022857Y-128334285D02*
X113951428Y-128191428D01*
X113880000Y-128120000D01*
X113737142Y-128048571D01*
X113594285Y-128048571D01*
X112880000Y-129048571D02*
X113022857Y-128977142D01*
X113094285Y-128905714D01*
X113165714Y-128762857D01*
X113165714Y-128334285D01*
X113094285Y-128191428D01*
X113022857Y-128120000D01*
X112880000Y-128048571D01*
X112665714Y-128048571D01*
X112522857Y-128120000D01*
X112451428Y-128191428D01*
X112380000Y-128334285D01*
X112380000Y-128762857D01*
X112451428Y-128905714D01*
X112522857Y-128977142D01*
X112665714Y-129048571D01*
X112880000Y-129048571D01*
X111737142Y-128048571D02*
X111737142Y-129048571D01*
X111737142Y-128191428D02*
X111665714Y-128120000D01*
X111522857Y-128048571D01*
X111308571Y-128048571D01*
X111165714Y-128120000D01*
X111094285Y-128262857D01*
X111094285Y-129048571D01*
X110380000Y-129048571D02*
X110380000Y-128048571D01*
X110380000Y-127548571D02*
X110451428Y-127620000D01*
X110380000Y-127691428D01*
X110308571Y-127620000D01*
X110380000Y-127548571D01*
X110380000Y-127691428D01*
X109808571Y-128048571D02*
X109022857Y-128048571D01*
X109808571Y-129048571D01*
X109022857Y-129048571D01*
X107880000Y-128977142D02*
X108022857Y-129048571D01*
X108308571Y-129048571D01*
X108451428Y-128977142D01*
X108522857Y-128834285D01*
X108522857Y-128262857D01*
X108451428Y-128120000D01*
X108308571Y-128048571D01*
X108022857Y-128048571D01*
X107880000Y-128120000D01*
X107808571Y-128262857D01*
X107808571Y-128405714D01*
X108522857Y-128548571D01*
X107165714Y-129048571D02*
X107165714Y-128048571D01*
X107165714Y-128334285D02*
X107094285Y-128191428D01*
X107022857Y-128120000D01*
X106880000Y-128048571D01*
X106737142Y-128048571D01*
X104594285Y-128262857D02*
X104380000Y-128334285D01*
X104308571Y-128405714D01*
X104237142Y-128548571D01*
X104237142Y-128762857D01*
X104308571Y-128905714D01*
X104380000Y-128977142D01*
X104522857Y-129048571D01*
X105094285Y-129048571D01*
X105094285Y-127548571D01*
X104594285Y-127548571D01*
X104451428Y-127620000D01*
X104380000Y-127691428D01*
X104308571Y-127834285D01*
X104308571Y-127977142D01*
X104380000Y-128120000D01*
X104451428Y-128191428D01*
X104594285Y-128262857D01*
X105094285Y-128262857D01*
X103380000Y-129048571D02*
X103522857Y-128977142D01*
X103594285Y-128905714D01*
X103665714Y-128762857D01*
X103665714Y-128334285D01*
X103594285Y-128191428D01*
X103522857Y-128120000D01*
X103380000Y-128048571D01*
X103165714Y-128048571D01*
X103022857Y-128120000D01*
X102951428Y-128191428D01*
X102880000Y-128334285D01*
X102880000Y-128762857D01*
X102951428Y-128905714D01*
X103022857Y-128977142D01*
X103165714Y-129048571D01*
X103380000Y-129048571D01*
X101594285Y-129048571D02*
X101594285Y-128262857D01*
X101665714Y-128120000D01*
X101808571Y-128048571D01*
X102094285Y-128048571D01*
X102237142Y-128120000D01*
X101594285Y-128977142D02*
X101737142Y-129048571D01*
X102094285Y-129048571D01*
X102237142Y-128977142D01*
X102308571Y-128834285D01*
X102308571Y-128691428D01*
X102237142Y-128548571D01*
X102094285Y-128477142D01*
X101737142Y-128477142D01*
X101594285Y-128405714D01*
X100880000Y-129048571D02*
X100880000Y-128048571D01*
X100880000Y-128334285D02*
X100808571Y-128191428D01*
X100737142Y-128120000D01*
X100594285Y-128048571D01*
X100451428Y-128048571D01*
X99308571Y-129048571D02*
X99308571Y-127548571D01*
X99308571Y-128977142D02*
X99451428Y-129048571D01*
X99737142Y-129048571D01*
X99880000Y-128977142D01*
X99951428Y-128905714D01*
X100022857Y-128762857D01*
X100022857Y-128334285D01*
X99951428Y-128191428D01*
X99880000Y-128120000D01*
X99737142Y-128048571D01*
X99451428Y-128048571D01*
X99308571Y-128120000D01*
X125665714Y-130048571D02*
X125165714Y-131548571D01*
X124665714Y-130048571D01*
X123594285Y-131477142D02*
X123737142Y-131548571D01*
X124022857Y-131548571D01*
X124165714Y-131477142D01*
X124237142Y-131334285D01*
X124237142Y-130762857D01*
X124165714Y-130620000D01*
X124022857Y-130548571D01*
X123737142Y-130548571D01*
X123594285Y-130620000D01*
X123522857Y-130762857D01*
X123522857Y-130905714D01*
X124237142Y-131048571D01*
X122880000Y-131548571D02*
X122880000Y-130548571D01*
X122880000Y-130834285D02*
X122808571Y-130691428D01*
X122737142Y-130620000D01*
X122594285Y-130548571D01*
X122451428Y-130548571D01*
X122022857Y-131477142D02*
X121880000Y-131548571D01*
X121594285Y-131548571D01*
X121451428Y-131477142D01*
X121380000Y-131334285D01*
X121380000Y-131262857D01*
X121451428Y-131120000D01*
X121594285Y-131048571D01*
X121808571Y-131048571D01*
X121951428Y-130977142D01*
X122022857Y-130834285D01*
X122022857Y-130762857D01*
X121951428Y-130620000D01*
X121808571Y-130548571D01*
X121594285Y-130548571D01*
X121451428Y-130620000D01*
X120737142Y-131548571D02*
X120737142Y-130548571D01*
X120737142Y-130048571D02*
X120808571Y-130120000D01*
X120737142Y-130191428D01*
X120665714Y-130120000D01*
X120737142Y-130048571D01*
X120737142Y-130191428D01*
X119808571Y-131548571D02*
X119951428Y-131477142D01*
X120022857Y-131405714D01*
X120094285Y-131262857D01*
X120094285Y-130834285D01*
X120022857Y-130691428D01*
X119951428Y-130620000D01*
X119808571Y-130548571D01*
X119594285Y-130548571D01*
X119451428Y-130620000D01*
X119380000Y-130691428D01*
X119308571Y-130834285D01*
X119308571Y-131262857D01*
X119380000Y-131405714D01*
X119451428Y-131477142D01*
X119594285Y-131548571D01*
X119808571Y-131548571D01*
X118665714Y-130548571D02*
X118665714Y-131548571D01*
X118665714Y-130691428D02*
X118594285Y-130620000D01*
X118451428Y-130548571D01*
X118237142Y-130548571D01*
X118094285Y-130620000D01*
X118022857Y-130762857D01*
X118022857Y-131548571D01*
X115380000Y-131548571D02*
X116237142Y-131548571D01*
X115808571Y-131548571D02*
X115808571Y-130048571D01*
X115951428Y-130262857D01*
X116094285Y-130405714D01*
X116237142Y-130477142D01*
X114737142Y-131405714D02*
X114665714Y-131477142D01*
X114737142Y-131548571D01*
X114808571Y-131477142D01*
X114737142Y-131405714D01*
X114737142Y-131548571D01*
X113737142Y-130048571D02*
X113594285Y-130048571D01*
X113451428Y-130120000D01*
X113380000Y-130191428D01*
X113308571Y-130334285D01*
X113237142Y-130620000D01*
X113237142Y-130977142D01*
X113308571Y-131262857D01*
X113380000Y-131405714D01*
X113451428Y-131477142D01*
X113594285Y-131548571D01*
X113737142Y-131548571D01*
X113880000Y-131477142D01*
X113951428Y-131405714D01*
X114022857Y-131262857D01*
X114094285Y-130977142D01*
X114094285Y-130620000D01*
X114022857Y-130334285D01*
X113951428Y-130191428D01*
X113880000Y-130120000D01*
X113737142Y-130048571D01*
X136844285Y-134048571D02*
X136844285Y-132548571D01*
X136487142Y-132548571D01*
X136272857Y-132620000D01*
X136130000Y-132762857D01*
X136058571Y-132905714D01*
X135987142Y-133191428D01*
X135987142Y-133405714D01*
X136058571Y-133691428D01*
X136130000Y-133834285D01*
X136272857Y-133977142D01*
X136487142Y-134048571D01*
X136844285Y-134048571D01*
X134772857Y-133977142D02*
X134915714Y-134048571D01*
X135201428Y-134048571D01*
X135344285Y-133977142D01*
X135415714Y-133834285D01*
X135415714Y-133262857D01*
X135344285Y-133120000D01*
X135201428Y-133048571D01*
X134915714Y-133048571D01*
X134772857Y-133120000D01*
X134701428Y-133262857D01*
X134701428Y-133405714D01*
X135415714Y-133548571D01*
X134201428Y-133048571D02*
X133844285Y-134048571D01*
X133487142Y-133048571D01*
X132344285Y-133977142D02*
X132487142Y-134048571D01*
X132772857Y-134048571D01*
X132915714Y-133977142D01*
X132987142Y-133834285D01*
X132987142Y-133262857D01*
X132915714Y-133120000D01*
X132772857Y-133048571D01*
X132487142Y-133048571D01*
X132344285Y-133120000D01*
X132272857Y-133262857D01*
X132272857Y-133405714D01*
X132987142Y-133548571D01*
X131415714Y-134048571D02*
X131558571Y-133977142D01*
X131630000Y-133834285D01*
X131630000Y-132548571D01*
X130630000Y-134048571D02*
X130772857Y-133977142D01*
X130844285Y-133905714D01*
X130915714Y-133762857D01*
X130915714Y-133334285D01*
X130844285Y-133191428D01*
X130772857Y-133120000D01*
X130630000Y-133048571D01*
X130415714Y-133048571D01*
X130272857Y-133120000D01*
X130201428Y-133191428D01*
X130130000Y-133334285D01*
X130130000Y-133762857D01*
X130201428Y-133905714D01*
X130272857Y-133977142D01*
X130415714Y-134048571D01*
X130630000Y-134048571D01*
X129487142Y-133048571D02*
X129487142Y-134548571D01*
X129487142Y-133120000D02*
X129344285Y-133048571D01*
X129058571Y-133048571D01*
X128915714Y-133120000D01*
X128844285Y-133191428D01*
X128772857Y-133334285D01*
X128772857Y-133762857D01*
X128844285Y-133905714D01*
X128915714Y-133977142D01*
X129058571Y-134048571D01*
X129344285Y-134048571D01*
X129487142Y-133977142D01*
X127558571Y-133977142D02*
X127701428Y-134048571D01*
X127987142Y-134048571D01*
X128130000Y-133977142D01*
X128201428Y-133834285D01*
X128201428Y-133262857D01*
X128130000Y-133120000D01*
X127987142Y-133048571D01*
X127701428Y-133048571D01*
X127558571Y-133120000D01*
X127487142Y-133262857D01*
X127487142Y-133405714D01*
X128201428Y-133548571D01*
X126201428Y-134048571D02*
X126201428Y-132548571D01*
X126201428Y-133977142D02*
X126344285Y-134048571D01*
X126630000Y-134048571D01*
X126772857Y-133977142D01*
X126844285Y-133905714D01*
X126915714Y-133762857D01*
X126915714Y-133334285D01*
X126844285Y-133191428D01*
X126772857Y-133120000D01*
X126630000Y-133048571D01*
X126344285Y-133048571D01*
X126201428Y-133120000D01*
X124344285Y-134048571D02*
X124344285Y-132548571D01*
X124344285Y-133120000D02*
X124201428Y-133048571D01*
X123915714Y-133048571D01*
X123772857Y-133120000D01*
X123701428Y-133191428D01*
X123630000Y-133334285D01*
X123630000Y-133762857D01*
X123701428Y-133905714D01*
X123772857Y-133977142D01*
X123915714Y-134048571D01*
X124201428Y-134048571D01*
X124344285Y-133977142D01*
X123130000Y-133048571D02*
X122772857Y-134048571D01*
X122415714Y-133048571D02*
X122772857Y-134048571D01*
X122915714Y-134405714D01*
X122987142Y-134477142D01*
X123130000Y-134548571D01*
X120915714Y-133048571D02*
X120344285Y-133048571D01*
X120701428Y-132548571D02*
X120701428Y-133834285D01*
X120630000Y-133977142D01*
X120487142Y-134048571D01*
X120344285Y-134048571D01*
X119844285Y-134048571D02*
X119844285Y-132548571D01*
X119201428Y-134048571D02*
X119201428Y-133262857D01*
X119272857Y-133120000D01*
X119415714Y-133048571D01*
X119630000Y-133048571D01*
X119772857Y-133120000D01*
X119844285Y-133191428D01*
X117915714Y-133977142D02*
X118058571Y-134048571D01*
X118344285Y-134048571D01*
X118487142Y-133977142D01*
X118558571Y-133834285D01*
X118558571Y-133262857D01*
X118487142Y-133120000D01*
X118344285Y-133048571D01*
X118058571Y-133048571D01*
X117915714Y-133120000D01*
X117844285Y-133262857D01*
X117844285Y-133405714D01*
X118558571Y-133548571D01*
X116058571Y-134048571D02*
X116058571Y-132548571D01*
X115201428Y-134048571D02*
X115844285Y-133191428D01*
X115201428Y-132548571D02*
X116058571Y-133405714D01*
X114344285Y-134048571D02*
X114487142Y-133977142D01*
X114558571Y-133834285D01*
X114558571Y-132548571D01*
X113201428Y-133977142D02*
X113344285Y-134048571D01*
X113630000Y-134048571D01*
X113772857Y-133977142D01*
X113844285Y-133834285D01*
X113844285Y-133262857D01*
X113772857Y-133120000D01*
X113630000Y-133048571D01*
X113344285Y-133048571D01*
X113201428Y-133120000D01*
X113130000Y-133262857D01*
X113130000Y-133405714D01*
X113844285Y-133548571D01*
X111844285Y-133977142D02*
X111987142Y-134048571D01*
X112272857Y-134048571D01*
X112415714Y-133977142D01*
X112487142Y-133905714D01*
X112558571Y-133762857D01*
X112558571Y-133334285D01*
X112487142Y-133191428D01*
X112415714Y-133120000D01*
X112272857Y-133048571D01*
X111987142Y-133048571D01*
X111844285Y-133120000D01*
X111201428Y-134048571D02*
X111201428Y-132548571D01*
X111058571Y-133477142D02*
X110630000Y-134048571D01*
X110630000Y-133048571D02*
X111201428Y-133620000D01*
X109987142Y-133048571D02*
X109987142Y-134048571D01*
X109987142Y-133191428D02*
X109915714Y-133120000D01*
X109772857Y-133048571D01*
X109558571Y-133048571D01*
X109415714Y-133120000D01*
X109344285Y-133262857D01*
X109344285Y-134048571D01*
X108058571Y-133977142D02*
X108201428Y-134048571D01*
X108487142Y-134048571D01*
X108630000Y-133977142D01*
X108701428Y-133834285D01*
X108701428Y-133262857D01*
X108630000Y-133120000D01*
X108487142Y-133048571D01*
X108201428Y-133048571D01*
X108058571Y-133120000D01*
X107987142Y-133262857D01*
X107987142Y-133405714D01*
X108701428Y-133548571D01*
X107344285Y-134048571D02*
X107344285Y-133048571D01*
X107344285Y-133334285D02*
X107272857Y-133191428D01*
X107201428Y-133120000D01*
X107058571Y-133048571D01*
X106915714Y-133048571D01*
X104630000Y-134048571D02*
X104630000Y-133262857D01*
X104701428Y-133120000D01*
X104844285Y-133048571D01*
X105130000Y-133048571D01*
X105272857Y-133120000D01*
X104630000Y-133977142D02*
X104772857Y-134048571D01*
X105130000Y-134048571D01*
X105272857Y-133977142D01*
X105344285Y-133834285D01*
X105344285Y-133691428D01*
X105272857Y-133548571D01*
X105130000Y-133477142D01*
X104772857Y-133477142D01*
X104630000Y-133405714D01*
X103915714Y-133048571D02*
X103915714Y-134048571D01*
X103915714Y-133191428D02*
X103844285Y-133120000D01*
X103701428Y-133048571D01*
X103487142Y-133048571D01*
X103344285Y-133120000D01*
X103272857Y-133262857D01*
X103272857Y-134048571D01*
X101915714Y-134048571D02*
X101915714Y-132548571D01*
X101915714Y-133977142D02*
X102058571Y-134048571D01*
X102344285Y-134048571D01*
X102487142Y-133977142D01*
X102558571Y-133905714D01*
X102630000Y-133762857D01*
X102630000Y-133334285D01*
X102558571Y-133191428D01*
X102487142Y-133120000D01*
X102344285Y-133048571D01*
X102058571Y-133048571D01*
X101915714Y-133120000D01*
X133094285Y-136548571D02*
X133094285Y-135048571D01*
X132594285Y-136120000D01*
X132094285Y-135048571D01*
X132094285Y-136548571D01*
X131380000Y-135048571D02*
X131380000Y-136262857D01*
X131308571Y-136405714D01*
X131237142Y-136477142D01*
X131094285Y-136548571D01*
X130808571Y-136548571D01*
X130665714Y-136477142D01*
X130594285Y-136405714D01*
X130522857Y-136262857D01*
X130522857Y-135048571D01*
X130022857Y-135048571D02*
X129522857Y-136548571D01*
X129022857Y-135048571D01*
X128522857Y-136548571D02*
X128522857Y-135048571D01*
X125951428Y-136548571D02*
X126665714Y-136548571D01*
X126665714Y-135048571D01*
X124808571Y-136548571D02*
X124808571Y-135762857D01*
X124880000Y-135620000D01*
X125022857Y-135548571D01*
X125308571Y-135548571D01*
X125451428Y-135620000D01*
X124808571Y-136477142D02*
X124951428Y-136548571D01*
X125308571Y-136548571D01*
X125451428Y-136477142D01*
X125522857Y-136334285D01*
X125522857Y-136191428D01*
X125451428Y-136048571D01*
X125308571Y-135977142D01*
X124951428Y-135977142D01*
X124808571Y-135905714D01*
X124094285Y-136548571D02*
X124094285Y-135048571D01*
X124094285Y-135620000D02*
X123951428Y-135548571D01*
X123665714Y-135548571D01*
X123522857Y-135620000D01*
X123451428Y-135691428D01*
X123380000Y-135834285D01*
X123380000Y-136262857D01*
X123451428Y-136405714D01*
X123522857Y-136477142D01*
X123665714Y-136548571D01*
X123951428Y-136548571D01*
X124094285Y-136477142D01*
X122808571Y-136477142D02*
X122665714Y-136548571D01*
X122380000Y-136548571D01*
X122237142Y-136477142D01*
X122165714Y-136334285D01*
X122165714Y-136262857D01*
X122237142Y-136120000D01*
X122380000Y-136048571D01*
X122594285Y-136048571D01*
X122737142Y-135977142D01*
X122808571Y-135834285D01*
X122808571Y-135762857D01*
X122737142Y-135620000D01*
X122594285Y-135548571D01*
X122380000Y-135548571D01*
X122237142Y-135620000D01*
X119737142Y-136548571D02*
X119737142Y-135762857D01*
X119808571Y-135620000D01*
X119951428Y-135548571D01*
X120237142Y-135548571D01*
X120380000Y-135620000D01*
X119737142Y-136477142D02*
X119880000Y-136548571D01*
X120237142Y-136548571D01*
X120380000Y-136477142D01*
X120451428Y-136334285D01*
X120451428Y-136191428D01*
X120380000Y-136048571D01*
X120237142Y-135977142D01*
X119880000Y-135977142D01*
X119737142Y-135905714D01*
X119237142Y-135548571D02*
X118665714Y-135548571D01*
X119022857Y-135048571D02*
X119022857Y-136334285D01*
X118951428Y-136477142D01*
X118808571Y-136548571D01*
X118665714Y-136548571D01*
X117022857Y-135048571D02*
X117022857Y-136262857D01*
X116951428Y-136405714D01*
X116880000Y-136477142D01*
X116737142Y-136548571D01*
X116451428Y-136548571D01*
X116308571Y-136477142D01*
X116237142Y-136405714D01*
X116165714Y-136262857D01*
X116165714Y-135048571D01*
X114594285Y-136405714D02*
X114665714Y-136477142D01*
X114880000Y-136548571D01*
X115022857Y-136548571D01*
X115237142Y-136477142D01*
X115380000Y-136334285D01*
X115451428Y-136191428D01*
X115522857Y-135905714D01*
X115522857Y-135691428D01*
X115451428Y-135405714D01*
X115380000Y-135262857D01*
X115237142Y-135120000D01*
X115022857Y-135048571D01*
X114880000Y-135048571D01*
X114665714Y-135120000D01*
X114594285Y-135191428D01*
X112808571Y-136548571D02*
X112808571Y-135048571D01*
X112308571Y-136120000D01*
X111808571Y-135048571D01*
X111808571Y-136548571D01*
X110522857Y-136477142D02*
X110665714Y-136548571D01*
X110951428Y-136548571D01*
X111094285Y-136477142D01*
X111165714Y-136334285D01*
X111165714Y-135762857D01*
X111094285Y-135620000D01*
X110951428Y-135548571D01*
X110665714Y-135548571D01*
X110522857Y-135620000D01*
X110451428Y-135762857D01*
X110451428Y-135905714D01*
X111165714Y-136048571D01*
X109808571Y-136548571D02*
X109808571Y-135548571D01*
X109808571Y-135834285D02*
X109737142Y-135691428D01*
X109665714Y-135620000D01*
X109522857Y-135548571D01*
X109380000Y-135548571D01*
X108237142Y-136477142D02*
X108380000Y-136548571D01*
X108665714Y-136548571D01*
X108808571Y-136477142D01*
X108880000Y-136405714D01*
X108951428Y-136262857D01*
X108951428Y-135834285D01*
X108880000Y-135691428D01*
X108808571Y-135620000D01*
X108665714Y-135548571D01*
X108380000Y-135548571D01*
X108237142Y-135620000D01*
X107022857Y-136477142D02*
X107165714Y-136548571D01*
X107451428Y-136548571D01*
X107594285Y-136477142D01*
X107665714Y-136334285D01*
X107665714Y-135762857D01*
X107594285Y-135620000D01*
X107451428Y-135548571D01*
X107165714Y-135548571D01*
X107022857Y-135620000D01*
X106951428Y-135762857D01*
X106951428Y-135905714D01*
X107665714Y-136048571D01*
X105665714Y-136548571D02*
X105665714Y-135048571D01*
X105665714Y-136477142D02*
X105808571Y-136548571D01*
X106094285Y-136548571D01*
X106237142Y-136477142D01*
X106308571Y-136405714D01*
X106380000Y-136262857D01*
X106380000Y-135834285D01*
X106308571Y-135691428D01*
X106237142Y-135620000D01*
X106094285Y-135548571D01*
X105808571Y-135548571D01*
X105665714Y-135620000D01*
X137308571Y-138048571D02*
X136737142Y-138048571D01*
X137094285Y-139048571D02*
X137094285Y-137762857D01*
X137022857Y-137620000D01*
X136880000Y-137548571D01*
X136737142Y-137548571D01*
X135594285Y-139048571D02*
X135594285Y-138262857D01*
X135665714Y-138120000D01*
X135808571Y-138048571D01*
X136094285Y-138048571D01*
X136237142Y-138120000D01*
X135594285Y-138977142D02*
X135737142Y-139048571D01*
X136094285Y-139048571D01*
X136237142Y-138977142D01*
X136308571Y-138834285D01*
X136308571Y-138691428D01*
X136237142Y-138548571D01*
X136094285Y-138477142D01*
X135737142Y-138477142D01*
X135594285Y-138405714D01*
X134237142Y-138977142D02*
X134380000Y-139048571D01*
X134665714Y-139048571D01*
X134808571Y-138977142D01*
X134880000Y-138905714D01*
X134951428Y-138762857D01*
X134951428Y-138334285D01*
X134880000Y-138191428D01*
X134808571Y-138120000D01*
X134665714Y-138048571D01*
X134380000Y-138048571D01*
X134237142Y-138120000D01*
X132951428Y-138048571D02*
X132951428Y-139048571D01*
X133594285Y-138048571D02*
X133594285Y-138834285D01*
X133522857Y-138977142D01*
X133380000Y-139048571D01*
X133165714Y-139048571D01*
X133022857Y-138977142D01*
X132951428Y-138905714D01*
X132022857Y-139048571D02*
X132165714Y-138977142D01*
X132237142Y-138834285D01*
X132237142Y-137548571D01*
X131665714Y-138048571D02*
X131094285Y-138048571D01*
X131451428Y-137548571D02*
X131451428Y-138834285D01*
X131380000Y-138977142D01*
X131237142Y-139048571D01*
X131094285Y-139048571D01*
X130737142Y-138048571D02*
X130380000Y-139048571D01*
X130022857Y-138048571D02*
X130380000Y-139048571D01*
X130522857Y-139405714D01*
X130594285Y-139477142D01*
X130737142Y-139548571D01*
X129451428Y-138905714D02*
X129380000Y-138977142D01*
X129451428Y-139048571D01*
X129522857Y-138977142D01*
X129451428Y-138905714D01*
X129451428Y-139048571D01*
X128094285Y-138048571D02*
X128094285Y-139048571D01*
X128737142Y-138048571D02*
X128737142Y-138834285D01*
X128665714Y-138977142D01*
X128522857Y-139048571D01*
X128308571Y-139048571D01*
X128165714Y-138977142D01*
X128094285Y-138905714D01*
X126737142Y-138977142D02*
X126880000Y-139048571D01*
X127165714Y-139048571D01*
X127308571Y-138977142D01*
X127380000Y-138905714D01*
X127451428Y-138762857D01*
X127451428Y-138334285D01*
X127380000Y-138191428D01*
X127308571Y-138120000D01*
X127165714Y-138048571D01*
X126880000Y-138048571D01*
X126737142Y-138120000D01*
X126094285Y-139048571D02*
X126094285Y-138048571D01*
X126094285Y-138191428D02*
X126022857Y-138120000D01*
X125880000Y-138048571D01*
X125665714Y-138048571D01*
X125522857Y-138120000D01*
X125451428Y-138262857D01*
X125451428Y-139048571D01*
X125451428Y-138262857D02*
X125380000Y-138120000D01*
X125237142Y-138048571D01*
X125022857Y-138048571D01*
X124880000Y-138120000D01*
X124808571Y-138262857D01*
X124808571Y-139048571D01*
X123522857Y-138977142D02*
X123665714Y-139048571D01*
X123951428Y-139048571D01*
X124094285Y-138977142D01*
X124165714Y-138834285D01*
X124165714Y-138262857D01*
X124094285Y-138120000D01*
X123951428Y-138048571D01*
X123665714Y-138048571D01*
X123522857Y-138120000D01*
X123451428Y-138262857D01*
X123451428Y-138405714D01*
X124165714Y-138548571D01*
X122808571Y-139048571D02*
X122808571Y-138048571D01*
X122808571Y-138334285D02*
X122737142Y-138191428D01*
X122665714Y-138120000D01*
X122522857Y-138048571D01*
X122380000Y-138048571D01*
X121237142Y-138977142D02*
X121380000Y-139048571D01*
X121665714Y-139048571D01*
X121808571Y-138977142D01*
X121880000Y-138905714D01*
X121951428Y-138762857D01*
X121951428Y-138334285D01*
X121880000Y-138191428D01*
X121808571Y-138120000D01*
X121665714Y-138048571D01*
X121380000Y-138048571D01*
X121237142Y-138120000D01*
X120022857Y-138977142D02*
X120165714Y-139048571D01*
X120451428Y-139048571D01*
X120594285Y-138977142D01*
X120665714Y-138834285D01*
X120665714Y-138262857D01*
X120594285Y-138120000D01*
X120451428Y-138048571D01*
X120165714Y-138048571D01*
X120022857Y-138120000D01*
X119951428Y-138262857D01*
X119951428Y-138405714D01*
X120665714Y-138548571D01*
X118665714Y-139048571D02*
X118665714Y-137548571D01*
X118665714Y-138977142D02*
X118808571Y-139048571D01*
X119094285Y-139048571D01*
X119237142Y-138977142D01*
X119308571Y-138905714D01*
X119379999Y-138762857D01*
X119379999Y-138334285D01*
X119308571Y-138191428D01*
X119237142Y-138120000D01*
X119094285Y-138048571D01*
X118808571Y-138048571D01*
X118665714Y-138120000D01*
X117951428Y-138905714D02*
X117879999Y-138977142D01*
X117951428Y-139048571D01*
X118022857Y-138977142D01*
X117951428Y-138905714D01*
X117951428Y-139048571D01*
X116665714Y-138977142D02*
X116808571Y-139048571D01*
X117094285Y-139048571D01*
X117237142Y-138977142D01*
X117308571Y-138834285D01*
X117308571Y-138262857D01*
X117237142Y-138120000D01*
X117094285Y-138048571D01*
X116808571Y-138048571D01*
X116665714Y-138120000D01*
X116594285Y-138262857D01*
X116594285Y-138405714D01*
X117308571Y-138548571D01*
X115308571Y-139048571D02*
X115308571Y-137548571D01*
X115308571Y-138977142D02*
X115451428Y-139048571D01*
X115737142Y-139048571D01*
X115879999Y-138977142D01*
X115951428Y-138905714D01*
X116022857Y-138762857D01*
X116022857Y-138334285D01*
X115951428Y-138191428D01*
X115879999Y-138120000D01*
X115737142Y-138048571D01*
X115451428Y-138048571D01*
X115308571Y-138120000D01*
X113951428Y-138048571D02*
X113951428Y-139048571D01*
X114594285Y-138048571D02*
X114594285Y-138834285D01*
X114522857Y-138977142D01*
X114379999Y-139048571D01*
X114165714Y-139048571D01*
X114022857Y-138977142D01*
X113951428Y-138905714D01*
X112165714Y-137477142D02*
X113451428Y-139405714D01*
X111022857Y-139048571D02*
X111022857Y-137548571D01*
X111022857Y-138977142D02*
X111165714Y-139048571D01*
X111451428Y-139048571D01*
X111594285Y-138977142D01*
X111665714Y-138905714D01*
X111737142Y-138762857D01*
X111737142Y-138334285D01*
X111665714Y-138191428D01*
X111594285Y-138120000D01*
X111451428Y-138048571D01*
X111165714Y-138048571D01*
X111022857Y-138120000D01*
X110308571Y-139048571D02*
X110308571Y-137548571D01*
X110165714Y-138477142D02*
X109737142Y-139048571D01*
X109737142Y-138048571D02*
X110308571Y-138620000D01*
X108880000Y-139048571D02*
X109022857Y-138977142D01*
X109094285Y-138834285D01*
X109094285Y-137548571D01*
X107737142Y-138977142D02*
X107880000Y-139048571D01*
X108165714Y-139048571D01*
X108308571Y-138977142D01*
X108380000Y-138834285D01*
X108380000Y-138262857D01*
X108308571Y-138120000D01*
X108165714Y-138048571D01*
X107880000Y-138048571D01*
X107737142Y-138120000D01*
X107665714Y-138262857D01*
X107665714Y-138405714D01*
X108380000Y-138548571D01*
X106380000Y-138977142D02*
X106522857Y-139048571D01*
X106808571Y-139048571D01*
X106951428Y-138977142D01*
X107022857Y-138905714D01*
X107094285Y-138762857D01*
X107094285Y-138334285D01*
X107022857Y-138191428D01*
X106951428Y-138120000D01*
X106808571Y-138048571D01*
X106522857Y-138048571D01*
X106380000Y-138120000D01*
X105737142Y-139048571D02*
X105737142Y-137548571D01*
X105594285Y-138477142D02*
X105165714Y-139048571D01*
X105165714Y-138048571D02*
X105737142Y-138620000D01*
X104522857Y-138048571D02*
X104522857Y-139048571D01*
X104522857Y-138191428D02*
X104451428Y-138120000D01*
X104308571Y-138048571D01*
X104094285Y-138048571D01*
X103951428Y-138120000D01*
X103880000Y-138262857D01*
X103880000Y-139048571D01*
X102594285Y-138977142D02*
X102737142Y-139048571D01*
X103022857Y-139048571D01*
X103165714Y-138977142D01*
X103237142Y-138834285D01*
X103237142Y-138262857D01*
X103165714Y-138120000D01*
X103022857Y-138048571D01*
X102737142Y-138048571D01*
X102594285Y-138120000D01*
X102522857Y-138262857D01*
X102522857Y-138405714D01*
X103237142Y-138548571D01*
X101880000Y-139048571D02*
X101880000Y-138048571D01*
X101880000Y-138334285D02*
X101808571Y-138191428D01*
X101737142Y-138120000D01*
X101594285Y-138048571D01*
X101451428Y-138048571D01*
X129737142Y-141548571D02*
X129737142Y-140548571D01*
X129737142Y-140691428D02*
X129665714Y-140620000D01*
X129522857Y-140548571D01*
X129308571Y-140548571D01*
X129165714Y-140620000D01*
X129094285Y-140762857D01*
X129094285Y-141548571D01*
X129094285Y-140762857D02*
X129022857Y-140620000D01*
X128880000Y-140548571D01*
X128665714Y-140548571D01*
X128522857Y-140620000D01*
X128451428Y-140762857D01*
X128451428Y-141548571D01*
X127094285Y-140548571D02*
X127094285Y-141548571D01*
X127737142Y-140548571D02*
X127737142Y-141334285D01*
X127665714Y-141477142D01*
X127522857Y-141548571D01*
X127308571Y-141548571D01*
X127165714Y-141477142D01*
X127094285Y-141405714D01*
X126522857Y-140548571D02*
X126165714Y-141548571D01*
X125808571Y-140548571D01*
X125237142Y-141548571D02*
X125237142Y-140548571D01*
X125237142Y-140048571D02*
X125308571Y-140120000D01*
X125237142Y-140191428D01*
X125165714Y-140120000D01*
X125237142Y-140048571D01*
X125237142Y-140191428D01*
X124522857Y-141405714D02*
X124451428Y-141477142D01*
X124522857Y-141548571D01*
X124594285Y-141477142D01*
X124522857Y-141405714D01*
X124522857Y-141548571D01*
X123165714Y-140548571D02*
X123165714Y-141548571D01*
X123808571Y-140548571D02*
X123808571Y-141334285D01*
X123737142Y-141477142D01*
X123594285Y-141548571D01*
X123380000Y-141548571D01*
X123237142Y-141477142D01*
X123165714Y-141405714D01*
X121808571Y-141477142D02*
X121951428Y-141548571D01*
X122237142Y-141548571D01*
X122380000Y-141477142D01*
X122451428Y-141405714D01*
X122522857Y-141262857D01*
X122522857Y-140834285D01*
X122451428Y-140691428D01*
X122380000Y-140620000D01*
X122237142Y-140548571D01*
X121951428Y-140548571D01*
X121808571Y-140620000D01*
X121165714Y-141548571D02*
X121165714Y-140548571D01*
X121165714Y-140691428D02*
X121094285Y-140620000D01*
X120951428Y-140548571D01*
X120737142Y-140548571D01*
X120594285Y-140620000D01*
X120522857Y-140762857D01*
X120522857Y-141548571D01*
X120522857Y-140762857D02*
X120451428Y-140620000D01*
X120308571Y-140548571D01*
X120094285Y-140548571D01*
X119951428Y-140620000D01*
X119880000Y-140762857D01*
X119880000Y-141548571D01*
X118594285Y-141477142D02*
X118737142Y-141548571D01*
X119022857Y-141548571D01*
X119165714Y-141477142D01*
X119237142Y-141334285D01*
X119237142Y-140762857D01*
X119165714Y-140620000D01*
X119022857Y-140548571D01*
X118737142Y-140548571D01*
X118594285Y-140620000D01*
X118522857Y-140762857D01*
X118522857Y-140905714D01*
X119237142Y-141048571D01*
X117880000Y-141548571D02*
X117880000Y-140548571D01*
X117880000Y-140834285D02*
X117808571Y-140691428D01*
X117737142Y-140620000D01*
X117594285Y-140548571D01*
X117451428Y-140548571D01*
X116308571Y-141477142D02*
X116451428Y-141548571D01*
X116737142Y-141548571D01*
X116880000Y-141477142D01*
X116951428Y-141405714D01*
X117022857Y-141262857D01*
X117022857Y-140834285D01*
X116951428Y-140691428D01*
X116880000Y-140620000D01*
X116737142Y-140548571D01*
X116451428Y-140548571D01*
X116308571Y-140620000D01*
X115094285Y-141477142D02*
X115237142Y-141548571D01*
X115522857Y-141548571D01*
X115665714Y-141477142D01*
X115737142Y-141334285D01*
X115737142Y-140762857D01*
X115665714Y-140620000D01*
X115522857Y-140548571D01*
X115237142Y-140548571D01*
X115094285Y-140620000D01*
X115022857Y-140762857D01*
X115022857Y-140905714D01*
X115737142Y-141048571D01*
X113737142Y-141548571D02*
X113737142Y-140048571D01*
X113737142Y-141477142D02*
X113880000Y-141548571D01*
X114165714Y-141548571D01*
X114308571Y-141477142D01*
X114380000Y-141405714D01*
X114451428Y-141262857D01*
X114451428Y-140834285D01*
X114380000Y-140691428D01*
X114308571Y-140620000D01*
X114165714Y-140548571D01*
X113880000Y-140548571D01*
X113737142Y-140620000D01*
X113022857Y-141405714D02*
X112951428Y-141477142D01*
X113022857Y-141548571D01*
X113094285Y-141477142D01*
X113022857Y-141405714D01*
X113022857Y-141548571D01*
X111737142Y-141477142D02*
X111880000Y-141548571D01*
X112165714Y-141548571D01*
X112308571Y-141477142D01*
X112380000Y-141334285D01*
X112380000Y-140762857D01*
X112308571Y-140620000D01*
X112165714Y-140548571D01*
X111880000Y-140548571D01*
X111737142Y-140620000D01*
X111665714Y-140762857D01*
X111665714Y-140905714D01*
X112380000Y-141048571D01*
X110380000Y-141548571D02*
X110380000Y-140048571D01*
X110380000Y-141477142D02*
X110522857Y-141548571D01*
X110808571Y-141548571D01*
X110951428Y-141477142D01*
X111022857Y-141405714D01*
X111094285Y-141262857D01*
X111094285Y-140834285D01*
X111022857Y-140691428D01*
X110951428Y-140620000D01*
X110808571Y-140548571D01*
X110522857Y-140548571D01*
X110380000Y-140620000D01*
X109022857Y-140548571D02*
X109022857Y-141548571D01*
X109665714Y-140548571D02*
X109665714Y-141334285D01*
X109594285Y-141477142D01*
X109451428Y-141548571D01*
X109237142Y-141548571D01*
X109094285Y-141477142D01*
X109022857Y-141405714D01*
D11*
X96165000Y-119792619D02*
X96165000Y-118649761D01*
X95797619Y-119649761D02*
X94797619Y-119411666D01*
X95511904Y-119221190D01*
X94797619Y-119030714D01*
X95797619Y-118792619D01*
X96165000Y-118649761D02*
X96165000Y-117697380D01*
X94845238Y-118459285D02*
X94797619Y-118316428D01*
X94797619Y-118078333D01*
X94845238Y-117983095D01*
X94892857Y-117935476D01*
X94988095Y-117887857D01*
X95083333Y-117887857D01*
X95178571Y-117935476D01*
X95226190Y-117983095D01*
X95273809Y-118078333D01*
X95321428Y-118268809D01*
X95369047Y-118364047D01*
X95416666Y-118411666D01*
X95511904Y-118459285D01*
X95607142Y-118459285D01*
X95702380Y-118411666D01*
X95750000Y-118364047D01*
X95797619Y-118268809D01*
X95797619Y-118030714D01*
X95750000Y-117887857D01*
X94845238Y-116990714D02*
X94797619Y-116847857D01*
X94797619Y-116609761D01*
X94845238Y-116514523D01*
X94892857Y-116466904D01*
X94988095Y-116419285D01*
X95083333Y-116419285D01*
X95178571Y-116466904D01*
X95226190Y-116514523D01*
X95273809Y-116609761D01*
X95321428Y-116800238D01*
X95369047Y-116895476D01*
X95416666Y-116943095D01*
X95511904Y-116990714D01*
X95607142Y-116990714D01*
X95702380Y-116943095D01*
X95750000Y-116895476D01*
X95797619Y-116800238D01*
X95797619Y-116562142D01*
X95750000Y-116419285D01*
X94797619Y-115990714D02*
X95797619Y-115990714D01*
X95797619Y-115752619D01*
X95750000Y-115609761D01*
X95654761Y-115514523D01*
X95559523Y-115466904D01*
X95369047Y-115419285D01*
X95226190Y-115419285D01*
X95035714Y-115466904D01*
X94940476Y-115514523D01*
X94845238Y-115609761D01*
X94797619Y-115752619D01*
X94797619Y-115990714D01*
X94845238Y-114644714D02*
X94797619Y-114535857D01*
X94797619Y-114354428D01*
X94845238Y-114281857D01*
X94892857Y-114245571D01*
X94988095Y-114209285D01*
X95083333Y-114209285D01*
X95178571Y-114245571D01*
X95226190Y-114281857D01*
X95273809Y-114354428D01*
X95321428Y-114499571D01*
X95369047Y-114572142D01*
X95416666Y-114608428D01*
X95511904Y-114644714D01*
X95607142Y-114644714D01*
X95702380Y-114608428D01*
X95750000Y-114572142D01*
X95797619Y-114499571D01*
X95797619Y-114318142D01*
X95750000Y-114209285D01*
X94892857Y-113447285D02*
X94845238Y-113483571D01*
X94797619Y-113592428D01*
X94797619Y-113665000D01*
X94845238Y-113773857D01*
X94940476Y-113846428D01*
X95035714Y-113882714D01*
X95226190Y-113919000D01*
X95369047Y-113919000D01*
X95559523Y-113882714D01*
X95654761Y-113846428D01*
X95750000Y-113773857D01*
X95797619Y-113665000D01*
X95797619Y-113592428D01*
X95750000Y-113483571D01*
X95702380Y-113447285D01*
X94797619Y-113120714D02*
X95797619Y-113120714D01*
X94797619Y-112685285D02*
X95369047Y-113011857D01*
X95797619Y-112685285D02*
X95226190Y-113120714D01*
X95797619Y-112029761D02*
X94797619Y-111791666D01*
X95511904Y-111601190D01*
X94797619Y-111410714D01*
X95797619Y-111172619D01*
X94845238Y-110839285D02*
X94797619Y-110696428D01*
X94797619Y-110458333D01*
X94845238Y-110363095D01*
X94892857Y-110315476D01*
X94988095Y-110267857D01*
X95083333Y-110267857D01*
X95178571Y-110315476D01*
X95226190Y-110363095D01*
X95273809Y-110458333D01*
X95321428Y-110648809D01*
X95369047Y-110744047D01*
X95416666Y-110791666D01*
X95511904Y-110839285D01*
X95607142Y-110839285D01*
X95702380Y-110791666D01*
X95750000Y-110744047D01*
X95797619Y-110648809D01*
X95797619Y-110410714D01*
X95750000Y-110267857D01*
X123896428Y-99838095D02*
X123896428Y-100600000D01*
X124277380Y-101600000D02*
X124277380Y-101028571D01*
X124277380Y-101314285D02*
X123277380Y-101314285D01*
X123420238Y-101219047D01*
X123515476Y-101123809D01*
X123563095Y-101028571D01*
X123372619Y-101980952D02*
X123325000Y-102028571D01*
X123277380Y-102123809D01*
X123277380Y-102361904D01*
X123325000Y-102457142D01*
X123372619Y-102504761D01*
X123467857Y-102552380D01*
X123563095Y-102552380D01*
X123705952Y-102504761D01*
X124277380Y-101933333D01*
X124277380Y-102552380D01*
X123277380Y-102838095D02*
X124277380Y-103171428D01*
X123277380Y-103504761D01*
X115006428Y-99838095D02*
X115006428Y-100600000D01*
X115387380Y-100219047D02*
X114625476Y-100219047D01*
X115387380Y-101600000D02*
X115387380Y-101028571D01*
X115387380Y-101314285D02*
X114387380Y-101314285D01*
X114530238Y-101219047D01*
X114625476Y-101123809D01*
X114673095Y-101028571D01*
X114482619Y-101980952D02*
X114435000Y-102028571D01*
X114387380Y-102123809D01*
X114387380Y-102361904D01*
X114435000Y-102457142D01*
X114482619Y-102504761D01*
X114577857Y-102552380D01*
X114673095Y-102552380D01*
X114815952Y-102504761D01*
X115387380Y-101933333D01*
X115387380Y-102552380D01*
X114387380Y-102838095D02*
X115387380Y-103171428D01*
X114387380Y-103504761D01*
X84400571Y-131580000D02*
X84473142Y-131532380D01*
X84582000Y-131532380D01*
X84690857Y-131580000D01*
X84763428Y-131675238D01*
X84799714Y-131770476D01*
X84836000Y-131960952D01*
X84836000Y-132103809D01*
X84799714Y-132294285D01*
X84763428Y-132389523D01*
X84690857Y-132484761D01*
X84582000Y-132532380D01*
X84509428Y-132532380D01*
X84400571Y-132484761D01*
X84364285Y-132437142D01*
X84364285Y-132103809D01*
X84509428Y-132103809D01*
X84037714Y-132532380D02*
X84037714Y-131532380D01*
X83602285Y-132532380D01*
X83602285Y-131532380D01*
X83239428Y-132532380D02*
X83239428Y-131532380D01*
X83058000Y-131532380D01*
X82949142Y-131580000D01*
X82876571Y-131675238D01*
X82840285Y-131770476D01*
X82804000Y-131960952D01*
X82804000Y-132103809D01*
X82840285Y-132294285D01*
X82876571Y-132389523D01*
X82949142Y-132484761D01*
X83058000Y-132532380D01*
X83239428Y-132532380D01*
X84944857Y-139152380D02*
X84473142Y-139152380D01*
X84727142Y-139533333D01*
X84618285Y-139533333D01*
X84545714Y-139580952D01*
X84509428Y-139628571D01*
X84473142Y-139723809D01*
X84473142Y-139961904D01*
X84509428Y-140057142D01*
X84545714Y-140104761D01*
X84618285Y-140152380D01*
X84836000Y-140152380D01*
X84908571Y-140104761D01*
X84944857Y-140057142D01*
X84146571Y-140057142D02*
X84110285Y-140104761D01*
X84146571Y-140152380D01*
X84182857Y-140104761D01*
X84146571Y-140057142D01*
X84146571Y-140152380D01*
X83856285Y-139152380D02*
X83384571Y-139152380D01*
X83638571Y-139533333D01*
X83529714Y-139533333D01*
X83457142Y-139580952D01*
X83420857Y-139628571D01*
X83384571Y-139723809D01*
X83384571Y-139961904D01*
X83420857Y-140057142D01*
X83457142Y-140104761D01*
X83529714Y-140152380D01*
X83747428Y-140152380D01*
X83820000Y-140104761D01*
X83856285Y-140057142D01*
X83166857Y-139152380D02*
X82912857Y-140152380D01*
X82658857Y-139152380D01*
X86849857Y-140152380D02*
X87103857Y-139676190D01*
X87285285Y-140152380D02*
X87285285Y-139152380D01*
X86995000Y-139152380D01*
X86922428Y-139200000D01*
X86886142Y-139247619D01*
X86849857Y-139342857D01*
X86849857Y-139485714D01*
X86886142Y-139580952D01*
X86922428Y-139628571D01*
X86995000Y-139676190D01*
X87285285Y-139676190D01*
X86595857Y-139152380D02*
X86087857Y-140152380D01*
X86087857Y-139152380D02*
X86595857Y-140152380D01*
X85652428Y-139152380D02*
X85579857Y-139152380D01*
X85507285Y-139200000D01*
X85471000Y-139247619D01*
X85434714Y-139342857D01*
X85398428Y-139533333D01*
X85398428Y-139771428D01*
X85434714Y-139961904D01*
X85471000Y-140057142D01*
X85507285Y-140104761D01*
X85579857Y-140152380D01*
X85652428Y-140152380D01*
X85725000Y-140104761D01*
X85761285Y-140057142D01*
X85797571Y-139961904D01*
X85833857Y-139771428D01*
X85833857Y-139533333D01*
X85797571Y-139342857D01*
X85761285Y-139247619D01*
X85725000Y-139200000D01*
X85652428Y-139152380D01*
X89317285Y-140152380D02*
X89571285Y-139676190D01*
X89752714Y-140152380D02*
X89752714Y-139152380D01*
X89462428Y-139152380D01*
X89389857Y-139200000D01*
X89353571Y-139247619D01*
X89317285Y-139342857D01*
X89317285Y-139485714D01*
X89353571Y-139580952D01*
X89389857Y-139628571D01*
X89462428Y-139676190D01*
X89752714Y-139676190D01*
X89027000Y-140104761D02*
X88918142Y-140152380D01*
X88736714Y-140152380D01*
X88664142Y-140104761D01*
X88627857Y-140057142D01*
X88591571Y-139961904D01*
X88591571Y-139866666D01*
X88627857Y-139771428D01*
X88664142Y-139723809D01*
X88736714Y-139676190D01*
X88881857Y-139628571D01*
X88954428Y-139580952D01*
X88990714Y-139533333D01*
X89027000Y-139438095D01*
X89027000Y-139342857D01*
X88990714Y-139247619D01*
X88954428Y-139200000D01*
X88881857Y-139152380D01*
X88700428Y-139152380D01*
X88591571Y-139200000D01*
X88373857Y-139152380D02*
X87938428Y-139152380D01*
X88156142Y-140152380D02*
X88156142Y-139152380D01*
X87303428Y-131532380D02*
X86868000Y-131532380D01*
X87085714Y-132532380D02*
X87085714Y-131532380D01*
X86686571Y-131532380D02*
X86178571Y-132532380D01*
X86178571Y-131532380D02*
X86686571Y-132532380D01*
X85743142Y-131532380D02*
X85670571Y-131532380D01*
X85598000Y-131580000D01*
X85561714Y-131627619D01*
X85525428Y-131722857D01*
X85489142Y-131913333D01*
X85489142Y-132151428D01*
X85525428Y-132341904D01*
X85561714Y-132437142D01*
X85598000Y-132484761D01*
X85670571Y-132532380D01*
X85743142Y-132532380D01*
X85815714Y-132484761D01*
X85852000Y-132437142D01*
X85888285Y-132341904D01*
X85924571Y-132151428D01*
X85924571Y-131913333D01*
X85888285Y-131722857D01*
X85852000Y-131627619D01*
X85815714Y-131580000D01*
X85743142Y-131532380D01*
X88947619Y-131532380D02*
X88852380Y-131532380D01*
X88757142Y-131580000D01*
X88709523Y-131627619D01*
X88661904Y-131722857D01*
X88614285Y-131913333D01*
X88614285Y-132151428D01*
X88661904Y-132341904D01*
X88709523Y-132437142D01*
X88757142Y-132484761D01*
X88852380Y-132532380D01*
X88947619Y-132532380D01*
X89042857Y-132484761D01*
X89090476Y-132437142D01*
X89138095Y-132341904D01*
X89185714Y-132151428D01*
X89185714Y-131913333D01*
X89138095Y-131722857D01*
X89090476Y-131627619D01*
X89042857Y-131580000D01*
X88947619Y-131532380D01*
X92201904Y-131627619D02*
X92154285Y-131580000D01*
X92059047Y-131532380D01*
X91820952Y-131532380D01*
X91725714Y-131580000D01*
X91678095Y-131627619D01*
X91630476Y-131722857D01*
X91630476Y-131818095D01*
X91678095Y-131960952D01*
X92249523Y-132532380D01*
X91630476Y-132532380D01*
X90773333Y-131532380D02*
X90963809Y-131532380D01*
X91059047Y-131580000D01*
X91106666Y-131627619D01*
X91201904Y-131770476D01*
X91249523Y-131960952D01*
X91249523Y-132341904D01*
X91201904Y-132437142D01*
X91154285Y-132484761D01*
X91059047Y-132532380D01*
X90868571Y-132532380D01*
X90773333Y-132484761D01*
X90725714Y-132437142D01*
X90678095Y-132341904D01*
X90678095Y-132103809D01*
X90725714Y-132008571D01*
X90773333Y-131960952D01*
X90868571Y-131913333D01*
X91059047Y-131913333D01*
X91154285Y-131960952D01*
X91201904Y-132008571D01*
X91249523Y-132103809D01*
X92201904Y-139247619D02*
X92154285Y-139200000D01*
X92059047Y-139152380D01*
X91820952Y-139152380D01*
X91725714Y-139200000D01*
X91678095Y-139247619D01*
X91630476Y-139342857D01*
X91630476Y-139438095D01*
X91678095Y-139580952D01*
X92249523Y-140152380D01*
X91630476Y-140152380D01*
X90725714Y-139152380D02*
X91201904Y-139152380D01*
X91249523Y-139628571D01*
X91201904Y-139580952D01*
X91106666Y-139533333D01*
X90868571Y-139533333D01*
X90773333Y-139580952D01*
X90725714Y-139628571D01*
X90678095Y-139723809D01*
X90678095Y-139961904D01*
X90725714Y-140057142D01*
X90773333Y-140104761D01*
X90868571Y-140152380D01*
X91106666Y-140152380D01*
X91201904Y-140104761D01*
X91249523Y-140057142D01*
X94789523Y-139152380D02*
X94170476Y-139152380D01*
X94503809Y-139533333D01*
X94360952Y-139533333D01*
X94265714Y-139580952D01*
X94218095Y-139628571D01*
X94170476Y-139723809D01*
X94170476Y-139961904D01*
X94218095Y-140057142D01*
X94265714Y-140104761D01*
X94360952Y-140152380D01*
X94646666Y-140152380D01*
X94741904Y-140104761D01*
X94789523Y-140057142D01*
X93313333Y-139152380D02*
X93503809Y-139152380D01*
X93599047Y-139200000D01*
X93646666Y-139247619D01*
X93741904Y-139390476D01*
X93789523Y-139580952D01*
X93789523Y-139961904D01*
X93741904Y-140057142D01*
X93694285Y-140104761D01*
X93599047Y-140152380D01*
X93408571Y-140152380D01*
X93313333Y-140104761D01*
X93265714Y-140057142D01*
X93218095Y-139961904D01*
X93218095Y-139723809D01*
X93265714Y-139628571D01*
X93313333Y-139580952D01*
X93408571Y-139533333D01*
X93599047Y-139533333D01*
X93694285Y-139580952D01*
X93741904Y-139628571D01*
X93789523Y-139723809D01*
X94789523Y-131532380D02*
X94170476Y-131532380D01*
X94503809Y-131913333D01*
X94360952Y-131913333D01*
X94265714Y-131960952D01*
X94218095Y-132008571D01*
X94170476Y-132103809D01*
X94170476Y-132341904D01*
X94218095Y-132437142D01*
X94265714Y-132484761D01*
X94360952Y-132532380D01*
X94646666Y-132532380D01*
X94741904Y-132484761D01*
X94789523Y-132437142D01*
X93694285Y-132532380D02*
X93503809Y-132532380D01*
X93408571Y-132484761D01*
X93360952Y-132437142D01*
X93265714Y-132294285D01*
X93218095Y-132103809D01*
X93218095Y-131722857D01*
X93265714Y-131627619D01*
X93313333Y-131580000D01*
X93408571Y-131532380D01*
X93599047Y-131532380D01*
X93694285Y-131580000D01*
X93741904Y-131627619D01*
X93789523Y-131722857D01*
X93789523Y-131960952D01*
X93741904Y-132056190D01*
X93694285Y-132103809D01*
X93599047Y-132151428D01*
X93408571Y-132151428D01*
X93313333Y-132103809D01*
X93265714Y-132056190D01*
X93218095Y-131960952D01*
X134810476Y-119832380D02*
X135381904Y-119832380D01*
X135096190Y-119832380D02*
X135096190Y-118832380D01*
X135191428Y-118975238D01*
X135286666Y-119070476D01*
X135381904Y-119118095D01*
X133905714Y-118832380D02*
X134381904Y-118832380D01*
X134429523Y-119308571D01*
X134381904Y-119260952D01*
X134286666Y-119213333D01*
X134048571Y-119213333D01*
X133953333Y-119260952D01*
X133905714Y-119308571D01*
X133858095Y-119403809D01*
X133858095Y-119641904D01*
X133905714Y-119737142D01*
X133953333Y-119784761D01*
X134048571Y-119832380D01*
X134286666Y-119832380D01*
X134381904Y-119784761D01*
X134429523Y-119737142D01*
X137350476Y-119832380D02*
X137921904Y-119832380D01*
X137636190Y-119832380D02*
X137636190Y-118832380D01*
X137731428Y-118975238D01*
X137826666Y-119070476D01*
X137921904Y-119118095D01*
X136493333Y-119165714D02*
X136493333Y-119832380D01*
X136731428Y-118784761D02*
X136969523Y-119499047D01*
X136350476Y-119499047D01*
X139890476Y-119832380D02*
X140461904Y-119832380D01*
X140176190Y-119832380D02*
X140176190Y-118832380D01*
X140271428Y-118975238D01*
X140366666Y-119070476D01*
X140461904Y-119118095D01*
X139557142Y-118832380D02*
X138938095Y-118832380D01*
X139271428Y-119213333D01*
X139128571Y-119213333D01*
X139033333Y-119260952D01*
X138985714Y-119308571D01*
X138938095Y-119403809D01*
X138938095Y-119641904D01*
X138985714Y-119737142D01*
X139033333Y-119784761D01*
X139128571Y-119832380D01*
X139414285Y-119832380D01*
X139509523Y-119784761D01*
X139557142Y-119737142D01*
X159074761Y-123912380D02*
X158455714Y-123912380D01*
X158789047Y-124293333D01*
X158646190Y-124293333D01*
X158550952Y-124340952D01*
X158503333Y-124388571D01*
X158455714Y-124483809D01*
X158455714Y-124721904D01*
X158503333Y-124817142D01*
X158550952Y-124864761D01*
X158646190Y-124912380D01*
X158931904Y-124912380D01*
X159027142Y-124864761D01*
X159074761Y-124817142D01*
X158027142Y-124817142D02*
X157979523Y-124864761D01*
X158027142Y-124912380D01*
X158074761Y-124864761D01*
X158027142Y-124817142D01*
X158027142Y-124912380D01*
X157646190Y-123912380D02*
X157027142Y-123912380D01*
X157360476Y-124293333D01*
X157217619Y-124293333D01*
X157122380Y-124340952D01*
X157074761Y-124388571D01*
X157027142Y-124483809D01*
X157027142Y-124721904D01*
X157074761Y-124817142D01*
X157122380Y-124864761D01*
X157217619Y-124912380D01*
X157503333Y-124912380D01*
X157598571Y-124864761D01*
X157646190Y-124817142D01*
X156741428Y-123912380D02*
X156408095Y-124912380D01*
X156074761Y-123912380D01*
X155027142Y-124864761D02*
X154884285Y-124912380D01*
X154646190Y-124912380D01*
X154550952Y-124864761D01*
X154503333Y-124817142D01*
X154455714Y-124721904D01*
X154455714Y-124626666D01*
X154503333Y-124531428D01*
X154550952Y-124483809D01*
X154646190Y-124436190D01*
X154836666Y-124388571D01*
X154931904Y-124340952D01*
X154979523Y-124293333D01*
X155027142Y-124198095D01*
X155027142Y-124102857D01*
X154979523Y-124007619D01*
X154931904Y-123960000D01*
X154836666Y-123912380D01*
X154598571Y-123912380D01*
X154455714Y-123960000D01*
X153836666Y-124436190D02*
X153836666Y-124912380D01*
X154170000Y-123912380D02*
X153836666Y-124436190D01*
X153503333Y-123912380D01*
X153170000Y-124912380D02*
X153170000Y-123912380D01*
X152598571Y-124912380D01*
X152598571Y-123912380D01*
X151550952Y-124817142D02*
X151598571Y-124864761D01*
X151741428Y-124912380D01*
X151836666Y-124912380D01*
X151979523Y-124864761D01*
X152074761Y-124769523D01*
X152122380Y-124674285D01*
X152170000Y-124483809D01*
X152170000Y-124340952D01*
X152122380Y-124150476D01*
X152074761Y-124055238D01*
X151979523Y-123960000D01*
X151836666Y-123912380D01*
X151741428Y-123912380D01*
X151598571Y-123960000D01*
X151550952Y-124007619D01*
X150360476Y-124912380D02*
X150360476Y-123912380D01*
X150122380Y-123912380D01*
X149979523Y-123960000D01*
X149884285Y-124055238D01*
X149836666Y-124150476D01*
X149789047Y-124340952D01*
X149789047Y-124483809D01*
X149836666Y-124674285D01*
X149884285Y-124769523D01*
X149979523Y-124864761D01*
X150122380Y-124912380D01*
X150360476Y-124912380D01*
X149360476Y-124912380D02*
X149360476Y-123912380D01*
X148360476Y-123960000D02*
X148455714Y-123912380D01*
X148598571Y-123912380D01*
X148741428Y-123960000D01*
X148836666Y-124055238D01*
X148884285Y-124150476D01*
X148931904Y-124340952D01*
X148931904Y-124483809D01*
X148884285Y-124674285D01*
X148836666Y-124769523D01*
X148741428Y-124864761D01*
X148598571Y-124912380D01*
X148503333Y-124912380D01*
X148360476Y-124864761D01*
X148312857Y-124817142D01*
X148312857Y-124483809D01*
X148503333Y-124483809D01*
X162369523Y-119165714D02*
X162369523Y-119832380D01*
X162607619Y-118784761D02*
X162845714Y-119499047D01*
X162226666Y-119499047D01*
X152233333Y-89344285D02*
X152233333Y-88868095D01*
X151947619Y-89439523D02*
X152947619Y-89106190D01*
X151947619Y-88772857D01*
X152947619Y-88439523D02*
X152138095Y-88439523D01*
X152042857Y-88391904D01*
X151995238Y-88344285D01*
X151947619Y-88249047D01*
X151947619Y-88058571D01*
X151995238Y-87963333D01*
X152042857Y-87915714D01*
X152138095Y-87868095D01*
X152947619Y-87868095D01*
X152947619Y-87487142D02*
X151947619Y-86820476D01*
X152947619Y-86820476D02*
X151947619Y-87487142D01*
X152947619Y-86249047D02*
X152947619Y-86153809D01*
X152900000Y-86058571D01*
X152852380Y-86010952D01*
X152757142Y-85963333D01*
X152566666Y-85915714D01*
X152328571Y-85915714D01*
X152138095Y-85963333D01*
X152042857Y-86010952D01*
X151995238Y-86058571D01*
X151947619Y-86153809D01*
X151947619Y-86249047D01*
X151995238Y-86344285D01*
X152042857Y-86391904D01*
X152138095Y-86439523D01*
X152328571Y-86487142D01*
X152566666Y-86487142D01*
X152757142Y-86439523D01*
X152852380Y-86391904D01*
X152900000Y-86344285D01*
X152947619Y-86249047D01*
X159781904Y-118832380D02*
X160258095Y-118832380D01*
X160305714Y-119308571D01*
X160258095Y-119260952D01*
X160162857Y-119213333D01*
X159924761Y-119213333D01*
X159829523Y-119260952D01*
X159781904Y-119308571D01*
X159734285Y-119403809D01*
X159734285Y-119641904D01*
X159781904Y-119737142D01*
X159829523Y-119784761D01*
X159924761Y-119832380D01*
X160162857Y-119832380D01*
X160258095Y-119784761D01*
X160305714Y-119737142D01*
X132627619Y-85915476D02*
X132627619Y-86391666D01*
X132151428Y-86439285D01*
X132199047Y-86391666D01*
X132246666Y-86296428D01*
X132246666Y-86058333D01*
X132199047Y-85963095D01*
X132151428Y-85915476D01*
X132056190Y-85867857D01*
X131818095Y-85867857D01*
X131722857Y-85915476D01*
X131675238Y-85963095D01*
X131627619Y-86058333D01*
X131627619Y-86296428D01*
X131675238Y-86391666D01*
X131722857Y-86439285D01*
X132627619Y-85582142D02*
X131627619Y-85248809D01*
X132627619Y-84915476D01*
X155273333Y-118832380D02*
X154606666Y-118832380D01*
X155035238Y-119832380D01*
X147510476Y-119832380D02*
X148081904Y-119832380D01*
X147796190Y-119832380D02*
X147796190Y-118832380D01*
X147891428Y-118975238D01*
X147986666Y-119070476D01*
X148081904Y-119118095D01*
X146891428Y-118832380D02*
X146796190Y-118832380D01*
X146700952Y-118880000D01*
X146653333Y-118927619D01*
X146605714Y-119022857D01*
X146558095Y-119213333D01*
X146558095Y-119451428D01*
X146605714Y-119641904D01*
X146653333Y-119737142D01*
X146700952Y-119784761D01*
X146796190Y-119832380D01*
X146891428Y-119832380D01*
X146986666Y-119784761D01*
X147034285Y-119737142D01*
X147081904Y-119641904D01*
X147129523Y-119451428D01*
X147129523Y-119213333D01*
X147081904Y-119022857D01*
X147034285Y-118927619D01*
X146986666Y-118880000D01*
X146891428Y-118832380D01*
X169894285Y-119832380D02*
X170465714Y-119832380D01*
X170180000Y-119832380D02*
X170180000Y-118832380D01*
X170275238Y-118975238D01*
X170370476Y-119070476D01*
X170465714Y-119118095D01*
X172767619Y-118832380D02*
X172672380Y-118832380D01*
X172577142Y-118880000D01*
X172529523Y-118927619D01*
X172481904Y-119022857D01*
X172434285Y-119213333D01*
X172434285Y-119451428D01*
X172481904Y-119641904D01*
X172529523Y-119737142D01*
X172577142Y-119784761D01*
X172672380Y-119832380D01*
X172767619Y-119832380D01*
X172862857Y-119784761D01*
X172910476Y-119737142D01*
X172958095Y-119641904D01*
X173005714Y-119451428D01*
X173005714Y-119213333D01*
X172958095Y-119022857D01*
X172910476Y-118927619D01*
X172862857Y-118880000D01*
X172767619Y-118832380D01*
X157289523Y-118832380D02*
X157480000Y-118832380D01*
X157575238Y-118880000D01*
X157622857Y-118927619D01*
X157718095Y-119070476D01*
X157765714Y-119260952D01*
X157765714Y-119641904D01*
X157718095Y-119737142D01*
X157670476Y-119784761D01*
X157575238Y-119832380D01*
X157384761Y-119832380D01*
X157289523Y-119784761D01*
X157241904Y-119737142D01*
X157194285Y-119641904D01*
X157194285Y-119403809D01*
X157241904Y-119308571D01*
X157289523Y-119260952D01*
X157384761Y-119213333D01*
X157575238Y-119213333D01*
X157670476Y-119260952D01*
X157718095Y-119308571D01*
X157765714Y-119403809D01*
X135120000Y-85851904D02*
X135167619Y-85947142D01*
X135167619Y-86090000D01*
X135120000Y-86232857D01*
X135024761Y-86328095D01*
X134929523Y-86375714D01*
X134739047Y-86423333D01*
X134596190Y-86423333D01*
X134405714Y-86375714D01*
X134310476Y-86328095D01*
X134215238Y-86232857D01*
X134167619Y-86090000D01*
X134167619Y-85994761D01*
X134215238Y-85851904D01*
X134262857Y-85804285D01*
X134596190Y-85804285D01*
X134596190Y-85994761D01*
X134167619Y-85375714D02*
X135167619Y-85375714D01*
X134167619Y-84804285D01*
X135167619Y-84804285D01*
X134167619Y-84328095D02*
X135167619Y-84328095D01*
X135167619Y-84090000D01*
X135120000Y-83947142D01*
X135024761Y-83851904D01*
X134929523Y-83804285D01*
X134739047Y-83756666D01*
X134596190Y-83756666D01*
X134405714Y-83804285D01*
X134310476Y-83851904D01*
X134215238Y-83947142D01*
X134167619Y-84090000D01*
X134167619Y-84328095D01*
X175807619Y-86566190D02*
X175807619Y-85947142D01*
X175426666Y-86280476D01*
X175426666Y-86137619D01*
X175379047Y-86042380D01*
X175331428Y-85994761D01*
X175236190Y-85947142D01*
X174998095Y-85947142D01*
X174902857Y-85994761D01*
X174855238Y-86042380D01*
X174807619Y-86137619D01*
X174807619Y-86423333D01*
X174855238Y-86518571D01*
X174902857Y-86566190D01*
X174902857Y-85518571D02*
X174855238Y-85470952D01*
X174807619Y-85518571D01*
X174855238Y-85566190D01*
X174902857Y-85518571D01*
X174807619Y-85518571D01*
X175807619Y-85137619D02*
X175807619Y-84518571D01*
X175426666Y-84851904D01*
X175426666Y-84709047D01*
X175379047Y-84613809D01*
X175331428Y-84566190D01*
X175236190Y-84518571D01*
X174998095Y-84518571D01*
X174902857Y-84566190D01*
X174855238Y-84613809D01*
X174807619Y-84709047D01*
X174807619Y-84994761D01*
X174855238Y-85090000D01*
X174902857Y-85137619D01*
X175807619Y-84232857D02*
X174807619Y-83899523D01*
X175807619Y-83566190D01*
X173220000Y-85851904D02*
X173267619Y-85947142D01*
X173267619Y-86090000D01*
X173220000Y-86232857D01*
X173124761Y-86328095D01*
X173029523Y-86375714D01*
X172839047Y-86423333D01*
X172696190Y-86423333D01*
X172505714Y-86375714D01*
X172410476Y-86328095D01*
X172315238Y-86232857D01*
X172267619Y-86090000D01*
X172267619Y-85994761D01*
X172315238Y-85851904D01*
X172362857Y-85804285D01*
X172696190Y-85804285D01*
X172696190Y-85994761D01*
X172267619Y-85375714D02*
X173267619Y-85375714D01*
X172267619Y-84804285D01*
X173267619Y-84804285D01*
X172267619Y-84328095D02*
X173267619Y-84328095D01*
X173267619Y-84090000D01*
X173220000Y-83947142D01*
X173124761Y-83851904D01*
X173029523Y-83804285D01*
X172839047Y-83756666D01*
X172696190Y-83756666D01*
X172505714Y-83804285D01*
X172410476Y-83851904D01*
X172315238Y-83947142D01*
X172267619Y-84090000D01*
X172267619Y-84328095D01*
X144970476Y-119832380D02*
X145541904Y-119832380D01*
X145256190Y-119832380D02*
X145256190Y-118832380D01*
X145351428Y-118975238D01*
X145446666Y-119070476D01*
X145541904Y-119118095D01*
X144018095Y-119832380D02*
X144589523Y-119832380D01*
X144303809Y-119832380D02*
X144303809Y-118832380D01*
X144399047Y-118975238D01*
X144494285Y-119070476D01*
X144589523Y-119118095D01*
X152495238Y-119260952D02*
X152590476Y-119213333D01*
X152638095Y-119165714D01*
X152685714Y-119070476D01*
X152685714Y-119022857D01*
X152638095Y-118927619D01*
X152590476Y-118880000D01*
X152495238Y-118832380D01*
X152304761Y-118832380D01*
X152209523Y-118880000D01*
X152161904Y-118927619D01*
X152114285Y-119022857D01*
X152114285Y-119070476D01*
X152161904Y-119165714D01*
X152209523Y-119213333D01*
X152304761Y-119260952D01*
X152495238Y-119260952D01*
X152590476Y-119308571D01*
X152638095Y-119356190D01*
X152685714Y-119451428D01*
X152685714Y-119641904D01*
X152638095Y-119737142D01*
X152590476Y-119784761D01*
X152495238Y-119832380D01*
X152304761Y-119832380D01*
X152209523Y-119784761D01*
X152161904Y-119737142D01*
X152114285Y-119641904D01*
X152114285Y-119451428D01*
X152161904Y-119356190D01*
X152209523Y-119308571D01*
X152304761Y-119260952D01*
X142430476Y-119832380D02*
X143001904Y-119832380D01*
X142716190Y-119832380D02*
X142716190Y-118832380D01*
X142811428Y-118975238D01*
X142906666Y-119070476D01*
X143001904Y-119118095D01*
X142049523Y-118927619D02*
X142001904Y-118880000D01*
X141906666Y-118832380D01*
X141668571Y-118832380D01*
X141573333Y-118880000D01*
X141525714Y-118927619D01*
X141478095Y-119022857D01*
X141478095Y-119118095D01*
X141525714Y-119260952D01*
X142097142Y-119832380D01*
X141478095Y-119832380D01*
X150050476Y-119832380D02*
X149860000Y-119832380D01*
X149764761Y-119784761D01*
X149717142Y-119737142D01*
X149621904Y-119594285D01*
X149574285Y-119403809D01*
X149574285Y-119022857D01*
X149621904Y-118927619D01*
X149669523Y-118880000D01*
X149764761Y-118832380D01*
X149955238Y-118832380D01*
X150050476Y-118880000D01*
X150098095Y-118927619D01*
X150145714Y-119022857D01*
X150145714Y-119260952D01*
X150098095Y-119356190D01*
X150050476Y-119403809D01*
X149955238Y-119451428D01*
X149764761Y-119451428D01*
X149669523Y-119403809D01*
X149621904Y-119356190D01*
X149574285Y-119260952D01*
X165433333Y-118832380D02*
X164814285Y-118832380D01*
X165147619Y-119213333D01*
X165004761Y-119213333D01*
X164909523Y-119260952D01*
X164861904Y-119308571D01*
X164814285Y-119403809D01*
X164814285Y-119641904D01*
X164861904Y-119737142D01*
X164909523Y-119784761D01*
X165004761Y-119832380D01*
X165290476Y-119832380D01*
X165385714Y-119784761D01*
X165433333Y-119737142D01*
X167925714Y-118927619D02*
X167878095Y-118880000D01*
X167782857Y-118832380D01*
X167544761Y-118832380D01*
X167449523Y-118880000D01*
X167401904Y-118927619D01*
X167354285Y-119022857D01*
X167354285Y-119118095D01*
X167401904Y-119260952D01*
X167973333Y-119832380D01*
X167354285Y-119832380D01*
X154773333Y-89344285D02*
X154773333Y-88868095D01*
X154487619Y-89439523D02*
X155487619Y-89106190D01*
X154487619Y-88772857D01*
X155487619Y-88439523D02*
X154678095Y-88439523D01*
X154582857Y-88391904D01*
X154535238Y-88344285D01*
X154487619Y-88249047D01*
X154487619Y-88058571D01*
X154535238Y-87963333D01*
X154582857Y-87915714D01*
X154678095Y-87868095D01*
X155487619Y-87868095D01*
X155487619Y-87487142D02*
X154487619Y-86820476D01*
X155487619Y-86820476D02*
X154487619Y-87487142D01*
X154487619Y-85915714D02*
X154487619Y-86487142D01*
X154487619Y-86201428D02*
X155487619Y-86201428D01*
X155344761Y-86296666D01*
X155249523Y-86391904D01*
X155201904Y-86487142D01*
D12*
G36*
X152320006Y-137795431D02*
G01*
X151320005Y-137218080D01*
X148820002Y-138661457D01*
X150320003Y-136640729D01*
X149320002Y-136063378D01*
X146319999Y-140104835D01*
X147320000Y-140682186D01*
X152320006Y-137795431D01*
G37*
G36*
X148320001Y-135486027D02*
G01*
X147320000Y-134908676D01*
X142319994Y-137795431D01*
X143319994Y-138372781D01*
X148320001Y-135486027D01*
G37*
G36*
X147069999Y-128702152D02*
G01*
X147069313Y-128952034D01*
X147069039Y-129201923D01*
X147069087Y-129451818D01*
X147069369Y-129701718D01*
X147069793Y-129951620D01*
X147070272Y-130201523D01*
X147070714Y-130451425D01*
X147071030Y-130701325D01*
X147071131Y-130951221D01*
X147070927Y-131201111D01*
X147070327Y-131450995D01*
X147069243Y-131700869D01*
X147067585Y-131950733D01*
X147065262Y-132200585D01*
X147062186Y-132450423D01*
X147045133Y-132698851D01*
X147011533Y-132945451D01*
X146961724Y-133189186D01*
X146896043Y-133429022D01*
X146814825Y-133663925D01*
X146718408Y-133892859D01*
X146607127Y-134114789D01*
X146481320Y-134328680D01*
X146341324Y-134533497D01*
X146187473Y-134728206D01*
X146020106Y-134911770D01*
X145839559Y-135083156D01*
X145646169Y-135241329D01*
X145451647Y-135382353D01*
X145251939Y-135515409D01*
X145048175Y-135642221D01*
X144841482Y-135764512D01*
X144632988Y-135884007D01*
X144423822Y-136002430D01*
X144215111Y-136121504D01*
X144007984Y-136242954D01*
X143796478Y-136351920D01*
X143573769Y-136453586D01*
X143343033Y-136535043D01*
X143107450Y-136583384D01*
X142870195Y-136585703D01*
X142634447Y-136529092D01*
X142433742Y-136388518D01*
X142289015Y-136201886D01*
X142190491Y-135982552D01*
X142128396Y-135743874D01*
X142092953Y-135499207D01*
X142074387Y-135261908D01*
X142072524Y-134999573D01*
X142071153Y-134737230D01*
X142070213Y-134474882D01*
X142069638Y-134212528D01*
X142069366Y-133950170D01*
X142069332Y-133687809D01*
X142069473Y-133425446D01*
X142069725Y-133163080D01*
X142070024Y-132900715D01*
X142070306Y-132638349D01*
X142070508Y-132375985D01*
X142070566Y-132113623D01*
X142070417Y-131851263D01*
X142069995Y-131588907D01*
X142269996Y-131473437D01*
X142469996Y-131357967D01*
X142669996Y-131242497D01*
X142869996Y-131127027D01*
X143069997Y-131011556D01*
X143070391Y-131268817D01*
X143070533Y-131526082D01*
X143070482Y-131783351D01*
X143070297Y-132040622D01*
X143070035Y-132297894D01*
X143069756Y-132555167D01*
X143069518Y-132812439D01*
X143069379Y-133069710D01*
X143069397Y-133326977D01*
X143069632Y-133584240D01*
X143070141Y-133841499D01*
X143070983Y-134098751D01*
X143072217Y-134355997D01*
X143073900Y-134613234D01*
X143088810Y-134797450D01*
X143146825Y-134980559D01*
X143248654Y-135134314D01*
X143395008Y-135230466D01*
X143586596Y-135240765D01*
X143821944Y-135170199D01*
X144044364Y-135067809D01*
X144258932Y-134946429D01*
X144470725Y-134818896D01*
X144684820Y-134698045D01*
X144886196Y-134584562D01*
X145086045Y-134464711D01*
X145279115Y-134334879D01*
X145460155Y-134191452D01*
X145623915Y-134030816D01*
X145765144Y-133849359D01*
X145878592Y-133643465D01*
X145974261Y-133401582D01*
X146032604Y-133152589D01*
X146062353Y-132898331D01*
X146072237Y-132640651D01*
X146070985Y-132381394D01*
X146067329Y-132122405D01*
X146069998Y-131865529D01*
X146069998Y-131606926D01*
X146069998Y-131348324D01*
X146069998Y-131089721D01*
X146069998Y-130831119D01*
X146069998Y-130572516D01*
X146069998Y-130313914D01*
X146069998Y-130055311D01*
X146069998Y-129796709D01*
X146069998Y-129538106D01*
X146069998Y-129279503D01*
X146269998Y-129164033D01*
X146469998Y-129048563D01*
X146669998Y-128933093D01*
X146869999Y-128817623D01*
X147069999Y-128702152D01*
G37*
G36*
X152570007Y-137362417D02*
G01*
X152570007Y-137099984D01*
X152570007Y-136837552D01*
X152570007Y-136575120D01*
X152570007Y-136312688D01*
X152570007Y-136050256D01*
X152570007Y-135787823D01*
X152570007Y-135525391D01*
X152570007Y-135262959D01*
X152570007Y-135000527D01*
X152570007Y-134738094D01*
X152570007Y-134475662D01*
X152570007Y-134213230D01*
X152570007Y-133950798D01*
X152570007Y-133688365D01*
X152570007Y-133425933D01*
X152570007Y-133163501D01*
X152570007Y-132901069D01*
X152570007Y-132638636D01*
X152570007Y-132376204D01*
X152570007Y-132113772D01*
X152570007Y-131851340D01*
X152570007Y-131588907D01*
X152370006Y-131473437D01*
X152170006Y-131357967D01*
X151970006Y-131242497D01*
X151770005Y-131127027D01*
X151570005Y-131011556D01*
X151470005Y-131242497D01*
X151370005Y-131473437D01*
X151270005Y-131704378D01*
X151170005Y-131935318D01*
X151070004Y-132166258D01*
X150970004Y-132397199D01*
X150870004Y-132628139D01*
X150770004Y-132859080D01*
X150670004Y-133090020D01*
X150570004Y-133320960D01*
X150470004Y-133551901D01*
X150370003Y-133782841D01*
X150270003Y-134013782D01*
X150170003Y-134244722D01*
X150070003Y-134475662D01*
X149998574Y-134228226D01*
X149927146Y-133980790D01*
X149855717Y-133733354D01*
X149784288Y-133485918D01*
X149712860Y-133238482D01*
X149641431Y-132991045D01*
X149570002Y-132743609D01*
X149498574Y-132496173D01*
X149427145Y-132248737D01*
X149355716Y-132001301D01*
X149284288Y-131753865D01*
X149212859Y-131506429D01*
X149141431Y-131258993D01*
X149070002Y-131011556D01*
X148998573Y-130764120D01*
X148927145Y-130516684D01*
X148855716Y-130269248D01*
X148784287Y-130021812D01*
X148712859Y-129774376D01*
X148641430Y-129526940D01*
X148570001Y-129279503D01*
X148370001Y-129164033D01*
X148170001Y-129048563D01*
X147970001Y-128933093D01*
X147770000Y-128817623D01*
X147570000Y-128702152D01*
X147570000Y-128964585D01*
X147570000Y-129227017D01*
X147570000Y-129489449D01*
X147570000Y-129751881D01*
X147570000Y-130014314D01*
X147570000Y-130276746D01*
X147570000Y-130539178D01*
X147570000Y-130801611D01*
X147570000Y-131064043D01*
X147570000Y-131326475D01*
X147570000Y-131588907D01*
X147570000Y-131851340D01*
X147570000Y-132113772D01*
X147570000Y-132376204D01*
X147570000Y-132638636D01*
X147570000Y-132901069D01*
X147570000Y-133163501D01*
X147570000Y-133425933D01*
X147570000Y-133688365D01*
X147570000Y-133950798D01*
X147570000Y-134213230D01*
X147570000Y-134475662D01*
X147770000Y-134591132D01*
X147970001Y-134706603D01*
X148170001Y-134822073D01*
X148370001Y-134937543D01*
X148570001Y-135053013D01*
X148570001Y-134790581D01*
X148570001Y-134528149D01*
X148570001Y-134265716D01*
X148570001Y-134003284D01*
X148570001Y-133740852D01*
X148570001Y-133478420D01*
X148570001Y-133215987D01*
X148570001Y-132953555D01*
X148570001Y-132691123D01*
X148570001Y-132428691D01*
X148570001Y-132166258D01*
X148641430Y-132413694D01*
X148712859Y-132661131D01*
X148784287Y-132908567D01*
X148855716Y-133156003D01*
X148927145Y-133403439D01*
X148998573Y-133650875D01*
X149070002Y-133898311D01*
X149141431Y-134145747D01*
X149212859Y-134393184D01*
X149284288Y-134640620D01*
X149355717Y-134888056D01*
X149427145Y-135135492D01*
X149498574Y-135382928D01*
X149570003Y-135630364D01*
X149770003Y-135745834D01*
X149970003Y-135861305D01*
X150170003Y-135976775D01*
X150370004Y-136092245D01*
X150570004Y-136207715D01*
X150670004Y-135976775D01*
X150770004Y-135745834D01*
X150870004Y-135514894D01*
X150970004Y-135283954D01*
X151070005Y-135053013D01*
X151170005Y-134822073D01*
X151270005Y-134591132D01*
X151370005Y-134360192D01*
X151470005Y-134129252D01*
X151570005Y-133898311D01*
X151570005Y-134160744D01*
X151570005Y-134423176D01*
X151570005Y-134685608D01*
X151570005Y-134948040D01*
X151570005Y-135210473D01*
X151570005Y-135472905D01*
X151570005Y-135735337D01*
X151570005Y-135997769D01*
X151570005Y-136260202D01*
X151570005Y-136522634D01*
X151570005Y-136785066D01*
X151770005Y-136900536D01*
X151970006Y-137016007D01*
X152170006Y-137131477D01*
X152370006Y-137246947D01*
X152570007Y-137362417D01*
G37*
G36*
X147320000Y-127403113D02*
G01*
X147320000Y-127980464D01*
X147098845Y-128108147D01*
X146877691Y-128235831D01*
X146656536Y-128363514D01*
X146435382Y-128491197D01*
X146214227Y-128618881D01*
X145993073Y-128746564D01*
X145771918Y-128874247D01*
X145550764Y-129001931D01*
X145329609Y-129129614D01*
X145108455Y-129257298D01*
X144887300Y-129384981D01*
X144666146Y-129512664D01*
X144444991Y-129640348D01*
X144223837Y-129768031D01*
X144002682Y-129895715D01*
X143781528Y-130023398D01*
X143560373Y-130151081D01*
X143339218Y-130278765D01*
X143118064Y-130406448D01*
X142896909Y-130534131D01*
X142675755Y-130661815D01*
X142454600Y-130789498D01*
X142233446Y-130917182D01*
X142012291Y-131044865D01*
X141791136Y-131172548D01*
X141569982Y-131300232D01*
X141569982Y-131555599D01*
X141569982Y-131810965D01*
X141569982Y-132066332D01*
X141569982Y-132321699D01*
X141569982Y-132577066D01*
X141569982Y-132832433D01*
X141569982Y-133087799D01*
X141569982Y-133343166D01*
X141569982Y-133598533D01*
X141569982Y-133853900D01*
X141569982Y-134109266D01*
X141569982Y-134364633D01*
X141569982Y-134620000D01*
X141569982Y-134875367D01*
X141569982Y-135130734D01*
X141569982Y-135386100D01*
X141569982Y-135641467D01*
X141569982Y-135896834D01*
X141569982Y-136152201D01*
X141569982Y-136407567D01*
X141569982Y-136662934D01*
X141569982Y-136918301D01*
X141569982Y-137173668D01*
X141569982Y-137429034D01*
X141569982Y-137684401D01*
X141569982Y-137939768D01*
X141791136Y-138067451D01*
X142012291Y-138195135D01*
X142233446Y-138322818D01*
X142454600Y-138450501D01*
X142675755Y-138578185D01*
X142896909Y-138705868D01*
X143118064Y-138833552D01*
X143339218Y-138961235D01*
X143560373Y-139088918D01*
X143781528Y-139216602D01*
X144002682Y-139344285D01*
X144223837Y-139471969D01*
X144444991Y-139599652D01*
X144666146Y-139727335D01*
X144887300Y-139855019D01*
X145108455Y-139982702D01*
X145329609Y-140110385D01*
X145550764Y-140238069D01*
X145771918Y-140365752D01*
X145993073Y-140493436D01*
X146214227Y-140621119D01*
X146435382Y-140748802D01*
X146656536Y-140876486D01*
X146877691Y-141004169D01*
X147098845Y-141131853D01*
X147320000Y-141259536D01*
X147541154Y-141131853D01*
X147762309Y-141004169D01*
X147983463Y-140876486D01*
X148204618Y-140748802D01*
X148425772Y-140621119D01*
X148646927Y-140493436D01*
X148868081Y-140365752D01*
X149089236Y-140238069D01*
X149310391Y-140110385D01*
X149531545Y-139982702D01*
X149752700Y-139855019D01*
X149973854Y-139727335D01*
X150195009Y-139599652D01*
X150416163Y-139471969D01*
X150637318Y-139344285D01*
X150858472Y-139216602D01*
X151079627Y-139088918D01*
X151300781Y-138961235D01*
X151521936Y-138833552D01*
X151743090Y-138705868D01*
X151964245Y-138578185D01*
X152185399Y-138450501D01*
X152406554Y-138322818D01*
X152627708Y-138195135D01*
X152848863Y-138067451D01*
X153070018Y-137939768D01*
X153070018Y-137684401D01*
X153070018Y-137429034D01*
X153070018Y-137173668D01*
X153070018Y-136918301D01*
X153070018Y-136662934D01*
X153070018Y-136407567D01*
X153070018Y-136152201D01*
X153070018Y-135896834D01*
X153070018Y-135641467D01*
X153070018Y-135386100D01*
X153070018Y-135130734D01*
X153070018Y-134875367D01*
X153070018Y-134620000D01*
X153070018Y-134364633D01*
X153070018Y-134109266D01*
X153070018Y-133853900D01*
X153070018Y-133598533D01*
X153070018Y-133343166D01*
X153070018Y-133087799D01*
X153070018Y-132832433D01*
X153070018Y-132577066D01*
X153070018Y-132321699D01*
X153070018Y-132066332D01*
X153070018Y-131810965D01*
X153070018Y-131555599D01*
X153070018Y-131300232D01*
X152848863Y-131172548D01*
X152627708Y-131044865D01*
X152406554Y-130917182D01*
X152185399Y-130789498D01*
X151964245Y-130661815D01*
X151743090Y-130534131D01*
X151521936Y-130406448D01*
X151300781Y-130278765D01*
X151079627Y-130151081D01*
X150858472Y-130023398D01*
X150637318Y-129895715D01*
X150416163Y-129768031D01*
X150195009Y-129640348D01*
X149973854Y-129512664D01*
X149752700Y-129384981D01*
X149531545Y-129257298D01*
X149310391Y-129129614D01*
X149089236Y-129001931D01*
X148868081Y-128874247D01*
X148646927Y-128746564D01*
X148425772Y-128618881D01*
X148204618Y-128491197D01*
X147983463Y-128363514D01*
X147762309Y-128235831D01*
X147541154Y-128108147D01*
X147320000Y-127980464D01*
X147320000Y-127403113D01*
X147543214Y-127531986D01*
X147766428Y-127660859D01*
X147989643Y-127789732D01*
X148212857Y-127918605D01*
X148436071Y-128047478D01*
X148659286Y-128176351D01*
X148882500Y-128305224D01*
X149105714Y-128434097D01*
X149328928Y-128562970D01*
X149552143Y-128691843D01*
X149775357Y-128820716D01*
X149998571Y-128949589D01*
X150221786Y-129078462D01*
X150445000Y-129207334D01*
X150668214Y-129336207D01*
X150891428Y-129465080D01*
X151114643Y-129593953D01*
X151337857Y-129722826D01*
X151561071Y-129851699D01*
X151784286Y-129980572D01*
X152007500Y-130109445D01*
X152230714Y-130238318D01*
X152453928Y-130367191D01*
X152677143Y-130496064D01*
X152900357Y-130624937D01*
X153123571Y-130753810D01*
X153346786Y-130882683D01*
X153570000Y-131011556D01*
X153570000Y-131269302D01*
X153570000Y-131527048D01*
X153570000Y-131784794D01*
X153570000Y-132042540D01*
X153570000Y-132300286D01*
X153570000Y-132558032D01*
X153570000Y-132815778D01*
X153570000Y-133073524D01*
X153570000Y-133331270D01*
X153570000Y-133589016D01*
X153570000Y-133846762D01*
X153570000Y-134104508D01*
X153570000Y-134362254D01*
X153570000Y-134620000D01*
X153570000Y-134877746D01*
X153570000Y-135135492D01*
X153570000Y-135393238D01*
X153570000Y-135650984D01*
X153570000Y-135908730D01*
X153570000Y-136166476D01*
X153570000Y-136424222D01*
X153570000Y-136681968D01*
X153570000Y-136939714D01*
X153570000Y-137197460D01*
X153570000Y-137455206D01*
X153570000Y-137712952D01*
X153570000Y-137970698D01*
X153570000Y-138228444D01*
X153346786Y-138357317D01*
X153123571Y-138486190D01*
X152900357Y-138615063D01*
X152677143Y-138743936D01*
X152453928Y-138872809D01*
X152230714Y-139001682D01*
X152007500Y-139130555D01*
X151784286Y-139259428D01*
X151561071Y-139388301D01*
X151337857Y-139517174D01*
X151114643Y-139646047D01*
X150891428Y-139774920D01*
X150668214Y-139903793D01*
X150445000Y-140032666D01*
X150221786Y-140161539D01*
X149998571Y-140290412D01*
X149775357Y-140419285D01*
X149552143Y-140548158D01*
X149328928Y-140677031D01*
X149105714Y-140805904D01*
X148882500Y-140934776D01*
X148659286Y-141063649D01*
X148436071Y-141192522D01*
X148212857Y-141321395D01*
X147989643Y-141450268D01*
X147766428Y-141579141D01*
X147543214Y-141708014D01*
X147320000Y-141836887D01*
X147096785Y-141708014D01*
X146873571Y-141579141D01*
X146650357Y-141450268D01*
X146427143Y-141321395D01*
X146203928Y-141192522D01*
X145980714Y-141063649D01*
X145757500Y-140934776D01*
X145534285Y-140805904D01*
X145311071Y-140677031D01*
X145087857Y-140548158D01*
X144864643Y-140419285D01*
X144641428Y-140290412D01*
X144418214Y-140161539D01*
X144195000Y-140032666D01*
X143971785Y-139903793D01*
X143748571Y-139774920D01*
X143525357Y-139646047D01*
X143302143Y-139517174D01*
X143078928Y-139388301D01*
X142855714Y-139259428D01*
X142632500Y-139130555D01*
X142409286Y-139001682D01*
X142186071Y-138872809D01*
X141962857Y-138743936D01*
X141739643Y-138615063D01*
X141516429Y-138486190D01*
X141293214Y-138357317D01*
X141070000Y-138228444D01*
X141070000Y-137970698D01*
X141070000Y-137712952D01*
X141070000Y-137455206D01*
X141070000Y-137197460D01*
X141070000Y-136939714D01*
X141070000Y-136681968D01*
X141070000Y-136424222D01*
X141070000Y-136166476D01*
X141070000Y-135908730D01*
X141070000Y-135650984D01*
X141070000Y-135393238D01*
X141070000Y-135135492D01*
X141070000Y-134877746D01*
X141070000Y-134620000D01*
X141070000Y-134362254D01*
X141070000Y-134104508D01*
X141070000Y-133846762D01*
X141070000Y-133589016D01*
X141070000Y-133331270D01*
X141070000Y-133073524D01*
X141070000Y-132815778D01*
X141070000Y-132558032D01*
X141070000Y-132300286D01*
X141070000Y-132042540D01*
X141070000Y-131784794D01*
X141070000Y-131527048D01*
X141070000Y-131269302D01*
X141070000Y-131011556D01*
X141293214Y-130882683D01*
X141516429Y-130753810D01*
X141739643Y-130624937D01*
X141962857Y-130496064D01*
X142186071Y-130367191D01*
X142409286Y-130238318D01*
X142632500Y-130109445D01*
X142855714Y-129980572D01*
X143078928Y-129851699D01*
X143302143Y-129722826D01*
X143525357Y-129593953D01*
X143748571Y-129465080D01*
X143971785Y-129336207D01*
X144195000Y-129207334D01*
X144418214Y-129078462D01*
X144641428Y-128949589D01*
X144864643Y-128820716D01*
X145087857Y-128691843D01*
X145311071Y-128562970D01*
X145534285Y-128434097D01*
X145757500Y-128305224D01*
X145980714Y-128176351D01*
X146203928Y-128047478D01*
X146427143Y-127918605D01*
X146650357Y-127789732D01*
X146873571Y-127660859D01*
X147096785Y-127531986D01*
X147320000Y-127403113D01*
G37*
D13*
X66372000Y-105775000D02*
X67922000Y-105775000D01*
X66372000Y-105775000D02*
X66372000Y-105475000D01*
X63572000Y-105475000D02*
X66372000Y-105475000D01*
X66372000Y-97475000D02*
X67922000Y-97475000D01*
X66372000Y-97775000D02*
X66372000Y-97475000D01*
X63572000Y-97775000D02*
X66372000Y-97775000D01*
X69622000Y-102525000D02*
X69172000Y-102925000D01*
X69622000Y-103325000D02*
X69622000Y-102525000D01*
X69172000Y-102925000D02*
X69622000Y-103325000D01*
D11*
X69124380Y-98865476D02*
X69838666Y-98865476D01*
X69981523Y-98817857D01*
X70076761Y-98722619D01*
X70124380Y-98579761D01*
X70124380Y-98484523D01*
X70124380Y-99865476D02*
X70124380Y-99294047D01*
X70124380Y-99579761D02*
X69124380Y-99579761D01*
X69267238Y-99484523D01*
X69362476Y-99389285D01*
X69410095Y-99294047D01*
X70124380Y-100817857D02*
X70124380Y-100246428D01*
X70124380Y-100532142D02*
X69124380Y-100532142D01*
X69267238Y-100436904D01*
X69362476Y-100341666D01*
X69410095Y-100246428D01*
M02*
