G04 #@! TF.GenerationSoftware,KiCad,Pcbnew,(5.1.8-0-10_14)*
G04 #@! TF.CreationDate,2020-12-31T12:29:52-08:00*
G04 #@! TF.ProjectId,esp32_sync,65737033-325f-4737-996e-632e6b696361,rev?*
G04 #@! TF.SameCoordinates,Original*
G04 #@! TF.FileFunction,Profile,NP*
%FSLAX46Y46*%
G04 Gerber Fmt 4.6, Leading zero omitted, Abs format (unit mm)*
G04 Created by KiCad (PCBNEW (5.1.8-0-10_14)) date 2020-12-31 12:29:52*
%MOMM*%
%LPD*%
G01*
G04 APERTURE LIST*
G04 #@! TA.AperFunction,Profile*
%ADD10C,0.050000*%
G04 #@! TD*
G04 APERTURE END LIST*
D10*
X188976000Y-79756000D02*
G75*
G02*
X190500000Y-81280000I0J-1524000D01*
G01*
X190500000Y-71120000D02*
G75*
G02*
X188976000Y-72644000I-1524000J0D01*
G01*
X188976000Y-155956000D02*
G75*
G02*
X190500000Y-157480000I0J-1524000D01*
G01*
X190500000Y-147320000D02*
G75*
G02*
X188976000Y-148844000I-1524000J0D01*
G01*
X65024000Y-148844000D02*
G75*
G02*
X63500000Y-147320000I0J1524000D01*
G01*
X63500000Y-157480000D02*
G75*
G02*
X65024000Y-155956000I1524000J0D01*
G01*
X63500000Y-81280000D02*
G75*
G02*
X65024000Y-79756000I1524000J0D01*
G01*
X65024000Y-72644000D02*
G75*
G02*
X63500000Y-71120000I0J1524000D01*
G01*
X63500000Y-71120000D02*
X63500000Y-69850000D01*
X63500000Y-69850000D02*
G75*
G02*
X69850000Y-63500000I6350000J0D01*
G01*
X184150000Y-63500000D02*
G75*
G02*
X190500000Y-69850000I0J-6350000D01*
G01*
X190500000Y-158750000D02*
G75*
G02*
X184150000Y-165100000I-6350000J0D01*
G01*
X63500000Y-157480000D02*
X63500000Y-158750000D01*
X69850000Y-165100000D02*
G75*
G02*
X63500000Y-158750000I0J6350000D01*
G01*
X190500000Y-81280000D02*
X190500000Y-147320000D01*
X177800000Y-79756000D02*
X188976000Y-79756000D01*
X188976000Y-72644000D02*
X177800000Y-72644000D01*
X177800000Y-148844000D02*
X188976000Y-148844000D01*
X177800000Y-155956000D02*
X188976000Y-155956000D01*
X101600000Y-165100000D02*
X184150000Y-165100000D01*
X69850000Y-155956000D02*
X65024000Y-155956000D01*
X65024000Y-148844000D02*
X69850000Y-148844000D01*
X65024000Y-79756000D02*
X69850000Y-79756000D01*
X65024000Y-72644000D02*
X69850000Y-72644000D01*
X184150000Y-63500000D02*
X69850000Y-63500000D01*
X190500000Y-157480000D02*
X190500000Y-158750000D01*
X190500000Y-71120000D02*
X190500000Y-69850000D01*
X177800000Y-79756000D02*
G75*
G02*
X177800000Y-72644000I0J3556000D01*
G01*
X177800000Y-155956000D02*
G75*
G02*
X177800000Y-148844000I0J3556000D01*
G01*
X63500000Y-147320000D02*
X63500000Y-81280000D01*
X76200000Y-148844000D02*
X69850000Y-148844000D01*
X76200000Y-79756000D02*
X69850000Y-79756000D01*
X76200000Y-72644000D02*
X69850000Y-72644000D01*
X69850000Y-165100000D02*
X101600000Y-165100000D01*
X76200000Y-155956000D02*
X69850000Y-155956000D01*
X76200000Y-72644000D02*
G75*
G02*
X76200000Y-79756000I0J-3556000D01*
G01*
X76200000Y-148844000D02*
G75*
G02*
X76200000Y-155956000I0J-3556000D01*
G01*
M02*
