G04 #@! TF.GenerationSoftware,KiCad,Pcbnew,(5.1.8-0-10_14)*
G04 #@! TF.CreationDate,2020-12-31T12:29:52-08:00*
G04 #@! TF.ProjectId,esp32_sync,65737033-325f-4737-996e-632e6b696361,rev?*
G04 #@! TF.SameCoordinates,Original*
G04 #@! TF.FileFunction,Soldermask,Top*
G04 #@! TF.FilePolarity,Negative*
%FSLAX46Y46*%
G04 Gerber Fmt 4.6, Leading zero omitted, Abs format (unit mm)*
G04 Created by KiCad (PCBNEW (5.1.8-0-10_14)) date 2020-12-31 12:29:52*
%MOMM*%
%LPD*%
G01*
G04 APERTURE LIST*
%ADD10R,2.000000X1.500000*%
%ADD11R,2.000000X3.800000*%
%ADD12O,1.700000X1.700000*%
%ADD13R,1.700000X1.700000*%
%ADD14C,1.850000*%
%ADD15R,1.850000X1.850000*%
%ADD16O,1.600000X1.600000*%
%ADD17C,1.600000*%
%ADD18R,0.900000X2.000000*%
%ADD19R,2.000000X0.900000*%
%ADD20R,5.000000X5.000000*%
%ADD21R,0.800000X0.900000*%
%ADD22R,0.900000X0.800000*%
%ADD23R,1.800000X4.400000*%
%ADD24O,1.800000X4.000000*%
%ADD25O,4.000000X1.800000*%
%ADD26O,1.400000X1.400000*%
%ADD27C,1.400000*%
%ADD28C,1.700000*%
%ADD29R,0.650000X1.060000*%
%ADD30R,0.900000X1.200000*%
%ADD31R,2.600000X2.600000*%
%ADD32O,1.600000X2.500000*%
%ADD33O,3.500000X7.000000*%
%ADD34R,5.000000X3.400000*%
%ADD35R,0.450000X1.050000*%
%ADD36R,1.300000X1.550000*%
%ADD37O,1.700000X1.350000*%
%ADD38O,1.500000X1.100000*%
G04 APERTURE END LIST*
G36*
G01*
X132530001Y-125965000D02*
X131629999Y-125965000D01*
G75*
G02*
X131380000Y-125715001I0J249999D01*
G01*
X131380000Y-125189999D01*
G75*
G02*
X131629999Y-124940000I249999J0D01*
G01*
X132530001Y-124940000D01*
G75*
G02*
X132780000Y-125189999I0J-249999D01*
G01*
X132780000Y-125715001D01*
G75*
G02*
X132530001Y-125965000I-249999J0D01*
G01*
G37*
G36*
G01*
X132530001Y-127790000D02*
X131629999Y-127790000D01*
G75*
G02*
X131380000Y-127540001I0J249999D01*
G01*
X131380000Y-127014999D01*
G75*
G02*
X131629999Y-126765000I249999J0D01*
G01*
X132530001Y-126765000D01*
G75*
G02*
X132780000Y-127014999I0J-249999D01*
G01*
X132780000Y-127540001D01*
G75*
G02*
X132530001Y-127790000I-249999J0D01*
G01*
G37*
D10*
X122326000Y-127240000D03*
X122326000Y-131840000D03*
X122326000Y-129540000D03*
D11*
X128626000Y-129540000D03*
G36*
G01*
X73425000Y-139515001D02*
X73425000Y-138614999D01*
G75*
G02*
X73674999Y-138365000I249999J0D01*
G01*
X74200001Y-138365000D01*
G75*
G02*
X74450000Y-138614999I0J-249999D01*
G01*
X74450000Y-139515001D01*
G75*
G02*
X74200001Y-139765000I-249999J0D01*
G01*
X73674999Y-139765000D01*
G75*
G02*
X73425000Y-139515001I0J249999D01*
G01*
G37*
G36*
G01*
X71600000Y-139515001D02*
X71600000Y-138614999D01*
G75*
G02*
X71849999Y-138365000I249999J0D01*
G01*
X72375001Y-138365000D01*
G75*
G02*
X72625000Y-138614999I0J-249999D01*
G01*
X72625000Y-139515001D01*
G75*
G02*
X72375001Y-139765000I-249999J0D01*
G01*
X71849999Y-139765000D01*
G75*
G02*
X71600000Y-139515001I0J249999D01*
G01*
G37*
G36*
G01*
X115883000Y-120637000D02*
X113733000Y-120637000D01*
G75*
G02*
X113483000Y-120387000I0J250000D01*
G01*
X113483000Y-119637000D01*
G75*
G02*
X113733000Y-119387000I250000J0D01*
G01*
X115883000Y-119387000D01*
G75*
G02*
X116133000Y-119637000I0J-250000D01*
G01*
X116133000Y-120387000D01*
G75*
G02*
X115883000Y-120637000I-250000J0D01*
G01*
G37*
G36*
G01*
X115883000Y-123437000D02*
X113733000Y-123437000D01*
G75*
G02*
X113483000Y-123187000I0J250000D01*
G01*
X113483000Y-122437000D01*
G75*
G02*
X113733000Y-122187000I250000J0D01*
G01*
X115883000Y-122187000D01*
G75*
G02*
X116133000Y-122437000I0J-250000D01*
G01*
X116133000Y-123187000D01*
G75*
G02*
X115883000Y-123437000I-250000J0D01*
G01*
G37*
G36*
G01*
X112235000Y-117406000D02*
X111285000Y-117406000D01*
G75*
G02*
X111035000Y-117156000I0J250000D01*
G01*
X111035000Y-116656000D01*
G75*
G02*
X111285000Y-116406000I250000J0D01*
G01*
X112235000Y-116406000D01*
G75*
G02*
X112485000Y-116656000I0J-250000D01*
G01*
X112485000Y-117156000D01*
G75*
G02*
X112235000Y-117406000I-250000J0D01*
G01*
G37*
G36*
G01*
X112235000Y-119306000D02*
X111285000Y-119306000D01*
G75*
G02*
X111035000Y-119056000I0J250000D01*
G01*
X111035000Y-118556000D01*
G75*
G02*
X111285000Y-118306000I250000J0D01*
G01*
X112235000Y-118306000D01*
G75*
G02*
X112485000Y-118556000I0J-250000D01*
G01*
X112485000Y-119056000D01*
G75*
G02*
X112235000Y-119306000I-250000J0D01*
G01*
G37*
G36*
G01*
X115258000Y-118331000D02*
X115258000Y-117381000D01*
G75*
G02*
X115508000Y-117131000I250000J0D01*
G01*
X116008000Y-117131000D01*
G75*
G02*
X116258000Y-117381000I0J-250000D01*
G01*
X116258000Y-118331000D01*
G75*
G02*
X116008000Y-118581000I-250000J0D01*
G01*
X115508000Y-118581000D01*
G75*
G02*
X115258000Y-118331000I0J250000D01*
G01*
G37*
G36*
G01*
X113358000Y-118331000D02*
X113358000Y-117381000D01*
G75*
G02*
X113608000Y-117131000I250000J0D01*
G01*
X114108000Y-117131000D01*
G75*
G02*
X114358000Y-117381000I0J-250000D01*
G01*
X114358000Y-118331000D01*
G75*
G02*
X114108000Y-118581000I-250000J0D01*
G01*
X113608000Y-118581000D01*
G75*
G02*
X113358000Y-118331000I0J250000D01*
G01*
G37*
D12*
X92710000Y-118745000D03*
X92710000Y-116205000D03*
X92710000Y-113665000D03*
D13*
X92710000Y-111125000D03*
D12*
X121920000Y-101600000D03*
X119380000Y-101600000D03*
D13*
X116840000Y-101600000D03*
D14*
X119380000Y-108585000D03*
X119380000Y-111125000D03*
X119380000Y-113665000D03*
X119380000Y-118745000D03*
D15*
X119380000Y-121285000D03*
G36*
G01*
X113915000Y-93020000D02*
X113415000Y-93020000D01*
G75*
G02*
X113190000Y-92795000I0J225000D01*
G01*
X113190000Y-92345000D01*
G75*
G02*
X113415000Y-92120000I225000J0D01*
G01*
X113915000Y-92120000D01*
G75*
G02*
X114140000Y-92345000I0J-225000D01*
G01*
X114140000Y-92795000D01*
G75*
G02*
X113915000Y-93020000I-225000J0D01*
G01*
G37*
G36*
G01*
X113915000Y-94570000D02*
X113415000Y-94570000D01*
G75*
G02*
X113190000Y-94345000I0J225000D01*
G01*
X113190000Y-93895000D01*
G75*
G02*
X113415000Y-93670000I225000J0D01*
G01*
X113915000Y-93670000D01*
G75*
G02*
X114140000Y-93895000I0J-225000D01*
G01*
X114140000Y-94345000D01*
G75*
G02*
X113915000Y-94570000I-225000J0D01*
G01*
G37*
G36*
G01*
X111140001Y-92445000D02*
X109839999Y-92445000D01*
G75*
G02*
X109590000Y-92195001I0J249999D01*
G01*
X109590000Y-91544999D01*
G75*
G02*
X109839999Y-91295000I249999J0D01*
G01*
X111140001Y-91295000D01*
G75*
G02*
X111390000Y-91544999I0J-249999D01*
G01*
X111390000Y-92195001D01*
G75*
G02*
X111140001Y-92445000I-249999J0D01*
G01*
G37*
G36*
G01*
X111140001Y-95395000D02*
X109839999Y-95395000D01*
G75*
G02*
X109590000Y-95145001I0J249999D01*
G01*
X109590000Y-94494999D01*
G75*
G02*
X109839999Y-94245000I249999J0D01*
G01*
X111140001Y-94245000D01*
G75*
G02*
X111390000Y-94494999I0J-249999D01*
G01*
X111390000Y-95145001D01*
G75*
G02*
X111140001Y-95395000I-249999J0D01*
G01*
G37*
G36*
G01*
X107565000Y-93020000D02*
X107065000Y-93020000D01*
G75*
G02*
X106840000Y-92795000I0J225000D01*
G01*
X106840000Y-92345000D01*
G75*
G02*
X107065000Y-92120000I225000J0D01*
G01*
X107565000Y-92120000D01*
G75*
G02*
X107790000Y-92345000I0J-225000D01*
G01*
X107790000Y-92795000D01*
G75*
G02*
X107565000Y-93020000I-225000J0D01*
G01*
G37*
G36*
G01*
X107565000Y-94570000D02*
X107065000Y-94570000D01*
G75*
G02*
X106840000Y-94345000I0J225000D01*
G01*
X106840000Y-93895000D01*
G75*
G02*
X107065000Y-93670000I225000J0D01*
G01*
X107565000Y-93670000D01*
G75*
G02*
X107790000Y-93895000I0J-225000D01*
G01*
X107790000Y-94345000D01*
G75*
G02*
X107565000Y-94570000I-225000J0D01*
G01*
G37*
D16*
X121920000Y-85090000D03*
D17*
X114420000Y-85090000D03*
D16*
X121920000Y-81280000D03*
D17*
X114420000Y-81280000D03*
D18*
X71755000Y-112150000D03*
X73025000Y-112150000D03*
X74295000Y-112150000D03*
X75565000Y-112150000D03*
X76835000Y-112150000D03*
X78105000Y-112150000D03*
X79375000Y-112150000D03*
X80645000Y-112150000D03*
X81915000Y-112150000D03*
X83185000Y-112150000D03*
X84455000Y-112150000D03*
X85725000Y-112150000D03*
X86995000Y-112150000D03*
X88265000Y-112150000D03*
D19*
X89265000Y-114935000D03*
X89265000Y-116205000D03*
X89265000Y-117475000D03*
X89265000Y-118745000D03*
X89265000Y-120015000D03*
X89265000Y-121285000D03*
X89265000Y-122555000D03*
X89265000Y-123825000D03*
X89265000Y-125095000D03*
X89265000Y-126365000D03*
D18*
X88265000Y-129150000D03*
X86995000Y-129150000D03*
X85725000Y-129150000D03*
X84455000Y-129150000D03*
X83185000Y-129150000D03*
X81915000Y-129150000D03*
X80645000Y-129150000D03*
X79375000Y-129150000D03*
X78105000Y-129150000D03*
X76835000Y-129150000D03*
X75565000Y-129150000D03*
X74295000Y-129150000D03*
X73025000Y-129150000D03*
X71755000Y-129150000D03*
D20*
X79255000Y-121650000D03*
D21*
X87630000Y-96155000D03*
X88580000Y-98155000D03*
X86680000Y-98155000D03*
G36*
G01*
X97771000Y-135058999D02*
X97771000Y-135959001D01*
G75*
G02*
X97521001Y-136209000I-249999J0D01*
G01*
X96995999Y-136209000D01*
G75*
G02*
X96746000Y-135959001I0J249999D01*
G01*
X96746000Y-135058999D01*
G75*
G02*
X96995999Y-134809000I249999J0D01*
G01*
X97521001Y-134809000D01*
G75*
G02*
X97771000Y-135058999I0J-249999D01*
G01*
G37*
G36*
G01*
X99596000Y-135058999D02*
X99596000Y-135959001D01*
G75*
G02*
X99346001Y-136209000I-249999J0D01*
G01*
X98820999Y-136209000D01*
G75*
G02*
X98571000Y-135959001I0J249999D01*
G01*
X98571000Y-135058999D01*
G75*
G02*
X98820999Y-134809000I249999J0D01*
G01*
X99346001Y-134809000D01*
G75*
G02*
X99596000Y-135058999I0J-249999D01*
G01*
G37*
G36*
G01*
X110001000Y-135324001D02*
X110001000Y-134423999D01*
G75*
G02*
X110250999Y-134174000I249999J0D01*
G01*
X110776001Y-134174000D01*
G75*
G02*
X111026000Y-134423999I0J-249999D01*
G01*
X111026000Y-135324001D01*
G75*
G02*
X110776001Y-135574000I-249999J0D01*
G01*
X110250999Y-135574000D01*
G75*
G02*
X110001000Y-135324001I0J249999D01*
G01*
G37*
G36*
G01*
X108176000Y-135324001D02*
X108176000Y-134423999D01*
G75*
G02*
X108425999Y-134174000I249999J0D01*
G01*
X108951001Y-134174000D01*
G75*
G02*
X109201000Y-134423999I0J-249999D01*
G01*
X109201000Y-135324001D01*
G75*
G02*
X108951001Y-135574000I-249999J0D01*
G01*
X108425999Y-135574000D01*
G75*
G02*
X108176000Y-135324001I0J249999D01*
G01*
G37*
G36*
G01*
X95065001Y-128862500D02*
X94164999Y-128862500D01*
G75*
G02*
X93915000Y-128612501I0J249999D01*
G01*
X93915000Y-128087499D01*
G75*
G02*
X94164999Y-127837500I249999J0D01*
G01*
X95065001Y-127837500D01*
G75*
G02*
X95315000Y-128087499I0J-249999D01*
G01*
X95315000Y-128612501D01*
G75*
G02*
X95065001Y-128862500I-249999J0D01*
G01*
G37*
G36*
G01*
X95065001Y-130687500D02*
X94164999Y-130687500D01*
G75*
G02*
X93915000Y-130437501I0J249999D01*
G01*
X93915000Y-129912499D01*
G75*
G02*
X94164999Y-129662500I249999J0D01*
G01*
X95065001Y-129662500D01*
G75*
G02*
X95315000Y-129912499I0J-249999D01*
G01*
X95315000Y-130437501D01*
G75*
G02*
X95065001Y-130687500I-249999J0D01*
G01*
G37*
G36*
G01*
X110001000Y-132784001D02*
X110001000Y-131883999D01*
G75*
G02*
X110250999Y-131634000I249999J0D01*
G01*
X110776001Y-131634000D01*
G75*
G02*
X111026000Y-131883999I0J-249999D01*
G01*
X111026000Y-132784001D01*
G75*
G02*
X110776001Y-133034000I-249999J0D01*
G01*
X110250999Y-133034000D01*
G75*
G02*
X110001000Y-132784001I0J249999D01*
G01*
G37*
G36*
G01*
X108176000Y-132784001D02*
X108176000Y-131883999D01*
G75*
G02*
X108425999Y-131634000I249999J0D01*
G01*
X108951001Y-131634000D01*
G75*
G02*
X109201000Y-131883999I0J-249999D01*
G01*
X109201000Y-132784001D01*
G75*
G02*
X108951001Y-133034000I-249999J0D01*
G01*
X108425999Y-133034000D01*
G75*
G02*
X108176000Y-132784001I0J249999D01*
G01*
G37*
G36*
G01*
X97771000Y-128708999D02*
X97771000Y-129609001D01*
G75*
G02*
X97521001Y-129859000I-249999J0D01*
G01*
X96995999Y-129859000D01*
G75*
G02*
X96746000Y-129609001I0J249999D01*
G01*
X96746000Y-128708999D01*
G75*
G02*
X96995999Y-128459000I249999J0D01*
G01*
X97521001Y-128459000D01*
G75*
G02*
X97771000Y-128708999I0J-249999D01*
G01*
G37*
G36*
G01*
X99596000Y-128708999D02*
X99596000Y-129609001D01*
G75*
G02*
X99346001Y-129859000I-249999J0D01*
G01*
X98820999Y-129859000D01*
G75*
G02*
X98571000Y-129609001I0J249999D01*
G01*
X98571000Y-128708999D01*
G75*
G02*
X98820999Y-128459000I249999J0D01*
G01*
X99346001Y-128459000D01*
G75*
G02*
X99596000Y-128708999I0J-249999D01*
G01*
G37*
G36*
G01*
X110001000Y-130244001D02*
X110001000Y-129343999D01*
G75*
G02*
X110250999Y-129094000I249999J0D01*
G01*
X110776001Y-129094000D01*
G75*
G02*
X111026000Y-129343999I0J-249999D01*
G01*
X111026000Y-130244001D01*
G75*
G02*
X110776001Y-130494000I-249999J0D01*
G01*
X110250999Y-130494000D01*
G75*
G02*
X110001000Y-130244001I0J249999D01*
G01*
G37*
G36*
G01*
X108176000Y-130244001D02*
X108176000Y-129343999D01*
G75*
G02*
X108425999Y-129094000I249999J0D01*
G01*
X108951001Y-129094000D01*
G75*
G02*
X109201000Y-129343999I0J-249999D01*
G01*
X109201000Y-130244001D01*
G75*
G02*
X108951001Y-130494000I-249999J0D01*
G01*
X108425999Y-130494000D01*
G75*
G02*
X108176000Y-130244001I0J249999D01*
G01*
G37*
D22*
X102981000Y-134874000D03*
X100981000Y-135824000D03*
X100981000Y-133924000D03*
X99171000Y-132334000D03*
X97171000Y-133284000D03*
X97171000Y-131384000D03*
X102981000Y-129794000D03*
X100981000Y-130744000D03*
X100981000Y-128844000D03*
G36*
G01*
X106241000Y-134695250D02*
X106241000Y-133782750D01*
G75*
G02*
X106484750Y-133539000I243750J0D01*
G01*
X106972250Y-133539000D01*
G75*
G02*
X107216000Y-133782750I0J-243750D01*
G01*
X107216000Y-134695250D01*
G75*
G02*
X106972250Y-134939000I-243750J0D01*
G01*
X106484750Y-134939000D01*
G75*
G02*
X106241000Y-134695250I0J243750D01*
G01*
G37*
G36*
G01*
X104366000Y-134695250D02*
X104366000Y-133782750D01*
G75*
G02*
X104609750Y-133539000I243750J0D01*
G01*
X105097250Y-133539000D01*
G75*
G02*
X105341000Y-133782750I0J-243750D01*
G01*
X105341000Y-134695250D01*
G75*
G02*
X105097250Y-134939000I-243750J0D01*
G01*
X104609750Y-134939000D01*
G75*
G02*
X104366000Y-134695250I0J243750D01*
G01*
G37*
G36*
G01*
X106141000Y-132590250D02*
X106141000Y-132077750D01*
G75*
G02*
X106359750Y-131859000I218750J0D01*
G01*
X106797250Y-131859000D01*
G75*
G02*
X107016000Y-132077750I0J-218750D01*
G01*
X107016000Y-132590250D01*
G75*
G02*
X106797250Y-132809000I-218750J0D01*
G01*
X106359750Y-132809000D01*
G75*
G02*
X106141000Y-132590250I0J218750D01*
G01*
G37*
G36*
G01*
X104566000Y-132590250D02*
X104566000Y-132077750D01*
G75*
G02*
X104784750Y-131859000I218750J0D01*
G01*
X105222250Y-131859000D01*
G75*
G02*
X105441000Y-132077750I0J-218750D01*
G01*
X105441000Y-132590250D01*
G75*
G02*
X105222250Y-132809000I-218750J0D01*
G01*
X104784750Y-132809000D01*
G75*
G02*
X104566000Y-132590250I0J218750D01*
G01*
G37*
G36*
G01*
X106141000Y-130685250D02*
X106141000Y-130172750D01*
G75*
G02*
X106359750Y-129954000I218750J0D01*
G01*
X106797250Y-129954000D01*
G75*
G02*
X107016000Y-130172750I0J-218750D01*
G01*
X107016000Y-130685250D01*
G75*
G02*
X106797250Y-130904000I-218750J0D01*
G01*
X106359750Y-130904000D01*
G75*
G02*
X106141000Y-130685250I0J218750D01*
G01*
G37*
G36*
G01*
X104566000Y-130685250D02*
X104566000Y-130172750D01*
G75*
G02*
X104784750Y-129954000I218750J0D01*
G01*
X105222250Y-129954000D01*
G75*
G02*
X105441000Y-130172750I0J-218750D01*
G01*
X105441000Y-130685250D01*
G75*
G02*
X105222250Y-130904000I-218750J0D01*
G01*
X104784750Y-130904000D01*
G75*
G02*
X104566000Y-130685250I0J218750D01*
G01*
G37*
D23*
X77470000Y-90805000D03*
D24*
X71670000Y-90805000D03*
D25*
X74470000Y-95605000D03*
D26*
X157480000Y-140335000D03*
D27*
X157480000Y-147955000D03*
D28*
X185420000Y-124460000D03*
X185420000Y-121920000D03*
X185420000Y-119380000D03*
X185420000Y-116840000D03*
X185420000Y-114300000D03*
X182880000Y-124460000D03*
X182880000Y-121920000D03*
X182880000Y-119380000D03*
X182880000Y-116840000D03*
G36*
G01*
X182030000Y-114900000D02*
X182030000Y-113700000D01*
G75*
G02*
X182280000Y-113450000I250000J0D01*
G01*
X183480000Y-113450000D01*
G75*
G02*
X183730000Y-113700000I0J-250000D01*
G01*
X183730000Y-114900000D01*
G75*
G02*
X183480000Y-115150000I-250000J0D01*
G01*
X182280000Y-115150000D01*
G75*
G02*
X182030000Y-114900000I0J250000D01*
G01*
G37*
X185420000Y-101600000D03*
X185420000Y-99060000D03*
X185420000Y-96520000D03*
X185420000Y-93980000D03*
X185420000Y-91440000D03*
X182880000Y-101600000D03*
X182880000Y-99060000D03*
X182880000Y-96520000D03*
X182880000Y-93980000D03*
G36*
G01*
X182030000Y-92040000D02*
X182030000Y-90840000D01*
G75*
G02*
X182280000Y-90590000I250000J0D01*
G01*
X183480000Y-90590000D01*
G75*
G02*
X183730000Y-90840000I0J-250000D01*
G01*
X183730000Y-92040000D01*
G75*
G02*
X183480000Y-92290000I-250000J0D01*
G01*
X182280000Y-92290000D01*
G75*
G02*
X182030000Y-92040000I0J250000D01*
G01*
G37*
G36*
G01*
X142725000Y-131040000D02*
X143025000Y-131040000D01*
G75*
G02*
X143175000Y-131190000I0J-150000D01*
G01*
X143175000Y-132840000D01*
G75*
G02*
X143025000Y-132990000I-150000J0D01*
G01*
X142725000Y-132990000D01*
G75*
G02*
X142575000Y-132840000I0J150000D01*
G01*
X142575000Y-131190000D01*
G75*
G02*
X142725000Y-131040000I150000J0D01*
G01*
G37*
G36*
G01*
X141455000Y-131040000D02*
X141755000Y-131040000D01*
G75*
G02*
X141905000Y-131190000I0J-150000D01*
G01*
X141905000Y-132840000D01*
G75*
G02*
X141755000Y-132990000I-150000J0D01*
G01*
X141455000Y-132990000D01*
G75*
G02*
X141305000Y-132840000I0J150000D01*
G01*
X141305000Y-131190000D01*
G75*
G02*
X141455000Y-131040000I150000J0D01*
G01*
G37*
G36*
G01*
X140185000Y-131040000D02*
X140485000Y-131040000D01*
G75*
G02*
X140635000Y-131190000I0J-150000D01*
G01*
X140635000Y-132840000D01*
G75*
G02*
X140485000Y-132990000I-150000J0D01*
G01*
X140185000Y-132990000D01*
G75*
G02*
X140035000Y-132840000I0J150000D01*
G01*
X140035000Y-131190000D01*
G75*
G02*
X140185000Y-131040000I150000J0D01*
G01*
G37*
G36*
G01*
X138915000Y-131040000D02*
X139215000Y-131040000D01*
G75*
G02*
X139365000Y-131190000I0J-150000D01*
G01*
X139365000Y-132840000D01*
G75*
G02*
X139215000Y-132990000I-150000J0D01*
G01*
X138915000Y-132990000D01*
G75*
G02*
X138765000Y-132840000I0J150000D01*
G01*
X138765000Y-131190000D01*
G75*
G02*
X138915000Y-131040000I150000J0D01*
G01*
G37*
G36*
G01*
X137645000Y-131040000D02*
X137945000Y-131040000D01*
G75*
G02*
X138095000Y-131190000I0J-150000D01*
G01*
X138095000Y-132840000D01*
G75*
G02*
X137945000Y-132990000I-150000J0D01*
G01*
X137645000Y-132990000D01*
G75*
G02*
X137495000Y-132840000I0J150000D01*
G01*
X137495000Y-131190000D01*
G75*
G02*
X137645000Y-131040000I150000J0D01*
G01*
G37*
G36*
G01*
X136375000Y-131040000D02*
X136675000Y-131040000D01*
G75*
G02*
X136825000Y-131190000I0J-150000D01*
G01*
X136825000Y-132840000D01*
G75*
G02*
X136675000Y-132990000I-150000J0D01*
G01*
X136375000Y-132990000D01*
G75*
G02*
X136225000Y-132840000I0J150000D01*
G01*
X136225000Y-131190000D01*
G75*
G02*
X136375000Y-131040000I150000J0D01*
G01*
G37*
G36*
G01*
X135105000Y-131040000D02*
X135405000Y-131040000D01*
G75*
G02*
X135555000Y-131190000I0J-150000D01*
G01*
X135555000Y-132840000D01*
G75*
G02*
X135405000Y-132990000I-150000J0D01*
G01*
X135105000Y-132990000D01*
G75*
G02*
X134955000Y-132840000I0J150000D01*
G01*
X134955000Y-131190000D01*
G75*
G02*
X135105000Y-131040000I150000J0D01*
G01*
G37*
G36*
G01*
X133835000Y-131040000D02*
X134135000Y-131040000D01*
G75*
G02*
X134285000Y-131190000I0J-150000D01*
G01*
X134285000Y-132840000D01*
G75*
G02*
X134135000Y-132990000I-150000J0D01*
G01*
X133835000Y-132990000D01*
G75*
G02*
X133685000Y-132840000I0J150000D01*
G01*
X133685000Y-131190000D01*
G75*
G02*
X133835000Y-131040000I150000J0D01*
G01*
G37*
G36*
G01*
X133835000Y-126090000D02*
X134135000Y-126090000D01*
G75*
G02*
X134285000Y-126240000I0J-150000D01*
G01*
X134285000Y-127890000D01*
G75*
G02*
X134135000Y-128040000I-150000J0D01*
G01*
X133835000Y-128040000D01*
G75*
G02*
X133685000Y-127890000I0J150000D01*
G01*
X133685000Y-126240000D01*
G75*
G02*
X133835000Y-126090000I150000J0D01*
G01*
G37*
G36*
G01*
X135105000Y-126090000D02*
X135405000Y-126090000D01*
G75*
G02*
X135555000Y-126240000I0J-150000D01*
G01*
X135555000Y-127890000D01*
G75*
G02*
X135405000Y-128040000I-150000J0D01*
G01*
X135105000Y-128040000D01*
G75*
G02*
X134955000Y-127890000I0J150000D01*
G01*
X134955000Y-126240000D01*
G75*
G02*
X135105000Y-126090000I150000J0D01*
G01*
G37*
G36*
G01*
X136375000Y-126090000D02*
X136675000Y-126090000D01*
G75*
G02*
X136825000Y-126240000I0J-150000D01*
G01*
X136825000Y-127890000D01*
G75*
G02*
X136675000Y-128040000I-150000J0D01*
G01*
X136375000Y-128040000D01*
G75*
G02*
X136225000Y-127890000I0J150000D01*
G01*
X136225000Y-126240000D01*
G75*
G02*
X136375000Y-126090000I150000J0D01*
G01*
G37*
G36*
G01*
X137645000Y-126090000D02*
X137945000Y-126090000D01*
G75*
G02*
X138095000Y-126240000I0J-150000D01*
G01*
X138095000Y-127890000D01*
G75*
G02*
X137945000Y-128040000I-150000J0D01*
G01*
X137645000Y-128040000D01*
G75*
G02*
X137495000Y-127890000I0J150000D01*
G01*
X137495000Y-126240000D01*
G75*
G02*
X137645000Y-126090000I150000J0D01*
G01*
G37*
G36*
G01*
X138915000Y-126090000D02*
X139215000Y-126090000D01*
G75*
G02*
X139365000Y-126240000I0J-150000D01*
G01*
X139365000Y-127890000D01*
G75*
G02*
X139215000Y-128040000I-150000J0D01*
G01*
X138915000Y-128040000D01*
G75*
G02*
X138765000Y-127890000I0J150000D01*
G01*
X138765000Y-126240000D01*
G75*
G02*
X138915000Y-126090000I150000J0D01*
G01*
G37*
G36*
G01*
X140185000Y-126090000D02*
X140485000Y-126090000D01*
G75*
G02*
X140635000Y-126240000I0J-150000D01*
G01*
X140635000Y-127890000D01*
G75*
G02*
X140485000Y-128040000I-150000J0D01*
G01*
X140185000Y-128040000D01*
G75*
G02*
X140035000Y-127890000I0J150000D01*
G01*
X140035000Y-126240000D01*
G75*
G02*
X140185000Y-126090000I150000J0D01*
G01*
G37*
G36*
G01*
X141455000Y-126090000D02*
X141755000Y-126090000D01*
G75*
G02*
X141905000Y-126240000I0J-150000D01*
G01*
X141905000Y-127890000D01*
G75*
G02*
X141755000Y-128040000I-150000J0D01*
G01*
X141455000Y-128040000D01*
G75*
G02*
X141305000Y-127890000I0J150000D01*
G01*
X141305000Y-126240000D01*
G75*
G02*
X141455000Y-126090000I150000J0D01*
G01*
G37*
G36*
G01*
X142725000Y-126090000D02*
X143025000Y-126090000D01*
G75*
G02*
X143175000Y-126240000I0J-150000D01*
G01*
X143175000Y-127890000D01*
G75*
G02*
X143025000Y-128040000I-150000J0D01*
G01*
X142725000Y-128040000D01*
G75*
G02*
X142575000Y-127890000I0J150000D01*
G01*
X142575000Y-126240000D01*
G75*
G02*
X142725000Y-126090000I150000J0D01*
G01*
G37*
G36*
G01*
X159870000Y-131040000D02*
X160170000Y-131040000D01*
G75*
G02*
X160320000Y-131190000I0J-150000D01*
G01*
X160320000Y-132840000D01*
G75*
G02*
X160170000Y-132990000I-150000J0D01*
G01*
X159870000Y-132990000D01*
G75*
G02*
X159720000Y-132840000I0J150000D01*
G01*
X159720000Y-131190000D01*
G75*
G02*
X159870000Y-131040000I150000J0D01*
G01*
G37*
G36*
G01*
X158600000Y-131040000D02*
X158900000Y-131040000D01*
G75*
G02*
X159050000Y-131190000I0J-150000D01*
G01*
X159050000Y-132840000D01*
G75*
G02*
X158900000Y-132990000I-150000J0D01*
G01*
X158600000Y-132990000D01*
G75*
G02*
X158450000Y-132840000I0J150000D01*
G01*
X158450000Y-131190000D01*
G75*
G02*
X158600000Y-131040000I150000J0D01*
G01*
G37*
G36*
G01*
X157330000Y-131040000D02*
X157630000Y-131040000D01*
G75*
G02*
X157780000Y-131190000I0J-150000D01*
G01*
X157780000Y-132840000D01*
G75*
G02*
X157630000Y-132990000I-150000J0D01*
G01*
X157330000Y-132990000D01*
G75*
G02*
X157180000Y-132840000I0J150000D01*
G01*
X157180000Y-131190000D01*
G75*
G02*
X157330000Y-131040000I150000J0D01*
G01*
G37*
G36*
G01*
X156060000Y-131040000D02*
X156360000Y-131040000D01*
G75*
G02*
X156510000Y-131190000I0J-150000D01*
G01*
X156510000Y-132840000D01*
G75*
G02*
X156360000Y-132990000I-150000J0D01*
G01*
X156060000Y-132990000D01*
G75*
G02*
X155910000Y-132840000I0J150000D01*
G01*
X155910000Y-131190000D01*
G75*
G02*
X156060000Y-131040000I150000J0D01*
G01*
G37*
G36*
G01*
X154790000Y-131040000D02*
X155090000Y-131040000D01*
G75*
G02*
X155240000Y-131190000I0J-150000D01*
G01*
X155240000Y-132840000D01*
G75*
G02*
X155090000Y-132990000I-150000J0D01*
G01*
X154790000Y-132990000D01*
G75*
G02*
X154640000Y-132840000I0J150000D01*
G01*
X154640000Y-131190000D01*
G75*
G02*
X154790000Y-131040000I150000J0D01*
G01*
G37*
G36*
G01*
X153520000Y-131040000D02*
X153820000Y-131040000D01*
G75*
G02*
X153970000Y-131190000I0J-150000D01*
G01*
X153970000Y-132840000D01*
G75*
G02*
X153820000Y-132990000I-150000J0D01*
G01*
X153520000Y-132990000D01*
G75*
G02*
X153370000Y-132840000I0J150000D01*
G01*
X153370000Y-131190000D01*
G75*
G02*
X153520000Y-131040000I150000J0D01*
G01*
G37*
G36*
G01*
X152250000Y-131040000D02*
X152550000Y-131040000D01*
G75*
G02*
X152700000Y-131190000I0J-150000D01*
G01*
X152700000Y-132840000D01*
G75*
G02*
X152550000Y-132990000I-150000J0D01*
G01*
X152250000Y-132990000D01*
G75*
G02*
X152100000Y-132840000I0J150000D01*
G01*
X152100000Y-131190000D01*
G75*
G02*
X152250000Y-131040000I150000J0D01*
G01*
G37*
G36*
G01*
X150980000Y-131040000D02*
X151280000Y-131040000D01*
G75*
G02*
X151430000Y-131190000I0J-150000D01*
G01*
X151430000Y-132840000D01*
G75*
G02*
X151280000Y-132990000I-150000J0D01*
G01*
X150980000Y-132990000D01*
G75*
G02*
X150830000Y-132840000I0J150000D01*
G01*
X150830000Y-131190000D01*
G75*
G02*
X150980000Y-131040000I150000J0D01*
G01*
G37*
G36*
G01*
X150980000Y-126090000D02*
X151280000Y-126090000D01*
G75*
G02*
X151430000Y-126240000I0J-150000D01*
G01*
X151430000Y-127890000D01*
G75*
G02*
X151280000Y-128040000I-150000J0D01*
G01*
X150980000Y-128040000D01*
G75*
G02*
X150830000Y-127890000I0J150000D01*
G01*
X150830000Y-126240000D01*
G75*
G02*
X150980000Y-126090000I150000J0D01*
G01*
G37*
G36*
G01*
X152250000Y-126090000D02*
X152550000Y-126090000D01*
G75*
G02*
X152700000Y-126240000I0J-150000D01*
G01*
X152700000Y-127890000D01*
G75*
G02*
X152550000Y-128040000I-150000J0D01*
G01*
X152250000Y-128040000D01*
G75*
G02*
X152100000Y-127890000I0J150000D01*
G01*
X152100000Y-126240000D01*
G75*
G02*
X152250000Y-126090000I150000J0D01*
G01*
G37*
G36*
G01*
X153520000Y-126090000D02*
X153820000Y-126090000D01*
G75*
G02*
X153970000Y-126240000I0J-150000D01*
G01*
X153970000Y-127890000D01*
G75*
G02*
X153820000Y-128040000I-150000J0D01*
G01*
X153520000Y-128040000D01*
G75*
G02*
X153370000Y-127890000I0J150000D01*
G01*
X153370000Y-126240000D01*
G75*
G02*
X153520000Y-126090000I150000J0D01*
G01*
G37*
G36*
G01*
X154790000Y-126090000D02*
X155090000Y-126090000D01*
G75*
G02*
X155240000Y-126240000I0J-150000D01*
G01*
X155240000Y-127890000D01*
G75*
G02*
X155090000Y-128040000I-150000J0D01*
G01*
X154790000Y-128040000D01*
G75*
G02*
X154640000Y-127890000I0J150000D01*
G01*
X154640000Y-126240000D01*
G75*
G02*
X154790000Y-126090000I150000J0D01*
G01*
G37*
G36*
G01*
X156060000Y-126090000D02*
X156360000Y-126090000D01*
G75*
G02*
X156510000Y-126240000I0J-150000D01*
G01*
X156510000Y-127890000D01*
G75*
G02*
X156360000Y-128040000I-150000J0D01*
G01*
X156060000Y-128040000D01*
G75*
G02*
X155910000Y-127890000I0J150000D01*
G01*
X155910000Y-126240000D01*
G75*
G02*
X156060000Y-126090000I150000J0D01*
G01*
G37*
G36*
G01*
X157330000Y-126090000D02*
X157630000Y-126090000D01*
G75*
G02*
X157780000Y-126240000I0J-150000D01*
G01*
X157780000Y-127890000D01*
G75*
G02*
X157630000Y-128040000I-150000J0D01*
G01*
X157330000Y-128040000D01*
G75*
G02*
X157180000Y-127890000I0J150000D01*
G01*
X157180000Y-126240000D01*
G75*
G02*
X157330000Y-126090000I150000J0D01*
G01*
G37*
G36*
G01*
X158600000Y-126090000D02*
X158900000Y-126090000D01*
G75*
G02*
X159050000Y-126240000I0J-150000D01*
G01*
X159050000Y-127890000D01*
G75*
G02*
X158900000Y-128040000I-150000J0D01*
G01*
X158600000Y-128040000D01*
G75*
G02*
X158450000Y-127890000I0J150000D01*
G01*
X158450000Y-126240000D01*
G75*
G02*
X158600000Y-126090000I150000J0D01*
G01*
G37*
G36*
G01*
X159870000Y-126090000D02*
X160170000Y-126090000D01*
G75*
G02*
X160320000Y-126240000I0J-150000D01*
G01*
X160320000Y-127890000D01*
G75*
G02*
X160170000Y-128040000I-150000J0D01*
G01*
X159870000Y-128040000D01*
G75*
G02*
X159720000Y-127890000I0J150000D01*
G01*
X159720000Y-126240000D01*
G75*
G02*
X159870000Y-126090000I150000J0D01*
G01*
G37*
D29*
X75565000Y-98595000D03*
X74615000Y-98595000D03*
X76515000Y-98595000D03*
X76515000Y-100795000D03*
X75565000Y-100795000D03*
X74615000Y-100795000D03*
G36*
G01*
X85909999Y-101365000D02*
X86810001Y-101365000D01*
G75*
G02*
X87060000Y-101614999I0J-249999D01*
G01*
X87060000Y-102140001D01*
G75*
G02*
X86810001Y-102390000I-249999J0D01*
G01*
X85909999Y-102390000D01*
G75*
G02*
X85660000Y-102140001I0J249999D01*
G01*
X85660000Y-101614999D01*
G75*
G02*
X85909999Y-101365000I249999J0D01*
G01*
G37*
G36*
G01*
X85909999Y-99540000D02*
X86810001Y-99540000D01*
G75*
G02*
X87060000Y-99789999I0J-249999D01*
G01*
X87060000Y-100315001D01*
G75*
G02*
X86810001Y-100565000I-249999J0D01*
G01*
X85909999Y-100565000D01*
G75*
G02*
X85660000Y-100315001I0J249999D01*
G01*
X85660000Y-99789999D01*
G75*
G02*
X85909999Y-99540000I249999J0D01*
G01*
G37*
G36*
G01*
X89350001Y-100565000D02*
X88449999Y-100565000D01*
G75*
G02*
X88200000Y-100315001I0J249999D01*
G01*
X88200000Y-99789999D01*
G75*
G02*
X88449999Y-99540000I249999J0D01*
G01*
X89350001Y-99540000D01*
G75*
G02*
X89600000Y-99789999I0J-249999D01*
G01*
X89600000Y-100315001D01*
G75*
G02*
X89350001Y-100565000I-249999J0D01*
G01*
G37*
G36*
G01*
X89350001Y-102390000D02*
X88449999Y-102390000D01*
G75*
G02*
X88200000Y-102140001I0J249999D01*
G01*
X88200000Y-101614999D01*
G75*
G02*
X88449999Y-101365000I249999J0D01*
G01*
X89350001Y-101365000D01*
G75*
G02*
X89600000Y-101614999I0J-249999D01*
G01*
X89600000Y-102140001D01*
G75*
G02*
X89350001Y-102390000I-249999J0D01*
G01*
G37*
D21*
X87630000Y-105775000D03*
X86680000Y-103775000D03*
X88580000Y-103775000D03*
D30*
X79630000Y-97790000D03*
X82930000Y-97790000D03*
G36*
G01*
X74045000Y-107640000D02*
X74545000Y-107640000D01*
G75*
G02*
X74770000Y-107865000I0J-225000D01*
G01*
X74770000Y-108315000D01*
G75*
G02*
X74545000Y-108540000I-225000J0D01*
G01*
X74045000Y-108540000D01*
G75*
G02*
X73820000Y-108315000I0J225000D01*
G01*
X73820000Y-107865000D01*
G75*
G02*
X74045000Y-107640000I225000J0D01*
G01*
G37*
G36*
G01*
X74045000Y-106090000D02*
X74545000Y-106090000D01*
G75*
G02*
X74770000Y-106315000I0J-225000D01*
G01*
X74770000Y-106765000D01*
G75*
G02*
X74545000Y-106990000I-225000J0D01*
G01*
X74045000Y-106990000D01*
G75*
G02*
X73820000Y-106765000I0J225000D01*
G01*
X73820000Y-106315000D01*
G75*
G02*
X74045000Y-106090000I225000J0D01*
G01*
G37*
G36*
G01*
X72140000Y-107640000D02*
X72640000Y-107640000D01*
G75*
G02*
X72865000Y-107865000I0J-225000D01*
G01*
X72865000Y-108315000D01*
G75*
G02*
X72640000Y-108540000I-225000J0D01*
G01*
X72140000Y-108540000D01*
G75*
G02*
X71915000Y-108315000I0J225000D01*
G01*
X71915000Y-107865000D01*
G75*
G02*
X72140000Y-107640000I225000J0D01*
G01*
G37*
G36*
G01*
X72140000Y-106090000D02*
X72640000Y-106090000D01*
G75*
G02*
X72865000Y-106315000I0J-225000D01*
G01*
X72865000Y-106765000D01*
G75*
G02*
X72640000Y-106990000I-225000J0D01*
G01*
X72140000Y-106990000D01*
G75*
G02*
X71915000Y-106765000I0J225000D01*
G01*
X71915000Y-106315000D01*
G75*
G02*
X72140000Y-106090000I225000J0D01*
G01*
G37*
G36*
G01*
X104945000Y-101350000D02*
X104945000Y-101850000D01*
G75*
G02*
X104720000Y-102075000I-225000J0D01*
G01*
X104270000Y-102075000D01*
G75*
G02*
X104045000Y-101850000I0J225000D01*
G01*
X104045000Y-101350000D01*
G75*
G02*
X104270000Y-101125000I225000J0D01*
G01*
X104720000Y-101125000D01*
G75*
G02*
X104945000Y-101350000I0J-225000D01*
G01*
G37*
G36*
G01*
X106495000Y-101350000D02*
X106495000Y-101850000D01*
G75*
G02*
X106270000Y-102075000I-225000J0D01*
G01*
X105820000Y-102075000D01*
G75*
G02*
X105595000Y-101850000I0J225000D01*
G01*
X105595000Y-101350000D01*
G75*
G02*
X105820000Y-101125000I225000J0D01*
G01*
X106270000Y-101125000D01*
G75*
G02*
X106495000Y-101350000I0J-225000D01*
G01*
G37*
D31*
X79375000Y-106045000D03*
G36*
G01*
X80962500Y-104670000D02*
X81662500Y-104670000D01*
G75*
G02*
X81725000Y-104732500I0J-62500D01*
G01*
X81725000Y-104857500D01*
G75*
G02*
X81662500Y-104920000I-62500J0D01*
G01*
X80962500Y-104920000D01*
G75*
G02*
X80900000Y-104857500I0J62500D01*
G01*
X80900000Y-104732500D01*
G75*
G02*
X80962500Y-104670000I62500J0D01*
G01*
G37*
G36*
G01*
X80962500Y-105170000D02*
X81662500Y-105170000D01*
G75*
G02*
X81725000Y-105232500I0J-62500D01*
G01*
X81725000Y-105357500D01*
G75*
G02*
X81662500Y-105420000I-62500J0D01*
G01*
X80962500Y-105420000D01*
G75*
G02*
X80900000Y-105357500I0J62500D01*
G01*
X80900000Y-105232500D01*
G75*
G02*
X80962500Y-105170000I62500J0D01*
G01*
G37*
G36*
G01*
X80962500Y-105670000D02*
X81662500Y-105670000D01*
G75*
G02*
X81725000Y-105732500I0J-62500D01*
G01*
X81725000Y-105857500D01*
G75*
G02*
X81662500Y-105920000I-62500J0D01*
G01*
X80962500Y-105920000D01*
G75*
G02*
X80900000Y-105857500I0J62500D01*
G01*
X80900000Y-105732500D01*
G75*
G02*
X80962500Y-105670000I62500J0D01*
G01*
G37*
G36*
G01*
X80962500Y-106170000D02*
X81662500Y-106170000D01*
G75*
G02*
X81725000Y-106232500I0J-62500D01*
G01*
X81725000Y-106357500D01*
G75*
G02*
X81662500Y-106420000I-62500J0D01*
G01*
X80962500Y-106420000D01*
G75*
G02*
X80900000Y-106357500I0J62500D01*
G01*
X80900000Y-106232500D01*
G75*
G02*
X80962500Y-106170000I62500J0D01*
G01*
G37*
G36*
G01*
X80962500Y-106670000D02*
X81662500Y-106670000D01*
G75*
G02*
X81725000Y-106732500I0J-62500D01*
G01*
X81725000Y-106857500D01*
G75*
G02*
X81662500Y-106920000I-62500J0D01*
G01*
X80962500Y-106920000D01*
G75*
G02*
X80900000Y-106857500I0J62500D01*
G01*
X80900000Y-106732500D01*
G75*
G02*
X80962500Y-106670000I62500J0D01*
G01*
G37*
G36*
G01*
X80962500Y-107170000D02*
X81662500Y-107170000D01*
G75*
G02*
X81725000Y-107232500I0J-62500D01*
G01*
X81725000Y-107357500D01*
G75*
G02*
X81662500Y-107420000I-62500J0D01*
G01*
X80962500Y-107420000D01*
G75*
G02*
X80900000Y-107357500I0J62500D01*
G01*
X80900000Y-107232500D01*
G75*
G02*
X80962500Y-107170000I62500J0D01*
G01*
G37*
G36*
G01*
X80562500Y-107570000D02*
X80687500Y-107570000D01*
G75*
G02*
X80750000Y-107632500I0J-62500D01*
G01*
X80750000Y-108332500D01*
G75*
G02*
X80687500Y-108395000I-62500J0D01*
G01*
X80562500Y-108395000D01*
G75*
G02*
X80500000Y-108332500I0J62500D01*
G01*
X80500000Y-107632500D01*
G75*
G02*
X80562500Y-107570000I62500J0D01*
G01*
G37*
G36*
G01*
X80062500Y-107570000D02*
X80187500Y-107570000D01*
G75*
G02*
X80250000Y-107632500I0J-62500D01*
G01*
X80250000Y-108332500D01*
G75*
G02*
X80187500Y-108395000I-62500J0D01*
G01*
X80062500Y-108395000D01*
G75*
G02*
X80000000Y-108332500I0J62500D01*
G01*
X80000000Y-107632500D01*
G75*
G02*
X80062500Y-107570000I62500J0D01*
G01*
G37*
G36*
G01*
X79562500Y-107570000D02*
X79687500Y-107570000D01*
G75*
G02*
X79750000Y-107632500I0J-62500D01*
G01*
X79750000Y-108332500D01*
G75*
G02*
X79687500Y-108395000I-62500J0D01*
G01*
X79562500Y-108395000D01*
G75*
G02*
X79500000Y-108332500I0J62500D01*
G01*
X79500000Y-107632500D01*
G75*
G02*
X79562500Y-107570000I62500J0D01*
G01*
G37*
G36*
G01*
X79062500Y-107570000D02*
X79187500Y-107570000D01*
G75*
G02*
X79250000Y-107632500I0J-62500D01*
G01*
X79250000Y-108332500D01*
G75*
G02*
X79187500Y-108395000I-62500J0D01*
G01*
X79062500Y-108395000D01*
G75*
G02*
X79000000Y-108332500I0J62500D01*
G01*
X79000000Y-107632500D01*
G75*
G02*
X79062500Y-107570000I62500J0D01*
G01*
G37*
G36*
G01*
X78562500Y-107570000D02*
X78687500Y-107570000D01*
G75*
G02*
X78750000Y-107632500I0J-62500D01*
G01*
X78750000Y-108332500D01*
G75*
G02*
X78687500Y-108395000I-62500J0D01*
G01*
X78562500Y-108395000D01*
G75*
G02*
X78500000Y-108332500I0J62500D01*
G01*
X78500000Y-107632500D01*
G75*
G02*
X78562500Y-107570000I62500J0D01*
G01*
G37*
G36*
G01*
X78062500Y-107570000D02*
X78187500Y-107570000D01*
G75*
G02*
X78250000Y-107632500I0J-62500D01*
G01*
X78250000Y-108332500D01*
G75*
G02*
X78187500Y-108395000I-62500J0D01*
G01*
X78062500Y-108395000D01*
G75*
G02*
X78000000Y-108332500I0J62500D01*
G01*
X78000000Y-107632500D01*
G75*
G02*
X78062500Y-107570000I62500J0D01*
G01*
G37*
G36*
G01*
X77087500Y-107170000D02*
X77787500Y-107170000D01*
G75*
G02*
X77850000Y-107232500I0J-62500D01*
G01*
X77850000Y-107357500D01*
G75*
G02*
X77787500Y-107420000I-62500J0D01*
G01*
X77087500Y-107420000D01*
G75*
G02*
X77025000Y-107357500I0J62500D01*
G01*
X77025000Y-107232500D01*
G75*
G02*
X77087500Y-107170000I62500J0D01*
G01*
G37*
G36*
G01*
X77087500Y-106670000D02*
X77787500Y-106670000D01*
G75*
G02*
X77850000Y-106732500I0J-62500D01*
G01*
X77850000Y-106857500D01*
G75*
G02*
X77787500Y-106920000I-62500J0D01*
G01*
X77087500Y-106920000D01*
G75*
G02*
X77025000Y-106857500I0J62500D01*
G01*
X77025000Y-106732500D01*
G75*
G02*
X77087500Y-106670000I62500J0D01*
G01*
G37*
G36*
G01*
X77087500Y-106170000D02*
X77787500Y-106170000D01*
G75*
G02*
X77850000Y-106232500I0J-62500D01*
G01*
X77850000Y-106357500D01*
G75*
G02*
X77787500Y-106420000I-62500J0D01*
G01*
X77087500Y-106420000D01*
G75*
G02*
X77025000Y-106357500I0J62500D01*
G01*
X77025000Y-106232500D01*
G75*
G02*
X77087500Y-106170000I62500J0D01*
G01*
G37*
G36*
G01*
X77087500Y-105670000D02*
X77787500Y-105670000D01*
G75*
G02*
X77850000Y-105732500I0J-62500D01*
G01*
X77850000Y-105857500D01*
G75*
G02*
X77787500Y-105920000I-62500J0D01*
G01*
X77087500Y-105920000D01*
G75*
G02*
X77025000Y-105857500I0J62500D01*
G01*
X77025000Y-105732500D01*
G75*
G02*
X77087500Y-105670000I62500J0D01*
G01*
G37*
G36*
G01*
X77087500Y-105170000D02*
X77787500Y-105170000D01*
G75*
G02*
X77850000Y-105232500I0J-62500D01*
G01*
X77850000Y-105357500D01*
G75*
G02*
X77787500Y-105420000I-62500J0D01*
G01*
X77087500Y-105420000D01*
G75*
G02*
X77025000Y-105357500I0J62500D01*
G01*
X77025000Y-105232500D01*
G75*
G02*
X77087500Y-105170000I62500J0D01*
G01*
G37*
G36*
G01*
X77087500Y-104670000D02*
X77787500Y-104670000D01*
G75*
G02*
X77850000Y-104732500I0J-62500D01*
G01*
X77850000Y-104857500D01*
G75*
G02*
X77787500Y-104920000I-62500J0D01*
G01*
X77087500Y-104920000D01*
G75*
G02*
X77025000Y-104857500I0J62500D01*
G01*
X77025000Y-104732500D01*
G75*
G02*
X77087500Y-104670000I62500J0D01*
G01*
G37*
G36*
G01*
X78062500Y-103695000D02*
X78187500Y-103695000D01*
G75*
G02*
X78250000Y-103757500I0J-62500D01*
G01*
X78250000Y-104457500D01*
G75*
G02*
X78187500Y-104520000I-62500J0D01*
G01*
X78062500Y-104520000D01*
G75*
G02*
X78000000Y-104457500I0J62500D01*
G01*
X78000000Y-103757500D01*
G75*
G02*
X78062500Y-103695000I62500J0D01*
G01*
G37*
G36*
G01*
X78562500Y-103695000D02*
X78687500Y-103695000D01*
G75*
G02*
X78750000Y-103757500I0J-62500D01*
G01*
X78750000Y-104457500D01*
G75*
G02*
X78687500Y-104520000I-62500J0D01*
G01*
X78562500Y-104520000D01*
G75*
G02*
X78500000Y-104457500I0J62500D01*
G01*
X78500000Y-103757500D01*
G75*
G02*
X78562500Y-103695000I62500J0D01*
G01*
G37*
G36*
G01*
X79062500Y-103695000D02*
X79187500Y-103695000D01*
G75*
G02*
X79250000Y-103757500I0J-62500D01*
G01*
X79250000Y-104457500D01*
G75*
G02*
X79187500Y-104520000I-62500J0D01*
G01*
X79062500Y-104520000D01*
G75*
G02*
X79000000Y-104457500I0J62500D01*
G01*
X79000000Y-103757500D01*
G75*
G02*
X79062500Y-103695000I62500J0D01*
G01*
G37*
G36*
G01*
X79562500Y-103695000D02*
X79687500Y-103695000D01*
G75*
G02*
X79750000Y-103757500I0J-62500D01*
G01*
X79750000Y-104457500D01*
G75*
G02*
X79687500Y-104520000I-62500J0D01*
G01*
X79562500Y-104520000D01*
G75*
G02*
X79500000Y-104457500I0J62500D01*
G01*
X79500000Y-103757500D01*
G75*
G02*
X79562500Y-103695000I62500J0D01*
G01*
G37*
G36*
G01*
X80062500Y-103695000D02*
X80187500Y-103695000D01*
G75*
G02*
X80250000Y-103757500I0J-62500D01*
G01*
X80250000Y-104457500D01*
G75*
G02*
X80187500Y-104520000I-62500J0D01*
G01*
X80062500Y-104520000D01*
G75*
G02*
X80000000Y-104457500I0J62500D01*
G01*
X80000000Y-103757500D01*
G75*
G02*
X80062500Y-103695000I62500J0D01*
G01*
G37*
G36*
G01*
X80562500Y-103695000D02*
X80687500Y-103695000D01*
G75*
G02*
X80750000Y-103757500I0J-62500D01*
G01*
X80750000Y-104457500D01*
G75*
G02*
X80687500Y-104520000I-62500J0D01*
G01*
X80562500Y-104520000D01*
G75*
G02*
X80500000Y-104457500I0J62500D01*
G01*
X80500000Y-103757500D01*
G75*
G02*
X80562500Y-103695000I62500J0D01*
G01*
G37*
G36*
G01*
X103725000Y-114482000D02*
X103725000Y-114282000D01*
G75*
G02*
X103825000Y-114182000I100000J0D01*
G01*
X105100000Y-114182000D01*
G75*
G02*
X105200000Y-114282000I0J-100000D01*
G01*
X105200000Y-114482000D01*
G75*
G02*
X105100000Y-114582000I-100000J0D01*
G01*
X103825000Y-114582000D01*
G75*
G02*
X103725000Y-114482000I0J100000D01*
G01*
G37*
G36*
G01*
X103725000Y-115132000D02*
X103725000Y-114932000D01*
G75*
G02*
X103825000Y-114832000I100000J0D01*
G01*
X105100000Y-114832000D01*
G75*
G02*
X105200000Y-114932000I0J-100000D01*
G01*
X105200000Y-115132000D01*
G75*
G02*
X105100000Y-115232000I-100000J0D01*
G01*
X103825000Y-115232000D01*
G75*
G02*
X103725000Y-115132000I0J100000D01*
G01*
G37*
G36*
G01*
X103725000Y-115782000D02*
X103725000Y-115582000D01*
G75*
G02*
X103825000Y-115482000I100000J0D01*
G01*
X105100000Y-115482000D01*
G75*
G02*
X105200000Y-115582000I0J-100000D01*
G01*
X105200000Y-115782000D01*
G75*
G02*
X105100000Y-115882000I-100000J0D01*
G01*
X103825000Y-115882000D01*
G75*
G02*
X103725000Y-115782000I0J100000D01*
G01*
G37*
G36*
G01*
X103725000Y-116432000D02*
X103725000Y-116232000D01*
G75*
G02*
X103825000Y-116132000I100000J0D01*
G01*
X105100000Y-116132000D01*
G75*
G02*
X105200000Y-116232000I0J-100000D01*
G01*
X105200000Y-116432000D01*
G75*
G02*
X105100000Y-116532000I-100000J0D01*
G01*
X103825000Y-116532000D01*
G75*
G02*
X103725000Y-116432000I0J100000D01*
G01*
G37*
G36*
G01*
X103725000Y-117082000D02*
X103725000Y-116882000D01*
G75*
G02*
X103825000Y-116782000I100000J0D01*
G01*
X105100000Y-116782000D01*
G75*
G02*
X105200000Y-116882000I0J-100000D01*
G01*
X105200000Y-117082000D01*
G75*
G02*
X105100000Y-117182000I-100000J0D01*
G01*
X103825000Y-117182000D01*
G75*
G02*
X103725000Y-117082000I0J100000D01*
G01*
G37*
G36*
G01*
X103725000Y-117732000D02*
X103725000Y-117532000D01*
G75*
G02*
X103825000Y-117432000I100000J0D01*
G01*
X105100000Y-117432000D01*
G75*
G02*
X105200000Y-117532000I0J-100000D01*
G01*
X105200000Y-117732000D01*
G75*
G02*
X105100000Y-117832000I-100000J0D01*
G01*
X103825000Y-117832000D01*
G75*
G02*
X103725000Y-117732000I0J100000D01*
G01*
G37*
G36*
G01*
X103725000Y-118382000D02*
X103725000Y-118182000D01*
G75*
G02*
X103825000Y-118082000I100000J0D01*
G01*
X105100000Y-118082000D01*
G75*
G02*
X105200000Y-118182000I0J-100000D01*
G01*
X105200000Y-118382000D01*
G75*
G02*
X105100000Y-118482000I-100000J0D01*
G01*
X103825000Y-118482000D01*
G75*
G02*
X103725000Y-118382000I0J100000D01*
G01*
G37*
G36*
G01*
X98000000Y-118382000D02*
X98000000Y-118182000D01*
G75*
G02*
X98100000Y-118082000I100000J0D01*
G01*
X99375000Y-118082000D01*
G75*
G02*
X99475000Y-118182000I0J-100000D01*
G01*
X99475000Y-118382000D01*
G75*
G02*
X99375000Y-118482000I-100000J0D01*
G01*
X98100000Y-118482000D01*
G75*
G02*
X98000000Y-118382000I0J100000D01*
G01*
G37*
G36*
G01*
X98000000Y-117732000D02*
X98000000Y-117532000D01*
G75*
G02*
X98100000Y-117432000I100000J0D01*
G01*
X99375000Y-117432000D01*
G75*
G02*
X99475000Y-117532000I0J-100000D01*
G01*
X99475000Y-117732000D01*
G75*
G02*
X99375000Y-117832000I-100000J0D01*
G01*
X98100000Y-117832000D01*
G75*
G02*
X98000000Y-117732000I0J100000D01*
G01*
G37*
G36*
G01*
X98000000Y-117082000D02*
X98000000Y-116882000D01*
G75*
G02*
X98100000Y-116782000I100000J0D01*
G01*
X99375000Y-116782000D01*
G75*
G02*
X99475000Y-116882000I0J-100000D01*
G01*
X99475000Y-117082000D01*
G75*
G02*
X99375000Y-117182000I-100000J0D01*
G01*
X98100000Y-117182000D01*
G75*
G02*
X98000000Y-117082000I0J100000D01*
G01*
G37*
G36*
G01*
X98000000Y-116432000D02*
X98000000Y-116232000D01*
G75*
G02*
X98100000Y-116132000I100000J0D01*
G01*
X99375000Y-116132000D01*
G75*
G02*
X99475000Y-116232000I0J-100000D01*
G01*
X99475000Y-116432000D01*
G75*
G02*
X99375000Y-116532000I-100000J0D01*
G01*
X98100000Y-116532000D01*
G75*
G02*
X98000000Y-116432000I0J100000D01*
G01*
G37*
G36*
G01*
X98000000Y-115782000D02*
X98000000Y-115582000D01*
G75*
G02*
X98100000Y-115482000I100000J0D01*
G01*
X99375000Y-115482000D01*
G75*
G02*
X99475000Y-115582000I0J-100000D01*
G01*
X99475000Y-115782000D01*
G75*
G02*
X99375000Y-115882000I-100000J0D01*
G01*
X98100000Y-115882000D01*
G75*
G02*
X98000000Y-115782000I0J100000D01*
G01*
G37*
G36*
G01*
X98000000Y-115132000D02*
X98000000Y-114932000D01*
G75*
G02*
X98100000Y-114832000I100000J0D01*
G01*
X99375000Y-114832000D01*
G75*
G02*
X99475000Y-114932000I0J-100000D01*
G01*
X99475000Y-115132000D01*
G75*
G02*
X99375000Y-115232000I-100000J0D01*
G01*
X98100000Y-115232000D01*
G75*
G02*
X98000000Y-115132000I0J100000D01*
G01*
G37*
G36*
G01*
X98000000Y-114482000D02*
X98000000Y-114282000D01*
G75*
G02*
X98100000Y-114182000I100000J0D01*
G01*
X99375000Y-114182000D01*
G75*
G02*
X99475000Y-114282000I0J-100000D01*
G01*
X99475000Y-114482000D01*
G75*
G02*
X99375000Y-114582000I-100000J0D01*
G01*
X98100000Y-114582000D01*
G75*
G02*
X98000000Y-114482000I0J100000D01*
G01*
G37*
D12*
X134620000Y-121920000D03*
X137160000Y-121920000D03*
X139700000Y-121920000D03*
X142240000Y-121920000D03*
X144780000Y-121920000D03*
X147320000Y-121920000D03*
X149860000Y-121920000D03*
X152400000Y-121920000D03*
X154940000Y-121920000D03*
X157480000Y-121920000D03*
X160020000Y-121920000D03*
X162560000Y-121920000D03*
X165100000Y-121920000D03*
X167640000Y-121920000D03*
X170180000Y-121920000D03*
D13*
X172720000Y-121920000D03*
D12*
X93980000Y-134620000D03*
X93980000Y-137160000D03*
X91440000Y-134620000D03*
X91440000Y-137160000D03*
X88900000Y-134620000D03*
X88900000Y-137160000D03*
X86360000Y-134620000D03*
X86360000Y-137160000D03*
X83820000Y-134620000D03*
D13*
X83820000Y-137160000D03*
G36*
G01*
X85725000Y-148234400D02*
X85725000Y-143865600D01*
G75*
G02*
X86715600Y-142875000I990600J0D01*
G01*
X91084400Y-142875000D01*
G75*
G02*
X92075000Y-143865600I0J-990600D01*
G01*
X92075000Y-148234400D01*
G75*
G02*
X91084400Y-149225000I-990600J0D01*
G01*
X86715600Y-149225000D01*
G75*
G02*
X85725000Y-148234400I0J990600D01*
G01*
G37*
D12*
X154940000Y-83820000D03*
D13*
X152400000Y-83820000D03*
D32*
X99060000Y-152400000D03*
X96520000Y-152400000D03*
D33*
X91440000Y-157480000D03*
X101600000Y-157480000D03*
G36*
G01*
X99613500Y-120646000D02*
X99613500Y-120146000D01*
G75*
G02*
X99838500Y-119921000I225000J0D01*
G01*
X100288500Y-119921000D01*
G75*
G02*
X100513500Y-120146000I0J-225000D01*
G01*
X100513500Y-120646000D01*
G75*
G02*
X100288500Y-120871000I-225000J0D01*
G01*
X99838500Y-120871000D01*
G75*
G02*
X99613500Y-120646000I0J225000D01*
G01*
G37*
G36*
G01*
X98063500Y-120646000D02*
X98063500Y-120146000D01*
G75*
G02*
X98288500Y-119921000I225000J0D01*
G01*
X98738500Y-119921000D01*
G75*
G02*
X98963500Y-120146000I0J-225000D01*
G01*
X98963500Y-120646000D01*
G75*
G02*
X98738500Y-120871000I-225000J0D01*
G01*
X98288500Y-120871000D01*
G75*
G02*
X98063500Y-120646000I0J225000D01*
G01*
G37*
G36*
G01*
X132880000Y-89950000D02*
X131280000Y-89950000D01*
G75*
G02*
X131030000Y-89700000I0J250000D01*
G01*
X131030000Y-88100000D01*
G75*
G02*
X131280000Y-87850000I250000J0D01*
G01*
X132880000Y-87850000D01*
G75*
G02*
X133130000Y-88100000I0J-250000D01*
G01*
X133130000Y-89700000D01*
G75*
G02*
X132880000Y-89950000I-250000J0D01*
G01*
G37*
G36*
G01*
X132880000Y-92490000D02*
X131280000Y-92490000D01*
G75*
G02*
X131030000Y-92240000I0J250000D01*
G01*
X131030000Y-90640000D01*
G75*
G02*
X131280000Y-90390000I250000J0D01*
G01*
X132880000Y-90390000D01*
G75*
G02*
X133130000Y-90640000I0J-250000D01*
G01*
X133130000Y-92240000D01*
G75*
G02*
X132880000Y-92490000I-250000J0D01*
G01*
G37*
G36*
G01*
X132880000Y-95030000D02*
X131280000Y-95030000D01*
G75*
G02*
X131030000Y-94780000I0J250000D01*
G01*
X131030000Y-93180000D01*
G75*
G02*
X131280000Y-92930000I250000J0D01*
G01*
X132880000Y-92930000D01*
G75*
G02*
X133130000Y-93180000I0J-250000D01*
G01*
X133130000Y-94780000D01*
G75*
G02*
X132880000Y-95030000I-250000J0D01*
G01*
G37*
G36*
G01*
X132880000Y-97570000D02*
X131280000Y-97570000D01*
G75*
G02*
X131030000Y-97320000I0J250000D01*
G01*
X131030000Y-95720000D01*
G75*
G02*
X131280000Y-95470000I250000J0D01*
G01*
X132880000Y-95470000D01*
G75*
G02*
X133130000Y-95720000I0J-250000D01*
G01*
X133130000Y-97320000D01*
G75*
G02*
X132880000Y-97570000I-250000J0D01*
G01*
G37*
G36*
G01*
X132880000Y-100110000D02*
X131280000Y-100110000D01*
G75*
G02*
X131030000Y-99860000I0J250000D01*
G01*
X131030000Y-98260000D01*
G75*
G02*
X131280000Y-98010000I250000J0D01*
G01*
X132880000Y-98010000D01*
G75*
G02*
X133130000Y-98260000I0J-250000D01*
G01*
X133130000Y-99860000D01*
G75*
G02*
X132880000Y-100110000I-250000J0D01*
G01*
G37*
G36*
G01*
X132880000Y-102650000D02*
X131280000Y-102650000D01*
G75*
G02*
X131030000Y-102400000I0J250000D01*
G01*
X131030000Y-100800000D01*
G75*
G02*
X131280000Y-100550000I250000J0D01*
G01*
X132880000Y-100550000D01*
G75*
G02*
X133130000Y-100800000I0J-250000D01*
G01*
X133130000Y-102400000D01*
G75*
G02*
X132880000Y-102650000I-250000J0D01*
G01*
G37*
G36*
G01*
X132880000Y-105190000D02*
X131280000Y-105190000D01*
G75*
G02*
X131030000Y-104940000I0J250000D01*
G01*
X131030000Y-103340000D01*
G75*
G02*
X131280000Y-103090000I250000J0D01*
G01*
X132880000Y-103090000D01*
G75*
G02*
X133130000Y-103340000I0J-250000D01*
G01*
X133130000Y-104940000D01*
G75*
G02*
X132880000Y-105190000I-250000J0D01*
G01*
G37*
G36*
G01*
X132880000Y-107730000D02*
X131280000Y-107730000D01*
G75*
G02*
X131030000Y-107480000I0J250000D01*
G01*
X131030000Y-105880000D01*
G75*
G02*
X131280000Y-105630000I250000J0D01*
G01*
X132880000Y-105630000D01*
G75*
G02*
X133130000Y-105880000I0J-250000D01*
G01*
X133130000Y-107480000D01*
G75*
G02*
X132880000Y-107730000I-250000J0D01*
G01*
G37*
G36*
G01*
X132880000Y-110270000D02*
X131280000Y-110270000D01*
G75*
G02*
X131030000Y-110020000I0J250000D01*
G01*
X131030000Y-108420000D01*
G75*
G02*
X131280000Y-108170000I250000J0D01*
G01*
X132880000Y-108170000D01*
G75*
G02*
X133130000Y-108420000I0J-250000D01*
G01*
X133130000Y-110020000D01*
G75*
G02*
X132880000Y-110270000I-250000J0D01*
G01*
G37*
G36*
G01*
X132880000Y-112810000D02*
X131280000Y-112810000D01*
G75*
G02*
X131030000Y-112560000I0J250000D01*
G01*
X131030000Y-110960000D01*
G75*
G02*
X131280000Y-110710000I250000J0D01*
G01*
X132880000Y-110710000D01*
G75*
G02*
X133130000Y-110960000I0J-250000D01*
G01*
X133130000Y-112560000D01*
G75*
G02*
X132880000Y-112810000I-250000J0D01*
G01*
G37*
G36*
G01*
X132880000Y-115350000D02*
X131280000Y-115350000D01*
G75*
G02*
X131030000Y-115100000I0J250000D01*
G01*
X131030000Y-113500000D01*
G75*
G02*
X131280000Y-113250000I250000J0D01*
G01*
X132880000Y-113250000D01*
G75*
G02*
X133130000Y-113500000I0J-250000D01*
G01*
X133130000Y-115100000D01*
G75*
G02*
X132880000Y-115350000I-250000J0D01*
G01*
G37*
G36*
G01*
X135420000Y-89950000D02*
X133820000Y-89950000D01*
G75*
G02*
X133570000Y-89700000I0J250000D01*
G01*
X133570000Y-88100000D01*
G75*
G02*
X133820000Y-87850000I250000J0D01*
G01*
X135420000Y-87850000D01*
G75*
G02*
X135670000Y-88100000I0J-250000D01*
G01*
X135670000Y-89700000D01*
G75*
G02*
X135420000Y-89950000I-250000J0D01*
G01*
G37*
G36*
G01*
X135420000Y-92490000D02*
X133820000Y-92490000D01*
G75*
G02*
X133570000Y-92240000I0J250000D01*
G01*
X133570000Y-90640000D01*
G75*
G02*
X133820000Y-90390000I250000J0D01*
G01*
X135420000Y-90390000D01*
G75*
G02*
X135670000Y-90640000I0J-250000D01*
G01*
X135670000Y-92240000D01*
G75*
G02*
X135420000Y-92490000I-250000J0D01*
G01*
G37*
G36*
G01*
X135420000Y-95030000D02*
X133820000Y-95030000D01*
G75*
G02*
X133570000Y-94780000I0J250000D01*
G01*
X133570000Y-93180000D01*
G75*
G02*
X133820000Y-92930000I250000J0D01*
G01*
X135420000Y-92930000D01*
G75*
G02*
X135670000Y-93180000I0J-250000D01*
G01*
X135670000Y-94780000D01*
G75*
G02*
X135420000Y-95030000I-250000J0D01*
G01*
G37*
G36*
G01*
X135420000Y-97570000D02*
X133820000Y-97570000D01*
G75*
G02*
X133570000Y-97320000I0J250000D01*
G01*
X133570000Y-95720000D01*
G75*
G02*
X133820000Y-95470000I250000J0D01*
G01*
X135420000Y-95470000D01*
G75*
G02*
X135670000Y-95720000I0J-250000D01*
G01*
X135670000Y-97320000D01*
G75*
G02*
X135420000Y-97570000I-250000J0D01*
G01*
G37*
G36*
G01*
X135420000Y-100110000D02*
X133820000Y-100110000D01*
G75*
G02*
X133570000Y-99860000I0J250000D01*
G01*
X133570000Y-98260000D01*
G75*
G02*
X133820000Y-98010000I250000J0D01*
G01*
X135420000Y-98010000D01*
G75*
G02*
X135670000Y-98260000I0J-250000D01*
G01*
X135670000Y-99860000D01*
G75*
G02*
X135420000Y-100110000I-250000J0D01*
G01*
G37*
G36*
G01*
X135420000Y-102650000D02*
X133820000Y-102650000D01*
G75*
G02*
X133570000Y-102400000I0J250000D01*
G01*
X133570000Y-100800000D01*
G75*
G02*
X133820000Y-100550000I250000J0D01*
G01*
X135420000Y-100550000D01*
G75*
G02*
X135670000Y-100800000I0J-250000D01*
G01*
X135670000Y-102400000D01*
G75*
G02*
X135420000Y-102650000I-250000J0D01*
G01*
G37*
G36*
G01*
X135420000Y-105190000D02*
X133820000Y-105190000D01*
G75*
G02*
X133570000Y-104940000I0J250000D01*
G01*
X133570000Y-103340000D01*
G75*
G02*
X133820000Y-103090000I250000J0D01*
G01*
X135420000Y-103090000D01*
G75*
G02*
X135670000Y-103340000I0J-250000D01*
G01*
X135670000Y-104940000D01*
G75*
G02*
X135420000Y-105190000I-250000J0D01*
G01*
G37*
G36*
G01*
X135420000Y-107730000D02*
X133820000Y-107730000D01*
G75*
G02*
X133570000Y-107480000I0J250000D01*
G01*
X133570000Y-105880000D01*
G75*
G02*
X133820000Y-105630000I250000J0D01*
G01*
X135420000Y-105630000D01*
G75*
G02*
X135670000Y-105880000I0J-250000D01*
G01*
X135670000Y-107480000D01*
G75*
G02*
X135420000Y-107730000I-250000J0D01*
G01*
G37*
G36*
G01*
X135420000Y-110270000D02*
X133820000Y-110270000D01*
G75*
G02*
X133570000Y-110020000I0J250000D01*
G01*
X133570000Y-108420000D01*
G75*
G02*
X133820000Y-108170000I250000J0D01*
G01*
X135420000Y-108170000D01*
G75*
G02*
X135670000Y-108420000I0J-250000D01*
G01*
X135670000Y-110020000D01*
G75*
G02*
X135420000Y-110270000I-250000J0D01*
G01*
G37*
G36*
G01*
X135420000Y-112810000D02*
X133820000Y-112810000D01*
G75*
G02*
X133570000Y-112560000I0J250000D01*
G01*
X133570000Y-110960000D01*
G75*
G02*
X133820000Y-110710000I250000J0D01*
G01*
X135420000Y-110710000D01*
G75*
G02*
X135670000Y-110960000I0J-250000D01*
G01*
X135670000Y-112560000D01*
G75*
G02*
X135420000Y-112810000I-250000J0D01*
G01*
G37*
G36*
G01*
X135420000Y-115350000D02*
X133820000Y-115350000D01*
G75*
G02*
X133570000Y-115100000I0J250000D01*
G01*
X133570000Y-113500000D01*
G75*
G02*
X133820000Y-113250000I250000J0D01*
G01*
X135420000Y-113250000D01*
G75*
G02*
X135670000Y-113500000I0J-250000D01*
G01*
X135670000Y-115100000D01*
G75*
G02*
X135420000Y-115350000I-250000J0D01*
G01*
G37*
G36*
G01*
X135420000Y-117890000D02*
X133820000Y-117890000D01*
G75*
G02*
X133570000Y-117640000I0J250000D01*
G01*
X133570000Y-116040000D01*
G75*
G02*
X133820000Y-115790000I250000J0D01*
G01*
X135420000Y-115790000D01*
G75*
G02*
X135670000Y-116040000I0J-250000D01*
G01*
X135670000Y-117640000D01*
G75*
G02*
X135420000Y-117890000I-250000J0D01*
G01*
G37*
G36*
G01*
X132880000Y-117890000D02*
X131280000Y-117890000D01*
G75*
G02*
X131030000Y-117640000I0J250000D01*
G01*
X131030000Y-116040000D01*
G75*
G02*
X131280000Y-115790000I250000J0D01*
G01*
X132880000Y-115790000D01*
G75*
G02*
X133130000Y-116040000I0J-250000D01*
G01*
X133130000Y-117640000D01*
G75*
G02*
X132880000Y-117890000I-250000J0D01*
G01*
G37*
G36*
G01*
X176060000Y-89950000D02*
X174460000Y-89950000D01*
G75*
G02*
X174210000Y-89700000I0J250000D01*
G01*
X174210000Y-88100000D01*
G75*
G02*
X174460000Y-87850000I250000J0D01*
G01*
X176060000Y-87850000D01*
G75*
G02*
X176310000Y-88100000I0J-250000D01*
G01*
X176310000Y-89700000D01*
G75*
G02*
X176060000Y-89950000I-250000J0D01*
G01*
G37*
G36*
G01*
X176060000Y-92490000D02*
X174460000Y-92490000D01*
G75*
G02*
X174210000Y-92240000I0J250000D01*
G01*
X174210000Y-90640000D01*
G75*
G02*
X174460000Y-90390000I250000J0D01*
G01*
X176060000Y-90390000D01*
G75*
G02*
X176310000Y-90640000I0J-250000D01*
G01*
X176310000Y-92240000D01*
G75*
G02*
X176060000Y-92490000I-250000J0D01*
G01*
G37*
G36*
G01*
X176060000Y-95030000D02*
X174460000Y-95030000D01*
G75*
G02*
X174210000Y-94780000I0J250000D01*
G01*
X174210000Y-93180000D01*
G75*
G02*
X174460000Y-92930000I250000J0D01*
G01*
X176060000Y-92930000D01*
G75*
G02*
X176310000Y-93180000I0J-250000D01*
G01*
X176310000Y-94780000D01*
G75*
G02*
X176060000Y-95030000I-250000J0D01*
G01*
G37*
G36*
G01*
X176060000Y-97570000D02*
X174460000Y-97570000D01*
G75*
G02*
X174210000Y-97320000I0J250000D01*
G01*
X174210000Y-95720000D01*
G75*
G02*
X174460000Y-95470000I250000J0D01*
G01*
X176060000Y-95470000D01*
G75*
G02*
X176310000Y-95720000I0J-250000D01*
G01*
X176310000Y-97320000D01*
G75*
G02*
X176060000Y-97570000I-250000J0D01*
G01*
G37*
G36*
G01*
X176060000Y-100110000D02*
X174460000Y-100110000D01*
G75*
G02*
X174210000Y-99860000I0J250000D01*
G01*
X174210000Y-98260000D01*
G75*
G02*
X174460000Y-98010000I250000J0D01*
G01*
X176060000Y-98010000D01*
G75*
G02*
X176310000Y-98260000I0J-250000D01*
G01*
X176310000Y-99860000D01*
G75*
G02*
X176060000Y-100110000I-250000J0D01*
G01*
G37*
G36*
G01*
X176060000Y-102650000D02*
X174460000Y-102650000D01*
G75*
G02*
X174210000Y-102400000I0J250000D01*
G01*
X174210000Y-100800000D01*
G75*
G02*
X174460000Y-100550000I250000J0D01*
G01*
X176060000Y-100550000D01*
G75*
G02*
X176310000Y-100800000I0J-250000D01*
G01*
X176310000Y-102400000D01*
G75*
G02*
X176060000Y-102650000I-250000J0D01*
G01*
G37*
G36*
G01*
X176060000Y-105190000D02*
X174460000Y-105190000D01*
G75*
G02*
X174210000Y-104940000I0J250000D01*
G01*
X174210000Y-103340000D01*
G75*
G02*
X174460000Y-103090000I250000J0D01*
G01*
X176060000Y-103090000D01*
G75*
G02*
X176310000Y-103340000I0J-250000D01*
G01*
X176310000Y-104940000D01*
G75*
G02*
X176060000Y-105190000I-250000J0D01*
G01*
G37*
G36*
G01*
X176060000Y-107730000D02*
X174460000Y-107730000D01*
G75*
G02*
X174210000Y-107480000I0J250000D01*
G01*
X174210000Y-105880000D01*
G75*
G02*
X174460000Y-105630000I250000J0D01*
G01*
X176060000Y-105630000D01*
G75*
G02*
X176310000Y-105880000I0J-250000D01*
G01*
X176310000Y-107480000D01*
G75*
G02*
X176060000Y-107730000I-250000J0D01*
G01*
G37*
G36*
G01*
X176060000Y-110270000D02*
X174460000Y-110270000D01*
G75*
G02*
X174210000Y-110020000I0J250000D01*
G01*
X174210000Y-108420000D01*
G75*
G02*
X174460000Y-108170000I250000J0D01*
G01*
X176060000Y-108170000D01*
G75*
G02*
X176310000Y-108420000I0J-250000D01*
G01*
X176310000Y-110020000D01*
G75*
G02*
X176060000Y-110270000I-250000J0D01*
G01*
G37*
G36*
G01*
X176060000Y-112810000D02*
X174460000Y-112810000D01*
G75*
G02*
X174210000Y-112560000I0J250000D01*
G01*
X174210000Y-110960000D01*
G75*
G02*
X174460000Y-110710000I250000J0D01*
G01*
X176060000Y-110710000D01*
G75*
G02*
X176310000Y-110960000I0J-250000D01*
G01*
X176310000Y-112560000D01*
G75*
G02*
X176060000Y-112810000I-250000J0D01*
G01*
G37*
G36*
G01*
X176060000Y-115350000D02*
X174460000Y-115350000D01*
G75*
G02*
X174210000Y-115100000I0J250000D01*
G01*
X174210000Y-113500000D01*
G75*
G02*
X174460000Y-113250000I250000J0D01*
G01*
X176060000Y-113250000D01*
G75*
G02*
X176310000Y-113500000I0J-250000D01*
G01*
X176310000Y-115100000D01*
G75*
G02*
X176060000Y-115350000I-250000J0D01*
G01*
G37*
G36*
G01*
X173520000Y-89950000D02*
X171920000Y-89950000D01*
G75*
G02*
X171670000Y-89700000I0J250000D01*
G01*
X171670000Y-88100000D01*
G75*
G02*
X171920000Y-87850000I250000J0D01*
G01*
X173520000Y-87850000D01*
G75*
G02*
X173770000Y-88100000I0J-250000D01*
G01*
X173770000Y-89700000D01*
G75*
G02*
X173520000Y-89950000I-250000J0D01*
G01*
G37*
G36*
G01*
X173520000Y-92490000D02*
X171920000Y-92490000D01*
G75*
G02*
X171670000Y-92240000I0J250000D01*
G01*
X171670000Y-90640000D01*
G75*
G02*
X171920000Y-90390000I250000J0D01*
G01*
X173520000Y-90390000D01*
G75*
G02*
X173770000Y-90640000I0J-250000D01*
G01*
X173770000Y-92240000D01*
G75*
G02*
X173520000Y-92490000I-250000J0D01*
G01*
G37*
G36*
G01*
X173520000Y-95030000D02*
X171920000Y-95030000D01*
G75*
G02*
X171670000Y-94780000I0J250000D01*
G01*
X171670000Y-93180000D01*
G75*
G02*
X171920000Y-92930000I250000J0D01*
G01*
X173520000Y-92930000D01*
G75*
G02*
X173770000Y-93180000I0J-250000D01*
G01*
X173770000Y-94780000D01*
G75*
G02*
X173520000Y-95030000I-250000J0D01*
G01*
G37*
G36*
G01*
X173520000Y-97570000D02*
X171920000Y-97570000D01*
G75*
G02*
X171670000Y-97320000I0J250000D01*
G01*
X171670000Y-95720000D01*
G75*
G02*
X171920000Y-95470000I250000J0D01*
G01*
X173520000Y-95470000D01*
G75*
G02*
X173770000Y-95720000I0J-250000D01*
G01*
X173770000Y-97320000D01*
G75*
G02*
X173520000Y-97570000I-250000J0D01*
G01*
G37*
G36*
G01*
X173520000Y-100110000D02*
X171920000Y-100110000D01*
G75*
G02*
X171670000Y-99860000I0J250000D01*
G01*
X171670000Y-98260000D01*
G75*
G02*
X171920000Y-98010000I250000J0D01*
G01*
X173520000Y-98010000D01*
G75*
G02*
X173770000Y-98260000I0J-250000D01*
G01*
X173770000Y-99860000D01*
G75*
G02*
X173520000Y-100110000I-250000J0D01*
G01*
G37*
G36*
G01*
X173520000Y-102650000D02*
X171920000Y-102650000D01*
G75*
G02*
X171670000Y-102400000I0J250000D01*
G01*
X171670000Y-100800000D01*
G75*
G02*
X171920000Y-100550000I250000J0D01*
G01*
X173520000Y-100550000D01*
G75*
G02*
X173770000Y-100800000I0J-250000D01*
G01*
X173770000Y-102400000D01*
G75*
G02*
X173520000Y-102650000I-250000J0D01*
G01*
G37*
G36*
G01*
X173520000Y-105190000D02*
X171920000Y-105190000D01*
G75*
G02*
X171670000Y-104940000I0J250000D01*
G01*
X171670000Y-103340000D01*
G75*
G02*
X171920000Y-103090000I250000J0D01*
G01*
X173520000Y-103090000D01*
G75*
G02*
X173770000Y-103340000I0J-250000D01*
G01*
X173770000Y-104940000D01*
G75*
G02*
X173520000Y-105190000I-250000J0D01*
G01*
G37*
G36*
G01*
X173520000Y-107730000D02*
X171920000Y-107730000D01*
G75*
G02*
X171670000Y-107480000I0J250000D01*
G01*
X171670000Y-105880000D01*
G75*
G02*
X171920000Y-105630000I250000J0D01*
G01*
X173520000Y-105630000D01*
G75*
G02*
X173770000Y-105880000I0J-250000D01*
G01*
X173770000Y-107480000D01*
G75*
G02*
X173520000Y-107730000I-250000J0D01*
G01*
G37*
G36*
G01*
X173520000Y-110270000D02*
X171920000Y-110270000D01*
G75*
G02*
X171670000Y-110020000I0J250000D01*
G01*
X171670000Y-108420000D01*
G75*
G02*
X171920000Y-108170000I250000J0D01*
G01*
X173520000Y-108170000D01*
G75*
G02*
X173770000Y-108420000I0J-250000D01*
G01*
X173770000Y-110020000D01*
G75*
G02*
X173520000Y-110270000I-250000J0D01*
G01*
G37*
G36*
G01*
X173520000Y-112810000D02*
X171920000Y-112810000D01*
G75*
G02*
X171670000Y-112560000I0J250000D01*
G01*
X171670000Y-110960000D01*
G75*
G02*
X171920000Y-110710000I250000J0D01*
G01*
X173520000Y-110710000D01*
G75*
G02*
X173770000Y-110960000I0J-250000D01*
G01*
X173770000Y-112560000D01*
G75*
G02*
X173520000Y-112810000I-250000J0D01*
G01*
G37*
G36*
G01*
X173520000Y-115350000D02*
X171920000Y-115350000D01*
G75*
G02*
X171670000Y-115100000I0J250000D01*
G01*
X171670000Y-113500000D01*
G75*
G02*
X171920000Y-113250000I250000J0D01*
G01*
X173520000Y-113250000D01*
G75*
G02*
X173770000Y-113500000I0J-250000D01*
G01*
X173770000Y-115100000D01*
G75*
G02*
X173520000Y-115350000I-250000J0D01*
G01*
G37*
G36*
G01*
X176060000Y-117890000D02*
X174460000Y-117890000D01*
G75*
G02*
X174210000Y-117640000I0J250000D01*
G01*
X174210000Y-116040000D01*
G75*
G02*
X174460000Y-115790000I250000J0D01*
G01*
X176060000Y-115790000D01*
G75*
G02*
X176310000Y-116040000I0J-250000D01*
G01*
X176310000Y-117640000D01*
G75*
G02*
X176060000Y-117890000I-250000J0D01*
G01*
G37*
G36*
G01*
X173520000Y-117890000D02*
X171920000Y-117890000D01*
G75*
G02*
X171670000Y-117640000I0J250000D01*
G01*
X171670000Y-116040000D01*
G75*
G02*
X171920000Y-115790000I250000J0D01*
G01*
X173520000Y-115790000D01*
G75*
G02*
X173770000Y-116040000I0J-250000D01*
G01*
X173770000Y-117640000D01*
G75*
G02*
X173520000Y-117890000I-250000J0D01*
G01*
G37*
G36*
G01*
X168440000Y-89950000D02*
X166840000Y-89950000D01*
G75*
G02*
X166590000Y-89700000I0J250000D01*
G01*
X166590000Y-88100000D01*
G75*
G02*
X166840000Y-87850000I250000J0D01*
G01*
X168440000Y-87850000D01*
G75*
G02*
X168690000Y-88100000I0J-250000D01*
G01*
X168690000Y-89700000D01*
G75*
G02*
X168440000Y-89950000I-250000J0D01*
G01*
G37*
G36*
G01*
X168440000Y-92490000D02*
X166840000Y-92490000D01*
G75*
G02*
X166590000Y-92240000I0J250000D01*
G01*
X166590000Y-90640000D01*
G75*
G02*
X166840000Y-90390000I250000J0D01*
G01*
X168440000Y-90390000D01*
G75*
G02*
X168690000Y-90640000I0J-250000D01*
G01*
X168690000Y-92240000D01*
G75*
G02*
X168440000Y-92490000I-250000J0D01*
G01*
G37*
G36*
G01*
X168440000Y-95030000D02*
X166840000Y-95030000D01*
G75*
G02*
X166590000Y-94780000I0J250000D01*
G01*
X166590000Y-93180000D01*
G75*
G02*
X166840000Y-92930000I250000J0D01*
G01*
X168440000Y-92930000D01*
G75*
G02*
X168690000Y-93180000I0J-250000D01*
G01*
X168690000Y-94780000D01*
G75*
G02*
X168440000Y-95030000I-250000J0D01*
G01*
G37*
G36*
G01*
X168440000Y-97570000D02*
X166840000Y-97570000D01*
G75*
G02*
X166590000Y-97320000I0J250000D01*
G01*
X166590000Y-95720000D01*
G75*
G02*
X166840000Y-95470000I250000J0D01*
G01*
X168440000Y-95470000D01*
G75*
G02*
X168690000Y-95720000I0J-250000D01*
G01*
X168690000Y-97320000D01*
G75*
G02*
X168440000Y-97570000I-250000J0D01*
G01*
G37*
G36*
G01*
X168440000Y-100110000D02*
X166840000Y-100110000D01*
G75*
G02*
X166590000Y-99860000I0J250000D01*
G01*
X166590000Y-98260000D01*
G75*
G02*
X166840000Y-98010000I250000J0D01*
G01*
X168440000Y-98010000D01*
G75*
G02*
X168690000Y-98260000I0J-250000D01*
G01*
X168690000Y-99860000D01*
G75*
G02*
X168440000Y-100110000I-250000J0D01*
G01*
G37*
G36*
G01*
X168440000Y-102650000D02*
X166840000Y-102650000D01*
G75*
G02*
X166590000Y-102400000I0J250000D01*
G01*
X166590000Y-100800000D01*
G75*
G02*
X166840000Y-100550000I250000J0D01*
G01*
X168440000Y-100550000D01*
G75*
G02*
X168690000Y-100800000I0J-250000D01*
G01*
X168690000Y-102400000D01*
G75*
G02*
X168440000Y-102650000I-250000J0D01*
G01*
G37*
G36*
G01*
X168440000Y-105190000D02*
X166840000Y-105190000D01*
G75*
G02*
X166590000Y-104940000I0J250000D01*
G01*
X166590000Y-103340000D01*
G75*
G02*
X166840000Y-103090000I250000J0D01*
G01*
X168440000Y-103090000D01*
G75*
G02*
X168690000Y-103340000I0J-250000D01*
G01*
X168690000Y-104940000D01*
G75*
G02*
X168440000Y-105190000I-250000J0D01*
G01*
G37*
G36*
G01*
X168440000Y-107730000D02*
X166840000Y-107730000D01*
G75*
G02*
X166590000Y-107480000I0J250000D01*
G01*
X166590000Y-105880000D01*
G75*
G02*
X166840000Y-105630000I250000J0D01*
G01*
X168440000Y-105630000D01*
G75*
G02*
X168690000Y-105880000I0J-250000D01*
G01*
X168690000Y-107480000D01*
G75*
G02*
X168440000Y-107730000I-250000J0D01*
G01*
G37*
G36*
G01*
X168440000Y-110270000D02*
X166840000Y-110270000D01*
G75*
G02*
X166590000Y-110020000I0J250000D01*
G01*
X166590000Y-108420000D01*
G75*
G02*
X166840000Y-108170000I250000J0D01*
G01*
X168440000Y-108170000D01*
G75*
G02*
X168690000Y-108420000I0J-250000D01*
G01*
X168690000Y-110020000D01*
G75*
G02*
X168440000Y-110270000I-250000J0D01*
G01*
G37*
G36*
G01*
X168440000Y-112810000D02*
X166840000Y-112810000D01*
G75*
G02*
X166590000Y-112560000I0J250000D01*
G01*
X166590000Y-110960000D01*
G75*
G02*
X166840000Y-110710000I250000J0D01*
G01*
X168440000Y-110710000D01*
G75*
G02*
X168690000Y-110960000I0J-250000D01*
G01*
X168690000Y-112560000D01*
G75*
G02*
X168440000Y-112810000I-250000J0D01*
G01*
G37*
G36*
G01*
X168440000Y-115350000D02*
X166840000Y-115350000D01*
G75*
G02*
X166590000Y-115100000I0J250000D01*
G01*
X166590000Y-113500000D01*
G75*
G02*
X166840000Y-113250000I250000J0D01*
G01*
X168440000Y-113250000D01*
G75*
G02*
X168690000Y-113500000I0J-250000D01*
G01*
X168690000Y-115100000D01*
G75*
G02*
X168440000Y-115350000I-250000J0D01*
G01*
G37*
G36*
G01*
X168440000Y-117890000D02*
X166840000Y-117890000D01*
G75*
G02*
X166590000Y-117640000I0J250000D01*
G01*
X166590000Y-116040000D01*
G75*
G02*
X166840000Y-115790000I250000J0D01*
G01*
X168440000Y-115790000D01*
G75*
G02*
X168690000Y-116040000I0J-250000D01*
G01*
X168690000Y-117640000D01*
G75*
G02*
X168440000Y-117890000I-250000J0D01*
G01*
G37*
G36*
G01*
X165900000Y-89950000D02*
X164300000Y-89950000D01*
G75*
G02*
X164050000Y-89700000I0J250000D01*
G01*
X164050000Y-88100000D01*
G75*
G02*
X164300000Y-87850000I250000J0D01*
G01*
X165900000Y-87850000D01*
G75*
G02*
X166150000Y-88100000I0J-250000D01*
G01*
X166150000Y-89700000D01*
G75*
G02*
X165900000Y-89950000I-250000J0D01*
G01*
G37*
G36*
G01*
X165900000Y-92490000D02*
X164300000Y-92490000D01*
G75*
G02*
X164050000Y-92240000I0J250000D01*
G01*
X164050000Y-90640000D01*
G75*
G02*
X164300000Y-90390000I250000J0D01*
G01*
X165900000Y-90390000D01*
G75*
G02*
X166150000Y-90640000I0J-250000D01*
G01*
X166150000Y-92240000D01*
G75*
G02*
X165900000Y-92490000I-250000J0D01*
G01*
G37*
G36*
G01*
X165900000Y-95030000D02*
X164300000Y-95030000D01*
G75*
G02*
X164050000Y-94780000I0J250000D01*
G01*
X164050000Y-93180000D01*
G75*
G02*
X164300000Y-92930000I250000J0D01*
G01*
X165900000Y-92930000D01*
G75*
G02*
X166150000Y-93180000I0J-250000D01*
G01*
X166150000Y-94780000D01*
G75*
G02*
X165900000Y-95030000I-250000J0D01*
G01*
G37*
G36*
G01*
X165900000Y-97570000D02*
X164300000Y-97570000D01*
G75*
G02*
X164050000Y-97320000I0J250000D01*
G01*
X164050000Y-95720000D01*
G75*
G02*
X164300000Y-95470000I250000J0D01*
G01*
X165900000Y-95470000D01*
G75*
G02*
X166150000Y-95720000I0J-250000D01*
G01*
X166150000Y-97320000D01*
G75*
G02*
X165900000Y-97570000I-250000J0D01*
G01*
G37*
G36*
G01*
X165900000Y-100110000D02*
X164300000Y-100110000D01*
G75*
G02*
X164050000Y-99860000I0J250000D01*
G01*
X164050000Y-98260000D01*
G75*
G02*
X164300000Y-98010000I250000J0D01*
G01*
X165900000Y-98010000D01*
G75*
G02*
X166150000Y-98260000I0J-250000D01*
G01*
X166150000Y-99860000D01*
G75*
G02*
X165900000Y-100110000I-250000J0D01*
G01*
G37*
G36*
G01*
X165900000Y-102650000D02*
X164300000Y-102650000D01*
G75*
G02*
X164050000Y-102400000I0J250000D01*
G01*
X164050000Y-100800000D01*
G75*
G02*
X164300000Y-100550000I250000J0D01*
G01*
X165900000Y-100550000D01*
G75*
G02*
X166150000Y-100800000I0J-250000D01*
G01*
X166150000Y-102400000D01*
G75*
G02*
X165900000Y-102650000I-250000J0D01*
G01*
G37*
G36*
G01*
X165900000Y-105190000D02*
X164300000Y-105190000D01*
G75*
G02*
X164050000Y-104940000I0J250000D01*
G01*
X164050000Y-103340000D01*
G75*
G02*
X164300000Y-103090000I250000J0D01*
G01*
X165900000Y-103090000D01*
G75*
G02*
X166150000Y-103340000I0J-250000D01*
G01*
X166150000Y-104940000D01*
G75*
G02*
X165900000Y-105190000I-250000J0D01*
G01*
G37*
G36*
G01*
X165900000Y-107730000D02*
X164300000Y-107730000D01*
G75*
G02*
X164050000Y-107480000I0J250000D01*
G01*
X164050000Y-105880000D01*
G75*
G02*
X164300000Y-105630000I250000J0D01*
G01*
X165900000Y-105630000D01*
G75*
G02*
X166150000Y-105880000I0J-250000D01*
G01*
X166150000Y-107480000D01*
G75*
G02*
X165900000Y-107730000I-250000J0D01*
G01*
G37*
G36*
G01*
X165900000Y-110270000D02*
X164300000Y-110270000D01*
G75*
G02*
X164050000Y-110020000I0J250000D01*
G01*
X164050000Y-108420000D01*
G75*
G02*
X164300000Y-108170000I250000J0D01*
G01*
X165900000Y-108170000D01*
G75*
G02*
X166150000Y-108420000I0J-250000D01*
G01*
X166150000Y-110020000D01*
G75*
G02*
X165900000Y-110270000I-250000J0D01*
G01*
G37*
G36*
G01*
X165900000Y-112810000D02*
X164300000Y-112810000D01*
G75*
G02*
X164050000Y-112560000I0J250000D01*
G01*
X164050000Y-110960000D01*
G75*
G02*
X164300000Y-110710000I250000J0D01*
G01*
X165900000Y-110710000D01*
G75*
G02*
X166150000Y-110960000I0J-250000D01*
G01*
X166150000Y-112560000D01*
G75*
G02*
X165900000Y-112810000I-250000J0D01*
G01*
G37*
G36*
G01*
X165900000Y-115350000D02*
X164300000Y-115350000D01*
G75*
G02*
X164050000Y-115100000I0J250000D01*
G01*
X164050000Y-113500000D01*
G75*
G02*
X164300000Y-113250000I250000J0D01*
G01*
X165900000Y-113250000D01*
G75*
G02*
X166150000Y-113500000I0J-250000D01*
G01*
X166150000Y-115100000D01*
G75*
G02*
X165900000Y-115350000I-250000J0D01*
G01*
G37*
G36*
G01*
X165900000Y-117890000D02*
X164300000Y-117890000D01*
G75*
G02*
X164050000Y-117640000I0J250000D01*
G01*
X164050000Y-116040000D01*
G75*
G02*
X164300000Y-115790000I250000J0D01*
G01*
X165900000Y-115790000D01*
G75*
G02*
X166150000Y-116040000I0J-250000D01*
G01*
X166150000Y-117640000D01*
G75*
G02*
X165900000Y-117890000I-250000J0D01*
G01*
G37*
G36*
G01*
X163360000Y-89950000D02*
X161760000Y-89950000D01*
G75*
G02*
X161510000Y-89700000I0J250000D01*
G01*
X161510000Y-88100000D01*
G75*
G02*
X161760000Y-87850000I250000J0D01*
G01*
X163360000Y-87850000D01*
G75*
G02*
X163610000Y-88100000I0J-250000D01*
G01*
X163610000Y-89700000D01*
G75*
G02*
X163360000Y-89950000I-250000J0D01*
G01*
G37*
G36*
G01*
X163360000Y-92490000D02*
X161760000Y-92490000D01*
G75*
G02*
X161510000Y-92240000I0J250000D01*
G01*
X161510000Y-90640000D01*
G75*
G02*
X161760000Y-90390000I250000J0D01*
G01*
X163360000Y-90390000D01*
G75*
G02*
X163610000Y-90640000I0J-250000D01*
G01*
X163610000Y-92240000D01*
G75*
G02*
X163360000Y-92490000I-250000J0D01*
G01*
G37*
G36*
G01*
X163360000Y-95030000D02*
X161760000Y-95030000D01*
G75*
G02*
X161510000Y-94780000I0J250000D01*
G01*
X161510000Y-93180000D01*
G75*
G02*
X161760000Y-92930000I250000J0D01*
G01*
X163360000Y-92930000D01*
G75*
G02*
X163610000Y-93180000I0J-250000D01*
G01*
X163610000Y-94780000D01*
G75*
G02*
X163360000Y-95030000I-250000J0D01*
G01*
G37*
G36*
G01*
X163360000Y-97570000D02*
X161760000Y-97570000D01*
G75*
G02*
X161510000Y-97320000I0J250000D01*
G01*
X161510000Y-95720000D01*
G75*
G02*
X161760000Y-95470000I250000J0D01*
G01*
X163360000Y-95470000D01*
G75*
G02*
X163610000Y-95720000I0J-250000D01*
G01*
X163610000Y-97320000D01*
G75*
G02*
X163360000Y-97570000I-250000J0D01*
G01*
G37*
G36*
G01*
X163360000Y-100110000D02*
X161760000Y-100110000D01*
G75*
G02*
X161510000Y-99860000I0J250000D01*
G01*
X161510000Y-98260000D01*
G75*
G02*
X161760000Y-98010000I250000J0D01*
G01*
X163360000Y-98010000D01*
G75*
G02*
X163610000Y-98260000I0J-250000D01*
G01*
X163610000Y-99860000D01*
G75*
G02*
X163360000Y-100110000I-250000J0D01*
G01*
G37*
G36*
G01*
X163360000Y-102650000D02*
X161760000Y-102650000D01*
G75*
G02*
X161510000Y-102400000I0J250000D01*
G01*
X161510000Y-100800000D01*
G75*
G02*
X161760000Y-100550000I250000J0D01*
G01*
X163360000Y-100550000D01*
G75*
G02*
X163610000Y-100800000I0J-250000D01*
G01*
X163610000Y-102400000D01*
G75*
G02*
X163360000Y-102650000I-250000J0D01*
G01*
G37*
G36*
G01*
X163360000Y-105190000D02*
X161760000Y-105190000D01*
G75*
G02*
X161510000Y-104940000I0J250000D01*
G01*
X161510000Y-103340000D01*
G75*
G02*
X161760000Y-103090000I250000J0D01*
G01*
X163360000Y-103090000D01*
G75*
G02*
X163610000Y-103340000I0J-250000D01*
G01*
X163610000Y-104940000D01*
G75*
G02*
X163360000Y-105190000I-250000J0D01*
G01*
G37*
G36*
G01*
X163360000Y-107730000D02*
X161760000Y-107730000D01*
G75*
G02*
X161510000Y-107480000I0J250000D01*
G01*
X161510000Y-105880000D01*
G75*
G02*
X161760000Y-105630000I250000J0D01*
G01*
X163360000Y-105630000D01*
G75*
G02*
X163610000Y-105880000I0J-250000D01*
G01*
X163610000Y-107480000D01*
G75*
G02*
X163360000Y-107730000I-250000J0D01*
G01*
G37*
G36*
G01*
X163360000Y-110270000D02*
X161760000Y-110270000D01*
G75*
G02*
X161510000Y-110020000I0J250000D01*
G01*
X161510000Y-108420000D01*
G75*
G02*
X161760000Y-108170000I250000J0D01*
G01*
X163360000Y-108170000D01*
G75*
G02*
X163610000Y-108420000I0J-250000D01*
G01*
X163610000Y-110020000D01*
G75*
G02*
X163360000Y-110270000I-250000J0D01*
G01*
G37*
G36*
G01*
X163360000Y-112810000D02*
X161760000Y-112810000D01*
G75*
G02*
X161510000Y-112560000I0J250000D01*
G01*
X161510000Y-110960000D01*
G75*
G02*
X161760000Y-110710000I250000J0D01*
G01*
X163360000Y-110710000D01*
G75*
G02*
X163610000Y-110960000I0J-250000D01*
G01*
X163610000Y-112560000D01*
G75*
G02*
X163360000Y-112810000I-250000J0D01*
G01*
G37*
G36*
G01*
X163360000Y-115350000D02*
X161760000Y-115350000D01*
G75*
G02*
X161510000Y-115100000I0J250000D01*
G01*
X161510000Y-113500000D01*
G75*
G02*
X161760000Y-113250000I250000J0D01*
G01*
X163360000Y-113250000D01*
G75*
G02*
X163610000Y-113500000I0J-250000D01*
G01*
X163610000Y-115100000D01*
G75*
G02*
X163360000Y-115350000I-250000J0D01*
G01*
G37*
G36*
G01*
X163360000Y-117890000D02*
X161760000Y-117890000D01*
G75*
G02*
X161510000Y-117640000I0J250000D01*
G01*
X161510000Y-116040000D01*
G75*
G02*
X161760000Y-115790000I250000J0D01*
G01*
X163360000Y-115790000D01*
G75*
G02*
X163610000Y-116040000I0J-250000D01*
G01*
X163610000Y-117640000D01*
G75*
G02*
X163360000Y-117890000I-250000J0D01*
G01*
G37*
G36*
G01*
X160820000Y-89950000D02*
X159220000Y-89950000D01*
G75*
G02*
X158970000Y-89700000I0J250000D01*
G01*
X158970000Y-88100000D01*
G75*
G02*
X159220000Y-87850000I250000J0D01*
G01*
X160820000Y-87850000D01*
G75*
G02*
X161070000Y-88100000I0J-250000D01*
G01*
X161070000Y-89700000D01*
G75*
G02*
X160820000Y-89950000I-250000J0D01*
G01*
G37*
G36*
G01*
X160820000Y-92490000D02*
X159220000Y-92490000D01*
G75*
G02*
X158970000Y-92240000I0J250000D01*
G01*
X158970000Y-90640000D01*
G75*
G02*
X159220000Y-90390000I250000J0D01*
G01*
X160820000Y-90390000D01*
G75*
G02*
X161070000Y-90640000I0J-250000D01*
G01*
X161070000Y-92240000D01*
G75*
G02*
X160820000Y-92490000I-250000J0D01*
G01*
G37*
G36*
G01*
X160820000Y-95030000D02*
X159220000Y-95030000D01*
G75*
G02*
X158970000Y-94780000I0J250000D01*
G01*
X158970000Y-93180000D01*
G75*
G02*
X159220000Y-92930000I250000J0D01*
G01*
X160820000Y-92930000D01*
G75*
G02*
X161070000Y-93180000I0J-250000D01*
G01*
X161070000Y-94780000D01*
G75*
G02*
X160820000Y-95030000I-250000J0D01*
G01*
G37*
G36*
G01*
X160820000Y-97570000D02*
X159220000Y-97570000D01*
G75*
G02*
X158970000Y-97320000I0J250000D01*
G01*
X158970000Y-95720000D01*
G75*
G02*
X159220000Y-95470000I250000J0D01*
G01*
X160820000Y-95470000D01*
G75*
G02*
X161070000Y-95720000I0J-250000D01*
G01*
X161070000Y-97320000D01*
G75*
G02*
X160820000Y-97570000I-250000J0D01*
G01*
G37*
G36*
G01*
X160820000Y-100110000D02*
X159220000Y-100110000D01*
G75*
G02*
X158970000Y-99860000I0J250000D01*
G01*
X158970000Y-98260000D01*
G75*
G02*
X159220000Y-98010000I250000J0D01*
G01*
X160820000Y-98010000D01*
G75*
G02*
X161070000Y-98260000I0J-250000D01*
G01*
X161070000Y-99860000D01*
G75*
G02*
X160820000Y-100110000I-250000J0D01*
G01*
G37*
G36*
G01*
X160820000Y-102650000D02*
X159220000Y-102650000D01*
G75*
G02*
X158970000Y-102400000I0J250000D01*
G01*
X158970000Y-100800000D01*
G75*
G02*
X159220000Y-100550000I250000J0D01*
G01*
X160820000Y-100550000D01*
G75*
G02*
X161070000Y-100800000I0J-250000D01*
G01*
X161070000Y-102400000D01*
G75*
G02*
X160820000Y-102650000I-250000J0D01*
G01*
G37*
G36*
G01*
X160820000Y-105190000D02*
X159220000Y-105190000D01*
G75*
G02*
X158970000Y-104940000I0J250000D01*
G01*
X158970000Y-103340000D01*
G75*
G02*
X159220000Y-103090000I250000J0D01*
G01*
X160820000Y-103090000D01*
G75*
G02*
X161070000Y-103340000I0J-250000D01*
G01*
X161070000Y-104940000D01*
G75*
G02*
X160820000Y-105190000I-250000J0D01*
G01*
G37*
G36*
G01*
X160820000Y-107730000D02*
X159220000Y-107730000D01*
G75*
G02*
X158970000Y-107480000I0J250000D01*
G01*
X158970000Y-105880000D01*
G75*
G02*
X159220000Y-105630000I250000J0D01*
G01*
X160820000Y-105630000D01*
G75*
G02*
X161070000Y-105880000I0J-250000D01*
G01*
X161070000Y-107480000D01*
G75*
G02*
X160820000Y-107730000I-250000J0D01*
G01*
G37*
G36*
G01*
X160820000Y-110270000D02*
X159220000Y-110270000D01*
G75*
G02*
X158970000Y-110020000I0J250000D01*
G01*
X158970000Y-108420000D01*
G75*
G02*
X159220000Y-108170000I250000J0D01*
G01*
X160820000Y-108170000D01*
G75*
G02*
X161070000Y-108420000I0J-250000D01*
G01*
X161070000Y-110020000D01*
G75*
G02*
X160820000Y-110270000I-250000J0D01*
G01*
G37*
G36*
G01*
X160820000Y-112810000D02*
X159220000Y-112810000D01*
G75*
G02*
X158970000Y-112560000I0J250000D01*
G01*
X158970000Y-110960000D01*
G75*
G02*
X159220000Y-110710000I250000J0D01*
G01*
X160820000Y-110710000D01*
G75*
G02*
X161070000Y-110960000I0J-250000D01*
G01*
X161070000Y-112560000D01*
G75*
G02*
X160820000Y-112810000I-250000J0D01*
G01*
G37*
G36*
G01*
X160820000Y-115350000D02*
X159220000Y-115350000D01*
G75*
G02*
X158970000Y-115100000I0J250000D01*
G01*
X158970000Y-113500000D01*
G75*
G02*
X159220000Y-113250000I250000J0D01*
G01*
X160820000Y-113250000D01*
G75*
G02*
X161070000Y-113500000I0J-250000D01*
G01*
X161070000Y-115100000D01*
G75*
G02*
X160820000Y-115350000I-250000J0D01*
G01*
G37*
G36*
G01*
X160820000Y-117890000D02*
X159220000Y-117890000D01*
G75*
G02*
X158970000Y-117640000I0J250000D01*
G01*
X158970000Y-116040000D01*
G75*
G02*
X159220000Y-115790000I250000J0D01*
G01*
X160820000Y-115790000D01*
G75*
G02*
X161070000Y-116040000I0J-250000D01*
G01*
X161070000Y-117640000D01*
G75*
G02*
X160820000Y-117890000I-250000J0D01*
G01*
G37*
G36*
G01*
X158280000Y-89950000D02*
X156680000Y-89950000D01*
G75*
G02*
X156430000Y-89700000I0J250000D01*
G01*
X156430000Y-88100000D01*
G75*
G02*
X156680000Y-87850000I250000J0D01*
G01*
X158280000Y-87850000D01*
G75*
G02*
X158530000Y-88100000I0J-250000D01*
G01*
X158530000Y-89700000D01*
G75*
G02*
X158280000Y-89950000I-250000J0D01*
G01*
G37*
G36*
G01*
X158280000Y-92490000D02*
X156680000Y-92490000D01*
G75*
G02*
X156430000Y-92240000I0J250000D01*
G01*
X156430000Y-90640000D01*
G75*
G02*
X156680000Y-90390000I250000J0D01*
G01*
X158280000Y-90390000D01*
G75*
G02*
X158530000Y-90640000I0J-250000D01*
G01*
X158530000Y-92240000D01*
G75*
G02*
X158280000Y-92490000I-250000J0D01*
G01*
G37*
G36*
G01*
X158280000Y-95030000D02*
X156680000Y-95030000D01*
G75*
G02*
X156430000Y-94780000I0J250000D01*
G01*
X156430000Y-93180000D01*
G75*
G02*
X156680000Y-92930000I250000J0D01*
G01*
X158280000Y-92930000D01*
G75*
G02*
X158530000Y-93180000I0J-250000D01*
G01*
X158530000Y-94780000D01*
G75*
G02*
X158280000Y-95030000I-250000J0D01*
G01*
G37*
G36*
G01*
X158280000Y-97570000D02*
X156680000Y-97570000D01*
G75*
G02*
X156430000Y-97320000I0J250000D01*
G01*
X156430000Y-95720000D01*
G75*
G02*
X156680000Y-95470000I250000J0D01*
G01*
X158280000Y-95470000D01*
G75*
G02*
X158530000Y-95720000I0J-250000D01*
G01*
X158530000Y-97320000D01*
G75*
G02*
X158280000Y-97570000I-250000J0D01*
G01*
G37*
G36*
G01*
X158280000Y-100110000D02*
X156680000Y-100110000D01*
G75*
G02*
X156430000Y-99860000I0J250000D01*
G01*
X156430000Y-98260000D01*
G75*
G02*
X156680000Y-98010000I250000J0D01*
G01*
X158280000Y-98010000D01*
G75*
G02*
X158530000Y-98260000I0J-250000D01*
G01*
X158530000Y-99860000D01*
G75*
G02*
X158280000Y-100110000I-250000J0D01*
G01*
G37*
G36*
G01*
X158280000Y-102650000D02*
X156680000Y-102650000D01*
G75*
G02*
X156430000Y-102400000I0J250000D01*
G01*
X156430000Y-100800000D01*
G75*
G02*
X156680000Y-100550000I250000J0D01*
G01*
X158280000Y-100550000D01*
G75*
G02*
X158530000Y-100800000I0J-250000D01*
G01*
X158530000Y-102400000D01*
G75*
G02*
X158280000Y-102650000I-250000J0D01*
G01*
G37*
G36*
G01*
X158280000Y-105190000D02*
X156680000Y-105190000D01*
G75*
G02*
X156430000Y-104940000I0J250000D01*
G01*
X156430000Y-103340000D01*
G75*
G02*
X156680000Y-103090000I250000J0D01*
G01*
X158280000Y-103090000D01*
G75*
G02*
X158530000Y-103340000I0J-250000D01*
G01*
X158530000Y-104940000D01*
G75*
G02*
X158280000Y-105190000I-250000J0D01*
G01*
G37*
G36*
G01*
X158280000Y-107730000D02*
X156680000Y-107730000D01*
G75*
G02*
X156430000Y-107480000I0J250000D01*
G01*
X156430000Y-105880000D01*
G75*
G02*
X156680000Y-105630000I250000J0D01*
G01*
X158280000Y-105630000D01*
G75*
G02*
X158530000Y-105880000I0J-250000D01*
G01*
X158530000Y-107480000D01*
G75*
G02*
X158280000Y-107730000I-250000J0D01*
G01*
G37*
G36*
G01*
X158280000Y-110270000D02*
X156680000Y-110270000D01*
G75*
G02*
X156430000Y-110020000I0J250000D01*
G01*
X156430000Y-108420000D01*
G75*
G02*
X156680000Y-108170000I250000J0D01*
G01*
X158280000Y-108170000D01*
G75*
G02*
X158530000Y-108420000I0J-250000D01*
G01*
X158530000Y-110020000D01*
G75*
G02*
X158280000Y-110270000I-250000J0D01*
G01*
G37*
G36*
G01*
X158280000Y-112810000D02*
X156680000Y-112810000D01*
G75*
G02*
X156430000Y-112560000I0J250000D01*
G01*
X156430000Y-110960000D01*
G75*
G02*
X156680000Y-110710000I250000J0D01*
G01*
X158280000Y-110710000D01*
G75*
G02*
X158530000Y-110960000I0J-250000D01*
G01*
X158530000Y-112560000D01*
G75*
G02*
X158280000Y-112810000I-250000J0D01*
G01*
G37*
G36*
G01*
X158280000Y-115350000D02*
X156680000Y-115350000D01*
G75*
G02*
X156430000Y-115100000I0J250000D01*
G01*
X156430000Y-113500000D01*
G75*
G02*
X156680000Y-113250000I250000J0D01*
G01*
X158280000Y-113250000D01*
G75*
G02*
X158530000Y-113500000I0J-250000D01*
G01*
X158530000Y-115100000D01*
G75*
G02*
X158280000Y-115350000I-250000J0D01*
G01*
G37*
G36*
G01*
X158280000Y-117890000D02*
X156680000Y-117890000D01*
G75*
G02*
X156430000Y-117640000I0J250000D01*
G01*
X156430000Y-116040000D01*
G75*
G02*
X156680000Y-115790000I250000J0D01*
G01*
X158280000Y-115790000D01*
G75*
G02*
X158530000Y-116040000I0J-250000D01*
G01*
X158530000Y-117640000D01*
G75*
G02*
X158280000Y-117890000I-250000J0D01*
G01*
G37*
G36*
G01*
X150660000Y-89950000D02*
X149060000Y-89950000D01*
G75*
G02*
X148810000Y-89700000I0J250000D01*
G01*
X148810000Y-88100000D01*
G75*
G02*
X149060000Y-87850000I250000J0D01*
G01*
X150660000Y-87850000D01*
G75*
G02*
X150910000Y-88100000I0J-250000D01*
G01*
X150910000Y-89700000D01*
G75*
G02*
X150660000Y-89950000I-250000J0D01*
G01*
G37*
G36*
G01*
X150660000Y-92490000D02*
X149060000Y-92490000D01*
G75*
G02*
X148810000Y-92240000I0J250000D01*
G01*
X148810000Y-90640000D01*
G75*
G02*
X149060000Y-90390000I250000J0D01*
G01*
X150660000Y-90390000D01*
G75*
G02*
X150910000Y-90640000I0J-250000D01*
G01*
X150910000Y-92240000D01*
G75*
G02*
X150660000Y-92490000I-250000J0D01*
G01*
G37*
G36*
G01*
X150660000Y-95030000D02*
X149060000Y-95030000D01*
G75*
G02*
X148810000Y-94780000I0J250000D01*
G01*
X148810000Y-93180000D01*
G75*
G02*
X149060000Y-92930000I250000J0D01*
G01*
X150660000Y-92930000D01*
G75*
G02*
X150910000Y-93180000I0J-250000D01*
G01*
X150910000Y-94780000D01*
G75*
G02*
X150660000Y-95030000I-250000J0D01*
G01*
G37*
G36*
G01*
X150660000Y-97570000D02*
X149060000Y-97570000D01*
G75*
G02*
X148810000Y-97320000I0J250000D01*
G01*
X148810000Y-95720000D01*
G75*
G02*
X149060000Y-95470000I250000J0D01*
G01*
X150660000Y-95470000D01*
G75*
G02*
X150910000Y-95720000I0J-250000D01*
G01*
X150910000Y-97320000D01*
G75*
G02*
X150660000Y-97570000I-250000J0D01*
G01*
G37*
G36*
G01*
X150660000Y-100110000D02*
X149060000Y-100110000D01*
G75*
G02*
X148810000Y-99860000I0J250000D01*
G01*
X148810000Y-98260000D01*
G75*
G02*
X149060000Y-98010000I250000J0D01*
G01*
X150660000Y-98010000D01*
G75*
G02*
X150910000Y-98260000I0J-250000D01*
G01*
X150910000Y-99860000D01*
G75*
G02*
X150660000Y-100110000I-250000J0D01*
G01*
G37*
G36*
G01*
X150660000Y-102650000D02*
X149060000Y-102650000D01*
G75*
G02*
X148810000Y-102400000I0J250000D01*
G01*
X148810000Y-100800000D01*
G75*
G02*
X149060000Y-100550000I250000J0D01*
G01*
X150660000Y-100550000D01*
G75*
G02*
X150910000Y-100800000I0J-250000D01*
G01*
X150910000Y-102400000D01*
G75*
G02*
X150660000Y-102650000I-250000J0D01*
G01*
G37*
G36*
G01*
X150660000Y-105190000D02*
X149060000Y-105190000D01*
G75*
G02*
X148810000Y-104940000I0J250000D01*
G01*
X148810000Y-103340000D01*
G75*
G02*
X149060000Y-103090000I250000J0D01*
G01*
X150660000Y-103090000D01*
G75*
G02*
X150910000Y-103340000I0J-250000D01*
G01*
X150910000Y-104940000D01*
G75*
G02*
X150660000Y-105190000I-250000J0D01*
G01*
G37*
G36*
G01*
X150660000Y-107730000D02*
X149060000Y-107730000D01*
G75*
G02*
X148810000Y-107480000I0J250000D01*
G01*
X148810000Y-105880000D01*
G75*
G02*
X149060000Y-105630000I250000J0D01*
G01*
X150660000Y-105630000D01*
G75*
G02*
X150910000Y-105880000I0J-250000D01*
G01*
X150910000Y-107480000D01*
G75*
G02*
X150660000Y-107730000I-250000J0D01*
G01*
G37*
G36*
G01*
X150660000Y-110270000D02*
X149060000Y-110270000D01*
G75*
G02*
X148810000Y-110020000I0J250000D01*
G01*
X148810000Y-108420000D01*
G75*
G02*
X149060000Y-108170000I250000J0D01*
G01*
X150660000Y-108170000D01*
G75*
G02*
X150910000Y-108420000I0J-250000D01*
G01*
X150910000Y-110020000D01*
G75*
G02*
X150660000Y-110270000I-250000J0D01*
G01*
G37*
G36*
G01*
X150660000Y-112810000D02*
X149060000Y-112810000D01*
G75*
G02*
X148810000Y-112560000I0J250000D01*
G01*
X148810000Y-110960000D01*
G75*
G02*
X149060000Y-110710000I250000J0D01*
G01*
X150660000Y-110710000D01*
G75*
G02*
X150910000Y-110960000I0J-250000D01*
G01*
X150910000Y-112560000D01*
G75*
G02*
X150660000Y-112810000I-250000J0D01*
G01*
G37*
G36*
G01*
X150660000Y-115350000D02*
X149060000Y-115350000D01*
G75*
G02*
X148810000Y-115100000I0J250000D01*
G01*
X148810000Y-113500000D01*
G75*
G02*
X149060000Y-113250000I250000J0D01*
G01*
X150660000Y-113250000D01*
G75*
G02*
X150910000Y-113500000I0J-250000D01*
G01*
X150910000Y-115100000D01*
G75*
G02*
X150660000Y-115350000I-250000J0D01*
G01*
G37*
G36*
G01*
X150660000Y-117890000D02*
X149060000Y-117890000D01*
G75*
G02*
X148810000Y-117640000I0J250000D01*
G01*
X148810000Y-116040000D01*
G75*
G02*
X149060000Y-115790000I250000J0D01*
G01*
X150660000Y-115790000D01*
G75*
G02*
X150910000Y-116040000I0J-250000D01*
G01*
X150910000Y-117640000D01*
G75*
G02*
X150660000Y-117890000I-250000J0D01*
G01*
G37*
G36*
G01*
X148120000Y-89950000D02*
X146520000Y-89950000D01*
G75*
G02*
X146270000Y-89700000I0J250000D01*
G01*
X146270000Y-88100000D01*
G75*
G02*
X146520000Y-87850000I250000J0D01*
G01*
X148120000Y-87850000D01*
G75*
G02*
X148370000Y-88100000I0J-250000D01*
G01*
X148370000Y-89700000D01*
G75*
G02*
X148120000Y-89950000I-250000J0D01*
G01*
G37*
G36*
G01*
X148120000Y-92490000D02*
X146520000Y-92490000D01*
G75*
G02*
X146270000Y-92240000I0J250000D01*
G01*
X146270000Y-90640000D01*
G75*
G02*
X146520000Y-90390000I250000J0D01*
G01*
X148120000Y-90390000D01*
G75*
G02*
X148370000Y-90640000I0J-250000D01*
G01*
X148370000Y-92240000D01*
G75*
G02*
X148120000Y-92490000I-250000J0D01*
G01*
G37*
G36*
G01*
X148120000Y-95030000D02*
X146520000Y-95030000D01*
G75*
G02*
X146270000Y-94780000I0J250000D01*
G01*
X146270000Y-93180000D01*
G75*
G02*
X146520000Y-92930000I250000J0D01*
G01*
X148120000Y-92930000D01*
G75*
G02*
X148370000Y-93180000I0J-250000D01*
G01*
X148370000Y-94780000D01*
G75*
G02*
X148120000Y-95030000I-250000J0D01*
G01*
G37*
G36*
G01*
X148120000Y-97570000D02*
X146520000Y-97570000D01*
G75*
G02*
X146270000Y-97320000I0J250000D01*
G01*
X146270000Y-95720000D01*
G75*
G02*
X146520000Y-95470000I250000J0D01*
G01*
X148120000Y-95470000D01*
G75*
G02*
X148370000Y-95720000I0J-250000D01*
G01*
X148370000Y-97320000D01*
G75*
G02*
X148120000Y-97570000I-250000J0D01*
G01*
G37*
G36*
G01*
X148120000Y-100110000D02*
X146520000Y-100110000D01*
G75*
G02*
X146270000Y-99860000I0J250000D01*
G01*
X146270000Y-98260000D01*
G75*
G02*
X146520000Y-98010000I250000J0D01*
G01*
X148120000Y-98010000D01*
G75*
G02*
X148370000Y-98260000I0J-250000D01*
G01*
X148370000Y-99860000D01*
G75*
G02*
X148120000Y-100110000I-250000J0D01*
G01*
G37*
G36*
G01*
X148120000Y-102650000D02*
X146520000Y-102650000D01*
G75*
G02*
X146270000Y-102400000I0J250000D01*
G01*
X146270000Y-100800000D01*
G75*
G02*
X146520000Y-100550000I250000J0D01*
G01*
X148120000Y-100550000D01*
G75*
G02*
X148370000Y-100800000I0J-250000D01*
G01*
X148370000Y-102400000D01*
G75*
G02*
X148120000Y-102650000I-250000J0D01*
G01*
G37*
G36*
G01*
X148120000Y-105190000D02*
X146520000Y-105190000D01*
G75*
G02*
X146270000Y-104940000I0J250000D01*
G01*
X146270000Y-103340000D01*
G75*
G02*
X146520000Y-103090000I250000J0D01*
G01*
X148120000Y-103090000D01*
G75*
G02*
X148370000Y-103340000I0J-250000D01*
G01*
X148370000Y-104940000D01*
G75*
G02*
X148120000Y-105190000I-250000J0D01*
G01*
G37*
G36*
G01*
X148120000Y-107730000D02*
X146520000Y-107730000D01*
G75*
G02*
X146270000Y-107480000I0J250000D01*
G01*
X146270000Y-105880000D01*
G75*
G02*
X146520000Y-105630000I250000J0D01*
G01*
X148120000Y-105630000D01*
G75*
G02*
X148370000Y-105880000I0J-250000D01*
G01*
X148370000Y-107480000D01*
G75*
G02*
X148120000Y-107730000I-250000J0D01*
G01*
G37*
G36*
G01*
X148120000Y-110270000D02*
X146520000Y-110270000D01*
G75*
G02*
X146270000Y-110020000I0J250000D01*
G01*
X146270000Y-108420000D01*
G75*
G02*
X146520000Y-108170000I250000J0D01*
G01*
X148120000Y-108170000D01*
G75*
G02*
X148370000Y-108420000I0J-250000D01*
G01*
X148370000Y-110020000D01*
G75*
G02*
X148120000Y-110270000I-250000J0D01*
G01*
G37*
G36*
G01*
X148120000Y-112810000D02*
X146520000Y-112810000D01*
G75*
G02*
X146270000Y-112560000I0J250000D01*
G01*
X146270000Y-110960000D01*
G75*
G02*
X146520000Y-110710000I250000J0D01*
G01*
X148120000Y-110710000D01*
G75*
G02*
X148370000Y-110960000I0J-250000D01*
G01*
X148370000Y-112560000D01*
G75*
G02*
X148120000Y-112810000I-250000J0D01*
G01*
G37*
G36*
G01*
X148120000Y-115350000D02*
X146520000Y-115350000D01*
G75*
G02*
X146270000Y-115100000I0J250000D01*
G01*
X146270000Y-113500000D01*
G75*
G02*
X146520000Y-113250000I250000J0D01*
G01*
X148120000Y-113250000D01*
G75*
G02*
X148370000Y-113500000I0J-250000D01*
G01*
X148370000Y-115100000D01*
G75*
G02*
X148120000Y-115350000I-250000J0D01*
G01*
G37*
G36*
G01*
X148120000Y-117890000D02*
X146520000Y-117890000D01*
G75*
G02*
X146270000Y-117640000I0J250000D01*
G01*
X146270000Y-116040000D01*
G75*
G02*
X146520000Y-115790000I250000J0D01*
G01*
X148120000Y-115790000D01*
G75*
G02*
X148370000Y-116040000I0J-250000D01*
G01*
X148370000Y-117640000D01*
G75*
G02*
X148120000Y-117890000I-250000J0D01*
G01*
G37*
G36*
G01*
X145580000Y-89950000D02*
X143980000Y-89950000D01*
G75*
G02*
X143730000Y-89700000I0J250000D01*
G01*
X143730000Y-88100000D01*
G75*
G02*
X143980000Y-87850000I250000J0D01*
G01*
X145580000Y-87850000D01*
G75*
G02*
X145830000Y-88100000I0J-250000D01*
G01*
X145830000Y-89700000D01*
G75*
G02*
X145580000Y-89950000I-250000J0D01*
G01*
G37*
G36*
G01*
X145580000Y-92490000D02*
X143980000Y-92490000D01*
G75*
G02*
X143730000Y-92240000I0J250000D01*
G01*
X143730000Y-90640000D01*
G75*
G02*
X143980000Y-90390000I250000J0D01*
G01*
X145580000Y-90390000D01*
G75*
G02*
X145830000Y-90640000I0J-250000D01*
G01*
X145830000Y-92240000D01*
G75*
G02*
X145580000Y-92490000I-250000J0D01*
G01*
G37*
G36*
G01*
X145580000Y-95030000D02*
X143980000Y-95030000D01*
G75*
G02*
X143730000Y-94780000I0J250000D01*
G01*
X143730000Y-93180000D01*
G75*
G02*
X143980000Y-92930000I250000J0D01*
G01*
X145580000Y-92930000D01*
G75*
G02*
X145830000Y-93180000I0J-250000D01*
G01*
X145830000Y-94780000D01*
G75*
G02*
X145580000Y-95030000I-250000J0D01*
G01*
G37*
G36*
G01*
X145580000Y-97570000D02*
X143980000Y-97570000D01*
G75*
G02*
X143730000Y-97320000I0J250000D01*
G01*
X143730000Y-95720000D01*
G75*
G02*
X143980000Y-95470000I250000J0D01*
G01*
X145580000Y-95470000D01*
G75*
G02*
X145830000Y-95720000I0J-250000D01*
G01*
X145830000Y-97320000D01*
G75*
G02*
X145580000Y-97570000I-250000J0D01*
G01*
G37*
G36*
G01*
X145580000Y-100110000D02*
X143980000Y-100110000D01*
G75*
G02*
X143730000Y-99860000I0J250000D01*
G01*
X143730000Y-98260000D01*
G75*
G02*
X143980000Y-98010000I250000J0D01*
G01*
X145580000Y-98010000D01*
G75*
G02*
X145830000Y-98260000I0J-250000D01*
G01*
X145830000Y-99860000D01*
G75*
G02*
X145580000Y-100110000I-250000J0D01*
G01*
G37*
G36*
G01*
X145580000Y-102650000D02*
X143980000Y-102650000D01*
G75*
G02*
X143730000Y-102400000I0J250000D01*
G01*
X143730000Y-100800000D01*
G75*
G02*
X143980000Y-100550000I250000J0D01*
G01*
X145580000Y-100550000D01*
G75*
G02*
X145830000Y-100800000I0J-250000D01*
G01*
X145830000Y-102400000D01*
G75*
G02*
X145580000Y-102650000I-250000J0D01*
G01*
G37*
G36*
G01*
X145580000Y-105190000D02*
X143980000Y-105190000D01*
G75*
G02*
X143730000Y-104940000I0J250000D01*
G01*
X143730000Y-103340000D01*
G75*
G02*
X143980000Y-103090000I250000J0D01*
G01*
X145580000Y-103090000D01*
G75*
G02*
X145830000Y-103340000I0J-250000D01*
G01*
X145830000Y-104940000D01*
G75*
G02*
X145580000Y-105190000I-250000J0D01*
G01*
G37*
G36*
G01*
X145580000Y-107730000D02*
X143980000Y-107730000D01*
G75*
G02*
X143730000Y-107480000I0J250000D01*
G01*
X143730000Y-105880000D01*
G75*
G02*
X143980000Y-105630000I250000J0D01*
G01*
X145580000Y-105630000D01*
G75*
G02*
X145830000Y-105880000I0J-250000D01*
G01*
X145830000Y-107480000D01*
G75*
G02*
X145580000Y-107730000I-250000J0D01*
G01*
G37*
G36*
G01*
X145580000Y-110270000D02*
X143980000Y-110270000D01*
G75*
G02*
X143730000Y-110020000I0J250000D01*
G01*
X143730000Y-108420000D01*
G75*
G02*
X143980000Y-108170000I250000J0D01*
G01*
X145580000Y-108170000D01*
G75*
G02*
X145830000Y-108420000I0J-250000D01*
G01*
X145830000Y-110020000D01*
G75*
G02*
X145580000Y-110270000I-250000J0D01*
G01*
G37*
G36*
G01*
X145580000Y-112810000D02*
X143980000Y-112810000D01*
G75*
G02*
X143730000Y-112560000I0J250000D01*
G01*
X143730000Y-110960000D01*
G75*
G02*
X143980000Y-110710000I250000J0D01*
G01*
X145580000Y-110710000D01*
G75*
G02*
X145830000Y-110960000I0J-250000D01*
G01*
X145830000Y-112560000D01*
G75*
G02*
X145580000Y-112810000I-250000J0D01*
G01*
G37*
G36*
G01*
X145580000Y-115350000D02*
X143980000Y-115350000D01*
G75*
G02*
X143730000Y-115100000I0J250000D01*
G01*
X143730000Y-113500000D01*
G75*
G02*
X143980000Y-113250000I250000J0D01*
G01*
X145580000Y-113250000D01*
G75*
G02*
X145830000Y-113500000I0J-250000D01*
G01*
X145830000Y-115100000D01*
G75*
G02*
X145580000Y-115350000I-250000J0D01*
G01*
G37*
G36*
G01*
X145580000Y-117890000D02*
X143980000Y-117890000D01*
G75*
G02*
X143730000Y-117640000I0J250000D01*
G01*
X143730000Y-116040000D01*
G75*
G02*
X143980000Y-115790000I250000J0D01*
G01*
X145580000Y-115790000D01*
G75*
G02*
X145830000Y-116040000I0J-250000D01*
G01*
X145830000Y-117640000D01*
G75*
G02*
X145580000Y-117890000I-250000J0D01*
G01*
G37*
G36*
G01*
X143040000Y-89950000D02*
X141440000Y-89950000D01*
G75*
G02*
X141190000Y-89700000I0J250000D01*
G01*
X141190000Y-88100000D01*
G75*
G02*
X141440000Y-87850000I250000J0D01*
G01*
X143040000Y-87850000D01*
G75*
G02*
X143290000Y-88100000I0J-250000D01*
G01*
X143290000Y-89700000D01*
G75*
G02*
X143040000Y-89950000I-250000J0D01*
G01*
G37*
G36*
G01*
X143040000Y-92490000D02*
X141440000Y-92490000D01*
G75*
G02*
X141190000Y-92240000I0J250000D01*
G01*
X141190000Y-90640000D01*
G75*
G02*
X141440000Y-90390000I250000J0D01*
G01*
X143040000Y-90390000D01*
G75*
G02*
X143290000Y-90640000I0J-250000D01*
G01*
X143290000Y-92240000D01*
G75*
G02*
X143040000Y-92490000I-250000J0D01*
G01*
G37*
G36*
G01*
X143040000Y-95030000D02*
X141440000Y-95030000D01*
G75*
G02*
X141190000Y-94780000I0J250000D01*
G01*
X141190000Y-93180000D01*
G75*
G02*
X141440000Y-92930000I250000J0D01*
G01*
X143040000Y-92930000D01*
G75*
G02*
X143290000Y-93180000I0J-250000D01*
G01*
X143290000Y-94780000D01*
G75*
G02*
X143040000Y-95030000I-250000J0D01*
G01*
G37*
G36*
G01*
X143040000Y-97570000D02*
X141440000Y-97570000D01*
G75*
G02*
X141190000Y-97320000I0J250000D01*
G01*
X141190000Y-95720000D01*
G75*
G02*
X141440000Y-95470000I250000J0D01*
G01*
X143040000Y-95470000D01*
G75*
G02*
X143290000Y-95720000I0J-250000D01*
G01*
X143290000Y-97320000D01*
G75*
G02*
X143040000Y-97570000I-250000J0D01*
G01*
G37*
G36*
G01*
X143040000Y-100110000D02*
X141440000Y-100110000D01*
G75*
G02*
X141190000Y-99860000I0J250000D01*
G01*
X141190000Y-98260000D01*
G75*
G02*
X141440000Y-98010000I250000J0D01*
G01*
X143040000Y-98010000D01*
G75*
G02*
X143290000Y-98260000I0J-250000D01*
G01*
X143290000Y-99860000D01*
G75*
G02*
X143040000Y-100110000I-250000J0D01*
G01*
G37*
G36*
G01*
X143040000Y-102650000D02*
X141440000Y-102650000D01*
G75*
G02*
X141190000Y-102400000I0J250000D01*
G01*
X141190000Y-100800000D01*
G75*
G02*
X141440000Y-100550000I250000J0D01*
G01*
X143040000Y-100550000D01*
G75*
G02*
X143290000Y-100800000I0J-250000D01*
G01*
X143290000Y-102400000D01*
G75*
G02*
X143040000Y-102650000I-250000J0D01*
G01*
G37*
G36*
G01*
X143040000Y-105190000D02*
X141440000Y-105190000D01*
G75*
G02*
X141190000Y-104940000I0J250000D01*
G01*
X141190000Y-103340000D01*
G75*
G02*
X141440000Y-103090000I250000J0D01*
G01*
X143040000Y-103090000D01*
G75*
G02*
X143290000Y-103340000I0J-250000D01*
G01*
X143290000Y-104940000D01*
G75*
G02*
X143040000Y-105190000I-250000J0D01*
G01*
G37*
G36*
G01*
X143040000Y-107730000D02*
X141440000Y-107730000D01*
G75*
G02*
X141190000Y-107480000I0J250000D01*
G01*
X141190000Y-105880000D01*
G75*
G02*
X141440000Y-105630000I250000J0D01*
G01*
X143040000Y-105630000D01*
G75*
G02*
X143290000Y-105880000I0J-250000D01*
G01*
X143290000Y-107480000D01*
G75*
G02*
X143040000Y-107730000I-250000J0D01*
G01*
G37*
G36*
G01*
X143040000Y-110270000D02*
X141440000Y-110270000D01*
G75*
G02*
X141190000Y-110020000I0J250000D01*
G01*
X141190000Y-108420000D01*
G75*
G02*
X141440000Y-108170000I250000J0D01*
G01*
X143040000Y-108170000D01*
G75*
G02*
X143290000Y-108420000I0J-250000D01*
G01*
X143290000Y-110020000D01*
G75*
G02*
X143040000Y-110270000I-250000J0D01*
G01*
G37*
G36*
G01*
X143040000Y-112810000D02*
X141440000Y-112810000D01*
G75*
G02*
X141190000Y-112560000I0J250000D01*
G01*
X141190000Y-110960000D01*
G75*
G02*
X141440000Y-110710000I250000J0D01*
G01*
X143040000Y-110710000D01*
G75*
G02*
X143290000Y-110960000I0J-250000D01*
G01*
X143290000Y-112560000D01*
G75*
G02*
X143040000Y-112810000I-250000J0D01*
G01*
G37*
G36*
G01*
X143040000Y-115350000D02*
X141440000Y-115350000D01*
G75*
G02*
X141190000Y-115100000I0J250000D01*
G01*
X141190000Y-113500000D01*
G75*
G02*
X141440000Y-113250000I250000J0D01*
G01*
X143040000Y-113250000D01*
G75*
G02*
X143290000Y-113500000I0J-250000D01*
G01*
X143290000Y-115100000D01*
G75*
G02*
X143040000Y-115350000I-250000J0D01*
G01*
G37*
G36*
G01*
X143040000Y-117890000D02*
X141440000Y-117890000D01*
G75*
G02*
X141190000Y-117640000I0J250000D01*
G01*
X141190000Y-116040000D01*
G75*
G02*
X141440000Y-115790000I250000J0D01*
G01*
X143040000Y-115790000D01*
G75*
G02*
X143290000Y-116040000I0J-250000D01*
G01*
X143290000Y-117640000D01*
G75*
G02*
X143040000Y-117890000I-250000J0D01*
G01*
G37*
G36*
G01*
X140500000Y-89950000D02*
X138900000Y-89950000D01*
G75*
G02*
X138650000Y-89700000I0J250000D01*
G01*
X138650000Y-88100000D01*
G75*
G02*
X138900000Y-87850000I250000J0D01*
G01*
X140500000Y-87850000D01*
G75*
G02*
X140750000Y-88100000I0J-250000D01*
G01*
X140750000Y-89700000D01*
G75*
G02*
X140500000Y-89950000I-250000J0D01*
G01*
G37*
G36*
G01*
X140500000Y-92490000D02*
X138900000Y-92490000D01*
G75*
G02*
X138650000Y-92240000I0J250000D01*
G01*
X138650000Y-90640000D01*
G75*
G02*
X138900000Y-90390000I250000J0D01*
G01*
X140500000Y-90390000D01*
G75*
G02*
X140750000Y-90640000I0J-250000D01*
G01*
X140750000Y-92240000D01*
G75*
G02*
X140500000Y-92490000I-250000J0D01*
G01*
G37*
G36*
G01*
X140500000Y-95030000D02*
X138900000Y-95030000D01*
G75*
G02*
X138650000Y-94780000I0J250000D01*
G01*
X138650000Y-93180000D01*
G75*
G02*
X138900000Y-92930000I250000J0D01*
G01*
X140500000Y-92930000D01*
G75*
G02*
X140750000Y-93180000I0J-250000D01*
G01*
X140750000Y-94780000D01*
G75*
G02*
X140500000Y-95030000I-250000J0D01*
G01*
G37*
G36*
G01*
X140500000Y-97570000D02*
X138900000Y-97570000D01*
G75*
G02*
X138650000Y-97320000I0J250000D01*
G01*
X138650000Y-95720000D01*
G75*
G02*
X138900000Y-95470000I250000J0D01*
G01*
X140500000Y-95470000D01*
G75*
G02*
X140750000Y-95720000I0J-250000D01*
G01*
X140750000Y-97320000D01*
G75*
G02*
X140500000Y-97570000I-250000J0D01*
G01*
G37*
G36*
G01*
X140500000Y-100110000D02*
X138900000Y-100110000D01*
G75*
G02*
X138650000Y-99860000I0J250000D01*
G01*
X138650000Y-98260000D01*
G75*
G02*
X138900000Y-98010000I250000J0D01*
G01*
X140500000Y-98010000D01*
G75*
G02*
X140750000Y-98260000I0J-250000D01*
G01*
X140750000Y-99860000D01*
G75*
G02*
X140500000Y-100110000I-250000J0D01*
G01*
G37*
G36*
G01*
X140500000Y-102650000D02*
X138900000Y-102650000D01*
G75*
G02*
X138650000Y-102400000I0J250000D01*
G01*
X138650000Y-100800000D01*
G75*
G02*
X138900000Y-100550000I250000J0D01*
G01*
X140500000Y-100550000D01*
G75*
G02*
X140750000Y-100800000I0J-250000D01*
G01*
X140750000Y-102400000D01*
G75*
G02*
X140500000Y-102650000I-250000J0D01*
G01*
G37*
G36*
G01*
X140500000Y-105190000D02*
X138900000Y-105190000D01*
G75*
G02*
X138650000Y-104940000I0J250000D01*
G01*
X138650000Y-103340000D01*
G75*
G02*
X138900000Y-103090000I250000J0D01*
G01*
X140500000Y-103090000D01*
G75*
G02*
X140750000Y-103340000I0J-250000D01*
G01*
X140750000Y-104940000D01*
G75*
G02*
X140500000Y-105190000I-250000J0D01*
G01*
G37*
G36*
G01*
X140500000Y-107730000D02*
X138900000Y-107730000D01*
G75*
G02*
X138650000Y-107480000I0J250000D01*
G01*
X138650000Y-105880000D01*
G75*
G02*
X138900000Y-105630000I250000J0D01*
G01*
X140500000Y-105630000D01*
G75*
G02*
X140750000Y-105880000I0J-250000D01*
G01*
X140750000Y-107480000D01*
G75*
G02*
X140500000Y-107730000I-250000J0D01*
G01*
G37*
G36*
G01*
X140500000Y-110270000D02*
X138900000Y-110270000D01*
G75*
G02*
X138650000Y-110020000I0J250000D01*
G01*
X138650000Y-108420000D01*
G75*
G02*
X138900000Y-108170000I250000J0D01*
G01*
X140500000Y-108170000D01*
G75*
G02*
X140750000Y-108420000I0J-250000D01*
G01*
X140750000Y-110020000D01*
G75*
G02*
X140500000Y-110270000I-250000J0D01*
G01*
G37*
G36*
G01*
X140500000Y-112810000D02*
X138900000Y-112810000D01*
G75*
G02*
X138650000Y-112560000I0J250000D01*
G01*
X138650000Y-110960000D01*
G75*
G02*
X138900000Y-110710000I250000J0D01*
G01*
X140500000Y-110710000D01*
G75*
G02*
X140750000Y-110960000I0J-250000D01*
G01*
X140750000Y-112560000D01*
G75*
G02*
X140500000Y-112810000I-250000J0D01*
G01*
G37*
G36*
G01*
X140500000Y-115350000D02*
X138900000Y-115350000D01*
G75*
G02*
X138650000Y-115100000I0J250000D01*
G01*
X138650000Y-113500000D01*
G75*
G02*
X138900000Y-113250000I250000J0D01*
G01*
X140500000Y-113250000D01*
G75*
G02*
X140750000Y-113500000I0J-250000D01*
G01*
X140750000Y-115100000D01*
G75*
G02*
X140500000Y-115350000I-250000J0D01*
G01*
G37*
G36*
G01*
X140500000Y-117890000D02*
X138900000Y-117890000D01*
G75*
G02*
X138650000Y-117640000I0J250000D01*
G01*
X138650000Y-116040000D01*
G75*
G02*
X138900000Y-115790000I250000J0D01*
G01*
X140500000Y-115790000D01*
G75*
G02*
X140750000Y-116040000I0J-250000D01*
G01*
X140750000Y-117640000D01*
G75*
G02*
X140500000Y-117890000I-250000J0D01*
G01*
G37*
D32*
X154940000Y-76200000D03*
X157480000Y-76200000D03*
D33*
X162560000Y-71120000D03*
X152400000Y-71120000D03*
G36*
G01*
X119230000Y-94845000D02*
X119530000Y-94845000D01*
G75*
G02*
X119680000Y-94995000I0J-150000D01*
G01*
X119680000Y-96645000D01*
G75*
G02*
X119530000Y-96795000I-150000J0D01*
G01*
X119230000Y-96795000D01*
G75*
G02*
X119080000Y-96645000I0J150000D01*
G01*
X119080000Y-94995000D01*
G75*
G02*
X119230000Y-94845000I150000J0D01*
G01*
G37*
G36*
G01*
X117960000Y-94845000D02*
X118260000Y-94845000D01*
G75*
G02*
X118410000Y-94995000I0J-150000D01*
G01*
X118410000Y-96645000D01*
G75*
G02*
X118260000Y-96795000I-150000J0D01*
G01*
X117960000Y-96795000D01*
G75*
G02*
X117810000Y-96645000I0J150000D01*
G01*
X117810000Y-94995000D01*
G75*
G02*
X117960000Y-94845000I150000J0D01*
G01*
G37*
G36*
G01*
X116690000Y-94845000D02*
X116990000Y-94845000D01*
G75*
G02*
X117140000Y-94995000I0J-150000D01*
G01*
X117140000Y-96645000D01*
G75*
G02*
X116990000Y-96795000I-150000J0D01*
G01*
X116690000Y-96795000D01*
G75*
G02*
X116540000Y-96645000I0J150000D01*
G01*
X116540000Y-94995000D01*
G75*
G02*
X116690000Y-94845000I150000J0D01*
G01*
G37*
G36*
G01*
X115420000Y-94845000D02*
X115720000Y-94845000D01*
G75*
G02*
X115870000Y-94995000I0J-150000D01*
G01*
X115870000Y-96645000D01*
G75*
G02*
X115720000Y-96795000I-150000J0D01*
G01*
X115420000Y-96795000D01*
G75*
G02*
X115270000Y-96645000I0J150000D01*
G01*
X115270000Y-94995000D01*
G75*
G02*
X115420000Y-94845000I150000J0D01*
G01*
G37*
G36*
G01*
X115420000Y-89895000D02*
X115720000Y-89895000D01*
G75*
G02*
X115870000Y-90045000I0J-150000D01*
G01*
X115870000Y-91695000D01*
G75*
G02*
X115720000Y-91845000I-150000J0D01*
G01*
X115420000Y-91845000D01*
G75*
G02*
X115270000Y-91695000I0J150000D01*
G01*
X115270000Y-90045000D01*
G75*
G02*
X115420000Y-89895000I150000J0D01*
G01*
G37*
G36*
G01*
X116690000Y-89895000D02*
X116990000Y-89895000D01*
G75*
G02*
X117140000Y-90045000I0J-150000D01*
G01*
X117140000Y-91695000D01*
G75*
G02*
X116990000Y-91845000I-150000J0D01*
G01*
X116690000Y-91845000D01*
G75*
G02*
X116540000Y-91695000I0J150000D01*
G01*
X116540000Y-90045000D01*
G75*
G02*
X116690000Y-89895000I150000J0D01*
G01*
G37*
G36*
G01*
X117960000Y-89895000D02*
X118260000Y-89895000D01*
G75*
G02*
X118410000Y-90045000I0J-150000D01*
G01*
X118410000Y-91695000D01*
G75*
G02*
X118260000Y-91845000I-150000J0D01*
G01*
X117960000Y-91845000D01*
G75*
G02*
X117810000Y-91695000I0J150000D01*
G01*
X117810000Y-90045000D01*
G75*
G02*
X117960000Y-89895000I150000J0D01*
G01*
G37*
G36*
G01*
X119230000Y-89895000D02*
X119530000Y-89895000D01*
G75*
G02*
X119680000Y-90045000I0J-150000D01*
G01*
X119680000Y-91695000D01*
G75*
G02*
X119530000Y-91845000I-150000J0D01*
G01*
X119230000Y-91845000D01*
G75*
G02*
X119080000Y-91695000I0J150000D01*
G01*
X119080000Y-90045000D01*
G75*
G02*
X119230000Y-89895000I150000J0D01*
G01*
G37*
G36*
G01*
X122104999Y-89300000D02*
X123005001Y-89300000D01*
G75*
G02*
X123255000Y-89549999I0J-249999D01*
G01*
X123255000Y-90075001D01*
G75*
G02*
X123005001Y-90325000I-249999J0D01*
G01*
X122104999Y-90325000D01*
G75*
G02*
X121855000Y-90075001I0J249999D01*
G01*
X121855000Y-89549999D01*
G75*
G02*
X122104999Y-89300000I249999J0D01*
G01*
G37*
G36*
G01*
X122104999Y-87475000D02*
X123005001Y-87475000D01*
G75*
G02*
X123255000Y-87724999I0J-249999D01*
G01*
X123255000Y-88250001D01*
G75*
G02*
X123005001Y-88500000I-249999J0D01*
G01*
X122104999Y-88500000D01*
G75*
G02*
X121855000Y-88250001I0J249999D01*
G01*
X121855000Y-87724999D01*
G75*
G02*
X122104999Y-87475000I249999J0D01*
G01*
G37*
D16*
X99060000Y-81280000D03*
D17*
X106560000Y-81280000D03*
D16*
X106560000Y-85090000D03*
D17*
X99060000Y-85090000D03*
D26*
X140970000Y-147320000D03*
D27*
X133350000Y-147320000D03*
D26*
X113030000Y-147320000D03*
D27*
X120650000Y-147320000D03*
D26*
X96520000Y-140335000D03*
D27*
X96520000Y-147955000D03*
D32*
X114300000Y-76200000D03*
X116840000Y-76200000D03*
D33*
X121920000Y-71120000D03*
X111760000Y-71120000D03*
D32*
X93980000Y-76200000D03*
X96520000Y-76200000D03*
D33*
X101600000Y-71120000D03*
X91440000Y-71120000D03*
D32*
X160020000Y-152400000D03*
X157480000Y-152400000D03*
D33*
X152400000Y-157480000D03*
X162560000Y-157480000D03*
D32*
X139700000Y-152400000D03*
X137160000Y-152400000D03*
D33*
X132080000Y-157480000D03*
X142240000Y-157480000D03*
D32*
X119380000Y-152400000D03*
X116840000Y-152400000D03*
D33*
X111760000Y-157480000D03*
X121920000Y-157480000D03*
D32*
X134620000Y-76200000D03*
X137160000Y-76200000D03*
D33*
X142240000Y-71120000D03*
X132080000Y-71120000D03*
D12*
X182880000Y-139700000D03*
X185420000Y-139700000D03*
D13*
X187960000Y-139700000D03*
D12*
X182880000Y-134620000D03*
X185420000Y-134620000D03*
D13*
X187960000Y-134620000D03*
G36*
G01*
X105260000Y-94845000D02*
X105560000Y-94845000D01*
G75*
G02*
X105710000Y-94995000I0J-150000D01*
G01*
X105710000Y-96645000D01*
G75*
G02*
X105560000Y-96795000I-150000J0D01*
G01*
X105260000Y-96795000D01*
G75*
G02*
X105110000Y-96645000I0J150000D01*
G01*
X105110000Y-94995000D01*
G75*
G02*
X105260000Y-94845000I150000J0D01*
G01*
G37*
G36*
G01*
X103990000Y-94845000D02*
X104290000Y-94845000D01*
G75*
G02*
X104440000Y-94995000I0J-150000D01*
G01*
X104440000Y-96645000D01*
G75*
G02*
X104290000Y-96795000I-150000J0D01*
G01*
X103990000Y-96795000D01*
G75*
G02*
X103840000Y-96645000I0J150000D01*
G01*
X103840000Y-94995000D01*
G75*
G02*
X103990000Y-94845000I150000J0D01*
G01*
G37*
G36*
G01*
X102720000Y-94845000D02*
X103020000Y-94845000D01*
G75*
G02*
X103170000Y-94995000I0J-150000D01*
G01*
X103170000Y-96645000D01*
G75*
G02*
X103020000Y-96795000I-150000J0D01*
G01*
X102720000Y-96795000D01*
G75*
G02*
X102570000Y-96645000I0J150000D01*
G01*
X102570000Y-94995000D01*
G75*
G02*
X102720000Y-94845000I150000J0D01*
G01*
G37*
G36*
G01*
X101450000Y-94845000D02*
X101750000Y-94845000D01*
G75*
G02*
X101900000Y-94995000I0J-150000D01*
G01*
X101900000Y-96645000D01*
G75*
G02*
X101750000Y-96795000I-150000J0D01*
G01*
X101450000Y-96795000D01*
G75*
G02*
X101300000Y-96645000I0J150000D01*
G01*
X101300000Y-94995000D01*
G75*
G02*
X101450000Y-94845000I150000J0D01*
G01*
G37*
G36*
G01*
X101450000Y-89895000D02*
X101750000Y-89895000D01*
G75*
G02*
X101900000Y-90045000I0J-150000D01*
G01*
X101900000Y-91695000D01*
G75*
G02*
X101750000Y-91845000I-150000J0D01*
G01*
X101450000Y-91845000D01*
G75*
G02*
X101300000Y-91695000I0J150000D01*
G01*
X101300000Y-90045000D01*
G75*
G02*
X101450000Y-89895000I150000J0D01*
G01*
G37*
G36*
G01*
X102720000Y-89895000D02*
X103020000Y-89895000D01*
G75*
G02*
X103170000Y-90045000I0J-150000D01*
G01*
X103170000Y-91695000D01*
G75*
G02*
X103020000Y-91845000I-150000J0D01*
G01*
X102720000Y-91845000D01*
G75*
G02*
X102570000Y-91695000I0J150000D01*
G01*
X102570000Y-90045000D01*
G75*
G02*
X102720000Y-89895000I150000J0D01*
G01*
G37*
G36*
G01*
X103990000Y-89895000D02*
X104290000Y-89895000D01*
G75*
G02*
X104440000Y-90045000I0J-150000D01*
G01*
X104440000Y-91695000D01*
G75*
G02*
X104290000Y-91845000I-150000J0D01*
G01*
X103990000Y-91845000D01*
G75*
G02*
X103840000Y-91695000I0J150000D01*
G01*
X103840000Y-90045000D01*
G75*
G02*
X103990000Y-89895000I150000J0D01*
G01*
G37*
G36*
G01*
X105260000Y-89895000D02*
X105560000Y-89895000D01*
G75*
G02*
X105710000Y-90045000I0J-150000D01*
G01*
X105710000Y-91695000D01*
G75*
G02*
X105560000Y-91845000I-150000J0D01*
G01*
X105260000Y-91845000D01*
G75*
G02*
X105110000Y-91695000I0J150000D01*
G01*
X105110000Y-90045000D01*
G75*
G02*
X105260000Y-89895000I150000J0D01*
G01*
G37*
G36*
G01*
X101890000Y-107520000D02*
X102040000Y-107520000D01*
G75*
G02*
X102115000Y-107595000I0J-75000D01*
G01*
X102115000Y-108895000D01*
G75*
G02*
X102040000Y-108970000I-75000J0D01*
G01*
X101890000Y-108970000D01*
G75*
G02*
X101815000Y-108895000I0J75000D01*
G01*
X101815000Y-107595000D01*
G75*
G02*
X101890000Y-107520000I75000J0D01*
G01*
G37*
G36*
G01*
X101390000Y-107520000D02*
X101540000Y-107520000D01*
G75*
G02*
X101615000Y-107595000I0J-75000D01*
G01*
X101615000Y-108895000D01*
G75*
G02*
X101540000Y-108970000I-75000J0D01*
G01*
X101390000Y-108970000D01*
G75*
G02*
X101315000Y-108895000I0J75000D01*
G01*
X101315000Y-107595000D01*
G75*
G02*
X101390000Y-107520000I75000J0D01*
G01*
G37*
G36*
G01*
X100890000Y-107520000D02*
X101040000Y-107520000D01*
G75*
G02*
X101115000Y-107595000I0J-75000D01*
G01*
X101115000Y-108895000D01*
G75*
G02*
X101040000Y-108970000I-75000J0D01*
G01*
X100890000Y-108970000D01*
G75*
G02*
X100815000Y-108895000I0J75000D01*
G01*
X100815000Y-107595000D01*
G75*
G02*
X100890000Y-107520000I75000J0D01*
G01*
G37*
G36*
G01*
X100390000Y-107520000D02*
X100540000Y-107520000D01*
G75*
G02*
X100615000Y-107595000I0J-75000D01*
G01*
X100615000Y-108895000D01*
G75*
G02*
X100540000Y-108970000I-75000J0D01*
G01*
X100390000Y-108970000D01*
G75*
G02*
X100315000Y-108895000I0J75000D01*
G01*
X100315000Y-107595000D01*
G75*
G02*
X100390000Y-107520000I75000J0D01*
G01*
G37*
G36*
G01*
X99890000Y-107520000D02*
X100040000Y-107520000D01*
G75*
G02*
X100115000Y-107595000I0J-75000D01*
G01*
X100115000Y-108895000D01*
G75*
G02*
X100040000Y-108970000I-75000J0D01*
G01*
X99890000Y-108970000D01*
G75*
G02*
X99815000Y-108895000I0J75000D01*
G01*
X99815000Y-107595000D01*
G75*
G02*
X99890000Y-107520000I75000J0D01*
G01*
G37*
G36*
G01*
X99890000Y-103120000D02*
X100040000Y-103120000D01*
G75*
G02*
X100115000Y-103195000I0J-75000D01*
G01*
X100115000Y-104495000D01*
G75*
G02*
X100040000Y-104570000I-75000J0D01*
G01*
X99890000Y-104570000D01*
G75*
G02*
X99815000Y-104495000I0J75000D01*
G01*
X99815000Y-103195000D01*
G75*
G02*
X99890000Y-103120000I75000J0D01*
G01*
G37*
G36*
G01*
X100390000Y-103120000D02*
X100540000Y-103120000D01*
G75*
G02*
X100615000Y-103195000I0J-75000D01*
G01*
X100615000Y-104495000D01*
G75*
G02*
X100540000Y-104570000I-75000J0D01*
G01*
X100390000Y-104570000D01*
G75*
G02*
X100315000Y-104495000I0J75000D01*
G01*
X100315000Y-103195000D01*
G75*
G02*
X100390000Y-103120000I75000J0D01*
G01*
G37*
G36*
G01*
X100890000Y-103120000D02*
X101040000Y-103120000D01*
G75*
G02*
X101115000Y-103195000I0J-75000D01*
G01*
X101115000Y-104495000D01*
G75*
G02*
X101040000Y-104570000I-75000J0D01*
G01*
X100890000Y-104570000D01*
G75*
G02*
X100815000Y-104495000I0J75000D01*
G01*
X100815000Y-103195000D01*
G75*
G02*
X100890000Y-103120000I75000J0D01*
G01*
G37*
G36*
G01*
X101390000Y-103120000D02*
X101540000Y-103120000D01*
G75*
G02*
X101615000Y-103195000I0J-75000D01*
G01*
X101615000Y-104495000D01*
G75*
G02*
X101540000Y-104570000I-75000J0D01*
G01*
X101390000Y-104570000D01*
G75*
G02*
X101315000Y-104495000I0J75000D01*
G01*
X101315000Y-103195000D01*
G75*
G02*
X101390000Y-103120000I75000J0D01*
G01*
G37*
G36*
G01*
X101890000Y-103120000D02*
X102040000Y-103120000D01*
G75*
G02*
X102115000Y-103195000I0J-75000D01*
G01*
X102115000Y-104495000D01*
G75*
G02*
X102040000Y-104570000I-75000J0D01*
G01*
X101890000Y-104570000D01*
G75*
G02*
X101815000Y-104495000I0J75000D01*
G01*
X101815000Y-103195000D01*
G75*
G02*
X101890000Y-103120000I75000J0D01*
G01*
G37*
G36*
G01*
X145820000Y-147805000D02*
X145820000Y-148105000D01*
G75*
G02*
X145670000Y-148255000I-150000J0D01*
G01*
X144020000Y-148255000D01*
G75*
G02*
X143870000Y-148105000I0J150000D01*
G01*
X143870000Y-147805000D01*
G75*
G02*
X144020000Y-147655000I150000J0D01*
G01*
X145670000Y-147655000D01*
G75*
G02*
X145820000Y-147805000I0J-150000D01*
G01*
G37*
G36*
G01*
X145820000Y-146535000D02*
X145820000Y-146835000D01*
G75*
G02*
X145670000Y-146985000I-150000J0D01*
G01*
X144020000Y-146985000D01*
G75*
G02*
X143870000Y-146835000I0J150000D01*
G01*
X143870000Y-146535000D01*
G75*
G02*
X144020000Y-146385000I150000J0D01*
G01*
X145670000Y-146385000D01*
G75*
G02*
X145820000Y-146535000I0J-150000D01*
G01*
G37*
G36*
G01*
X145820000Y-145265000D02*
X145820000Y-145565000D01*
G75*
G02*
X145670000Y-145715000I-150000J0D01*
G01*
X144020000Y-145715000D01*
G75*
G02*
X143870000Y-145565000I0J150000D01*
G01*
X143870000Y-145265000D01*
G75*
G02*
X144020000Y-145115000I150000J0D01*
G01*
X145670000Y-145115000D01*
G75*
G02*
X145820000Y-145265000I0J-150000D01*
G01*
G37*
G36*
G01*
X145820000Y-143995000D02*
X145820000Y-144295000D01*
G75*
G02*
X145670000Y-144445000I-150000J0D01*
G01*
X144020000Y-144445000D01*
G75*
G02*
X143870000Y-144295000I0J150000D01*
G01*
X143870000Y-143995000D01*
G75*
G02*
X144020000Y-143845000I150000J0D01*
G01*
X145670000Y-143845000D01*
G75*
G02*
X145820000Y-143995000I0J-150000D01*
G01*
G37*
G36*
G01*
X150770000Y-143995000D02*
X150770000Y-144295000D01*
G75*
G02*
X150620000Y-144445000I-150000J0D01*
G01*
X148970000Y-144445000D01*
G75*
G02*
X148820000Y-144295000I0J150000D01*
G01*
X148820000Y-143995000D01*
G75*
G02*
X148970000Y-143845000I150000J0D01*
G01*
X150620000Y-143845000D01*
G75*
G02*
X150770000Y-143995000I0J-150000D01*
G01*
G37*
G36*
G01*
X150770000Y-145265000D02*
X150770000Y-145565000D01*
G75*
G02*
X150620000Y-145715000I-150000J0D01*
G01*
X148970000Y-145715000D01*
G75*
G02*
X148820000Y-145565000I0J150000D01*
G01*
X148820000Y-145265000D01*
G75*
G02*
X148970000Y-145115000I150000J0D01*
G01*
X150620000Y-145115000D01*
G75*
G02*
X150770000Y-145265000I0J-150000D01*
G01*
G37*
G36*
G01*
X150770000Y-146535000D02*
X150770000Y-146835000D01*
G75*
G02*
X150620000Y-146985000I-150000J0D01*
G01*
X148970000Y-146985000D01*
G75*
G02*
X148820000Y-146835000I0J150000D01*
G01*
X148820000Y-146535000D01*
G75*
G02*
X148970000Y-146385000I150000J0D01*
G01*
X150620000Y-146385000D01*
G75*
G02*
X150770000Y-146535000I0J-150000D01*
G01*
G37*
G36*
G01*
X150770000Y-147805000D02*
X150770000Y-148105000D01*
G75*
G02*
X150620000Y-148255000I-150000J0D01*
G01*
X148970000Y-148255000D01*
G75*
G02*
X148820000Y-148105000I0J150000D01*
G01*
X148820000Y-147805000D01*
G75*
G02*
X148970000Y-147655000I150000J0D01*
G01*
X150620000Y-147655000D01*
G75*
G02*
X150770000Y-147805000I0J-150000D01*
G01*
G37*
G36*
G01*
X105180000Y-147805000D02*
X105180000Y-148105000D01*
G75*
G02*
X105030000Y-148255000I-150000J0D01*
G01*
X103380000Y-148255000D01*
G75*
G02*
X103230000Y-148105000I0J150000D01*
G01*
X103230000Y-147805000D01*
G75*
G02*
X103380000Y-147655000I150000J0D01*
G01*
X105030000Y-147655000D01*
G75*
G02*
X105180000Y-147805000I0J-150000D01*
G01*
G37*
G36*
G01*
X105180000Y-146535000D02*
X105180000Y-146835000D01*
G75*
G02*
X105030000Y-146985000I-150000J0D01*
G01*
X103380000Y-146985000D01*
G75*
G02*
X103230000Y-146835000I0J150000D01*
G01*
X103230000Y-146535000D01*
G75*
G02*
X103380000Y-146385000I150000J0D01*
G01*
X105030000Y-146385000D01*
G75*
G02*
X105180000Y-146535000I0J-150000D01*
G01*
G37*
G36*
G01*
X105180000Y-145265000D02*
X105180000Y-145565000D01*
G75*
G02*
X105030000Y-145715000I-150000J0D01*
G01*
X103380000Y-145715000D01*
G75*
G02*
X103230000Y-145565000I0J150000D01*
G01*
X103230000Y-145265000D01*
G75*
G02*
X103380000Y-145115000I150000J0D01*
G01*
X105030000Y-145115000D01*
G75*
G02*
X105180000Y-145265000I0J-150000D01*
G01*
G37*
G36*
G01*
X105180000Y-143995000D02*
X105180000Y-144295000D01*
G75*
G02*
X105030000Y-144445000I-150000J0D01*
G01*
X103380000Y-144445000D01*
G75*
G02*
X103230000Y-144295000I0J150000D01*
G01*
X103230000Y-143995000D01*
G75*
G02*
X103380000Y-143845000I150000J0D01*
G01*
X105030000Y-143845000D01*
G75*
G02*
X105180000Y-143995000I0J-150000D01*
G01*
G37*
G36*
G01*
X110130000Y-143995000D02*
X110130000Y-144295000D01*
G75*
G02*
X109980000Y-144445000I-150000J0D01*
G01*
X108330000Y-144445000D01*
G75*
G02*
X108180000Y-144295000I0J150000D01*
G01*
X108180000Y-143995000D01*
G75*
G02*
X108330000Y-143845000I150000J0D01*
G01*
X109980000Y-143845000D01*
G75*
G02*
X110130000Y-143995000I0J-150000D01*
G01*
G37*
G36*
G01*
X110130000Y-145265000D02*
X110130000Y-145565000D01*
G75*
G02*
X109980000Y-145715000I-150000J0D01*
G01*
X108330000Y-145715000D01*
G75*
G02*
X108180000Y-145565000I0J150000D01*
G01*
X108180000Y-145265000D01*
G75*
G02*
X108330000Y-145115000I150000J0D01*
G01*
X109980000Y-145115000D01*
G75*
G02*
X110130000Y-145265000I0J-150000D01*
G01*
G37*
G36*
G01*
X110130000Y-146535000D02*
X110130000Y-146835000D01*
G75*
G02*
X109980000Y-146985000I-150000J0D01*
G01*
X108330000Y-146985000D01*
G75*
G02*
X108180000Y-146835000I0J150000D01*
G01*
X108180000Y-146535000D01*
G75*
G02*
X108330000Y-146385000I150000J0D01*
G01*
X109980000Y-146385000D01*
G75*
G02*
X110130000Y-146535000I0J-150000D01*
G01*
G37*
G36*
G01*
X110130000Y-147805000D02*
X110130000Y-148105000D01*
G75*
G02*
X109980000Y-148255000I-150000J0D01*
G01*
X108330000Y-148255000D01*
G75*
G02*
X108180000Y-148105000I0J150000D01*
G01*
X108180000Y-147805000D01*
G75*
G02*
X108330000Y-147655000I150000J0D01*
G01*
X109980000Y-147655000D01*
G75*
G02*
X110130000Y-147805000I0J-150000D01*
G01*
G37*
D34*
X170942000Y-137033000D03*
D35*
X173217000Y-139808000D03*
X172567000Y-139808000D03*
X171917000Y-139808000D03*
X171267000Y-139808000D03*
X170617000Y-139808000D03*
X169967000Y-139808000D03*
X169317000Y-139808000D03*
X168667000Y-139808000D03*
X168667000Y-134258000D03*
X169317000Y-134258000D03*
X169967000Y-134258000D03*
X170617000Y-134258000D03*
X171267000Y-134258000D03*
X171917000Y-134258000D03*
X172567000Y-134258000D03*
X173217000Y-134258000D03*
D36*
X69179000Y-136360000D03*
X64679000Y-136360000D03*
X64679000Y-144310000D03*
X69179000Y-144310000D03*
G36*
G01*
X122104999Y-93745000D02*
X123005001Y-93745000D01*
G75*
G02*
X123255000Y-93994999I0J-249999D01*
G01*
X123255000Y-94520001D01*
G75*
G02*
X123005001Y-94770000I-249999J0D01*
G01*
X122104999Y-94770000D01*
G75*
G02*
X121855000Y-94520001I0J249999D01*
G01*
X121855000Y-93994999D01*
G75*
G02*
X122104999Y-93745000I249999J0D01*
G01*
G37*
G36*
G01*
X122104999Y-91920000D02*
X123005001Y-91920000D01*
G75*
G02*
X123255000Y-92169999I0J-249999D01*
G01*
X123255000Y-92695001D01*
G75*
G02*
X123005001Y-92945000I-249999J0D01*
G01*
X122104999Y-92945000D01*
G75*
G02*
X121855000Y-92695001I0J249999D01*
G01*
X121855000Y-92169999D01*
G75*
G02*
X122104999Y-91920000I249999J0D01*
G01*
G37*
G36*
G01*
X122104999Y-98190000D02*
X123005001Y-98190000D01*
G75*
G02*
X123255000Y-98439999I0J-249999D01*
G01*
X123255000Y-98965001D01*
G75*
G02*
X123005001Y-99215000I-249999J0D01*
G01*
X122104999Y-99215000D01*
G75*
G02*
X121855000Y-98965001I0J249999D01*
G01*
X121855000Y-98439999D01*
G75*
G02*
X122104999Y-98190000I249999J0D01*
G01*
G37*
G36*
G01*
X122104999Y-96365000D02*
X123005001Y-96365000D01*
G75*
G02*
X123255000Y-96614999I0J-249999D01*
G01*
X123255000Y-97140001D01*
G75*
G02*
X123005001Y-97390000I-249999J0D01*
G01*
X122104999Y-97390000D01*
G75*
G02*
X121855000Y-97140001I0J249999D01*
G01*
X121855000Y-96614999D01*
G75*
G02*
X122104999Y-96365000I249999J0D01*
G01*
G37*
G36*
G01*
X111309999Y-85490000D02*
X112210001Y-85490000D01*
G75*
G02*
X112460000Y-85739999I0J-249999D01*
G01*
X112460000Y-86265001D01*
G75*
G02*
X112210001Y-86515000I-249999J0D01*
G01*
X111309999Y-86515000D01*
G75*
G02*
X111060000Y-86265001I0J249999D01*
G01*
X111060000Y-85739999D01*
G75*
G02*
X111309999Y-85490000I249999J0D01*
G01*
G37*
G36*
G01*
X111309999Y-83665000D02*
X112210001Y-83665000D01*
G75*
G02*
X112460000Y-83914999I0J-249999D01*
G01*
X112460000Y-84440001D01*
G75*
G02*
X112210001Y-84690000I-249999J0D01*
G01*
X111309999Y-84690000D01*
G75*
G02*
X111060000Y-84440001I0J249999D01*
G01*
X111060000Y-83914999D01*
G75*
G02*
X111309999Y-83665000I249999J0D01*
G01*
G37*
G36*
G01*
X104375000Y-87814999D02*
X104375000Y-88715001D01*
G75*
G02*
X104125001Y-88965000I-249999J0D01*
G01*
X103599999Y-88965000D01*
G75*
G02*
X103350000Y-88715001I0J249999D01*
G01*
X103350000Y-87814999D01*
G75*
G02*
X103599999Y-87565000I249999J0D01*
G01*
X104125001Y-87565000D01*
G75*
G02*
X104375000Y-87814999I0J-249999D01*
G01*
G37*
G36*
G01*
X106200000Y-87814999D02*
X106200000Y-88715001D01*
G75*
G02*
X105950001Y-88965000I-249999J0D01*
G01*
X105424999Y-88965000D01*
G75*
G02*
X105175000Y-88715001I0J249999D01*
G01*
X105175000Y-87814999D01*
G75*
G02*
X105424999Y-87565000I249999J0D01*
G01*
X105950001Y-87565000D01*
G75*
G02*
X106200000Y-87814999I0J-249999D01*
G01*
G37*
G36*
G01*
X98609999Y-95015000D02*
X99510001Y-95015000D01*
G75*
G02*
X99760000Y-95264999I0J-249999D01*
G01*
X99760000Y-95790001D01*
G75*
G02*
X99510001Y-96040000I-249999J0D01*
G01*
X98609999Y-96040000D01*
G75*
G02*
X98360000Y-95790001I0J249999D01*
G01*
X98360000Y-95264999D01*
G75*
G02*
X98609999Y-95015000I249999J0D01*
G01*
G37*
G36*
G01*
X98609999Y-93190000D02*
X99510001Y-93190000D01*
G75*
G02*
X99760000Y-93439999I0J-249999D01*
G01*
X99760000Y-93965001D01*
G75*
G02*
X99510001Y-94215000I-249999J0D01*
G01*
X98609999Y-94215000D01*
G75*
G02*
X98360000Y-93965001I0J249999D01*
G01*
X98360000Y-93439999D01*
G75*
G02*
X98609999Y-93190000I249999J0D01*
G01*
G37*
G36*
G01*
X98609999Y-90570000D02*
X99510001Y-90570000D01*
G75*
G02*
X99760000Y-90819999I0J-249999D01*
G01*
X99760000Y-91345001D01*
G75*
G02*
X99510001Y-91595000I-249999J0D01*
G01*
X98609999Y-91595000D01*
G75*
G02*
X98360000Y-91345001I0J249999D01*
G01*
X98360000Y-90819999D01*
G75*
G02*
X98609999Y-90570000I249999J0D01*
G01*
G37*
G36*
G01*
X98609999Y-88745000D02*
X99510001Y-88745000D01*
G75*
G02*
X99760000Y-88994999I0J-249999D01*
G01*
X99760000Y-89520001D01*
G75*
G02*
X99510001Y-89770000I-249999J0D01*
G01*
X98609999Y-89770000D01*
G75*
G02*
X98360000Y-89520001I0J249999D01*
G01*
X98360000Y-88994999D01*
G75*
G02*
X98609999Y-88745000I249999J0D01*
G01*
G37*
G36*
G01*
X96069999Y-85490000D02*
X96970001Y-85490000D01*
G75*
G02*
X97220000Y-85739999I0J-249999D01*
G01*
X97220000Y-86265001D01*
G75*
G02*
X96970001Y-86515000I-249999J0D01*
G01*
X96069999Y-86515000D01*
G75*
G02*
X95820000Y-86265001I0J249999D01*
G01*
X95820000Y-85739999D01*
G75*
G02*
X96069999Y-85490000I249999J0D01*
G01*
G37*
G36*
G01*
X96069999Y-83665000D02*
X96970001Y-83665000D01*
G75*
G02*
X97220000Y-83914999I0J-249999D01*
G01*
X97220000Y-84440001D01*
G75*
G02*
X96970001Y-84690000I-249999J0D01*
G01*
X96069999Y-84690000D01*
G75*
G02*
X95820000Y-84440001I0J249999D01*
G01*
X95820000Y-83914999D01*
G75*
G02*
X96069999Y-83665000I249999J0D01*
G01*
G37*
G36*
G01*
X108820000Y-103054999D02*
X108820000Y-103955001D01*
G75*
G02*
X108570001Y-104205000I-249999J0D01*
G01*
X108044999Y-104205000D01*
G75*
G02*
X107795000Y-103955001I0J249999D01*
G01*
X107795000Y-103054999D01*
G75*
G02*
X108044999Y-102805000I249999J0D01*
G01*
X108570001Y-102805000D01*
G75*
G02*
X108820000Y-103054999I0J-249999D01*
G01*
G37*
G36*
G01*
X110645000Y-103054999D02*
X110645000Y-103955001D01*
G75*
G02*
X110395001Y-104205000I-249999J0D01*
G01*
X109869999Y-104205000D01*
G75*
G02*
X109620000Y-103955001I0J249999D01*
G01*
X109620000Y-103054999D01*
G75*
G02*
X109869999Y-102805000I249999J0D01*
G01*
X110395001Y-102805000D01*
G75*
G02*
X110645000Y-103054999I0J-249999D01*
G01*
G37*
G36*
G01*
X105010000Y-103054999D02*
X105010000Y-103955001D01*
G75*
G02*
X104760001Y-104205000I-249999J0D01*
G01*
X104234999Y-104205000D01*
G75*
G02*
X103985000Y-103955001I0J249999D01*
G01*
X103985000Y-103054999D01*
G75*
G02*
X104234999Y-102805000I249999J0D01*
G01*
X104760001Y-102805000D01*
G75*
G02*
X105010000Y-103054999I0J-249999D01*
G01*
G37*
G36*
G01*
X106835000Y-103054999D02*
X106835000Y-103955001D01*
G75*
G02*
X106585001Y-104205000I-249999J0D01*
G01*
X106059999Y-104205000D01*
G75*
G02*
X105810000Y-103955001I0J249999D01*
G01*
X105810000Y-103054999D01*
G75*
G02*
X106059999Y-102805000I249999J0D01*
G01*
X106585001Y-102805000D01*
G75*
G02*
X106835000Y-103054999I0J-249999D01*
G01*
G37*
G36*
G01*
X153219999Y-147720000D02*
X154120001Y-147720000D01*
G75*
G02*
X154370000Y-147969999I0J-249999D01*
G01*
X154370000Y-148495001D01*
G75*
G02*
X154120001Y-148745000I-249999J0D01*
G01*
X153219999Y-148745000D01*
G75*
G02*
X152970000Y-148495001I0J249999D01*
G01*
X152970000Y-147969999D01*
G75*
G02*
X153219999Y-147720000I249999J0D01*
G01*
G37*
G36*
G01*
X153219999Y-145895000D02*
X154120001Y-145895000D01*
G75*
G02*
X154370000Y-146144999I0J-249999D01*
G01*
X154370000Y-146670001D01*
G75*
G02*
X154120001Y-146920000I-249999J0D01*
G01*
X153219999Y-146920000D01*
G75*
G02*
X152970000Y-146670001I0J249999D01*
G01*
X152970000Y-146144999D01*
G75*
G02*
X153219999Y-145895000I249999J0D01*
G01*
G37*
G36*
G01*
X139300000Y-144329999D02*
X139300000Y-145230001D01*
G75*
G02*
X139050001Y-145480000I-249999J0D01*
G01*
X138524999Y-145480000D01*
G75*
G02*
X138275000Y-145230001I0J249999D01*
G01*
X138275000Y-144329999D01*
G75*
G02*
X138524999Y-144080000I249999J0D01*
G01*
X139050001Y-144080000D01*
G75*
G02*
X139300000Y-144329999I0J-249999D01*
G01*
G37*
G36*
G01*
X141125000Y-144329999D02*
X141125000Y-145230001D01*
G75*
G02*
X140875001Y-145480000I-249999J0D01*
G01*
X140349999Y-145480000D01*
G75*
G02*
X140100000Y-145230001I0J249999D01*
G01*
X140100000Y-144329999D01*
G75*
G02*
X140349999Y-144080000I249999J0D01*
G01*
X140875001Y-144080000D01*
G75*
G02*
X141125000Y-144329999I0J-249999D01*
G01*
G37*
G36*
G01*
X114700000Y-144595001D02*
X114700000Y-143694999D01*
G75*
G02*
X114949999Y-143445000I249999J0D01*
G01*
X115475001Y-143445000D01*
G75*
G02*
X115725000Y-143694999I0J-249999D01*
G01*
X115725000Y-144595001D01*
G75*
G02*
X115475001Y-144845000I-249999J0D01*
G01*
X114949999Y-144845000D01*
G75*
G02*
X114700000Y-144595001I0J249999D01*
G01*
G37*
G36*
G01*
X112875000Y-144595001D02*
X112875000Y-143694999D01*
G75*
G02*
X113124999Y-143445000I249999J0D01*
G01*
X113650001Y-143445000D01*
G75*
G02*
X113900000Y-143694999I0J-249999D01*
G01*
X113900000Y-144595001D01*
G75*
G02*
X113650001Y-144845000I-249999J0D01*
G01*
X113124999Y-144845000D01*
G75*
G02*
X112875000Y-144595001I0J249999D01*
G01*
G37*
G36*
G01*
X99879999Y-147720000D02*
X100780001Y-147720000D01*
G75*
G02*
X101030000Y-147969999I0J-249999D01*
G01*
X101030000Y-148495001D01*
G75*
G02*
X100780001Y-148745000I-249999J0D01*
G01*
X99879999Y-148745000D01*
G75*
G02*
X99630000Y-148495001I0J249999D01*
G01*
X99630000Y-147969999D01*
G75*
G02*
X99879999Y-147720000I249999J0D01*
G01*
G37*
G36*
G01*
X99879999Y-145895000D02*
X100780001Y-145895000D01*
G75*
G02*
X101030000Y-146144999I0J-249999D01*
G01*
X101030000Y-146670001D01*
G75*
G02*
X100780001Y-146920000I-249999J0D01*
G01*
X99879999Y-146920000D01*
G75*
G02*
X99630000Y-146670001I0J249999D01*
G01*
X99630000Y-146144999D01*
G75*
G02*
X99879999Y-145895000I249999J0D01*
G01*
G37*
G36*
G01*
X73006000Y-103689999D02*
X73006000Y-104590001D01*
G75*
G02*
X72756001Y-104840000I-249999J0D01*
G01*
X72230999Y-104840000D01*
G75*
G02*
X71981000Y-104590001I0J249999D01*
G01*
X71981000Y-103689999D01*
G75*
G02*
X72230999Y-103440000I249999J0D01*
G01*
X72756001Y-103440000D01*
G75*
G02*
X73006000Y-103689999I0J-249999D01*
G01*
G37*
G36*
G01*
X74831000Y-103689999D02*
X74831000Y-104590001D01*
G75*
G02*
X74581001Y-104840000I-249999J0D01*
G01*
X74055999Y-104840000D01*
G75*
G02*
X73806000Y-104590001I0J249999D01*
G01*
X73806000Y-103689999D01*
G75*
G02*
X74055999Y-103440000I249999J0D01*
G01*
X74581001Y-103440000D01*
G75*
G02*
X74831000Y-103689999I0J-249999D01*
G01*
G37*
D37*
X65192000Y-98895000D03*
X65192000Y-104355000D03*
D38*
X68192000Y-99205000D03*
X68192000Y-104045000D03*
G36*
G01*
X80930000Y-101343750D02*
X80930000Y-101856250D01*
G75*
G02*
X80711250Y-102075000I-218750J0D01*
G01*
X80273750Y-102075000D01*
G75*
G02*
X80055000Y-101856250I0J218750D01*
G01*
X80055000Y-101343750D01*
G75*
G02*
X80273750Y-101125000I218750J0D01*
G01*
X80711250Y-101125000D01*
G75*
G02*
X80930000Y-101343750I0J-218750D01*
G01*
G37*
G36*
G01*
X82505000Y-101343750D02*
X82505000Y-101856250D01*
G75*
G02*
X82286250Y-102075000I-218750J0D01*
G01*
X81848750Y-102075000D01*
G75*
G02*
X81630000Y-101856250I0J218750D01*
G01*
X81630000Y-101343750D01*
G75*
G02*
X81848750Y-101125000I218750J0D01*
G01*
X82286250Y-101125000D01*
G75*
G02*
X82505000Y-101343750I0J-218750D01*
G01*
G37*
G36*
G01*
X104465000Y-139950000D02*
X104465000Y-139450000D01*
G75*
G02*
X104690000Y-139225000I225000J0D01*
G01*
X105140000Y-139225000D01*
G75*
G02*
X105365000Y-139450000I0J-225000D01*
G01*
X105365000Y-139950000D01*
G75*
G02*
X105140000Y-140175000I-225000J0D01*
G01*
X104690000Y-140175000D01*
G75*
G02*
X104465000Y-139950000I0J225000D01*
G01*
G37*
G36*
G01*
X102915000Y-139950000D02*
X102915000Y-139450000D01*
G75*
G02*
X103140000Y-139225000I225000J0D01*
G01*
X103590000Y-139225000D01*
G75*
G02*
X103815000Y-139450000I0J-225000D01*
G01*
X103815000Y-139950000D01*
G75*
G02*
X103590000Y-140175000I-225000J0D01*
G01*
X103140000Y-140175000D01*
G75*
G02*
X102915000Y-139950000I0J225000D01*
G01*
G37*
G36*
G01*
X104465000Y-141855000D02*
X104465000Y-141355000D01*
G75*
G02*
X104690000Y-141130000I225000J0D01*
G01*
X105140000Y-141130000D01*
G75*
G02*
X105365000Y-141355000I0J-225000D01*
G01*
X105365000Y-141855000D01*
G75*
G02*
X105140000Y-142080000I-225000J0D01*
G01*
X104690000Y-142080000D01*
G75*
G02*
X104465000Y-141855000I0J225000D01*
G01*
G37*
G36*
G01*
X102915000Y-141855000D02*
X102915000Y-141355000D01*
G75*
G02*
X103140000Y-141130000I225000J0D01*
G01*
X103590000Y-141130000D01*
G75*
G02*
X103815000Y-141355000I0J-225000D01*
G01*
X103815000Y-141855000D01*
G75*
G02*
X103590000Y-142080000I-225000J0D01*
G01*
X103140000Y-142080000D01*
G75*
G02*
X102915000Y-141855000I0J225000D01*
G01*
G37*
G36*
G01*
X150185000Y-142490000D02*
X150185000Y-141990000D01*
G75*
G02*
X150410000Y-141765000I225000J0D01*
G01*
X150860000Y-141765000D01*
G75*
G02*
X151085000Y-141990000I0J-225000D01*
G01*
X151085000Y-142490000D01*
G75*
G02*
X150860000Y-142715000I-225000J0D01*
G01*
X150410000Y-142715000D01*
G75*
G02*
X150185000Y-142490000I0J225000D01*
G01*
G37*
G36*
G01*
X148635000Y-142490000D02*
X148635000Y-141990000D01*
G75*
G02*
X148860000Y-141765000I225000J0D01*
G01*
X149310000Y-141765000D01*
G75*
G02*
X149535000Y-141990000I0J-225000D01*
G01*
X149535000Y-142490000D01*
G75*
G02*
X149310000Y-142715000I-225000J0D01*
G01*
X148860000Y-142715000D01*
G75*
G02*
X148635000Y-142490000I0J225000D01*
G01*
G37*
G36*
G01*
X144455000Y-141990000D02*
X144455000Y-142490000D01*
G75*
G02*
X144230000Y-142715000I-225000J0D01*
G01*
X143780000Y-142715000D01*
G75*
G02*
X143555000Y-142490000I0J225000D01*
G01*
X143555000Y-141990000D01*
G75*
G02*
X143780000Y-141765000I225000J0D01*
G01*
X144230000Y-141765000D01*
G75*
G02*
X144455000Y-141990000I0J-225000D01*
G01*
G37*
G36*
G01*
X146005000Y-141990000D02*
X146005000Y-142490000D01*
G75*
G02*
X145780000Y-142715000I-225000J0D01*
G01*
X145330000Y-142715000D01*
G75*
G02*
X145105000Y-142490000I0J225000D01*
G01*
X145105000Y-141990000D01*
G75*
G02*
X145330000Y-141765000I225000J0D01*
G01*
X145780000Y-141765000D01*
G75*
G02*
X146005000Y-141990000I0J-225000D01*
G01*
G37*
G36*
G01*
X106520000Y-107500000D02*
X105570000Y-107500000D01*
G75*
G02*
X105320000Y-107250000I0J250000D01*
G01*
X105320000Y-106750000D01*
G75*
G02*
X105570000Y-106500000I250000J0D01*
G01*
X106520000Y-106500000D01*
G75*
G02*
X106770000Y-106750000I0J-250000D01*
G01*
X106770000Y-107250000D01*
G75*
G02*
X106520000Y-107500000I-250000J0D01*
G01*
G37*
G36*
G01*
X106520000Y-109400000D02*
X105570000Y-109400000D01*
G75*
G02*
X105320000Y-109150000I0J250000D01*
G01*
X105320000Y-108650000D01*
G75*
G02*
X105570000Y-108400000I250000J0D01*
G01*
X106520000Y-108400000D01*
G75*
G02*
X106770000Y-108650000I0J-250000D01*
G01*
X106770000Y-109150000D01*
G75*
G02*
X106520000Y-109400000I-250000J0D01*
G01*
G37*
G36*
G01*
X109470000Y-107625000D02*
X108970000Y-107625000D01*
G75*
G02*
X108745000Y-107400000I0J225000D01*
G01*
X108745000Y-106950000D01*
G75*
G02*
X108970000Y-106725000I225000J0D01*
G01*
X109470000Y-106725000D01*
G75*
G02*
X109695000Y-106950000I0J-225000D01*
G01*
X109695000Y-107400000D01*
G75*
G02*
X109470000Y-107625000I-225000J0D01*
G01*
G37*
G36*
G01*
X109470000Y-109175000D02*
X108970000Y-109175000D01*
G75*
G02*
X108745000Y-108950000I0J225000D01*
G01*
X108745000Y-108500000D01*
G75*
G02*
X108970000Y-108275000I225000J0D01*
G01*
X109470000Y-108275000D01*
G75*
G02*
X109695000Y-108500000I0J-225000D01*
G01*
X109695000Y-108950000D01*
G75*
G02*
X109470000Y-109175000I-225000J0D01*
G01*
G37*
G36*
G01*
X116045000Y-112580000D02*
X115095000Y-112580000D01*
G75*
G02*
X114845000Y-112330000I0J250000D01*
G01*
X114845000Y-111830000D01*
G75*
G02*
X115095000Y-111580000I250000J0D01*
G01*
X116045000Y-111580000D01*
G75*
G02*
X116295000Y-111830000I0J-250000D01*
G01*
X116295000Y-112330000D01*
G75*
G02*
X116045000Y-112580000I-250000J0D01*
G01*
G37*
G36*
G01*
X116045000Y-114480000D02*
X115095000Y-114480000D01*
G75*
G02*
X114845000Y-114230000I0J250000D01*
G01*
X114845000Y-113730000D01*
G75*
G02*
X115095000Y-113480000I250000J0D01*
G01*
X116045000Y-113480000D01*
G75*
G02*
X116295000Y-113730000I0J-250000D01*
G01*
X116295000Y-114230000D01*
G75*
G02*
X116045000Y-114480000I-250000J0D01*
G01*
G37*
G36*
G01*
X116045000Y-108135000D02*
X115095000Y-108135000D01*
G75*
G02*
X114845000Y-107885000I0J250000D01*
G01*
X114845000Y-107385000D01*
G75*
G02*
X115095000Y-107135000I250000J0D01*
G01*
X116045000Y-107135000D01*
G75*
G02*
X116295000Y-107385000I0J-250000D01*
G01*
X116295000Y-107885000D01*
G75*
G02*
X116045000Y-108135000I-250000J0D01*
G01*
G37*
G36*
G01*
X116045000Y-110035000D02*
X115095000Y-110035000D01*
G75*
G02*
X114845000Y-109785000I0J250000D01*
G01*
X114845000Y-109285000D01*
G75*
G02*
X115095000Y-109035000I250000J0D01*
G01*
X116045000Y-109035000D01*
G75*
G02*
X116295000Y-109285000I0J-250000D01*
G01*
X116295000Y-109785000D01*
G75*
G02*
X116045000Y-110035000I-250000J0D01*
G01*
G37*
G36*
G01*
X145800000Y-131770000D02*
X146300000Y-131770000D01*
G75*
G02*
X146525000Y-131995000I0J-225000D01*
G01*
X146525000Y-132445000D01*
G75*
G02*
X146300000Y-132670000I-225000J0D01*
G01*
X145800000Y-132670000D01*
G75*
G02*
X145575000Y-132445000I0J225000D01*
G01*
X145575000Y-131995000D01*
G75*
G02*
X145800000Y-131770000I225000J0D01*
G01*
G37*
G36*
G01*
X145800000Y-130220000D02*
X146300000Y-130220000D01*
G75*
G02*
X146525000Y-130445000I0J-225000D01*
G01*
X146525000Y-130895000D01*
G75*
G02*
X146300000Y-131120000I-225000J0D01*
G01*
X145800000Y-131120000D01*
G75*
G02*
X145575000Y-130895000I0J225000D01*
G01*
X145575000Y-130445000D01*
G75*
G02*
X145800000Y-130220000I225000J0D01*
G01*
G37*
G36*
G01*
X162945000Y-131770000D02*
X163445000Y-131770000D01*
G75*
G02*
X163670000Y-131995000I0J-225000D01*
G01*
X163670000Y-132445000D01*
G75*
G02*
X163445000Y-132670000I-225000J0D01*
G01*
X162945000Y-132670000D01*
G75*
G02*
X162720000Y-132445000I0J225000D01*
G01*
X162720000Y-131995000D01*
G75*
G02*
X162945000Y-131770000I225000J0D01*
G01*
G37*
G36*
G01*
X162945000Y-130220000D02*
X163445000Y-130220000D01*
G75*
G02*
X163670000Y-130445000I0J-225000D01*
G01*
X163670000Y-130895000D01*
G75*
G02*
X163445000Y-131120000I-225000J0D01*
G01*
X162945000Y-131120000D01*
G75*
G02*
X162720000Y-130895000I0J225000D01*
G01*
X162720000Y-130445000D01*
G75*
G02*
X162945000Y-130220000I225000J0D01*
G01*
G37*
G36*
G01*
X169795000Y-130612000D02*
X169295000Y-130612000D01*
G75*
G02*
X169070000Y-130387000I0J225000D01*
G01*
X169070000Y-129937000D01*
G75*
G02*
X169295000Y-129712000I225000J0D01*
G01*
X169795000Y-129712000D01*
G75*
G02*
X170020000Y-129937000I0J-225000D01*
G01*
X170020000Y-130387000D01*
G75*
G02*
X169795000Y-130612000I-225000J0D01*
G01*
G37*
G36*
G01*
X169795000Y-132162000D02*
X169295000Y-132162000D01*
G75*
G02*
X169070000Y-131937000I0J225000D01*
G01*
X169070000Y-131487000D01*
G75*
G02*
X169295000Y-131262000I225000J0D01*
G01*
X169795000Y-131262000D01*
G75*
G02*
X170020000Y-131487000I0J-225000D01*
G01*
X170020000Y-131937000D01*
G75*
G02*
X169795000Y-132162000I-225000J0D01*
G01*
G37*
G36*
G01*
X174315000Y-132203000D02*
X174315000Y-131703000D01*
G75*
G02*
X174540000Y-131478000I225000J0D01*
G01*
X174990000Y-131478000D01*
G75*
G02*
X175215000Y-131703000I0J-225000D01*
G01*
X175215000Y-132203000D01*
G75*
G02*
X174990000Y-132428000I-225000J0D01*
G01*
X174540000Y-132428000D01*
G75*
G02*
X174315000Y-132203000I0J225000D01*
G01*
G37*
G36*
G01*
X172765000Y-132203000D02*
X172765000Y-131703000D01*
G75*
G02*
X172990000Y-131478000I225000J0D01*
G01*
X173440000Y-131478000D01*
G75*
G02*
X173665000Y-131703000I0J-225000D01*
G01*
X173665000Y-132203000D01*
G75*
G02*
X173440000Y-132428000I-225000J0D01*
G01*
X172990000Y-132428000D01*
G75*
G02*
X172765000Y-132203000I0J225000D01*
G01*
G37*
G36*
G01*
X171125000Y-127385000D02*
X171125000Y-127885000D01*
G75*
G02*
X170900000Y-128110000I-225000J0D01*
G01*
X170450000Y-128110000D01*
G75*
G02*
X170225000Y-127885000I0J225000D01*
G01*
X170225000Y-127385000D01*
G75*
G02*
X170450000Y-127160000I225000J0D01*
G01*
X170900000Y-127160000D01*
G75*
G02*
X171125000Y-127385000I0J-225000D01*
G01*
G37*
G36*
G01*
X172675000Y-127385000D02*
X172675000Y-127885000D01*
G75*
G02*
X172450000Y-128110000I-225000J0D01*
G01*
X172000000Y-128110000D01*
G75*
G02*
X171775000Y-127885000I0J225000D01*
G01*
X171775000Y-127385000D01*
G75*
G02*
X172000000Y-127160000I225000J0D01*
G01*
X172450000Y-127160000D01*
G75*
G02*
X172675000Y-127385000I0J-225000D01*
G01*
G37*
G36*
G01*
X173157000Y-129671000D02*
X173157000Y-130171000D01*
G75*
G02*
X172932000Y-130396000I-225000J0D01*
G01*
X172482000Y-130396000D01*
G75*
G02*
X172257000Y-130171000I0J225000D01*
G01*
X172257000Y-129671000D01*
G75*
G02*
X172482000Y-129446000I225000J0D01*
G01*
X172932000Y-129446000D01*
G75*
G02*
X173157000Y-129671000I0J-225000D01*
G01*
G37*
G36*
G01*
X174707000Y-129671000D02*
X174707000Y-130171000D01*
G75*
G02*
X174482000Y-130396000I-225000J0D01*
G01*
X174032000Y-130396000D01*
G75*
G02*
X173807000Y-130171000I0J225000D01*
G01*
X173807000Y-129671000D01*
G75*
G02*
X174032000Y-129446000I225000J0D01*
G01*
X174482000Y-129446000D01*
G75*
G02*
X174707000Y-129671000I0J-225000D01*
G01*
G37*
G36*
G01*
X176272000Y-138740000D02*
X175772000Y-138740000D01*
G75*
G02*
X175547000Y-138515000I0J225000D01*
G01*
X175547000Y-138065000D01*
G75*
G02*
X175772000Y-137840000I225000J0D01*
G01*
X176272000Y-137840000D01*
G75*
G02*
X176497000Y-138065000I0J-225000D01*
G01*
X176497000Y-138515000D01*
G75*
G02*
X176272000Y-138740000I-225000J0D01*
G01*
G37*
G36*
G01*
X176272000Y-140290000D02*
X175772000Y-140290000D01*
G75*
G02*
X175547000Y-140065000I0J225000D01*
G01*
X175547000Y-139615000D01*
G75*
G02*
X175772000Y-139390000I225000J0D01*
G01*
X176272000Y-139390000D01*
G75*
G02*
X176497000Y-139615000I0J-225000D01*
G01*
X176497000Y-140065000D01*
G75*
G02*
X176272000Y-140290000I-225000J0D01*
G01*
G37*
G36*
G01*
X73475000Y-142080000D02*
X73475000Y-141130000D01*
G75*
G02*
X73725000Y-140880000I250000J0D01*
G01*
X74225000Y-140880000D01*
G75*
G02*
X74475000Y-141130000I0J-250000D01*
G01*
X74475000Y-142080000D01*
G75*
G02*
X74225000Y-142330000I-250000J0D01*
G01*
X73725000Y-142330000D01*
G75*
G02*
X73475000Y-142080000I0J250000D01*
G01*
G37*
G36*
G01*
X71575000Y-142080000D02*
X71575000Y-141130000D01*
G75*
G02*
X71825000Y-140880000I250000J0D01*
G01*
X72325000Y-140880000D01*
G75*
G02*
X72575000Y-141130000I0J-250000D01*
G01*
X72575000Y-142080000D01*
G75*
G02*
X72325000Y-142330000I-250000J0D01*
G01*
X71825000Y-142330000D01*
G75*
G02*
X71575000Y-142080000I0J250000D01*
G01*
G37*
G36*
G01*
X72575000Y-134780000D02*
X72575000Y-135730000D01*
G75*
G02*
X72325000Y-135980000I-250000J0D01*
G01*
X71825000Y-135980000D01*
G75*
G02*
X71575000Y-135730000I0J250000D01*
G01*
X71575000Y-134780000D01*
G75*
G02*
X71825000Y-134530000I250000J0D01*
G01*
X72325000Y-134530000D01*
G75*
G02*
X72575000Y-134780000I0J-250000D01*
G01*
G37*
G36*
G01*
X74475000Y-134780000D02*
X74475000Y-135730000D01*
G75*
G02*
X74225000Y-135980000I-250000J0D01*
G01*
X73725000Y-135980000D01*
G75*
G02*
X73475000Y-135730000I0J250000D01*
G01*
X73475000Y-134780000D01*
G75*
G02*
X73725000Y-134530000I250000J0D01*
G01*
X74225000Y-134530000D01*
G75*
G02*
X74475000Y-134780000I0J-250000D01*
G01*
G37*
G36*
G01*
X72700000Y-133100000D02*
X72700000Y-133600000D01*
G75*
G02*
X72475000Y-133825000I-225000J0D01*
G01*
X72025000Y-133825000D01*
G75*
G02*
X71800000Y-133600000I0J225000D01*
G01*
X71800000Y-133100000D01*
G75*
G02*
X72025000Y-132875000I225000J0D01*
G01*
X72475000Y-132875000D01*
G75*
G02*
X72700000Y-133100000I0J-225000D01*
G01*
G37*
G36*
G01*
X74250000Y-133100000D02*
X74250000Y-133600000D01*
G75*
G02*
X74025000Y-133825000I-225000J0D01*
G01*
X73575000Y-133825000D01*
G75*
G02*
X73350000Y-133600000I0J225000D01*
G01*
X73350000Y-133100000D01*
G75*
G02*
X73575000Y-132875000I225000J0D01*
G01*
X74025000Y-132875000D01*
G75*
G02*
X74250000Y-133100000I0J-225000D01*
G01*
G37*
G36*
G01*
X119855000Y-127058000D02*
X118905000Y-127058000D01*
G75*
G02*
X118655000Y-126808000I0J250000D01*
G01*
X118655000Y-126308000D01*
G75*
G02*
X118905000Y-126058000I250000J0D01*
G01*
X119855000Y-126058000D01*
G75*
G02*
X120105000Y-126308000I0J-250000D01*
G01*
X120105000Y-126808000D01*
G75*
G02*
X119855000Y-127058000I-250000J0D01*
G01*
G37*
G36*
G01*
X119855000Y-128958000D02*
X118905000Y-128958000D01*
G75*
G02*
X118655000Y-128708000I0J250000D01*
G01*
X118655000Y-128208000D01*
G75*
G02*
X118905000Y-127958000I250000J0D01*
G01*
X119855000Y-127958000D01*
G75*
G02*
X120105000Y-128208000I0J-250000D01*
G01*
X120105000Y-128708000D01*
G75*
G02*
X119855000Y-128958000I-250000J0D01*
G01*
G37*
G36*
G01*
X119855000Y-131122000D02*
X118905000Y-131122000D01*
G75*
G02*
X118655000Y-130872000I0J250000D01*
G01*
X118655000Y-130372000D01*
G75*
G02*
X118905000Y-130122000I250000J0D01*
G01*
X119855000Y-130122000D01*
G75*
G02*
X120105000Y-130372000I0J-250000D01*
G01*
X120105000Y-130872000D01*
G75*
G02*
X119855000Y-131122000I-250000J0D01*
G01*
G37*
G36*
G01*
X119855000Y-133022000D02*
X118905000Y-133022000D01*
G75*
G02*
X118655000Y-132772000I0J250000D01*
G01*
X118655000Y-132272000D01*
G75*
G02*
X118905000Y-132022000I250000J0D01*
G01*
X119855000Y-132022000D01*
G75*
G02*
X120105000Y-132272000I0J-250000D01*
G01*
X120105000Y-132772000D01*
G75*
G02*
X119855000Y-133022000I-250000J0D01*
G01*
G37*
M02*
