G04 #@! TF.GenerationSoftware,KiCad,Pcbnew,(5.1.8-0-10_14)*
G04 #@! TF.CreationDate,2020-12-31T12:29:52-08:00*
G04 #@! TF.ProjectId,esp32_sync,65737033-325f-4737-996e-632e6b696361,rev?*
G04 #@! TF.SameCoordinates,Original*
G04 #@! TF.FileFunction,Soldermask,Bot*
G04 #@! TF.FilePolarity,Negative*
%FSLAX46Y46*%
G04 Gerber Fmt 4.6, Leading zero omitted, Abs format (unit mm)*
G04 Created by KiCad (PCBNEW (5.1.8-0-10_14)) date 2020-12-31 12:29:52*
%MOMM*%
%LPD*%
G01*
G04 APERTURE LIST*
%ADD10O,1.700000X1.700000*%
%ADD11R,1.700000X1.700000*%
%ADD12C,1.850000*%
%ADD13R,1.850000X1.850000*%
%ADD14O,1.600000X1.600000*%
%ADD15C,1.600000*%
%ADD16R,1.800000X4.400000*%
%ADD17O,1.800000X4.000000*%
%ADD18O,4.000000X1.800000*%
%ADD19O,1.400000X1.400000*%
%ADD20C,1.400000*%
%ADD21C,1.700000*%
%ADD22O,1.600000X2.500000*%
%ADD23O,3.500000X7.000000*%
%ADD24R,2.500000X1.430000*%
%ADD25O,1.700000X1.350000*%
%ADD26O,1.500000X1.100000*%
%ADD27R,1.650000X0.400000*%
%ADD28R,1.500000X2.000000*%
%ADD29R,0.700000X1.825000*%
%ADD30R,2.000000X1.350000*%
G04 APERTURE END LIST*
D10*
X92710000Y-118745000D03*
X92710000Y-116205000D03*
X92710000Y-113665000D03*
D11*
X92710000Y-111125000D03*
D10*
X121920000Y-101600000D03*
X119380000Y-101600000D03*
D11*
X116840000Y-101600000D03*
D12*
X119380000Y-108585000D03*
X119380000Y-111125000D03*
X119380000Y-113665000D03*
X119380000Y-118745000D03*
D13*
X119380000Y-121285000D03*
D14*
X121920000Y-85090000D03*
D15*
X114420000Y-85090000D03*
D14*
X121920000Y-81280000D03*
D15*
X114420000Y-81280000D03*
D16*
X77470000Y-90805000D03*
D17*
X71670000Y-90805000D03*
D18*
X74470000Y-95605000D03*
D19*
X157480000Y-140335000D03*
D20*
X157480000Y-147955000D03*
D21*
X185420000Y-124460000D03*
X185420000Y-121920000D03*
X185420000Y-119380000D03*
X185420000Y-116840000D03*
X185420000Y-114300000D03*
X182880000Y-124460000D03*
X182880000Y-121920000D03*
X182880000Y-119380000D03*
X182880000Y-116840000D03*
G36*
G01*
X182030000Y-114900000D02*
X182030000Y-113700000D01*
G75*
G02*
X182280000Y-113450000I250000J0D01*
G01*
X183480000Y-113450000D01*
G75*
G02*
X183730000Y-113700000I0J-250000D01*
G01*
X183730000Y-114900000D01*
G75*
G02*
X183480000Y-115150000I-250000J0D01*
G01*
X182280000Y-115150000D01*
G75*
G02*
X182030000Y-114900000I0J250000D01*
G01*
G37*
X185420000Y-101600000D03*
X185420000Y-99060000D03*
X185420000Y-96520000D03*
X185420000Y-93980000D03*
X185420000Y-91440000D03*
X182880000Y-101600000D03*
X182880000Y-99060000D03*
X182880000Y-96520000D03*
X182880000Y-93980000D03*
G36*
G01*
X182030000Y-92040000D02*
X182030000Y-90840000D01*
G75*
G02*
X182280000Y-90590000I250000J0D01*
G01*
X183480000Y-90590000D01*
G75*
G02*
X183730000Y-90840000I0J-250000D01*
G01*
X183730000Y-92040000D01*
G75*
G02*
X183480000Y-92290000I-250000J0D01*
G01*
X182280000Y-92290000D01*
G75*
G02*
X182030000Y-92040000I0J250000D01*
G01*
G37*
D10*
X134620000Y-121920000D03*
X137160000Y-121920000D03*
X139700000Y-121920000D03*
X142240000Y-121920000D03*
X144780000Y-121920000D03*
X147320000Y-121920000D03*
X149860000Y-121920000D03*
X152400000Y-121920000D03*
X154940000Y-121920000D03*
X157480000Y-121920000D03*
X160020000Y-121920000D03*
X162560000Y-121920000D03*
X165100000Y-121920000D03*
X167640000Y-121920000D03*
X170180000Y-121920000D03*
D11*
X172720000Y-121920000D03*
D10*
X93980000Y-134620000D03*
X93980000Y-137160000D03*
X91440000Y-134620000D03*
X91440000Y-137160000D03*
X88900000Y-134620000D03*
X88900000Y-137160000D03*
X86360000Y-134620000D03*
X86360000Y-137160000D03*
X83820000Y-134620000D03*
D11*
X83820000Y-137160000D03*
G36*
G01*
X85725000Y-148234400D02*
X85725000Y-143865600D01*
G75*
G02*
X86715600Y-142875000I990600J0D01*
G01*
X91084400Y-142875000D01*
G75*
G02*
X92075000Y-143865600I0J-990600D01*
G01*
X92075000Y-148234400D01*
G75*
G02*
X91084400Y-149225000I-990600J0D01*
G01*
X86715600Y-149225000D01*
G75*
G02*
X85725000Y-148234400I0J990600D01*
G01*
G37*
D10*
X154940000Y-83820000D03*
D11*
X152400000Y-83820000D03*
D22*
X99060000Y-152400000D03*
X96520000Y-152400000D03*
D23*
X91440000Y-157480000D03*
X101600000Y-157480000D03*
G36*
G01*
X132880000Y-89950000D02*
X131280000Y-89950000D01*
G75*
G02*
X131030000Y-89700000I0J250000D01*
G01*
X131030000Y-88100000D01*
G75*
G02*
X131280000Y-87850000I250000J0D01*
G01*
X132880000Y-87850000D01*
G75*
G02*
X133130000Y-88100000I0J-250000D01*
G01*
X133130000Y-89700000D01*
G75*
G02*
X132880000Y-89950000I-250000J0D01*
G01*
G37*
G36*
G01*
X132880000Y-92490000D02*
X131280000Y-92490000D01*
G75*
G02*
X131030000Y-92240000I0J250000D01*
G01*
X131030000Y-90640000D01*
G75*
G02*
X131280000Y-90390000I250000J0D01*
G01*
X132880000Y-90390000D01*
G75*
G02*
X133130000Y-90640000I0J-250000D01*
G01*
X133130000Y-92240000D01*
G75*
G02*
X132880000Y-92490000I-250000J0D01*
G01*
G37*
G36*
G01*
X132880000Y-95030000D02*
X131280000Y-95030000D01*
G75*
G02*
X131030000Y-94780000I0J250000D01*
G01*
X131030000Y-93180000D01*
G75*
G02*
X131280000Y-92930000I250000J0D01*
G01*
X132880000Y-92930000D01*
G75*
G02*
X133130000Y-93180000I0J-250000D01*
G01*
X133130000Y-94780000D01*
G75*
G02*
X132880000Y-95030000I-250000J0D01*
G01*
G37*
G36*
G01*
X132880000Y-97570000D02*
X131280000Y-97570000D01*
G75*
G02*
X131030000Y-97320000I0J250000D01*
G01*
X131030000Y-95720000D01*
G75*
G02*
X131280000Y-95470000I250000J0D01*
G01*
X132880000Y-95470000D01*
G75*
G02*
X133130000Y-95720000I0J-250000D01*
G01*
X133130000Y-97320000D01*
G75*
G02*
X132880000Y-97570000I-250000J0D01*
G01*
G37*
G36*
G01*
X132880000Y-100110000D02*
X131280000Y-100110000D01*
G75*
G02*
X131030000Y-99860000I0J250000D01*
G01*
X131030000Y-98260000D01*
G75*
G02*
X131280000Y-98010000I250000J0D01*
G01*
X132880000Y-98010000D01*
G75*
G02*
X133130000Y-98260000I0J-250000D01*
G01*
X133130000Y-99860000D01*
G75*
G02*
X132880000Y-100110000I-250000J0D01*
G01*
G37*
G36*
G01*
X132880000Y-102650000D02*
X131280000Y-102650000D01*
G75*
G02*
X131030000Y-102400000I0J250000D01*
G01*
X131030000Y-100800000D01*
G75*
G02*
X131280000Y-100550000I250000J0D01*
G01*
X132880000Y-100550000D01*
G75*
G02*
X133130000Y-100800000I0J-250000D01*
G01*
X133130000Y-102400000D01*
G75*
G02*
X132880000Y-102650000I-250000J0D01*
G01*
G37*
G36*
G01*
X132880000Y-105190000D02*
X131280000Y-105190000D01*
G75*
G02*
X131030000Y-104940000I0J250000D01*
G01*
X131030000Y-103340000D01*
G75*
G02*
X131280000Y-103090000I250000J0D01*
G01*
X132880000Y-103090000D01*
G75*
G02*
X133130000Y-103340000I0J-250000D01*
G01*
X133130000Y-104940000D01*
G75*
G02*
X132880000Y-105190000I-250000J0D01*
G01*
G37*
G36*
G01*
X132880000Y-107730000D02*
X131280000Y-107730000D01*
G75*
G02*
X131030000Y-107480000I0J250000D01*
G01*
X131030000Y-105880000D01*
G75*
G02*
X131280000Y-105630000I250000J0D01*
G01*
X132880000Y-105630000D01*
G75*
G02*
X133130000Y-105880000I0J-250000D01*
G01*
X133130000Y-107480000D01*
G75*
G02*
X132880000Y-107730000I-250000J0D01*
G01*
G37*
G36*
G01*
X132880000Y-110270000D02*
X131280000Y-110270000D01*
G75*
G02*
X131030000Y-110020000I0J250000D01*
G01*
X131030000Y-108420000D01*
G75*
G02*
X131280000Y-108170000I250000J0D01*
G01*
X132880000Y-108170000D01*
G75*
G02*
X133130000Y-108420000I0J-250000D01*
G01*
X133130000Y-110020000D01*
G75*
G02*
X132880000Y-110270000I-250000J0D01*
G01*
G37*
G36*
G01*
X132880000Y-112810000D02*
X131280000Y-112810000D01*
G75*
G02*
X131030000Y-112560000I0J250000D01*
G01*
X131030000Y-110960000D01*
G75*
G02*
X131280000Y-110710000I250000J0D01*
G01*
X132880000Y-110710000D01*
G75*
G02*
X133130000Y-110960000I0J-250000D01*
G01*
X133130000Y-112560000D01*
G75*
G02*
X132880000Y-112810000I-250000J0D01*
G01*
G37*
G36*
G01*
X132880000Y-115350000D02*
X131280000Y-115350000D01*
G75*
G02*
X131030000Y-115100000I0J250000D01*
G01*
X131030000Y-113500000D01*
G75*
G02*
X131280000Y-113250000I250000J0D01*
G01*
X132880000Y-113250000D01*
G75*
G02*
X133130000Y-113500000I0J-250000D01*
G01*
X133130000Y-115100000D01*
G75*
G02*
X132880000Y-115350000I-250000J0D01*
G01*
G37*
G36*
G01*
X135420000Y-89950000D02*
X133820000Y-89950000D01*
G75*
G02*
X133570000Y-89700000I0J250000D01*
G01*
X133570000Y-88100000D01*
G75*
G02*
X133820000Y-87850000I250000J0D01*
G01*
X135420000Y-87850000D01*
G75*
G02*
X135670000Y-88100000I0J-250000D01*
G01*
X135670000Y-89700000D01*
G75*
G02*
X135420000Y-89950000I-250000J0D01*
G01*
G37*
G36*
G01*
X135420000Y-92490000D02*
X133820000Y-92490000D01*
G75*
G02*
X133570000Y-92240000I0J250000D01*
G01*
X133570000Y-90640000D01*
G75*
G02*
X133820000Y-90390000I250000J0D01*
G01*
X135420000Y-90390000D01*
G75*
G02*
X135670000Y-90640000I0J-250000D01*
G01*
X135670000Y-92240000D01*
G75*
G02*
X135420000Y-92490000I-250000J0D01*
G01*
G37*
G36*
G01*
X135420000Y-95030000D02*
X133820000Y-95030000D01*
G75*
G02*
X133570000Y-94780000I0J250000D01*
G01*
X133570000Y-93180000D01*
G75*
G02*
X133820000Y-92930000I250000J0D01*
G01*
X135420000Y-92930000D01*
G75*
G02*
X135670000Y-93180000I0J-250000D01*
G01*
X135670000Y-94780000D01*
G75*
G02*
X135420000Y-95030000I-250000J0D01*
G01*
G37*
G36*
G01*
X135420000Y-97570000D02*
X133820000Y-97570000D01*
G75*
G02*
X133570000Y-97320000I0J250000D01*
G01*
X133570000Y-95720000D01*
G75*
G02*
X133820000Y-95470000I250000J0D01*
G01*
X135420000Y-95470000D01*
G75*
G02*
X135670000Y-95720000I0J-250000D01*
G01*
X135670000Y-97320000D01*
G75*
G02*
X135420000Y-97570000I-250000J0D01*
G01*
G37*
G36*
G01*
X135420000Y-100110000D02*
X133820000Y-100110000D01*
G75*
G02*
X133570000Y-99860000I0J250000D01*
G01*
X133570000Y-98260000D01*
G75*
G02*
X133820000Y-98010000I250000J0D01*
G01*
X135420000Y-98010000D01*
G75*
G02*
X135670000Y-98260000I0J-250000D01*
G01*
X135670000Y-99860000D01*
G75*
G02*
X135420000Y-100110000I-250000J0D01*
G01*
G37*
G36*
G01*
X135420000Y-102650000D02*
X133820000Y-102650000D01*
G75*
G02*
X133570000Y-102400000I0J250000D01*
G01*
X133570000Y-100800000D01*
G75*
G02*
X133820000Y-100550000I250000J0D01*
G01*
X135420000Y-100550000D01*
G75*
G02*
X135670000Y-100800000I0J-250000D01*
G01*
X135670000Y-102400000D01*
G75*
G02*
X135420000Y-102650000I-250000J0D01*
G01*
G37*
G36*
G01*
X135420000Y-105190000D02*
X133820000Y-105190000D01*
G75*
G02*
X133570000Y-104940000I0J250000D01*
G01*
X133570000Y-103340000D01*
G75*
G02*
X133820000Y-103090000I250000J0D01*
G01*
X135420000Y-103090000D01*
G75*
G02*
X135670000Y-103340000I0J-250000D01*
G01*
X135670000Y-104940000D01*
G75*
G02*
X135420000Y-105190000I-250000J0D01*
G01*
G37*
G36*
G01*
X135420000Y-107730000D02*
X133820000Y-107730000D01*
G75*
G02*
X133570000Y-107480000I0J250000D01*
G01*
X133570000Y-105880000D01*
G75*
G02*
X133820000Y-105630000I250000J0D01*
G01*
X135420000Y-105630000D01*
G75*
G02*
X135670000Y-105880000I0J-250000D01*
G01*
X135670000Y-107480000D01*
G75*
G02*
X135420000Y-107730000I-250000J0D01*
G01*
G37*
G36*
G01*
X135420000Y-110270000D02*
X133820000Y-110270000D01*
G75*
G02*
X133570000Y-110020000I0J250000D01*
G01*
X133570000Y-108420000D01*
G75*
G02*
X133820000Y-108170000I250000J0D01*
G01*
X135420000Y-108170000D01*
G75*
G02*
X135670000Y-108420000I0J-250000D01*
G01*
X135670000Y-110020000D01*
G75*
G02*
X135420000Y-110270000I-250000J0D01*
G01*
G37*
G36*
G01*
X135420000Y-112810000D02*
X133820000Y-112810000D01*
G75*
G02*
X133570000Y-112560000I0J250000D01*
G01*
X133570000Y-110960000D01*
G75*
G02*
X133820000Y-110710000I250000J0D01*
G01*
X135420000Y-110710000D01*
G75*
G02*
X135670000Y-110960000I0J-250000D01*
G01*
X135670000Y-112560000D01*
G75*
G02*
X135420000Y-112810000I-250000J0D01*
G01*
G37*
G36*
G01*
X135420000Y-115350000D02*
X133820000Y-115350000D01*
G75*
G02*
X133570000Y-115100000I0J250000D01*
G01*
X133570000Y-113500000D01*
G75*
G02*
X133820000Y-113250000I250000J0D01*
G01*
X135420000Y-113250000D01*
G75*
G02*
X135670000Y-113500000I0J-250000D01*
G01*
X135670000Y-115100000D01*
G75*
G02*
X135420000Y-115350000I-250000J0D01*
G01*
G37*
G36*
G01*
X135420000Y-117890000D02*
X133820000Y-117890000D01*
G75*
G02*
X133570000Y-117640000I0J250000D01*
G01*
X133570000Y-116040000D01*
G75*
G02*
X133820000Y-115790000I250000J0D01*
G01*
X135420000Y-115790000D01*
G75*
G02*
X135670000Y-116040000I0J-250000D01*
G01*
X135670000Y-117640000D01*
G75*
G02*
X135420000Y-117890000I-250000J0D01*
G01*
G37*
G36*
G01*
X132880000Y-117890000D02*
X131280000Y-117890000D01*
G75*
G02*
X131030000Y-117640000I0J250000D01*
G01*
X131030000Y-116040000D01*
G75*
G02*
X131280000Y-115790000I250000J0D01*
G01*
X132880000Y-115790000D01*
G75*
G02*
X133130000Y-116040000I0J-250000D01*
G01*
X133130000Y-117640000D01*
G75*
G02*
X132880000Y-117890000I-250000J0D01*
G01*
G37*
G36*
G01*
X176060000Y-89950000D02*
X174460000Y-89950000D01*
G75*
G02*
X174210000Y-89700000I0J250000D01*
G01*
X174210000Y-88100000D01*
G75*
G02*
X174460000Y-87850000I250000J0D01*
G01*
X176060000Y-87850000D01*
G75*
G02*
X176310000Y-88100000I0J-250000D01*
G01*
X176310000Y-89700000D01*
G75*
G02*
X176060000Y-89950000I-250000J0D01*
G01*
G37*
G36*
G01*
X176060000Y-92490000D02*
X174460000Y-92490000D01*
G75*
G02*
X174210000Y-92240000I0J250000D01*
G01*
X174210000Y-90640000D01*
G75*
G02*
X174460000Y-90390000I250000J0D01*
G01*
X176060000Y-90390000D01*
G75*
G02*
X176310000Y-90640000I0J-250000D01*
G01*
X176310000Y-92240000D01*
G75*
G02*
X176060000Y-92490000I-250000J0D01*
G01*
G37*
G36*
G01*
X176060000Y-95030000D02*
X174460000Y-95030000D01*
G75*
G02*
X174210000Y-94780000I0J250000D01*
G01*
X174210000Y-93180000D01*
G75*
G02*
X174460000Y-92930000I250000J0D01*
G01*
X176060000Y-92930000D01*
G75*
G02*
X176310000Y-93180000I0J-250000D01*
G01*
X176310000Y-94780000D01*
G75*
G02*
X176060000Y-95030000I-250000J0D01*
G01*
G37*
G36*
G01*
X176060000Y-97570000D02*
X174460000Y-97570000D01*
G75*
G02*
X174210000Y-97320000I0J250000D01*
G01*
X174210000Y-95720000D01*
G75*
G02*
X174460000Y-95470000I250000J0D01*
G01*
X176060000Y-95470000D01*
G75*
G02*
X176310000Y-95720000I0J-250000D01*
G01*
X176310000Y-97320000D01*
G75*
G02*
X176060000Y-97570000I-250000J0D01*
G01*
G37*
G36*
G01*
X176060000Y-100110000D02*
X174460000Y-100110000D01*
G75*
G02*
X174210000Y-99860000I0J250000D01*
G01*
X174210000Y-98260000D01*
G75*
G02*
X174460000Y-98010000I250000J0D01*
G01*
X176060000Y-98010000D01*
G75*
G02*
X176310000Y-98260000I0J-250000D01*
G01*
X176310000Y-99860000D01*
G75*
G02*
X176060000Y-100110000I-250000J0D01*
G01*
G37*
G36*
G01*
X176060000Y-102650000D02*
X174460000Y-102650000D01*
G75*
G02*
X174210000Y-102400000I0J250000D01*
G01*
X174210000Y-100800000D01*
G75*
G02*
X174460000Y-100550000I250000J0D01*
G01*
X176060000Y-100550000D01*
G75*
G02*
X176310000Y-100800000I0J-250000D01*
G01*
X176310000Y-102400000D01*
G75*
G02*
X176060000Y-102650000I-250000J0D01*
G01*
G37*
G36*
G01*
X176060000Y-105190000D02*
X174460000Y-105190000D01*
G75*
G02*
X174210000Y-104940000I0J250000D01*
G01*
X174210000Y-103340000D01*
G75*
G02*
X174460000Y-103090000I250000J0D01*
G01*
X176060000Y-103090000D01*
G75*
G02*
X176310000Y-103340000I0J-250000D01*
G01*
X176310000Y-104940000D01*
G75*
G02*
X176060000Y-105190000I-250000J0D01*
G01*
G37*
G36*
G01*
X176060000Y-107730000D02*
X174460000Y-107730000D01*
G75*
G02*
X174210000Y-107480000I0J250000D01*
G01*
X174210000Y-105880000D01*
G75*
G02*
X174460000Y-105630000I250000J0D01*
G01*
X176060000Y-105630000D01*
G75*
G02*
X176310000Y-105880000I0J-250000D01*
G01*
X176310000Y-107480000D01*
G75*
G02*
X176060000Y-107730000I-250000J0D01*
G01*
G37*
G36*
G01*
X176060000Y-110270000D02*
X174460000Y-110270000D01*
G75*
G02*
X174210000Y-110020000I0J250000D01*
G01*
X174210000Y-108420000D01*
G75*
G02*
X174460000Y-108170000I250000J0D01*
G01*
X176060000Y-108170000D01*
G75*
G02*
X176310000Y-108420000I0J-250000D01*
G01*
X176310000Y-110020000D01*
G75*
G02*
X176060000Y-110270000I-250000J0D01*
G01*
G37*
G36*
G01*
X176060000Y-112810000D02*
X174460000Y-112810000D01*
G75*
G02*
X174210000Y-112560000I0J250000D01*
G01*
X174210000Y-110960000D01*
G75*
G02*
X174460000Y-110710000I250000J0D01*
G01*
X176060000Y-110710000D01*
G75*
G02*
X176310000Y-110960000I0J-250000D01*
G01*
X176310000Y-112560000D01*
G75*
G02*
X176060000Y-112810000I-250000J0D01*
G01*
G37*
G36*
G01*
X176060000Y-115350000D02*
X174460000Y-115350000D01*
G75*
G02*
X174210000Y-115100000I0J250000D01*
G01*
X174210000Y-113500000D01*
G75*
G02*
X174460000Y-113250000I250000J0D01*
G01*
X176060000Y-113250000D01*
G75*
G02*
X176310000Y-113500000I0J-250000D01*
G01*
X176310000Y-115100000D01*
G75*
G02*
X176060000Y-115350000I-250000J0D01*
G01*
G37*
G36*
G01*
X173520000Y-89950000D02*
X171920000Y-89950000D01*
G75*
G02*
X171670000Y-89700000I0J250000D01*
G01*
X171670000Y-88100000D01*
G75*
G02*
X171920000Y-87850000I250000J0D01*
G01*
X173520000Y-87850000D01*
G75*
G02*
X173770000Y-88100000I0J-250000D01*
G01*
X173770000Y-89700000D01*
G75*
G02*
X173520000Y-89950000I-250000J0D01*
G01*
G37*
G36*
G01*
X173520000Y-92490000D02*
X171920000Y-92490000D01*
G75*
G02*
X171670000Y-92240000I0J250000D01*
G01*
X171670000Y-90640000D01*
G75*
G02*
X171920000Y-90390000I250000J0D01*
G01*
X173520000Y-90390000D01*
G75*
G02*
X173770000Y-90640000I0J-250000D01*
G01*
X173770000Y-92240000D01*
G75*
G02*
X173520000Y-92490000I-250000J0D01*
G01*
G37*
G36*
G01*
X173520000Y-95030000D02*
X171920000Y-95030000D01*
G75*
G02*
X171670000Y-94780000I0J250000D01*
G01*
X171670000Y-93180000D01*
G75*
G02*
X171920000Y-92930000I250000J0D01*
G01*
X173520000Y-92930000D01*
G75*
G02*
X173770000Y-93180000I0J-250000D01*
G01*
X173770000Y-94780000D01*
G75*
G02*
X173520000Y-95030000I-250000J0D01*
G01*
G37*
G36*
G01*
X173520000Y-97570000D02*
X171920000Y-97570000D01*
G75*
G02*
X171670000Y-97320000I0J250000D01*
G01*
X171670000Y-95720000D01*
G75*
G02*
X171920000Y-95470000I250000J0D01*
G01*
X173520000Y-95470000D01*
G75*
G02*
X173770000Y-95720000I0J-250000D01*
G01*
X173770000Y-97320000D01*
G75*
G02*
X173520000Y-97570000I-250000J0D01*
G01*
G37*
G36*
G01*
X173520000Y-100110000D02*
X171920000Y-100110000D01*
G75*
G02*
X171670000Y-99860000I0J250000D01*
G01*
X171670000Y-98260000D01*
G75*
G02*
X171920000Y-98010000I250000J0D01*
G01*
X173520000Y-98010000D01*
G75*
G02*
X173770000Y-98260000I0J-250000D01*
G01*
X173770000Y-99860000D01*
G75*
G02*
X173520000Y-100110000I-250000J0D01*
G01*
G37*
G36*
G01*
X173520000Y-102650000D02*
X171920000Y-102650000D01*
G75*
G02*
X171670000Y-102400000I0J250000D01*
G01*
X171670000Y-100800000D01*
G75*
G02*
X171920000Y-100550000I250000J0D01*
G01*
X173520000Y-100550000D01*
G75*
G02*
X173770000Y-100800000I0J-250000D01*
G01*
X173770000Y-102400000D01*
G75*
G02*
X173520000Y-102650000I-250000J0D01*
G01*
G37*
G36*
G01*
X173520000Y-105190000D02*
X171920000Y-105190000D01*
G75*
G02*
X171670000Y-104940000I0J250000D01*
G01*
X171670000Y-103340000D01*
G75*
G02*
X171920000Y-103090000I250000J0D01*
G01*
X173520000Y-103090000D01*
G75*
G02*
X173770000Y-103340000I0J-250000D01*
G01*
X173770000Y-104940000D01*
G75*
G02*
X173520000Y-105190000I-250000J0D01*
G01*
G37*
G36*
G01*
X173520000Y-107730000D02*
X171920000Y-107730000D01*
G75*
G02*
X171670000Y-107480000I0J250000D01*
G01*
X171670000Y-105880000D01*
G75*
G02*
X171920000Y-105630000I250000J0D01*
G01*
X173520000Y-105630000D01*
G75*
G02*
X173770000Y-105880000I0J-250000D01*
G01*
X173770000Y-107480000D01*
G75*
G02*
X173520000Y-107730000I-250000J0D01*
G01*
G37*
G36*
G01*
X173520000Y-110270000D02*
X171920000Y-110270000D01*
G75*
G02*
X171670000Y-110020000I0J250000D01*
G01*
X171670000Y-108420000D01*
G75*
G02*
X171920000Y-108170000I250000J0D01*
G01*
X173520000Y-108170000D01*
G75*
G02*
X173770000Y-108420000I0J-250000D01*
G01*
X173770000Y-110020000D01*
G75*
G02*
X173520000Y-110270000I-250000J0D01*
G01*
G37*
G36*
G01*
X173520000Y-112810000D02*
X171920000Y-112810000D01*
G75*
G02*
X171670000Y-112560000I0J250000D01*
G01*
X171670000Y-110960000D01*
G75*
G02*
X171920000Y-110710000I250000J0D01*
G01*
X173520000Y-110710000D01*
G75*
G02*
X173770000Y-110960000I0J-250000D01*
G01*
X173770000Y-112560000D01*
G75*
G02*
X173520000Y-112810000I-250000J0D01*
G01*
G37*
G36*
G01*
X173520000Y-115350000D02*
X171920000Y-115350000D01*
G75*
G02*
X171670000Y-115100000I0J250000D01*
G01*
X171670000Y-113500000D01*
G75*
G02*
X171920000Y-113250000I250000J0D01*
G01*
X173520000Y-113250000D01*
G75*
G02*
X173770000Y-113500000I0J-250000D01*
G01*
X173770000Y-115100000D01*
G75*
G02*
X173520000Y-115350000I-250000J0D01*
G01*
G37*
G36*
G01*
X176060000Y-117890000D02*
X174460000Y-117890000D01*
G75*
G02*
X174210000Y-117640000I0J250000D01*
G01*
X174210000Y-116040000D01*
G75*
G02*
X174460000Y-115790000I250000J0D01*
G01*
X176060000Y-115790000D01*
G75*
G02*
X176310000Y-116040000I0J-250000D01*
G01*
X176310000Y-117640000D01*
G75*
G02*
X176060000Y-117890000I-250000J0D01*
G01*
G37*
G36*
G01*
X173520000Y-117890000D02*
X171920000Y-117890000D01*
G75*
G02*
X171670000Y-117640000I0J250000D01*
G01*
X171670000Y-116040000D01*
G75*
G02*
X171920000Y-115790000I250000J0D01*
G01*
X173520000Y-115790000D01*
G75*
G02*
X173770000Y-116040000I0J-250000D01*
G01*
X173770000Y-117640000D01*
G75*
G02*
X173520000Y-117890000I-250000J0D01*
G01*
G37*
G36*
G01*
X168440000Y-89950000D02*
X166840000Y-89950000D01*
G75*
G02*
X166590000Y-89700000I0J250000D01*
G01*
X166590000Y-88100000D01*
G75*
G02*
X166840000Y-87850000I250000J0D01*
G01*
X168440000Y-87850000D01*
G75*
G02*
X168690000Y-88100000I0J-250000D01*
G01*
X168690000Y-89700000D01*
G75*
G02*
X168440000Y-89950000I-250000J0D01*
G01*
G37*
G36*
G01*
X168440000Y-92490000D02*
X166840000Y-92490000D01*
G75*
G02*
X166590000Y-92240000I0J250000D01*
G01*
X166590000Y-90640000D01*
G75*
G02*
X166840000Y-90390000I250000J0D01*
G01*
X168440000Y-90390000D01*
G75*
G02*
X168690000Y-90640000I0J-250000D01*
G01*
X168690000Y-92240000D01*
G75*
G02*
X168440000Y-92490000I-250000J0D01*
G01*
G37*
G36*
G01*
X168440000Y-95030000D02*
X166840000Y-95030000D01*
G75*
G02*
X166590000Y-94780000I0J250000D01*
G01*
X166590000Y-93180000D01*
G75*
G02*
X166840000Y-92930000I250000J0D01*
G01*
X168440000Y-92930000D01*
G75*
G02*
X168690000Y-93180000I0J-250000D01*
G01*
X168690000Y-94780000D01*
G75*
G02*
X168440000Y-95030000I-250000J0D01*
G01*
G37*
G36*
G01*
X168440000Y-97570000D02*
X166840000Y-97570000D01*
G75*
G02*
X166590000Y-97320000I0J250000D01*
G01*
X166590000Y-95720000D01*
G75*
G02*
X166840000Y-95470000I250000J0D01*
G01*
X168440000Y-95470000D01*
G75*
G02*
X168690000Y-95720000I0J-250000D01*
G01*
X168690000Y-97320000D01*
G75*
G02*
X168440000Y-97570000I-250000J0D01*
G01*
G37*
G36*
G01*
X168440000Y-100110000D02*
X166840000Y-100110000D01*
G75*
G02*
X166590000Y-99860000I0J250000D01*
G01*
X166590000Y-98260000D01*
G75*
G02*
X166840000Y-98010000I250000J0D01*
G01*
X168440000Y-98010000D01*
G75*
G02*
X168690000Y-98260000I0J-250000D01*
G01*
X168690000Y-99860000D01*
G75*
G02*
X168440000Y-100110000I-250000J0D01*
G01*
G37*
G36*
G01*
X168440000Y-102650000D02*
X166840000Y-102650000D01*
G75*
G02*
X166590000Y-102400000I0J250000D01*
G01*
X166590000Y-100800000D01*
G75*
G02*
X166840000Y-100550000I250000J0D01*
G01*
X168440000Y-100550000D01*
G75*
G02*
X168690000Y-100800000I0J-250000D01*
G01*
X168690000Y-102400000D01*
G75*
G02*
X168440000Y-102650000I-250000J0D01*
G01*
G37*
G36*
G01*
X168440000Y-105190000D02*
X166840000Y-105190000D01*
G75*
G02*
X166590000Y-104940000I0J250000D01*
G01*
X166590000Y-103340000D01*
G75*
G02*
X166840000Y-103090000I250000J0D01*
G01*
X168440000Y-103090000D01*
G75*
G02*
X168690000Y-103340000I0J-250000D01*
G01*
X168690000Y-104940000D01*
G75*
G02*
X168440000Y-105190000I-250000J0D01*
G01*
G37*
G36*
G01*
X168440000Y-107730000D02*
X166840000Y-107730000D01*
G75*
G02*
X166590000Y-107480000I0J250000D01*
G01*
X166590000Y-105880000D01*
G75*
G02*
X166840000Y-105630000I250000J0D01*
G01*
X168440000Y-105630000D01*
G75*
G02*
X168690000Y-105880000I0J-250000D01*
G01*
X168690000Y-107480000D01*
G75*
G02*
X168440000Y-107730000I-250000J0D01*
G01*
G37*
G36*
G01*
X168440000Y-110270000D02*
X166840000Y-110270000D01*
G75*
G02*
X166590000Y-110020000I0J250000D01*
G01*
X166590000Y-108420000D01*
G75*
G02*
X166840000Y-108170000I250000J0D01*
G01*
X168440000Y-108170000D01*
G75*
G02*
X168690000Y-108420000I0J-250000D01*
G01*
X168690000Y-110020000D01*
G75*
G02*
X168440000Y-110270000I-250000J0D01*
G01*
G37*
G36*
G01*
X168440000Y-112810000D02*
X166840000Y-112810000D01*
G75*
G02*
X166590000Y-112560000I0J250000D01*
G01*
X166590000Y-110960000D01*
G75*
G02*
X166840000Y-110710000I250000J0D01*
G01*
X168440000Y-110710000D01*
G75*
G02*
X168690000Y-110960000I0J-250000D01*
G01*
X168690000Y-112560000D01*
G75*
G02*
X168440000Y-112810000I-250000J0D01*
G01*
G37*
G36*
G01*
X168440000Y-115350000D02*
X166840000Y-115350000D01*
G75*
G02*
X166590000Y-115100000I0J250000D01*
G01*
X166590000Y-113500000D01*
G75*
G02*
X166840000Y-113250000I250000J0D01*
G01*
X168440000Y-113250000D01*
G75*
G02*
X168690000Y-113500000I0J-250000D01*
G01*
X168690000Y-115100000D01*
G75*
G02*
X168440000Y-115350000I-250000J0D01*
G01*
G37*
G36*
G01*
X168440000Y-117890000D02*
X166840000Y-117890000D01*
G75*
G02*
X166590000Y-117640000I0J250000D01*
G01*
X166590000Y-116040000D01*
G75*
G02*
X166840000Y-115790000I250000J0D01*
G01*
X168440000Y-115790000D01*
G75*
G02*
X168690000Y-116040000I0J-250000D01*
G01*
X168690000Y-117640000D01*
G75*
G02*
X168440000Y-117890000I-250000J0D01*
G01*
G37*
G36*
G01*
X165900000Y-89950000D02*
X164300000Y-89950000D01*
G75*
G02*
X164050000Y-89700000I0J250000D01*
G01*
X164050000Y-88100000D01*
G75*
G02*
X164300000Y-87850000I250000J0D01*
G01*
X165900000Y-87850000D01*
G75*
G02*
X166150000Y-88100000I0J-250000D01*
G01*
X166150000Y-89700000D01*
G75*
G02*
X165900000Y-89950000I-250000J0D01*
G01*
G37*
G36*
G01*
X165900000Y-92490000D02*
X164300000Y-92490000D01*
G75*
G02*
X164050000Y-92240000I0J250000D01*
G01*
X164050000Y-90640000D01*
G75*
G02*
X164300000Y-90390000I250000J0D01*
G01*
X165900000Y-90390000D01*
G75*
G02*
X166150000Y-90640000I0J-250000D01*
G01*
X166150000Y-92240000D01*
G75*
G02*
X165900000Y-92490000I-250000J0D01*
G01*
G37*
G36*
G01*
X165900000Y-95030000D02*
X164300000Y-95030000D01*
G75*
G02*
X164050000Y-94780000I0J250000D01*
G01*
X164050000Y-93180000D01*
G75*
G02*
X164300000Y-92930000I250000J0D01*
G01*
X165900000Y-92930000D01*
G75*
G02*
X166150000Y-93180000I0J-250000D01*
G01*
X166150000Y-94780000D01*
G75*
G02*
X165900000Y-95030000I-250000J0D01*
G01*
G37*
G36*
G01*
X165900000Y-97570000D02*
X164300000Y-97570000D01*
G75*
G02*
X164050000Y-97320000I0J250000D01*
G01*
X164050000Y-95720000D01*
G75*
G02*
X164300000Y-95470000I250000J0D01*
G01*
X165900000Y-95470000D01*
G75*
G02*
X166150000Y-95720000I0J-250000D01*
G01*
X166150000Y-97320000D01*
G75*
G02*
X165900000Y-97570000I-250000J0D01*
G01*
G37*
G36*
G01*
X165900000Y-100110000D02*
X164300000Y-100110000D01*
G75*
G02*
X164050000Y-99860000I0J250000D01*
G01*
X164050000Y-98260000D01*
G75*
G02*
X164300000Y-98010000I250000J0D01*
G01*
X165900000Y-98010000D01*
G75*
G02*
X166150000Y-98260000I0J-250000D01*
G01*
X166150000Y-99860000D01*
G75*
G02*
X165900000Y-100110000I-250000J0D01*
G01*
G37*
G36*
G01*
X165900000Y-102650000D02*
X164300000Y-102650000D01*
G75*
G02*
X164050000Y-102400000I0J250000D01*
G01*
X164050000Y-100800000D01*
G75*
G02*
X164300000Y-100550000I250000J0D01*
G01*
X165900000Y-100550000D01*
G75*
G02*
X166150000Y-100800000I0J-250000D01*
G01*
X166150000Y-102400000D01*
G75*
G02*
X165900000Y-102650000I-250000J0D01*
G01*
G37*
G36*
G01*
X165900000Y-105190000D02*
X164300000Y-105190000D01*
G75*
G02*
X164050000Y-104940000I0J250000D01*
G01*
X164050000Y-103340000D01*
G75*
G02*
X164300000Y-103090000I250000J0D01*
G01*
X165900000Y-103090000D01*
G75*
G02*
X166150000Y-103340000I0J-250000D01*
G01*
X166150000Y-104940000D01*
G75*
G02*
X165900000Y-105190000I-250000J0D01*
G01*
G37*
G36*
G01*
X165900000Y-107730000D02*
X164300000Y-107730000D01*
G75*
G02*
X164050000Y-107480000I0J250000D01*
G01*
X164050000Y-105880000D01*
G75*
G02*
X164300000Y-105630000I250000J0D01*
G01*
X165900000Y-105630000D01*
G75*
G02*
X166150000Y-105880000I0J-250000D01*
G01*
X166150000Y-107480000D01*
G75*
G02*
X165900000Y-107730000I-250000J0D01*
G01*
G37*
G36*
G01*
X165900000Y-110270000D02*
X164300000Y-110270000D01*
G75*
G02*
X164050000Y-110020000I0J250000D01*
G01*
X164050000Y-108420000D01*
G75*
G02*
X164300000Y-108170000I250000J0D01*
G01*
X165900000Y-108170000D01*
G75*
G02*
X166150000Y-108420000I0J-250000D01*
G01*
X166150000Y-110020000D01*
G75*
G02*
X165900000Y-110270000I-250000J0D01*
G01*
G37*
G36*
G01*
X165900000Y-112810000D02*
X164300000Y-112810000D01*
G75*
G02*
X164050000Y-112560000I0J250000D01*
G01*
X164050000Y-110960000D01*
G75*
G02*
X164300000Y-110710000I250000J0D01*
G01*
X165900000Y-110710000D01*
G75*
G02*
X166150000Y-110960000I0J-250000D01*
G01*
X166150000Y-112560000D01*
G75*
G02*
X165900000Y-112810000I-250000J0D01*
G01*
G37*
G36*
G01*
X165900000Y-115350000D02*
X164300000Y-115350000D01*
G75*
G02*
X164050000Y-115100000I0J250000D01*
G01*
X164050000Y-113500000D01*
G75*
G02*
X164300000Y-113250000I250000J0D01*
G01*
X165900000Y-113250000D01*
G75*
G02*
X166150000Y-113500000I0J-250000D01*
G01*
X166150000Y-115100000D01*
G75*
G02*
X165900000Y-115350000I-250000J0D01*
G01*
G37*
G36*
G01*
X165900000Y-117890000D02*
X164300000Y-117890000D01*
G75*
G02*
X164050000Y-117640000I0J250000D01*
G01*
X164050000Y-116040000D01*
G75*
G02*
X164300000Y-115790000I250000J0D01*
G01*
X165900000Y-115790000D01*
G75*
G02*
X166150000Y-116040000I0J-250000D01*
G01*
X166150000Y-117640000D01*
G75*
G02*
X165900000Y-117890000I-250000J0D01*
G01*
G37*
G36*
G01*
X163360000Y-89950000D02*
X161760000Y-89950000D01*
G75*
G02*
X161510000Y-89700000I0J250000D01*
G01*
X161510000Y-88100000D01*
G75*
G02*
X161760000Y-87850000I250000J0D01*
G01*
X163360000Y-87850000D01*
G75*
G02*
X163610000Y-88100000I0J-250000D01*
G01*
X163610000Y-89700000D01*
G75*
G02*
X163360000Y-89950000I-250000J0D01*
G01*
G37*
G36*
G01*
X163360000Y-92490000D02*
X161760000Y-92490000D01*
G75*
G02*
X161510000Y-92240000I0J250000D01*
G01*
X161510000Y-90640000D01*
G75*
G02*
X161760000Y-90390000I250000J0D01*
G01*
X163360000Y-90390000D01*
G75*
G02*
X163610000Y-90640000I0J-250000D01*
G01*
X163610000Y-92240000D01*
G75*
G02*
X163360000Y-92490000I-250000J0D01*
G01*
G37*
G36*
G01*
X163360000Y-95030000D02*
X161760000Y-95030000D01*
G75*
G02*
X161510000Y-94780000I0J250000D01*
G01*
X161510000Y-93180000D01*
G75*
G02*
X161760000Y-92930000I250000J0D01*
G01*
X163360000Y-92930000D01*
G75*
G02*
X163610000Y-93180000I0J-250000D01*
G01*
X163610000Y-94780000D01*
G75*
G02*
X163360000Y-95030000I-250000J0D01*
G01*
G37*
G36*
G01*
X163360000Y-97570000D02*
X161760000Y-97570000D01*
G75*
G02*
X161510000Y-97320000I0J250000D01*
G01*
X161510000Y-95720000D01*
G75*
G02*
X161760000Y-95470000I250000J0D01*
G01*
X163360000Y-95470000D01*
G75*
G02*
X163610000Y-95720000I0J-250000D01*
G01*
X163610000Y-97320000D01*
G75*
G02*
X163360000Y-97570000I-250000J0D01*
G01*
G37*
G36*
G01*
X163360000Y-100110000D02*
X161760000Y-100110000D01*
G75*
G02*
X161510000Y-99860000I0J250000D01*
G01*
X161510000Y-98260000D01*
G75*
G02*
X161760000Y-98010000I250000J0D01*
G01*
X163360000Y-98010000D01*
G75*
G02*
X163610000Y-98260000I0J-250000D01*
G01*
X163610000Y-99860000D01*
G75*
G02*
X163360000Y-100110000I-250000J0D01*
G01*
G37*
G36*
G01*
X163360000Y-102650000D02*
X161760000Y-102650000D01*
G75*
G02*
X161510000Y-102400000I0J250000D01*
G01*
X161510000Y-100800000D01*
G75*
G02*
X161760000Y-100550000I250000J0D01*
G01*
X163360000Y-100550000D01*
G75*
G02*
X163610000Y-100800000I0J-250000D01*
G01*
X163610000Y-102400000D01*
G75*
G02*
X163360000Y-102650000I-250000J0D01*
G01*
G37*
G36*
G01*
X163360000Y-105190000D02*
X161760000Y-105190000D01*
G75*
G02*
X161510000Y-104940000I0J250000D01*
G01*
X161510000Y-103340000D01*
G75*
G02*
X161760000Y-103090000I250000J0D01*
G01*
X163360000Y-103090000D01*
G75*
G02*
X163610000Y-103340000I0J-250000D01*
G01*
X163610000Y-104940000D01*
G75*
G02*
X163360000Y-105190000I-250000J0D01*
G01*
G37*
G36*
G01*
X163360000Y-107730000D02*
X161760000Y-107730000D01*
G75*
G02*
X161510000Y-107480000I0J250000D01*
G01*
X161510000Y-105880000D01*
G75*
G02*
X161760000Y-105630000I250000J0D01*
G01*
X163360000Y-105630000D01*
G75*
G02*
X163610000Y-105880000I0J-250000D01*
G01*
X163610000Y-107480000D01*
G75*
G02*
X163360000Y-107730000I-250000J0D01*
G01*
G37*
G36*
G01*
X163360000Y-110270000D02*
X161760000Y-110270000D01*
G75*
G02*
X161510000Y-110020000I0J250000D01*
G01*
X161510000Y-108420000D01*
G75*
G02*
X161760000Y-108170000I250000J0D01*
G01*
X163360000Y-108170000D01*
G75*
G02*
X163610000Y-108420000I0J-250000D01*
G01*
X163610000Y-110020000D01*
G75*
G02*
X163360000Y-110270000I-250000J0D01*
G01*
G37*
G36*
G01*
X163360000Y-112810000D02*
X161760000Y-112810000D01*
G75*
G02*
X161510000Y-112560000I0J250000D01*
G01*
X161510000Y-110960000D01*
G75*
G02*
X161760000Y-110710000I250000J0D01*
G01*
X163360000Y-110710000D01*
G75*
G02*
X163610000Y-110960000I0J-250000D01*
G01*
X163610000Y-112560000D01*
G75*
G02*
X163360000Y-112810000I-250000J0D01*
G01*
G37*
G36*
G01*
X163360000Y-115350000D02*
X161760000Y-115350000D01*
G75*
G02*
X161510000Y-115100000I0J250000D01*
G01*
X161510000Y-113500000D01*
G75*
G02*
X161760000Y-113250000I250000J0D01*
G01*
X163360000Y-113250000D01*
G75*
G02*
X163610000Y-113500000I0J-250000D01*
G01*
X163610000Y-115100000D01*
G75*
G02*
X163360000Y-115350000I-250000J0D01*
G01*
G37*
G36*
G01*
X163360000Y-117890000D02*
X161760000Y-117890000D01*
G75*
G02*
X161510000Y-117640000I0J250000D01*
G01*
X161510000Y-116040000D01*
G75*
G02*
X161760000Y-115790000I250000J0D01*
G01*
X163360000Y-115790000D01*
G75*
G02*
X163610000Y-116040000I0J-250000D01*
G01*
X163610000Y-117640000D01*
G75*
G02*
X163360000Y-117890000I-250000J0D01*
G01*
G37*
G36*
G01*
X160820000Y-89950000D02*
X159220000Y-89950000D01*
G75*
G02*
X158970000Y-89700000I0J250000D01*
G01*
X158970000Y-88100000D01*
G75*
G02*
X159220000Y-87850000I250000J0D01*
G01*
X160820000Y-87850000D01*
G75*
G02*
X161070000Y-88100000I0J-250000D01*
G01*
X161070000Y-89700000D01*
G75*
G02*
X160820000Y-89950000I-250000J0D01*
G01*
G37*
G36*
G01*
X160820000Y-92490000D02*
X159220000Y-92490000D01*
G75*
G02*
X158970000Y-92240000I0J250000D01*
G01*
X158970000Y-90640000D01*
G75*
G02*
X159220000Y-90390000I250000J0D01*
G01*
X160820000Y-90390000D01*
G75*
G02*
X161070000Y-90640000I0J-250000D01*
G01*
X161070000Y-92240000D01*
G75*
G02*
X160820000Y-92490000I-250000J0D01*
G01*
G37*
G36*
G01*
X160820000Y-95030000D02*
X159220000Y-95030000D01*
G75*
G02*
X158970000Y-94780000I0J250000D01*
G01*
X158970000Y-93180000D01*
G75*
G02*
X159220000Y-92930000I250000J0D01*
G01*
X160820000Y-92930000D01*
G75*
G02*
X161070000Y-93180000I0J-250000D01*
G01*
X161070000Y-94780000D01*
G75*
G02*
X160820000Y-95030000I-250000J0D01*
G01*
G37*
G36*
G01*
X160820000Y-97570000D02*
X159220000Y-97570000D01*
G75*
G02*
X158970000Y-97320000I0J250000D01*
G01*
X158970000Y-95720000D01*
G75*
G02*
X159220000Y-95470000I250000J0D01*
G01*
X160820000Y-95470000D01*
G75*
G02*
X161070000Y-95720000I0J-250000D01*
G01*
X161070000Y-97320000D01*
G75*
G02*
X160820000Y-97570000I-250000J0D01*
G01*
G37*
G36*
G01*
X160820000Y-100110000D02*
X159220000Y-100110000D01*
G75*
G02*
X158970000Y-99860000I0J250000D01*
G01*
X158970000Y-98260000D01*
G75*
G02*
X159220000Y-98010000I250000J0D01*
G01*
X160820000Y-98010000D01*
G75*
G02*
X161070000Y-98260000I0J-250000D01*
G01*
X161070000Y-99860000D01*
G75*
G02*
X160820000Y-100110000I-250000J0D01*
G01*
G37*
G36*
G01*
X160820000Y-102650000D02*
X159220000Y-102650000D01*
G75*
G02*
X158970000Y-102400000I0J250000D01*
G01*
X158970000Y-100800000D01*
G75*
G02*
X159220000Y-100550000I250000J0D01*
G01*
X160820000Y-100550000D01*
G75*
G02*
X161070000Y-100800000I0J-250000D01*
G01*
X161070000Y-102400000D01*
G75*
G02*
X160820000Y-102650000I-250000J0D01*
G01*
G37*
G36*
G01*
X160820000Y-105190000D02*
X159220000Y-105190000D01*
G75*
G02*
X158970000Y-104940000I0J250000D01*
G01*
X158970000Y-103340000D01*
G75*
G02*
X159220000Y-103090000I250000J0D01*
G01*
X160820000Y-103090000D01*
G75*
G02*
X161070000Y-103340000I0J-250000D01*
G01*
X161070000Y-104940000D01*
G75*
G02*
X160820000Y-105190000I-250000J0D01*
G01*
G37*
G36*
G01*
X160820000Y-107730000D02*
X159220000Y-107730000D01*
G75*
G02*
X158970000Y-107480000I0J250000D01*
G01*
X158970000Y-105880000D01*
G75*
G02*
X159220000Y-105630000I250000J0D01*
G01*
X160820000Y-105630000D01*
G75*
G02*
X161070000Y-105880000I0J-250000D01*
G01*
X161070000Y-107480000D01*
G75*
G02*
X160820000Y-107730000I-250000J0D01*
G01*
G37*
G36*
G01*
X160820000Y-110270000D02*
X159220000Y-110270000D01*
G75*
G02*
X158970000Y-110020000I0J250000D01*
G01*
X158970000Y-108420000D01*
G75*
G02*
X159220000Y-108170000I250000J0D01*
G01*
X160820000Y-108170000D01*
G75*
G02*
X161070000Y-108420000I0J-250000D01*
G01*
X161070000Y-110020000D01*
G75*
G02*
X160820000Y-110270000I-250000J0D01*
G01*
G37*
G36*
G01*
X160820000Y-112810000D02*
X159220000Y-112810000D01*
G75*
G02*
X158970000Y-112560000I0J250000D01*
G01*
X158970000Y-110960000D01*
G75*
G02*
X159220000Y-110710000I250000J0D01*
G01*
X160820000Y-110710000D01*
G75*
G02*
X161070000Y-110960000I0J-250000D01*
G01*
X161070000Y-112560000D01*
G75*
G02*
X160820000Y-112810000I-250000J0D01*
G01*
G37*
G36*
G01*
X160820000Y-115350000D02*
X159220000Y-115350000D01*
G75*
G02*
X158970000Y-115100000I0J250000D01*
G01*
X158970000Y-113500000D01*
G75*
G02*
X159220000Y-113250000I250000J0D01*
G01*
X160820000Y-113250000D01*
G75*
G02*
X161070000Y-113500000I0J-250000D01*
G01*
X161070000Y-115100000D01*
G75*
G02*
X160820000Y-115350000I-250000J0D01*
G01*
G37*
G36*
G01*
X160820000Y-117890000D02*
X159220000Y-117890000D01*
G75*
G02*
X158970000Y-117640000I0J250000D01*
G01*
X158970000Y-116040000D01*
G75*
G02*
X159220000Y-115790000I250000J0D01*
G01*
X160820000Y-115790000D01*
G75*
G02*
X161070000Y-116040000I0J-250000D01*
G01*
X161070000Y-117640000D01*
G75*
G02*
X160820000Y-117890000I-250000J0D01*
G01*
G37*
G36*
G01*
X158280000Y-89950000D02*
X156680000Y-89950000D01*
G75*
G02*
X156430000Y-89700000I0J250000D01*
G01*
X156430000Y-88100000D01*
G75*
G02*
X156680000Y-87850000I250000J0D01*
G01*
X158280000Y-87850000D01*
G75*
G02*
X158530000Y-88100000I0J-250000D01*
G01*
X158530000Y-89700000D01*
G75*
G02*
X158280000Y-89950000I-250000J0D01*
G01*
G37*
G36*
G01*
X158280000Y-92490000D02*
X156680000Y-92490000D01*
G75*
G02*
X156430000Y-92240000I0J250000D01*
G01*
X156430000Y-90640000D01*
G75*
G02*
X156680000Y-90390000I250000J0D01*
G01*
X158280000Y-90390000D01*
G75*
G02*
X158530000Y-90640000I0J-250000D01*
G01*
X158530000Y-92240000D01*
G75*
G02*
X158280000Y-92490000I-250000J0D01*
G01*
G37*
G36*
G01*
X158280000Y-95030000D02*
X156680000Y-95030000D01*
G75*
G02*
X156430000Y-94780000I0J250000D01*
G01*
X156430000Y-93180000D01*
G75*
G02*
X156680000Y-92930000I250000J0D01*
G01*
X158280000Y-92930000D01*
G75*
G02*
X158530000Y-93180000I0J-250000D01*
G01*
X158530000Y-94780000D01*
G75*
G02*
X158280000Y-95030000I-250000J0D01*
G01*
G37*
G36*
G01*
X158280000Y-97570000D02*
X156680000Y-97570000D01*
G75*
G02*
X156430000Y-97320000I0J250000D01*
G01*
X156430000Y-95720000D01*
G75*
G02*
X156680000Y-95470000I250000J0D01*
G01*
X158280000Y-95470000D01*
G75*
G02*
X158530000Y-95720000I0J-250000D01*
G01*
X158530000Y-97320000D01*
G75*
G02*
X158280000Y-97570000I-250000J0D01*
G01*
G37*
G36*
G01*
X158280000Y-100110000D02*
X156680000Y-100110000D01*
G75*
G02*
X156430000Y-99860000I0J250000D01*
G01*
X156430000Y-98260000D01*
G75*
G02*
X156680000Y-98010000I250000J0D01*
G01*
X158280000Y-98010000D01*
G75*
G02*
X158530000Y-98260000I0J-250000D01*
G01*
X158530000Y-99860000D01*
G75*
G02*
X158280000Y-100110000I-250000J0D01*
G01*
G37*
G36*
G01*
X158280000Y-102650000D02*
X156680000Y-102650000D01*
G75*
G02*
X156430000Y-102400000I0J250000D01*
G01*
X156430000Y-100800000D01*
G75*
G02*
X156680000Y-100550000I250000J0D01*
G01*
X158280000Y-100550000D01*
G75*
G02*
X158530000Y-100800000I0J-250000D01*
G01*
X158530000Y-102400000D01*
G75*
G02*
X158280000Y-102650000I-250000J0D01*
G01*
G37*
G36*
G01*
X158280000Y-105190000D02*
X156680000Y-105190000D01*
G75*
G02*
X156430000Y-104940000I0J250000D01*
G01*
X156430000Y-103340000D01*
G75*
G02*
X156680000Y-103090000I250000J0D01*
G01*
X158280000Y-103090000D01*
G75*
G02*
X158530000Y-103340000I0J-250000D01*
G01*
X158530000Y-104940000D01*
G75*
G02*
X158280000Y-105190000I-250000J0D01*
G01*
G37*
G36*
G01*
X158280000Y-107730000D02*
X156680000Y-107730000D01*
G75*
G02*
X156430000Y-107480000I0J250000D01*
G01*
X156430000Y-105880000D01*
G75*
G02*
X156680000Y-105630000I250000J0D01*
G01*
X158280000Y-105630000D01*
G75*
G02*
X158530000Y-105880000I0J-250000D01*
G01*
X158530000Y-107480000D01*
G75*
G02*
X158280000Y-107730000I-250000J0D01*
G01*
G37*
G36*
G01*
X158280000Y-110270000D02*
X156680000Y-110270000D01*
G75*
G02*
X156430000Y-110020000I0J250000D01*
G01*
X156430000Y-108420000D01*
G75*
G02*
X156680000Y-108170000I250000J0D01*
G01*
X158280000Y-108170000D01*
G75*
G02*
X158530000Y-108420000I0J-250000D01*
G01*
X158530000Y-110020000D01*
G75*
G02*
X158280000Y-110270000I-250000J0D01*
G01*
G37*
G36*
G01*
X158280000Y-112810000D02*
X156680000Y-112810000D01*
G75*
G02*
X156430000Y-112560000I0J250000D01*
G01*
X156430000Y-110960000D01*
G75*
G02*
X156680000Y-110710000I250000J0D01*
G01*
X158280000Y-110710000D01*
G75*
G02*
X158530000Y-110960000I0J-250000D01*
G01*
X158530000Y-112560000D01*
G75*
G02*
X158280000Y-112810000I-250000J0D01*
G01*
G37*
G36*
G01*
X158280000Y-115350000D02*
X156680000Y-115350000D01*
G75*
G02*
X156430000Y-115100000I0J250000D01*
G01*
X156430000Y-113500000D01*
G75*
G02*
X156680000Y-113250000I250000J0D01*
G01*
X158280000Y-113250000D01*
G75*
G02*
X158530000Y-113500000I0J-250000D01*
G01*
X158530000Y-115100000D01*
G75*
G02*
X158280000Y-115350000I-250000J0D01*
G01*
G37*
G36*
G01*
X158280000Y-117890000D02*
X156680000Y-117890000D01*
G75*
G02*
X156430000Y-117640000I0J250000D01*
G01*
X156430000Y-116040000D01*
G75*
G02*
X156680000Y-115790000I250000J0D01*
G01*
X158280000Y-115790000D01*
G75*
G02*
X158530000Y-116040000I0J-250000D01*
G01*
X158530000Y-117640000D01*
G75*
G02*
X158280000Y-117890000I-250000J0D01*
G01*
G37*
G36*
G01*
X150660000Y-89950000D02*
X149060000Y-89950000D01*
G75*
G02*
X148810000Y-89700000I0J250000D01*
G01*
X148810000Y-88100000D01*
G75*
G02*
X149060000Y-87850000I250000J0D01*
G01*
X150660000Y-87850000D01*
G75*
G02*
X150910000Y-88100000I0J-250000D01*
G01*
X150910000Y-89700000D01*
G75*
G02*
X150660000Y-89950000I-250000J0D01*
G01*
G37*
G36*
G01*
X150660000Y-92490000D02*
X149060000Y-92490000D01*
G75*
G02*
X148810000Y-92240000I0J250000D01*
G01*
X148810000Y-90640000D01*
G75*
G02*
X149060000Y-90390000I250000J0D01*
G01*
X150660000Y-90390000D01*
G75*
G02*
X150910000Y-90640000I0J-250000D01*
G01*
X150910000Y-92240000D01*
G75*
G02*
X150660000Y-92490000I-250000J0D01*
G01*
G37*
G36*
G01*
X150660000Y-95030000D02*
X149060000Y-95030000D01*
G75*
G02*
X148810000Y-94780000I0J250000D01*
G01*
X148810000Y-93180000D01*
G75*
G02*
X149060000Y-92930000I250000J0D01*
G01*
X150660000Y-92930000D01*
G75*
G02*
X150910000Y-93180000I0J-250000D01*
G01*
X150910000Y-94780000D01*
G75*
G02*
X150660000Y-95030000I-250000J0D01*
G01*
G37*
G36*
G01*
X150660000Y-97570000D02*
X149060000Y-97570000D01*
G75*
G02*
X148810000Y-97320000I0J250000D01*
G01*
X148810000Y-95720000D01*
G75*
G02*
X149060000Y-95470000I250000J0D01*
G01*
X150660000Y-95470000D01*
G75*
G02*
X150910000Y-95720000I0J-250000D01*
G01*
X150910000Y-97320000D01*
G75*
G02*
X150660000Y-97570000I-250000J0D01*
G01*
G37*
G36*
G01*
X150660000Y-100110000D02*
X149060000Y-100110000D01*
G75*
G02*
X148810000Y-99860000I0J250000D01*
G01*
X148810000Y-98260000D01*
G75*
G02*
X149060000Y-98010000I250000J0D01*
G01*
X150660000Y-98010000D01*
G75*
G02*
X150910000Y-98260000I0J-250000D01*
G01*
X150910000Y-99860000D01*
G75*
G02*
X150660000Y-100110000I-250000J0D01*
G01*
G37*
G36*
G01*
X150660000Y-102650000D02*
X149060000Y-102650000D01*
G75*
G02*
X148810000Y-102400000I0J250000D01*
G01*
X148810000Y-100800000D01*
G75*
G02*
X149060000Y-100550000I250000J0D01*
G01*
X150660000Y-100550000D01*
G75*
G02*
X150910000Y-100800000I0J-250000D01*
G01*
X150910000Y-102400000D01*
G75*
G02*
X150660000Y-102650000I-250000J0D01*
G01*
G37*
G36*
G01*
X150660000Y-105190000D02*
X149060000Y-105190000D01*
G75*
G02*
X148810000Y-104940000I0J250000D01*
G01*
X148810000Y-103340000D01*
G75*
G02*
X149060000Y-103090000I250000J0D01*
G01*
X150660000Y-103090000D01*
G75*
G02*
X150910000Y-103340000I0J-250000D01*
G01*
X150910000Y-104940000D01*
G75*
G02*
X150660000Y-105190000I-250000J0D01*
G01*
G37*
G36*
G01*
X150660000Y-107730000D02*
X149060000Y-107730000D01*
G75*
G02*
X148810000Y-107480000I0J250000D01*
G01*
X148810000Y-105880000D01*
G75*
G02*
X149060000Y-105630000I250000J0D01*
G01*
X150660000Y-105630000D01*
G75*
G02*
X150910000Y-105880000I0J-250000D01*
G01*
X150910000Y-107480000D01*
G75*
G02*
X150660000Y-107730000I-250000J0D01*
G01*
G37*
G36*
G01*
X150660000Y-110270000D02*
X149060000Y-110270000D01*
G75*
G02*
X148810000Y-110020000I0J250000D01*
G01*
X148810000Y-108420000D01*
G75*
G02*
X149060000Y-108170000I250000J0D01*
G01*
X150660000Y-108170000D01*
G75*
G02*
X150910000Y-108420000I0J-250000D01*
G01*
X150910000Y-110020000D01*
G75*
G02*
X150660000Y-110270000I-250000J0D01*
G01*
G37*
G36*
G01*
X150660000Y-112810000D02*
X149060000Y-112810000D01*
G75*
G02*
X148810000Y-112560000I0J250000D01*
G01*
X148810000Y-110960000D01*
G75*
G02*
X149060000Y-110710000I250000J0D01*
G01*
X150660000Y-110710000D01*
G75*
G02*
X150910000Y-110960000I0J-250000D01*
G01*
X150910000Y-112560000D01*
G75*
G02*
X150660000Y-112810000I-250000J0D01*
G01*
G37*
G36*
G01*
X150660000Y-115350000D02*
X149060000Y-115350000D01*
G75*
G02*
X148810000Y-115100000I0J250000D01*
G01*
X148810000Y-113500000D01*
G75*
G02*
X149060000Y-113250000I250000J0D01*
G01*
X150660000Y-113250000D01*
G75*
G02*
X150910000Y-113500000I0J-250000D01*
G01*
X150910000Y-115100000D01*
G75*
G02*
X150660000Y-115350000I-250000J0D01*
G01*
G37*
G36*
G01*
X150660000Y-117890000D02*
X149060000Y-117890000D01*
G75*
G02*
X148810000Y-117640000I0J250000D01*
G01*
X148810000Y-116040000D01*
G75*
G02*
X149060000Y-115790000I250000J0D01*
G01*
X150660000Y-115790000D01*
G75*
G02*
X150910000Y-116040000I0J-250000D01*
G01*
X150910000Y-117640000D01*
G75*
G02*
X150660000Y-117890000I-250000J0D01*
G01*
G37*
G36*
G01*
X148120000Y-89950000D02*
X146520000Y-89950000D01*
G75*
G02*
X146270000Y-89700000I0J250000D01*
G01*
X146270000Y-88100000D01*
G75*
G02*
X146520000Y-87850000I250000J0D01*
G01*
X148120000Y-87850000D01*
G75*
G02*
X148370000Y-88100000I0J-250000D01*
G01*
X148370000Y-89700000D01*
G75*
G02*
X148120000Y-89950000I-250000J0D01*
G01*
G37*
G36*
G01*
X148120000Y-92490000D02*
X146520000Y-92490000D01*
G75*
G02*
X146270000Y-92240000I0J250000D01*
G01*
X146270000Y-90640000D01*
G75*
G02*
X146520000Y-90390000I250000J0D01*
G01*
X148120000Y-90390000D01*
G75*
G02*
X148370000Y-90640000I0J-250000D01*
G01*
X148370000Y-92240000D01*
G75*
G02*
X148120000Y-92490000I-250000J0D01*
G01*
G37*
G36*
G01*
X148120000Y-95030000D02*
X146520000Y-95030000D01*
G75*
G02*
X146270000Y-94780000I0J250000D01*
G01*
X146270000Y-93180000D01*
G75*
G02*
X146520000Y-92930000I250000J0D01*
G01*
X148120000Y-92930000D01*
G75*
G02*
X148370000Y-93180000I0J-250000D01*
G01*
X148370000Y-94780000D01*
G75*
G02*
X148120000Y-95030000I-250000J0D01*
G01*
G37*
G36*
G01*
X148120000Y-97570000D02*
X146520000Y-97570000D01*
G75*
G02*
X146270000Y-97320000I0J250000D01*
G01*
X146270000Y-95720000D01*
G75*
G02*
X146520000Y-95470000I250000J0D01*
G01*
X148120000Y-95470000D01*
G75*
G02*
X148370000Y-95720000I0J-250000D01*
G01*
X148370000Y-97320000D01*
G75*
G02*
X148120000Y-97570000I-250000J0D01*
G01*
G37*
G36*
G01*
X148120000Y-100110000D02*
X146520000Y-100110000D01*
G75*
G02*
X146270000Y-99860000I0J250000D01*
G01*
X146270000Y-98260000D01*
G75*
G02*
X146520000Y-98010000I250000J0D01*
G01*
X148120000Y-98010000D01*
G75*
G02*
X148370000Y-98260000I0J-250000D01*
G01*
X148370000Y-99860000D01*
G75*
G02*
X148120000Y-100110000I-250000J0D01*
G01*
G37*
G36*
G01*
X148120000Y-102650000D02*
X146520000Y-102650000D01*
G75*
G02*
X146270000Y-102400000I0J250000D01*
G01*
X146270000Y-100800000D01*
G75*
G02*
X146520000Y-100550000I250000J0D01*
G01*
X148120000Y-100550000D01*
G75*
G02*
X148370000Y-100800000I0J-250000D01*
G01*
X148370000Y-102400000D01*
G75*
G02*
X148120000Y-102650000I-250000J0D01*
G01*
G37*
G36*
G01*
X148120000Y-105190000D02*
X146520000Y-105190000D01*
G75*
G02*
X146270000Y-104940000I0J250000D01*
G01*
X146270000Y-103340000D01*
G75*
G02*
X146520000Y-103090000I250000J0D01*
G01*
X148120000Y-103090000D01*
G75*
G02*
X148370000Y-103340000I0J-250000D01*
G01*
X148370000Y-104940000D01*
G75*
G02*
X148120000Y-105190000I-250000J0D01*
G01*
G37*
G36*
G01*
X148120000Y-107730000D02*
X146520000Y-107730000D01*
G75*
G02*
X146270000Y-107480000I0J250000D01*
G01*
X146270000Y-105880000D01*
G75*
G02*
X146520000Y-105630000I250000J0D01*
G01*
X148120000Y-105630000D01*
G75*
G02*
X148370000Y-105880000I0J-250000D01*
G01*
X148370000Y-107480000D01*
G75*
G02*
X148120000Y-107730000I-250000J0D01*
G01*
G37*
G36*
G01*
X148120000Y-110270000D02*
X146520000Y-110270000D01*
G75*
G02*
X146270000Y-110020000I0J250000D01*
G01*
X146270000Y-108420000D01*
G75*
G02*
X146520000Y-108170000I250000J0D01*
G01*
X148120000Y-108170000D01*
G75*
G02*
X148370000Y-108420000I0J-250000D01*
G01*
X148370000Y-110020000D01*
G75*
G02*
X148120000Y-110270000I-250000J0D01*
G01*
G37*
G36*
G01*
X148120000Y-112810000D02*
X146520000Y-112810000D01*
G75*
G02*
X146270000Y-112560000I0J250000D01*
G01*
X146270000Y-110960000D01*
G75*
G02*
X146520000Y-110710000I250000J0D01*
G01*
X148120000Y-110710000D01*
G75*
G02*
X148370000Y-110960000I0J-250000D01*
G01*
X148370000Y-112560000D01*
G75*
G02*
X148120000Y-112810000I-250000J0D01*
G01*
G37*
G36*
G01*
X148120000Y-115350000D02*
X146520000Y-115350000D01*
G75*
G02*
X146270000Y-115100000I0J250000D01*
G01*
X146270000Y-113500000D01*
G75*
G02*
X146520000Y-113250000I250000J0D01*
G01*
X148120000Y-113250000D01*
G75*
G02*
X148370000Y-113500000I0J-250000D01*
G01*
X148370000Y-115100000D01*
G75*
G02*
X148120000Y-115350000I-250000J0D01*
G01*
G37*
G36*
G01*
X148120000Y-117890000D02*
X146520000Y-117890000D01*
G75*
G02*
X146270000Y-117640000I0J250000D01*
G01*
X146270000Y-116040000D01*
G75*
G02*
X146520000Y-115790000I250000J0D01*
G01*
X148120000Y-115790000D01*
G75*
G02*
X148370000Y-116040000I0J-250000D01*
G01*
X148370000Y-117640000D01*
G75*
G02*
X148120000Y-117890000I-250000J0D01*
G01*
G37*
G36*
G01*
X145580000Y-89950000D02*
X143980000Y-89950000D01*
G75*
G02*
X143730000Y-89700000I0J250000D01*
G01*
X143730000Y-88100000D01*
G75*
G02*
X143980000Y-87850000I250000J0D01*
G01*
X145580000Y-87850000D01*
G75*
G02*
X145830000Y-88100000I0J-250000D01*
G01*
X145830000Y-89700000D01*
G75*
G02*
X145580000Y-89950000I-250000J0D01*
G01*
G37*
G36*
G01*
X145580000Y-92490000D02*
X143980000Y-92490000D01*
G75*
G02*
X143730000Y-92240000I0J250000D01*
G01*
X143730000Y-90640000D01*
G75*
G02*
X143980000Y-90390000I250000J0D01*
G01*
X145580000Y-90390000D01*
G75*
G02*
X145830000Y-90640000I0J-250000D01*
G01*
X145830000Y-92240000D01*
G75*
G02*
X145580000Y-92490000I-250000J0D01*
G01*
G37*
G36*
G01*
X145580000Y-95030000D02*
X143980000Y-95030000D01*
G75*
G02*
X143730000Y-94780000I0J250000D01*
G01*
X143730000Y-93180000D01*
G75*
G02*
X143980000Y-92930000I250000J0D01*
G01*
X145580000Y-92930000D01*
G75*
G02*
X145830000Y-93180000I0J-250000D01*
G01*
X145830000Y-94780000D01*
G75*
G02*
X145580000Y-95030000I-250000J0D01*
G01*
G37*
G36*
G01*
X145580000Y-97570000D02*
X143980000Y-97570000D01*
G75*
G02*
X143730000Y-97320000I0J250000D01*
G01*
X143730000Y-95720000D01*
G75*
G02*
X143980000Y-95470000I250000J0D01*
G01*
X145580000Y-95470000D01*
G75*
G02*
X145830000Y-95720000I0J-250000D01*
G01*
X145830000Y-97320000D01*
G75*
G02*
X145580000Y-97570000I-250000J0D01*
G01*
G37*
G36*
G01*
X145580000Y-100110000D02*
X143980000Y-100110000D01*
G75*
G02*
X143730000Y-99860000I0J250000D01*
G01*
X143730000Y-98260000D01*
G75*
G02*
X143980000Y-98010000I250000J0D01*
G01*
X145580000Y-98010000D01*
G75*
G02*
X145830000Y-98260000I0J-250000D01*
G01*
X145830000Y-99860000D01*
G75*
G02*
X145580000Y-100110000I-250000J0D01*
G01*
G37*
G36*
G01*
X145580000Y-102650000D02*
X143980000Y-102650000D01*
G75*
G02*
X143730000Y-102400000I0J250000D01*
G01*
X143730000Y-100800000D01*
G75*
G02*
X143980000Y-100550000I250000J0D01*
G01*
X145580000Y-100550000D01*
G75*
G02*
X145830000Y-100800000I0J-250000D01*
G01*
X145830000Y-102400000D01*
G75*
G02*
X145580000Y-102650000I-250000J0D01*
G01*
G37*
G36*
G01*
X145580000Y-105190000D02*
X143980000Y-105190000D01*
G75*
G02*
X143730000Y-104940000I0J250000D01*
G01*
X143730000Y-103340000D01*
G75*
G02*
X143980000Y-103090000I250000J0D01*
G01*
X145580000Y-103090000D01*
G75*
G02*
X145830000Y-103340000I0J-250000D01*
G01*
X145830000Y-104940000D01*
G75*
G02*
X145580000Y-105190000I-250000J0D01*
G01*
G37*
G36*
G01*
X145580000Y-107730000D02*
X143980000Y-107730000D01*
G75*
G02*
X143730000Y-107480000I0J250000D01*
G01*
X143730000Y-105880000D01*
G75*
G02*
X143980000Y-105630000I250000J0D01*
G01*
X145580000Y-105630000D01*
G75*
G02*
X145830000Y-105880000I0J-250000D01*
G01*
X145830000Y-107480000D01*
G75*
G02*
X145580000Y-107730000I-250000J0D01*
G01*
G37*
G36*
G01*
X145580000Y-110270000D02*
X143980000Y-110270000D01*
G75*
G02*
X143730000Y-110020000I0J250000D01*
G01*
X143730000Y-108420000D01*
G75*
G02*
X143980000Y-108170000I250000J0D01*
G01*
X145580000Y-108170000D01*
G75*
G02*
X145830000Y-108420000I0J-250000D01*
G01*
X145830000Y-110020000D01*
G75*
G02*
X145580000Y-110270000I-250000J0D01*
G01*
G37*
G36*
G01*
X145580000Y-112810000D02*
X143980000Y-112810000D01*
G75*
G02*
X143730000Y-112560000I0J250000D01*
G01*
X143730000Y-110960000D01*
G75*
G02*
X143980000Y-110710000I250000J0D01*
G01*
X145580000Y-110710000D01*
G75*
G02*
X145830000Y-110960000I0J-250000D01*
G01*
X145830000Y-112560000D01*
G75*
G02*
X145580000Y-112810000I-250000J0D01*
G01*
G37*
G36*
G01*
X145580000Y-115350000D02*
X143980000Y-115350000D01*
G75*
G02*
X143730000Y-115100000I0J250000D01*
G01*
X143730000Y-113500000D01*
G75*
G02*
X143980000Y-113250000I250000J0D01*
G01*
X145580000Y-113250000D01*
G75*
G02*
X145830000Y-113500000I0J-250000D01*
G01*
X145830000Y-115100000D01*
G75*
G02*
X145580000Y-115350000I-250000J0D01*
G01*
G37*
G36*
G01*
X145580000Y-117890000D02*
X143980000Y-117890000D01*
G75*
G02*
X143730000Y-117640000I0J250000D01*
G01*
X143730000Y-116040000D01*
G75*
G02*
X143980000Y-115790000I250000J0D01*
G01*
X145580000Y-115790000D01*
G75*
G02*
X145830000Y-116040000I0J-250000D01*
G01*
X145830000Y-117640000D01*
G75*
G02*
X145580000Y-117890000I-250000J0D01*
G01*
G37*
G36*
G01*
X143040000Y-89950000D02*
X141440000Y-89950000D01*
G75*
G02*
X141190000Y-89700000I0J250000D01*
G01*
X141190000Y-88100000D01*
G75*
G02*
X141440000Y-87850000I250000J0D01*
G01*
X143040000Y-87850000D01*
G75*
G02*
X143290000Y-88100000I0J-250000D01*
G01*
X143290000Y-89700000D01*
G75*
G02*
X143040000Y-89950000I-250000J0D01*
G01*
G37*
G36*
G01*
X143040000Y-92490000D02*
X141440000Y-92490000D01*
G75*
G02*
X141190000Y-92240000I0J250000D01*
G01*
X141190000Y-90640000D01*
G75*
G02*
X141440000Y-90390000I250000J0D01*
G01*
X143040000Y-90390000D01*
G75*
G02*
X143290000Y-90640000I0J-250000D01*
G01*
X143290000Y-92240000D01*
G75*
G02*
X143040000Y-92490000I-250000J0D01*
G01*
G37*
G36*
G01*
X143040000Y-95030000D02*
X141440000Y-95030000D01*
G75*
G02*
X141190000Y-94780000I0J250000D01*
G01*
X141190000Y-93180000D01*
G75*
G02*
X141440000Y-92930000I250000J0D01*
G01*
X143040000Y-92930000D01*
G75*
G02*
X143290000Y-93180000I0J-250000D01*
G01*
X143290000Y-94780000D01*
G75*
G02*
X143040000Y-95030000I-250000J0D01*
G01*
G37*
G36*
G01*
X143040000Y-97570000D02*
X141440000Y-97570000D01*
G75*
G02*
X141190000Y-97320000I0J250000D01*
G01*
X141190000Y-95720000D01*
G75*
G02*
X141440000Y-95470000I250000J0D01*
G01*
X143040000Y-95470000D01*
G75*
G02*
X143290000Y-95720000I0J-250000D01*
G01*
X143290000Y-97320000D01*
G75*
G02*
X143040000Y-97570000I-250000J0D01*
G01*
G37*
G36*
G01*
X143040000Y-100110000D02*
X141440000Y-100110000D01*
G75*
G02*
X141190000Y-99860000I0J250000D01*
G01*
X141190000Y-98260000D01*
G75*
G02*
X141440000Y-98010000I250000J0D01*
G01*
X143040000Y-98010000D01*
G75*
G02*
X143290000Y-98260000I0J-250000D01*
G01*
X143290000Y-99860000D01*
G75*
G02*
X143040000Y-100110000I-250000J0D01*
G01*
G37*
G36*
G01*
X143040000Y-102650000D02*
X141440000Y-102650000D01*
G75*
G02*
X141190000Y-102400000I0J250000D01*
G01*
X141190000Y-100800000D01*
G75*
G02*
X141440000Y-100550000I250000J0D01*
G01*
X143040000Y-100550000D01*
G75*
G02*
X143290000Y-100800000I0J-250000D01*
G01*
X143290000Y-102400000D01*
G75*
G02*
X143040000Y-102650000I-250000J0D01*
G01*
G37*
G36*
G01*
X143040000Y-105190000D02*
X141440000Y-105190000D01*
G75*
G02*
X141190000Y-104940000I0J250000D01*
G01*
X141190000Y-103340000D01*
G75*
G02*
X141440000Y-103090000I250000J0D01*
G01*
X143040000Y-103090000D01*
G75*
G02*
X143290000Y-103340000I0J-250000D01*
G01*
X143290000Y-104940000D01*
G75*
G02*
X143040000Y-105190000I-250000J0D01*
G01*
G37*
G36*
G01*
X143040000Y-107730000D02*
X141440000Y-107730000D01*
G75*
G02*
X141190000Y-107480000I0J250000D01*
G01*
X141190000Y-105880000D01*
G75*
G02*
X141440000Y-105630000I250000J0D01*
G01*
X143040000Y-105630000D01*
G75*
G02*
X143290000Y-105880000I0J-250000D01*
G01*
X143290000Y-107480000D01*
G75*
G02*
X143040000Y-107730000I-250000J0D01*
G01*
G37*
G36*
G01*
X143040000Y-110270000D02*
X141440000Y-110270000D01*
G75*
G02*
X141190000Y-110020000I0J250000D01*
G01*
X141190000Y-108420000D01*
G75*
G02*
X141440000Y-108170000I250000J0D01*
G01*
X143040000Y-108170000D01*
G75*
G02*
X143290000Y-108420000I0J-250000D01*
G01*
X143290000Y-110020000D01*
G75*
G02*
X143040000Y-110270000I-250000J0D01*
G01*
G37*
G36*
G01*
X143040000Y-112810000D02*
X141440000Y-112810000D01*
G75*
G02*
X141190000Y-112560000I0J250000D01*
G01*
X141190000Y-110960000D01*
G75*
G02*
X141440000Y-110710000I250000J0D01*
G01*
X143040000Y-110710000D01*
G75*
G02*
X143290000Y-110960000I0J-250000D01*
G01*
X143290000Y-112560000D01*
G75*
G02*
X143040000Y-112810000I-250000J0D01*
G01*
G37*
G36*
G01*
X143040000Y-115350000D02*
X141440000Y-115350000D01*
G75*
G02*
X141190000Y-115100000I0J250000D01*
G01*
X141190000Y-113500000D01*
G75*
G02*
X141440000Y-113250000I250000J0D01*
G01*
X143040000Y-113250000D01*
G75*
G02*
X143290000Y-113500000I0J-250000D01*
G01*
X143290000Y-115100000D01*
G75*
G02*
X143040000Y-115350000I-250000J0D01*
G01*
G37*
G36*
G01*
X143040000Y-117890000D02*
X141440000Y-117890000D01*
G75*
G02*
X141190000Y-117640000I0J250000D01*
G01*
X141190000Y-116040000D01*
G75*
G02*
X141440000Y-115790000I250000J0D01*
G01*
X143040000Y-115790000D01*
G75*
G02*
X143290000Y-116040000I0J-250000D01*
G01*
X143290000Y-117640000D01*
G75*
G02*
X143040000Y-117890000I-250000J0D01*
G01*
G37*
G36*
G01*
X140500000Y-89950000D02*
X138900000Y-89950000D01*
G75*
G02*
X138650000Y-89700000I0J250000D01*
G01*
X138650000Y-88100000D01*
G75*
G02*
X138900000Y-87850000I250000J0D01*
G01*
X140500000Y-87850000D01*
G75*
G02*
X140750000Y-88100000I0J-250000D01*
G01*
X140750000Y-89700000D01*
G75*
G02*
X140500000Y-89950000I-250000J0D01*
G01*
G37*
G36*
G01*
X140500000Y-92490000D02*
X138900000Y-92490000D01*
G75*
G02*
X138650000Y-92240000I0J250000D01*
G01*
X138650000Y-90640000D01*
G75*
G02*
X138900000Y-90390000I250000J0D01*
G01*
X140500000Y-90390000D01*
G75*
G02*
X140750000Y-90640000I0J-250000D01*
G01*
X140750000Y-92240000D01*
G75*
G02*
X140500000Y-92490000I-250000J0D01*
G01*
G37*
G36*
G01*
X140500000Y-95030000D02*
X138900000Y-95030000D01*
G75*
G02*
X138650000Y-94780000I0J250000D01*
G01*
X138650000Y-93180000D01*
G75*
G02*
X138900000Y-92930000I250000J0D01*
G01*
X140500000Y-92930000D01*
G75*
G02*
X140750000Y-93180000I0J-250000D01*
G01*
X140750000Y-94780000D01*
G75*
G02*
X140500000Y-95030000I-250000J0D01*
G01*
G37*
G36*
G01*
X140500000Y-97570000D02*
X138900000Y-97570000D01*
G75*
G02*
X138650000Y-97320000I0J250000D01*
G01*
X138650000Y-95720000D01*
G75*
G02*
X138900000Y-95470000I250000J0D01*
G01*
X140500000Y-95470000D01*
G75*
G02*
X140750000Y-95720000I0J-250000D01*
G01*
X140750000Y-97320000D01*
G75*
G02*
X140500000Y-97570000I-250000J0D01*
G01*
G37*
G36*
G01*
X140500000Y-100110000D02*
X138900000Y-100110000D01*
G75*
G02*
X138650000Y-99860000I0J250000D01*
G01*
X138650000Y-98260000D01*
G75*
G02*
X138900000Y-98010000I250000J0D01*
G01*
X140500000Y-98010000D01*
G75*
G02*
X140750000Y-98260000I0J-250000D01*
G01*
X140750000Y-99860000D01*
G75*
G02*
X140500000Y-100110000I-250000J0D01*
G01*
G37*
G36*
G01*
X140500000Y-102650000D02*
X138900000Y-102650000D01*
G75*
G02*
X138650000Y-102400000I0J250000D01*
G01*
X138650000Y-100800000D01*
G75*
G02*
X138900000Y-100550000I250000J0D01*
G01*
X140500000Y-100550000D01*
G75*
G02*
X140750000Y-100800000I0J-250000D01*
G01*
X140750000Y-102400000D01*
G75*
G02*
X140500000Y-102650000I-250000J0D01*
G01*
G37*
G36*
G01*
X140500000Y-105190000D02*
X138900000Y-105190000D01*
G75*
G02*
X138650000Y-104940000I0J250000D01*
G01*
X138650000Y-103340000D01*
G75*
G02*
X138900000Y-103090000I250000J0D01*
G01*
X140500000Y-103090000D01*
G75*
G02*
X140750000Y-103340000I0J-250000D01*
G01*
X140750000Y-104940000D01*
G75*
G02*
X140500000Y-105190000I-250000J0D01*
G01*
G37*
G36*
G01*
X140500000Y-107730000D02*
X138900000Y-107730000D01*
G75*
G02*
X138650000Y-107480000I0J250000D01*
G01*
X138650000Y-105880000D01*
G75*
G02*
X138900000Y-105630000I250000J0D01*
G01*
X140500000Y-105630000D01*
G75*
G02*
X140750000Y-105880000I0J-250000D01*
G01*
X140750000Y-107480000D01*
G75*
G02*
X140500000Y-107730000I-250000J0D01*
G01*
G37*
G36*
G01*
X140500000Y-110270000D02*
X138900000Y-110270000D01*
G75*
G02*
X138650000Y-110020000I0J250000D01*
G01*
X138650000Y-108420000D01*
G75*
G02*
X138900000Y-108170000I250000J0D01*
G01*
X140500000Y-108170000D01*
G75*
G02*
X140750000Y-108420000I0J-250000D01*
G01*
X140750000Y-110020000D01*
G75*
G02*
X140500000Y-110270000I-250000J0D01*
G01*
G37*
G36*
G01*
X140500000Y-112810000D02*
X138900000Y-112810000D01*
G75*
G02*
X138650000Y-112560000I0J250000D01*
G01*
X138650000Y-110960000D01*
G75*
G02*
X138900000Y-110710000I250000J0D01*
G01*
X140500000Y-110710000D01*
G75*
G02*
X140750000Y-110960000I0J-250000D01*
G01*
X140750000Y-112560000D01*
G75*
G02*
X140500000Y-112810000I-250000J0D01*
G01*
G37*
G36*
G01*
X140500000Y-115350000D02*
X138900000Y-115350000D01*
G75*
G02*
X138650000Y-115100000I0J250000D01*
G01*
X138650000Y-113500000D01*
G75*
G02*
X138900000Y-113250000I250000J0D01*
G01*
X140500000Y-113250000D01*
G75*
G02*
X140750000Y-113500000I0J-250000D01*
G01*
X140750000Y-115100000D01*
G75*
G02*
X140500000Y-115350000I-250000J0D01*
G01*
G37*
G36*
G01*
X140500000Y-117890000D02*
X138900000Y-117890000D01*
G75*
G02*
X138650000Y-117640000I0J250000D01*
G01*
X138650000Y-116040000D01*
G75*
G02*
X138900000Y-115790000I250000J0D01*
G01*
X140500000Y-115790000D01*
G75*
G02*
X140750000Y-116040000I0J-250000D01*
G01*
X140750000Y-117640000D01*
G75*
G02*
X140500000Y-117890000I-250000J0D01*
G01*
G37*
D22*
X154940000Y-76200000D03*
X157480000Y-76200000D03*
D23*
X162560000Y-71120000D03*
X152400000Y-71120000D03*
D14*
X99060000Y-81280000D03*
D15*
X106560000Y-81280000D03*
D14*
X106560000Y-85090000D03*
D15*
X99060000Y-85090000D03*
D19*
X140970000Y-147320000D03*
D20*
X133350000Y-147320000D03*
D19*
X113030000Y-147320000D03*
D20*
X120650000Y-147320000D03*
D19*
X96520000Y-140335000D03*
D20*
X96520000Y-147955000D03*
D22*
X114300000Y-76200000D03*
X116840000Y-76200000D03*
D23*
X121920000Y-71120000D03*
X111760000Y-71120000D03*
D22*
X93980000Y-76200000D03*
X96520000Y-76200000D03*
D23*
X101600000Y-71120000D03*
X91440000Y-71120000D03*
D22*
X160020000Y-152400000D03*
X157480000Y-152400000D03*
D23*
X152400000Y-157480000D03*
X162560000Y-157480000D03*
D22*
X139700000Y-152400000D03*
X137160000Y-152400000D03*
D23*
X132080000Y-157480000D03*
X142240000Y-157480000D03*
D22*
X119380000Y-152400000D03*
X116840000Y-152400000D03*
D23*
X111760000Y-157480000D03*
X121920000Y-157480000D03*
D22*
X134620000Y-76200000D03*
X137160000Y-76200000D03*
D23*
X142240000Y-71120000D03*
X132080000Y-71120000D03*
D10*
X182880000Y-139700000D03*
X185420000Y-139700000D03*
D11*
X187960000Y-139700000D03*
D10*
X182880000Y-134620000D03*
X185420000Y-134620000D03*
D11*
X187960000Y-134620000D03*
D24*
X64922000Y-100665000D03*
X64922000Y-102585000D03*
D25*
X65192000Y-98895000D03*
X65192000Y-104355000D03*
D26*
X68192000Y-99205000D03*
X68192000Y-104045000D03*
D27*
X68072000Y-100325000D03*
X68072000Y-100975000D03*
X68072000Y-101625000D03*
X68072000Y-102275000D03*
X68072000Y-102925000D03*
D28*
X68192000Y-98725000D03*
X68172000Y-104475000D03*
D29*
X66872000Y-98625000D03*
X66872000Y-104575000D03*
D30*
X66122000Y-104355000D03*
X66122000Y-98875000D03*
M02*
