G04 #@! TF.GenerationSoftware,KiCad,Pcbnew,(5.1.8-0-10_14)*
G04 #@! TF.CreationDate,2021-01-15T12:07:55-08:00*
G04 #@! TF.ProjectId,esp32_sync,65737033-325f-4737-996e-632e6b696361,rev?*
G04 #@! TF.SameCoordinates,Original*
G04 #@! TF.FileFunction,Paste,Top*
G04 #@! TF.FilePolarity,Positive*
%FSLAX46Y46*%
G04 Gerber Fmt 4.6, Leading zero omitted, Abs format (unit mm)*
G04 Created by KiCad (PCBNEW (5.1.8-0-10_14)) date 2021-01-15 12:07:55*
%MOMM*%
%LPD*%
G01*
G04 APERTURE LIST*
%ADD10R,0.900000X0.800000*%
%ADD11R,2.000000X1.500000*%
%ADD12R,2.000000X3.800000*%
%ADD13R,0.900000X2.000000*%
%ADD14R,2.000000X0.900000*%
%ADD15R,5.000000X5.000000*%
%ADD16R,0.800000X0.900000*%
%ADD17R,0.650000X1.060000*%
%ADD18R,0.900000X1.200000*%
%ADD19R,1.050000X0.880000*%
%ADD20R,0.450000X1.050000*%
%ADD21R,1.300000X1.550000*%
G04 APERTURE END LIST*
G36*
G01*
X103725000Y-114482000D02*
X103725000Y-114282000D01*
G75*
G02*
X103825000Y-114182000I100000J0D01*
G01*
X105100000Y-114182000D01*
G75*
G02*
X105200000Y-114282000I0J-100000D01*
G01*
X105200000Y-114482000D01*
G75*
G02*
X105100000Y-114582000I-100000J0D01*
G01*
X103825000Y-114582000D01*
G75*
G02*
X103725000Y-114482000I0J100000D01*
G01*
G37*
G36*
G01*
X103725000Y-115132000D02*
X103725000Y-114932000D01*
G75*
G02*
X103825000Y-114832000I100000J0D01*
G01*
X105100000Y-114832000D01*
G75*
G02*
X105200000Y-114932000I0J-100000D01*
G01*
X105200000Y-115132000D01*
G75*
G02*
X105100000Y-115232000I-100000J0D01*
G01*
X103825000Y-115232000D01*
G75*
G02*
X103725000Y-115132000I0J100000D01*
G01*
G37*
G36*
G01*
X103725000Y-115782000D02*
X103725000Y-115582000D01*
G75*
G02*
X103825000Y-115482000I100000J0D01*
G01*
X105100000Y-115482000D01*
G75*
G02*
X105200000Y-115582000I0J-100000D01*
G01*
X105200000Y-115782000D01*
G75*
G02*
X105100000Y-115882000I-100000J0D01*
G01*
X103825000Y-115882000D01*
G75*
G02*
X103725000Y-115782000I0J100000D01*
G01*
G37*
G36*
G01*
X103725000Y-116432000D02*
X103725000Y-116232000D01*
G75*
G02*
X103825000Y-116132000I100000J0D01*
G01*
X105100000Y-116132000D01*
G75*
G02*
X105200000Y-116232000I0J-100000D01*
G01*
X105200000Y-116432000D01*
G75*
G02*
X105100000Y-116532000I-100000J0D01*
G01*
X103825000Y-116532000D01*
G75*
G02*
X103725000Y-116432000I0J100000D01*
G01*
G37*
G36*
G01*
X103725000Y-117082000D02*
X103725000Y-116882000D01*
G75*
G02*
X103825000Y-116782000I100000J0D01*
G01*
X105100000Y-116782000D01*
G75*
G02*
X105200000Y-116882000I0J-100000D01*
G01*
X105200000Y-117082000D01*
G75*
G02*
X105100000Y-117182000I-100000J0D01*
G01*
X103825000Y-117182000D01*
G75*
G02*
X103725000Y-117082000I0J100000D01*
G01*
G37*
G36*
G01*
X103725000Y-117732000D02*
X103725000Y-117532000D01*
G75*
G02*
X103825000Y-117432000I100000J0D01*
G01*
X105100000Y-117432000D01*
G75*
G02*
X105200000Y-117532000I0J-100000D01*
G01*
X105200000Y-117732000D01*
G75*
G02*
X105100000Y-117832000I-100000J0D01*
G01*
X103825000Y-117832000D01*
G75*
G02*
X103725000Y-117732000I0J100000D01*
G01*
G37*
G36*
G01*
X103725000Y-118382000D02*
X103725000Y-118182000D01*
G75*
G02*
X103825000Y-118082000I100000J0D01*
G01*
X105100000Y-118082000D01*
G75*
G02*
X105200000Y-118182000I0J-100000D01*
G01*
X105200000Y-118382000D01*
G75*
G02*
X105100000Y-118482000I-100000J0D01*
G01*
X103825000Y-118482000D01*
G75*
G02*
X103725000Y-118382000I0J100000D01*
G01*
G37*
G36*
G01*
X98000000Y-118382000D02*
X98000000Y-118182000D01*
G75*
G02*
X98100000Y-118082000I100000J0D01*
G01*
X99375000Y-118082000D01*
G75*
G02*
X99475000Y-118182000I0J-100000D01*
G01*
X99475000Y-118382000D01*
G75*
G02*
X99375000Y-118482000I-100000J0D01*
G01*
X98100000Y-118482000D01*
G75*
G02*
X98000000Y-118382000I0J100000D01*
G01*
G37*
G36*
G01*
X98000000Y-117732000D02*
X98000000Y-117532000D01*
G75*
G02*
X98100000Y-117432000I100000J0D01*
G01*
X99375000Y-117432000D01*
G75*
G02*
X99475000Y-117532000I0J-100000D01*
G01*
X99475000Y-117732000D01*
G75*
G02*
X99375000Y-117832000I-100000J0D01*
G01*
X98100000Y-117832000D01*
G75*
G02*
X98000000Y-117732000I0J100000D01*
G01*
G37*
G36*
G01*
X98000000Y-117082000D02*
X98000000Y-116882000D01*
G75*
G02*
X98100000Y-116782000I100000J0D01*
G01*
X99375000Y-116782000D01*
G75*
G02*
X99475000Y-116882000I0J-100000D01*
G01*
X99475000Y-117082000D01*
G75*
G02*
X99375000Y-117182000I-100000J0D01*
G01*
X98100000Y-117182000D01*
G75*
G02*
X98000000Y-117082000I0J100000D01*
G01*
G37*
G36*
G01*
X98000000Y-116432000D02*
X98000000Y-116232000D01*
G75*
G02*
X98100000Y-116132000I100000J0D01*
G01*
X99375000Y-116132000D01*
G75*
G02*
X99475000Y-116232000I0J-100000D01*
G01*
X99475000Y-116432000D01*
G75*
G02*
X99375000Y-116532000I-100000J0D01*
G01*
X98100000Y-116532000D01*
G75*
G02*
X98000000Y-116432000I0J100000D01*
G01*
G37*
G36*
G01*
X98000000Y-115782000D02*
X98000000Y-115582000D01*
G75*
G02*
X98100000Y-115482000I100000J0D01*
G01*
X99375000Y-115482000D01*
G75*
G02*
X99475000Y-115582000I0J-100000D01*
G01*
X99475000Y-115782000D01*
G75*
G02*
X99375000Y-115882000I-100000J0D01*
G01*
X98100000Y-115882000D01*
G75*
G02*
X98000000Y-115782000I0J100000D01*
G01*
G37*
G36*
G01*
X98000000Y-115132000D02*
X98000000Y-114932000D01*
G75*
G02*
X98100000Y-114832000I100000J0D01*
G01*
X99375000Y-114832000D01*
G75*
G02*
X99475000Y-114932000I0J-100000D01*
G01*
X99475000Y-115132000D01*
G75*
G02*
X99375000Y-115232000I-100000J0D01*
G01*
X98100000Y-115232000D01*
G75*
G02*
X98000000Y-115132000I0J100000D01*
G01*
G37*
G36*
G01*
X98000000Y-114482000D02*
X98000000Y-114282000D01*
G75*
G02*
X98100000Y-114182000I100000J0D01*
G01*
X99375000Y-114182000D01*
G75*
G02*
X99475000Y-114282000I0J-100000D01*
G01*
X99475000Y-114482000D01*
G75*
G02*
X99375000Y-114582000I-100000J0D01*
G01*
X98100000Y-114582000D01*
G75*
G02*
X98000000Y-114482000I0J100000D01*
G01*
G37*
G36*
G01*
X104615000Y-108135000D02*
X103665000Y-108135000D01*
G75*
G02*
X103415000Y-107885000I0J250000D01*
G01*
X103415000Y-107385000D01*
G75*
G02*
X103665000Y-107135000I250000J0D01*
G01*
X104615000Y-107135000D01*
G75*
G02*
X104865000Y-107385000I0J-250000D01*
G01*
X104865000Y-107885000D01*
G75*
G02*
X104615000Y-108135000I-250000J0D01*
G01*
G37*
G36*
G01*
X104615000Y-110035000D02*
X103665000Y-110035000D01*
G75*
G02*
X103415000Y-109785000I0J250000D01*
G01*
X103415000Y-109285000D01*
G75*
G02*
X103665000Y-109035000I250000J0D01*
G01*
X104615000Y-109035000D01*
G75*
G02*
X104865000Y-109285000I0J-250000D01*
G01*
X104865000Y-109785000D01*
G75*
G02*
X104615000Y-110035000I-250000J0D01*
G01*
G37*
G36*
G01*
X106295000Y-108260000D02*
X105795000Y-108260000D01*
G75*
G02*
X105570000Y-108035000I0J225000D01*
G01*
X105570000Y-107585000D01*
G75*
G02*
X105795000Y-107360000I225000J0D01*
G01*
X106295000Y-107360000D01*
G75*
G02*
X106520000Y-107585000I0J-225000D01*
G01*
X106520000Y-108035000D01*
G75*
G02*
X106295000Y-108260000I-225000J0D01*
G01*
G37*
G36*
G01*
X106295000Y-109810000D02*
X105795000Y-109810000D01*
G75*
G02*
X105570000Y-109585000I0J225000D01*
G01*
X105570000Y-109135000D01*
G75*
G02*
X105795000Y-108910000I225000J0D01*
G01*
X106295000Y-108910000D01*
G75*
G02*
X106520000Y-109135000I0J-225000D01*
G01*
X106520000Y-109585000D01*
G75*
G02*
X106295000Y-109810000I-225000J0D01*
G01*
G37*
G36*
G01*
X111510000Y-81605000D02*
X112010000Y-81605000D01*
G75*
G02*
X112235000Y-81830000I0J-225000D01*
G01*
X112235000Y-82280000D01*
G75*
G02*
X112010000Y-82505000I-225000J0D01*
G01*
X111510000Y-82505000D01*
G75*
G02*
X111285000Y-82280000I0J225000D01*
G01*
X111285000Y-81830000D01*
G75*
G02*
X111510000Y-81605000I225000J0D01*
G01*
G37*
G36*
G01*
X111510000Y-80055000D02*
X112010000Y-80055000D01*
G75*
G02*
X112235000Y-80280000I0J-225000D01*
G01*
X112235000Y-80730000D01*
G75*
G02*
X112010000Y-80955000I-225000J0D01*
G01*
X111510000Y-80955000D01*
G75*
G02*
X111285000Y-80730000I0J225000D01*
G01*
X111285000Y-80280000D01*
G75*
G02*
X111510000Y-80055000I225000J0D01*
G01*
G37*
G36*
G01*
X96270000Y-81605000D02*
X96770000Y-81605000D01*
G75*
G02*
X96995000Y-81830000I0J-225000D01*
G01*
X96995000Y-82280000D01*
G75*
G02*
X96770000Y-82505000I-225000J0D01*
G01*
X96270000Y-82505000D01*
G75*
G02*
X96045000Y-82280000I0J225000D01*
G01*
X96045000Y-81830000D01*
G75*
G02*
X96270000Y-81605000I225000J0D01*
G01*
G37*
G36*
G01*
X96270000Y-80055000D02*
X96770000Y-80055000D01*
G75*
G02*
X96995000Y-80280000I0J-225000D01*
G01*
X96995000Y-80730000D01*
G75*
G02*
X96770000Y-80955000I-225000J0D01*
G01*
X96270000Y-80955000D01*
G75*
G02*
X96045000Y-80730000I0J225000D01*
G01*
X96045000Y-80280000D01*
G75*
G02*
X96270000Y-80055000I225000J0D01*
G01*
G37*
G36*
G01*
X106241000Y-134568250D02*
X106241000Y-133655750D01*
G75*
G02*
X106484750Y-133412000I243750J0D01*
G01*
X106972250Y-133412000D01*
G75*
G02*
X107216000Y-133655750I0J-243750D01*
G01*
X107216000Y-134568250D01*
G75*
G02*
X106972250Y-134812000I-243750J0D01*
G01*
X106484750Y-134812000D01*
G75*
G02*
X106241000Y-134568250I0J243750D01*
G01*
G37*
G36*
G01*
X104366000Y-134568250D02*
X104366000Y-133655750D01*
G75*
G02*
X104609750Y-133412000I243750J0D01*
G01*
X105097250Y-133412000D01*
G75*
G02*
X105341000Y-133655750I0J-243750D01*
G01*
X105341000Y-134568250D01*
G75*
G02*
X105097250Y-134812000I-243750J0D01*
G01*
X104609750Y-134812000D01*
G75*
G02*
X104366000Y-134568250I0J243750D01*
G01*
G37*
G36*
G01*
X109937500Y-135324002D02*
X109937500Y-134423998D01*
G75*
G02*
X110187498Y-134174000I249998J0D01*
G01*
X110712502Y-134174000D01*
G75*
G02*
X110962500Y-134423998I0J-249998D01*
G01*
X110962500Y-135324002D01*
G75*
G02*
X110712502Y-135574000I-249998J0D01*
G01*
X110187498Y-135574000D01*
G75*
G02*
X109937500Y-135324002I0J249998D01*
G01*
G37*
G36*
G01*
X108112500Y-135324002D02*
X108112500Y-134423998D01*
G75*
G02*
X108362498Y-134174000I249998J0D01*
G01*
X108887502Y-134174000D01*
G75*
G02*
X109137500Y-134423998I0J-249998D01*
G01*
X109137500Y-135324002D01*
G75*
G02*
X108887502Y-135574000I-249998J0D01*
G01*
X108362498Y-135574000D01*
G75*
G02*
X108112500Y-135324002I0J249998D01*
G01*
G37*
G36*
G01*
X106141000Y-136146250D02*
X106141000Y-135633750D01*
G75*
G02*
X106359750Y-135415000I218750J0D01*
G01*
X106797250Y-135415000D01*
G75*
G02*
X107016000Y-135633750I0J-218750D01*
G01*
X107016000Y-136146250D01*
G75*
G02*
X106797250Y-136365000I-218750J0D01*
G01*
X106359750Y-136365000D01*
G75*
G02*
X106141000Y-136146250I0J218750D01*
G01*
G37*
G36*
G01*
X104566000Y-136146250D02*
X104566000Y-135633750D01*
G75*
G02*
X104784750Y-135415000I218750J0D01*
G01*
X105222250Y-135415000D01*
G75*
G02*
X105441000Y-135633750I0J-218750D01*
G01*
X105441000Y-136146250D01*
G75*
G02*
X105222250Y-136365000I-218750J0D01*
G01*
X104784750Y-136365000D01*
G75*
G02*
X104566000Y-136146250I0J218750D01*
G01*
G37*
D10*
X101330000Y-138430000D03*
X99330000Y-139380000D03*
X99330000Y-137480000D03*
G36*
G01*
X109937500Y-137356001D02*
X109937500Y-136455999D01*
G75*
G02*
X110187499Y-136206000I249999J0D01*
G01*
X110712501Y-136206000D01*
G75*
G02*
X110962500Y-136455999I0J-249999D01*
G01*
X110962500Y-137356001D01*
G75*
G02*
X110712501Y-137606000I-249999J0D01*
G01*
X110187499Y-137606000D01*
G75*
G02*
X109937500Y-137356001I0J249999D01*
G01*
G37*
G36*
G01*
X108112500Y-137356001D02*
X108112500Y-136455999D01*
G75*
G02*
X108362499Y-136206000I249999J0D01*
G01*
X108887501Y-136206000D01*
G75*
G02*
X109137500Y-136455999I0J-249999D01*
G01*
X109137500Y-137356001D01*
G75*
G02*
X108887501Y-137606000I-249999J0D01*
G01*
X108362499Y-137606000D01*
G75*
G02*
X108112500Y-137356001I0J249999D01*
G01*
G37*
G36*
G01*
X93541001Y-127489000D02*
X92640999Y-127489000D01*
G75*
G02*
X92391000Y-127239001I0J249999D01*
G01*
X92391000Y-126713999D01*
G75*
G02*
X92640999Y-126464000I249999J0D01*
G01*
X93541001Y-126464000D01*
G75*
G02*
X93791000Y-126713999I0J-249999D01*
G01*
X93791000Y-127239001D01*
G75*
G02*
X93541001Y-127489000I-249999J0D01*
G01*
G37*
G36*
G01*
X93541001Y-129314000D02*
X92640999Y-129314000D01*
G75*
G02*
X92391000Y-129064001I0J249999D01*
G01*
X92391000Y-128538999D01*
G75*
G02*
X92640999Y-128289000I249999J0D01*
G01*
X93541001Y-128289000D01*
G75*
G02*
X93791000Y-128538999I0J-249999D01*
G01*
X93791000Y-129064001D01*
G75*
G02*
X93541001Y-129314000I-249999J0D01*
G01*
G37*
G36*
G01*
X132530002Y-125965000D02*
X131629998Y-125965000D01*
G75*
G02*
X131380000Y-125715002I0J249998D01*
G01*
X131380000Y-125189998D01*
G75*
G02*
X131629998Y-124940000I249998J0D01*
G01*
X132530002Y-124940000D01*
G75*
G02*
X132780000Y-125189998I0J-249998D01*
G01*
X132780000Y-125715002D01*
G75*
G02*
X132530002Y-125965000I-249998J0D01*
G01*
G37*
G36*
G01*
X132530002Y-127790000D02*
X131629998Y-127790000D01*
G75*
G02*
X131380000Y-127540002I0J249998D01*
G01*
X131380000Y-127014998D01*
G75*
G02*
X131629998Y-126765000I249998J0D01*
G01*
X132530002Y-126765000D01*
G75*
G02*
X132780000Y-127014998I0J-249998D01*
G01*
X132780000Y-127540002D01*
G75*
G02*
X132530002Y-127790000I-249998J0D01*
G01*
G37*
D11*
X122326000Y-127240000D03*
X122326000Y-131840000D03*
X122326000Y-129540000D03*
D12*
X128626000Y-129540000D03*
G36*
G01*
X73425000Y-139515002D02*
X73425000Y-138614998D01*
G75*
G02*
X73674998Y-138365000I249998J0D01*
G01*
X74200002Y-138365000D01*
G75*
G02*
X74450000Y-138614998I0J-249998D01*
G01*
X74450000Y-139515002D01*
G75*
G02*
X74200002Y-139765000I-249998J0D01*
G01*
X73674998Y-139765000D01*
G75*
G02*
X73425000Y-139515002I0J249998D01*
G01*
G37*
G36*
G01*
X71600000Y-139515002D02*
X71600000Y-138614998D01*
G75*
G02*
X71849998Y-138365000I249998J0D01*
G01*
X72375002Y-138365000D01*
G75*
G02*
X72625000Y-138614998I0J-249998D01*
G01*
X72625000Y-139515002D01*
G75*
G02*
X72375002Y-139765000I-249998J0D01*
G01*
X71849998Y-139765000D01*
G75*
G02*
X71600000Y-139515002I0J249998D01*
G01*
G37*
G36*
G01*
X115883000Y-120637000D02*
X113733000Y-120637000D01*
G75*
G02*
X113483000Y-120387000I0J250000D01*
G01*
X113483000Y-119637000D01*
G75*
G02*
X113733000Y-119387000I250000J0D01*
G01*
X115883000Y-119387000D01*
G75*
G02*
X116133000Y-119637000I0J-250000D01*
G01*
X116133000Y-120387000D01*
G75*
G02*
X115883000Y-120637000I-250000J0D01*
G01*
G37*
G36*
G01*
X115883000Y-123437000D02*
X113733000Y-123437000D01*
G75*
G02*
X113483000Y-123187000I0J250000D01*
G01*
X113483000Y-122437000D01*
G75*
G02*
X113733000Y-122187000I250000J0D01*
G01*
X115883000Y-122187000D01*
G75*
G02*
X116133000Y-122437000I0J-250000D01*
G01*
X116133000Y-123187000D01*
G75*
G02*
X115883000Y-123437000I-250000J0D01*
G01*
G37*
G36*
G01*
X112235000Y-117406000D02*
X111285000Y-117406000D01*
G75*
G02*
X111035000Y-117156000I0J250000D01*
G01*
X111035000Y-116656000D01*
G75*
G02*
X111285000Y-116406000I250000J0D01*
G01*
X112235000Y-116406000D01*
G75*
G02*
X112485000Y-116656000I0J-250000D01*
G01*
X112485000Y-117156000D01*
G75*
G02*
X112235000Y-117406000I-250000J0D01*
G01*
G37*
G36*
G01*
X112235000Y-119306000D02*
X111285000Y-119306000D01*
G75*
G02*
X111035000Y-119056000I0J250000D01*
G01*
X111035000Y-118556000D01*
G75*
G02*
X111285000Y-118306000I250000J0D01*
G01*
X112235000Y-118306000D01*
G75*
G02*
X112485000Y-118556000I0J-250000D01*
G01*
X112485000Y-119056000D01*
G75*
G02*
X112235000Y-119306000I-250000J0D01*
G01*
G37*
G36*
G01*
X115258000Y-118331000D02*
X115258000Y-117381000D01*
G75*
G02*
X115508000Y-117131000I250000J0D01*
G01*
X116008000Y-117131000D01*
G75*
G02*
X116258000Y-117381000I0J-250000D01*
G01*
X116258000Y-118331000D01*
G75*
G02*
X116008000Y-118581000I-250000J0D01*
G01*
X115508000Y-118581000D01*
G75*
G02*
X115258000Y-118331000I0J250000D01*
G01*
G37*
G36*
G01*
X113358000Y-118331000D02*
X113358000Y-117381000D01*
G75*
G02*
X113608000Y-117131000I250000J0D01*
G01*
X114108000Y-117131000D01*
G75*
G02*
X114358000Y-117381000I0J-250000D01*
G01*
X114358000Y-118331000D01*
G75*
G02*
X114108000Y-118581000I-250000J0D01*
G01*
X113608000Y-118581000D01*
G75*
G02*
X113358000Y-118331000I0J250000D01*
G01*
G37*
G36*
G01*
X113915000Y-93020000D02*
X113415000Y-93020000D01*
G75*
G02*
X113190000Y-92795000I0J225000D01*
G01*
X113190000Y-92345000D01*
G75*
G02*
X113415000Y-92120000I225000J0D01*
G01*
X113915000Y-92120000D01*
G75*
G02*
X114140000Y-92345000I0J-225000D01*
G01*
X114140000Y-92795000D01*
G75*
G02*
X113915000Y-93020000I-225000J0D01*
G01*
G37*
G36*
G01*
X113915000Y-94570000D02*
X113415000Y-94570000D01*
G75*
G02*
X113190000Y-94345000I0J225000D01*
G01*
X113190000Y-93895000D01*
G75*
G02*
X113415000Y-93670000I225000J0D01*
G01*
X113915000Y-93670000D01*
G75*
G02*
X114140000Y-93895000I0J-225000D01*
G01*
X114140000Y-94345000D01*
G75*
G02*
X113915000Y-94570000I-225000J0D01*
G01*
G37*
G36*
G01*
X111140001Y-92445000D02*
X109839999Y-92445000D01*
G75*
G02*
X109590000Y-92195001I0J249999D01*
G01*
X109590000Y-91544999D01*
G75*
G02*
X109839999Y-91295000I249999J0D01*
G01*
X111140001Y-91295000D01*
G75*
G02*
X111390000Y-91544999I0J-249999D01*
G01*
X111390000Y-92195001D01*
G75*
G02*
X111140001Y-92445000I-249999J0D01*
G01*
G37*
G36*
G01*
X111140001Y-95395000D02*
X109839999Y-95395000D01*
G75*
G02*
X109590000Y-95145001I0J249999D01*
G01*
X109590000Y-94494999D01*
G75*
G02*
X109839999Y-94245000I249999J0D01*
G01*
X111140001Y-94245000D01*
G75*
G02*
X111390000Y-94494999I0J-249999D01*
G01*
X111390000Y-95145001D01*
G75*
G02*
X111140001Y-95395000I-249999J0D01*
G01*
G37*
G36*
G01*
X107565000Y-93020000D02*
X107065000Y-93020000D01*
G75*
G02*
X106840000Y-92795000I0J225000D01*
G01*
X106840000Y-92345000D01*
G75*
G02*
X107065000Y-92120000I225000J0D01*
G01*
X107565000Y-92120000D01*
G75*
G02*
X107790000Y-92345000I0J-225000D01*
G01*
X107790000Y-92795000D01*
G75*
G02*
X107565000Y-93020000I-225000J0D01*
G01*
G37*
G36*
G01*
X107565000Y-94570000D02*
X107065000Y-94570000D01*
G75*
G02*
X106840000Y-94345000I0J225000D01*
G01*
X106840000Y-93895000D01*
G75*
G02*
X107065000Y-93670000I225000J0D01*
G01*
X107565000Y-93670000D01*
G75*
G02*
X107790000Y-93895000I0J-225000D01*
G01*
X107790000Y-94345000D01*
G75*
G02*
X107565000Y-94570000I-225000J0D01*
G01*
G37*
D13*
X71755000Y-112150000D03*
X73025000Y-112150000D03*
X74295000Y-112150000D03*
X75565000Y-112150000D03*
X76835000Y-112150000D03*
X78105000Y-112150000D03*
X79375000Y-112150000D03*
X80645000Y-112150000D03*
X81915000Y-112150000D03*
X83185000Y-112150000D03*
X84455000Y-112150000D03*
X85725000Y-112150000D03*
X86995000Y-112150000D03*
X88265000Y-112150000D03*
D14*
X89265000Y-114935000D03*
X89265000Y-116205000D03*
X89265000Y-117475000D03*
X89265000Y-118745000D03*
X89265000Y-120015000D03*
X89265000Y-121285000D03*
X89265000Y-122555000D03*
X89265000Y-123825000D03*
X89265000Y-125095000D03*
X89265000Y-126365000D03*
D13*
X88265000Y-129150000D03*
X86995000Y-129150000D03*
X85725000Y-129150000D03*
X84455000Y-129150000D03*
X83185000Y-129150000D03*
X81915000Y-129150000D03*
X80645000Y-129150000D03*
X79375000Y-129150000D03*
X78105000Y-129150000D03*
X76835000Y-129150000D03*
X75565000Y-129150000D03*
X74295000Y-129150000D03*
X73025000Y-129150000D03*
X71755000Y-129150000D03*
D15*
X79255000Y-121650000D03*
D16*
X87630000Y-96155000D03*
X88580000Y-98155000D03*
X86680000Y-98155000D03*
G36*
G01*
X97771000Y-134804998D02*
X97771000Y-135705002D01*
G75*
G02*
X97521002Y-135955000I-249998J0D01*
G01*
X96995998Y-135955000D01*
G75*
G02*
X96746000Y-135705002I0J249998D01*
G01*
X96746000Y-134804998D01*
G75*
G02*
X96995998Y-134555000I249998J0D01*
G01*
X97521002Y-134555000D01*
G75*
G02*
X97771000Y-134804998I0J-249998D01*
G01*
G37*
G36*
G01*
X99596000Y-134804998D02*
X99596000Y-135705002D01*
G75*
G02*
X99346002Y-135955000I-249998J0D01*
G01*
X98820998Y-135955000D01*
G75*
G02*
X98571000Y-135705002I0J249998D01*
G01*
X98571000Y-134804998D01*
G75*
G02*
X98820998Y-134555000I249998J0D01*
G01*
X99346002Y-134555000D01*
G75*
G02*
X99596000Y-134804998I0J-249998D01*
G01*
G37*
G36*
G01*
X95700002Y-129140000D02*
X94799998Y-129140000D01*
G75*
G02*
X94550000Y-128890002I0J249998D01*
G01*
X94550000Y-128364998D01*
G75*
G02*
X94799998Y-128115000I249998J0D01*
G01*
X95700002Y-128115000D01*
G75*
G02*
X95950000Y-128364998I0J-249998D01*
G01*
X95950000Y-128890002D01*
G75*
G02*
X95700002Y-129140000I-249998J0D01*
G01*
G37*
G36*
G01*
X95700002Y-130965000D02*
X94799998Y-130965000D01*
G75*
G02*
X94550000Y-130715002I0J249998D01*
G01*
X94550000Y-130189998D01*
G75*
G02*
X94799998Y-129940000I249998J0D01*
G01*
X95700002Y-129940000D01*
G75*
G02*
X95950000Y-130189998I0J-249998D01*
G01*
X95950000Y-130715002D01*
G75*
G02*
X95700002Y-130965000I-249998J0D01*
G01*
G37*
G36*
G01*
X109937500Y-133292002D02*
X109937500Y-132391998D01*
G75*
G02*
X110187498Y-132142000I249998J0D01*
G01*
X110712502Y-132142000D01*
G75*
G02*
X110962500Y-132391998I0J-249998D01*
G01*
X110962500Y-133292002D01*
G75*
G02*
X110712502Y-133542000I-249998J0D01*
G01*
X110187498Y-133542000D01*
G75*
G02*
X109937500Y-133292002I0J249998D01*
G01*
G37*
G36*
G01*
X108112500Y-133292002D02*
X108112500Y-132391998D01*
G75*
G02*
X108362498Y-132142000I249998J0D01*
G01*
X108887502Y-132142000D01*
G75*
G02*
X109137500Y-132391998I0J-249998D01*
G01*
X109137500Y-133292002D01*
G75*
G02*
X108887502Y-133542000I-249998J0D01*
G01*
X108362498Y-133542000D01*
G75*
G02*
X108112500Y-133292002I0J249998D01*
G01*
G37*
G36*
G01*
X97771000Y-128708998D02*
X97771000Y-129609002D01*
G75*
G02*
X97521002Y-129859000I-249998J0D01*
G01*
X96995998Y-129859000D01*
G75*
G02*
X96746000Y-129609002I0J249998D01*
G01*
X96746000Y-128708998D01*
G75*
G02*
X96995998Y-128459000I249998J0D01*
G01*
X97521002Y-128459000D01*
G75*
G02*
X97771000Y-128708998I0J-249998D01*
G01*
G37*
G36*
G01*
X99596000Y-128708998D02*
X99596000Y-129609002D01*
G75*
G02*
X99346002Y-129859000I-249998J0D01*
G01*
X98820998Y-129859000D01*
G75*
G02*
X98571000Y-129609002I0J249998D01*
G01*
X98571000Y-128708998D01*
G75*
G02*
X98820998Y-128459000I249998J0D01*
G01*
X99346002Y-128459000D01*
G75*
G02*
X99596000Y-128708998I0J-249998D01*
G01*
G37*
G36*
G01*
X109937500Y-131260002D02*
X109937500Y-130359998D01*
G75*
G02*
X110187498Y-130110000I249998J0D01*
G01*
X110712502Y-130110000D01*
G75*
G02*
X110962500Y-130359998I0J-249998D01*
G01*
X110962500Y-131260002D01*
G75*
G02*
X110712502Y-131510000I-249998J0D01*
G01*
X110187498Y-131510000D01*
G75*
G02*
X109937500Y-131260002I0J249998D01*
G01*
G37*
G36*
G01*
X108112500Y-131260002D02*
X108112500Y-130359998D01*
G75*
G02*
X108362498Y-130110000I249998J0D01*
G01*
X108887502Y-130110000D01*
G75*
G02*
X109137500Y-130359998I0J-249998D01*
G01*
X109137500Y-131260002D01*
G75*
G02*
X108887502Y-131510000I-249998J0D01*
G01*
X108362498Y-131510000D01*
G75*
G02*
X108112500Y-131260002I0J249998D01*
G01*
G37*
D10*
X102981000Y-134620000D03*
X100981000Y-135570000D03*
X100981000Y-133670000D03*
X99171000Y-132334000D03*
X97171000Y-133284000D03*
X97171000Y-131384000D03*
X102981000Y-129794000D03*
X100981000Y-130744000D03*
X100981000Y-128844000D03*
G36*
G01*
X106141000Y-132590250D02*
X106141000Y-132077750D01*
G75*
G02*
X106359750Y-131859000I218750J0D01*
G01*
X106797250Y-131859000D01*
G75*
G02*
X107016000Y-132077750I0J-218750D01*
G01*
X107016000Y-132590250D01*
G75*
G02*
X106797250Y-132809000I-218750J0D01*
G01*
X106359750Y-132809000D01*
G75*
G02*
X106141000Y-132590250I0J218750D01*
G01*
G37*
G36*
G01*
X104566000Y-132590250D02*
X104566000Y-132077750D01*
G75*
G02*
X104784750Y-131859000I218750J0D01*
G01*
X105222250Y-131859000D01*
G75*
G02*
X105441000Y-132077750I0J-218750D01*
G01*
X105441000Y-132590250D01*
G75*
G02*
X105222250Y-132809000I-218750J0D01*
G01*
X104784750Y-132809000D01*
G75*
G02*
X104566000Y-132590250I0J218750D01*
G01*
G37*
G36*
G01*
X106141000Y-131066250D02*
X106141000Y-130553750D01*
G75*
G02*
X106359750Y-130335000I218750J0D01*
G01*
X106797250Y-130335000D01*
G75*
G02*
X107016000Y-130553750I0J-218750D01*
G01*
X107016000Y-131066250D01*
G75*
G02*
X106797250Y-131285000I-218750J0D01*
G01*
X106359750Y-131285000D01*
G75*
G02*
X106141000Y-131066250I0J218750D01*
G01*
G37*
G36*
G01*
X104566000Y-131066250D02*
X104566000Y-130553750D01*
G75*
G02*
X104784750Y-130335000I218750J0D01*
G01*
X105222250Y-130335000D01*
G75*
G02*
X105441000Y-130553750I0J-218750D01*
G01*
X105441000Y-131066250D01*
G75*
G02*
X105222250Y-131285000I-218750J0D01*
G01*
X104784750Y-131285000D01*
G75*
G02*
X104566000Y-131066250I0J218750D01*
G01*
G37*
G36*
G01*
X142725000Y-131040000D02*
X143025000Y-131040000D01*
G75*
G02*
X143175000Y-131190000I0J-150000D01*
G01*
X143175000Y-132840000D01*
G75*
G02*
X143025000Y-132990000I-150000J0D01*
G01*
X142725000Y-132990000D01*
G75*
G02*
X142575000Y-132840000I0J150000D01*
G01*
X142575000Y-131190000D01*
G75*
G02*
X142725000Y-131040000I150000J0D01*
G01*
G37*
G36*
G01*
X141455000Y-131040000D02*
X141755000Y-131040000D01*
G75*
G02*
X141905000Y-131190000I0J-150000D01*
G01*
X141905000Y-132840000D01*
G75*
G02*
X141755000Y-132990000I-150000J0D01*
G01*
X141455000Y-132990000D01*
G75*
G02*
X141305000Y-132840000I0J150000D01*
G01*
X141305000Y-131190000D01*
G75*
G02*
X141455000Y-131040000I150000J0D01*
G01*
G37*
G36*
G01*
X140185000Y-131040000D02*
X140485000Y-131040000D01*
G75*
G02*
X140635000Y-131190000I0J-150000D01*
G01*
X140635000Y-132840000D01*
G75*
G02*
X140485000Y-132990000I-150000J0D01*
G01*
X140185000Y-132990000D01*
G75*
G02*
X140035000Y-132840000I0J150000D01*
G01*
X140035000Y-131190000D01*
G75*
G02*
X140185000Y-131040000I150000J0D01*
G01*
G37*
G36*
G01*
X138915000Y-131040000D02*
X139215000Y-131040000D01*
G75*
G02*
X139365000Y-131190000I0J-150000D01*
G01*
X139365000Y-132840000D01*
G75*
G02*
X139215000Y-132990000I-150000J0D01*
G01*
X138915000Y-132990000D01*
G75*
G02*
X138765000Y-132840000I0J150000D01*
G01*
X138765000Y-131190000D01*
G75*
G02*
X138915000Y-131040000I150000J0D01*
G01*
G37*
G36*
G01*
X137645000Y-131040000D02*
X137945000Y-131040000D01*
G75*
G02*
X138095000Y-131190000I0J-150000D01*
G01*
X138095000Y-132840000D01*
G75*
G02*
X137945000Y-132990000I-150000J0D01*
G01*
X137645000Y-132990000D01*
G75*
G02*
X137495000Y-132840000I0J150000D01*
G01*
X137495000Y-131190000D01*
G75*
G02*
X137645000Y-131040000I150000J0D01*
G01*
G37*
G36*
G01*
X136375000Y-131040000D02*
X136675000Y-131040000D01*
G75*
G02*
X136825000Y-131190000I0J-150000D01*
G01*
X136825000Y-132840000D01*
G75*
G02*
X136675000Y-132990000I-150000J0D01*
G01*
X136375000Y-132990000D01*
G75*
G02*
X136225000Y-132840000I0J150000D01*
G01*
X136225000Y-131190000D01*
G75*
G02*
X136375000Y-131040000I150000J0D01*
G01*
G37*
G36*
G01*
X135105000Y-131040000D02*
X135405000Y-131040000D01*
G75*
G02*
X135555000Y-131190000I0J-150000D01*
G01*
X135555000Y-132840000D01*
G75*
G02*
X135405000Y-132990000I-150000J0D01*
G01*
X135105000Y-132990000D01*
G75*
G02*
X134955000Y-132840000I0J150000D01*
G01*
X134955000Y-131190000D01*
G75*
G02*
X135105000Y-131040000I150000J0D01*
G01*
G37*
G36*
G01*
X133835000Y-131040000D02*
X134135000Y-131040000D01*
G75*
G02*
X134285000Y-131190000I0J-150000D01*
G01*
X134285000Y-132840000D01*
G75*
G02*
X134135000Y-132990000I-150000J0D01*
G01*
X133835000Y-132990000D01*
G75*
G02*
X133685000Y-132840000I0J150000D01*
G01*
X133685000Y-131190000D01*
G75*
G02*
X133835000Y-131040000I150000J0D01*
G01*
G37*
G36*
G01*
X133835000Y-126090000D02*
X134135000Y-126090000D01*
G75*
G02*
X134285000Y-126240000I0J-150000D01*
G01*
X134285000Y-127890000D01*
G75*
G02*
X134135000Y-128040000I-150000J0D01*
G01*
X133835000Y-128040000D01*
G75*
G02*
X133685000Y-127890000I0J150000D01*
G01*
X133685000Y-126240000D01*
G75*
G02*
X133835000Y-126090000I150000J0D01*
G01*
G37*
G36*
G01*
X135105000Y-126090000D02*
X135405000Y-126090000D01*
G75*
G02*
X135555000Y-126240000I0J-150000D01*
G01*
X135555000Y-127890000D01*
G75*
G02*
X135405000Y-128040000I-150000J0D01*
G01*
X135105000Y-128040000D01*
G75*
G02*
X134955000Y-127890000I0J150000D01*
G01*
X134955000Y-126240000D01*
G75*
G02*
X135105000Y-126090000I150000J0D01*
G01*
G37*
G36*
G01*
X136375000Y-126090000D02*
X136675000Y-126090000D01*
G75*
G02*
X136825000Y-126240000I0J-150000D01*
G01*
X136825000Y-127890000D01*
G75*
G02*
X136675000Y-128040000I-150000J0D01*
G01*
X136375000Y-128040000D01*
G75*
G02*
X136225000Y-127890000I0J150000D01*
G01*
X136225000Y-126240000D01*
G75*
G02*
X136375000Y-126090000I150000J0D01*
G01*
G37*
G36*
G01*
X137645000Y-126090000D02*
X137945000Y-126090000D01*
G75*
G02*
X138095000Y-126240000I0J-150000D01*
G01*
X138095000Y-127890000D01*
G75*
G02*
X137945000Y-128040000I-150000J0D01*
G01*
X137645000Y-128040000D01*
G75*
G02*
X137495000Y-127890000I0J150000D01*
G01*
X137495000Y-126240000D01*
G75*
G02*
X137645000Y-126090000I150000J0D01*
G01*
G37*
G36*
G01*
X138915000Y-126090000D02*
X139215000Y-126090000D01*
G75*
G02*
X139365000Y-126240000I0J-150000D01*
G01*
X139365000Y-127890000D01*
G75*
G02*
X139215000Y-128040000I-150000J0D01*
G01*
X138915000Y-128040000D01*
G75*
G02*
X138765000Y-127890000I0J150000D01*
G01*
X138765000Y-126240000D01*
G75*
G02*
X138915000Y-126090000I150000J0D01*
G01*
G37*
G36*
G01*
X140185000Y-126090000D02*
X140485000Y-126090000D01*
G75*
G02*
X140635000Y-126240000I0J-150000D01*
G01*
X140635000Y-127890000D01*
G75*
G02*
X140485000Y-128040000I-150000J0D01*
G01*
X140185000Y-128040000D01*
G75*
G02*
X140035000Y-127890000I0J150000D01*
G01*
X140035000Y-126240000D01*
G75*
G02*
X140185000Y-126090000I150000J0D01*
G01*
G37*
G36*
G01*
X141455000Y-126090000D02*
X141755000Y-126090000D01*
G75*
G02*
X141905000Y-126240000I0J-150000D01*
G01*
X141905000Y-127890000D01*
G75*
G02*
X141755000Y-128040000I-150000J0D01*
G01*
X141455000Y-128040000D01*
G75*
G02*
X141305000Y-127890000I0J150000D01*
G01*
X141305000Y-126240000D01*
G75*
G02*
X141455000Y-126090000I150000J0D01*
G01*
G37*
G36*
G01*
X142725000Y-126090000D02*
X143025000Y-126090000D01*
G75*
G02*
X143175000Y-126240000I0J-150000D01*
G01*
X143175000Y-127890000D01*
G75*
G02*
X143025000Y-128040000I-150000J0D01*
G01*
X142725000Y-128040000D01*
G75*
G02*
X142575000Y-127890000I0J150000D01*
G01*
X142575000Y-126240000D01*
G75*
G02*
X142725000Y-126090000I150000J0D01*
G01*
G37*
G36*
G01*
X159870000Y-131040000D02*
X160170000Y-131040000D01*
G75*
G02*
X160320000Y-131190000I0J-150000D01*
G01*
X160320000Y-132840000D01*
G75*
G02*
X160170000Y-132990000I-150000J0D01*
G01*
X159870000Y-132990000D01*
G75*
G02*
X159720000Y-132840000I0J150000D01*
G01*
X159720000Y-131190000D01*
G75*
G02*
X159870000Y-131040000I150000J0D01*
G01*
G37*
G36*
G01*
X158600000Y-131040000D02*
X158900000Y-131040000D01*
G75*
G02*
X159050000Y-131190000I0J-150000D01*
G01*
X159050000Y-132840000D01*
G75*
G02*
X158900000Y-132990000I-150000J0D01*
G01*
X158600000Y-132990000D01*
G75*
G02*
X158450000Y-132840000I0J150000D01*
G01*
X158450000Y-131190000D01*
G75*
G02*
X158600000Y-131040000I150000J0D01*
G01*
G37*
G36*
G01*
X157330000Y-131040000D02*
X157630000Y-131040000D01*
G75*
G02*
X157780000Y-131190000I0J-150000D01*
G01*
X157780000Y-132840000D01*
G75*
G02*
X157630000Y-132990000I-150000J0D01*
G01*
X157330000Y-132990000D01*
G75*
G02*
X157180000Y-132840000I0J150000D01*
G01*
X157180000Y-131190000D01*
G75*
G02*
X157330000Y-131040000I150000J0D01*
G01*
G37*
G36*
G01*
X156060000Y-131040000D02*
X156360000Y-131040000D01*
G75*
G02*
X156510000Y-131190000I0J-150000D01*
G01*
X156510000Y-132840000D01*
G75*
G02*
X156360000Y-132990000I-150000J0D01*
G01*
X156060000Y-132990000D01*
G75*
G02*
X155910000Y-132840000I0J150000D01*
G01*
X155910000Y-131190000D01*
G75*
G02*
X156060000Y-131040000I150000J0D01*
G01*
G37*
G36*
G01*
X154790000Y-131040000D02*
X155090000Y-131040000D01*
G75*
G02*
X155240000Y-131190000I0J-150000D01*
G01*
X155240000Y-132840000D01*
G75*
G02*
X155090000Y-132990000I-150000J0D01*
G01*
X154790000Y-132990000D01*
G75*
G02*
X154640000Y-132840000I0J150000D01*
G01*
X154640000Y-131190000D01*
G75*
G02*
X154790000Y-131040000I150000J0D01*
G01*
G37*
G36*
G01*
X153520000Y-131040000D02*
X153820000Y-131040000D01*
G75*
G02*
X153970000Y-131190000I0J-150000D01*
G01*
X153970000Y-132840000D01*
G75*
G02*
X153820000Y-132990000I-150000J0D01*
G01*
X153520000Y-132990000D01*
G75*
G02*
X153370000Y-132840000I0J150000D01*
G01*
X153370000Y-131190000D01*
G75*
G02*
X153520000Y-131040000I150000J0D01*
G01*
G37*
G36*
G01*
X152250000Y-131040000D02*
X152550000Y-131040000D01*
G75*
G02*
X152700000Y-131190000I0J-150000D01*
G01*
X152700000Y-132840000D01*
G75*
G02*
X152550000Y-132990000I-150000J0D01*
G01*
X152250000Y-132990000D01*
G75*
G02*
X152100000Y-132840000I0J150000D01*
G01*
X152100000Y-131190000D01*
G75*
G02*
X152250000Y-131040000I150000J0D01*
G01*
G37*
G36*
G01*
X150980000Y-131040000D02*
X151280000Y-131040000D01*
G75*
G02*
X151430000Y-131190000I0J-150000D01*
G01*
X151430000Y-132840000D01*
G75*
G02*
X151280000Y-132990000I-150000J0D01*
G01*
X150980000Y-132990000D01*
G75*
G02*
X150830000Y-132840000I0J150000D01*
G01*
X150830000Y-131190000D01*
G75*
G02*
X150980000Y-131040000I150000J0D01*
G01*
G37*
G36*
G01*
X150980000Y-126090000D02*
X151280000Y-126090000D01*
G75*
G02*
X151430000Y-126240000I0J-150000D01*
G01*
X151430000Y-127890000D01*
G75*
G02*
X151280000Y-128040000I-150000J0D01*
G01*
X150980000Y-128040000D01*
G75*
G02*
X150830000Y-127890000I0J150000D01*
G01*
X150830000Y-126240000D01*
G75*
G02*
X150980000Y-126090000I150000J0D01*
G01*
G37*
G36*
G01*
X152250000Y-126090000D02*
X152550000Y-126090000D01*
G75*
G02*
X152700000Y-126240000I0J-150000D01*
G01*
X152700000Y-127890000D01*
G75*
G02*
X152550000Y-128040000I-150000J0D01*
G01*
X152250000Y-128040000D01*
G75*
G02*
X152100000Y-127890000I0J150000D01*
G01*
X152100000Y-126240000D01*
G75*
G02*
X152250000Y-126090000I150000J0D01*
G01*
G37*
G36*
G01*
X153520000Y-126090000D02*
X153820000Y-126090000D01*
G75*
G02*
X153970000Y-126240000I0J-150000D01*
G01*
X153970000Y-127890000D01*
G75*
G02*
X153820000Y-128040000I-150000J0D01*
G01*
X153520000Y-128040000D01*
G75*
G02*
X153370000Y-127890000I0J150000D01*
G01*
X153370000Y-126240000D01*
G75*
G02*
X153520000Y-126090000I150000J0D01*
G01*
G37*
G36*
G01*
X154790000Y-126090000D02*
X155090000Y-126090000D01*
G75*
G02*
X155240000Y-126240000I0J-150000D01*
G01*
X155240000Y-127890000D01*
G75*
G02*
X155090000Y-128040000I-150000J0D01*
G01*
X154790000Y-128040000D01*
G75*
G02*
X154640000Y-127890000I0J150000D01*
G01*
X154640000Y-126240000D01*
G75*
G02*
X154790000Y-126090000I150000J0D01*
G01*
G37*
G36*
G01*
X156060000Y-126090000D02*
X156360000Y-126090000D01*
G75*
G02*
X156510000Y-126240000I0J-150000D01*
G01*
X156510000Y-127890000D01*
G75*
G02*
X156360000Y-128040000I-150000J0D01*
G01*
X156060000Y-128040000D01*
G75*
G02*
X155910000Y-127890000I0J150000D01*
G01*
X155910000Y-126240000D01*
G75*
G02*
X156060000Y-126090000I150000J0D01*
G01*
G37*
G36*
G01*
X157330000Y-126090000D02*
X157630000Y-126090000D01*
G75*
G02*
X157780000Y-126240000I0J-150000D01*
G01*
X157780000Y-127890000D01*
G75*
G02*
X157630000Y-128040000I-150000J0D01*
G01*
X157330000Y-128040000D01*
G75*
G02*
X157180000Y-127890000I0J150000D01*
G01*
X157180000Y-126240000D01*
G75*
G02*
X157330000Y-126090000I150000J0D01*
G01*
G37*
G36*
G01*
X158600000Y-126090000D02*
X158900000Y-126090000D01*
G75*
G02*
X159050000Y-126240000I0J-150000D01*
G01*
X159050000Y-127890000D01*
G75*
G02*
X158900000Y-128040000I-150000J0D01*
G01*
X158600000Y-128040000D01*
G75*
G02*
X158450000Y-127890000I0J150000D01*
G01*
X158450000Y-126240000D01*
G75*
G02*
X158600000Y-126090000I150000J0D01*
G01*
G37*
G36*
G01*
X159870000Y-126090000D02*
X160170000Y-126090000D01*
G75*
G02*
X160320000Y-126240000I0J-150000D01*
G01*
X160320000Y-127890000D01*
G75*
G02*
X160170000Y-128040000I-150000J0D01*
G01*
X159870000Y-128040000D01*
G75*
G02*
X159720000Y-127890000I0J150000D01*
G01*
X159720000Y-126240000D01*
G75*
G02*
X159870000Y-126090000I150000J0D01*
G01*
G37*
D17*
X75565000Y-98595000D03*
X74615000Y-98595000D03*
X76515000Y-98595000D03*
X76515000Y-100795000D03*
X75565000Y-100795000D03*
X74615000Y-100795000D03*
G36*
G01*
X85909998Y-101365000D02*
X86810002Y-101365000D01*
G75*
G02*
X87060000Y-101614998I0J-249998D01*
G01*
X87060000Y-102140002D01*
G75*
G02*
X86810002Y-102390000I-249998J0D01*
G01*
X85909998Y-102390000D01*
G75*
G02*
X85660000Y-102140002I0J249998D01*
G01*
X85660000Y-101614998D01*
G75*
G02*
X85909998Y-101365000I249998J0D01*
G01*
G37*
G36*
G01*
X85909998Y-99540000D02*
X86810002Y-99540000D01*
G75*
G02*
X87060000Y-99789998I0J-249998D01*
G01*
X87060000Y-100315002D01*
G75*
G02*
X86810002Y-100565000I-249998J0D01*
G01*
X85909998Y-100565000D01*
G75*
G02*
X85660000Y-100315002I0J249998D01*
G01*
X85660000Y-99789998D01*
G75*
G02*
X85909998Y-99540000I249998J0D01*
G01*
G37*
G36*
G01*
X89350002Y-100565000D02*
X88449998Y-100565000D01*
G75*
G02*
X88200000Y-100315002I0J249998D01*
G01*
X88200000Y-99789998D01*
G75*
G02*
X88449998Y-99540000I249998J0D01*
G01*
X89350002Y-99540000D01*
G75*
G02*
X89600000Y-99789998I0J-249998D01*
G01*
X89600000Y-100315002D01*
G75*
G02*
X89350002Y-100565000I-249998J0D01*
G01*
G37*
G36*
G01*
X89350002Y-102390000D02*
X88449998Y-102390000D01*
G75*
G02*
X88200000Y-102140002I0J249998D01*
G01*
X88200000Y-101614998D01*
G75*
G02*
X88449998Y-101365000I249998J0D01*
G01*
X89350002Y-101365000D01*
G75*
G02*
X89600000Y-101614998I0J-249998D01*
G01*
X89600000Y-102140002D01*
G75*
G02*
X89350002Y-102390000I-249998J0D01*
G01*
G37*
D16*
X87630000Y-105775000D03*
X86680000Y-103775000D03*
X88580000Y-103775000D03*
D18*
X79630000Y-97790000D03*
X82930000Y-97790000D03*
G36*
G01*
X74045000Y-107640000D02*
X74545000Y-107640000D01*
G75*
G02*
X74770000Y-107865000I0J-225000D01*
G01*
X74770000Y-108315000D01*
G75*
G02*
X74545000Y-108540000I-225000J0D01*
G01*
X74045000Y-108540000D01*
G75*
G02*
X73820000Y-108315000I0J225000D01*
G01*
X73820000Y-107865000D01*
G75*
G02*
X74045000Y-107640000I225000J0D01*
G01*
G37*
G36*
G01*
X74045000Y-106090000D02*
X74545000Y-106090000D01*
G75*
G02*
X74770000Y-106315000I0J-225000D01*
G01*
X74770000Y-106765000D01*
G75*
G02*
X74545000Y-106990000I-225000J0D01*
G01*
X74045000Y-106990000D01*
G75*
G02*
X73820000Y-106765000I0J225000D01*
G01*
X73820000Y-106315000D01*
G75*
G02*
X74045000Y-106090000I225000J0D01*
G01*
G37*
G36*
G01*
X72140000Y-107640000D02*
X72640000Y-107640000D01*
G75*
G02*
X72865000Y-107865000I0J-225000D01*
G01*
X72865000Y-108315000D01*
G75*
G02*
X72640000Y-108540000I-225000J0D01*
G01*
X72140000Y-108540000D01*
G75*
G02*
X71915000Y-108315000I0J225000D01*
G01*
X71915000Y-107865000D01*
G75*
G02*
X72140000Y-107640000I225000J0D01*
G01*
G37*
G36*
G01*
X72140000Y-106090000D02*
X72640000Y-106090000D01*
G75*
G02*
X72865000Y-106315000I0J-225000D01*
G01*
X72865000Y-106765000D01*
G75*
G02*
X72640000Y-106990000I-225000J0D01*
G01*
X72140000Y-106990000D01*
G75*
G02*
X71915000Y-106765000I0J225000D01*
G01*
X71915000Y-106315000D01*
G75*
G02*
X72140000Y-106090000I225000J0D01*
G01*
G37*
G36*
G01*
X104945000Y-101350000D02*
X104945000Y-101850000D01*
G75*
G02*
X104720000Y-102075000I-225000J0D01*
G01*
X104270000Y-102075000D01*
G75*
G02*
X104045000Y-101850000I0J225000D01*
G01*
X104045000Y-101350000D01*
G75*
G02*
X104270000Y-101125000I225000J0D01*
G01*
X104720000Y-101125000D01*
G75*
G02*
X104945000Y-101350000I0J-225000D01*
G01*
G37*
G36*
G01*
X106495000Y-101350000D02*
X106495000Y-101850000D01*
G75*
G02*
X106270000Y-102075000I-225000J0D01*
G01*
X105820000Y-102075000D01*
G75*
G02*
X105595000Y-101850000I0J225000D01*
G01*
X105595000Y-101350000D01*
G75*
G02*
X105820000Y-101125000I225000J0D01*
G01*
X106270000Y-101125000D01*
G75*
G02*
X106495000Y-101350000I0J-225000D01*
G01*
G37*
G36*
G01*
X78449999Y-106170000D02*
X79000001Y-106170000D01*
G75*
G02*
X79250000Y-106419999I0J-249999D01*
G01*
X79250000Y-106970001D01*
G75*
G02*
X79000001Y-107220000I-249999J0D01*
G01*
X78449999Y-107220000D01*
G75*
G02*
X78200000Y-106970001I0J249999D01*
G01*
X78200000Y-106419999D01*
G75*
G02*
X78449999Y-106170000I249999J0D01*
G01*
G37*
G36*
G01*
X79749999Y-106170000D02*
X80300001Y-106170000D01*
G75*
G02*
X80550000Y-106419999I0J-249999D01*
G01*
X80550000Y-106970001D01*
G75*
G02*
X80300001Y-107220000I-249999J0D01*
G01*
X79749999Y-107220000D01*
G75*
G02*
X79500000Y-106970001I0J249999D01*
G01*
X79500000Y-106419999D01*
G75*
G02*
X79749999Y-106170000I249999J0D01*
G01*
G37*
G36*
G01*
X78449999Y-104870000D02*
X79000001Y-104870000D01*
G75*
G02*
X79250000Y-105119999I0J-249999D01*
G01*
X79250000Y-105670001D01*
G75*
G02*
X79000001Y-105920000I-249999J0D01*
G01*
X78449999Y-105920000D01*
G75*
G02*
X78200000Y-105670001I0J249999D01*
G01*
X78200000Y-105119999D01*
G75*
G02*
X78449999Y-104870000I249999J0D01*
G01*
G37*
G36*
G01*
X79749999Y-104870000D02*
X80300001Y-104870000D01*
G75*
G02*
X80550000Y-105119999I0J-249999D01*
G01*
X80550000Y-105670001D01*
G75*
G02*
X80300001Y-105920000I-249999J0D01*
G01*
X79749999Y-105920000D01*
G75*
G02*
X79500000Y-105670001I0J249999D01*
G01*
X79500000Y-105119999D01*
G75*
G02*
X79749999Y-104870000I249999J0D01*
G01*
G37*
G36*
G01*
X80962500Y-104670000D02*
X81662500Y-104670000D01*
G75*
G02*
X81725000Y-104732500I0J-62500D01*
G01*
X81725000Y-104857500D01*
G75*
G02*
X81662500Y-104920000I-62500J0D01*
G01*
X80962500Y-104920000D01*
G75*
G02*
X80900000Y-104857500I0J62500D01*
G01*
X80900000Y-104732500D01*
G75*
G02*
X80962500Y-104670000I62500J0D01*
G01*
G37*
G36*
G01*
X80962500Y-105170000D02*
X81662500Y-105170000D01*
G75*
G02*
X81725000Y-105232500I0J-62500D01*
G01*
X81725000Y-105357500D01*
G75*
G02*
X81662500Y-105420000I-62500J0D01*
G01*
X80962500Y-105420000D01*
G75*
G02*
X80900000Y-105357500I0J62500D01*
G01*
X80900000Y-105232500D01*
G75*
G02*
X80962500Y-105170000I62500J0D01*
G01*
G37*
G36*
G01*
X80962500Y-105670000D02*
X81662500Y-105670000D01*
G75*
G02*
X81725000Y-105732500I0J-62500D01*
G01*
X81725000Y-105857500D01*
G75*
G02*
X81662500Y-105920000I-62500J0D01*
G01*
X80962500Y-105920000D01*
G75*
G02*
X80900000Y-105857500I0J62500D01*
G01*
X80900000Y-105732500D01*
G75*
G02*
X80962500Y-105670000I62500J0D01*
G01*
G37*
G36*
G01*
X80962500Y-106170000D02*
X81662500Y-106170000D01*
G75*
G02*
X81725000Y-106232500I0J-62500D01*
G01*
X81725000Y-106357500D01*
G75*
G02*
X81662500Y-106420000I-62500J0D01*
G01*
X80962500Y-106420000D01*
G75*
G02*
X80900000Y-106357500I0J62500D01*
G01*
X80900000Y-106232500D01*
G75*
G02*
X80962500Y-106170000I62500J0D01*
G01*
G37*
G36*
G01*
X80962500Y-106670000D02*
X81662500Y-106670000D01*
G75*
G02*
X81725000Y-106732500I0J-62500D01*
G01*
X81725000Y-106857500D01*
G75*
G02*
X81662500Y-106920000I-62500J0D01*
G01*
X80962500Y-106920000D01*
G75*
G02*
X80900000Y-106857500I0J62500D01*
G01*
X80900000Y-106732500D01*
G75*
G02*
X80962500Y-106670000I62500J0D01*
G01*
G37*
G36*
G01*
X80962500Y-107170000D02*
X81662500Y-107170000D01*
G75*
G02*
X81725000Y-107232500I0J-62500D01*
G01*
X81725000Y-107357500D01*
G75*
G02*
X81662500Y-107420000I-62500J0D01*
G01*
X80962500Y-107420000D01*
G75*
G02*
X80900000Y-107357500I0J62500D01*
G01*
X80900000Y-107232500D01*
G75*
G02*
X80962500Y-107170000I62500J0D01*
G01*
G37*
G36*
G01*
X80562500Y-107570000D02*
X80687500Y-107570000D01*
G75*
G02*
X80750000Y-107632500I0J-62500D01*
G01*
X80750000Y-108332500D01*
G75*
G02*
X80687500Y-108395000I-62500J0D01*
G01*
X80562500Y-108395000D01*
G75*
G02*
X80500000Y-108332500I0J62500D01*
G01*
X80500000Y-107632500D01*
G75*
G02*
X80562500Y-107570000I62500J0D01*
G01*
G37*
G36*
G01*
X80062500Y-107570000D02*
X80187500Y-107570000D01*
G75*
G02*
X80250000Y-107632500I0J-62500D01*
G01*
X80250000Y-108332500D01*
G75*
G02*
X80187500Y-108395000I-62500J0D01*
G01*
X80062500Y-108395000D01*
G75*
G02*
X80000000Y-108332500I0J62500D01*
G01*
X80000000Y-107632500D01*
G75*
G02*
X80062500Y-107570000I62500J0D01*
G01*
G37*
G36*
G01*
X79562500Y-107570000D02*
X79687500Y-107570000D01*
G75*
G02*
X79750000Y-107632500I0J-62500D01*
G01*
X79750000Y-108332500D01*
G75*
G02*
X79687500Y-108395000I-62500J0D01*
G01*
X79562500Y-108395000D01*
G75*
G02*
X79500000Y-108332500I0J62500D01*
G01*
X79500000Y-107632500D01*
G75*
G02*
X79562500Y-107570000I62500J0D01*
G01*
G37*
G36*
G01*
X79062500Y-107570000D02*
X79187500Y-107570000D01*
G75*
G02*
X79250000Y-107632500I0J-62500D01*
G01*
X79250000Y-108332500D01*
G75*
G02*
X79187500Y-108395000I-62500J0D01*
G01*
X79062500Y-108395000D01*
G75*
G02*
X79000000Y-108332500I0J62500D01*
G01*
X79000000Y-107632500D01*
G75*
G02*
X79062500Y-107570000I62500J0D01*
G01*
G37*
G36*
G01*
X78562500Y-107570000D02*
X78687500Y-107570000D01*
G75*
G02*
X78750000Y-107632500I0J-62500D01*
G01*
X78750000Y-108332500D01*
G75*
G02*
X78687500Y-108395000I-62500J0D01*
G01*
X78562500Y-108395000D01*
G75*
G02*
X78500000Y-108332500I0J62500D01*
G01*
X78500000Y-107632500D01*
G75*
G02*
X78562500Y-107570000I62500J0D01*
G01*
G37*
G36*
G01*
X78062500Y-107570000D02*
X78187500Y-107570000D01*
G75*
G02*
X78250000Y-107632500I0J-62500D01*
G01*
X78250000Y-108332500D01*
G75*
G02*
X78187500Y-108395000I-62500J0D01*
G01*
X78062500Y-108395000D01*
G75*
G02*
X78000000Y-108332500I0J62500D01*
G01*
X78000000Y-107632500D01*
G75*
G02*
X78062500Y-107570000I62500J0D01*
G01*
G37*
G36*
G01*
X77087500Y-107170000D02*
X77787500Y-107170000D01*
G75*
G02*
X77850000Y-107232500I0J-62500D01*
G01*
X77850000Y-107357500D01*
G75*
G02*
X77787500Y-107420000I-62500J0D01*
G01*
X77087500Y-107420000D01*
G75*
G02*
X77025000Y-107357500I0J62500D01*
G01*
X77025000Y-107232500D01*
G75*
G02*
X77087500Y-107170000I62500J0D01*
G01*
G37*
G36*
G01*
X77087500Y-106670000D02*
X77787500Y-106670000D01*
G75*
G02*
X77850000Y-106732500I0J-62500D01*
G01*
X77850000Y-106857500D01*
G75*
G02*
X77787500Y-106920000I-62500J0D01*
G01*
X77087500Y-106920000D01*
G75*
G02*
X77025000Y-106857500I0J62500D01*
G01*
X77025000Y-106732500D01*
G75*
G02*
X77087500Y-106670000I62500J0D01*
G01*
G37*
G36*
G01*
X77087500Y-106170000D02*
X77787500Y-106170000D01*
G75*
G02*
X77850000Y-106232500I0J-62500D01*
G01*
X77850000Y-106357500D01*
G75*
G02*
X77787500Y-106420000I-62500J0D01*
G01*
X77087500Y-106420000D01*
G75*
G02*
X77025000Y-106357500I0J62500D01*
G01*
X77025000Y-106232500D01*
G75*
G02*
X77087500Y-106170000I62500J0D01*
G01*
G37*
G36*
G01*
X77087500Y-105670000D02*
X77787500Y-105670000D01*
G75*
G02*
X77850000Y-105732500I0J-62500D01*
G01*
X77850000Y-105857500D01*
G75*
G02*
X77787500Y-105920000I-62500J0D01*
G01*
X77087500Y-105920000D01*
G75*
G02*
X77025000Y-105857500I0J62500D01*
G01*
X77025000Y-105732500D01*
G75*
G02*
X77087500Y-105670000I62500J0D01*
G01*
G37*
G36*
G01*
X77087500Y-105170000D02*
X77787500Y-105170000D01*
G75*
G02*
X77850000Y-105232500I0J-62500D01*
G01*
X77850000Y-105357500D01*
G75*
G02*
X77787500Y-105420000I-62500J0D01*
G01*
X77087500Y-105420000D01*
G75*
G02*
X77025000Y-105357500I0J62500D01*
G01*
X77025000Y-105232500D01*
G75*
G02*
X77087500Y-105170000I62500J0D01*
G01*
G37*
G36*
G01*
X77087500Y-104670000D02*
X77787500Y-104670000D01*
G75*
G02*
X77850000Y-104732500I0J-62500D01*
G01*
X77850000Y-104857500D01*
G75*
G02*
X77787500Y-104920000I-62500J0D01*
G01*
X77087500Y-104920000D01*
G75*
G02*
X77025000Y-104857500I0J62500D01*
G01*
X77025000Y-104732500D01*
G75*
G02*
X77087500Y-104670000I62500J0D01*
G01*
G37*
G36*
G01*
X78062500Y-103695000D02*
X78187500Y-103695000D01*
G75*
G02*
X78250000Y-103757500I0J-62500D01*
G01*
X78250000Y-104457500D01*
G75*
G02*
X78187500Y-104520000I-62500J0D01*
G01*
X78062500Y-104520000D01*
G75*
G02*
X78000000Y-104457500I0J62500D01*
G01*
X78000000Y-103757500D01*
G75*
G02*
X78062500Y-103695000I62500J0D01*
G01*
G37*
G36*
G01*
X78562500Y-103695000D02*
X78687500Y-103695000D01*
G75*
G02*
X78750000Y-103757500I0J-62500D01*
G01*
X78750000Y-104457500D01*
G75*
G02*
X78687500Y-104520000I-62500J0D01*
G01*
X78562500Y-104520000D01*
G75*
G02*
X78500000Y-104457500I0J62500D01*
G01*
X78500000Y-103757500D01*
G75*
G02*
X78562500Y-103695000I62500J0D01*
G01*
G37*
G36*
G01*
X79062500Y-103695000D02*
X79187500Y-103695000D01*
G75*
G02*
X79250000Y-103757500I0J-62500D01*
G01*
X79250000Y-104457500D01*
G75*
G02*
X79187500Y-104520000I-62500J0D01*
G01*
X79062500Y-104520000D01*
G75*
G02*
X79000000Y-104457500I0J62500D01*
G01*
X79000000Y-103757500D01*
G75*
G02*
X79062500Y-103695000I62500J0D01*
G01*
G37*
G36*
G01*
X79562500Y-103695000D02*
X79687500Y-103695000D01*
G75*
G02*
X79750000Y-103757500I0J-62500D01*
G01*
X79750000Y-104457500D01*
G75*
G02*
X79687500Y-104520000I-62500J0D01*
G01*
X79562500Y-104520000D01*
G75*
G02*
X79500000Y-104457500I0J62500D01*
G01*
X79500000Y-103757500D01*
G75*
G02*
X79562500Y-103695000I62500J0D01*
G01*
G37*
G36*
G01*
X80062500Y-103695000D02*
X80187500Y-103695000D01*
G75*
G02*
X80250000Y-103757500I0J-62500D01*
G01*
X80250000Y-104457500D01*
G75*
G02*
X80187500Y-104520000I-62500J0D01*
G01*
X80062500Y-104520000D01*
G75*
G02*
X80000000Y-104457500I0J62500D01*
G01*
X80000000Y-103757500D01*
G75*
G02*
X80062500Y-103695000I62500J0D01*
G01*
G37*
G36*
G01*
X80562500Y-103695000D02*
X80687500Y-103695000D01*
G75*
G02*
X80750000Y-103757500I0J-62500D01*
G01*
X80750000Y-104457500D01*
G75*
G02*
X80687500Y-104520000I-62500J0D01*
G01*
X80562500Y-104520000D01*
G75*
G02*
X80500000Y-104457500I0J62500D01*
G01*
X80500000Y-103757500D01*
G75*
G02*
X80562500Y-103695000I62500J0D01*
G01*
G37*
G36*
G01*
X106430000Y-115260000D02*
X106930000Y-115260000D01*
G75*
G02*
X107155000Y-115485000I0J-225000D01*
G01*
X107155000Y-115935000D01*
G75*
G02*
X106930000Y-116160000I-225000J0D01*
G01*
X106430000Y-116160000D01*
G75*
G02*
X106205000Y-115935000I0J225000D01*
G01*
X106205000Y-115485000D01*
G75*
G02*
X106430000Y-115260000I225000J0D01*
G01*
G37*
G36*
G01*
X106430000Y-113710000D02*
X106930000Y-113710000D01*
G75*
G02*
X107155000Y-113935000I0J-225000D01*
G01*
X107155000Y-114385000D01*
G75*
G02*
X106930000Y-114610000I-225000J0D01*
G01*
X106430000Y-114610000D01*
G75*
G02*
X106205000Y-114385000I0J225000D01*
G01*
X106205000Y-113935000D01*
G75*
G02*
X106430000Y-113710000I225000J0D01*
G01*
G37*
G36*
G01*
X119230000Y-94845000D02*
X119530000Y-94845000D01*
G75*
G02*
X119680000Y-94995000I0J-150000D01*
G01*
X119680000Y-96645000D01*
G75*
G02*
X119530000Y-96795000I-150000J0D01*
G01*
X119230000Y-96795000D01*
G75*
G02*
X119080000Y-96645000I0J150000D01*
G01*
X119080000Y-94995000D01*
G75*
G02*
X119230000Y-94845000I150000J0D01*
G01*
G37*
G36*
G01*
X117960000Y-94845000D02*
X118260000Y-94845000D01*
G75*
G02*
X118410000Y-94995000I0J-150000D01*
G01*
X118410000Y-96645000D01*
G75*
G02*
X118260000Y-96795000I-150000J0D01*
G01*
X117960000Y-96795000D01*
G75*
G02*
X117810000Y-96645000I0J150000D01*
G01*
X117810000Y-94995000D01*
G75*
G02*
X117960000Y-94845000I150000J0D01*
G01*
G37*
G36*
G01*
X116690000Y-94845000D02*
X116990000Y-94845000D01*
G75*
G02*
X117140000Y-94995000I0J-150000D01*
G01*
X117140000Y-96645000D01*
G75*
G02*
X116990000Y-96795000I-150000J0D01*
G01*
X116690000Y-96795000D01*
G75*
G02*
X116540000Y-96645000I0J150000D01*
G01*
X116540000Y-94995000D01*
G75*
G02*
X116690000Y-94845000I150000J0D01*
G01*
G37*
G36*
G01*
X115420000Y-94845000D02*
X115720000Y-94845000D01*
G75*
G02*
X115870000Y-94995000I0J-150000D01*
G01*
X115870000Y-96645000D01*
G75*
G02*
X115720000Y-96795000I-150000J0D01*
G01*
X115420000Y-96795000D01*
G75*
G02*
X115270000Y-96645000I0J150000D01*
G01*
X115270000Y-94995000D01*
G75*
G02*
X115420000Y-94845000I150000J0D01*
G01*
G37*
G36*
G01*
X115420000Y-89895000D02*
X115720000Y-89895000D01*
G75*
G02*
X115870000Y-90045000I0J-150000D01*
G01*
X115870000Y-91695000D01*
G75*
G02*
X115720000Y-91845000I-150000J0D01*
G01*
X115420000Y-91845000D01*
G75*
G02*
X115270000Y-91695000I0J150000D01*
G01*
X115270000Y-90045000D01*
G75*
G02*
X115420000Y-89895000I150000J0D01*
G01*
G37*
G36*
G01*
X116690000Y-89895000D02*
X116990000Y-89895000D01*
G75*
G02*
X117140000Y-90045000I0J-150000D01*
G01*
X117140000Y-91695000D01*
G75*
G02*
X116990000Y-91845000I-150000J0D01*
G01*
X116690000Y-91845000D01*
G75*
G02*
X116540000Y-91695000I0J150000D01*
G01*
X116540000Y-90045000D01*
G75*
G02*
X116690000Y-89895000I150000J0D01*
G01*
G37*
G36*
G01*
X117960000Y-89895000D02*
X118260000Y-89895000D01*
G75*
G02*
X118410000Y-90045000I0J-150000D01*
G01*
X118410000Y-91695000D01*
G75*
G02*
X118260000Y-91845000I-150000J0D01*
G01*
X117960000Y-91845000D01*
G75*
G02*
X117810000Y-91695000I0J150000D01*
G01*
X117810000Y-90045000D01*
G75*
G02*
X117960000Y-89895000I150000J0D01*
G01*
G37*
G36*
G01*
X119230000Y-89895000D02*
X119530000Y-89895000D01*
G75*
G02*
X119680000Y-90045000I0J-150000D01*
G01*
X119680000Y-91695000D01*
G75*
G02*
X119530000Y-91845000I-150000J0D01*
G01*
X119230000Y-91845000D01*
G75*
G02*
X119080000Y-91695000I0J150000D01*
G01*
X119080000Y-90045000D01*
G75*
G02*
X119230000Y-89895000I150000J0D01*
G01*
G37*
G36*
G01*
X122104998Y-89300000D02*
X123005002Y-89300000D01*
G75*
G02*
X123255000Y-89549998I0J-249998D01*
G01*
X123255000Y-90075002D01*
G75*
G02*
X123005002Y-90325000I-249998J0D01*
G01*
X122104998Y-90325000D01*
G75*
G02*
X121855000Y-90075002I0J249998D01*
G01*
X121855000Y-89549998D01*
G75*
G02*
X122104998Y-89300000I249998J0D01*
G01*
G37*
G36*
G01*
X122104998Y-87475000D02*
X123005002Y-87475000D01*
G75*
G02*
X123255000Y-87724998I0J-249998D01*
G01*
X123255000Y-88250002D01*
G75*
G02*
X123005002Y-88500000I-249998J0D01*
G01*
X122104998Y-88500000D01*
G75*
G02*
X121855000Y-88250002I0J249998D01*
G01*
X121855000Y-87724998D01*
G75*
G02*
X122104998Y-87475000I249998J0D01*
G01*
G37*
G36*
G01*
X105260000Y-94845000D02*
X105560000Y-94845000D01*
G75*
G02*
X105710000Y-94995000I0J-150000D01*
G01*
X105710000Y-96645000D01*
G75*
G02*
X105560000Y-96795000I-150000J0D01*
G01*
X105260000Y-96795000D01*
G75*
G02*
X105110000Y-96645000I0J150000D01*
G01*
X105110000Y-94995000D01*
G75*
G02*
X105260000Y-94845000I150000J0D01*
G01*
G37*
G36*
G01*
X103990000Y-94845000D02*
X104290000Y-94845000D01*
G75*
G02*
X104440000Y-94995000I0J-150000D01*
G01*
X104440000Y-96645000D01*
G75*
G02*
X104290000Y-96795000I-150000J0D01*
G01*
X103990000Y-96795000D01*
G75*
G02*
X103840000Y-96645000I0J150000D01*
G01*
X103840000Y-94995000D01*
G75*
G02*
X103990000Y-94845000I150000J0D01*
G01*
G37*
G36*
G01*
X102720000Y-94845000D02*
X103020000Y-94845000D01*
G75*
G02*
X103170000Y-94995000I0J-150000D01*
G01*
X103170000Y-96645000D01*
G75*
G02*
X103020000Y-96795000I-150000J0D01*
G01*
X102720000Y-96795000D01*
G75*
G02*
X102570000Y-96645000I0J150000D01*
G01*
X102570000Y-94995000D01*
G75*
G02*
X102720000Y-94845000I150000J0D01*
G01*
G37*
G36*
G01*
X101450000Y-94845000D02*
X101750000Y-94845000D01*
G75*
G02*
X101900000Y-94995000I0J-150000D01*
G01*
X101900000Y-96645000D01*
G75*
G02*
X101750000Y-96795000I-150000J0D01*
G01*
X101450000Y-96795000D01*
G75*
G02*
X101300000Y-96645000I0J150000D01*
G01*
X101300000Y-94995000D01*
G75*
G02*
X101450000Y-94845000I150000J0D01*
G01*
G37*
G36*
G01*
X101450000Y-89895000D02*
X101750000Y-89895000D01*
G75*
G02*
X101900000Y-90045000I0J-150000D01*
G01*
X101900000Y-91695000D01*
G75*
G02*
X101750000Y-91845000I-150000J0D01*
G01*
X101450000Y-91845000D01*
G75*
G02*
X101300000Y-91695000I0J150000D01*
G01*
X101300000Y-90045000D01*
G75*
G02*
X101450000Y-89895000I150000J0D01*
G01*
G37*
G36*
G01*
X102720000Y-89895000D02*
X103020000Y-89895000D01*
G75*
G02*
X103170000Y-90045000I0J-150000D01*
G01*
X103170000Y-91695000D01*
G75*
G02*
X103020000Y-91845000I-150000J0D01*
G01*
X102720000Y-91845000D01*
G75*
G02*
X102570000Y-91695000I0J150000D01*
G01*
X102570000Y-90045000D01*
G75*
G02*
X102720000Y-89895000I150000J0D01*
G01*
G37*
G36*
G01*
X103990000Y-89895000D02*
X104290000Y-89895000D01*
G75*
G02*
X104440000Y-90045000I0J-150000D01*
G01*
X104440000Y-91695000D01*
G75*
G02*
X104290000Y-91845000I-150000J0D01*
G01*
X103990000Y-91845000D01*
G75*
G02*
X103840000Y-91695000I0J150000D01*
G01*
X103840000Y-90045000D01*
G75*
G02*
X103990000Y-89895000I150000J0D01*
G01*
G37*
G36*
G01*
X105260000Y-89895000D02*
X105560000Y-89895000D01*
G75*
G02*
X105710000Y-90045000I0J-150000D01*
G01*
X105710000Y-91695000D01*
G75*
G02*
X105560000Y-91845000I-150000J0D01*
G01*
X105260000Y-91845000D01*
G75*
G02*
X105110000Y-91695000I0J150000D01*
G01*
X105110000Y-90045000D01*
G75*
G02*
X105260000Y-89895000I150000J0D01*
G01*
G37*
G36*
G01*
X101890000Y-107520000D02*
X102040000Y-107520000D01*
G75*
G02*
X102115000Y-107595000I0J-75000D01*
G01*
X102115000Y-108895000D01*
G75*
G02*
X102040000Y-108970000I-75000J0D01*
G01*
X101890000Y-108970000D01*
G75*
G02*
X101815000Y-108895000I0J75000D01*
G01*
X101815000Y-107595000D01*
G75*
G02*
X101890000Y-107520000I75000J0D01*
G01*
G37*
G36*
G01*
X101390000Y-107520000D02*
X101540000Y-107520000D01*
G75*
G02*
X101615000Y-107595000I0J-75000D01*
G01*
X101615000Y-108895000D01*
G75*
G02*
X101540000Y-108970000I-75000J0D01*
G01*
X101390000Y-108970000D01*
G75*
G02*
X101315000Y-108895000I0J75000D01*
G01*
X101315000Y-107595000D01*
G75*
G02*
X101390000Y-107520000I75000J0D01*
G01*
G37*
G36*
G01*
X100890000Y-107520000D02*
X101040000Y-107520000D01*
G75*
G02*
X101115000Y-107595000I0J-75000D01*
G01*
X101115000Y-108895000D01*
G75*
G02*
X101040000Y-108970000I-75000J0D01*
G01*
X100890000Y-108970000D01*
G75*
G02*
X100815000Y-108895000I0J75000D01*
G01*
X100815000Y-107595000D01*
G75*
G02*
X100890000Y-107520000I75000J0D01*
G01*
G37*
G36*
G01*
X100390000Y-107520000D02*
X100540000Y-107520000D01*
G75*
G02*
X100615000Y-107595000I0J-75000D01*
G01*
X100615000Y-108895000D01*
G75*
G02*
X100540000Y-108970000I-75000J0D01*
G01*
X100390000Y-108970000D01*
G75*
G02*
X100315000Y-108895000I0J75000D01*
G01*
X100315000Y-107595000D01*
G75*
G02*
X100390000Y-107520000I75000J0D01*
G01*
G37*
G36*
G01*
X99890000Y-107520000D02*
X100040000Y-107520000D01*
G75*
G02*
X100115000Y-107595000I0J-75000D01*
G01*
X100115000Y-108895000D01*
G75*
G02*
X100040000Y-108970000I-75000J0D01*
G01*
X99890000Y-108970000D01*
G75*
G02*
X99815000Y-108895000I0J75000D01*
G01*
X99815000Y-107595000D01*
G75*
G02*
X99890000Y-107520000I75000J0D01*
G01*
G37*
G36*
G01*
X99890000Y-103120000D02*
X100040000Y-103120000D01*
G75*
G02*
X100115000Y-103195000I0J-75000D01*
G01*
X100115000Y-104495000D01*
G75*
G02*
X100040000Y-104570000I-75000J0D01*
G01*
X99890000Y-104570000D01*
G75*
G02*
X99815000Y-104495000I0J75000D01*
G01*
X99815000Y-103195000D01*
G75*
G02*
X99890000Y-103120000I75000J0D01*
G01*
G37*
G36*
G01*
X100390000Y-103120000D02*
X100540000Y-103120000D01*
G75*
G02*
X100615000Y-103195000I0J-75000D01*
G01*
X100615000Y-104495000D01*
G75*
G02*
X100540000Y-104570000I-75000J0D01*
G01*
X100390000Y-104570000D01*
G75*
G02*
X100315000Y-104495000I0J75000D01*
G01*
X100315000Y-103195000D01*
G75*
G02*
X100390000Y-103120000I75000J0D01*
G01*
G37*
G36*
G01*
X100890000Y-103120000D02*
X101040000Y-103120000D01*
G75*
G02*
X101115000Y-103195000I0J-75000D01*
G01*
X101115000Y-104495000D01*
G75*
G02*
X101040000Y-104570000I-75000J0D01*
G01*
X100890000Y-104570000D01*
G75*
G02*
X100815000Y-104495000I0J75000D01*
G01*
X100815000Y-103195000D01*
G75*
G02*
X100890000Y-103120000I75000J0D01*
G01*
G37*
G36*
G01*
X101390000Y-103120000D02*
X101540000Y-103120000D01*
G75*
G02*
X101615000Y-103195000I0J-75000D01*
G01*
X101615000Y-104495000D01*
G75*
G02*
X101540000Y-104570000I-75000J0D01*
G01*
X101390000Y-104570000D01*
G75*
G02*
X101315000Y-104495000I0J75000D01*
G01*
X101315000Y-103195000D01*
G75*
G02*
X101390000Y-103120000I75000J0D01*
G01*
G37*
G36*
G01*
X101890000Y-103120000D02*
X102040000Y-103120000D01*
G75*
G02*
X102115000Y-103195000I0J-75000D01*
G01*
X102115000Y-104495000D01*
G75*
G02*
X102040000Y-104570000I-75000J0D01*
G01*
X101890000Y-104570000D01*
G75*
G02*
X101815000Y-104495000I0J75000D01*
G01*
X101815000Y-103195000D01*
G75*
G02*
X101890000Y-103120000I75000J0D01*
G01*
G37*
G36*
G01*
X145820000Y-147805000D02*
X145820000Y-148105000D01*
G75*
G02*
X145670000Y-148255000I-150000J0D01*
G01*
X144020000Y-148255000D01*
G75*
G02*
X143870000Y-148105000I0J150000D01*
G01*
X143870000Y-147805000D01*
G75*
G02*
X144020000Y-147655000I150000J0D01*
G01*
X145670000Y-147655000D01*
G75*
G02*
X145820000Y-147805000I0J-150000D01*
G01*
G37*
G36*
G01*
X145820000Y-146535000D02*
X145820000Y-146835000D01*
G75*
G02*
X145670000Y-146985000I-150000J0D01*
G01*
X144020000Y-146985000D01*
G75*
G02*
X143870000Y-146835000I0J150000D01*
G01*
X143870000Y-146535000D01*
G75*
G02*
X144020000Y-146385000I150000J0D01*
G01*
X145670000Y-146385000D01*
G75*
G02*
X145820000Y-146535000I0J-150000D01*
G01*
G37*
G36*
G01*
X145820000Y-145265000D02*
X145820000Y-145565000D01*
G75*
G02*
X145670000Y-145715000I-150000J0D01*
G01*
X144020000Y-145715000D01*
G75*
G02*
X143870000Y-145565000I0J150000D01*
G01*
X143870000Y-145265000D01*
G75*
G02*
X144020000Y-145115000I150000J0D01*
G01*
X145670000Y-145115000D01*
G75*
G02*
X145820000Y-145265000I0J-150000D01*
G01*
G37*
G36*
G01*
X145820000Y-143995000D02*
X145820000Y-144295000D01*
G75*
G02*
X145670000Y-144445000I-150000J0D01*
G01*
X144020000Y-144445000D01*
G75*
G02*
X143870000Y-144295000I0J150000D01*
G01*
X143870000Y-143995000D01*
G75*
G02*
X144020000Y-143845000I150000J0D01*
G01*
X145670000Y-143845000D01*
G75*
G02*
X145820000Y-143995000I0J-150000D01*
G01*
G37*
G36*
G01*
X150770000Y-143995000D02*
X150770000Y-144295000D01*
G75*
G02*
X150620000Y-144445000I-150000J0D01*
G01*
X148970000Y-144445000D01*
G75*
G02*
X148820000Y-144295000I0J150000D01*
G01*
X148820000Y-143995000D01*
G75*
G02*
X148970000Y-143845000I150000J0D01*
G01*
X150620000Y-143845000D01*
G75*
G02*
X150770000Y-143995000I0J-150000D01*
G01*
G37*
G36*
G01*
X150770000Y-145265000D02*
X150770000Y-145565000D01*
G75*
G02*
X150620000Y-145715000I-150000J0D01*
G01*
X148970000Y-145715000D01*
G75*
G02*
X148820000Y-145565000I0J150000D01*
G01*
X148820000Y-145265000D01*
G75*
G02*
X148970000Y-145115000I150000J0D01*
G01*
X150620000Y-145115000D01*
G75*
G02*
X150770000Y-145265000I0J-150000D01*
G01*
G37*
G36*
G01*
X150770000Y-146535000D02*
X150770000Y-146835000D01*
G75*
G02*
X150620000Y-146985000I-150000J0D01*
G01*
X148970000Y-146985000D01*
G75*
G02*
X148820000Y-146835000I0J150000D01*
G01*
X148820000Y-146535000D01*
G75*
G02*
X148970000Y-146385000I150000J0D01*
G01*
X150620000Y-146385000D01*
G75*
G02*
X150770000Y-146535000I0J-150000D01*
G01*
G37*
G36*
G01*
X150770000Y-147805000D02*
X150770000Y-148105000D01*
G75*
G02*
X150620000Y-148255000I-150000J0D01*
G01*
X148970000Y-148255000D01*
G75*
G02*
X148820000Y-148105000I0J150000D01*
G01*
X148820000Y-147805000D01*
G75*
G02*
X148970000Y-147655000I150000J0D01*
G01*
X150620000Y-147655000D01*
G75*
G02*
X150770000Y-147805000I0J-150000D01*
G01*
G37*
G36*
G01*
X105180000Y-147805000D02*
X105180000Y-148105000D01*
G75*
G02*
X105030000Y-148255000I-150000J0D01*
G01*
X103380000Y-148255000D01*
G75*
G02*
X103230000Y-148105000I0J150000D01*
G01*
X103230000Y-147805000D01*
G75*
G02*
X103380000Y-147655000I150000J0D01*
G01*
X105030000Y-147655000D01*
G75*
G02*
X105180000Y-147805000I0J-150000D01*
G01*
G37*
G36*
G01*
X105180000Y-146535000D02*
X105180000Y-146835000D01*
G75*
G02*
X105030000Y-146985000I-150000J0D01*
G01*
X103380000Y-146985000D01*
G75*
G02*
X103230000Y-146835000I0J150000D01*
G01*
X103230000Y-146535000D01*
G75*
G02*
X103380000Y-146385000I150000J0D01*
G01*
X105030000Y-146385000D01*
G75*
G02*
X105180000Y-146535000I0J-150000D01*
G01*
G37*
G36*
G01*
X105180000Y-145265000D02*
X105180000Y-145565000D01*
G75*
G02*
X105030000Y-145715000I-150000J0D01*
G01*
X103380000Y-145715000D01*
G75*
G02*
X103230000Y-145565000I0J150000D01*
G01*
X103230000Y-145265000D01*
G75*
G02*
X103380000Y-145115000I150000J0D01*
G01*
X105030000Y-145115000D01*
G75*
G02*
X105180000Y-145265000I0J-150000D01*
G01*
G37*
G36*
G01*
X105180000Y-143995000D02*
X105180000Y-144295000D01*
G75*
G02*
X105030000Y-144445000I-150000J0D01*
G01*
X103380000Y-144445000D01*
G75*
G02*
X103230000Y-144295000I0J150000D01*
G01*
X103230000Y-143995000D01*
G75*
G02*
X103380000Y-143845000I150000J0D01*
G01*
X105030000Y-143845000D01*
G75*
G02*
X105180000Y-143995000I0J-150000D01*
G01*
G37*
G36*
G01*
X110130000Y-143995000D02*
X110130000Y-144295000D01*
G75*
G02*
X109980000Y-144445000I-150000J0D01*
G01*
X108330000Y-144445000D01*
G75*
G02*
X108180000Y-144295000I0J150000D01*
G01*
X108180000Y-143995000D01*
G75*
G02*
X108330000Y-143845000I150000J0D01*
G01*
X109980000Y-143845000D01*
G75*
G02*
X110130000Y-143995000I0J-150000D01*
G01*
G37*
G36*
G01*
X110130000Y-145265000D02*
X110130000Y-145565000D01*
G75*
G02*
X109980000Y-145715000I-150000J0D01*
G01*
X108330000Y-145715000D01*
G75*
G02*
X108180000Y-145565000I0J150000D01*
G01*
X108180000Y-145265000D01*
G75*
G02*
X108330000Y-145115000I150000J0D01*
G01*
X109980000Y-145115000D01*
G75*
G02*
X110130000Y-145265000I0J-150000D01*
G01*
G37*
G36*
G01*
X110130000Y-146535000D02*
X110130000Y-146835000D01*
G75*
G02*
X109980000Y-146985000I-150000J0D01*
G01*
X108330000Y-146985000D01*
G75*
G02*
X108180000Y-146835000I0J150000D01*
G01*
X108180000Y-146535000D01*
G75*
G02*
X108330000Y-146385000I150000J0D01*
G01*
X109980000Y-146385000D01*
G75*
G02*
X110130000Y-146535000I0J-150000D01*
G01*
G37*
G36*
G01*
X110130000Y-147805000D02*
X110130000Y-148105000D01*
G75*
G02*
X109980000Y-148255000I-150000J0D01*
G01*
X108330000Y-148255000D01*
G75*
G02*
X108180000Y-148105000I0J150000D01*
G01*
X108180000Y-147805000D01*
G75*
G02*
X108330000Y-147655000I150000J0D01*
G01*
X109980000Y-147655000D01*
G75*
G02*
X110130000Y-147805000I0J-150000D01*
G01*
G37*
D19*
X169067000Y-135899600D03*
X169067000Y-137033000D03*
X169067000Y-138166400D03*
X170317000Y-135899600D03*
X170317000Y-137033000D03*
X170317000Y-138166400D03*
X171567000Y-135899600D03*
X171567000Y-137033000D03*
X171567000Y-138166400D03*
X172817000Y-138166400D03*
X172817000Y-137033000D03*
X172817000Y-135899600D03*
D20*
X173217000Y-139808000D03*
X172567000Y-139808000D03*
X171917000Y-139808000D03*
X171267000Y-139808000D03*
X170617000Y-139808000D03*
X169967000Y-139808000D03*
X169317000Y-139808000D03*
X168667000Y-139808000D03*
X168667000Y-134258000D03*
X169317000Y-134258000D03*
X169967000Y-134258000D03*
X170617000Y-134258000D03*
X171267000Y-134258000D03*
X171917000Y-134258000D03*
X172567000Y-134258000D03*
X173217000Y-134258000D03*
D21*
X69179000Y-136360000D03*
X64679000Y-136360000D03*
X64679000Y-144310000D03*
X69179000Y-144310000D03*
G36*
G01*
X122104998Y-93745000D02*
X123005002Y-93745000D01*
G75*
G02*
X123255000Y-93994998I0J-249998D01*
G01*
X123255000Y-94520002D01*
G75*
G02*
X123005002Y-94770000I-249998J0D01*
G01*
X122104998Y-94770000D01*
G75*
G02*
X121855000Y-94520002I0J249998D01*
G01*
X121855000Y-93994998D01*
G75*
G02*
X122104998Y-93745000I249998J0D01*
G01*
G37*
G36*
G01*
X122104998Y-91920000D02*
X123005002Y-91920000D01*
G75*
G02*
X123255000Y-92169998I0J-249998D01*
G01*
X123255000Y-92695002D01*
G75*
G02*
X123005002Y-92945000I-249998J0D01*
G01*
X122104998Y-92945000D01*
G75*
G02*
X121855000Y-92695002I0J249998D01*
G01*
X121855000Y-92169998D01*
G75*
G02*
X122104998Y-91920000I249998J0D01*
G01*
G37*
G36*
G01*
X122104998Y-98190000D02*
X123005002Y-98190000D01*
G75*
G02*
X123255000Y-98439998I0J-249998D01*
G01*
X123255000Y-98965002D01*
G75*
G02*
X123005002Y-99215000I-249998J0D01*
G01*
X122104998Y-99215000D01*
G75*
G02*
X121855000Y-98965002I0J249998D01*
G01*
X121855000Y-98439998D01*
G75*
G02*
X122104998Y-98190000I249998J0D01*
G01*
G37*
G36*
G01*
X122104998Y-96365000D02*
X123005002Y-96365000D01*
G75*
G02*
X123255000Y-96614998I0J-249998D01*
G01*
X123255000Y-97140002D01*
G75*
G02*
X123005002Y-97390000I-249998J0D01*
G01*
X122104998Y-97390000D01*
G75*
G02*
X121855000Y-97140002I0J249998D01*
G01*
X121855000Y-96614998D01*
G75*
G02*
X122104998Y-96365000I249998J0D01*
G01*
G37*
G36*
G01*
X111309998Y-85490000D02*
X112210002Y-85490000D01*
G75*
G02*
X112460000Y-85739998I0J-249998D01*
G01*
X112460000Y-86265002D01*
G75*
G02*
X112210002Y-86515000I-249998J0D01*
G01*
X111309998Y-86515000D01*
G75*
G02*
X111060000Y-86265002I0J249998D01*
G01*
X111060000Y-85739998D01*
G75*
G02*
X111309998Y-85490000I249998J0D01*
G01*
G37*
G36*
G01*
X111309998Y-83665000D02*
X112210002Y-83665000D01*
G75*
G02*
X112460000Y-83914998I0J-249998D01*
G01*
X112460000Y-84440002D01*
G75*
G02*
X112210002Y-84690000I-249998J0D01*
G01*
X111309998Y-84690000D01*
G75*
G02*
X111060000Y-84440002I0J249998D01*
G01*
X111060000Y-83914998D01*
G75*
G02*
X111309998Y-83665000I249998J0D01*
G01*
G37*
G36*
G01*
X104375000Y-87814998D02*
X104375000Y-88715002D01*
G75*
G02*
X104125002Y-88965000I-249998J0D01*
G01*
X103599998Y-88965000D01*
G75*
G02*
X103350000Y-88715002I0J249998D01*
G01*
X103350000Y-87814998D01*
G75*
G02*
X103599998Y-87565000I249998J0D01*
G01*
X104125002Y-87565000D01*
G75*
G02*
X104375000Y-87814998I0J-249998D01*
G01*
G37*
G36*
G01*
X106200000Y-87814998D02*
X106200000Y-88715002D01*
G75*
G02*
X105950002Y-88965000I-249998J0D01*
G01*
X105424998Y-88965000D01*
G75*
G02*
X105175000Y-88715002I0J249998D01*
G01*
X105175000Y-87814998D01*
G75*
G02*
X105424998Y-87565000I249998J0D01*
G01*
X105950002Y-87565000D01*
G75*
G02*
X106200000Y-87814998I0J-249998D01*
G01*
G37*
G36*
G01*
X98609998Y-95015000D02*
X99510002Y-95015000D01*
G75*
G02*
X99760000Y-95264998I0J-249998D01*
G01*
X99760000Y-95790002D01*
G75*
G02*
X99510002Y-96040000I-249998J0D01*
G01*
X98609998Y-96040000D01*
G75*
G02*
X98360000Y-95790002I0J249998D01*
G01*
X98360000Y-95264998D01*
G75*
G02*
X98609998Y-95015000I249998J0D01*
G01*
G37*
G36*
G01*
X98609998Y-93190000D02*
X99510002Y-93190000D01*
G75*
G02*
X99760000Y-93439998I0J-249998D01*
G01*
X99760000Y-93965002D01*
G75*
G02*
X99510002Y-94215000I-249998J0D01*
G01*
X98609998Y-94215000D01*
G75*
G02*
X98360000Y-93965002I0J249998D01*
G01*
X98360000Y-93439998D01*
G75*
G02*
X98609998Y-93190000I249998J0D01*
G01*
G37*
G36*
G01*
X98609998Y-90570000D02*
X99510002Y-90570000D01*
G75*
G02*
X99760000Y-90819998I0J-249998D01*
G01*
X99760000Y-91345002D01*
G75*
G02*
X99510002Y-91595000I-249998J0D01*
G01*
X98609998Y-91595000D01*
G75*
G02*
X98360000Y-91345002I0J249998D01*
G01*
X98360000Y-90819998D01*
G75*
G02*
X98609998Y-90570000I249998J0D01*
G01*
G37*
G36*
G01*
X98609998Y-88745000D02*
X99510002Y-88745000D01*
G75*
G02*
X99760000Y-88994998I0J-249998D01*
G01*
X99760000Y-89520002D01*
G75*
G02*
X99510002Y-89770000I-249998J0D01*
G01*
X98609998Y-89770000D01*
G75*
G02*
X98360000Y-89520002I0J249998D01*
G01*
X98360000Y-88994998D01*
G75*
G02*
X98609998Y-88745000I249998J0D01*
G01*
G37*
G36*
G01*
X96069998Y-85490000D02*
X96970002Y-85490000D01*
G75*
G02*
X97220000Y-85739998I0J-249998D01*
G01*
X97220000Y-86265002D01*
G75*
G02*
X96970002Y-86515000I-249998J0D01*
G01*
X96069998Y-86515000D01*
G75*
G02*
X95820000Y-86265002I0J249998D01*
G01*
X95820000Y-85739998D01*
G75*
G02*
X96069998Y-85490000I249998J0D01*
G01*
G37*
G36*
G01*
X96069998Y-83665000D02*
X96970002Y-83665000D01*
G75*
G02*
X97220000Y-83914998I0J-249998D01*
G01*
X97220000Y-84440002D01*
G75*
G02*
X96970002Y-84690000I-249998J0D01*
G01*
X96069998Y-84690000D01*
G75*
G02*
X95820000Y-84440002I0J249998D01*
G01*
X95820000Y-83914998D01*
G75*
G02*
X96069998Y-83665000I249998J0D01*
G01*
G37*
G36*
G01*
X108820000Y-103054998D02*
X108820000Y-103955002D01*
G75*
G02*
X108570002Y-104205000I-249998J0D01*
G01*
X108044998Y-104205000D01*
G75*
G02*
X107795000Y-103955002I0J249998D01*
G01*
X107795000Y-103054998D01*
G75*
G02*
X108044998Y-102805000I249998J0D01*
G01*
X108570002Y-102805000D01*
G75*
G02*
X108820000Y-103054998I0J-249998D01*
G01*
G37*
G36*
G01*
X110645000Y-103054998D02*
X110645000Y-103955002D01*
G75*
G02*
X110395002Y-104205000I-249998J0D01*
G01*
X109869998Y-104205000D01*
G75*
G02*
X109620000Y-103955002I0J249998D01*
G01*
X109620000Y-103054998D01*
G75*
G02*
X109869998Y-102805000I249998J0D01*
G01*
X110395002Y-102805000D01*
G75*
G02*
X110645000Y-103054998I0J-249998D01*
G01*
G37*
G36*
G01*
X105010000Y-103054998D02*
X105010000Y-103955002D01*
G75*
G02*
X104760002Y-104205000I-249998J0D01*
G01*
X104234998Y-104205000D01*
G75*
G02*
X103985000Y-103955002I0J249998D01*
G01*
X103985000Y-103054998D01*
G75*
G02*
X104234998Y-102805000I249998J0D01*
G01*
X104760002Y-102805000D01*
G75*
G02*
X105010000Y-103054998I0J-249998D01*
G01*
G37*
G36*
G01*
X106835000Y-103054998D02*
X106835000Y-103955002D01*
G75*
G02*
X106585002Y-104205000I-249998J0D01*
G01*
X106059998Y-104205000D01*
G75*
G02*
X105810000Y-103955002I0J249998D01*
G01*
X105810000Y-103054998D01*
G75*
G02*
X106059998Y-102805000I249998J0D01*
G01*
X106585002Y-102805000D01*
G75*
G02*
X106835000Y-103054998I0J-249998D01*
G01*
G37*
G36*
G01*
X153219998Y-147720000D02*
X154120002Y-147720000D01*
G75*
G02*
X154370000Y-147969998I0J-249998D01*
G01*
X154370000Y-148495002D01*
G75*
G02*
X154120002Y-148745000I-249998J0D01*
G01*
X153219998Y-148745000D01*
G75*
G02*
X152970000Y-148495002I0J249998D01*
G01*
X152970000Y-147969998D01*
G75*
G02*
X153219998Y-147720000I249998J0D01*
G01*
G37*
G36*
G01*
X153219998Y-145895000D02*
X154120002Y-145895000D01*
G75*
G02*
X154370000Y-146144998I0J-249998D01*
G01*
X154370000Y-146670002D01*
G75*
G02*
X154120002Y-146920000I-249998J0D01*
G01*
X153219998Y-146920000D01*
G75*
G02*
X152970000Y-146670002I0J249998D01*
G01*
X152970000Y-146144998D01*
G75*
G02*
X153219998Y-145895000I249998J0D01*
G01*
G37*
G36*
G01*
X139300000Y-144329998D02*
X139300000Y-145230002D01*
G75*
G02*
X139050002Y-145480000I-249998J0D01*
G01*
X138524998Y-145480000D01*
G75*
G02*
X138275000Y-145230002I0J249998D01*
G01*
X138275000Y-144329998D01*
G75*
G02*
X138524998Y-144080000I249998J0D01*
G01*
X139050002Y-144080000D01*
G75*
G02*
X139300000Y-144329998I0J-249998D01*
G01*
G37*
G36*
G01*
X141125000Y-144329998D02*
X141125000Y-145230002D01*
G75*
G02*
X140875002Y-145480000I-249998J0D01*
G01*
X140349998Y-145480000D01*
G75*
G02*
X140100000Y-145230002I0J249998D01*
G01*
X140100000Y-144329998D01*
G75*
G02*
X140349998Y-144080000I249998J0D01*
G01*
X140875002Y-144080000D01*
G75*
G02*
X141125000Y-144329998I0J-249998D01*
G01*
G37*
G36*
G01*
X114700000Y-144595002D02*
X114700000Y-143694998D01*
G75*
G02*
X114949998Y-143445000I249998J0D01*
G01*
X115475002Y-143445000D01*
G75*
G02*
X115725000Y-143694998I0J-249998D01*
G01*
X115725000Y-144595002D01*
G75*
G02*
X115475002Y-144845000I-249998J0D01*
G01*
X114949998Y-144845000D01*
G75*
G02*
X114700000Y-144595002I0J249998D01*
G01*
G37*
G36*
G01*
X112875000Y-144595002D02*
X112875000Y-143694998D01*
G75*
G02*
X113124998Y-143445000I249998J0D01*
G01*
X113650002Y-143445000D01*
G75*
G02*
X113900000Y-143694998I0J-249998D01*
G01*
X113900000Y-144595002D01*
G75*
G02*
X113650002Y-144845000I-249998J0D01*
G01*
X113124998Y-144845000D01*
G75*
G02*
X112875000Y-144595002I0J249998D01*
G01*
G37*
G36*
G01*
X99879998Y-147720000D02*
X100780002Y-147720000D01*
G75*
G02*
X101030000Y-147969998I0J-249998D01*
G01*
X101030000Y-148495002D01*
G75*
G02*
X100780002Y-148745000I-249998J0D01*
G01*
X99879998Y-148745000D01*
G75*
G02*
X99630000Y-148495002I0J249998D01*
G01*
X99630000Y-147969998D01*
G75*
G02*
X99879998Y-147720000I249998J0D01*
G01*
G37*
G36*
G01*
X99879998Y-145895000D02*
X100780002Y-145895000D01*
G75*
G02*
X101030000Y-146144998I0J-249998D01*
G01*
X101030000Y-146670002D01*
G75*
G02*
X100780002Y-146920000I-249998J0D01*
G01*
X99879998Y-146920000D01*
G75*
G02*
X99630000Y-146670002I0J249998D01*
G01*
X99630000Y-146144998D01*
G75*
G02*
X99879998Y-145895000I249998J0D01*
G01*
G37*
G36*
G01*
X73006000Y-103689998D02*
X73006000Y-104590002D01*
G75*
G02*
X72756002Y-104840000I-249998J0D01*
G01*
X72230998Y-104840000D01*
G75*
G02*
X71981000Y-104590002I0J249998D01*
G01*
X71981000Y-103689998D01*
G75*
G02*
X72230998Y-103440000I249998J0D01*
G01*
X72756002Y-103440000D01*
G75*
G02*
X73006000Y-103689998I0J-249998D01*
G01*
G37*
G36*
G01*
X74831000Y-103689998D02*
X74831000Y-104590002D01*
G75*
G02*
X74581002Y-104840000I-249998J0D01*
G01*
X74055998Y-104840000D01*
G75*
G02*
X73806000Y-104590002I0J249998D01*
G01*
X73806000Y-103689998D01*
G75*
G02*
X74055998Y-103440000I249998J0D01*
G01*
X74581002Y-103440000D01*
G75*
G02*
X74831000Y-103689998I0J-249998D01*
G01*
G37*
G36*
G01*
X80930000Y-101343750D02*
X80930000Y-101856250D01*
G75*
G02*
X80711250Y-102075000I-218750J0D01*
G01*
X80273750Y-102075000D01*
G75*
G02*
X80055000Y-101856250I0J218750D01*
G01*
X80055000Y-101343750D01*
G75*
G02*
X80273750Y-101125000I218750J0D01*
G01*
X80711250Y-101125000D01*
G75*
G02*
X80930000Y-101343750I0J-218750D01*
G01*
G37*
G36*
G01*
X82505000Y-101343750D02*
X82505000Y-101856250D01*
G75*
G02*
X82286250Y-102075000I-218750J0D01*
G01*
X81848750Y-102075000D01*
G75*
G02*
X81630000Y-101856250I0J218750D01*
G01*
X81630000Y-101343750D01*
G75*
G02*
X81848750Y-101125000I218750J0D01*
G01*
X82286250Y-101125000D01*
G75*
G02*
X82505000Y-101343750I0J-218750D01*
G01*
G37*
G36*
G01*
X108895000Y-141355000D02*
X108895000Y-141855000D01*
G75*
G02*
X108670000Y-142080000I-225000J0D01*
G01*
X108220000Y-142080000D01*
G75*
G02*
X107995000Y-141855000I0J225000D01*
G01*
X107995000Y-141355000D01*
G75*
G02*
X108220000Y-141130000I225000J0D01*
G01*
X108670000Y-141130000D01*
G75*
G02*
X108895000Y-141355000I0J-225000D01*
G01*
G37*
G36*
G01*
X110445000Y-141355000D02*
X110445000Y-141855000D01*
G75*
G02*
X110220000Y-142080000I-225000J0D01*
G01*
X109770000Y-142080000D01*
G75*
G02*
X109545000Y-141855000I0J225000D01*
G01*
X109545000Y-141355000D01*
G75*
G02*
X109770000Y-141130000I225000J0D01*
G01*
X110220000Y-141130000D01*
G75*
G02*
X110445000Y-141355000I0J-225000D01*
G01*
G37*
G36*
G01*
X104465000Y-141855000D02*
X104465000Y-141355000D01*
G75*
G02*
X104690000Y-141130000I225000J0D01*
G01*
X105140000Y-141130000D01*
G75*
G02*
X105365000Y-141355000I0J-225000D01*
G01*
X105365000Y-141855000D01*
G75*
G02*
X105140000Y-142080000I-225000J0D01*
G01*
X104690000Y-142080000D01*
G75*
G02*
X104465000Y-141855000I0J225000D01*
G01*
G37*
G36*
G01*
X102915000Y-141855000D02*
X102915000Y-141355000D01*
G75*
G02*
X103140000Y-141130000I225000J0D01*
G01*
X103590000Y-141130000D01*
G75*
G02*
X103815000Y-141355000I0J-225000D01*
G01*
X103815000Y-141855000D01*
G75*
G02*
X103590000Y-142080000I-225000J0D01*
G01*
X103140000Y-142080000D01*
G75*
G02*
X102915000Y-141855000I0J225000D01*
G01*
G37*
G36*
G01*
X150185000Y-142490000D02*
X150185000Y-141990000D01*
G75*
G02*
X150410000Y-141765000I225000J0D01*
G01*
X150860000Y-141765000D01*
G75*
G02*
X151085000Y-141990000I0J-225000D01*
G01*
X151085000Y-142490000D01*
G75*
G02*
X150860000Y-142715000I-225000J0D01*
G01*
X150410000Y-142715000D01*
G75*
G02*
X150185000Y-142490000I0J225000D01*
G01*
G37*
G36*
G01*
X148635000Y-142490000D02*
X148635000Y-141990000D01*
G75*
G02*
X148860000Y-141765000I225000J0D01*
G01*
X149310000Y-141765000D01*
G75*
G02*
X149535000Y-141990000I0J-225000D01*
G01*
X149535000Y-142490000D01*
G75*
G02*
X149310000Y-142715000I-225000J0D01*
G01*
X148860000Y-142715000D01*
G75*
G02*
X148635000Y-142490000I0J225000D01*
G01*
G37*
G36*
G01*
X144455000Y-141990000D02*
X144455000Y-142490000D01*
G75*
G02*
X144230000Y-142715000I-225000J0D01*
G01*
X143780000Y-142715000D01*
G75*
G02*
X143555000Y-142490000I0J225000D01*
G01*
X143555000Y-141990000D01*
G75*
G02*
X143780000Y-141765000I225000J0D01*
G01*
X144230000Y-141765000D01*
G75*
G02*
X144455000Y-141990000I0J-225000D01*
G01*
G37*
G36*
G01*
X146005000Y-141990000D02*
X146005000Y-142490000D01*
G75*
G02*
X145780000Y-142715000I-225000J0D01*
G01*
X145330000Y-142715000D01*
G75*
G02*
X145105000Y-142490000I0J225000D01*
G01*
X145105000Y-141990000D01*
G75*
G02*
X145330000Y-141765000I225000J0D01*
G01*
X145780000Y-141765000D01*
G75*
G02*
X146005000Y-141990000I0J-225000D01*
G01*
G37*
G36*
G01*
X116045000Y-112580000D02*
X115095000Y-112580000D01*
G75*
G02*
X114845000Y-112330000I0J250000D01*
G01*
X114845000Y-111830000D01*
G75*
G02*
X115095000Y-111580000I250000J0D01*
G01*
X116045000Y-111580000D01*
G75*
G02*
X116295000Y-111830000I0J-250000D01*
G01*
X116295000Y-112330000D01*
G75*
G02*
X116045000Y-112580000I-250000J0D01*
G01*
G37*
G36*
G01*
X116045000Y-114480000D02*
X115095000Y-114480000D01*
G75*
G02*
X114845000Y-114230000I0J250000D01*
G01*
X114845000Y-113730000D01*
G75*
G02*
X115095000Y-113480000I250000J0D01*
G01*
X116045000Y-113480000D01*
G75*
G02*
X116295000Y-113730000I0J-250000D01*
G01*
X116295000Y-114230000D01*
G75*
G02*
X116045000Y-114480000I-250000J0D01*
G01*
G37*
G36*
G01*
X116045000Y-108135000D02*
X115095000Y-108135000D01*
G75*
G02*
X114845000Y-107885000I0J250000D01*
G01*
X114845000Y-107385000D01*
G75*
G02*
X115095000Y-107135000I250000J0D01*
G01*
X116045000Y-107135000D01*
G75*
G02*
X116295000Y-107385000I0J-250000D01*
G01*
X116295000Y-107885000D01*
G75*
G02*
X116045000Y-108135000I-250000J0D01*
G01*
G37*
G36*
G01*
X116045000Y-110035000D02*
X115095000Y-110035000D01*
G75*
G02*
X114845000Y-109785000I0J250000D01*
G01*
X114845000Y-109285000D01*
G75*
G02*
X115095000Y-109035000I250000J0D01*
G01*
X116045000Y-109035000D01*
G75*
G02*
X116295000Y-109285000I0J-250000D01*
G01*
X116295000Y-109785000D01*
G75*
G02*
X116045000Y-110035000I-250000J0D01*
G01*
G37*
G36*
G01*
X145800000Y-131770000D02*
X146300000Y-131770000D01*
G75*
G02*
X146525000Y-131995000I0J-225000D01*
G01*
X146525000Y-132445000D01*
G75*
G02*
X146300000Y-132670000I-225000J0D01*
G01*
X145800000Y-132670000D01*
G75*
G02*
X145575000Y-132445000I0J225000D01*
G01*
X145575000Y-131995000D01*
G75*
G02*
X145800000Y-131770000I225000J0D01*
G01*
G37*
G36*
G01*
X145800000Y-130220000D02*
X146300000Y-130220000D01*
G75*
G02*
X146525000Y-130445000I0J-225000D01*
G01*
X146525000Y-130895000D01*
G75*
G02*
X146300000Y-131120000I-225000J0D01*
G01*
X145800000Y-131120000D01*
G75*
G02*
X145575000Y-130895000I0J225000D01*
G01*
X145575000Y-130445000D01*
G75*
G02*
X145800000Y-130220000I225000J0D01*
G01*
G37*
G36*
G01*
X162945000Y-131770000D02*
X163445000Y-131770000D01*
G75*
G02*
X163670000Y-131995000I0J-225000D01*
G01*
X163670000Y-132445000D01*
G75*
G02*
X163445000Y-132670000I-225000J0D01*
G01*
X162945000Y-132670000D01*
G75*
G02*
X162720000Y-132445000I0J225000D01*
G01*
X162720000Y-131995000D01*
G75*
G02*
X162945000Y-131770000I225000J0D01*
G01*
G37*
G36*
G01*
X162945000Y-130220000D02*
X163445000Y-130220000D01*
G75*
G02*
X163670000Y-130445000I0J-225000D01*
G01*
X163670000Y-130895000D01*
G75*
G02*
X163445000Y-131120000I-225000J0D01*
G01*
X162945000Y-131120000D01*
G75*
G02*
X162720000Y-130895000I0J225000D01*
G01*
X162720000Y-130445000D01*
G75*
G02*
X162945000Y-130220000I225000J0D01*
G01*
G37*
G36*
G01*
X169795000Y-130612000D02*
X169295000Y-130612000D01*
G75*
G02*
X169070000Y-130387000I0J225000D01*
G01*
X169070000Y-129937000D01*
G75*
G02*
X169295000Y-129712000I225000J0D01*
G01*
X169795000Y-129712000D01*
G75*
G02*
X170020000Y-129937000I0J-225000D01*
G01*
X170020000Y-130387000D01*
G75*
G02*
X169795000Y-130612000I-225000J0D01*
G01*
G37*
G36*
G01*
X169795000Y-132162000D02*
X169295000Y-132162000D01*
G75*
G02*
X169070000Y-131937000I0J225000D01*
G01*
X169070000Y-131487000D01*
G75*
G02*
X169295000Y-131262000I225000J0D01*
G01*
X169795000Y-131262000D01*
G75*
G02*
X170020000Y-131487000I0J-225000D01*
G01*
X170020000Y-131937000D01*
G75*
G02*
X169795000Y-132162000I-225000J0D01*
G01*
G37*
G36*
G01*
X174315000Y-132203000D02*
X174315000Y-131703000D01*
G75*
G02*
X174540000Y-131478000I225000J0D01*
G01*
X174990000Y-131478000D01*
G75*
G02*
X175215000Y-131703000I0J-225000D01*
G01*
X175215000Y-132203000D01*
G75*
G02*
X174990000Y-132428000I-225000J0D01*
G01*
X174540000Y-132428000D01*
G75*
G02*
X174315000Y-132203000I0J225000D01*
G01*
G37*
G36*
G01*
X172765000Y-132203000D02*
X172765000Y-131703000D01*
G75*
G02*
X172990000Y-131478000I225000J0D01*
G01*
X173440000Y-131478000D01*
G75*
G02*
X173665000Y-131703000I0J-225000D01*
G01*
X173665000Y-132203000D01*
G75*
G02*
X173440000Y-132428000I-225000J0D01*
G01*
X172990000Y-132428000D01*
G75*
G02*
X172765000Y-132203000I0J225000D01*
G01*
G37*
G36*
G01*
X171125000Y-127385000D02*
X171125000Y-127885000D01*
G75*
G02*
X170900000Y-128110000I-225000J0D01*
G01*
X170450000Y-128110000D01*
G75*
G02*
X170225000Y-127885000I0J225000D01*
G01*
X170225000Y-127385000D01*
G75*
G02*
X170450000Y-127160000I225000J0D01*
G01*
X170900000Y-127160000D01*
G75*
G02*
X171125000Y-127385000I0J-225000D01*
G01*
G37*
G36*
G01*
X172675000Y-127385000D02*
X172675000Y-127885000D01*
G75*
G02*
X172450000Y-128110000I-225000J0D01*
G01*
X172000000Y-128110000D01*
G75*
G02*
X171775000Y-127885000I0J225000D01*
G01*
X171775000Y-127385000D01*
G75*
G02*
X172000000Y-127160000I225000J0D01*
G01*
X172450000Y-127160000D01*
G75*
G02*
X172675000Y-127385000I0J-225000D01*
G01*
G37*
G36*
G01*
X173157000Y-129671000D02*
X173157000Y-130171000D01*
G75*
G02*
X172932000Y-130396000I-225000J0D01*
G01*
X172482000Y-130396000D01*
G75*
G02*
X172257000Y-130171000I0J225000D01*
G01*
X172257000Y-129671000D01*
G75*
G02*
X172482000Y-129446000I225000J0D01*
G01*
X172932000Y-129446000D01*
G75*
G02*
X173157000Y-129671000I0J-225000D01*
G01*
G37*
G36*
G01*
X174707000Y-129671000D02*
X174707000Y-130171000D01*
G75*
G02*
X174482000Y-130396000I-225000J0D01*
G01*
X174032000Y-130396000D01*
G75*
G02*
X173807000Y-130171000I0J225000D01*
G01*
X173807000Y-129671000D01*
G75*
G02*
X174032000Y-129446000I225000J0D01*
G01*
X174482000Y-129446000D01*
G75*
G02*
X174707000Y-129671000I0J-225000D01*
G01*
G37*
G36*
G01*
X176272000Y-138740000D02*
X175772000Y-138740000D01*
G75*
G02*
X175547000Y-138515000I0J225000D01*
G01*
X175547000Y-138065000D01*
G75*
G02*
X175772000Y-137840000I225000J0D01*
G01*
X176272000Y-137840000D01*
G75*
G02*
X176497000Y-138065000I0J-225000D01*
G01*
X176497000Y-138515000D01*
G75*
G02*
X176272000Y-138740000I-225000J0D01*
G01*
G37*
G36*
G01*
X176272000Y-140290000D02*
X175772000Y-140290000D01*
G75*
G02*
X175547000Y-140065000I0J225000D01*
G01*
X175547000Y-139615000D01*
G75*
G02*
X175772000Y-139390000I225000J0D01*
G01*
X176272000Y-139390000D01*
G75*
G02*
X176497000Y-139615000I0J-225000D01*
G01*
X176497000Y-140065000D01*
G75*
G02*
X176272000Y-140290000I-225000J0D01*
G01*
G37*
G36*
G01*
X73475000Y-142080000D02*
X73475000Y-141130000D01*
G75*
G02*
X73725000Y-140880000I250000J0D01*
G01*
X74225000Y-140880000D01*
G75*
G02*
X74475000Y-141130000I0J-250000D01*
G01*
X74475000Y-142080000D01*
G75*
G02*
X74225000Y-142330000I-250000J0D01*
G01*
X73725000Y-142330000D01*
G75*
G02*
X73475000Y-142080000I0J250000D01*
G01*
G37*
G36*
G01*
X71575000Y-142080000D02*
X71575000Y-141130000D01*
G75*
G02*
X71825000Y-140880000I250000J0D01*
G01*
X72325000Y-140880000D01*
G75*
G02*
X72575000Y-141130000I0J-250000D01*
G01*
X72575000Y-142080000D01*
G75*
G02*
X72325000Y-142330000I-250000J0D01*
G01*
X71825000Y-142330000D01*
G75*
G02*
X71575000Y-142080000I0J250000D01*
G01*
G37*
G36*
G01*
X72575000Y-134780000D02*
X72575000Y-135730000D01*
G75*
G02*
X72325000Y-135980000I-250000J0D01*
G01*
X71825000Y-135980000D01*
G75*
G02*
X71575000Y-135730000I0J250000D01*
G01*
X71575000Y-134780000D01*
G75*
G02*
X71825000Y-134530000I250000J0D01*
G01*
X72325000Y-134530000D01*
G75*
G02*
X72575000Y-134780000I0J-250000D01*
G01*
G37*
G36*
G01*
X74475000Y-134780000D02*
X74475000Y-135730000D01*
G75*
G02*
X74225000Y-135980000I-250000J0D01*
G01*
X73725000Y-135980000D01*
G75*
G02*
X73475000Y-135730000I0J250000D01*
G01*
X73475000Y-134780000D01*
G75*
G02*
X73725000Y-134530000I250000J0D01*
G01*
X74225000Y-134530000D01*
G75*
G02*
X74475000Y-134780000I0J-250000D01*
G01*
G37*
G36*
G01*
X72700000Y-133100000D02*
X72700000Y-133600000D01*
G75*
G02*
X72475000Y-133825000I-225000J0D01*
G01*
X72025000Y-133825000D01*
G75*
G02*
X71800000Y-133600000I0J225000D01*
G01*
X71800000Y-133100000D01*
G75*
G02*
X72025000Y-132875000I225000J0D01*
G01*
X72475000Y-132875000D01*
G75*
G02*
X72700000Y-133100000I0J-225000D01*
G01*
G37*
G36*
G01*
X74250000Y-133100000D02*
X74250000Y-133600000D01*
G75*
G02*
X74025000Y-133825000I-225000J0D01*
G01*
X73575000Y-133825000D01*
G75*
G02*
X73350000Y-133600000I0J225000D01*
G01*
X73350000Y-133100000D01*
G75*
G02*
X73575000Y-132875000I225000J0D01*
G01*
X74025000Y-132875000D01*
G75*
G02*
X74250000Y-133100000I0J-225000D01*
G01*
G37*
G36*
G01*
X119855000Y-127058000D02*
X118905000Y-127058000D01*
G75*
G02*
X118655000Y-126808000I0J250000D01*
G01*
X118655000Y-126308000D01*
G75*
G02*
X118905000Y-126058000I250000J0D01*
G01*
X119855000Y-126058000D01*
G75*
G02*
X120105000Y-126308000I0J-250000D01*
G01*
X120105000Y-126808000D01*
G75*
G02*
X119855000Y-127058000I-250000J0D01*
G01*
G37*
G36*
G01*
X119855000Y-128958000D02*
X118905000Y-128958000D01*
G75*
G02*
X118655000Y-128708000I0J250000D01*
G01*
X118655000Y-128208000D01*
G75*
G02*
X118905000Y-127958000I250000J0D01*
G01*
X119855000Y-127958000D01*
G75*
G02*
X120105000Y-128208000I0J-250000D01*
G01*
X120105000Y-128708000D01*
G75*
G02*
X119855000Y-128958000I-250000J0D01*
G01*
G37*
G36*
G01*
X119855000Y-131122000D02*
X118905000Y-131122000D01*
G75*
G02*
X118655000Y-130872000I0J250000D01*
G01*
X118655000Y-130372000D01*
G75*
G02*
X118905000Y-130122000I250000J0D01*
G01*
X119855000Y-130122000D01*
G75*
G02*
X120105000Y-130372000I0J-250000D01*
G01*
X120105000Y-130872000D01*
G75*
G02*
X119855000Y-131122000I-250000J0D01*
G01*
G37*
G36*
G01*
X119855000Y-133022000D02*
X118905000Y-133022000D01*
G75*
G02*
X118655000Y-132772000I0J250000D01*
G01*
X118655000Y-132272000D01*
G75*
G02*
X118905000Y-132022000I250000J0D01*
G01*
X119855000Y-132022000D01*
G75*
G02*
X120105000Y-132272000I0J-250000D01*
G01*
X120105000Y-132772000D01*
G75*
G02*
X119855000Y-133022000I-250000J0D01*
G01*
G37*
M02*
