G04 #@! TF.GenerationSoftware,KiCad,Pcbnew,(5.1.8-0-10_14)*
G04 #@! TF.CreationDate,2021-01-15T12:09:11-08:00*
G04 #@! TF.ProjectId,esp32_sync,65737033-325f-4737-996e-632e6b696361,rev?*
G04 #@! TF.SameCoordinates,Original*
G04 #@! TF.FileFunction,Legend,Bot*
G04 #@! TF.FilePolarity,Positive*
%FSLAX46Y46*%
G04 Gerber Fmt 4.6, Leading zero omitted, Abs format (unit mm)*
G04 Created by KiCad (PCBNEW (5.1.8-0-10_14)) date 2021-01-15 12:09:11*
%MOMM*%
%LPD*%
G01*
G04 APERTURE LIST*
%ADD10C,0.150000*%
%ADD11C,0.152400*%
%ADD12C,0.100000*%
%ADD13C,0.120000*%
G04 APERTURE END LIST*
D10*
X119880000Y-99186904D02*
X119927619Y-99282142D01*
X119927619Y-99425000D01*
X119880000Y-99567857D01*
X119784761Y-99663095D01*
X119689523Y-99710714D01*
X119499047Y-99758333D01*
X119356190Y-99758333D01*
X119165714Y-99710714D01*
X119070476Y-99663095D01*
X118975238Y-99567857D01*
X118927619Y-99425000D01*
X118927619Y-99329761D01*
X118975238Y-99186904D01*
X119022857Y-99139285D01*
X119356190Y-99139285D01*
X119356190Y-99329761D01*
X118927619Y-98710714D02*
X119927619Y-98710714D01*
X118927619Y-98139285D01*
X119927619Y-98139285D01*
X118927619Y-97663095D02*
X119927619Y-97663095D01*
X119927619Y-97425000D01*
X119880000Y-97282142D01*
X119784761Y-97186904D01*
X119689523Y-97139285D01*
X119499047Y-97091666D01*
X119356190Y-97091666D01*
X119165714Y-97139285D01*
X119070476Y-97186904D01*
X118975238Y-97282142D01*
X118927619Y-97425000D01*
X118927619Y-97663095D01*
D11*
X134928428Y-125336300D02*
X134444619Y-125336300D01*
X135025190Y-125641100D02*
X134686523Y-124574300D01*
X134347857Y-125641100D01*
X134009190Y-124929900D02*
X134009190Y-125641100D01*
X134009190Y-125031500D02*
X133960809Y-124980700D01*
X133864047Y-124929900D01*
X133718904Y-124929900D01*
X133622142Y-124980700D01*
X133573761Y-125082300D01*
X133573761Y-125641100D01*
X132654523Y-125641100D02*
X132654523Y-125082300D01*
X132702904Y-124980700D01*
X132799666Y-124929900D01*
X132993190Y-124929900D01*
X133089952Y-124980700D01*
X132654523Y-125590300D02*
X132751285Y-125641100D01*
X132993190Y-125641100D01*
X133089952Y-125590300D01*
X133138333Y-125488700D01*
X133138333Y-125387100D01*
X133089952Y-125285500D01*
X132993190Y-125234700D01*
X132751285Y-125234700D01*
X132654523Y-125183900D01*
X131735285Y-124929900D02*
X131735285Y-125793500D01*
X131783666Y-125895100D01*
X131832047Y-125945900D01*
X131928809Y-125996700D01*
X132073952Y-125996700D01*
X132170714Y-125945900D01*
X131735285Y-125590300D02*
X131832047Y-125641100D01*
X132025571Y-125641100D01*
X132122333Y-125590300D01*
X132170714Y-125539500D01*
X132219095Y-125437900D01*
X132219095Y-125133100D01*
X132170714Y-125031500D01*
X132122333Y-124980700D01*
X132025571Y-124929900D01*
X131832047Y-124929900D01*
X131735285Y-124980700D01*
X131106333Y-125641100D02*
X131203095Y-125590300D01*
X131251476Y-125488700D01*
X131251476Y-124574300D01*
X130574142Y-125641100D02*
X130670904Y-125590300D01*
X130719285Y-125539500D01*
X130767666Y-125437900D01*
X130767666Y-125133100D01*
X130719285Y-125031500D01*
X130670904Y-124980700D01*
X130574142Y-124929900D01*
X130429000Y-124929900D01*
X130332238Y-124980700D01*
X130283857Y-125031500D01*
X130235476Y-125133100D01*
X130235476Y-125437900D01*
X130283857Y-125539500D01*
X130332238Y-125590300D01*
X130429000Y-125641100D01*
X130574142Y-125641100D01*
X129364619Y-124929900D02*
X129364619Y-125793500D01*
X129413000Y-125895100D01*
X129461380Y-125945900D01*
X129558142Y-125996700D01*
X129703285Y-125996700D01*
X129800047Y-125945900D01*
X129364619Y-125590300D02*
X129461380Y-125641100D01*
X129654904Y-125641100D01*
X129751666Y-125590300D01*
X129800047Y-125539500D01*
X129848428Y-125437900D01*
X129848428Y-125133100D01*
X129800047Y-125031500D01*
X129751666Y-124980700D01*
X129654904Y-124929900D01*
X129461380Y-124929900D01*
X129364619Y-124980700D01*
X128155095Y-124523500D02*
X129025952Y-125895100D01*
X127816428Y-125641100D02*
X127816428Y-124574300D01*
X127574523Y-124574300D01*
X127429380Y-124625100D01*
X127332619Y-124726700D01*
X127284238Y-124828300D01*
X127235857Y-125031500D01*
X127235857Y-125183900D01*
X127284238Y-125387100D01*
X127332619Y-125488700D01*
X127429380Y-125590300D01*
X127574523Y-125641100D01*
X127816428Y-125641100D01*
X126800428Y-125641100D02*
X126800428Y-124929900D01*
X126800428Y-124574300D02*
X126848809Y-124625100D01*
X126800428Y-124675900D01*
X126752047Y-124625100D01*
X126800428Y-124574300D01*
X126800428Y-124675900D01*
X125881190Y-124929900D02*
X125881190Y-125793500D01*
X125929571Y-125895100D01*
X125977952Y-125945900D01*
X126074714Y-125996700D01*
X126219857Y-125996700D01*
X126316619Y-125945900D01*
X125881190Y-125590300D02*
X125977952Y-125641100D01*
X126171476Y-125641100D01*
X126268238Y-125590300D01*
X126316619Y-125539500D01*
X126365000Y-125437900D01*
X126365000Y-125133100D01*
X126316619Y-125031500D01*
X126268238Y-124980700D01*
X126171476Y-124929900D01*
X125977952Y-124929900D01*
X125881190Y-124980700D01*
X125397380Y-125641100D02*
X125397380Y-124929900D01*
X125397380Y-124574300D02*
X125445761Y-124625100D01*
X125397380Y-124675900D01*
X125349000Y-124625100D01*
X125397380Y-124574300D01*
X125397380Y-124675900D01*
X125058714Y-124929900D02*
X124671666Y-124929900D01*
X124913571Y-124574300D02*
X124913571Y-125488700D01*
X124865190Y-125590300D01*
X124768428Y-125641100D01*
X124671666Y-125641100D01*
X123897571Y-125641100D02*
X123897571Y-125082300D01*
X123945952Y-124980700D01*
X124042714Y-124929900D01*
X124236238Y-124929900D01*
X124333000Y-124980700D01*
X123897571Y-125590300D02*
X123994333Y-125641100D01*
X124236238Y-125641100D01*
X124333000Y-125590300D01*
X124381380Y-125488700D01*
X124381380Y-125387100D01*
X124333000Y-125285500D01*
X124236238Y-125234700D01*
X123994333Y-125234700D01*
X123897571Y-125183900D01*
X123268619Y-125641100D02*
X123365380Y-125590300D01*
X123413761Y-125488700D01*
X123413761Y-124574300D01*
X122155857Y-125590300D02*
X122010714Y-125641100D01*
X121768809Y-125641100D01*
X121672047Y-125590300D01*
X121623666Y-125539500D01*
X121575285Y-125437900D01*
X121575285Y-125336300D01*
X121623666Y-125234700D01*
X121672047Y-125183900D01*
X121768809Y-125133100D01*
X121962333Y-125082300D01*
X122059095Y-125031500D01*
X122107476Y-124980700D01*
X122155857Y-124879100D01*
X122155857Y-124777500D01*
X122107476Y-124675900D01*
X122059095Y-124625100D01*
X121962333Y-124574300D01*
X121720428Y-124574300D01*
X121575285Y-124625100D01*
X121236619Y-124929900D02*
X120994714Y-125641100D01*
X120752809Y-124929900D02*
X120994714Y-125641100D01*
X121091476Y-125895100D01*
X121139857Y-125945900D01*
X121236619Y-125996700D01*
X120365761Y-124929900D02*
X120365761Y-125641100D01*
X120365761Y-125031500D02*
X120317380Y-124980700D01*
X120220619Y-124929900D01*
X120075476Y-124929900D01*
X119978714Y-124980700D01*
X119930333Y-125082300D01*
X119930333Y-125641100D01*
X119011095Y-125590300D02*
X119107857Y-125641100D01*
X119301380Y-125641100D01*
X119398142Y-125590300D01*
X119446523Y-125539500D01*
X119494904Y-125437900D01*
X119494904Y-125133100D01*
X119446523Y-125031500D01*
X119398142Y-124980700D01*
X119301380Y-124929900D01*
X119107857Y-124929900D01*
X119011095Y-124980700D01*
X118575666Y-125641100D02*
X118575666Y-124574300D01*
X118140238Y-125641100D02*
X118140238Y-125082300D01*
X118188619Y-124980700D01*
X118285380Y-124929900D01*
X118430523Y-124929900D01*
X118527285Y-124980700D01*
X118575666Y-125031500D01*
X117656428Y-125641100D02*
X117656428Y-124929900D01*
X117656428Y-125133100D02*
X117608047Y-125031500D01*
X117559666Y-124980700D01*
X117462904Y-124929900D01*
X117366142Y-124929900D01*
X116882333Y-125641100D02*
X116979095Y-125590300D01*
X117027476Y-125539500D01*
X117075857Y-125437900D01*
X117075857Y-125133100D01*
X117027476Y-125031500D01*
X116979095Y-124980700D01*
X116882333Y-124929900D01*
X116737190Y-124929900D01*
X116640428Y-124980700D01*
X116592047Y-125031500D01*
X116543666Y-125133100D01*
X116543666Y-125437900D01*
X116592047Y-125539500D01*
X116640428Y-125590300D01*
X116737190Y-125641100D01*
X116882333Y-125641100D01*
X116108238Y-124929900D02*
X116108238Y-125641100D01*
X116108238Y-125031500D02*
X116059857Y-124980700D01*
X115963095Y-124929900D01*
X115817952Y-124929900D01*
X115721190Y-124980700D01*
X115672809Y-125082300D01*
X115672809Y-125641100D01*
X115189000Y-125641100D02*
X115189000Y-124929900D01*
X115189000Y-124574300D02*
X115237380Y-124625100D01*
X115189000Y-124675900D01*
X115140619Y-124625100D01*
X115189000Y-124574300D01*
X115189000Y-124675900D01*
X114801952Y-124929900D02*
X114269761Y-124929900D01*
X114801952Y-125641100D01*
X114269761Y-125641100D01*
X113495666Y-125590300D02*
X113592428Y-125641100D01*
X113785952Y-125641100D01*
X113882714Y-125590300D01*
X113931095Y-125488700D01*
X113931095Y-125082300D01*
X113882714Y-124980700D01*
X113785952Y-124929900D01*
X113592428Y-124929900D01*
X113495666Y-124980700D01*
X113447285Y-125082300D01*
X113447285Y-125183900D01*
X113931095Y-125285500D01*
X113011857Y-125641100D02*
X113011857Y-124929900D01*
X113011857Y-125133100D02*
X112963476Y-125031500D01*
X112915095Y-124980700D01*
X112818333Y-124929900D01*
X112721571Y-124929900D01*
X111270142Y-125082300D02*
X111125000Y-125133100D01*
X111076619Y-125183900D01*
X111028238Y-125285500D01*
X111028238Y-125437900D01*
X111076619Y-125539500D01*
X111125000Y-125590300D01*
X111221761Y-125641100D01*
X111608809Y-125641100D01*
X111608809Y-124574300D01*
X111270142Y-124574300D01*
X111173380Y-124625100D01*
X111125000Y-124675900D01*
X111076619Y-124777500D01*
X111076619Y-124879100D01*
X111125000Y-124980700D01*
X111173380Y-125031500D01*
X111270142Y-125082300D01*
X111608809Y-125082300D01*
X110447666Y-125641100D02*
X110544428Y-125590300D01*
X110592809Y-125539500D01*
X110641190Y-125437900D01*
X110641190Y-125133100D01*
X110592809Y-125031500D01*
X110544428Y-124980700D01*
X110447666Y-124929900D01*
X110302523Y-124929900D01*
X110205761Y-124980700D01*
X110157380Y-125031500D01*
X110109000Y-125133100D01*
X110109000Y-125437900D01*
X110157380Y-125539500D01*
X110205761Y-125590300D01*
X110302523Y-125641100D01*
X110447666Y-125641100D01*
X109238142Y-125641100D02*
X109238142Y-125082300D01*
X109286523Y-124980700D01*
X109383285Y-124929900D01*
X109576809Y-124929900D01*
X109673571Y-124980700D01*
X109238142Y-125590300D02*
X109334904Y-125641100D01*
X109576809Y-125641100D01*
X109673571Y-125590300D01*
X109721952Y-125488700D01*
X109721952Y-125387100D01*
X109673571Y-125285500D01*
X109576809Y-125234700D01*
X109334904Y-125234700D01*
X109238142Y-125183900D01*
X108754333Y-125641100D02*
X108754333Y-124929900D01*
X108754333Y-125133100D02*
X108705952Y-125031500D01*
X108657571Y-124980700D01*
X108560809Y-124929900D01*
X108464047Y-124929900D01*
X107689952Y-125641100D02*
X107689952Y-124574300D01*
X107689952Y-125590300D02*
X107786714Y-125641100D01*
X107980238Y-125641100D01*
X108077000Y-125590300D01*
X108125380Y-125539500D01*
X108173761Y-125437900D01*
X108173761Y-125133100D01*
X108125380Y-125031500D01*
X108077000Y-124980700D01*
X107980238Y-124929900D01*
X107786714Y-124929900D01*
X107689952Y-124980700D01*
X130961190Y-126326900D02*
X130622523Y-127393700D01*
X130283857Y-126326900D01*
X129558142Y-127342900D02*
X129654904Y-127393700D01*
X129848428Y-127393700D01*
X129945190Y-127342900D01*
X129993571Y-127241300D01*
X129993571Y-126834900D01*
X129945190Y-126733300D01*
X129848428Y-126682500D01*
X129654904Y-126682500D01*
X129558142Y-126733300D01*
X129509761Y-126834900D01*
X129509761Y-126936500D01*
X129993571Y-127038100D01*
X129074333Y-127393700D02*
X129074333Y-126682500D01*
X129074333Y-126885700D02*
X129025952Y-126784100D01*
X128977571Y-126733300D01*
X128880809Y-126682500D01*
X128784047Y-126682500D01*
X128493761Y-127342900D02*
X128397000Y-127393700D01*
X128203476Y-127393700D01*
X128106714Y-127342900D01*
X128058333Y-127241300D01*
X128058333Y-127190500D01*
X128106714Y-127088900D01*
X128203476Y-127038100D01*
X128348619Y-127038100D01*
X128445380Y-126987300D01*
X128493761Y-126885700D01*
X128493761Y-126834900D01*
X128445380Y-126733300D01*
X128348619Y-126682500D01*
X128203476Y-126682500D01*
X128106714Y-126733300D01*
X127622904Y-127393700D02*
X127622904Y-126682500D01*
X127622904Y-126326900D02*
X127671285Y-126377700D01*
X127622904Y-126428500D01*
X127574523Y-126377700D01*
X127622904Y-126326900D01*
X127622904Y-126428500D01*
X126993952Y-127393700D02*
X127090714Y-127342900D01*
X127139095Y-127292100D01*
X127187476Y-127190500D01*
X127187476Y-126885700D01*
X127139095Y-126784100D01*
X127090714Y-126733300D01*
X126993952Y-126682500D01*
X126848809Y-126682500D01*
X126752047Y-126733300D01*
X126703666Y-126784100D01*
X126655285Y-126885700D01*
X126655285Y-127190500D01*
X126703666Y-127292100D01*
X126752047Y-127342900D01*
X126848809Y-127393700D01*
X126993952Y-127393700D01*
X126219857Y-126682500D02*
X126219857Y-127393700D01*
X126219857Y-126784100D02*
X126171476Y-126733300D01*
X126074714Y-126682500D01*
X125929571Y-126682500D01*
X125832809Y-126733300D01*
X125784428Y-126834900D01*
X125784428Y-127393700D01*
X123994333Y-127393700D02*
X124574904Y-127393700D01*
X124284619Y-127393700D02*
X124284619Y-126326900D01*
X124381380Y-126479300D01*
X124478142Y-126580900D01*
X124574904Y-126631700D01*
X123558904Y-127292100D02*
X123510523Y-127342900D01*
X123558904Y-127393700D01*
X123607285Y-127342900D01*
X123558904Y-127292100D01*
X123558904Y-127393700D01*
X122881571Y-126326900D02*
X122784809Y-126326900D01*
X122688047Y-126377700D01*
X122639666Y-126428500D01*
X122591285Y-126530100D01*
X122542904Y-126733300D01*
X122542904Y-126987300D01*
X122591285Y-127190500D01*
X122639666Y-127292100D01*
X122688047Y-127342900D01*
X122784809Y-127393700D01*
X122881571Y-127393700D01*
X122978333Y-127342900D01*
X123026714Y-127292100D01*
X123075095Y-127190500D01*
X123123476Y-126987300D01*
X123123476Y-126733300D01*
X123075095Y-126530100D01*
X123026714Y-126428500D01*
X122978333Y-126377700D01*
X122881571Y-126326900D01*
X121043095Y-127800100D02*
X121091476Y-127749300D01*
X121188238Y-127596900D01*
X121236619Y-127495300D01*
X121285000Y-127342900D01*
X121333380Y-127088900D01*
X121333380Y-126885700D01*
X121285000Y-126631700D01*
X121236619Y-126479300D01*
X121188238Y-126377700D01*
X121091476Y-126225300D01*
X121043095Y-126174500D01*
X120656047Y-127393700D02*
X120656047Y-126326900D01*
X120269000Y-126326900D01*
X120172238Y-126377700D01*
X120123857Y-126428500D01*
X120075476Y-126530100D01*
X120075476Y-126682500D01*
X120123857Y-126784100D01*
X120172238Y-126834900D01*
X120269000Y-126885700D01*
X120656047Y-126885700D01*
X119059476Y-127292100D02*
X119107857Y-127342900D01*
X119253000Y-127393700D01*
X119349761Y-127393700D01*
X119494904Y-127342900D01*
X119591666Y-127241300D01*
X119640047Y-127139700D01*
X119688428Y-126936500D01*
X119688428Y-126784100D01*
X119640047Y-126580900D01*
X119591666Y-126479300D01*
X119494904Y-126377700D01*
X119349761Y-126326900D01*
X119253000Y-126326900D01*
X119107857Y-126377700D01*
X119059476Y-126428500D01*
X118285380Y-126834900D02*
X118140238Y-126885700D01*
X118091857Y-126936500D01*
X118043476Y-127038100D01*
X118043476Y-127190500D01*
X118091857Y-127292100D01*
X118140238Y-127342900D01*
X118237000Y-127393700D01*
X118624047Y-127393700D01*
X118624047Y-126326900D01*
X118285380Y-126326900D01*
X118188619Y-126377700D01*
X118140238Y-126428500D01*
X118091857Y-126530100D01*
X118091857Y-126631700D01*
X118140238Y-126733300D01*
X118188619Y-126784100D01*
X118285380Y-126834900D01*
X118624047Y-126834900D01*
X116253380Y-127393700D02*
X116592047Y-126885700D01*
X116833952Y-127393700D02*
X116833952Y-126326900D01*
X116446904Y-126326900D01*
X116350142Y-126377700D01*
X116301761Y-126428500D01*
X116253380Y-126530100D01*
X116253380Y-126682500D01*
X116301761Y-126784100D01*
X116350142Y-126834900D01*
X116446904Y-126885700D01*
X116833952Y-126885700D01*
X115430904Y-127342900D02*
X115527666Y-127393700D01*
X115721190Y-127393700D01*
X115817952Y-127342900D01*
X115866333Y-127241300D01*
X115866333Y-126834900D01*
X115817952Y-126733300D01*
X115721190Y-126682500D01*
X115527666Y-126682500D01*
X115430904Y-126733300D01*
X115382523Y-126834900D01*
X115382523Y-126936500D01*
X115866333Y-127038100D01*
X115043857Y-126682500D02*
X114801952Y-127393700D01*
X114560047Y-126682500D01*
X114173000Y-127292100D02*
X114124619Y-127342900D01*
X114173000Y-127393700D01*
X114221380Y-127342900D01*
X114173000Y-127292100D01*
X114173000Y-127393700D01*
X112963476Y-126428500D02*
X112915095Y-126377700D01*
X112818333Y-126326900D01*
X112576428Y-126326900D01*
X112479666Y-126377700D01*
X112431285Y-126428500D01*
X112382904Y-126530100D01*
X112382904Y-126631700D01*
X112431285Y-126784100D01*
X113011857Y-127393700D01*
X112382904Y-127393700D01*
X112044238Y-127800100D02*
X111995857Y-127749300D01*
X111899095Y-127596900D01*
X111850714Y-127495300D01*
X111802333Y-127342900D01*
X111753952Y-127088900D01*
X111753952Y-126885700D01*
X111802333Y-126631700D01*
X111850714Y-126479300D01*
X111899095Y-126377700D01*
X111995857Y-126225300D01*
X112044238Y-126174500D01*
X133114142Y-129146300D02*
X133114142Y-128079500D01*
X132872238Y-128079500D01*
X132727095Y-128130300D01*
X132630333Y-128231900D01*
X132581952Y-128333500D01*
X132533571Y-128536700D01*
X132533571Y-128689100D01*
X132581952Y-128892300D01*
X132630333Y-128993900D01*
X132727095Y-129095500D01*
X132872238Y-129146300D01*
X133114142Y-129146300D01*
X131711095Y-129095500D02*
X131807857Y-129146300D01*
X132001380Y-129146300D01*
X132098142Y-129095500D01*
X132146523Y-128993900D01*
X132146523Y-128587500D01*
X132098142Y-128485900D01*
X132001380Y-128435100D01*
X131807857Y-128435100D01*
X131711095Y-128485900D01*
X131662714Y-128587500D01*
X131662714Y-128689100D01*
X132146523Y-128790700D01*
X131324047Y-128435100D02*
X131082142Y-129146300D01*
X130840238Y-128435100D01*
X130066142Y-129095500D02*
X130162904Y-129146300D01*
X130356428Y-129146300D01*
X130453190Y-129095500D01*
X130501571Y-128993900D01*
X130501571Y-128587500D01*
X130453190Y-128485900D01*
X130356428Y-128435100D01*
X130162904Y-128435100D01*
X130066142Y-128485900D01*
X130017761Y-128587500D01*
X130017761Y-128689100D01*
X130501571Y-128790700D01*
X129437190Y-129146300D02*
X129533952Y-129095500D01*
X129582333Y-128993900D01*
X129582333Y-128079500D01*
X128905000Y-129146300D02*
X129001761Y-129095500D01*
X129050142Y-129044700D01*
X129098523Y-128943100D01*
X129098523Y-128638300D01*
X129050142Y-128536700D01*
X129001761Y-128485900D01*
X128905000Y-128435100D01*
X128759857Y-128435100D01*
X128663095Y-128485900D01*
X128614714Y-128536700D01*
X128566333Y-128638300D01*
X128566333Y-128943100D01*
X128614714Y-129044700D01*
X128663095Y-129095500D01*
X128759857Y-129146300D01*
X128905000Y-129146300D01*
X128130904Y-128435100D02*
X128130904Y-129501900D01*
X128130904Y-128485900D02*
X128034142Y-128435100D01*
X127840619Y-128435100D01*
X127743857Y-128485900D01*
X127695476Y-128536700D01*
X127647095Y-128638300D01*
X127647095Y-128943100D01*
X127695476Y-129044700D01*
X127743857Y-129095500D01*
X127840619Y-129146300D01*
X128034142Y-129146300D01*
X128130904Y-129095500D01*
X126824619Y-129095500D02*
X126921380Y-129146300D01*
X127114904Y-129146300D01*
X127211666Y-129095500D01*
X127260047Y-128993900D01*
X127260047Y-128587500D01*
X127211666Y-128485900D01*
X127114904Y-128435100D01*
X126921380Y-128435100D01*
X126824619Y-128485900D01*
X126776238Y-128587500D01*
X126776238Y-128689100D01*
X127260047Y-128790700D01*
X125905380Y-129146300D02*
X125905380Y-128079500D01*
X125905380Y-129095500D02*
X126002142Y-129146300D01*
X126195666Y-129146300D01*
X126292428Y-129095500D01*
X126340809Y-129044700D01*
X126389190Y-128943100D01*
X126389190Y-128638300D01*
X126340809Y-128536700D01*
X126292428Y-128485900D01*
X126195666Y-128435100D01*
X126002142Y-128435100D01*
X125905380Y-128485900D01*
X124647476Y-129146300D02*
X124647476Y-128079500D01*
X124647476Y-128485900D02*
X124550714Y-128435100D01*
X124357190Y-128435100D01*
X124260428Y-128485900D01*
X124212047Y-128536700D01*
X124163666Y-128638300D01*
X124163666Y-128943100D01*
X124212047Y-129044700D01*
X124260428Y-129095500D01*
X124357190Y-129146300D01*
X124550714Y-129146300D01*
X124647476Y-129095500D01*
X123825000Y-128435100D02*
X123583095Y-129146300D01*
X123341190Y-128435100D02*
X123583095Y-129146300D01*
X123679857Y-129400300D01*
X123728238Y-129451100D01*
X123825000Y-129501900D01*
X122325190Y-128435100D02*
X121938142Y-128435100D01*
X122180047Y-128079500D02*
X122180047Y-128993900D01*
X122131666Y-129095500D01*
X122034904Y-129146300D01*
X121938142Y-129146300D01*
X121599476Y-129146300D02*
X121599476Y-128079500D01*
X121164047Y-129146300D02*
X121164047Y-128587500D01*
X121212428Y-128485900D01*
X121309190Y-128435100D01*
X121454333Y-128435100D01*
X121551095Y-128485900D01*
X121599476Y-128536700D01*
X120293190Y-129095500D02*
X120389952Y-129146300D01*
X120583476Y-129146300D01*
X120680238Y-129095500D01*
X120728619Y-128993900D01*
X120728619Y-128587500D01*
X120680238Y-128485900D01*
X120583476Y-128435100D01*
X120389952Y-128435100D01*
X120293190Y-128485900D01*
X120244809Y-128587500D01*
X120244809Y-128689100D01*
X120728619Y-128790700D01*
X119035285Y-129146300D02*
X119035285Y-128079500D01*
X118454714Y-129146300D02*
X118890142Y-128536700D01*
X118454714Y-128079500D02*
X119035285Y-128689100D01*
X117874142Y-129146300D02*
X117970904Y-129095500D01*
X118019285Y-128993900D01*
X118019285Y-128079500D01*
X117100047Y-129095500D02*
X117196809Y-129146300D01*
X117390333Y-129146300D01*
X117487095Y-129095500D01*
X117535476Y-128993900D01*
X117535476Y-128587500D01*
X117487095Y-128485900D01*
X117390333Y-128435100D01*
X117196809Y-128435100D01*
X117100047Y-128485900D01*
X117051666Y-128587500D01*
X117051666Y-128689100D01*
X117535476Y-128790700D01*
X116180809Y-129095500D02*
X116277571Y-129146300D01*
X116471095Y-129146300D01*
X116567857Y-129095500D01*
X116616238Y-129044700D01*
X116664619Y-128943100D01*
X116664619Y-128638300D01*
X116616238Y-128536700D01*
X116567857Y-128485900D01*
X116471095Y-128435100D01*
X116277571Y-128435100D01*
X116180809Y-128485900D01*
X115745380Y-129146300D02*
X115745380Y-128079500D01*
X115648619Y-128739900D02*
X115358333Y-129146300D01*
X115358333Y-128435100D02*
X115745380Y-128841500D01*
X114922904Y-128435100D02*
X114922904Y-129146300D01*
X114922904Y-128536700D02*
X114874523Y-128485900D01*
X114777761Y-128435100D01*
X114632619Y-128435100D01*
X114535857Y-128485900D01*
X114487476Y-128587500D01*
X114487476Y-129146300D01*
X113616619Y-129095500D02*
X113713380Y-129146300D01*
X113906904Y-129146300D01*
X114003666Y-129095500D01*
X114052047Y-128993900D01*
X114052047Y-128587500D01*
X114003666Y-128485900D01*
X113906904Y-128435100D01*
X113713380Y-128435100D01*
X113616619Y-128485900D01*
X113568238Y-128587500D01*
X113568238Y-128689100D01*
X114052047Y-128790700D01*
X113132809Y-129146300D02*
X113132809Y-128435100D01*
X113132809Y-128638300D02*
X113084428Y-128536700D01*
X113036047Y-128485900D01*
X112939285Y-128435100D01*
X112842523Y-128435100D01*
X111294333Y-129146300D02*
X111294333Y-128587500D01*
X111342714Y-128485900D01*
X111439476Y-128435100D01*
X111633000Y-128435100D01*
X111729761Y-128485900D01*
X111294333Y-129095500D02*
X111391095Y-129146300D01*
X111633000Y-129146300D01*
X111729761Y-129095500D01*
X111778142Y-128993900D01*
X111778142Y-128892300D01*
X111729761Y-128790700D01*
X111633000Y-128739900D01*
X111391095Y-128739900D01*
X111294333Y-128689100D01*
X110810523Y-128435100D02*
X110810523Y-129146300D01*
X110810523Y-128536700D02*
X110762142Y-128485900D01*
X110665380Y-128435100D01*
X110520238Y-128435100D01*
X110423476Y-128485900D01*
X110375095Y-128587500D01*
X110375095Y-129146300D01*
X109455857Y-129146300D02*
X109455857Y-128079500D01*
X109455857Y-129095500D02*
X109552619Y-129146300D01*
X109746142Y-129146300D01*
X109842904Y-129095500D01*
X109891285Y-129044700D01*
X109939666Y-128943100D01*
X109939666Y-128638300D01*
X109891285Y-128536700D01*
X109842904Y-128485900D01*
X109746142Y-128435100D01*
X109552619Y-128435100D01*
X109455857Y-128485900D01*
X130574142Y-130898900D02*
X130574142Y-129832100D01*
X130235476Y-130594100D01*
X129896809Y-129832100D01*
X129896809Y-130898900D01*
X129413000Y-129832100D02*
X129413000Y-130695700D01*
X129364619Y-130797300D01*
X129316238Y-130848100D01*
X129219476Y-130898900D01*
X129025952Y-130898900D01*
X128929190Y-130848100D01*
X128880809Y-130797300D01*
X128832428Y-130695700D01*
X128832428Y-129832100D01*
X128493761Y-129832100D02*
X128155095Y-130898900D01*
X127816428Y-129832100D01*
X127477761Y-130898900D02*
X127477761Y-129832100D01*
X125736047Y-130898900D02*
X126219857Y-130898900D01*
X126219857Y-129832100D01*
X124961952Y-130898900D02*
X124961952Y-130340100D01*
X125010333Y-130238500D01*
X125107095Y-130187700D01*
X125300619Y-130187700D01*
X125397380Y-130238500D01*
X124961952Y-130848100D02*
X125058714Y-130898900D01*
X125300619Y-130898900D01*
X125397380Y-130848100D01*
X125445761Y-130746500D01*
X125445761Y-130644900D01*
X125397380Y-130543300D01*
X125300619Y-130492500D01*
X125058714Y-130492500D01*
X124961952Y-130441700D01*
X124478142Y-130898900D02*
X124478142Y-129832100D01*
X124478142Y-130238500D02*
X124381380Y-130187700D01*
X124187857Y-130187700D01*
X124091095Y-130238500D01*
X124042714Y-130289300D01*
X123994333Y-130390900D01*
X123994333Y-130695700D01*
X124042714Y-130797300D01*
X124091095Y-130848100D01*
X124187857Y-130898900D01*
X124381380Y-130898900D01*
X124478142Y-130848100D01*
X123607285Y-130848100D02*
X123510523Y-130898900D01*
X123317000Y-130898900D01*
X123220238Y-130848100D01*
X123171857Y-130746500D01*
X123171857Y-130695700D01*
X123220238Y-130594100D01*
X123317000Y-130543300D01*
X123462142Y-130543300D01*
X123558904Y-130492500D01*
X123607285Y-130390900D01*
X123607285Y-130340100D01*
X123558904Y-130238500D01*
X123462142Y-130187700D01*
X123317000Y-130187700D01*
X123220238Y-130238500D01*
X121526904Y-130898900D02*
X121526904Y-130340100D01*
X121575285Y-130238500D01*
X121672047Y-130187700D01*
X121865571Y-130187700D01*
X121962333Y-130238500D01*
X121526904Y-130848100D02*
X121623666Y-130898900D01*
X121865571Y-130898900D01*
X121962333Y-130848100D01*
X122010714Y-130746500D01*
X122010714Y-130644900D01*
X121962333Y-130543300D01*
X121865571Y-130492500D01*
X121623666Y-130492500D01*
X121526904Y-130441700D01*
X121188238Y-130187700D02*
X120801190Y-130187700D01*
X121043095Y-129832100D02*
X121043095Y-130746500D01*
X120994714Y-130848100D01*
X120897952Y-130898900D01*
X120801190Y-130898900D01*
X119688428Y-129832100D02*
X119688428Y-130695700D01*
X119640047Y-130797300D01*
X119591666Y-130848100D01*
X119494904Y-130898900D01*
X119301380Y-130898900D01*
X119204619Y-130848100D01*
X119156238Y-130797300D01*
X119107857Y-130695700D01*
X119107857Y-129832100D01*
X118043476Y-130797300D02*
X118091857Y-130848100D01*
X118237000Y-130898900D01*
X118333761Y-130898900D01*
X118478904Y-130848100D01*
X118575666Y-130746500D01*
X118624047Y-130644900D01*
X118672428Y-130441700D01*
X118672428Y-130289300D01*
X118624047Y-130086100D01*
X118575666Y-129984500D01*
X118478904Y-129882900D01*
X118333761Y-129832100D01*
X118237000Y-129832100D01*
X118091857Y-129882900D01*
X118043476Y-129933700D01*
X116833952Y-130898900D02*
X116833952Y-129832100D01*
X116495285Y-130594100D01*
X116156619Y-129832100D01*
X116156619Y-130898900D01*
X115285761Y-130848100D02*
X115382523Y-130898900D01*
X115576047Y-130898900D01*
X115672809Y-130848100D01*
X115721190Y-130746500D01*
X115721190Y-130340100D01*
X115672809Y-130238500D01*
X115576047Y-130187700D01*
X115382523Y-130187700D01*
X115285761Y-130238500D01*
X115237380Y-130340100D01*
X115237380Y-130441700D01*
X115721190Y-130543300D01*
X114801952Y-130898900D02*
X114801952Y-130187700D01*
X114801952Y-130390900D02*
X114753571Y-130289300D01*
X114705190Y-130238500D01*
X114608428Y-130187700D01*
X114511666Y-130187700D01*
X113737571Y-130848100D02*
X113834333Y-130898900D01*
X114027857Y-130898900D01*
X114124619Y-130848100D01*
X114173000Y-130797300D01*
X114221380Y-130695700D01*
X114221380Y-130390900D01*
X114173000Y-130289300D01*
X114124619Y-130238500D01*
X114027857Y-130187700D01*
X113834333Y-130187700D01*
X113737571Y-130238500D01*
X112915095Y-130848100D02*
X113011857Y-130898900D01*
X113205380Y-130898900D01*
X113302142Y-130848100D01*
X113350523Y-130746500D01*
X113350523Y-130340100D01*
X113302142Y-130238500D01*
X113205380Y-130187700D01*
X113011857Y-130187700D01*
X112915095Y-130238500D01*
X112866714Y-130340100D01*
X112866714Y-130441700D01*
X113350523Y-130543300D01*
X111995857Y-130898900D02*
X111995857Y-129832100D01*
X111995857Y-130848100D02*
X112092619Y-130898900D01*
X112286142Y-130898900D01*
X112382904Y-130848100D01*
X112431285Y-130797300D01*
X112479666Y-130695700D01*
X112479666Y-130390900D01*
X112431285Y-130289300D01*
X112382904Y-130238500D01*
X112286142Y-130187700D01*
X112092619Y-130187700D01*
X111995857Y-130238500D01*
X133428619Y-131940300D02*
X133041571Y-131940300D01*
X133283476Y-132651500D02*
X133283476Y-131737100D01*
X133235095Y-131635500D01*
X133138333Y-131584700D01*
X133041571Y-131584700D01*
X132267476Y-132651500D02*
X132267476Y-132092700D01*
X132315857Y-131991100D01*
X132412619Y-131940300D01*
X132606142Y-131940300D01*
X132702904Y-131991100D01*
X132267476Y-132600700D02*
X132364238Y-132651500D01*
X132606142Y-132651500D01*
X132702904Y-132600700D01*
X132751285Y-132499100D01*
X132751285Y-132397500D01*
X132702904Y-132295900D01*
X132606142Y-132245100D01*
X132364238Y-132245100D01*
X132267476Y-132194300D01*
X131348238Y-132600700D02*
X131445000Y-132651500D01*
X131638523Y-132651500D01*
X131735285Y-132600700D01*
X131783666Y-132549900D01*
X131832047Y-132448300D01*
X131832047Y-132143500D01*
X131783666Y-132041900D01*
X131735285Y-131991100D01*
X131638523Y-131940300D01*
X131445000Y-131940300D01*
X131348238Y-131991100D01*
X130477380Y-131940300D02*
X130477380Y-132651500D01*
X130912809Y-131940300D02*
X130912809Y-132499100D01*
X130864428Y-132600700D01*
X130767666Y-132651500D01*
X130622523Y-132651500D01*
X130525761Y-132600700D01*
X130477380Y-132549900D01*
X129848428Y-132651500D02*
X129945190Y-132600700D01*
X129993571Y-132499100D01*
X129993571Y-131584700D01*
X129606523Y-131940300D02*
X129219476Y-131940300D01*
X129461380Y-131584700D02*
X129461380Y-132499100D01*
X129413000Y-132600700D01*
X129316238Y-132651500D01*
X129219476Y-132651500D01*
X128977571Y-131940300D02*
X128735666Y-132651500D01*
X128493761Y-131940300D02*
X128735666Y-132651500D01*
X128832428Y-132905500D01*
X128880809Y-132956300D01*
X128977571Y-133007100D01*
X128106714Y-132549900D02*
X128058333Y-132600700D01*
X128106714Y-132651500D01*
X128155095Y-132600700D01*
X128106714Y-132549900D01*
X128106714Y-132651500D01*
X127187476Y-131940300D02*
X127187476Y-132651500D01*
X127622904Y-131940300D02*
X127622904Y-132499100D01*
X127574523Y-132600700D01*
X127477761Y-132651500D01*
X127332619Y-132651500D01*
X127235857Y-132600700D01*
X127187476Y-132549900D01*
X126268238Y-132600700D02*
X126365000Y-132651500D01*
X126558523Y-132651500D01*
X126655285Y-132600700D01*
X126703666Y-132549900D01*
X126752047Y-132448300D01*
X126752047Y-132143500D01*
X126703666Y-132041900D01*
X126655285Y-131991100D01*
X126558523Y-131940300D01*
X126365000Y-131940300D01*
X126268238Y-131991100D01*
X125832809Y-132651500D02*
X125832809Y-131940300D01*
X125832809Y-132041900D02*
X125784428Y-131991100D01*
X125687666Y-131940300D01*
X125542523Y-131940300D01*
X125445761Y-131991100D01*
X125397380Y-132092700D01*
X125397380Y-132651500D01*
X125397380Y-132092700D02*
X125349000Y-131991100D01*
X125252238Y-131940300D01*
X125107095Y-131940300D01*
X125010333Y-131991100D01*
X124961952Y-132092700D01*
X124961952Y-132651500D01*
X124091095Y-132600700D02*
X124187857Y-132651500D01*
X124381380Y-132651500D01*
X124478142Y-132600700D01*
X124526523Y-132499100D01*
X124526523Y-132092700D01*
X124478142Y-131991100D01*
X124381380Y-131940300D01*
X124187857Y-131940300D01*
X124091095Y-131991100D01*
X124042714Y-132092700D01*
X124042714Y-132194300D01*
X124526523Y-132295900D01*
X123607285Y-132651500D02*
X123607285Y-131940300D01*
X123607285Y-132143500D02*
X123558904Y-132041900D01*
X123510523Y-131991100D01*
X123413761Y-131940300D01*
X123317000Y-131940300D01*
X122542904Y-132600700D02*
X122639666Y-132651500D01*
X122833190Y-132651500D01*
X122929952Y-132600700D01*
X122978333Y-132549900D01*
X123026714Y-132448300D01*
X123026714Y-132143500D01*
X122978333Y-132041900D01*
X122929952Y-131991100D01*
X122833190Y-131940300D01*
X122639666Y-131940300D01*
X122542904Y-131991100D01*
X121720428Y-132600700D02*
X121817190Y-132651500D01*
X122010714Y-132651500D01*
X122107476Y-132600700D01*
X122155857Y-132499100D01*
X122155857Y-132092700D01*
X122107476Y-131991100D01*
X122010714Y-131940300D01*
X121817190Y-131940300D01*
X121720428Y-131991100D01*
X121672047Y-132092700D01*
X121672047Y-132194300D01*
X122155857Y-132295900D01*
X120801190Y-132651500D02*
X120801190Y-131584700D01*
X120801190Y-132600700D02*
X120897952Y-132651500D01*
X121091476Y-132651500D01*
X121188238Y-132600700D01*
X121236619Y-132549900D01*
X121285000Y-132448300D01*
X121285000Y-132143500D01*
X121236619Y-132041900D01*
X121188238Y-131991100D01*
X121091476Y-131940300D01*
X120897952Y-131940300D01*
X120801190Y-131991100D01*
X120317380Y-132549900D02*
X120269000Y-132600700D01*
X120317380Y-132651500D01*
X120365761Y-132600700D01*
X120317380Y-132549900D01*
X120317380Y-132651500D01*
X119446523Y-132600700D02*
X119543285Y-132651500D01*
X119736809Y-132651500D01*
X119833571Y-132600700D01*
X119881952Y-132499100D01*
X119881952Y-132092700D01*
X119833571Y-131991100D01*
X119736809Y-131940300D01*
X119543285Y-131940300D01*
X119446523Y-131991100D01*
X119398142Y-132092700D01*
X119398142Y-132194300D01*
X119881952Y-132295900D01*
X118527285Y-132651500D02*
X118527285Y-131584700D01*
X118527285Y-132600700D02*
X118624047Y-132651500D01*
X118817571Y-132651500D01*
X118914333Y-132600700D01*
X118962714Y-132549900D01*
X119011095Y-132448300D01*
X119011095Y-132143500D01*
X118962714Y-132041900D01*
X118914333Y-131991100D01*
X118817571Y-131940300D01*
X118624047Y-131940300D01*
X118527285Y-131991100D01*
X117608047Y-131940300D02*
X117608047Y-132651500D01*
X118043476Y-131940300D02*
X118043476Y-132499100D01*
X117995095Y-132600700D01*
X117898333Y-132651500D01*
X117753190Y-132651500D01*
X117656428Y-132600700D01*
X117608047Y-132549900D01*
X116398523Y-131533900D02*
X117269380Y-132905500D01*
X115624428Y-132651500D02*
X115624428Y-131584700D01*
X115624428Y-132600700D02*
X115721190Y-132651500D01*
X115914714Y-132651500D01*
X116011476Y-132600700D01*
X116059857Y-132549900D01*
X116108238Y-132448300D01*
X116108238Y-132143500D01*
X116059857Y-132041900D01*
X116011476Y-131991100D01*
X115914714Y-131940300D01*
X115721190Y-131940300D01*
X115624428Y-131991100D01*
X115140619Y-132651500D02*
X115140619Y-131584700D01*
X115043857Y-132245100D02*
X114753571Y-132651500D01*
X114753571Y-131940300D02*
X115140619Y-132346700D01*
X114173000Y-132651500D02*
X114269761Y-132600700D01*
X114318142Y-132499100D01*
X114318142Y-131584700D01*
X113398904Y-132600700D02*
X113495666Y-132651500D01*
X113689190Y-132651500D01*
X113785952Y-132600700D01*
X113834333Y-132499100D01*
X113834333Y-132092700D01*
X113785952Y-131991100D01*
X113689190Y-131940300D01*
X113495666Y-131940300D01*
X113398904Y-131991100D01*
X113350523Y-132092700D01*
X113350523Y-132194300D01*
X113834333Y-132295900D01*
X112479666Y-132600700D02*
X112576428Y-132651500D01*
X112769952Y-132651500D01*
X112866714Y-132600700D01*
X112915095Y-132549900D01*
X112963476Y-132448300D01*
X112963476Y-132143500D01*
X112915095Y-132041900D01*
X112866714Y-131991100D01*
X112769952Y-131940300D01*
X112576428Y-131940300D01*
X112479666Y-131991100D01*
X112044238Y-132651500D02*
X112044238Y-131584700D01*
X111947476Y-132245100D02*
X111657190Y-132651500D01*
X111657190Y-131940300D02*
X112044238Y-132346700D01*
X111221761Y-131940300D02*
X111221761Y-132651500D01*
X111221761Y-132041900D02*
X111173380Y-131991100D01*
X111076619Y-131940300D01*
X110931476Y-131940300D01*
X110834714Y-131991100D01*
X110786333Y-132092700D01*
X110786333Y-132651500D01*
X109915476Y-132600700D02*
X110012238Y-132651500D01*
X110205761Y-132651500D01*
X110302523Y-132600700D01*
X110350904Y-132499100D01*
X110350904Y-132092700D01*
X110302523Y-131991100D01*
X110205761Y-131940300D01*
X110012238Y-131940300D01*
X109915476Y-131991100D01*
X109867095Y-132092700D01*
X109867095Y-132194300D01*
X110350904Y-132295900D01*
X109431666Y-132651500D02*
X109431666Y-131940300D01*
X109431666Y-132143500D02*
X109383285Y-132041900D01*
X109334904Y-131991100D01*
X109238142Y-131940300D01*
X109141380Y-131940300D01*
X128300238Y-134404100D02*
X128300238Y-133692900D01*
X128300238Y-133794500D02*
X128251857Y-133743700D01*
X128155095Y-133692900D01*
X128009952Y-133692900D01*
X127913190Y-133743700D01*
X127864809Y-133845300D01*
X127864809Y-134404100D01*
X127864809Y-133845300D02*
X127816428Y-133743700D01*
X127719666Y-133692900D01*
X127574523Y-133692900D01*
X127477761Y-133743700D01*
X127429380Y-133845300D01*
X127429380Y-134404100D01*
X126510142Y-133692900D02*
X126510142Y-134404100D01*
X126945571Y-133692900D02*
X126945571Y-134251700D01*
X126897190Y-134353300D01*
X126800428Y-134404100D01*
X126655285Y-134404100D01*
X126558523Y-134353300D01*
X126510142Y-134302500D01*
X126123095Y-133692900D02*
X125881190Y-134404100D01*
X125639285Y-133692900D01*
X125252238Y-134404100D02*
X125252238Y-133692900D01*
X125252238Y-133337300D02*
X125300619Y-133388100D01*
X125252238Y-133438900D01*
X125203857Y-133388100D01*
X125252238Y-133337300D01*
X125252238Y-133438900D01*
X124768428Y-134302500D02*
X124720047Y-134353300D01*
X124768428Y-134404100D01*
X124816809Y-134353300D01*
X124768428Y-134302500D01*
X124768428Y-134404100D01*
X123849190Y-133692900D02*
X123849190Y-134404100D01*
X124284619Y-133692900D02*
X124284619Y-134251700D01*
X124236238Y-134353300D01*
X124139476Y-134404100D01*
X123994333Y-134404100D01*
X123897571Y-134353300D01*
X123849190Y-134302500D01*
X122929952Y-134353300D02*
X123026714Y-134404100D01*
X123220238Y-134404100D01*
X123317000Y-134353300D01*
X123365380Y-134302500D01*
X123413761Y-134200900D01*
X123413761Y-133896100D01*
X123365380Y-133794500D01*
X123317000Y-133743700D01*
X123220238Y-133692900D01*
X123026714Y-133692900D01*
X122929952Y-133743700D01*
X122494523Y-134404100D02*
X122494523Y-133692900D01*
X122494523Y-133794500D02*
X122446142Y-133743700D01*
X122349380Y-133692900D01*
X122204238Y-133692900D01*
X122107476Y-133743700D01*
X122059095Y-133845300D01*
X122059095Y-134404100D01*
X122059095Y-133845300D02*
X122010714Y-133743700D01*
X121913952Y-133692900D01*
X121768809Y-133692900D01*
X121672047Y-133743700D01*
X121623666Y-133845300D01*
X121623666Y-134404100D01*
X120752809Y-134353300D02*
X120849571Y-134404100D01*
X121043095Y-134404100D01*
X121139857Y-134353300D01*
X121188238Y-134251700D01*
X121188238Y-133845300D01*
X121139857Y-133743700D01*
X121043095Y-133692900D01*
X120849571Y-133692900D01*
X120752809Y-133743700D01*
X120704428Y-133845300D01*
X120704428Y-133946900D01*
X121188238Y-134048500D01*
X120269000Y-134404100D02*
X120269000Y-133692900D01*
X120269000Y-133896100D02*
X120220619Y-133794500D01*
X120172238Y-133743700D01*
X120075476Y-133692900D01*
X119978714Y-133692900D01*
X119204619Y-134353300D02*
X119301380Y-134404100D01*
X119494904Y-134404100D01*
X119591666Y-134353300D01*
X119640047Y-134302500D01*
X119688428Y-134200900D01*
X119688428Y-133896100D01*
X119640047Y-133794500D01*
X119591666Y-133743700D01*
X119494904Y-133692900D01*
X119301380Y-133692900D01*
X119204619Y-133743700D01*
X118382142Y-134353300D02*
X118478904Y-134404100D01*
X118672428Y-134404100D01*
X118769190Y-134353300D01*
X118817571Y-134251700D01*
X118817571Y-133845300D01*
X118769190Y-133743700D01*
X118672428Y-133692900D01*
X118478904Y-133692900D01*
X118382142Y-133743700D01*
X118333761Y-133845300D01*
X118333761Y-133946900D01*
X118817571Y-134048500D01*
X117462904Y-134404100D02*
X117462904Y-133337300D01*
X117462904Y-134353300D02*
X117559666Y-134404100D01*
X117753190Y-134404100D01*
X117849952Y-134353300D01*
X117898333Y-134302500D01*
X117946714Y-134200900D01*
X117946714Y-133896100D01*
X117898333Y-133794500D01*
X117849952Y-133743700D01*
X117753190Y-133692900D01*
X117559666Y-133692900D01*
X117462904Y-133743700D01*
X116979095Y-134302500D02*
X116930714Y-134353300D01*
X116979095Y-134404100D01*
X117027476Y-134353300D01*
X116979095Y-134302500D01*
X116979095Y-134404100D01*
X116108238Y-134353300D02*
X116205000Y-134404100D01*
X116398523Y-134404100D01*
X116495285Y-134353300D01*
X116543666Y-134251700D01*
X116543666Y-133845300D01*
X116495285Y-133743700D01*
X116398523Y-133692900D01*
X116205000Y-133692900D01*
X116108238Y-133743700D01*
X116059857Y-133845300D01*
X116059857Y-133946900D01*
X116543666Y-134048500D01*
X115189000Y-134404100D02*
X115189000Y-133337300D01*
X115189000Y-134353300D02*
X115285761Y-134404100D01*
X115479285Y-134404100D01*
X115576047Y-134353300D01*
X115624428Y-134302500D01*
X115672809Y-134200900D01*
X115672809Y-133896100D01*
X115624428Y-133794500D01*
X115576047Y-133743700D01*
X115479285Y-133692900D01*
X115285761Y-133692900D01*
X115189000Y-133743700D01*
X114269761Y-133692900D02*
X114269761Y-134404100D01*
X114705190Y-133692900D02*
X114705190Y-134251700D01*
X114656809Y-134353300D01*
X114560047Y-134404100D01*
X114414904Y-134404100D01*
X114318142Y-134353300D01*
X114269761Y-134302500D01*
D10*
X96165000Y-119792619D02*
X96165000Y-118649761D01*
X95797619Y-119649761D02*
X94797619Y-119411666D01*
X95511904Y-119221190D01*
X94797619Y-119030714D01*
X95797619Y-118792619D01*
X96165000Y-118649761D02*
X96165000Y-117697380D01*
X94845238Y-118459285D02*
X94797619Y-118316428D01*
X94797619Y-118078333D01*
X94845238Y-117983095D01*
X94892857Y-117935476D01*
X94988095Y-117887857D01*
X95083333Y-117887857D01*
X95178571Y-117935476D01*
X95226190Y-117983095D01*
X95273809Y-118078333D01*
X95321428Y-118268809D01*
X95369047Y-118364047D01*
X95416666Y-118411666D01*
X95511904Y-118459285D01*
X95607142Y-118459285D01*
X95702380Y-118411666D01*
X95750000Y-118364047D01*
X95797619Y-118268809D01*
X95797619Y-118030714D01*
X95750000Y-117887857D01*
X94845238Y-116990714D02*
X94797619Y-116847857D01*
X94797619Y-116609761D01*
X94845238Y-116514523D01*
X94892857Y-116466904D01*
X94988095Y-116419285D01*
X95083333Y-116419285D01*
X95178571Y-116466904D01*
X95226190Y-116514523D01*
X95273809Y-116609761D01*
X95321428Y-116800238D01*
X95369047Y-116895476D01*
X95416666Y-116943095D01*
X95511904Y-116990714D01*
X95607142Y-116990714D01*
X95702380Y-116943095D01*
X95750000Y-116895476D01*
X95797619Y-116800238D01*
X95797619Y-116562142D01*
X95750000Y-116419285D01*
X94797619Y-115990714D02*
X95797619Y-115990714D01*
X95797619Y-115752619D01*
X95750000Y-115609761D01*
X95654761Y-115514523D01*
X95559523Y-115466904D01*
X95369047Y-115419285D01*
X95226190Y-115419285D01*
X95035714Y-115466904D01*
X94940476Y-115514523D01*
X94845238Y-115609761D01*
X94797619Y-115752619D01*
X94797619Y-115990714D01*
X94845238Y-114644714D02*
X94797619Y-114535857D01*
X94797619Y-114354428D01*
X94845238Y-114281857D01*
X94892857Y-114245571D01*
X94988095Y-114209285D01*
X95083333Y-114209285D01*
X95178571Y-114245571D01*
X95226190Y-114281857D01*
X95273809Y-114354428D01*
X95321428Y-114499571D01*
X95369047Y-114572142D01*
X95416666Y-114608428D01*
X95511904Y-114644714D01*
X95607142Y-114644714D01*
X95702380Y-114608428D01*
X95750000Y-114572142D01*
X95797619Y-114499571D01*
X95797619Y-114318142D01*
X95750000Y-114209285D01*
X94892857Y-113447285D02*
X94845238Y-113483571D01*
X94797619Y-113592428D01*
X94797619Y-113665000D01*
X94845238Y-113773857D01*
X94940476Y-113846428D01*
X95035714Y-113882714D01*
X95226190Y-113919000D01*
X95369047Y-113919000D01*
X95559523Y-113882714D01*
X95654761Y-113846428D01*
X95750000Y-113773857D01*
X95797619Y-113665000D01*
X95797619Y-113592428D01*
X95750000Y-113483571D01*
X95702380Y-113447285D01*
X94797619Y-113120714D02*
X95797619Y-113120714D01*
X94797619Y-112685285D02*
X95369047Y-113011857D01*
X95797619Y-112685285D02*
X95226190Y-113120714D01*
X95797619Y-112029761D02*
X94797619Y-111791666D01*
X95511904Y-111601190D01*
X94797619Y-111410714D01*
X95797619Y-111172619D01*
X94845238Y-110839285D02*
X94797619Y-110696428D01*
X94797619Y-110458333D01*
X94845238Y-110363095D01*
X94892857Y-110315476D01*
X94988095Y-110267857D01*
X95083333Y-110267857D01*
X95178571Y-110315476D01*
X95226190Y-110363095D01*
X95273809Y-110458333D01*
X95321428Y-110648809D01*
X95369047Y-110744047D01*
X95416666Y-110791666D01*
X95511904Y-110839285D01*
X95607142Y-110839285D01*
X95702380Y-110791666D01*
X95750000Y-110744047D01*
X95797619Y-110648809D01*
X95797619Y-110410714D01*
X95750000Y-110267857D01*
X121848571Y-100186904D02*
X121848571Y-99425000D01*
X121467619Y-98425000D02*
X121467619Y-98996428D01*
X121467619Y-98710714D02*
X122467619Y-98710714D01*
X122324761Y-98805952D01*
X122229523Y-98901190D01*
X122181904Y-98996428D01*
X122372380Y-98044047D02*
X122420000Y-97996428D01*
X122467619Y-97901190D01*
X122467619Y-97663095D01*
X122420000Y-97567857D01*
X122372380Y-97520238D01*
X122277142Y-97472619D01*
X122181904Y-97472619D01*
X122039047Y-97520238D01*
X121467619Y-98091666D01*
X121467619Y-97472619D01*
X122467619Y-97186904D02*
X121467619Y-96853571D01*
X122467619Y-96520238D01*
X116768571Y-100186904D02*
X116768571Y-99425000D01*
X116387619Y-99805952D02*
X117149523Y-99805952D01*
X116387619Y-98425000D02*
X116387619Y-98996428D01*
X116387619Y-98710714D02*
X117387619Y-98710714D01*
X117244761Y-98805952D01*
X117149523Y-98901190D01*
X117101904Y-98996428D01*
X117292380Y-98044047D02*
X117340000Y-97996428D01*
X117387619Y-97901190D01*
X117387619Y-97663095D01*
X117340000Y-97567857D01*
X117292380Y-97520238D01*
X117197142Y-97472619D01*
X117101904Y-97472619D01*
X116959047Y-97520238D01*
X116387619Y-98091666D01*
X116387619Y-97472619D01*
X117387619Y-97186904D02*
X116387619Y-96853571D01*
X117387619Y-96520238D01*
X84400571Y-131580000D02*
X84473142Y-131532380D01*
X84582000Y-131532380D01*
X84690857Y-131580000D01*
X84763428Y-131675238D01*
X84799714Y-131770476D01*
X84836000Y-131960952D01*
X84836000Y-132103809D01*
X84799714Y-132294285D01*
X84763428Y-132389523D01*
X84690857Y-132484761D01*
X84582000Y-132532380D01*
X84509428Y-132532380D01*
X84400571Y-132484761D01*
X84364285Y-132437142D01*
X84364285Y-132103809D01*
X84509428Y-132103809D01*
X84037714Y-132532380D02*
X84037714Y-131532380D01*
X83602285Y-132532380D01*
X83602285Y-131532380D01*
X83239428Y-132532380D02*
X83239428Y-131532380D01*
X83058000Y-131532380D01*
X82949142Y-131580000D01*
X82876571Y-131675238D01*
X82840285Y-131770476D01*
X82804000Y-131960952D01*
X82804000Y-132103809D01*
X82840285Y-132294285D01*
X82876571Y-132389523D01*
X82949142Y-132484761D01*
X83058000Y-132532380D01*
X83239428Y-132532380D01*
X84944857Y-139152380D02*
X84473142Y-139152380D01*
X84727142Y-139533333D01*
X84618285Y-139533333D01*
X84545714Y-139580952D01*
X84509428Y-139628571D01*
X84473142Y-139723809D01*
X84473142Y-139961904D01*
X84509428Y-140057142D01*
X84545714Y-140104761D01*
X84618285Y-140152380D01*
X84836000Y-140152380D01*
X84908571Y-140104761D01*
X84944857Y-140057142D01*
X84146571Y-140057142D02*
X84110285Y-140104761D01*
X84146571Y-140152380D01*
X84182857Y-140104761D01*
X84146571Y-140057142D01*
X84146571Y-140152380D01*
X83856285Y-139152380D02*
X83384571Y-139152380D01*
X83638571Y-139533333D01*
X83529714Y-139533333D01*
X83457142Y-139580952D01*
X83420857Y-139628571D01*
X83384571Y-139723809D01*
X83384571Y-139961904D01*
X83420857Y-140057142D01*
X83457142Y-140104761D01*
X83529714Y-140152380D01*
X83747428Y-140152380D01*
X83820000Y-140104761D01*
X83856285Y-140057142D01*
X83166857Y-139152380D02*
X82912857Y-140152380D01*
X82658857Y-139152380D01*
X86849857Y-140152380D02*
X87103857Y-139676190D01*
X87285285Y-140152380D02*
X87285285Y-139152380D01*
X86995000Y-139152380D01*
X86922428Y-139200000D01*
X86886142Y-139247619D01*
X86849857Y-139342857D01*
X86849857Y-139485714D01*
X86886142Y-139580952D01*
X86922428Y-139628571D01*
X86995000Y-139676190D01*
X87285285Y-139676190D01*
X86595857Y-139152380D02*
X86087857Y-140152380D01*
X86087857Y-139152380D02*
X86595857Y-140152380D01*
X85652428Y-139152380D02*
X85579857Y-139152380D01*
X85507285Y-139200000D01*
X85471000Y-139247619D01*
X85434714Y-139342857D01*
X85398428Y-139533333D01*
X85398428Y-139771428D01*
X85434714Y-139961904D01*
X85471000Y-140057142D01*
X85507285Y-140104761D01*
X85579857Y-140152380D01*
X85652428Y-140152380D01*
X85725000Y-140104761D01*
X85761285Y-140057142D01*
X85797571Y-139961904D01*
X85833857Y-139771428D01*
X85833857Y-139533333D01*
X85797571Y-139342857D01*
X85761285Y-139247619D01*
X85725000Y-139200000D01*
X85652428Y-139152380D01*
X89317285Y-140152380D02*
X89571285Y-139676190D01*
X89752714Y-140152380D02*
X89752714Y-139152380D01*
X89462428Y-139152380D01*
X89389857Y-139200000D01*
X89353571Y-139247619D01*
X89317285Y-139342857D01*
X89317285Y-139485714D01*
X89353571Y-139580952D01*
X89389857Y-139628571D01*
X89462428Y-139676190D01*
X89752714Y-139676190D01*
X89027000Y-140104761D02*
X88918142Y-140152380D01*
X88736714Y-140152380D01*
X88664142Y-140104761D01*
X88627857Y-140057142D01*
X88591571Y-139961904D01*
X88591571Y-139866666D01*
X88627857Y-139771428D01*
X88664142Y-139723809D01*
X88736714Y-139676190D01*
X88881857Y-139628571D01*
X88954428Y-139580952D01*
X88990714Y-139533333D01*
X89027000Y-139438095D01*
X89027000Y-139342857D01*
X88990714Y-139247619D01*
X88954428Y-139200000D01*
X88881857Y-139152380D01*
X88700428Y-139152380D01*
X88591571Y-139200000D01*
X88373857Y-139152380D02*
X87938428Y-139152380D01*
X88156142Y-140152380D02*
X88156142Y-139152380D01*
X87303428Y-131532380D02*
X86868000Y-131532380D01*
X87085714Y-132532380D02*
X87085714Y-131532380D01*
X86686571Y-131532380D02*
X86178571Y-132532380D01*
X86178571Y-131532380D02*
X86686571Y-132532380D01*
X85743142Y-131532380D02*
X85670571Y-131532380D01*
X85598000Y-131580000D01*
X85561714Y-131627619D01*
X85525428Y-131722857D01*
X85489142Y-131913333D01*
X85489142Y-132151428D01*
X85525428Y-132341904D01*
X85561714Y-132437142D01*
X85598000Y-132484761D01*
X85670571Y-132532380D01*
X85743142Y-132532380D01*
X85815714Y-132484761D01*
X85852000Y-132437142D01*
X85888285Y-132341904D01*
X85924571Y-132151428D01*
X85924571Y-131913333D01*
X85888285Y-131722857D01*
X85852000Y-131627619D01*
X85815714Y-131580000D01*
X85743142Y-131532380D01*
X88947619Y-131532380D02*
X88852380Y-131532380D01*
X88757142Y-131580000D01*
X88709523Y-131627619D01*
X88661904Y-131722857D01*
X88614285Y-131913333D01*
X88614285Y-132151428D01*
X88661904Y-132341904D01*
X88709523Y-132437142D01*
X88757142Y-132484761D01*
X88852380Y-132532380D01*
X88947619Y-132532380D01*
X89042857Y-132484761D01*
X89090476Y-132437142D01*
X89138095Y-132341904D01*
X89185714Y-132151428D01*
X89185714Y-131913333D01*
X89138095Y-131722857D01*
X89090476Y-131627619D01*
X89042857Y-131580000D01*
X88947619Y-131532380D01*
X92201904Y-131627619D02*
X92154285Y-131580000D01*
X92059047Y-131532380D01*
X91820952Y-131532380D01*
X91725714Y-131580000D01*
X91678095Y-131627619D01*
X91630476Y-131722857D01*
X91630476Y-131818095D01*
X91678095Y-131960952D01*
X92249523Y-132532380D01*
X91630476Y-132532380D01*
X90773333Y-131532380D02*
X90963809Y-131532380D01*
X91059047Y-131580000D01*
X91106666Y-131627619D01*
X91201904Y-131770476D01*
X91249523Y-131960952D01*
X91249523Y-132341904D01*
X91201904Y-132437142D01*
X91154285Y-132484761D01*
X91059047Y-132532380D01*
X90868571Y-132532380D01*
X90773333Y-132484761D01*
X90725714Y-132437142D01*
X90678095Y-132341904D01*
X90678095Y-132103809D01*
X90725714Y-132008571D01*
X90773333Y-131960952D01*
X90868571Y-131913333D01*
X91059047Y-131913333D01*
X91154285Y-131960952D01*
X91201904Y-132008571D01*
X91249523Y-132103809D01*
X92201904Y-139247619D02*
X92154285Y-139200000D01*
X92059047Y-139152380D01*
X91820952Y-139152380D01*
X91725714Y-139200000D01*
X91678095Y-139247619D01*
X91630476Y-139342857D01*
X91630476Y-139438095D01*
X91678095Y-139580952D01*
X92249523Y-140152380D01*
X91630476Y-140152380D01*
X90725714Y-139152380D02*
X91201904Y-139152380D01*
X91249523Y-139628571D01*
X91201904Y-139580952D01*
X91106666Y-139533333D01*
X90868571Y-139533333D01*
X90773333Y-139580952D01*
X90725714Y-139628571D01*
X90678095Y-139723809D01*
X90678095Y-139961904D01*
X90725714Y-140057142D01*
X90773333Y-140104761D01*
X90868571Y-140152380D01*
X91106666Y-140152380D01*
X91201904Y-140104761D01*
X91249523Y-140057142D01*
X94789523Y-139152380D02*
X94170476Y-139152380D01*
X94503809Y-139533333D01*
X94360952Y-139533333D01*
X94265714Y-139580952D01*
X94218095Y-139628571D01*
X94170476Y-139723809D01*
X94170476Y-139961904D01*
X94218095Y-140057142D01*
X94265714Y-140104761D01*
X94360952Y-140152380D01*
X94646666Y-140152380D01*
X94741904Y-140104761D01*
X94789523Y-140057142D01*
X93313333Y-139152380D02*
X93503809Y-139152380D01*
X93599047Y-139200000D01*
X93646666Y-139247619D01*
X93741904Y-139390476D01*
X93789523Y-139580952D01*
X93789523Y-139961904D01*
X93741904Y-140057142D01*
X93694285Y-140104761D01*
X93599047Y-140152380D01*
X93408571Y-140152380D01*
X93313333Y-140104761D01*
X93265714Y-140057142D01*
X93218095Y-139961904D01*
X93218095Y-139723809D01*
X93265714Y-139628571D01*
X93313333Y-139580952D01*
X93408571Y-139533333D01*
X93599047Y-139533333D01*
X93694285Y-139580952D01*
X93741904Y-139628571D01*
X93789523Y-139723809D01*
X94789523Y-131532380D02*
X94170476Y-131532380D01*
X94503809Y-131913333D01*
X94360952Y-131913333D01*
X94265714Y-131960952D01*
X94218095Y-132008571D01*
X94170476Y-132103809D01*
X94170476Y-132341904D01*
X94218095Y-132437142D01*
X94265714Y-132484761D01*
X94360952Y-132532380D01*
X94646666Y-132532380D01*
X94741904Y-132484761D01*
X94789523Y-132437142D01*
X93694285Y-132532380D02*
X93503809Y-132532380D01*
X93408571Y-132484761D01*
X93360952Y-132437142D01*
X93265714Y-132294285D01*
X93218095Y-132103809D01*
X93218095Y-131722857D01*
X93265714Y-131627619D01*
X93313333Y-131580000D01*
X93408571Y-131532380D01*
X93599047Y-131532380D01*
X93694285Y-131580000D01*
X93741904Y-131627619D01*
X93789523Y-131722857D01*
X93789523Y-131960952D01*
X93741904Y-132056190D01*
X93694285Y-132103809D01*
X93599047Y-132151428D01*
X93408571Y-132151428D01*
X93313333Y-132103809D01*
X93265714Y-132056190D01*
X93218095Y-131960952D01*
X134810476Y-119832380D02*
X135381904Y-119832380D01*
X135096190Y-119832380D02*
X135096190Y-118832380D01*
X135191428Y-118975238D01*
X135286666Y-119070476D01*
X135381904Y-119118095D01*
X133905714Y-118832380D02*
X134381904Y-118832380D01*
X134429523Y-119308571D01*
X134381904Y-119260952D01*
X134286666Y-119213333D01*
X134048571Y-119213333D01*
X133953333Y-119260952D01*
X133905714Y-119308571D01*
X133858095Y-119403809D01*
X133858095Y-119641904D01*
X133905714Y-119737142D01*
X133953333Y-119784761D01*
X134048571Y-119832380D01*
X134286666Y-119832380D01*
X134381904Y-119784761D01*
X134429523Y-119737142D01*
X137350476Y-119832380D02*
X137921904Y-119832380D01*
X137636190Y-119832380D02*
X137636190Y-118832380D01*
X137731428Y-118975238D01*
X137826666Y-119070476D01*
X137921904Y-119118095D01*
X136493333Y-119165714D02*
X136493333Y-119832380D01*
X136731428Y-118784761D02*
X136969523Y-119499047D01*
X136350476Y-119499047D01*
X139890476Y-119832380D02*
X140461904Y-119832380D01*
X140176190Y-119832380D02*
X140176190Y-118832380D01*
X140271428Y-118975238D01*
X140366666Y-119070476D01*
X140461904Y-119118095D01*
X139557142Y-118832380D02*
X138938095Y-118832380D01*
X139271428Y-119213333D01*
X139128571Y-119213333D01*
X139033333Y-119260952D01*
X138985714Y-119308571D01*
X138938095Y-119403809D01*
X138938095Y-119641904D01*
X138985714Y-119737142D01*
X139033333Y-119784761D01*
X139128571Y-119832380D01*
X139414285Y-119832380D01*
X139509523Y-119784761D01*
X139557142Y-119737142D01*
X162369523Y-119165714D02*
X162369523Y-119832380D01*
X162607619Y-118784761D02*
X162845714Y-119499047D01*
X162226666Y-119499047D01*
X152233333Y-89344285D02*
X152233333Y-88868095D01*
X151947619Y-89439523D02*
X152947619Y-89106190D01*
X151947619Y-88772857D01*
X152947619Y-88439523D02*
X152138095Y-88439523D01*
X152042857Y-88391904D01*
X151995238Y-88344285D01*
X151947619Y-88249047D01*
X151947619Y-88058571D01*
X151995238Y-87963333D01*
X152042857Y-87915714D01*
X152138095Y-87868095D01*
X152947619Y-87868095D01*
X152947619Y-87487142D02*
X151947619Y-86820476D01*
X152947619Y-86820476D02*
X151947619Y-87487142D01*
X152947619Y-86249047D02*
X152947619Y-86153809D01*
X152900000Y-86058571D01*
X152852380Y-86010952D01*
X152757142Y-85963333D01*
X152566666Y-85915714D01*
X152328571Y-85915714D01*
X152138095Y-85963333D01*
X152042857Y-86010952D01*
X151995238Y-86058571D01*
X151947619Y-86153809D01*
X151947619Y-86249047D01*
X151995238Y-86344285D01*
X152042857Y-86391904D01*
X152138095Y-86439523D01*
X152328571Y-86487142D01*
X152566666Y-86487142D01*
X152757142Y-86439523D01*
X152852380Y-86391904D01*
X152900000Y-86344285D01*
X152947619Y-86249047D01*
X159781904Y-118832380D02*
X160258095Y-118832380D01*
X160305714Y-119308571D01*
X160258095Y-119260952D01*
X160162857Y-119213333D01*
X159924761Y-119213333D01*
X159829523Y-119260952D01*
X159781904Y-119308571D01*
X159734285Y-119403809D01*
X159734285Y-119641904D01*
X159781904Y-119737142D01*
X159829523Y-119784761D01*
X159924761Y-119832380D01*
X160162857Y-119832380D01*
X160258095Y-119784761D01*
X160305714Y-119737142D01*
X132627619Y-85915476D02*
X132627619Y-86391666D01*
X132151428Y-86439285D01*
X132199047Y-86391666D01*
X132246666Y-86296428D01*
X132246666Y-86058333D01*
X132199047Y-85963095D01*
X132151428Y-85915476D01*
X132056190Y-85867857D01*
X131818095Y-85867857D01*
X131722857Y-85915476D01*
X131675238Y-85963095D01*
X131627619Y-86058333D01*
X131627619Y-86296428D01*
X131675238Y-86391666D01*
X131722857Y-86439285D01*
X132627619Y-85582142D02*
X131627619Y-85248809D01*
X132627619Y-84915476D01*
X155273333Y-118832380D02*
X154606666Y-118832380D01*
X155035238Y-119832380D01*
X147510476Y-119832380D02*
X148081904Y-119832380D01*
X147796190Y-119832380D02*
X147796190Y-118832380D01*
X147891428Y-118975238D01*
X147986666Y-119070476D01*
X148081904Y-119118095D01*
X146891428Y-118832380D02*
X146796190Y-118832380D01*
X146700952Y-118880000D01*
X146653333Y-118927619D01*
X146605714Y-119022857D01*
X146558095Y-119213333D01*
X146558095Y-119451428D01*
X146605714Y-119641904D01*
X146653333Y-119737142D01*
X146700952Y-119784761D01*
X146796190Y-119832380D01*
X146891428Y-119832380D01*
X146986666Y-119784761D01*
X147034285Y-119737142D01*
X147081904Y-119641904D01*
X147129523Y-119451428D01*
X147129523Y-119213333D01*
X147081904Y-119022857D01*
X147034285Y-118927619D01*
X146986666Y-118880000D01*
X146891428Y-118832380D01*
X169894285Y-119832380D02*
X170465714Y-119832380D01*
X170180000Y-119832380D02*
X170180000Y-118832380D01*
X170275238Y-118975238D01*
X170370476Y-119070476D01*
X170465714Y-119118095D01*
X172767619Y-118832380D02*
X172672380Y-118832380D01*
X172577142Y-118880000D01*
X172529523Y-118927619D01*
X172481904Y-119022857D01*
X172434285Y-119213333D01*
X172434285Y-119451428D01*
X172481904Y-119641904D01*
X172529523Y-119737142D01*
X172577142Y-119784761D01*
X172672380Y-119832380D01*
X172767619Y-119832380D01*
X172862857Y-119784761D01*
X172910476Y-119737142D01*
X172958095Y-119641904D01*
X173005714Y-119451428D01*
X173005714Y-119213333D01*
X172958095Y-119022857D01*
X172910476Y-118927619D01*
X172862857Y-118880000D01*
X172767619Y-118832380D01*
X157289523Y-118832380D02*
X157480000Y-118832380D01*
X157575238Y-118880000D01*
X157622857Y-118927619D01*
X157718095Y-119070476D01*
X157765714Y-119260952D01*
X157765714Y-119641904D01*
X157718095Y-119737142D01*
X157670476Y-119784761D01*
X157575238Y-119832380D01*
X157384761Y-119832380D01*
X157289523Y-119784761D01*
X157241904Y-119737142D01*
X157194285Y-119641904D01*
X157194285Y-119403809D01*
X157241904Y-119308571D01*
X157289523Y-119260952D01*
X157384761Y-119213333D01*
X157575238Y-119213333D01*
X157670476Y-119260952D01*
X157718095Y-119308571D01*
X157765714Y-119403809D01*
X135120000Y-85851904D02*
X135167619Y-85947142D01*
X135167619Y-86090000D01*
X135120000Y-86232857D01*
X135024761Y-86328095D01*
X134929523Y-86375714D01*
X134739047Y-86423333D01*
X134596190Y-86423333D01*
X134405714Y-86375714D01*
X134310476Y-86328095D01*
X134215238Y-86232857D01*
X134167619Y-86090000D01*
X134167619Y-85994761D01*
X134215238Y-85851904D01*
X134262857Y-85804285D01*
X134596190Y-85804285D01*
X134596190Y-85994761D01*
X134167619Y-85375714D02*
X135167619Y-85375714D01*
X134167619Y-84804285D01*
X135167619Y-84804285D01*
X134167619Y-84328095D02*
X135167619Y-84328095D01*
X135167619Y-84090000D01*
X135120000Y-83947142D01*
X135024761Y-83851904D01*
X134929523Y-83804285D01*
X134739047Y-83756666D01*
X134596190Y-83756666D01*
X134405714Y-83804285D01*
X134310476Y-83851904D01*
X134215238Y-83947142D01*
X134167619Y-84090000D01*
X134167619Y-84328095D01*
X175807619Y-86566190D02*
X175807619Y-85947142D01*
X175426666Y-86280476D01*
X175426666Y-86137619D01*
X175379047Y-86042380D01*
X175331428Y-85994761D01*
X175236190Y-85947142D01*
X174998095Y-85947142D01*
X174902857Y-85994761D01*
X174855238Y-86042380D01*
X174807619Y-86137619D01*
X174807619Y-86423333D01*
X174855238Y-86518571D01*
X174902857Y-86566190D01*
X174902857Y-85518571D02*
X174855238Y-85470952D01*
X174807619Y-85518571D01*
X174855238Y-85566190D01*
X174902857Y-85518571D01*
X174807619Y-85518571D01*
X175807619Y-85137619D02*
X175807619Y-84518571D01*
X175426666Y-84851904D01*
X175426666Y-84709047D01*
X175379047Y-84613809D01*
X175331428Y-84566190D01*
X175236190Y-84518571D01*
X174998095Y-84518571D01*
X174902857Y-84566190D01*
X174855238Y-84613809D01*
X174807619Y-84709047D01*
X174807619Y-84994761D01*
X174855238Y-85090000D01*
X174902857Y-85137619D01*
X175807619Y-84232857D02*
X174807619Y-83899523D01*
X175807619Y-83566190D01*
X173220000Y-85851904D02*
X173267619Y-85947142D01*
X173267619Y-86090000D01*
X173220000Y-86232857D01*
X173124761Y-86328095D01*
X173029523Y-86375714D01*
X172839047Y-86423333D01*
X172696190Y-86423333D01*
X172505714Y-86375714D01*
X172410476Y-86328095D01*
X172315238Y-86232857D01*
X172267619Y-86090000D01*
X172267619Y-85994761D01*
X172315238Y-85851904D01*
X172362857Y-85804285D01*
X172696190Y-85804285D01*
X172696190Y-85994761D01*
X172267619Y-85375714D02*
X173267619Y-85375714D01*
X172267619Y-84804285D01*
X173267619Y-84804285D01*
X172267619Y-84328095D02*
X173267619Y-84328095D01*
X173267619Y-84090000D01*
X173220000Y-83947142D01*
X173124761Y-83851904D01*
X173029523Y-83804285D01*
X172839047Y-83756666D01*
X172696190Y-83756666D01*
X172505714Y-83804285D01*
X172410476Y-83851904D01*
X172315238Y-83947142D01*
X172267619Y-84090000D01*
X172267619Y-84328095D01*
X144970476Y-119832380D02*
X145541904Y-119832380D01*
X145256190Y-119832380D02*
X145256190Y-118832380D01*
X145351428Y-118975238D01*
X145446666Y-119070476D01*
X145541904Y-119118095D01*
X144018095Y-119832380D02*
X144589523Y-119832380D01*
X144303809Y-119832380D02*
X144303809Y-118832380D01*
X144399047Y-118975238D01*
X144494285Y-119070476D01*
X144589523Y-119118095D01*
X152495238Y-119260952D02*
X152590476Y-119213333D01*
X152638095Y-119165714D01*
X152685714Y-119070476D01*
X152685714Y-119022857D01*
X152638095Y-118927619D01*
X152590476Y-118880000D01*
X152495238Y-118832380D01*
X152304761Y-118832380D01*
X152209523Y-118880000D01*
X152161904Y-118927619D01*
X152114285Y-119022857D01*
X152114285Y-119070476D01*
X152161904Y-119165714D01*
X152209523Y-119213333D01*
X152304761Y-119260952D01*
X152495238Y-119260952D01*
X152590476Y-119308571D01*
X152638095Y-119356190D01*
X152685714Y-119451428D01*
X152685714Y-119641904D01*
X152638095Y-119737142D01*
X152590476Y-119784761D01*
X152495238Y-119832380D01*
X152304761Y-119832380D01*
X152209523Y-119784761D01*
X152161904Y-119737142D01*
X152114285Y-119641904D01*
X152114285Y-119451428D01*
X152161904Y-119356190D01*
X152209523Y-119308571D01*
X152304761Y-119260952D01*
X142430476Y-119832380D02*
X143001904Y-119832380D01*
X142716190Y-119832380D02*
X142716190Y-118832380D01*
X142811428Y-118975238D01*
X142906666Y-119070476D01*
X143001904Y-119118095D01*
X142049523Y-118927619D02*
X142001904Y-118880000D01*
X141906666Y-118832380D01*
X141668571Y-118832380D01*
X141573333Y-118880000D01*
X141525714Y-118927619D01*
X141478095Y-119022857D01*
X141478095Y-119118095D01*
X141525714Y-119260952D01*
X142097142Y-119832380D01*
X141478095Y-119832380D01*
X150050476Y-119832380D02*
X149860000Y-119832380D01*
X149764761Y-119784761D01*
X149717142Y-119737142D01*
X149621904Y-119594285D01*
X149574285Y-119403809D01*
X149574285Y-119022857D01*
X149621904Y-118927619D01*
X149669523Y-118880000D01*
X149764761Y-118832380D01*
X149955238Y-118832380D01*
X150050476Y-118880000D01*
X150098095Y-118927619D01*
X150145714Y-119022857D01*
X150145714Y-119260952D01*
X150098095Y-119356190D01*
X150050476Y-119403809D01*
X149955238Y-119451428D01*
X149764761Y-119451428D01*
X149669523Y-119403809D01*
X149621904Y-119356190D01*
X149574285Y-119260952D01*
X165433333Y-118832380D02*
X164814285Y-118832380D01*
X165147619Y-119213333D01*
X165004761Y-119213333D01*
X164909523Y-119260952D01*
X164861904Y-119308571D01*
X164814285Y-119403809D01*
X164814285Y-119641904D01*
X164861904Y-119737142D01*
X164909523Y-119784761D01*
X165004761Y-119832380D01*
X165290476Y-119832380D01*
X165385714Y-119784761D01*
X165433333Y-119737142D01*
X167925714Y-118927619D02*
X167878095Y-118880000D01*
X167782857Y-118832380D01*
X167544761Y-118832380D01*
X167449523Y-118880000D01*
X167401904Y-118927619D01*
X167354285Y-119022857D01*
X167354285Y-119118095D01*
X167401904Y-119260952D01*
X167973333Y-119832380D01*
X167354285Y-119832380D01*
X154773333Y-89344285D02*
X154773333Y-88868095D01*
X154487619Y-89439523D02*
X155487619Y-89106190D01*
X154487619Y-88772857D01*
X155487619Y-88439523D02*
X154678095Y-88439523D01*
X154582857Y-88391904D01*
X154535238Y-88344285D01*
X154487619Y-88249047D01*
X154487619Y-88058571D01*
X154535238Y-87963333D01*
X154582857Y-87915714D01*
X154678095Y-87868095D01*
X155487619Y-87868095D01*
X155487619Y-87487142D02*
X154487619Y-86820476D01*
X155487619Y-86820476D02*
X154487619Y-87487142D01*
X154487619Y-85915714D02*
X154487619Y-86487142D01*
X154487619Y-86201428D02*
X155487619Y-86201428D01*
X155344761Y-86296666D01*
X155249523Y-86391904D01*
X155201904Y-86487142D01*
D12*
G36*
X145605005Y-132080345D02*
G01*
X144805004Y-131618464D01*
X142805001Y-132773166D01*
X144005003Y-131156583D01*
X143205002Y-130694702D01*
X140804999Y-133927868D01*
X141605000Y-134389749D01*
X145605005Y-132080345D01*
G37*
G36*
X142405001Y-130232821D02*
G01*
X141605000Y-129770940D01*
X137604995Y-132080345D01*
X138404995Y-132542225D01*
X142405001Y-130232821D01*
G37*
G36*
X141405000Y-124805722D02*
G01*
X141404450Y-125005627D01*
X141404231Y-125205539D01*
X141404270Y-125405455D01*
X141404495Y-125605374D01*
X141404835Y-125805296D01*
X141405217Y-126005218D01*
X141405571Y-126205140D01*
X141405824Y-126405060D01*
X141405905Y-126604977D01*
X141405741Y-126804889D01*
X141405262Y-127004796D01*
X141404395Y-127204695D01*
X141403068Y-127404587D01*
X141401210Y-127604468D01*
X141398749Y-127804339D01*
X141385106Y-128003081D01*
X141358226Y-128200361D01*
X141318379Y-128395349D01*
X141265834Y-128587218D01*
X141200860Y-128775140D01*
X141123726Y-128958287D01*
X141034702Y-129135831D01*
X140934056Y-129306944D01*
X140822059Y-129470798D01*
X140698979Y-129626564D01*
X140565085Y-129773416D01*
X140420647Y-129910525D01*
X140265935Y-130037063D01*
X140110317Y-130149882D01*
X139950552Y-130256327D01*
X139787540Y-130357777D01*
X139622186Y-130455610D01*
X139455391Y-130551206D01*
X139288057Y-130645944D01*
X139121089Y-130741203D01*
X138955387Y-130838363D01*
X138786182Y-130925536D01*
X138608015Y-131006868D01*
X138423427Y-131072034D01*
X138234960Y-131110707D01*
X138045156Y-131112562D01*
X137856557Y-131067274D01*
X137695993Y-130954814D01*
X137580212Y-130805509D01*
X137501393Y-130630042D01*
X137451717Y-130439099D01*
X137423362Y-130243366D01*
X137408510Y-130053527D01*
X137407019Y-129843658D01*
X137405923Y-129633784D01*
X137405170Y-129423905D01*
X137404711Y-129214022D01*
X137404493Y-129004136D01*
X137404466Y-128794247D01*
X137404578Y-128584356D01*
X137404780Y-128374464D01*
X137405019Y-128164572D01*
X137405245Y-127954679D01*
X137405407Y-127744788D01*
X137405453Y-127534898D01*
X137405333Y-127325010D01*
X137404996Y-127115126D01*
X137564996Y-127022750D01*
X137724997Y-126930374D01*
X137884997Y-126837997D01*
X138044997Y-126745621D01*
X138204998Y-126653245D01*
X138205313Y-126859054D01*
X138205426Y-127064866D01*
X138205386Y-127270681D01*
X138205237Y-127476498D01*
X138205028Y-127682315D01*
X138204805Y-127888134D01*
X138204614Y-128093951D01*
X138204503Y-128299768D01*
X138204518Y-128505582D01*
X138204706Y-128711392D01*
X138205113Y-128917199D01*
X138205787Y-129123001D01*
X138206773Y-129328798D01*
X138208120Y-129534587D01*
X138220048Y-129681960D01*
X138266460Y-129828448D01*
X138347923Y-129951452D01*
X138465006Y-130028373D01*
X138618277Y-130036612D01*
X138806555Y-129980159D01*
X138984491Y-129898247D01*
X139156146Y-129801144D01*
X139325580Y-129699117D01*
X139496856Y-129602436D01*
X139657957Y-129511650D01*
X139817836Y-129415769D01*
X139972292Y-129311903D01*
X140117124Y-129197162D01*
X140248132Y-129068653D01*
X140361115Y-128923487D01*
X140451873Y-128758772D01*
X140528408Y-128565266D01*
X140575083Y-128366071D01*
X140598882Y-128162664D01*
X140606789Y-127956520D01*
X140605788Y-127749115D01*
X140602863Y-127541924D01*
X140604998Y-127336423D01*
X140604998Y-127129541D01*
X140604998Y-126922659D01*
X140604998Y-126715777D01*
X140604998Y-126508895D01*
X140604998Y-126302013D01*
X140604998Y-126095131D01*
X140604998Y-125888249D01*
X140604998Y-125681367D01*
X140604998Y-125474485D01*
X140604998Y-125267603D01*
X140764998Y-125175227D01*
X140924999Y-125082850D01*
X141084999Y-124990474D01*
X141244999Y-124898098D01*
X141404999Y-124805722D01*
X141405000Y-124805722D01*
G37*
G36*
X145805005Y-131733933D02*
G01*
X145805005Y-131523988D01*
X145805005Y-131314042D01*
X145805005Y-131104096D01*
X145805005Y-130894150D01*
X145805005Y-130684204D01*
X145805005Y-130474259D01*
X145805005Y-130264313D01*
X145805005Y-130054367D01*
X145805005Y-129844421D01*
X145805005Y-129634476D01*
X145805005Y-129424530D01*
X145805005Y-129214584D01*
X145805005Y-129004638D01*
X145805005Y-128794692D01*
X145805005Y-128584747D01*
X145805005Y-128374801D01*
X145805005Y-128164855D01*
X145805005Y-127954909D01*
X145805005Y-127744963D01*
X145805005Y-127535017D01*
X145805005Y-127325072D01*
X145805005Y-127115126D01*
X145645005Y-127022750D01*
X145485005Y-126930374D01*
X145325005Y-126837997D01*
X145165004Y-126745621D01*
X145005004Y-126653245D01*
X144925004Y-126837997D01*
X144845004Y-127022750D01*
X144765004Y-127207502D01*
X144685004Y-127392254D01*
X144605004Y-127577007D01*
X144525003Y-127761759D01*
X144445003Y-127946511D01*
X144365003Y-128131264D01*
X144285003Y-128316016D01*
X144205003Y-128500768D01*
X144125003Y-128685521D01*
X144045003Y-128870273D01*
X143965003Y-129055025D01*
X143885003Y-129239778D01*
X143805002Y-129424530D01*
X143747859Y-129226581D01*
X143690717Y-129028632D01*
X143633574Y-128830683D01*
X143576431Y-128632734D01*
X143519288Y-128434785D01*
X143462145Y-128236836D01*
X143405002Y-128038887D01*
X143347859Y-127840939D01*
X143290716Y-127642990D01*
X143233573Y-127445041D01*
X143176430Y-127247092D01*
X143119287Y-127049143D01*
X143062144Y-126851194D01*
X143005002Y-126653245D01*
X142947859Y-126455296D01*
X142890716Y-126257347D01*
X142833573Y-126059398D01*
X142776430Y-125861449D01*
X142719287Y-125663501D01*
X142662144Y-125465552D01*
X142605001Y-125267603D01*
X142445001Y-125175227D01*
X142285001Y-125082850D01*
X142125000Y-124990474D01*
X141965000Y-124898098D01*
X141805000Y-124805722D01*
X141805000Y-125015668D01*
X141805000Y-125225614D01*
X141805000Y-125435559D01*
X141805000Y-125645505D01*
X141805000Y-125855451D01*
X141805000Y-126065397D01*
X141805000Y-126275343D01*
X141805000Y-126485288D01*
X141805000Y-126695234D01*
X141805000Y-126905180D01*
X141805000Y-127115126D01*
X141805000Y-127325072D01*
X141805000Y-127535017D01*
X141805000Y-127744963D01*
X141805000Y-127954909D01*
X141805000Y-128164855D01*
X141805000Y-128374801D01*
X141805000Y-128584747D01*
X141805000Y-128794692D01*
X141805000Y-129004638D01*
X141805000Y-129214584D01*
X141805000Y-129424530D01*
X141965000Y-129516906D01*
X142125000Y-129609282D01*
X142285001Y-129701658D01*
X142445001Y-129794034D01*
X142605001Y-129886411D01*
X142605001Y-129676465D01*
X142605001Y-129466519D01*
X142605001Y-129256573D01*
X142605001Y-129046627D01*
X142605001Y-128836682D01*
X142605001Y-128626736D01*
X142605001Y-128416790D01*
X142605001Y-128206844D01*
X142605001Y-127996898D01*
X142605001Y-127786952D01*
X142605001Y-127577007D01*
X142662144Y-127774956D01*
X142719287Y-127972904D01*
X142776430Y-128170853D01*
X142833573Y-128368802D01*
X142890716Y-128566751D01*
X142947859Y-128764700D01*
X143005002Y-128962649D01*
X143062144Y-129160598D01*
X143119287Y-129358547D01*
X143176430Y-129556496D01*
X143233573Y-129754445D01*
X143290716Y-129952394D01*
X143347859Y-130150343D01*
X143405002Y-130348291D01*
X143565002Y-130440668D01*
X143725002Y-130533044D01*
X143885003Y-130625420D01*
X144045003Y-130717796D01*
X144205003Y-130810172D01*
X144285003Y-130625420D01*
X144365003Y-130440668D01*
X144445003Y-130255915D01*
X144525004Y-130071163D01*
X144605004Y-129886411D01*
X144685004Y-129701658D01*
X144765004Y-129516906D01*
X144845004Y-129332154D01*
X144925004Y-129147401D01*
X145005004Y-128962649D01*
X145005004Y-129172595D01*
X145005004Y-129382541D01*
X145005004Y-129592486D01*
X145005004Y-129802432D01*
X145005004Y-130012378D01*
X145005004Y-130222324D01*
X145005004Y-130432270D01*
X145005004Y-130642216D01*
X145005004Y-130852161D01*
X145005004Y-131062107D01*
X145005004Y-131272053D01*
X145165004Y-131364429D01*
X145325005Y-131456805D01*
X145485005Y-131549181D01*
X145645005Y-131641557D01*
X145805005Y-131733933D01*
G37*
G36*
X141605000Y-123766490D02*
G01*
X141605000Y-124228371D01*
X141428076Y-124330518D01*
X141251153Y-124432664D01*
X141074229Y-124534811D01*
X140897305Y-124636958D01*
X140720382Y-124739105D01*
X140543458Y-124841251D01*
X140366535Y-124943398D01*
X140189611Y-125045545D01*
X140012687Y-125147691D01*
X139835764Y-125249838D01*
X139658840Y-125351985D01*
X139481917Y-125454131D01*
X139304993Y-125556278D01*
X139128069Y-125658425D01*
X138951146Y-125760572D01*
X138774222Y-125862718D01*
X138597298Y-125964865D01*
X138420375Y-126067012D01*
X138243451Y-126169158D01*
X138066527Y-126271305D01*
X137889604Y-126373452D01*
X137712680Y-126475599D01*
X137535757Y-126577745D01*
X137358833Y-126679892D01*
X137181909Y-126782039D01*
X137004985Y-126884185D01*
X137004985Y-127088479D01*
X137004985Y-127292772D01*
X137004985Y-127497066D01*
X137004985Y-127701359D01*
X137004985Y-127905653D01*
X137004985Y-128109946D01*
X137004985Y-128314239D01*
X137004985Y-128518533D01*
X137004985Y-128722826D01*
X137004985Y-128927120D01*
X137004985Y-129131413D01*
X137004985Y-129335707D01*
X137004985Y-129540000D01*
X137004985Y-129744293D01*
X137004985Y-129948587D01*
X137004985Y-130152880D01*
X137004985Y-130357174D01*
X137004985Y-130561467D01*
X137004985Y-130765760D01*
X137004985Y-130970054D01*
X137004985Y-131174347D01*
X137004985Y-131378641D01*
X137004985Y-131582934D01*
X137004985Y-131787228D01*
X137004985Y-131991521D01*
X137004985Y-132195814D01*
X137181909Y-132297961D01*
X137358833Y-132400108D01*
X137535757Y-132502254D01*
X137712680Y-132604401D01*
X137889604Y-132706548D01*
X138066527Y-132808695D01*
X138243451Y-132910841D01*
X138420375Y-133012988D01*
X138597298Y-133115135D01*
X138774222Y-133217281D01*
X138951146Y-133319428D01*
X139128069Y-133421575D01*
X139304993Y-133523722D01*
X139481917Y-133625868D01*
X139658840Y-133728015D01*
X139835764Y-133830162D01*
X140012687Y-133932308D01*
X140189611Y-134034455D01*
X140366535Y-134136602D01*
X140543458Y-134238749D01*
X140720382Y-134340895D01*
X140897305Y-134443042D01*
X141074229Y-134545189D01*
X141251153Y-134647335D01*
X141428076Y-134749482D01*
X141605000Y-134851629D01*
X141781923Y-134749482D01*
X141958847Y-134647335D01*
X142135771Y-134545189D01*
X142312694Y-134443042D01*
X142489618Y-134340895D01*
X142666542Y-134238749D01*
X142843465Y-134136602D01*
X143020389Y-134034455D01*
X143197312Y-133932308D01*
X143374236Y-133830162D01*
X143551160Y-133728015D01*
X143728083Y-133625868D01*
X143905007Y-133523722D01*
X144081931Y-133421575D01*
X144258854Y-133319428D01*
X144435778Y-133217281D01*
X144612701Y-133115135D01*
X144789625Y-133012988D01*
X144966549Y-132910841D01*
X145143472Y-132808695D01*
X145320396Y-132706548D01*
X145497320Y-132604401D01*
X145674243Y-132502254D01*
X145851167Y-132400108D01*
X146028090Y-132297961D01*
X146205014Y-132195814D01*
X146205014Y-131991521D01*
X146205014Y-131787228D01*
X146205014Y-131582934D01*
X146205014Y-131378641D01*
X146205014Y-131174347D01*
X146205014Y-130970054D01*
X146205014Y-130765760D01*
X146205014Y-130561467D01*
X146205014Y-130357174D01*
X146205014Y-130152880D01*
X146205014Y-129948587D01*
X146205014Y-129744293D01*
X146205014Y-129540000D01*
X146205014Y-129335707D01*
X146205014Y-129131413D01*
X146205014Y-128927120D01*
X146205014Y-128722826D01*
X146205014Y-128518533D01*
X146205014Y-128314239D01*
X146205014Y-128109946D01*
X146205014Y-127905653D01*
X146205014Y-127701359D01*
X146205014Y-127497066D01*
X146205014Y-127292772D01*
X146205014Y-127088479D01*
X146205014Y-126884185D01*
X146028090Y-126782039D01*
X145851167Y-126679892D01*
X145674243Y-126577745D01*
X145497320Y-126475599D01*
X145320396Y-126373452D01*
X145143472Y-126271305D01*
X144966549Y-126169158D01*
X144789625Y-126067012D01*
X144612701Y-125964865D01*
X144435778Y-125862718D01*
X144258854Y-125760572D01*
X144081931Y-125658425D01*
X143905007Y-125556278D01*
X143728083Y-125454131D01*
X143551160Y-125351985D01*
X143374236Y-125249838D01*
X143197312Y-125147691D01*
X143020389Y-125045545D01*
X142843465Y-124943398D01*
X142666542Y-124841251D01*
X142489618Y-124739105D01*
X142312694Y-124636958D01*
X142135771Y-124534811D01*
X141958847Y-124432664D01*
X141781923Y-124330518D01*
X141605000Y-124228371D01*
X141605000Y-123766490D01*
X141783571Y-123869589D01*
X141962143Y-123972687D01*
X142140714Y-124075785D01*
X142319286Y-124178884D01*
X142497857Y-124281982D01*
X142676428Y-124385081D01*
X142855000Y-124488179D01*
X143033571Y-124591277D01*
X143212143Y-124694376D01*
X143390714Y-124797474D01*
X143569286Y-124900572D01*
X143747857Y-125003671D01*
X143926428Y-125106769D01*
X144105000Y-125209868D01*
X144283571Y-125312966D01*
X144462143Y-125416064D01*
X144640714Y-125519163D01*
X144819286Y-125622261D01*
X144997857Y-125725360D01*
X145176428Y-125828458D01*
X145355000Y-125931556D01*
X145533571Y-126034655D01*
X145712143Y-126137753D01*
X145890714Y-126240851D01*
X146069286Y-126343950D01*
X146247857Y-126447048D01*
X146426429Y-126550147D01*
X146605000Y-126653245D01*
X146605000Y-126859442D01*
X146605000Y-127065639D01*
X146605000Y-127271835D01*
X146605000Y-127478032D01*
X146605000Y-127684229D01*
X146605000Y-127890426D01*
X146605000Y-128096623D01*
X146605000Y-128302819D01*
X146605000Y-128509016D01*
X146605000Y-128715213D01*
X146605000Y-128921410D01*
X146605000Y-129127606D01*
X146605000Y-129333803D01*
X146605000Y-129540000D01*
X146605000Y-129746197D01*
X146605000Y-129952394D01*
X146605000Y-130158590D01*
X146605000Y-130364787D01*
X146605000Y-130570984D01*
X146605000Y-130777181D01*
X146605000Y-130983378D01*
X146605000Y-131189574D01*
X146605000Y-131395771D01*
X146605000Y-131601968D01*
X146605000Y-131808165D01*
X146605000Y-132014362D01*
X146605000Y-132220559D01*
X146605000Y-132426755D01*
X146426429Y-132529854D01*
X146247857Y-132632952D01*
X146069286Y-132736050D01*
X145890714Y-132839149D01*
X145712143Y-132942247D01*
X145533571Y-133045346D01*
X145355000Y-133148444D01*
X145176428Y-133251542D01*
X144997857Y-133354641D01*
X144819286Y-133457739D01*
X144640714Y-133560837D01*
X144462143Y-133663936D01*
X144283571Y-133767034D01*
X144105000Y-133870133D01*
X143926428Y-133973231D01*
X143747857Y-134076329D01*
X143569286Y-134179428D01*
X143390714Y-134282526D01*
X143212143Y-134385624D01*
X143033571Y-134488723D01*
X142855000Y-134591821D01*
X142676428Y-134694920D01*
X142497857Y-134798018D01*
X142319286Y-134901116D01*
X142140714Y-135004215D01*
X141962143Y-135107313D01*
X141783571Y-135210411D01*
X141605000Y-135313510D01*
X141426428Y-135210411D01*
X141247857Y-135107313D01*
X141069286Y-135004215D01*
X140890714Y-134901116D01*
X140712143Y-134798018D01*
X140533571Y-134694920D01*
X140355000Y-134591821D01*
X140176428Y-134488723D01*
X139997857Y-134385624D01*
X139819285Y-134282526D01*
X139640714Y-134179428D01*
X139462143Y-134076329D01*
X139283571Y-133973231D01*
X139105000Y-133870133D01*
X138926428Y-133767034D01*
X138747857Y-133663936D01*
X138569286Y-133560837D01*
X138390714Y-133457739D01*
X138212143Y-133354641D01*
X138033571Y-133251542D01*
X137855000Y-133148444D01*
X137676428Y-133045346D01*
X137497857Y-132942247D01*
X137319286Y-132839149D01*
X137140714Y-132736050D01*
X136962143Y-132632952D01*
X136783571Y-132529854D01*
X136605000Y-132426755D01*
X136605000Y-132220559D01*
X136605000Y-132014362D01*
X136605000Y-131808165D01*
X136605000Y-131601968D01*
X136605000Y-131395771D01*
X136605000Y-131189574D01*
X136605000Y-130983378D01*
X136605000Y-130777181D01*
X136605000Y-130570984D01*
X136605000Y-130364787D01*
X136605000Y-130158590D01*
X136605000Y-129952394D01*
X136605000Y-129746197D01*
X136605000Y-129540000D01*
X136605000Y-129333803D01*
X136605000Y-129127606D01*
X136605000Y-128921410D01*
X136605000Y-128715213D01*
X136605000Y-128509016D01*
X136605000Y-128302819D01*
X136605000Y-128096623D01*
X136605000Y-127890426D01*
X136605000Y-127684229D01*
X136605000Y-127478032D01*
X136605000Y-127271835D01*
X136605000Y-127065639D01*
X136605000Y-126859442D01*
X136605000Y-126653245D01*
X136783571Y-126550147D01*
X136962143Y-126447048D01*
X137140714Y-126343950D01*
X137319286Y-126240851D01*
X137497857Y-126137753D01*
X137676428Y-126034655D01*
X137855000Y-125931556D01*
X138033571Y-125828458D01*
X138212143Y-125725360D01*
X138390714Y-125622261D01*
X138569286Y-125519163D01*
X138747857Y-125416064D01*
X138926428Y-125312966D01*
X139105000Y-125209868D01*
X139283571Y-125106769D01*
X139462143Y-125003671D01*
X139640714Y-124900572D01*
X139819285Y-124797474D01*
X139997857Y-124694376D01*
X140176428Y-124591277D01*
X140355000Y-124488179D01*
X140533571Y-124385081D01*
X140712143Y-124281982D01*
X140890714Y-124178884D01*
X141069286Y-124075785D01*
X141247857Y-123972687D01*
X141426428Y-123869589D01*
X141605000Y-123766490D01*
G37*
G36*
X143473369Y-139861357D02*
G01*
X143663067Y-138181182D01*
X144733135Y-138528838D01*
X143902324Y-139992217D01*
X144016270Y-140067462D01*
X144120261Y-140155958D01*
X144212764Y-140256401D01*
X144292416Y-140367311D01*
X144358045Y-140487054D01*
X144408683Y-140613866D01*
X144443584Y-140745879D01*
X146098125Y-140407500D01*
X146098125Y-141532500D01*
X144443584Y-141194121D01*
X144408683Y-141326134D01*
X144358045Y-141452946D01*
X144292416Y-141572689D01*
X144212763Y-141683599D01*
X144120261Y-141784042D01*
X144016270Y-141872538D01*
X143902324Y-141947783D01*
X144733135Y-143411162D01*
X143663067Y-143758818D01*
X143473369Y-142078643D01*
X143348125Y-142095000D01*
X143209968Y-142085461D01*
X143074029Y-142059019D01*
X142942370Y-142016075D01*
X142816984Y-141957280D01*
X142699772Y-141883525D01*
X142592510Y-141795928D01*
X141454326Y-143041289D01*
X140793194Y-142131133D01*
X142332256Y-141432158D01*
X142274088Y-141283799D01*
X142237466Y-141128709D01*
X142223125Y-140970000D01*
X142234891Y-140810560D01*
X142269138Y-140654398D01*
X142325176Y-140504668D01*
X140793194Y-139808867D01*
X141454326Y-138898711D01*
X142589824Y-140141143D01*
X142697633Y-140053814D01*
X142815372Y-139980420D01*
X142941249Y-139922076D01*
X143073350Y-139879670D01*
X143209667Y-139853847D01*
X143348125Y-139845000D01*
X143473369Y-139861357D01*
X143393326Y-140597734D01*
X143348125Y-140595000D01*
X143302924Y-140597734D01*
X143258382Y-140605897D01*
X143215148Y-140619369D01*
X143173854Y-140637954D01*
X143135101Y-140661381D01*
X143099454Y-140689308D01*
X143067434Y-140721329D01*
X143039506Y-140756976D01*
X143016079Y-140795729D01*
X142997494Y-140837023D01*
X142984022Y-140880257D01*
X142975859Y-140924799D01*
X142973125Y-140970000D01*
X142976333Y-141018947D01*
X142985903Y-141067057D01*
X143001670Y-141113506D01*
X143023366Y-141157500D01*
X143050618Y-141198286D01*
X143082960Y-141235165D01*
X143119840Y-141267508D01*
X143160625Y-141294760D01*
X143204619Y-141316455D01*
X143251068Y-141332222D01*
X143299178Y-141341792D01*
X143348125Y-141345000D01*
X143397072Y-141341792D01*
X143445182Y-141332222D01*
X143491631Y-141316455D01*
X143535625Y-141294760D01*
X143576411Y-141267508D01*
X143613290Y-141235165D01*
X143645633Y-141198286D01*
X143672885Y-141157500D01*
X143694580Y-141113506D01*
X143710347Y-141067057D01*
X143719917Y-141018947D01*
X143723125Y-140970000D01*
X143720391Y-140924799D01*
X143712228Y-140880257D01*
X143698756Y-140837023D01*
X143680171Y-140795729D01*
X143656744Y-140756976D01*
X143628817Y-140721329D01*
X143596796Y-140689308D01*
X143561149Y-140661381D01*
X143522396Y-140637954D01*
X143481102Y-140619369D01*
X143437869Y-140605897D01*
X143393326Y-140597734D01*
X143473369Y-139861357D01*
G37*
G36*
X108047812Y-139535000D02*
G01*
X107958498Y-139628382D01*
X107857988Y-139707157D01*
X107746720Y-139771414D01*
X107625131Y-139821239D01*
X107493658Y-139856720D01*
X107352740Y-139877945D01*
X107202813Y-139885000D01*
X107031788Y-139875521D01*
X106867933Y-139847513D01*
X106712380Y-139801616D01*
X106566263Y-139738473D01*
X106430714Y-139658726D01*
X106306868Y-139563015D01*
X106195858Y-139451985D01*
X106098817Y-139326274D01*
X106016878Y-139186527D01*
X105951174Y-139033384D01*
X105902840Y-138867487D01*
X105873009Y-138689479D01*
X105862813Y-138500000D01*
X105873009Y-138310521D01*
X105902840Y-138132512D01*
X105951174Y-137966616D01*
X106016878Y-137813473D01*
X106098817Y-137673726D01*
X106195858Y-137548015D01*
X106306868Y-137436985D01*
X106430714Y-137341274D01*
X106566263Y-137261527D01*
X106712380Y-137198384D01*
X106867933Y-137152487D01*
X107031788Y-137124479D01*
X107202813Y-137115000D01*
X107342667Y-137121458D01*
X107474911Y-137140948D01*
X107599285Y-137173644D01*
X107715524Y-137219723D01*
X107823366Y-137279359D01*
X107922550Y-137352726D01*
X108012812Y-137440000D01*
X108012812Y-136135000D01*
X108792813Y-136135000D01*
X108792813Y-139845000D01*
X108047812Y-139845000D01*
X108047812Y-139535000D01*
X107734273Y-139126145D01*
X107797439Y-139075405D01*
X107853955Y-139016281D01*
X107903274Y-138949033D01*
X107944851Y-138873919D01*
X107978140Y-138791199D01*
X108002593Y-138701133D01*
X108017666Y-138603980D01*
X108022812Y-138500000D01*
X108017666Y-138396020D01*
X108002593Y-138298867D01*
X107978140Y-138208801D01*
X107944851Y-138126081D01*
X107903274Y-138050967D01*
X107853955Y-137983719D01*
X107797439Y-137924595D01*
X107734273Y-137873855D01*
X107665004Y-137831759D01*
X107590177Y-137798566D01*
X107510338Y-137774536D01*
X107426035Y-137759927D01*
X107337812Y-137755000D01*
X107249590Y-137759927D01*
X107165286Y-137774536D01*
X107085448Y-137798566D01*
X107010621Y-137831759D01*
X106941351Y-137873855D01*
X106878186Y-137924595D01*
X106821670Y-137983719D01*
X106772351Y-138050967D01*
X106730774Y-138126081D01*
X106697485Y-138208801D01*
X106673031Y-138298867D01*
X106657958Y-138396020D01*
X106652813Y-138500000D01*
X106657958Y-138603980D01*
X106673031Y-138701133D01*
X106697485Y-138791199D01*
X106730774Y-138873919D01*
X106772351Y-138949033D01*
X106821670Y-139016281D01*
X106878186Y-139075405D01*
X106941351Y-139126145D01*
X107010621Y-139168241D01*
X107085448Y-139201434D01*
X107165286Y-139225464D01*
X107249590Y-139240073D01*
X107337812Y-139245000D01*
X107426035Y-139240073D01*
X107510338Y-139225464D01*
X107590177Y-139201434D01*
X107665004Y-139168241D01*
X107734273Y-139126145D01*
X108047812Y-139535000D01*
G37*
G36*
X110192579Y-139535000D02*
G01*
X110192579Y-139845000D01*
X109447577Y-139845000D01*
X109447577Y-137155000D01*
X110227577Y-137155000D01*
X110227577Y-137440000D01*
X110316251Y-137352726D01*
X110414720Y-137279359D01*
X110522374Y-137219723D01*
X110638599Y-137173644D01*
X110762782Y-137140948D01*
X110894313Y-137121458D01*
X111032577Y-137115000D01*
X111204669Y-137124479D01*
X111369428Y-137152487D01*
X111525735Y-137198384D01*
X111672469Y-137261527D01*
X111808512Y-137341274D01*
X111932742Y-137436985D01*
X112044042Y-137548015D01*
X112141291Y-137673726D01*
X112223368Y-137813473D01*
X112289156Y-137966616D01*
X112337533Y-138132512D01*
X112367380Y-138310521D01*
X112377578Y-138500000D01*
X112367380Y-138689479D01*
X112337533Y-138867487D01*
X112289156Y-139033384D01*
X112223368Y-139186527D01*
X112141291Y-139326274D01*
X112044042Y-139451985D01*
X111932742Y-139563015D01*
X111808512Y-139658726D01*
X111672469Y-139738473D01*
X111525735Y-139801616D01*
X111369428Y-139847513D01*
X111204669Y-139875521D01*
X111032577Y-139885000D01*
X110882927Y-139877945D01*
X110742723Y-139856720D01*
X110612228Y-139821239D01*
X110491703Y-139771414D01*
X110381412Y-139707157D01*
X110281617Y-139628382D01*
X110192579Y-139535000D01*
X110503302Y-139126145D01*
X110572599Y-139168241D01*
X110647262Y-139201434D01*
X110726705Y-139225464D01*
X110810339Y-139240073D01*
X110897579Y-139245000D01*
X110985885Y-139240073D01*
X111070423Y-139225464D01*
X111150619Y-139201434D01*
X111225899Y-139168241D01*
X111295689Y-139126145D01*
X111359417Y-139075405D01*
X111416508Y-139016281D01*
X111466390Y-138949033D01*
X111508488Y-138873919D01*
X111542230Y-138791199D01*
X111567041Y-138701133D01*
X111582348Y-138603980D01*
X111587578Y-138500000D01*
X111582348Y-138396020D01*
X111567041Y-138298867D01*
X111542230Y-138208801D01*
X111508488Y-138126081D01*
X111466390Y-138050967D01*
X111416508Y-137983719D01*
X111359417Y-137924595D01*
X111295689Y-137873855D01*
X111225899Y-137831759D01*
X111150619Y-137798566D01*
X111070423Y-137774536D01*
X110985885Y-137759927D01*
X110897579Y-137755000D01*
X110810339Y-137759927D01*
X110726705Y-137774536D01*
X110647262Y-137798566D01*
X110572599Y-137831759D01*
X110503302Y-137873855D01*
X110439959Y-137924595D01*
X110383156Y-137983719D01*
X110333481Y-138050967D01*
X110291522Y-138126081D01*
X110257865Y-138208801D01*
X110233097Y-138298867D01*
X110217805Y-138396020D01*
X110212578Y-138500000D01*
X110217805Y-138603980D01*
X110233097Y-138701133D01*
X110257865Y-138791199D01*
X110291522Y-138873919D01*
X110333481Y-138949033D01*
X110383156Y-139016281D01*
X110439959Y-139075405D01*
X110503302Y-139126145D01*
X110192579Y-139535000D01*
G37*
G36*
X115058125Y-139845000D02*
G01*
X112493125Y-139845000D01*
X112493125Y-139185000D01*
X114248124Y-139185000D01*
X114248124Y-136345000D01*
X115058125Y-136345000D01*
X115058125Y-139845000D01*
G37*
G36*
X117817344Y-137510000D02*
G01*
X117817344Y-137155000D01*
X118562344Y-137155000D01*
X118562344Y-139845000D01*
X117782344Y-139845000D01*
X117782344Y-138575000D01*
X117777348Y-138461104D01*
X117762617Y-138357026D01*
X117738532Y-138262642D01*
X117705475Y-138177831D01*
X117663830Y-138102469D01*
X117613978Y-138036434D01*
X117556302Y-137979602D01*
X117491183Y-137931850D01*
X117419005Y-137893056D01*
X117340150Y-137863097D01*
X117254999Y-137841850D01*
X117163936Y-137829192D01*
X117067343Y-137825000D01*
X116892344Y-137835000D01*
X116892344Y-137115000D01*
X117064283Y-137123236D01*
X117223977Y-137147828D01*
X117370814Y-137188600D01*
X117504181Y-137245379D01*
X117623467Y-137317988D01*
X117728059Y-137406254D01*
X117817344Y-137510000D01*
G37*
G36*
X121014141Y-138860000D02*
G01*
X119024142Y-138475000D01*
X119038028Y-138267581D01*
X119076063Y-138075648D01*
X119136564Y-137899688D01*
X119217846Y-137740185D01*
X119318225Y-137597627D01*
X119436017Y-137472500D01*
X119569538Y-137365289D01*
X119717105Y-137276481D01*
X119877032Y-137206562D01*
X120047637Y-137156019D01*
X120227234Y-137125336D01*
X120414141Y-137115000D01*
X120601597Y-137125134D01*
X120780177Y-137154891D01*
X120948816Y-137203300D01*
X121106449Y-137269392D01*
X121252011Y-137352198D01*
X121384437Y-137450749D01*
X121502662Y-137564074D01*
X121605621Y-137691204D01*
X121692248Y-137831170D01*
X121761479Y-137983002D01*
X121812248Y-138145731D01*
X121843490Y-138318386D01*
X121854141Y-138500000D01*
X121843529Y-138680630D01*
X121812202Y-138852617D01*
X121760925Y-139014950D01*
X121690463Y-139166618D01*
X121601581Y-139306611D01*
X121495042Y-139433919D01*
X121371613Y-139547531D01*
X121232056Y-139646436D01*
X121077138Y-139729625D01*
X120907623Y-139796086D01*
X120724275Y-139844809D01*
X120527860Y-139874784D01*
X120319141Y-139885000D01*
X120118063Y-139875860D01*
X119930716Y-139848615D01*
X119757363Y-139803528D01*
X119598266Y-139740860D01*
X119453689Y-139660875D01*
X119323893Y-139563834D01*
X119209141Y-139450000D01*
X119624142Y-139000000D01*
X119718586Y-139080023D01*
X119818030Y-139145185D01*
X119924141Y-139195625D01*
X120038586Y-139231481D01*
X120163030Y-139252893D01*
X120299141Y-139260000D01*
X120412056Y-139255007D01*
X120517275Y-139240055D01*
X120614511Y-139215185D01*
X120703475Y-139180439D01*
X120783880Y-139135857D01*
X120855437Y-139081481D01*
X120917858Y-139017353D01*
X120970855Y-138943512D01*
X121014141Y-138860000D01*
X121089141Y-138420000D01*
X121080157Y-138310350D01*
X121061016Y-138209051D01*
X121032188Y-138116328D01*
X120994141Y-138032407D01*
X120947344Y-137957514D01*
X120892266Y-137891875D01*
X120829376Y-137835715D01*
X120759141Y-137789259D01*
X120682032Y-137752734D01*
X120598516Y-137726366D01*
X120509063Y-137710379D01*
X120414141Y-137705000D01*
X120319411Y-137710455D01*
X120230501Y-137726440D01*
X120147831Y-137752385D01*
X120071821Y-137787720D01*
X120002891Y-137831875D01*
X119941461Y-137884280D01*
X119887951Y-137944365D01*
X119842781Y-138011560D01*
X119806371Y-138085295D01*
X119779141Y-138165000D01*
X121089141Y-138420000D01*
X121014141Y-138860000D01*
G37*
G36*
X123442969Y-137115000D02*
G01*
X123596176Y-137122595D01*
X123742298Y-137145146D01*
X123880374Y-137182303D01*
X124009441Y-137233717D01*
X124128537Y-137299038D01*
X124236700Y-137377915D01*
X124332968Y-137470000D01*
X124332968Y-137155000D01*
X125077969Y-137155000D01*
X125077969Y-139845000D01*
X124297969Y-139845000D01*
X124297969Y-138515000D01*
X124293251Y-138405457D01*
X124279398Y-138305228D01*
X124256861Y-138214215D01*
X124226089Y-138132324D01*
X124187534Y-138059458D01*
X124141647Y-137995523D01*
X124088877Y-137940423D01*
X124029676Y-137894062D01*
X123964494Y-137856345D01*
X123893781Y-137827176D01*
X123817989Y-137806459D01*
X123737569Y-137794099D01*
X123652969Y-137790000D01*
X123575953Y-137793566D01*
X123504234Y-137804329D01*
X123437964Y-137822383D01*
X123377293Y-137847824D01*
X123322370Y-137880749D01*
X123273346Y-137921252D01*
X123230372Y-137969429D01*
X123193597Y-138025375D01*
X123163171Y-138089187D01*
X123139245Y-138160960D01*
X123121969Y-138240790D01*
X123111494Y-138328771D01*
X123107969Y-138425000D01*
X123107969Y-139845000D01*
X122327969Y-139845000D01*
X122327969Y-138305000D01*
X122336342Y-138123721D01*
X122360868Y-137958200D01*
X122400661Y-137808218D01*
X122454833Y-137673557D01*
X122522496Y-137553999D01*
X122602762Y-137449324D01*
X122694744Y-137359315D01*
X122797555Y-137283753D01*
X122910307Y-137222419D01*
X123032111Y-137175096D01*
X123162082Y-137141563D01*
X123299330Y-137121604D01*
X123442969Y-137115000D01*
G37*
G36*
X126291718Y-139845000D02*
G01*
X125346719Y-139845000D01*
X126566718Y-138295000D01*
X125446719Y-137155000D01*
X126376718Y-137155000D01*
X127516719Y-138235000D01*
X127516719Y-136135000D01*
X128296719Y-136135000D01*
X128296719Y-139845000D01*
X127516719Y-139845000D01*
X127516719Y-139160000D01*
X127141719Y-138790000D01*
X126291718Y-139845000D01*
G37*
G36*
X129873673Y-139885000D02*
G01*
X129689962Y-139875837D01*
X129516210Y-139848731D01*
X129353487Y-139804259D01*
X129202862Y-139742997D01*
X129065407Y-139665521D01*
X128942190Y-139572407D01*
X128834282Y-139464232D01*
X128742752Y-139341571D01*
X128668672Y-139205000D01*
X129273673Y-138875000D01*
X129331251Y-138965547D01*
X129394923Y-139042500D01*
X129464220Y-139106328D01*
X129538673Y-139157500D01*
X129617814Y-139196484D01*
X129701173Y-139223750D01*
X129788283Y-139239766D01*
X129878673Y-139245000D01*
X129968216Y-139240155D01*
X130054126Y-139225765D01*
X130135789Y-139202048D01*
X130212592Y-139169224D01*
X130283919Y-139127510D01*
X130349155Y-139077126D01*
X130407687Y-139018289D01*
X130458900Y-138951218D01*
X130502180Y-138876131D01*
X130536911Y-138793248D01*
X130562480Y-138702786D01*
X130578272Y-138604964D01*
X130583673Y-138500000D01*
X130578272Y-138395036D01*
X130562480Y-138297214D01*
X130536911Y-138206752D01*
X130502180Y-138123869D01*
X130458900Y-138048782D01*
X130407687Y-137981711D01*
X130349155Y-137922874D01*
X130283919Y-137872490D01*
X130212592Y-137830776D01*
X130135789Y-137797952D01*
X130054126Y-137774235D01*
X129968216Y-137759845D01*
X129878673Y-137755000D01*
X129788283Y-137760439D01*
X129701173Y-137776953D01*
X129617814Y-137804834D01*
X129538673Y-137844375D01*
X129464220Y-137895869D01*
X129394923Y-137959609D01*
X129331251Y-138035889D01*
X129273673Y-138125000D01*
X128668672Y-137800000D01*
X128742752Y-137660624D01*
X128834282Y-137536104D01*
X128942190Y-137426852D01*
X129065407Y-137333278D01*
X129202862Y-137255796D01*
X129353487Y-137194815D01*
X129516210Y-137150748D01*
X129689962Y-137124005D01*
X129873673Y-137115000D01*
X130070987Y-137125052D01*
X130258402Y-137154590D01*
X130434892Y-137202685D01*
X130599435Y-137268409D01*
X130751005Y-137350833D01*
X130888579Y-137449028D01*
X131011132Y-137562066D01*
X131117641Y-137689019D01*
X131207082Y-137828958D01*
X131278429Y-137980954D01*
X131330659Y-138144078D01*
X131362748Y-138317403D01*
X131373672Y-138500000D01*
X131362748Y-138682597D01*
X131330659Y-138855922D01*
X131278429Y-139019046D01*
X131207082Y-139171042D01*
X131117641Y-139310981D01*
X131011132Y-139437934D01*
X130888579Y-139550972D01*
X130751005Y-139649167D01*
X130599435Y-139731591D01*
X130434892Y-139797315D01*
X130258402Y-139845410D01*
X130070987Y-139874948D01*
X129873673Y-139885000D01*
G37*
G36*
X133625468Y-138860000D02*
G01*
X131635468Y-138475000D01*
X131649354Y-138267581D01*
X131687390Y-138075648D01*
X131747891Y-137899688D01*
X131829172Y-137740185D01*
X131929552Y-137597627D01*
X132047344Y-137472500D01*
X132180865Y-137365289D01*
X132328432Y-137276481D01*
X132488359Y-137206562D01*
X132658964Y-137156019D01*
X132838562Y-137125336D01*
X133025469Y-137115000D01*
X133212924Y-137125134D01*
X133391504Y-137154891D01*
X133560144Y-137203300D01*
X133717777Y-137269392D01*
X133863339Y-137352198D01*
X133995765Y-137450749D01*
X134113990Y-137564074D01*
X134216948Y-137691204D01*
X134303575Y-137831170D01*
X134372806Y-137983002D01*
X134423575Y-138145731D01*
X134454818Y-138318386D01*
X134465469Y-138500000D01*
X134454857Y-138680630D01*
X134423530Y-138852617D01*
X134372253Y-139014950D01*
X134301791Y-139166618D01*
X134212908Y-139306611D01*
X134106370Y-139433919D01*
X133982940Y-139547531D01*
X133843384Y-139646436D01*
X133688466Y-139729625D01*
X133518951Y-139796086D01*
X133335603Y-139844809D01*
X133139187Y-139874784D01*
X132930469Y-139885000D01*
X132729390Y-139875860D01*
X132542043Y-139848615D01*
X132368690Y-139803528D01*
X132209594Y-139740860D01*
X132065017Y-139660875D01*
X131935221Y-139563834D01*
X131820469Y-139450000D01*
X132235469Y-139000000D01*
X132329913Y-139080023D01*
X132429358Y-139145185D01*
X132535469Y-139195625D01*
X132649913Y-139231481D01*
X132774358Y-139252893D01*
X132910469Y-139260000D01*
X133023384Y-139255007D01*
X133128603Y-139240055D01*
X133225839Y-139215185D01*
X133314803Y-139180439D01*
X133395208Y-139135857D01*
X133466765Y-139081481D01*
X133529186Y-139017353D01*
X133582183Y-138943512D01*
X133625468Y-138860000D01*
X133700468Y-138420000D01*
X133691484Y-138310350D01*
X133672344Y-138209051D01*
X133643516Y-138116328D01*
X133605469Y-138032407D01*
X133558672Y-137957514D01*
X133503594Y-137891875D01*
X133440703Y-137835715D01*
X133370469Y-137789259D01*
X133293359Y-137752734D01*
X133209844Y-137726366D01*
X133120391Y-137710379D01*
X133025469Y-137705000D01*
X132930739Y-137710455D01*
X132841829Y-137726440D01*
X132759159Y-137752385D01*
X132683149Y-137787720D01*
X132614219Y-137831875D01*
X132552789Y-137884280D01*
X132499279Y-137944365D01*
X132454109Y-138011560D01*
X132417699Y-138085295D01*
X132390469Y-138165000D01*
X133700468Y-138420000D01*
X133625468Y-138860000D01*
G37*
G36*
X134946954Y-139885000D02*
G01*
X134811953Y-139878148D01*
X134676953Y-139856852D01*
X134541953Y-139820000D01*
X134576952Y-139215000D01*
X134618359Y-139233359D01*
X134671953Y-139249375D01*
X134733047Y-139260703D01*
X134796953Y-139265000D01*
X134844871Y-139262790D01*
X134889348Y-139256197D01*
X134930315Y-139245275D01*
X134967704Y-139230080D01*
X135001448Y-139210665D01*
X135031478Y-139187085D01*
X135057725Y-139159395D01*
X135080121Y-139127649D01*
X135098599Y-139091903D01*
X135113089Y-139052210D01*
X135123523Y-139008625D01*
X135129834Y-138961204D01*
X135131953Y-138910000D01*
X135131953Y-136135000D01*
X135911954Y-136135000D01*
X135911954Y-138955000D01*
X135905616Y-139088641D01*
X135886810Y-139212533D01*
X135855852Y-139326511D01*
X135813055Y-139430412D01*
X135758733Y-139524072D01*
X135693201Y-139607326D01*
X135616771Y-139680011D01*
X135529759Y-139741964D01*
X135432479Y-139793020D01*
X135325244Y-139833016D01*
X135208369Y-139861787D01*
X135082167Y-139879169D01*
X134946954Y-139885000D01*
G37*
G36*
X137100625Y-139845000D02*
G01*
X136155625Y-139845000D01*
X137690625Y-137905000D01*
X136240625Y-136345000D01*
X137140625Y-136345000D01*
X138690625Y-137980000D01*
X138690625Y-136345000D01*
X139495625Y-136345000D01*
X139495625Y-139845000D01*
X138690625Y-139845000D01*
X138690625Y-138960000D01*
X138220625Y-138470000D01*
X137100625Y-139845000D01*
G37*
G36*
X142091045Y-140595000D02*
G01*
X142049954Y-140778256D01*
X142035625Y-140970000D01*
X142049954Y-141161744D01*
X142091045Y-141345000D01*
X105848125Y-141345000D01*
X105848125Y-140595000D01*
X142091045Y-140595000D01*
G37*
G36*
X141815625Y-138993750D02*
G01*
X140283125Y-137016250D01*
X140535625Y-136832500D01*
X141941875Y-138901250D01*
X141815625Y-138993750D01*
G37*
G36*
X143270625Y-138470000D02*
G01*
X143191875Y-135970000D01*
X143504375Y-135970000D01*
X143426875Y-138470000D01*
X143270625Y-138470000D01*
G37*
G36*
X144754375Y-138901250D02*
G01*
X146160625Y-136832500D01*
X146413125Y-137016250D01*
X144880625Y-138993750D01*
X144754375Y-138901250D01*
G37*
G36*
X145701875Y-140123750D02*
G01*
X148055625Y-139276250D01*
X148151875Y-139573750D01*
X145749375Y-140271250D01*
X145701875Y-140123750D01*
G37*
G36*
X145749375Y-141668750D02*
G01*
X148151875Y-142366250D01*
X148055625Y-142663750D01*
X145701875Y-141816250D01*
X145749375Y-141668750D01*
G37*
G36*
X144880625Y-142946250D02*
G01*
X146413125Y-144923750D01*
X146160625Y-145107500D01*
X144754375Y-143038750D01*
X144880625Y-142946250D01*
G37*
G36*
X143425625Y-143470000D02*
G01*
X143504375Y-145970000D01*
X143191875Y-145970000D01*
X143270625Y-143470000D01*
X143425625Y-143470000D01*
G37*
G36*
X141941875Y-143038750D02*
G01*
X140535625Y-145107500D01*
X140283125Y-144923750D01*
X141815625Y-142946250D01*
X141941875Y-143038750D01*
G37*
G36*
X106826211Y-144595000D02*
G01*
X106700309Y-144588703D01*
X106581419Y-144570184D01*
X106470072Y-144540005D01*
X106366803Y-144498723D01*
X106272144Y-144446900D01*
X106186626Y-144385096D01*
X106110783Y-144313869D01*
X106045147Y-144233780D01*
X105990250Y-144145389D01*
X105946626Y-144049256D01*
X105914807Y-143945940D01*
X105895324Y-143836001D01*
X105888712Y-143720000D01*
X105895324Y-143603999D01*
X105914807Y-143494060D01*
X105946626Y-143390744D01*
X105990250Y-143294611D01*
X106045147Y-143206220D01*
X106110783Y-143126131D01*
X106186626Y-143054904D01*
X106272144Y-142993100D01*
X106366803Y-142941277D01*
X106470072Y-142899995D01*
X106581419Y-142869816D01*
X106700309Y-142851297D01*
X106826211Y-142845000D01*
X107538712Y-142845000D01*
X107538712Y-144595000D01*
X106826211Y-144595000D01*
X106836211Y-144435000D01*
X107353711Y-144435000D01*
X107353711Y-143005000D01*
X106836211Y-143005000D01*
X106731894Y-143010159D01*
X106633803Y-143025328D01*
X106542308Y-143050041D01*
X106457777Y-143083835D01*
X106380579Y-143126245D01*
X106311081Y-143176807D01*
X106249654Y-143235057D01*
X106196666Y-143300530D01*
X106152485Y-143372763D01*
X106117481Y-143451290D01*
X106092021Y-143535649D01*
X106076475Y-143625373D01*
X106071211Y-143720000D01*
X106076475Y-143814627D01*
X106092021Y-143904351D01*
X106117481Y-143988710D01*
X106152485Y-144067237D01*
X106196666Y-144139470D01*
X106249654Y-144204943D01*
X106311081Y-144263193D01*
X106380579Y-144313755D01*
X106457777Y-144356165D01*
X106542308Y-144389959D01*
X106633803Y-144414672D01*
X106731894Y-144429841D01*
X106836211Y-144435000D01*
X106826211Y-144595000D01*
G37*
G36*
X110778516Y-144435000D02*
G01*
X110778516Y-143785000D01*
X109873517Y-143785000D01*
X109873517Y-143627500D01*
X110778516Y-143627500D01*
X110778516Y-143005000D01*
X109763516Y-143005000D01*
X109763516Y-142845000D01*
X110963517Y-142845000D01*
X110963517Y-144595000D01*
X109726017Y-144595000D01*
X109726017Y-144435000D01*
X110778516Y-144435000D01*
G37*
G36*
X113750390Y-144610000D02*
G01*
X113641855Y-144604657D01*
X113537519Y-144588688D01*
X113438211Y-144562179D01*
X113344764Y-144525219D01*
X113258008Y-144477894D01*
X113178774Y-144420292D01*
X113107892Y-144352500D01*
X113225391Y-144235000D01*
X113299314Y-144301771D01*
X113378446Y-144355000D01*
X113462578Y-144395313D01*
X113551502Y-144423333D01*
X113645009Y-144439688D01*
X113742891Y-144445000D01*
X113838430Y-144439590D01*
X113929661Y-144423735D01*
X114016004Y-144397993D01*
X114096878Y-144362924D01*
X114171703Y-144319090D01*
X114239898Y-144267048D01*
X114300884Y-144207360D01*
X114354079Y-144140585D01*
X114398904Y-144067283D01*
X114434778Y-143988013D01*
X114461121Y-143903336D01*
X114477352Y-143813812D01*
X114482892Y-143720000D01*
X114477352Y-143626188D01*
X114461121Y-143536664D01*
X114434778Y-143451987D01*
X114398904Y-143372717D01*
X114354079Y-143299415D01*
X114300884Y-143232640D01*
X114239898Y-143172952D01*
X114171703Y-143120910D01*
X114096878Y-143077076D01*
X114016004Y-143042007D01*
X113929661Y-143016265D01*
X113838430Y-143000410D01*
X113742891Y-142995000D01*
X113645009Y-143000301D01*
X113551502Y-143016574D01*
X113462578Y-143044375D01*
X113378446Y-143084259D01*
X113299314Y-143136782D01*
X113225391Y-143202500D01*
X113107892Y-143085000D01*
X113178766Y-143017347D01*
X113257950Y-142960102D01*
X113344567Y-142913265D01*
X113437745Y-142876837D01*
X113536608Y-142850816D01*
X113640282Y-142835204D01*
X113747891Y-142830000D01*
X113867066Y-142836591D01*
X113980669Y-142855922D01*
X114088012Y-142887330D01*
X114188405Y-142930155D01*
X114281157Y-142983732D01*
X114365580Y-143047401D01*
X114440984Y-143120498D01*
X114506679Y-143202362D01*
X114561976Y-143292330D01*
X114606185Y-143389741D01*
X114638617Y-143493930D01*
X114658581Y-143604238D01*
X114665390Y-143720000D01*
X114658583Y-143835762D01*
X114638626Y-143946070D01*
X114606216Y-144050259D01*
X114562049Y-144147670D01*
X114506821Y-144237638D01*
X114441229Y-144319502D01*
X114365970Y-144392599D01*
X114281739Y-144456268D01*
X114189234Y-144509845D01*
X114089150Y-144552670D01*
X113982183Y-144584078D01*
X113869031Y-144603409D01*
X113750390Y-144610000D01*
G37*
G36*
X117882031Y-144040000D02*
G01*
X117412032Y-144040000D01*
X117272031Y-144032500D01*
X116872032Y-144595000D01*
X116669532Y-144595000D01*
X117097031Y-143995000D01*
X117023866Y-143966977D01*
X116957511Y-143932520D01*
X116898176Y-143891792D01*
X116846071Y-143844960D01*
X116801406Y-143792187D01*
X116764391Y-143733640D01*
X116735236Y-143669483D01*
X116714151Y-143599880D01*
X116701346Y-143524998D01*
X116697031Y-143445000D01*
X116701781Y-143361158D01*
X116715857Y-143282847D01*
X116739000Y-143210271D01*
X116770950Y-143143635D01*
X116811449Y-143083143D01*
X116860236Y-143029001D01*
X116917052Y-142981413D01*
X116981638Y-142940585D01*
X117053734Y-142906721D01*
X117133081Y-142880025D01*
X117219419Y-142860703D01*
X117312489Y-142848960D01*
X117412032Y-142845000D01*
X118067032Y-142845000D01*
X118067032Y-144595000D01*
X117882031Y-144595000D01*
X117882031Y-144040000D01*
X117882031Y-143882500D01*
X117882031Y-143005000D01*
X117417031Y-143005000D01*
X117339200Y-143007822D01*
X117267281Y-143016215D01*
X117201330Y-143030071D01*
X117141401Y-143049279D01*
X117087548Y-143073730D01*
X117039826Y-143103316D01*
X116998290Y-143137927D01*
X116962994Y-143177453D01*
X116933993Y-143221787D01*
X116911342Y-143270817D01*
X116895095Y-143324436D01*
X116885307Y-143382533D01*
X116882032Y-143445000D01*
X116885307Y-143506442D01*
X116895095Y-143563753D01*
X116911342Y-143616797D01*
X116933993Y-143665437D01*
X116962994Y-143709537D01*
X116998290Y-143748960D01*
X117039826Y-143783570D01*
X117087548Y-143813229D01*
X117141401Y-143837803D01*
X117201330Y-143857153D01*
X117267281Y-143871144D01*
X117339200Y-143879638D01*
X117417031Y-143882500D01*
X117882031Y-143882500D01*
X117882031Y-144040000D01*
G37*
G36*
X121306836Y-144435000D02*
G01*
X121306836Y-143785000D01*
X120401837Y-143785000D01*
X120401837Y-143627500D01*
X121306836Y-143627500D01*
X121306836Y-143005000D01*
X120291836Y-143005000D01*
X120291836Y-142845000D01*
X121491837Y-142845000D01*
X121491837Y-144595000D01*
X120254337Y-144595000D01*
X120254337Y-144435000D01*
X121306836Y-144435000D01*
G37*
G36*
X123964532Y-142845000D02*
G01*
X124717031Y-144142500D01*
X125477032Y-142845000D01*
X125629531Y-142845000D01*
X125629531Y-144595000D01*
X125452031Y-144595000D01*
X125452031Y-143202500D01*
X124764531Y-144372500D01*
X124677031Y-144372500D01*
X123989531Y-143195000D01*
X123989531Y-144595000D01*
X123812031Y-144595000D01*
X123812031Y-142845000D01*
X123964532Y-142845000D01*
G37*
G36*
X130820702Y-144610000D02*
G01*
X130712168Y-144604657D01*
X130607831Y-144588688D01*
X130508524Y-144562179D01*
X130415077Y-144525219D01*
X130328320Y-144477894D01*
X130249086Y-144420292D01*
X130178204Y-144352500D01*
X130295704Y-144235000D01*
X130369627Y-144301771D01*
X130448759Y-144355000D01*
X130532891Y-144395313D01*
X130621815Y-144423333D01*
X130715322Y-144439688D01*
X130813204Y-144445000D01*
X130908743Y-144439590D01*
X130999975Y-144423735D01*
X131086317Y-144397993D01*
X131167191Y-144362924D01*
X131242016Y-144319090D01*
X131310211Y-144267048D01*
X131371197Y-144207360D01*
X131424392Y-144140585D01*
X131469217Y-144067283D01*
X131505091Y-143988013D01*
X131531433Y-143903336D01*
X131547665Y-143813812D01*
X131553204Y-143720000D01*
X131547665Y-143626188D01*
X131531433Y-143536664D01*
X131505091Y-143451987D01*
X131469217Y-143372717D01*
X131424392Y-143299415D01*
X131371197Y-143232640D01*
X131310211Y-143172952D01*
X131242016Y-143120910D01*
X131167191Y-143077076D01*
X131086317Y-143042007D01*
X130999975Y-143016265D01*
X130908743Y-143000410D01*
X130813204Y-142995000D01*
X130715322Y-143000301D01*
X130621815Y-143016574D01*
X130532891Y-143044375D01*
X130448759Y-143084259D01*
X130369627Y-143136782D01*
X130295704Y-143202500D01*
X130178204Y-143085000D01*
X130249079Y-143017347D01*
X130328262Y-142960102D01*
X130414880Y-142913265D01*
X130508058Y-142876837D01*
X130606921Y-142850816D01*
X130710594Y-142835204D01*
X130818203Y-142830000D01*
X130937379Y-142836591D01*
X131050983Y-142855922D01*
X131158326Y-142887330D01*
X131258718Y-142930155D01*
X131351471Y-142983732D01*
X131435894Y-143047401D01*
X131511298Y-143120498D01*
X131576994Y-143202362D01*
X131632291Y-143292330D01*
X131676500Y-143389741D01*
X131708931Y-143493930D01*
X131728896Y-143604238D01*
X131735704Y-143720000D01*
X131728897Y-143835762D01*
X131708941Y-143946070D01*
X131676530Y-144050259D01*
X131632363Y-144147670D01*
X131577136Y-144237638D01*
X131511544Y-144319502D01*
X131436284Y-144392599D01*
X131352054Y-144456268D01*
X131259548Y-144509845D01*
X131159463Y-144552670D01*
X131052497Y-144584078D01*
X130939344Y-144603409D01*
X130820702Y-144610000D01*
G37*
G36*
X134608126Y-144610000D02*
G01*
X134508049Y-144605393D01*
X134414527Y-144591602D01*
X134327812Y-144568677D01*
X134248157Y-144536664D01*
X134175814Y-144495611D01*
X134111036Y-144445567D01*
X134054076Y-144386578D01*
X134005185Y-144318694D01*
X133964617Y-144241961D01*
X133932625Y-144156427D01*
X133909461Y-144062140D01*
X133895377Y-143959149D01*
X133890626Y-143847500D01*
X133890626Y-142845000D01*
X134070626Y-142845000D01*
X134070626Y-143840000D01*
X134074066Y-143931791D01*
X134084299Y-144015690D01*
X134101196Y-144091791D01*
X134124627Y-144160191D01*
X134154461Y-144220985D01*
X134190571Y-144274269D01*
X134232825Y-144320139D01*
X134281094Y-144358689D01*
X134335249Y-144390016D01*
X134395159Y-144414215D01*
X134460695Y-144431381D01*
X134531727Y-144441611D01*
X134608126Y-144445000D01*
X134683990Y-144441611D01*
X134754571Y-144431381D01*
X134819730Y-144414215D01*
X134879332Y-144390016D01*
X134933239Y-144358689D01*
X134981316Y-144320139D01*
X135023426Y-144274269D01*
X135059431Y-144220985D01*
X135089197Y-144160191D01*
X135112586Y-144091791D01*
X135129461Y-144015690D01*
X135139686Y-143931791D01*
X135143125Y-143840000D01*
X135143125Y-142845000D01*
X135328125Y-142845000D01*
X135328125Y-143847500D01*
X135323332Y-143959149D01*
X135309131Y-144062140D01*
X135285788Y-144156427D01*
X135253569Y-144241961D01*
X135212740Y-144318694D01*
X135163569Y-144386578D01*
X135106320Y-144445567D01*
X135041261Y-144495611D01*
X134968658Y-144536664D01*
X134888776Y-144568677D01*
X134801883Y-144591602D01*
X134708244Y-144605393D01*
X134608126Y-144610000D01*
G37*
G36*
X137239136Y-144558375D02*
G01*
X137234314Y-144602400D01*
X137225257Y-144643127D01*
X137212140Y-144680455D01*
X137195136Y-144714283D01*
X137174421Y-144744510D01*
X137150169Y-144771034D01*
X137122555Y-144793755D01*
X137091753Y-144812571D01*
X137057937Y-144827382D01*
X137021283Y-144838086D01*
X136981965Y-144844583D01*
X136940156Y-144846771D01*
X136879173Y-144842110D01*
X136822114Y-144828273D01*
X136769144Y-144805476D01*
X136720431Y-144773935D01*
X136676139Y-144733868D01*
X136636436Y-144685492D01*
X136601487Y-144629023D01*
X136571459Y-144564677D01*
X136546519Y-144492672D01*
X136526831Y-144413225D01*
X136512562Y-144326552D01*
X136503879Y-144232870D01*
X136500948Y-144132396D01*
X136509830Y-143976439D01*
X136535930Y-143828972D01*
X136578434Y-143690689D01*
X136636523Y-143562283D01*
X136709381Y-143444449D01*
X136796193Y-143337880D01*
X136896141Y-143243269D01*
X137008409Y-143161311D01*
X137132180Y-143092699D01*
X137266638Y-143038126D01*
X137410967Y-142998287D01*
X137564349Y-142973875D01*
X137725969Y-142965583D01*
X137890368Y-142974192D01*
X138046017Y-142999506D01*
X138192150Y-143040760D01*
X138328000Y-143097189D01*
X138452802Y-143168025D01*
X138565790Y-143252504D01*
X138666198Y-143349859D01*
X138753260Y-143459325D01*
X138826210Y-143580134D01*
X138884283Y-143711523D01*
X138926711Y-143852724D01*
X138952730Y-144002972D01*
X138961573Y-144161500D01*
X138952865Y-144319597D01*
X138927227Y-144469739D01*
X138885388Y-144611109D01*
X138828080Y-144742890D01*
X138756030Y-144864266D01*
X138669970Y-144974420D01*
X138570629Y-145072536D01*
X138458737Y-145157798D01*
X138335024Y-145229388D01*
X138200219Y-145286491D01*
X138055052Y-145328290D01*
X137900253Y-145353968D01*
X137736552Y-145362708D01*
X137597687Y-145355226D01*
X137453117Y-145332612D01*
X137312020Y-145294619D01*
X137183573Y-145241000D01*
X137228552Y-145111354D01*
X137350343Y-145163031D01*
X137480568Y-145199328D01*
X137611785Y-145220743D01*
X137736552Y-145227771D01*
X137881154Y-145220089D01*
X138017801Y-145197500D01*
X138145863Y-145160690D01*
X138264712Y-145110347D01*
X138373720Y-145047157D01*
X138472258Y-144971805D01*
X138559697Y-144884979D01*
X138635408Y-144787365D01*
X138698764Y-144679650D01*
X138749134Y-144562519D01*
X138785892Y-144436659D01*
X138808407Y-144302758D01*
X138816052Y-144161500D01*
X138808316Y-144020332D01*
X138785535Y-143886678D01*
X138748354Y-143761196D01*
X138697415Y-143644545D01*
X138633361Y-143537381D01*
X138556835Y-143440362D01*
X138468481Y-143354145D01*
X138368941Y-143279389D01*
X138258859Y-143216750D01*
X138138878Y-143166886D01*
X138009640Y-143130455D01*
X137871790Y-143108114D01*
X137725969Y-143100521D01*
X137581754Y-143107755D01*
X137445089Y-143129087D01*
X137316669Y-143163959D01*
X137197188Y-143211817D01*
X137087338Y-143272103D01*
X136987814Y-143344260D01*
X136899309Y-143427733D01*
X136822517Y-143521966D01*
X136758132Y-143626401D01*
X136706847Y-143740483D01*
X136669357Y-143863654D01*
X136646353Y-143995359D01*
X136638531Y-144135042D01*
X136640388Y-144214723D01*
X136645873Y-144288818D01*
X136654854Y-144357191D01*
X136667203Y-144419703D01*
X136682789Y-144476218D01*
X136701482Y-144526599D01*
X136723152Y-144570707D01*
X136747669Y-144608406D01*
X136774903Y-144639559D01*
X136804724Y-144664028D01*
X136837001Y-144681675D01*
X136871606Y-144692365D01*
X136908406Y-144695958D01*
X136928858Y-144695000D01*
X136948586Y-144692047D01*
X136967434Y-144686984D01*
X136985240Y-144679696D01*
X137001848Y-144670066D01*
X137017096Y-144657980D01*
X137030828Y-144643321D01*
X137042883Y-144625974D01*
X137053102Y-144605824D01*
X137061328Y-144582755D01*
X137067400Y-144556650D01*
X137071159Y-144527396D01*
X137072448Y-144494875D01*
X137072448Y-143492104D01*
X137244427Y-143492104D01*
X137244427Y-143759333D01*
X137288750Y-143696500D01*
X137340049Y-143641139D01*
X137397860Y-143593530D01*
X137461716Y-143553951D01*
X137531154Y-143522681D01*
X137605708Y-143500000D01*
X137684912Y-143486187D01*
X137768302Y-143481521D01*
X137853229Y-143486469D01*
X137934268Y-143501006D01*
X138010914Y-143524669D01*
X138082661Y-143556996D01*
X138149004Y-143597524D01*
X138209435Y-143645791D01*
X138263450Y-143701335D01*
X138310543Y-143763692D01*
X138350207Y-143832400D01*
X138381938Y-143906998D01*
X138405229Y-143987022D01*
X138419575Y-144072010D01*
X138424469Y-144161500D01*
X138419575Y-144251599D01*
X138405229Y-144337190D01*
X138381938Y-144417801D01*
X138350207Y-144492965D01*
X138310543Y-144562211D01*
X138263450Y-144625069D01*
X138209435Y-144681070D01*
X138149004Y-144729744D01*
X138082661Y-144770621D01*
X138010914Y-144803232D01*
X137934268Y-144827107D01*
X137853229Y-144841777D01*
X137768302Y-144846771D01*
X137683057Y-144841867D01*
X137602276Y-144827382D01*
X137526457Y-144803657D01*
X137456094Y-144771034D01*
X137391684Y-144729853D01*
X137333724Y-144680455D01*
X137282709Y-144623182D01*
X137239136Y-144558375D01*
X137329635Y-144478043D01*
X137365862Y-144526372D01*
X137407365Y-144569102D01*
X137453737Y-144605971D01*
X137504575Y-144636720D01*
X137559474Y-144661089D01*
X137618029Y-144678818D01*
X137679836Y-144689645D01*
X137744490Y-144693313D01*
X137810749Y-144689559D01*
X137873742Y-144678500D01*
X137933115Y-144660439D01*
X137988513Y-144635680D01*
X138039584Y-144604526D01*
X138085972Y-144567281D01*
X138127324Y-144524248D01*
X138163285Y-144475730D01*
X138193502Y-144422032D01*
X138217621Y-144363456D01*
X138235286Y-144300307D01*
X138246146Y-144232887D01*
X138249844Y-144161500D01*
X138246146Y-144090202D01*
X138235286Y-144023030D01*
X138217621Y-143960259D01*
X138193502Y-143902163D01*
X138163285Y-143849016D01*
X138127324Y-143801093D01*
X138085972Y-143758670D01*
X138039584Y-143722020D01*
X137988513Y-143691417D01*
X137933115Y-143667137D01*
X137873742Y-143649455D01*
X137810749Y-143638644D01*
X137744490Y-143634979D01*
X137679836Y-143638600D01*
X137618029Y-143649296D01*
X137559474Y-143666812D01*
X137504575Y-143690897D01*
X137453737Y-143721297D01*
X137407365Y-143757759D01*
X137365862Y-143800031D01*
X137329635Y-143847860D01*
X137299087Y-143900992D01*
X137274623Y-143959175D01*
X137256647Y-144022156D01*
X137245565Y-144089682D01*
X137241781Y-144161500D01*
X137245565Y-144233927D01*
X137256647Y-144302056D01*
X137274623Y-144365624D01*
X137299087Y-144424373D01*
X137329635Y-144478043D01*
X137239136Y-144558375D01*
G37*
D13*
X69172000Y-102925000D02*
X69622000Y-103325000D01*
X69622000Y-103325000D02*
X69622000Y-102525000D01*
X69622000Y-102525000D02*
X69172000Y-102925000D01*
X63572000Y-97775000D02*
X66372000Y-97775000D01*
X66372000Y-97775000D02*
X66372000Y-97475000D01*
X66372000Y-97475000D02*
X67922000Y-97475000D01*
X63572000Y-105475000D02*
X66372000Y-105475000D01*
X66372000Y-105775000D02*
X66372000Y-105475000D01*
X66372000Y-105775000D02*
X67922000Y-105775000D01*
D10*
X69124380Y-98865476D02*
X69838666Y-98865476D01*
X69981523Y-98817857D01*
X70076761Y-98722619D01*
X70124380Y-98579761D01*
X70124380Y-98484523D01*
X70124380Y-99865476D02*
X70124380Y-99294047D01*
X70124380Y-99579761D02*
X69124380Y-99579761D01*
X69267238Y-99484523D01*
X69362476Y-99389285D01*
X69410095Y-99294047D01*
X70124380Y-100817857D02*
X70124380Y-100246428D01*
X70124380Y-100532142D02*
X69124380Y-100532142D01*
X69267238Y-100436904D01*
X69362476Y-100341666D01*
X69410095Y-100246428D01*
M02*
