M48
; DRILL file {KiCad (5.1.8-0-10_14)} date Friday, January 15, 2021 at 12:08:33 PM
; FORMAT={-:-/ absolute / inch / decimal}
; #@! TF.CreationDate,2021-01-15T12:08:33-08:00
; #@! TF.GenerationSoftware,Kicad,Pcbnew,(5.1.8-0-10_14)
; #@! TF.FileFunction,Plated,1,2,PTH
FMAT,2
INCH
T1C0.0157
T2C0.0256
T3C0.0276
T4C0.0315
T5C0.0335
T6C0.0394
T7C0.0400
T8C0.0433
T9C0.0791
T10C0.1300
%
G90
G05
T1
X2.5464Y-5.5236
X2.775Y-4.075
X2.81Y-5.0
X2.825Y-5.175
X2.8472Y-3.9972
X2.875Y-4.025
X2.9Y-5.4
X2.925Y-4.575
X2.925Y-4.995
X2.975Y-4.0215
X2.975Y-5.575
X3.0Y-4.0785
X3.0Y-4.175
X3.025Y-5.45
X3.0465Y-5.5
X3.125Y-4.0
X3.125Y-5.7
X3.175Y-4.05
X3.25Y-4.225
X3.275Y-4.1
X3.275Y-4.325
X3.275Y-4.9
X3.275Y-5.775
X3.3Y-4.0
X3.325Y-4.95
X3.4Y-5.0
X3.425Y-4.8
X3.425Y-4.85
X3.425Y-4.9
X3.425Y-5.2
X3.475Y-4.35
X3.5Y-4.2
X3.575Y-5.05
X3.575Y-5.1
X3.6Y-4.8
X3.6Y-4.875
X3.6Y-4.925
X3.6Y-4.975
X3.8Y-3.45
X3.8Y-4.5035
X3.8Y-4.625
X3.85Y-5.025
X3.8995Y-5.1495
X3.9Y-4.025
X3.9Y-4.725
X3.925Y-4.45
X3.975Y-3.675
X3.975Y-4.6
X3.975Y-5.4
X4.025Y-3.45
X4.175Y-5.9
X4.2Y-4.625
X4.2Y-5.575
X4.225Y-4.0
X4.25Y-3.85
X4.275Y-4.825
X4.3Y-4.0
X4.325Y-5.1
X4.375Y-4.1
X4.375Y-5.725
X4.4Y-3.45
X4.4169Y-3.6169
X4.425Y-3.775
X4.425Y-3.95
X4.475Y-3.95
X4.5Y-5.4
X4.64Y-5.0
X4.64Y-5.14
X4.675Y-5.275
X4.7415Y-5.0985
X4.825Y-4.525
X4.875Y-4.1
X4.875Y-4.175
X4.875Y-4.25
X4.875Y-4.325
X4.875Y-4.4
X4.875Y-4.475
X4.975Y-5.9
X5.2Y-5.0665
X5.2Y-5.15
X5.275Y-4.925
X5.325Y-5.125
X5.425Y-5.275
X5.425Y-5.375
X5.475Y-5.075
X5.625Y-5.6
X5.6724Y-5.1974
X5.725Y-5.075
X5.8Y-5.125
X5.825Y-5.7
X5.95Y-4.925
X5.9659Y-5.125
X5.975Y-5.6
X6.3724Y-5.1974
X6.425Y-5.075
X6.4689Y-5.05
X6.526Y-5.025
X6.5831Y-5.1
X6.6Y-4.975
X6.625Y-5.9
X6.669Y-5.8
X6.67Y-5.075
X6.6887Y-5.75
X6.75Y-5.7
X6.75Y-5.75
X6.77Y-5.635
X6.7713Y-5.555
X6.83Y-5.555
X6.85Y-5.7215
X6.879Y-5.506
X6.89Y-5.235
X6.93Y-5.395
T3
X3.8Y-5.525
X3.8Y-5.825
X4.45Y-5.8
X4.75Y-5.8
X5.25Y-5.8
X5.55Y-5.8
X6.2Y-5.525
X6.2Y-5.825
T4
X2.825Y-4.325
X2.975Y-5.325
X3.05Y-4.64
X3.4Y-2.7
X3.4Y-2.85
X3.4Y-3.0
X3.6Y-3.4
X3.625Y-3.5
X3.65Y-3.6
X3.675Y-3.7
X3.675Y-5.55
X3.7Y-3.8
X3.725Y-3.9
X3.75Y-4.0
X3.775Y-4.1
X3.8Y-4.2
X3.825Y-4.4
X4.125Y-4.4
X4.275Y-4.25
X4.4Y-4.25
X4.4Y-4.375
X4.4Y-4.5
X4.5967Y-5.0783
X4.85Y-4.65
X4.95Y-5.1
X5.0Y-2.7
X5.0Y-2.85
X5.0Y-3.0
X5.0Y-3.15
X5.0Y-3.3
X5.0Y-3.45
X5.0Y-3.6
X5.0Y-3.75
X5.0Y-3.9
X5.0Y-4.05
X5.0Y-4.2
X5.0Y-4.35
X5.0Y-4.5
X5.0Y-4.65
X3.9Y-3.35
X4.1953Y-3.35
X4.5047Y-3.2
X4.8Y-3.2
X4.5047Y-3.35
X4.8Y-3.35
X3.9Y-3.2
X4.1953Y-3.2
T5
X4.7Y-4.275
X4.7Y-4.375
X4.7Y-4.475
X4.7Y-4.675
X4.7Y-4.775
T6
X7.2Y-3.6
X7.2Y-3.7
X7.2Y-3.8
X7.2Y-3.9
X7.2Y-4.0
X7.3Y-3.6
X7.3Y-3.7
X7.3Y-3.8
X7.3Y-3.9
X7.3Y-4.0
X3.7Y-4.425
X3.7Y-4.525
X3.7Y-4.625
X3.7Y-4.725
X3.7Y-4.825
X3.3Y-5.3
X3.3Y-5.4
X3.4Y-5.3
X3.4Y-5.4
X3.5Y-5.3
X3.5Y-5.4
X3.6Y-5.3
X3.6Y-5.4
X3.7Y-5.3
X3.7Y-5.4
X7.2Y-5.5
X7.3Y-5.5
X7.4Y-5.5
X5.3Y-4.8
X5.4Y-4.8
X5.5Y-4.8
X5.6Y-4.8
X5.7Y-4.8
X5.8Y-4.8
X5.9Y-4.8
X6.0Y-4.8
X6.1Y-4.8
X6.2Y-4.8
X6.3Y-4.8
X6.4Y-4.8
X6.5Y-4.8
X6.6Y-4.8
X6.7Y-4.8
X6.8Y-4.8
X6.0Y-3.3
X6.1Y-3.3
X4.6Y-4.0
X4.7Y-4.0
X4.8Y-4.0
X7.2Y-5.3
X7.3Y-5.3
X7.4Y-5.3
X7.2Y-4.5
X7.2Y-4.6
X7.2Y-4.7
X7.2Y-4.8
X7.2Y-4.9
X7.3Y-4.5
X7.3Y-4.6
X7.3Y-4.7
X7.3Y-4.8
X7.3Y-4.9
T7
X4.5Y-3.0
X4.6Y-3.0
X3.7Y-3.0
X3.8Y-3.0
X6.2Y-6.0
X6.3Y-6.0
X5.4Y-6.0
X5.5Y-6.0
X3.8Y-6.0
X3.9Y-6.0
X6.1Y-3.0
X6.2Y-3.0
X4.6Y-6.0
X4.7Y-6.0
X5.3Y-3.0
X5.4Y-3.0
T8
X5.9Y-3.7
X6.3Y-4.4
X6.6Y-3.7
X6.5Y-4.6
X6.8Y-4.2
X5.5Y-3.6
X5.2Y-4.3
X6.4Y-4.3
X5.7Y-3.8
X5.9Y-3.6
X6.3Y-4.3
X6.5Y-4.5
X5.5Y-3.5
X6.8Y-3.6
X5.9Y-3.5
X6.3Y-4.2
X6.5Y-4.4
X5.6Y-4.6
X5.9Y-4.3
X6.8Y-3.5
X6.5Y-4.3
X5.6Y-4.5
X6.8Y-4.6
X6.2Y-4.1
X5.9Y-4.2
X6.9Y-4.5
X5.5Y-4.5
X6.5Y-4.2
X6.8Y-3.9
X5.6Y-4.4
X6.9Y-4.6
X6.8Y-4.3
X6.2Y-4.0
X5.9Y-4.1
X6.9Y-4.4
X5.5Y-4.4
X5.2Y-4.2
X6.5Y-4.1
X6.2Y-3.9
X5.9Y-4.0
X6.9Y-4.3
X5.5Y-4.3
X5.3Y-3.9
X5.6Y-3.8
X5.2Y-4.1
X6.5Y-4.0
X6.9Y-3.8
X6.2Y-3.8
X5.9Y-3.9
X5.5Y-4.2
X5.3Y-3.8
X5.6Y-3.7
X5.2Y-4.0
X6.5Y-3.9
X5.8Y-3.9
X6.9Y-3.7
X6.2Y-3.7
X5.5Y-4.1
X5.3Y-3.7
X5.7Y-4.3
X5.6Y-3.6
X5.2Y-3.9
X6.5Y-3.8
X5.8Y-3.8
X6.9Y-3.6
X6.2Y-3.6
X5.5Y-4.0
X5.3Y-3.6
X5.7Y-4.2
X5.6Y-3.5
X5.2Y-3.8
X6.5Y-3.7
X5.8Y-3.7
X6.9Y-3.5
X6.2Y-3.5
X5.7Y-3.7
X5.3Y-3.5
X5.7Y-4.1
X5.7Y-4.6
X5.2Y-3.7
X6.5Y-3.6
X5.8Y-3.6
X6.6Y-3.5
X5.2Y-4.6
X6.3Y-4.6
X5.7Y-3.6
X5.2Y-4.5
X6.8Y-3.7
X5.7Y-4.0
X5.7Y-4.5
X5.2Y-3.6
X6.5Y-3.5
X6.2Y-4.6
X5.8Y-3.5
X6.6Y-3.6
X6.3Y-4.1
X5.3Y-4.6
X6.8Y-4.1
X6.3Y-4.5
X5.7Y-3.5
X5.2Y-4.4
X6.6Y-4.6
X6.2Y-4.5
X5.9Y-4.6
X6.3Y-4.0
X5.3Y-4.5
X5.8Y-4.6
X6.6Y-4.5
X6.4Y-4.2
X6.2Y-4.4
X5.9Y-4.5
X6.3Y-3.9
X5.3Y-4.4
X5.6Y-4.3
X6.8Y-3.8
X5.8Y-4.5
X6.6Y-4.4
X6.4Y-4.1
X6.2Y-4.3
X5.9Y-4.4
X6.3Y-3.8
X5.3Y-4.3
X5.6Y-4.2
X5.8Y-4.4
X6.9Y-4.2
X6.6Y-4.3
X6.4Y-4.0
X6.2Y-4.2
X6.3Y-3.7
X5.5Y-4.6
X5.3Y-4.2
X5.6Y-4.1
X5.8Y-4.3
X6.8Y-4.5
X5.9Y-3.8
X6.9Y-4.1
X6.6Y-4.2
X6.4Y-3.9
X6.8Y-4.4
X6.3Y-3.6
X5.3Y-4.1
X5.6Y-4.0
X5.8Y-4.2
X6.9Y-4.0
X6.6Y-4.1
X6.4Y-3.8
X6.3Y-3.5
X5.3Y-4.0
X5.6Y-3.9
X5.8Y-4.1
X6.9Y-3.9
X6.6Y-4.0
X6.4Y-3.7
X5.5Y-3.9
X6.4Y-4.6
X6.8Y-4.0
X5.8Y-4.0
X6.6Y-3.9
X6.4Y-3.6
X5.5Y-3.8
X6.4Y-4.5
X6.6Y-3.8
X6.4Y-3.5
X5.5Y-3.7
X6.4Y-4.4
X5.7Y-3.9
X5.7Y-4.4
X5.2Y-3.5
T9
X6.4Y-2.8
X4.4Y-2.8
X4.8Y-2.8
X3.6Y-2.8
X4.0Y-2.8
X6.0Y-6.2
X6.4Y-6.2
X5.2Y-6.2
X5.6Y-6.2
X3.6Y-6.2
X4.0Y-6.2
X6.0Y-2.8
X4.4Y-6.2
X4.8Y-6.2
X5.2Y-2.8
X5.6Y-2.8
T10
X3.5Y-3.25
X6.5Y-3.25
X6.5Y-5.75
X3.5Y-5.75
T2
G00X2.6769Y-3.9057
M15
G01X2.6926Y-3.9057
M16
G05
G00X2.6769Y-4.0963
M15
G01X2.6926Y-4.0963
M16
G05
T3
G00X2.5568Y-3.8935
M15
G01X2.5765Y-3.8935
M16
G05
G00X2.5568Y-4.1085
M15
G01X2.5765Y-4.1085
M16
G05
T4
G00X2.8217Y-3.5317
M15
G01X2.8217Y-3.6183
M16
G05
G00X2.8886Y-3.764
M15
G01X2.9752Y-3.764
M16
G05
G00X3.05Y-3.5238
M15
G01X3.05Y-3.6262
M16
G05
T0
M30
